; Version : LOCAL
; Job     : G:\SPIROSE\PCB\LED_PANEL\PCB\PCB.pcb
; User    : DESKTOP-D6MOGOB:alexis
; Date    : Mon Jan 08 12:14:03 2018
; Format  : 3.3 / Absolute / MM / Leading
; Contents: Thru / Drill / Plated
M48
METRIC,TZ
FMAT,2
ICI,OFF
T02C0.3000
T01C0.4000
T03C4.0000
%
M71
G90
G93X0Y0
T02
X162680Y2518
X157498Y1161
X154023Y2262
X151472Y2261
X150186Y2167
X148906Y2144
X147550Y2139
X146370Y2254
X145010Y2139
X143838Y2323
X142470Y2139
X141298Y2225
X104375Y1333
X100560Y1171
X91104Y1413
X85731Y1360
X80170Y1333
X76436Y1306
X72487Y1118
X68914Y1252
X64939
X59593Y1198
X54193Y1171
X51743Y1113
X48285Y2193
X45633Y2176
X43120Y2274
X40580Y2229
X38057Y2140
X36855Y2164
X35463Y2131
X34220Y2215
X30780Y1310
X19420Y1400
X14700Y1310
X2950Y1570
Y3070
Y4570
X3810Y3810
X14700Y2810
Y4310
X19420Y2900
Y4400
X30780Y2810
Y4310
X41910Y3810
X44397Y3667
X45720Y3810
X46951Y3661
X54411Y4886
X60960Y3810
X64770
X68580
X72390
X76200
X80010
X102870
X106680
X110490
X114300
X118110
X125730
X129540
X139107Y4948
X145121Y3827
X147630Y3926
X150173Y3938
X152734Y3898
X155270Y3925
X156210Y3810
X160020
X162680Y4018
X173450Y2588
Y4088
X175260Y3810
X178290Y2620
Y4120
X179070Y3810
X190010Y2620
Y4120
Y5620
Y7120
X178290Y5620
Y7120
X173450Y5588
Y7088
X162680Y5518
Y7018
X156872Y7178
X142560Y6267
X141290
X59835Y7112
X49460Y6341
X46928
X44492Y7433
X44416Y6368
X41840Y6341
X39318Y6374
X38058Y6398
X36791Y6417
X34254
X30780Y5810
Y7310
X19420Y5900
Y7400
X14700Y5810
Y7310
X2950Y6070
Y7570
Y9070
X3810Y7620
X14700Y8810
X19420Y8900
X30780Y8810
X34290Y7620
X38100
X41030Y8228
X43519Y8729
X45720Y7620
X49616Y8996
X53340Y7620
X57150
X64770
X68580
X72390
X76200
X80010
X83820
X87630
X91440
X95250
X98955Y9907
X99060Y7620
X102870
X106680
X110490
X114300
X118110
X121920
X125730
X129540
X133350
X137160
X140970
X144780
X146633Y9563
X149998Y9736
X150935Y9797
X155664Y9515
X162680Y8518
Y10018
X173450Y8588
Y10088
X175260Y7620
X178290Y8620
Y10120
X179070Y7620
X190010Y8620
Y10120
Y11620
X186690Y11430
X182880
X179070
X178290Y11620
X175260Y11430
X173450Y11588
X171450Y11430
X167640
X163830
X162680Y11518
X153141Y10211
X148590Y11430
X140970
X137160
X133350
X129540
X125730
X122488Y10487
X112790Y11185
X106020Y11158
X97935Y11360
X87845Y11798
X86877Y10979
X83820Y11430
X80010
X76200
X72390
X68580
X60960
X57150
X52396Y11817
X49530Y11430
X41910
X38100
X34290
X30780Y10310
X30480Y11430
X26670
X22860
X19420Y10400
X19050Y11430
X15240
X14700Y10310
X11430Y11430
X7620
X3810
X2950Y10570
X32165Y13879
X41981Y13845
X60009Y14822
X66087Y15204
X86788Y13589
X87890Y13536
X98430Y12909
X103798Y14733
X104943Y14794
X106530Y14116
X116310Y14160
X142962Y13548
X155704Y13746
X190500Y15240
X186690
X182880
X179070
X175260
X171450
X167640
X163830
X158107Y16160
X156289Y17119
X142703Y17193
X125903Y16387
X117650Y17199
X112704Y17530
X106530Y17182
X97331Y17364
X93396Y16222
X91086Y16186
X85905Y15440
X82075Y16576
X76903Y15730
X75820Y16727
X68546Y17365
X57683Y16560
X37660Y15339
X33832Y16961
X30511Y15497
X26670Y15240
X22860
X19050
X15240
X11430
X7620
X3810
Y19050
X7620
X11430
X15240
X19050
X22860
X31708Y18550
X37252Y19643
X44695Y19239
X47139Y18129
X57716Y17984
X57733Y19348
X63234Y19972
X65194Y19244
X70704Y19938
X70848Y18609
X75026Y18762
X75048Y20040
X80571Y20165
X82444Y19515
X87972Y20238
X87997Y18863
X93414Y19983
X102100Y18193
X102982Y18874
X107305Y18644
X113496Y19666
X114739Y20258
X117178Y18944
X120638Y17821
X122191Y20176
X126907Y17821
X127797Y20227
X128910Y18830
X147677Y17991
X150700Y20000
X152424Y19696
X163320Y17856
X175260Y19050
X179070
X182880
X186690
X190754Y19259
X171097Y20476
X165549Y22289
X158589Y22372
X157488Y20571
X156259Y20993
X153227Y21860
X147691Y21867
X145701Y20579
X128707Y22147
X127771Y21700
X117200Y20860
X113508Y20878
X106052Y20826
X102100Y22818
X97960Y20941
X85900Y22377
X82492Y21451
X75029Y22505
X71511Y20604
X71217Y22091
X65185Y21213
X45869Y21771
X39087Y21197
X37207Y21639
X31610Y21020
X30480Y21146
X3810Y22860
X7620
X11430
X15240
X19050
X32404Y23285
X37202Y23619
X38740Y23290
X44764Y22990
X44821Y24215
X45914Y22968
X53281Y24485
X55899Y23755
X57353Y23980
X58417Y23392
X68780Y24040
X73113Y24199
X73154Y25186
X78119Y25278
X80450Y25179
X89564Y23887
X91440Y22860
X97925Y23341
X102260Y24739
X106551Y23744
X108720Y23745
X111560Y25000
X112477Y24670
X118700Y23681
X124540Y23490
X129058Y24226
X133350Y22860
X135498Y23501
X137815Y23465
X139535Y24203
X141990Y23598
X149040Y23634
X151218Y24663
X152525Y23986
X157795Y24739
X171450Y22860
X179070
X182880
X186690
X190500
Y26670
X186690
X182880
X176617Y27406
X167350Y26460
X165850
X164350
X162850
X148590Y26670
X146107Y27620
X143381Y26302
X142396Y25667
X137160Y26670
X130220Y27660
X128720
X127220
X125720
X120828Y26173
X119868Y25978
X118110Y26670
X117493Y27788
X114300Y26670
X110490
X109991Y27810
X106680Y26670
X102180Y26942
X97805Y25836
X94000Y27760
X92500
X91000
X89500
X84558Y27129
X80010Y26670
X79722Y27521
X70456Y26508
X64925Y25641
X62347Y25796
X60960Y26670
X52100Y27760
X50600
X49100
X47600
X42907Y25480
X40680Y27648
X36170Y25740
X34290Y26670
X32839Y27748
X11430Y26670
X3810
X9085Y30102
X11670Y30470
X12250Y27960
X13170Y30470
X13750Y27960
X14670Y30470
X15250Y27960
X16170Y30470
X16667Y27960
X18900Y30142
X26868Y29588
X28490Y29653
X34590Y29626
X37199Y30346
X44450Y29910
X47070Y30360
X48570
X50070
X51570
X54250Y29910
X65160Y29576
X67186Y29529
X73265Y27993
X73418Y29672
X74990Y29601
X84357Y30030
X86350Y29910
X88990Y30400
X90490
X91990
X93490
X96150Y29910
X102287Y29762
X104106Y29645
X105690Y29496
X111530Y29838
X113130Y29790
X121828Y29776
X125230Y30280
X126730
X128230
X129730
X132370Y29810
X146619Y29165
X153594
X157365Y28527
X159700Y28610
Y30140
X162240Y29000
X163740
X165240
X166740
X169500Y28610
Y30110
X190500Y30480
X186690
X182880
X179070
X174618Y32194
X169500Y31610
X166740Y30500
Y32000
X165240Y30500
Y32000
X163740Y30500
Y32000
X162240Y30500
Y32000
X159700Y31640
X149140Y30827
X147555Y31042
X142258Y30869
X140227Y31067
X132370Y31310
Y32810
X129730Y31780
X128230
X126730
X125230
X122570Y31310
Y32810
X118110Y30480
X114300
X110490
X106680
X96150Y31410
Y32910
X93490Y31900
X91990
X90490
X88990
X86350Y32910
X86204Y31560
X80010Y30480
X72390
X54250Y31410
Y32910
X51570Y31860
X50070
X48570
X47070
X44450Y31410
Y32910
X18900Y31610
X16170Y31970
X14670
X13170
X11670
X9100Y31610
X3810Y30480
Y34290
X9100Y33110
Y34610
X11670Y33470
Y34970
X13170Y33470
Y34970
X14670Y33470
Y34970
X16170Y33470
Y34970
X18900Y33110
Y34610
X19152Y35459
X26691Y33151
X30875Y33692
X34290Y34290
X34331Y33140
X38584Y33699
X44450Y34410
X47070Y33360
Y34860
X48570Y33360
Y34860
X50070Y33360
Y34860
X51570Y33360
Y34860
X54250Y34410
X55895Y35475
X64947Y33132
X69125Y33569
X72390Y34290
X73161Y33113
X77725Y33465
X78347Y34387
X80010Y34290
X86350Y34410
X88990Y33400
Y34900
X90490Y33400
Y34900
X91990Y33400
Y34900
X93490Y33400
Y34900
X96150Y34410
X103850Y33132
X108109Y33709
X110490Y34290
X111333Y33254
X115497Y33784
X122570Y34310
X125230Y33280
Y34780
X126730Y33280
Y34780
X128230Y33280
Y34780
X129730Y33280
Y34780
X132375Y34315
X139995Y34493
X144125Y35170
X147247Y34593
X151503Y35023
X159577Y34982
X159700Y33140
X162240Y33500
X163740
X165240
X166740
X168600Y35453
X169500Y33110
X169523Y34749
X177000Y35239
X182880Y34290
X186690
X190500
X174457Y36313
X169306Y36648
X167875Y36452
X167496Y37837
X166525Y36352
X164960Y36510
X163350Y36260
X161850
X161150Y36770
X159700Y36944
X151095Y36895
X146241Y37218
X132565Y37257
X132357Y36094
X131470Y36676
X131161Y37679
X129683Y37923
X128183
X126683
X125270Y37927
X124120Y37980
X122770Y38010
X122672Y36284
X105573Y36228
X99837Y38080
X96027Y36365
X95247Y37245
X93000Y37560
X91500
X90125
X88500
X86455Y36410
X84037Y35619
X83954Y37606
X78548Y36966
X76977Y38054
X74720Y36845
X54170Y36335
X53324Y36537
X53255Y37830
X51431Y37962
X49604Y37568
X48100Y37560
X46610
X45760Y37555
X44212Y36099
X42495Y37139
X37575Y35835
X34620Y37429
X20123Y36397
X18062Y36743
X17370Y37781
X15750Y37760
X14250
X12750
X11250
X9143Y36471
X8150Y37460
X3810Y38100
X10600Y38540
X18263Y38477
X23545Y40087
X28068Y39512
X32067Y38904
X36082Y38319
X55620Y38811
X64160Y40509
X68260Y40158
X73294Y39425
X81909Y38131
X86560Y38110
X87780Y38802
X88639Y38690
X94634Y38800
X95650Y38127
X96441Y38621
X99878Y40364
X104310Y40071
X108979Y39589
X110490Y38100
X114300
X118110
X131487Y38480
X135600Y40092
X140062Y39779
X144891Y39079
X156210Y38100
X167395Y40229
X171810
X176450Y39761
X179070Y38100
X180979Y39047
X186690Y38100
X190500
Y41910
X186690
X182880
X162834Y40683
X158310Y41258
X155477Y42029
X153953Y41856
X149280Y42556
X131098Y40667
X126675Y40704
X122681Y41246
X117780Y41858
X113321Y42556
X95472Y40664
X91032Y40964
X86299Y41283
X83850Y43167
X81859Y41802
X77500Y42556
X74900Y43180
X61400Y43155
X60445Y43160
X59757Y40802
X56900Y43155
X55033Y41209
X52400Y43155
X50627Y41293
X47900Y43155
X46056Y41881
X43400Y43155
X41224Y42556
X39008Y43135
X34484
X33411Y43160
X29970Y43126
X29059Y43080
X25450Y43126
X20950
X19043Y40717
X16450Y43126
X14550Y41296
X11950Y43126
X10050Y41881
X7450Y43126
X6090Y42556
X1449Y40952
X24439Y43187
X37862Y43196
X64886
X65915Y43228
X69310Y43196
X70411Y43228
X79350Y43242
X88350Y43192
X92554Y45336
X92850Y43279
X97350
X100718Y43254
X101850Y43279
X106350
X110850
X115300
X119800
X124300
X128761
X133300
X137800
X142300
X146800
X151350
X155850
X160350
X164850
X169350
X173802
X178350
X182850
X190500Y45720
X186690
X182880
X181900Y47548
X180787Y47566
X177400Y47548
X176543Y47647
X173883Y47754
X172900Y47436
X171750Y47040
Y47890
X169550Y47140
Y47990
X168400Y47697
X167350Y47890
X167262Y47040
X165050Y47140
Y47990
X163900Y47598
X162671Y47040
Y47890
X160550Y47140
Y47990
X159400Y47622
X158350Y47040
Y47890
X156050Y47140
Y47990
X154900Y47573
X154004Y47512
X151291
X150400Y47523
X146804Y47512
X145850Y47473
X144780Y45720
X142345Y47539
X141350Y47424
X137885Y47539
X136850Y47585
X133453Y47593
X132350Y47672
X131602Y47140
X131150Y47890
X129050Y47990
X128819Y47140
X127928Y47423
X127293Y47990
X126750Y47140
X124550
Y47990
X123350Y47672
X122250Y46977
X122150Y47890
X120050Y47140
Y47990
X118850Y47585
X117850Y47040
X117650Y47890
X115550Y47140
Y47990
X114350Y47598
X113359Y47593
X109900Y47535
X108711Y47082
X105400Y47548
X104413Y47217
X101968Y47378
X100900Y47498
X99750Y47040
X99650Y47890
X97550Y47140
Y47990
X96487Y47349
X95926Y47990
X95250Y47140
X93050
Y47990
X91900Y47548
X90850Y47890
X88550Y47140
Y47990
X87400Y47622
X86350Y47890
X86250Y47040
X84050Y47140
Y47990
X82900Y47585
X82008Y47270
X78400Y47598
X77361Y47217
X73950Y47555
X72955Y47270
X69450Y47300
X68146Y47217
X64950Y47400
X63902Y47109
X60450Y47320
X59362Y47458
X57150Y45720
X56810Y47915
X55950Y47400
X54850Y47140
Y47990
X52650Y47140
Y47990
X51450Y47160
X51410Y47942
X50350Y47140
Y47990
X48150Y47140
Y47990
X46950Y47650
X45850Y47140
Y47990
X45720Y45720
X43650Y47140
Y47990
X42450Y47490
X41350Y47140
Y47990
X39150Y47140
Y47990
X38000Y47340
X37817Y48238
X33500Y47270
X33438Y48103
X29194Y48130
X28987Y47193
X24519Y48157
X24500Y47350
X20920Y47029
X20060Y48076
X20000Y47290
X19050Y45720
X18850Y47140
Y47990
X16650Y47140
Y47990
X15500Y47200
X15412Y48184
X14350Y47140
Y47990
X12150Y47140
Y47990
X11007Y48184
X11000Y47230
X9850Y47140
Y47990
X7650Y47140
Y48020
X6500Y47230
X6225Y48049
X1449Y46487
X5350Y49040
Y49890
X7650Y48890
Y50090
X9850Y49040
Y49890
X12150Y48890
Y50090
X14350Y49040
Y49890
X16650Y48890
Y50090
X18850Y49040
Y49890
X21150Y48890
Y50090
X23350Y49040
Y49890
X25650Y48890
Y50090
X27850Y49040
Y49890
X30150Y48890
Y50090
X32350Y49040
Y49890
X34650Y48890
Y50090
X36850Y49040
Y49890
X39150Y48890
Y50090
X41350Y49040
Y49890
X42411Y48291
X43650Y48890
Y50090
X45850Y49040
Y49890
X48150Y48890
Y50090
X50350Y49040
Y49890
X52650Y48890
Y50090
X54850Y49040
Y49890
X57150Y48890
Y50090
X59350Y49040
Y49890
X61650Y48890
Y50090
X63850Y49040
Y49890
X66150Y48890
Y50090
X68350Y49040
Y49890
X70650Y48890
Y50090
X72850Y49040
Y49890
X75150Y48890
Y50090
X77350Y49040
Y49890
X79650Y48890
Y50090
X81850Y49040
Y49890
X84150Y48890
Y50090
X86350Y49040
Y49890
X88650Y48890
Y50090
X90850Y49040
Y49890
X93150Y48890
Y50090
X95350Y49040
Y49890
X97650Y48890
Y50090
X99850Y49040
Y49890
X102150Y48890
Y50090
X104350Y49040
Y49890
X106650Y48890
Y50090
X108850Y49040
Y49890
X111150Y48890
Y50090
X113350Y49040
Y49890
X115650Y48890
Y50090
X117850Y49040
Y49890
X120150Y48890
Y50090
X122350Y49040
Y49890
X124650Y48890
Y50090
X126717Y49040
X126850Y49890
X129150Y48890
Y50090
X131350Y49040
Y49890
X133650Y48890
Y50090
X135850Y49040
Y49890
X138150Y48890
Y50090
X140350Y49040
Y49890
X142650Y48890
Y50090
X144850Y49040
Y49890
X147150Y48890
Y50090
X149350Y49040
Y49890
X151650Y48890
Y50090
X153850Y49040
Y49890
X156150Y48890
Y50090
X158350Y49040
Y49890
X160650Y48890
Y50090
X162850Y49040
Y49890
X165150Y48890
Y50090
X167350Y49040
Y49890
X169650Y48890
Y50090
X171850Y49040
Y49890
X174150Y48890
Y50090
X176350Y49040
Y49890
X178650Y48890
Y50090
X180850Y49040
Y49890
X183150Y48890
Y50090
X186690Y49530
X190500
X183150Y51140
Y52340
X180850Y51290
Y52140
X178650Y51140
Y52340
X176350Y51290
Y52140
X174150Y51140
Y52340
X171850Y51290
Y52140
X169650Y51140
Y52340
X167350Y51290
Y52140
X165150Y51140
Y52340
X162850Y51290
Y52140
X160650Y51140
Y52340
X158350Y51290
Y52140
X156150Y51140
Y52340
X153850Y51290
Y52140
X151650Y51140
Y52340
X149350Y51290
Y52140
X147150Y51140
Y52340
X144850Y51290
Y52140
X142650Y51140
Y52340
X140350Y51290
Y52140
X138150Y51140
Y52340
X135850Y51290
Y52140
X133650Y51140
Y52340
X131350Y51290
Y52140
X129150Y51140
Y52340
X126850Y51290
Y52140
X124650Y51140
Y52340
X122350Y51290
Y52140
X120150Y51140
Y52340
X117850Y51290
Y52140
X115650Y51140
Y52340
X113350Y51290
Y52140
X111150Y51140
Y52340
X108850Y51290
Y52140
X106650Y51140
Y52340
X104350Y51290
Y52140
X102150Y51140
Y52340
X99850Y51290
Y52140
X97650Y51140
Y52340
X95350Y51290
Y52140
X93150Y51140
Y52340
X90850Y51290
Y52140
X88650Y51140
Y52340
X86350Y51290
Y52140
X84150Y51140
Y52340
X81850Y51290
Y52140
X79650Y51140
Y52340
X77350Y51290
Y52140
X75150Y51140
Y52340
X72850Y51290
Y52140
X70650Y51140
Y52340
X68350Y51290
Y52140
X66150Y51140
Y52340
X63850Y51290
Y52140
X61650Y51140
Y52340
X59350Y51290
Y52140
X57150Y51140
Y52340
X54850Y51290
Y52140
X52650Y51140
Y52340
X50350Y51290
Y52140
X48150Y51140
Y52340
X45850Y51290
Y52140
X43650Y51140
Y52340
X41350Y51290
Y52140
X39150Y51140
Y52340
X36850Y51290
Y52140
X34650Y51140
Y52340
X32350Y51290
Y52140
X30150Y51140
Y52340
X27850Y51290
Y52140
X25650Y51140
Y52340
X23350Y51290
Y52140
X21150Y51140
Y52340
X18850Y51290
Y52140
X16650Y51140
Y52340
X14350Y51290
Y52140
X12150Y51140
Y52340
X9850Y51290
Y52140
X7650Y51140
Y52340
X5350Y51290
Y52140
X1361Y52110
X5350Y53590
Y54440
Y55790
X7650Y53440
Y54640
Y55640
X9850Y53590
Y54440
Y55790
X12150Y53440
Y54640
Y55640
X14350Y53590
Y54440
Y55790
X16650Y53440
Y54640
Y55640
X18850Y53590
Y54440
Y55790
X21150Y53440
Y54640
Y55640
X23350Y53590
Y54440
Y55790
X25650Y53440
Y54640
Y55640
X27850Y53590
Y54440
Y55790
X30150Y53440
Y54640
Y55640
X32350Y53590
Y54440
Y55790
X34650Y53440
Y54640
Y55640
X36850Y53590
Y54440
Y55790
X39150Y53440
Y54640
Y55640
X41350Y53590
Y54440
Y55790
X43650Y53440
Y54640
Y55640
X45850Y53590
Y54440
Y55790
X48150Y53440
Y54640
Y55640
X50350Y53590
Y54440
Y55790
X52650Y53440
Y54640
Y55640
X54850Y53590
Y54440
Y55790
X57150Y53440
Y54640
Y55640
X59350Y53590
Y54440
Y55790
X61650Y53440
Y54640
Y55640
X63850Y53590
Y54440
Y55790
X66150Y53440
Y54640
Y55640
X68350Y53590
Y54440
Y55790
X70650Y53440
Y54640
Y55640
X72850Y53590
Y54440
Y55790
X75150Y53440
Y54640
Y55640
X77350Y53590
Y54440
Y55790
X79650Y53440
Y54640
Y55640
X81850Y53590
Y54440
Y55790
X84150Y53440
Y54640
Y55640
X86350Y53590
Y54440
Y55790
X88650Y53440
Y54640
Y55640
X90850Y53590
Y54440
Y55790
X93150Y53440
Y54640
Y55640
X95350Y53590
Y54440
Y55790
X97650Y53440
Y54640
Y55640
X99850Y53590
Y54440
Y55790
X102150Y53440
Y54640
Y55640
X104350Y53590
Y54440
Y55790
X106650Y53440
Y54640
Y55640
X108850Y53590
Y54440
Y55790
X111150Y53440
Y54640
Y55640
X113350Y53590
Y54440
Y55790
X115650Y53440
Y54640
Y55640
X117850Y53590
Y54440
Y55790
X120150Y53440
Y54640
Y55640
X122350Y53590
Y54440
Y55790
X124650Y53440
Y54640
Y55640
X126850Y53590
Y54440
Y55790
X129150Y53440
Y54640
Y55640
X131350Y53590
Y54440
Y55790
X133650Y53440
Y54640
Y55640
X135850Y53590
Y54440
Y55790
X138150Y53440
Y54640
Y55640
X140350Y53590
Y54440
Y55790
X142650Y53440
Y54640
Y55640
X144850Y53590
Y54440
Y55790
X147150Y53440
Y54640
Y55640
X149350Y53590
Y54440
Y55790
X151650Y53440
Y54640
Y55640
X153850Y53590
Y54440
Y55790
X156150Y53440
Y54640
Y55640
X158350Y53590
Y54440
Y55790
X160650Y53440
Y54640
Y55640
X162850Y53590
Y54440
Y55790
X165150Y53440
Y54640
Y55640
X167350Y53590
Y54440
Y55790
X169650Y53440
Y54640
Y55640
X171850Y53590
Y54440
Y55790
X174150Y53440
Y54640
Y55640
X176350Y53590
Y54440
Y55790
X178650Y53440
Y54640
Y55640
X180850Y53590
Y54440
Y55790
X183150Y53440
Y54640
Y55640
X186690Y53340
X190500
Y57150
X186690
X183150Y56840
Y57890
X180850Y56640
Y58040
X178650Y56840
Y57890
X176350Y56640
Y58040
X174150Y56840
Y57890
X171850Y56640
Y58040
X169650Y56840
Y57890
X167350Y56640
Y58040
X165150Y56840
Y57890
X162850Y56640
Y58040
X160650Y56840
Y57890
X158350Y56640
Y58040
X156150Y56840
Y57890
X153850Y56640
Y58040
X151650Y56840
Y57890
X149350Y56640
Y58040
X147150Y56840
Y57890
X144850Y56640
Y58040
X142650Y56840
Y57890
X140350Y56640
Y58040
X138150Y56840
Y57890
X135850Y56640
Y58040
X133650Y56840
Y57890
X131350Y56640
Y58040
X129150Y56840
Y57890
X126850Y56640
Y58040
X124650Y56840
Y57890
X122350Y56640
Y58040
X120150Y56840
Y57890
X117850Y56640
Y58040
X115650Y56840
Y57890
X113350Y56640
Y58040
X111150Y56840
Y57890
X108850Y56640
Y58040
X106650Y56840
Y57890
X104350Y56640
Y58040
X102150Y56840
Y57890
X99850Y56640
Y58040
X97650Y56840
Y57890
X95350Y56640
Y58040
X93150Y56840
Y57890
X90850Y56640
Y58040
X88650Y56840
Y57890
X86350Y56640
Y58040
X84150Y56840
Y57890
X81850Y56640
Y58040
X79650Y56840
Y57890
X77350Y56640
Y58040
X75150Y56840
Y57890
X72850Y56640
Y58040
X70650Y56840
Y57890
X68350Y56640
Y58040
X66150Y56840
Y57890
X63850Y56640
Y58040
X61650Y56840
Y57890
X59350Y56640
Y58040
X57150Y56840
Y57890
X54850Y56640
Y58040
X52650Y56840
Y57890
X50350Y56640
Y58040
X48150Y56840
Y57890
X45850Y56640
Y58040
X43650Y56840
Y57890
X41350Y56640
Y58040
X39150Y56840
Y57890
X36850Y56640
Y58040
X34650Y56840
Y57890
X32350Y56640
Y58040
X30150Y56840
Y57890
X27850Y56640
Y58040
X25650Y56840
Y57890
X23350Y56640
Y58040
X21150Y56840
Y57890
X18850Y56640
Y58040
X16650Y56840
Y57890
X14350Y56640
Y58040
X12150Y56840
Y57890
X9850Y56640
Y58040
X7650Y56840
Y57890
X5350Y56640
Y58040
X3810Y57150
X5350Y58890
Y60290
X7650Y59090
Y60140
X9850Y58890
Y60290
X12150Y59090
Y60140
X14350Y58890
Y60290
X16650Y59090
Y60140
X18850Y58890
Y60290
X21150Y59090
Y60140
X23350Y58890
Y60290
X25650Y59090
Y60140
X27850Y58890
Y60290
X30150Y59090
Y60140
X32350Y58890
Y60290
X34650Y59090
Y60140
X36850Y58890
Y60290
X39150Y59090
Y60140
X41350Y58890
Y60290
X43650Y59090
Y60140
X45850Y58890
Y60290
X48150Y59090
Y60140
X50350Y58890
Y60290
X52650Y59090
Y60140
X54850Y58890
Y60290
X57150Y59090
Y60140
X59350Y58890
Y60290
X61650Y59090
Y60140
X63850Y58890
Y60290
X66150Y59090
Y60140
X68350Y58890
Y60290
X70650Y59090
Y60140
X72850Y58890
Y60290
X75150Y59090
Y60140
X77350Y58890
Y60290
X79650Y59090
Y60140
X81850Y58890
Y60290
X84150Y59090
Y60140
X86350Y58890
Y60290
X88650Y59090
Y60140
X90850Y58890
Y60290
X93150Y59090
Y60140
X95350Y58890
Y60290
X97650Y59090
Y60140
X99850Y58890
Y60290
X102150Y59090
Y60140
X104350Y58890
Y60290
X106650Y59090
Y60140
X108850Y58890
Y60290
X111150Y59090
Y60140
X113350Y58890
Y60290
X115650Y59090
Y60140
X117850Y58890
Y60290
X120150Y59090
Y60140
X122350Y58890
Y60290
X124650Y59090
Y60140
X126850Y58890
Y60290
X129150Y59090
Y60140
X131350Y58890
Y60290
X133650Y59090
Y60140
X135850Y58890
Y60290
X138150Y59090
Y60140
X140350Y58890
Y60290
X142650Y59090
Y60140
X144850Y58890
Y60290
X147150Y59090
Y60140
X149350Y58890
Y60290
X151650Y59090
Y60140
X153850Y58890
Y60290
X156150Y59090
Y60140
X158350Y58890
Y60290
X160650Y59090
Y60140
X162850Y58890
Y60290
X165150Y59090
Y60140
X167350Y58890
Y60290
X169650Y59090
Y60140
X171850Y58890
Y60290
X174150Y59090
Y60140
X176350Y58890
Y60290
X178650Y59090
Y60140
X180850Y58890
Y60290
X183150Y59090
Y60140
X190500Y60960
X186690
X183150Y61390
Y62390
X180850Y61190
Y62540
Y63390
X178650Y61390
Y62390
X176350Y61190
Y62540
Y63390
X174150Y61390
Y62390
X171850Y61190
Y62540
Y63390
X169650Y61390
Y62390
X167350Y61190
Y62540
Y63390
X165150Y61390
Y62390
X162850Y61190
Y62540
Y63390
X160650Y61390
Y62390
X158350Y61190
Y62540
Y63390
X156150Y61390
Y62390
X153850Y61190
Y62540
Y63390
X151650Y61390
Y62390
X149350Y61190
Y62540
Y63390
X147150Y61390
Y62390
X144850Y61190
Y62540
Y63390
X142650Y61390
Y62390
X140350Y61190
Y62540
Y63390
X138150Y61390
Y62390
X135850Y61190
Y62540
Y63390
X133650Y61390
Y62390
X131350Y61190
Y62540
Y63390
X129150Y61390
Y62390
X126850Y61190
Y62540
Y63390
X124650Y61390
Y62390
X122350Y61190
Y62540
Y63390
X120150Y61390
Y62390
X117850Y61190
Y62540
Y63390
X115650Y61390
Y62390
X113350Y61190
Y62540
Y63390
X111150Y61390
Y62390
X108850Y61190
Y62540
Y63390
X106650Y61390
Y62390
X104350Y61190
Y62540
Y63390
X102150Y61390
Y62390
X99850Y61190
Y62540
Y63390
X97650Y61390
Y62390
X95350Y61190
Y62540
Y63390
X93150Y61390
Y62390
X90850Y61190
Y62540
Y63390
X88650Y61390
Y62390
X86350Y61190
Y62540
Y63390
X84150Y61390
Y62390
X81850Y61190
Y62540
Y63390
X79650Y61390
Y62390
X77350Y61190
Y62540
Y63390
X75150Y61390
Y62390
X72850Y61190
Y62540
Y63390
X70650Y61390
Y62390
X68350Y61190
Y62540
Y63390
X66150Y61390
Y62390
X63850Y61190
Y62540
Y63390
X61650Y61390
Y62390
X59350Y61190
Y62540
Y63390
X57150Y61390
Y62390
X54850Y61190
Y62540
Y63390
X52650Y61390
Y62390
X50350Y61190
Y62540
Y63390
X48150Y61390
Y62390
X45850Y61190
Y62540
Y63390
X43650Y61390
Y62390
X41350Y61190
Y62540
Y63390
X39150Y61390
Y62390
X36850Y61190
Y62540
Y63390
X34650Y61390
Y62390
X32350Y61190
Y62540
Y63390
X30150Y61390
Y62390
X27850Y61190
Y62540
Y63390
X25650Y61390
Y62390
X23350Y61190
Y62540
Y63390
X21150Y61390
Y62390
X18850Y61190
Y62540
Y63390
X16650Y61390
Y62390
X14350Y61190
Y62540
Y63390
X12150Y61390
Y62390
X9850Y61190
Y62540
Y63390
X7650Y61390
Y62390
X5350Y61190
Y62540
Y63390
X3810Y60960
Y64770
X5350Y64840
Y65690
X7650Y63590
Y64690
Y65890
X9850Y64840
Y65690
X12150Y63590
Y64690
Y65890
X14350Y64840
Y65690
X16650Y63590
Y64690
Y65890
X18850Y64840
Y65690
X21150Y63590
Y64690
Y65890
X23350Y64840
Y65690
X25650Y63590
Y64690
Y65890
X27850Y64840
Y65690
X30150Y63590
Y64690
Y65890
X32350Y64840
Y65690
X34650Y63590
Y64690
Y65890
X36850Y64840
Y65690
X39150Y63590
Y64690
Y65890
X41350Y64840
Y65690
X43650Y63590
Y64690
Y65890
X45850Y64840
Y65690
X48150Y63590
Y64690
Y65890
X50350Y64840
Y65690
X52650Y63590
Y64690
Y65890
X54850Y64840
Y65690
X57150Y63590
Y64690
Y65890
X59350Y64840
Y65690
X61650Y63590
Y64690
Y65890
X63850Y64840
Y65690
X66150Y63590
Y64690
Y65890
X68350Y64840
Y65690
X70650Y63590
Y64690
Y65890
X72850Y64840
Y65690
X75150Y63590
Y64690
Y65890
X77350Y64840
Y65690
X79650Y63590
Y64690
Y65890
X81850Y64840
Y65690
X84150Y63590
Y64690
Y65890
X86350Y64840
Y65690
X88650Y63590
Y64690
Y65890
X90850Y64840
Y65690
X93150Y63590
Y64690
Y65890
X95350Y64840
Y65690
X97650Y63590
Y64690
Y65890
X99850Y64840
Y65690
X102150Y63590
Y64690
Y65890
X104350Y64840
Y65690
X106650Y63590
Y64690
Y65890
X108850Y64840
Y65690
X111150Y63590
Y64690
Y65890
X113350Y64840
Y65690
X115650Y63590
Y64690
Y65890
X117850Y64840
Y65690
X120150Y63590
Y64690
Y65890
X122350Y64840
Y65690
X124650Y63590
Y64690
Y65890
X126850Y64840
Y65690
X129150Y63590
Y64690
Y65890
X131350Y64840
Y65690
X133650Y63590
Y64690
Y65890
X135850Y64840
Y65690
X138150Y63590
Y64690
Y65890
X140350Y64840
Y65690
X142650Y63590
Y64690
Y65890
X144850Y64840
Y65690
X147150Y63590
Y64690
Y65890
X149350Y64840
Y65690
X151650Y63590
Y64690
Y65890
X153850Y64840
Y65690
X156150Y63590
Y64690
Y65890
X158350Y64840
Y65690
X160650Y63590
Y64690
Y65890
X162850Y64840
Y65690
X165150Y63590
Y64690
Y65890
X167350Y64840
Y65690
X169650Y63590
Y64690
Y65890
X171850Y64840
Y65690
X174150Y63590
Y64690
Y65890
X176350Y64840
Y65690
X178650Y63590
Y64690
Y65890
X180850Y64840
Y65690
X183150Y63590
Y64690
Y65890
X186690Y64770
X190500
X183150Y66890
Y68090
X180850Y67040
Y67890
X178650Y66890
Y68090
X176350Y67040
Y67890
X174150Y66890
Y68090
X171850Y67040
Y67890
X169650Y66890
Y68090
X167350Y67040
Y67890
X165150Y66890
Y68090
X162850Y67040
Y67890
X160650Y66890
Y68090
X158350Y67040
Y67890
X156150Y66890
Y68090
X153850Y67040
Y67890
X151650Y66890
Y68090
X149350Y67040
Y67890
X147150Y66890
Y68090
X144850Y67040
Y67890
X142650Y66890
Y68090
X140350Y67040
Y67890
X138150Y66890
Y68090
X135850Y67040
Y67890
X133650Y66890
Y68090
X131350Y67040
Y67890
X129150Y66890
Y68090
X126850Y67040
Y67890
X124650Y66890
Y68090
X122350Y67040
Y67890
X120150Y66890
Y68090
X117850Y67040
Y67890
X115650Y66890
Y68090
X113350Y67040
Y67890
X111150Y66890
Y68090
X108850Y67040
Y67890
X106650Y66890
Y68090
X104350Y67040
Y67890
X102150Y66890
Y68090
X99850Y67040
Y67890
X97650Y66890
Y68090
X95350Y67040
Y67890
X93150Y66890
Y68090
X90850Y67040
Y67890
X88650Y66890
Y68090
X86350Y67040
Y67890
X84150Y66890
Y68090
X81850Y67040
Y67890
X79650Y66890
Y68090
X77350Y67040
Y67890
X75150Y66890
Y68090
X72850Y67040
Y67890
X70650Y66890
Y68090
X68350Y67040
Y67890
X66150Y66890
Y68090
X63850Y67040
Y67890
X61650Y66890
Y68090
X59350Y67040
Y67890
X57150Y66890
Y68090
X54850Y67040
Y67890
X52650Y66890
Y68090
X50350Y67040
Y67890
X48150Y66890
Y68090
X45850Y67040
Y67890
X43650Y66890
Y68090
X41350Y67040
Y67890
X39150Y66890
Y68090
X36850Y67040
Y67890
X34650Y66890
Y68090
X32350Y67040
Y67890
X30150Y66890
Y68090
X27850Y67040
Y67890
X25650Y66890
Y68090
X23350Y67040
Y67890
X21150Y66890
Y68090
X18850Y67040
Y67890
X16650Y66890
Y68090
X14350Y67040
Y67890
X12150Y66890
Y68090
X9850Y67040
Y67890
X7650Y66890
Y68090
X5350Y67040
Y67890
X3810Y68580
X5350Y69290
Y70140
X7650Y69140
Y70340
X9850Y69290
Y70140
X12150Y69140
Y70340
X14350Y69290
Y70140
X16650Y69140
Y70340
X18850Y69290
Y70140
X21150Y69140
Y70340
X23350Y69290
Y70140
X25650Y69140
Y70340
X27850Y69290
Y70140
X30150Y69140
Y70340
X32300Y70140
X32350Y69290
X34650Y69140
Y70340
X36850Y69290
Y70140
X39150Y69140
Y70340
X41350Y69290
Y70140
X43650Y69140
Y70340
X45850Y69290
Y70140
X48150Y69140
Y70340
X50350Y69290
Y70140
X52650Y69140
Y70340
X54850Y69290
Y70140
X57150Y69140
Y70340
X59350Y69290
Y70140
X61650Y69140
Y70340
X63850Y69290
Y70140
X66150Y69140
Y70340
X68300Y70140
X68350Y69290
X70650Y69140
Y70340
X72850Y69290
Y70140
X75150Y69140
Y70340
X77350Y69290
Y70140
X79650Y69140
Y70340
X81850Y69290
Y70140
X84150Y69140
Y70340
X86350Y69290
Y70140
X88650Y69140
Y70340
X90850Y69290
Y70140
X93150Y69140
Y70340
X95350Y69290
Y70140
X97650Y69140
Y70340
X99850Y69290
Y70140
X102150Y69140
Y70340
X104300Y70140
X104350Y69290
X106650Y69140
Y70340
X108850Y69290
Y70140
X111150Y69140
Y70340
X113350Y69290
Y70140
X115650Y69140
Y70340
X117850Y69290
Y70140
X120150Y69140
Y70340
X122350Y69290
Y70140
X124650Y69140
Y70340
X126850Y69290
Y70140
X129150Y69140
Y70340
X131350Y69290
Y70140
X133650Y69140
Y70340
X135850Y69290
Y70140
X138150Y69140
Y70340
X140300Y70140
X140350Y69290
X142650Y69140
Y70340
X144850Y69290
Y70140
X147150Y69140
Y70340
X149350Y69290
Y70140
X151650Y69140
Y70340
X153850Y69290
Y70140
X156150Y69140
Y70340
X158350Y69290
Y70140
X160650Y69140
Y70340
X162850Y69290
Y70140
X165150Y69140
Y70340
X167350Y69290
Y70140
X169650Y69140
Y70340
X171850Y69290
Y70140
X174150Y69140
Y70340
X176300Y70140
X176350Y69290
X178650Y69140
Y70340
X180850Y69290
Y70140
X183150Y69140
Y70340
X186690Y68580
X190500
Y72390
X186690
X183150Y71440
Y72640
Y73640
X180850Y71590
Y72440
X178650Y71440
Y72640
Y73640
X176350Y71590
Y72440
X174150Y71440
Y72640
Y73640
X171850Y71590
Y72440
X169650Y71440
Y72640
Y73640
X167350Y71590
Y72440
X165150Y71440
Y72640
Y73640
X162850Y71590
Y72440
X160650Y71440
Y72640
Y73640
X158350Y71590
Y72440
X156150Y71440
Y72640
Y73640
X153850Y71590
Y72440
X151650Y71440
Y72640
Y73640
X149350Y71590
Y72440
X147150Y71440
Y72640
Y73640
X144850Y71590
Y72440
X142650Y71440
Y72640
Y73640
X140350Y71590
Y72440
X138150Y71440
Y72640
Y73640
X135850Y71590
Y72440
X133650Y71440
Y72640
Y73640
X131350Y71590
Y72440
X129150Y71440
Y72640
Y73640
X126850Y71590
Y72440
X124650Y71440
Y72640
Y73640
X122350Y71590
Y72440
X120150Y71440
Y72640
Y73640
X117850Y71590
Y72440
X115650Y71440
Y72640
Y73640
X113350Y71590
Y72440
X111150Y71440
Y72640
Y73640
X108850Y71590
Y72440
X106650Y71440
Y72640
Y73640
X104350Y71590
Y72440
X102150Y71440
Y72640
Y73640
X99850Y71590
Y72440
X97650Y71440
Y72640
Y73640
X95350Y71590
Y72440
X93150Y71440
Y72640
Y73640
X90850Y71590
Y72440
X88650Y71440
Y72640
Y73640
X86350Y71590
Y72440
X84150Y71440
Y72640
Y73640
X81850Y71590
Y72440
X79650Y71440
Y72640
Y73640
X77350Y71590
Y72440
X75150Y71440
Y72640
Y73640
X72850Y71590
Y72440
X70650Y71440
Y72640
Y73640
X68350Y71590
Y72440
X66150Y71440
Y72640
Y73640
X63850Y71590
Y72440
X61650Y71440
Y72640
Y73640
X59350Y71590
Y72440
X57150Y71440
Y72640
Y73640
X54850Y71590
Y72440
X52650Y71440
Y72640
Y73640
X50350Y71590
Y72440
X48150Y71440
Y72640
Y73640
X45850Y71590
Y72440
X43650Y71440
Y72640
Y73640
X41350Y71590
Y72440
X39150Y71440
Y72640
Y73640
X36850Y71590
Y72440
X34650Y71440
Y72640
Y73640
X32350Y71590
Y72440
X30150Y71440
Y72640
Y73640
X27850Y71590
Y72440
X25650Y71440
Y72640
Y73640
X23350Y71590
Y72440
X21150Y71440
Y72640
Y73640
X18850Y71590
Y72440
X16650Y71440
Y72640
Y73640
X14350Y71590
Y72440
X12150Y71440
Y72640
Y73640
X9850Y71590
Y72440
X7650Y71440
Y72640
Y73640
X5350Y71590
Y72440
X3810Y72390
X5350Y73790
Y74640
Y76040
X7650Y74840
Y75890
X9850Y73790
Y74640
Y76040
X12150Y74840
Y75890
X14350Y73790
Y74640
Y76040
X16650Y74840
Y75890
X18850Y73790
Y74640
Y76040
X21150Y74840
Y75890
X23350Y73790
Y74640
Y76040
X25650Y74840
Y75890
X27850Y73790
Y74640
Y76040
X30150Y74840
Y75890
X32350Y73790
Y74640
Y76040
X34650Y74840
Y75890
X36850Y73790
Y74640
Y76040
X39150Y74840
Y75890
X41350Y73790
Y74640
Y76040
X43650Y74840
Y75890
X45850Y73790
Y74640
Y76040
X48150Y74840
Y75890
X50350Y73790
Y74640
Y76040
X52650Y74840
Y75890
X54850Y73790
Y74640
Y76040
X57150Y74840
Y75890
X59350Y73790
Y74640
Y76040
X61650Y74840
Y75890
X63850Y73790
Y74640
Y76040
X66150Y74840
Y75890
X68350Y73790
Y74640
Y76040
X70650Y74840
Y75890
X72850Y73790
Y74640
Y76040
X75150Y74840
Y75890
X77350Y73790
Y74640
Y76040
X79650Y74840
Y75890
X81850Y73790
Y74640
Y76040
X84150Y74840
Y75890
X86350Y73790
Y74640
Y76040
X88650Y74840
Y75890
X90850Y73790
Y74640
Y76040
X93150Y74840
Y75890
X95350Y73790
Y74640
Y76040
X97650Y74840
Y75890
X99850Y73790
Y74640
Y76040
X102150Y74840
Y75890
X104350Y73790
Y74640
Y76040
X106650Y74840
Y75890
X108850Y73790
Y74640
Y76040
X111150Y74840
Y75890
X113350Y73790
Y74640
Y76040
X115650Y74840
Y75890
X117850Y73790
Y74640
Y76040
X120150Y74840
Y75890
X122350Y73790
Y74640
Y76040
X124650Y74840
Y75890
X126850Y73790
Y74640
Y76040
X129150Y74840
Y75890
X131350Y73790
Y74640
Y76040
X133650Y74840
Y75890
X135850Y73790
Y74640
Y76040
X138150Y74840
Y75890
X140350Y73790
Y74640
Y76040
X142650Y74840
Y75890
X144850Y73790
Y74640
Y76040
X147150Y74840
Y75890
X149350Y73790
Y74640
Y76040
X151650Y74840
Y75890
X153850Y73790
Y74640
Y76040
X156150Y74840
Y75890
X158350Y73790
Y74640
Y76040
X160650Y74840
Y75890
X162850Y73790
Y74640
Y76040
X165150Y74840
Y75890
X167350Y73790
Y74640
Y76040
X169650Y74840
Y75890
X171850Y73790
Y74640
Y76040
X174150Y74840
Y75890
X176350Y73790
Y74640
Y76040
X178650Y74840
Y75890
X180850Y73790
Y74640
Y76040
X183150Y74840
Y75890
Y77140
Y78140
X180850Y76940
Y78290
X178650Y77140
Y78140
X176350Y76940
Y78290
X174150Y77140
Y78140
X171850Y76940
Y78290
X169650Y77140
Y78140
X167350Y76940
Y78290
X165150Y77140
Y78140
X162850Y76940
Y78290
X160650Y77140
Y78140
X158350Y76940
Y78290
X156150Y77140
Y78140
X153850Y76940
Y78290
X151650Y77140
Y78140
X149350Y76940
Y78290
X147150Y77140
Y78140
X144850Y76940
Y78290
X142650Y77140
Y78140
X140350Y76940
Y78290
X138150Y77140
Y78140
X135850Y76940
Y78290
X133650Y77140
Y78140
X131350Y76940
Y78290
X129150Y77140
Y78140
X126850Y76940
Y78290
X124650Y77140
Y78140
X122350Y76940
Y78290
X120150Y77140
Y78140
X117850Y76940
Y78290
X115650Y77140
Y78140
X113350Y76940
Y78290
X111150Y77140
Y78140
X108850Y76940
Y78290
X106650Y77140
Y78140
X104350Y76940
Y78290
X102150Y77140
Y78140
X99850Y76940
Y78290
X97650Y77140
Y78140
X95350Y76940
Y78290
X93150Y77140
Y78140
X90850Y76940
Y78290
X88650Y77140
Y78140
X86350Y76940
Y78290
X84150Y77140
Y78140
X81850Y76940
Y78290
X79650Y77140
Y78140
X77350Y76940
Y78290
X75150Y77140
Y78140
X72850Y76940
Y78290
X70650Y77140
Y78140
X68350Y76940
Y78290
X66150Y77140
Y78140
X63850Y76940
Y78290
X61650Y77140
Y78140
X59350Y76940
Y78290
X57150Y77140
Y78140
X54850Y76940
Y78290
X52650Y77140
Y78140
X50350Y76940
Y78290
X48150Y77140
Y78140
X45850Y76940
Y78290
X43650Y77140
Y78140
X41350Y76940
Y78290
X39150Y77140
Y78140
X36850Y76940
Y78290
X34650Y77140
Y78140
X32350Y76940
Y78290
X30150Y77140
Y78140
X27850Y76940
Y78290
X25650Y77140
Y78140
X23350Y76940
Y78290
X21150Y77140
Y78140
X18850Y76940
Y78290
X16650Y77140
Y78140
X14350Y76940
Y78290
X12150Y77140
Y78140
X9850Y76940
Y78290
X7650Y77140
Y78140
X5350Y76940
Y78290
X3720Y78505
X5350Y79140
Y80540
X7650Y79340
Y80390
X9850Y79140
Y80540
X12150Y79340
Y80390
X14350Y79140
Y80540
X16650Y79340
Y80390
X18850Y79140
Y80540
X21150Y79340
Y80390
X23350Y79140
Y80540
X25650Y79340
Y80390
X27850Y79140
Y80540
X30150Y79340
Y80390
X32350Y79140
Y80540
X34650Y79340
Y80390
X36850Y79140
Y80540
X39150Y79340
Y80390
X41350Y79140
Y80540
X43650Y79340
Y80390
X45850Y79140
Y80540
X48150Y79340
Y80390
X50350Y79140
Y80540
X52650Y79340
Y80390
X54850Y79140
Y80540
X57150Y79340
Y80390
X59350Y79140
Y80540
X61650Y79340
Y80390
X63850Y79140
Y80540
X66150Y79340
Y80390
X68350Y79140
Y80540
X70650Y79340
Y80390
X72850Y79140
Y80540
X75150Y79340
Y80390
X77350Y79140
Y80540
X79650Y79340
Y80390
X81850Y79140
Y80540
X84150Y79340
Y80390
X86350Y79140
Y80540
X88650Y79340
Y80390
X90850Y79140
Y80540
X93150Y79340
Y80390
X95350Y79140
Y80540
X97650Y79340
Y80390
X99850Y79140
Y80540
X102150Y79340
Y80390
X104350Y79140
Y80540
X106650Y79340
Y80390
X108850Y79140
Y80540
X111150Y79340
Y80390
X113350Y79140
Y80540
X115650Y79340
Y80390
X117850Y79140
Y80540
X120150Y79340
Y80390
X122350Y79140
Y80540
X124650Y79340
Y80390
X126850Y79140
Y80540
X129150Y79340
Y80390
X131350Y79140
Y80540
X133650Y79340
Y80390
X135850Y79140
Y80540
X138150Y79340
Y80390
X140350Y79140
Y80540
X142650Y79340
Y80390
X144850Y79140
Y80540
X147150Y79340
Y80390
X149350Y79140
Y80540
X151650Y79340
Y80390
X153850Y79140
Y80540
X156150Y79340
Y80390
X158350Y79140
Y80540
X160650Y79340
Y80390
X162850Y79140
Y80540
X165150Y79340
Y80390
X167350Y79140
Y80540
X169650Y79340
Y80390
X171850Y79140
Y80540
X174150Y79340
Y80390
X176350Y79140
Y80540
X178650Y79340
Y80390
X180850Y79140
Y80540
X183150Y79340
Y80390
X187249Y79081
X187068Y83433
X183150Y81590
Y82640
X180850Y81390
Y82790
Y83640
X178650Y81590
Y82640
X176350Y81390
Y82790
Y83640
X174150Y81590
Y82640
X171850Y81390
Y82790
Y83640
X169650Y81590
Y82640
X167350Y81390
Y82790
Y83640
X165150Y81590
Y82640
X162850Y81390
Y82790
Y83640
X160650Y81590
Y82640
X158350Y81390
Y82790
Y83640
X156150Y81590
Y82640
X153850Y81390
Y82790
Y83640
X151650Y81590
Y82640
X149350Y81390
Y82790
Y83640
X147150Y81590
Y82640
X144850Y81390
Y82790
Y83640
X142650Y81590
Y82640
X140350Y81390
Y82790
Y83640
X138150Y81590
Y82640
X135850Y81390
Y82790
Y83640
X133650Y81590
Y82640
X131350Y81390
Y82790
Y83640
X129150Y81590
Y82640
X126850Y81390
Y82790
Y83640
X124650Y81590
Y82640
X122350Y81390
Y82790
Y83640
X120150Y81590
Y82640
X117850Y81390
Y82790
Y83640
X115650Y81590
Y82640
X113350Y81390
Y82790
Y83640
X111150Y81590
Y82640
X108850Y81390
Y82790
Y83640
X106650Y81590
Y82640
X104350Y81390
Y82790
Y83640
X102150Y81590
Y82640
X99850Y81390
Y82790
Y83640
X97650Y81590
Y82640
X95350Y81390
Y82790
Y83640
X93150Y81590
Y82640
X90850Y81390
Y82790
Y83640
X88650Y81590
Y82640
X86350Y81390
Y82790
Y83640
X84150Y81590
Y82640
X81850Y81390
Y82790
Y83640
X79650Y81590
Y82640
X77350Y81390
Y82790
Y83640
X75150Y81590
Y82640
X72850Y81390
Y82790
Y83640
X70650Y81590
Y82640
X68350Y81390
Y82790
Y83640
X66150Y81590
Y82640
X63850Y81390
Y82790
Y83640
X61650Y81590
Y82640
X59350Y81390
Y82790
Y83640
X57150Y81590
Y82640
X54850Y81390
Y82790
Y83640
X52650Y81590
Y82640
X50350Y81390
Y82790
Y83640
X48150Y81590
Y82640
X45850Y81390
Y82790
Y83640
X43650Y81590
Y82640
X41350Y81390
Y82790
Y83640
X39150Y81590
Y82640
X36850Y81390
Y82790
Y83640
X34650Y81590
Y82640
X32350Y81390
Y82790
Y83640
X30150Y81590
Y82640
X27850Y81390
Y82790
Y83640
X25650Y81590
Y82640
X23350Y81390
Y82790
Y83640
X21150Y81590
Y82640
X18850Y81390
Y82790
Y83640
X16650Y81590
Y82640
X14350Y81390
Y82790
Y83640
X12150Y81590
Y82640
X9850Y81390
Y82790
Y83640
X7650Y81590
Y82640
X5350Y81390
Y82790
Y83640
X3720Y85065
X5350Y85090
Y85940
X7650Y83840
Y84890
Y86140
X9850Y85090
Y85940
X12150Y83840
Y84890
Y86140
X14350Y85090
Y85940
X16650Y83840
Y84890
Y86140
X18850Y85090
Y85940
X21150Y83840
Y84890
Y86140
X23350Y85090
Y85940
X25650Y83840
Y84890
Y86140
X27850Y85090
Y85940
X30150Y83840
Y84890
Y86140
X32350Y85090
Y85940
X34650Y83840
Y84890
Y86140
X36850Y85090
Y85940
X39150Y83840
Y84890
Y86140
X41350Y85090
Y85940
X43650Y83840
Y84890
Y86140
X45850Y85090
Y85940
X48150Y83840
Y84890
Y86140
X50350Y85090
Y85940
X52650Y83840
Y84890
Y86140
X54850Y85090
Y85940
X57150Y83840
Y84890
Y86140
X59350Y85090
Y85940
X61650Y83840
Y84890
Y86140
X63850Y85090
Y85940
X66150Y83840
Y84890
Y86140
X68350Y85090
Y85940
X70650Y83840
Y84890
Y86140
X72850Y85090
Y85940
X75150Y83840
Y84890
Y86140
X77350Y85090
Y85940
X79650Y83840
Y84890
Y86140
X81850Y85090
Y85940
X84150Y83840
Y84890
Y86140
X86350Y85090
Y85940
X88650Y83840
Y84890
Y86140
X90850Y85090
Y85940
X93150Y83840
Y84890
Y86140
X95350Y85090
Y85940
X97650Y83840
Y84890
Y86140
X99850Y85090
Y85940
X102150Y83840
Y84890
Y86140
X104350Y85090
Y85940
X106650Y83840
Y84890
Y86140
X108850Y85090
Y85940
X111150Y83840
Y84890
Y86140
X113350Y85090
Y85940
X115650Y83840
Y84890
Y86140
X117850Y85090
Y85940
X120150Y83840
Y84890
Y86140
X122350Y85090
Y85940
X124650Y83840
Y84890
Y86140
X126850Y85090
Y85940
X129150Y83840
Y84890
Y86140
X131350Y85090
Y85940
X133650Y83840
Y84890
Y86140
X135850Y85090
Y85940
X138150Y83840
Y84890
Y86140
X140350Y85090
Y85940
X142650Y83840
Y84890
Y86140
X144850Y85090
Y85940
X147150Y83840
Y84890
Y86140
X149350Y85090
Y85940
X151650Y83840
Y84890
Y86140
X153850Y85090
Y85940
X156150Y83840
Y84890
Y86140
X158350Y85090
Y85940
X160650Y83840
Y84890
Y86140
X162850Y85090
Y85940
X165150Y83840
Y84890
Y86140
X167350Y85090
Y85940
X169650Y83840
Y84890
Y86140
X171850Y85090
Y85940
X174150Y83840
Y84890
Y86140
X176350Y85090
Y85940
X178650Y83840
Y84890
Y86140
X180850Y85090
Y85940
X183150Y83840
Y84890
Y86140
X186705Y88450
X183150Y87140
Y88390
X180850Y87340
Y88190
X178650Y87140
Y88390
X176350Y87340
Y88190
X174150Y87140
Y88390
X171850Y87340
Y88190
X169650Y87140
Y88390
X167350Y87340
Y88190
X165150Y87140
Y88390
X162850Y87340
Y88190
X160650Y87140
Y88390
X158350Y87340
Y88190
X156150Y87140
Y88390
X153850Y87340
Y88190
X151650Y87140
Y88390
X149350Y87340
Y88190
X147150Y87140
Y88390
X144850Y87340
Y88190
X142650Y87140
Y88390
X140350Y87340
Y88190
X138150Y87140
Y88390
X135850Y87340
Y88190
X133650Y87140
Y88390
X131350Y87340
Y88190
X129150Y87140
Y88390
X126850Y87340
Y88190
X124650Y87140
Y88390
X122350Y87340
Y88190
X120150Y87140
Y88390
X117850Y87340
Y88190
X115650Y87140
Y88390
X113350Y87340
Y88190
X111150Y87140
Y88390
X108850Y87340
Y88190
X106650Y87140
Y88390
X104350Y87340
Y88190
X102150Y87140
Y88390
X99850Y87340
Y88190
X97650Y87140
Y88390
X95350Y87340
Y88190
X93150Y87140
Y88390
X90850Y87340
Y88190
X88650Y87140
Y88390
X86350Y87340
Y88190
X84150Y87140
Y88390
X81850Y87340
Y88190
X79650Y87140
Y88390
X77350Y87340
Y88190
X75150Y87140
Y88390
X72850Y87340
Y88190
X70650Y87140
Y88390
X68350Y87340
Y88190
X66150Y87140
Y88390
X63850Y87340
Y88190
X61650Y87140
Y88390
X59350Y87340
Y88190
X57150Y87140
Y88390
X54850Y87340
Y88190
X52650Y87140
Y88390
X50350Y87340
Y88190
X48150Y87140
Y88390
X45850Y87340
Y88190
X43650Y87140
Y88390
X41350Y87340
Y88190
X39150Y87140
Y88390
X36850Y87340
Y88190
X34650Y87140
Y88390
X32350Y87340
Y88190
X30150Y87140
Y88390
X27850Y87340
Y88190
X25650Y87140
Y88390
X23350Y87340
Y88190
X21150Y87140
Y88390
X18850Y87340
Y88190
X16650Y87140
Y88390
X14350Y87340
Y88190
X12150Y87140
Y88390
X9850Y87340
Y88190
X7650Y87140
Y88390
X5350Y87340
Y88190
X3759Y90984
X5350Y89590
Y90440
X7650Y89390
Y90640
X9850Y89590
Y90440
X12150Y89390
Y90640
X14350Y89590
Y90440
X16650Y89390
Y90640
X18850Y89590
Y90440
X21150Y89390
Y90640
X23350Y89590
Y90440
X25650Y89390
Y90640
X27850Y89590
Y90440
X30150Y89390
Y90640
X32350Y89590
Y90440
X34650Y89390
Y90640
X36850Y89590
Y90440
X39150Y89390
Y90640
X41350Y89590
Y90440
X43650Y89390
Y90640
X45850Y89590
Y90440
X48150Y89390
Y90640
X50350Y89590
Y90440
X52650Y89390
Y90640
X54850Y89590
Y90440
X57150Y89390
Y90640
X59350Y89590
Y90440
X61650Y89390
Y90640
X63850Y89590
Y90440
X66150Y89390
Y90640
X68350Y89590
Y90440
X70650Y89390
Y90640
X72850Y89590
Y90440
X75150Y89390
Y90640
X77350Y89590
Y90440
X79650Y89390
Y90640
X81850Y89590
Y90440
X84150Y89390
Y90640
X86350Y89590
Y90440
X88650Y89390
Y90640
X90850Y89590
Y90440
X93150Y89390
Y90640
X95350Y89590
Y90440
X97650Y89390
Y90640
X99850Y89590
Y90440
X102150Y89390
Y90640
X104350Y89590
Y90440
X106650Y89390
Y90640
X108850Y89590
Y90440
X111150Y89390
Y90640
X113350Y89590
Y90440
X115650Y89390
Y90640
X117850Y89590
Y90440
X120150Y89390
Y90640
X122350Y89590
Y90440
X124650Y89390
Y90640
X126850Y89590
Y90440
X129150Y89390
Y90640
X131350Y89590
Y90440
X133650Y89390
Y90640
X135850Y89590
Y90440
X138150Y89390
Y90640
X140350Y89590
Y90440
X142650Y89390
Y90640
X144850Y89590
Y90440
X147150Y89390
Y90640
X149350Y89590
Y90440
X151650Y89390
Y90640
X153850Y89590
Y90440
X156150Y89390
Y90640
X158350Y89590
Y90440
X160650Y89390
Y90640
X162850Y89590
Y90440
X165150Y89390
Y90640
X167350Y89590
Y90440
X169650Y89390
Y90640
X171850Y89590
Y90440
X174150Y89390
Y90640
X176350Y89590
Y90440
X178650Y89390
Y90640
X180850Y89590
Y90440
X183150Y89390
Y90640
X186826Y92500
X183150Y91640
Y92890
Y93890
X180850Y91840
Y92690
X178650Y91640
Y92890
Y93890
X176350Y91840
Y92690
X174150Y91640
Y92890
Y93890
X171850Y91840
Y92690
X169650Y91640
Y92890
Y93890
X167350Y91840
Y92690
X165150Y91640
Y92890
Y93890
X162850Y91840
Y92690
X160650Y91640
Y92890
Y93890
X158350Y91840
Y92690
X156150Y91640
Y92890
Y93890
X153850Y91840
Y92690
X151650Y91640
Y92890
Y93890
X149350Y91840
Y92690
X147150Y91640
Y92890
Y93890
X144850Y91840
Y92690
X142650Y91640
Y92890
Y93890
X140350Y91840
Y92690
X138150Y91640
Y92890
Y93890
X135850Y91840
Y92690
X133650Y91640
Y92890
Y93890
X131350Y91840
Y92690
X129150Y91640
Y92890
Y93890
X126850Y91840
Y92690
X124650Y91640
Y92890
Y93890
X122350Y91840
Y92690
X120150Y91640
Y92890
Y93890
X117850Y91840
Y92690
X115650Y91640
Y92890
Y93890
X113350Y91840
Y92690
X111150Y91640
Y92890
Y93890
X108850Y91840
Y92690
X106650Y91640
Y92890
Y93890
X104350Y91840
Y92690
X102150Y91640
Y92890
Y93890
X99850Y91840
Y92690
X97650Y91640
Y92890
Y93890
X95350Y91840
Y92690
X93150Y91640
Y92890
Y93890
X90850Y91840
Y92690
X88650Y91640
Y92890
Y93890
X86350Y91840
Y92690
X84150Y91640
Y92890
Y93890
X81850Y91840
Y92690
X79650Y91640
Y92890
Y93890
X77350Y91840
Y92690
X75150Y91640
Y92890
Y93890
X72850Y91840
Y92690
X70650Y91640
Y92890
Y93890
X68350Y91840
Y92690
X66150Y91640
Y92890
Y93890
X63850Y91840
Y92690
X61650Y91640
Y92890
Y93890
X59350Y91840
Y92690
X57150Y91640
Y92890
Y93890
X54850Y91840
Y92690
X52650Y91640
Y92890
Y93890
X50350Y91840
Y92690
X48150Y91640
Y92890
Y93890
X45850Y91840
Y92690
X43650Y91640
Y92890
Y93890
X41350Y91840
Y92690
X39150Y91640
Y92890
Y93890
X36850Y91840
Y92690
X34650Y91640
Y92890
Y93890
X32350Y91840
Y92690
X30150Y91640
Y92890
Y93890
X27850Y91840
Y92690
X25650Y91640
Y92890
Y93890
X23350Y91840
Y92690
X21150Y91640
Y92890
Y93890
X18850Y91840
Y92690
X16650Y91640
Y92890
Y93890
X14350Y91840
Y92690
X12150Y91640
Y92890
Y93890
X9850Y91840
Y92690
X7650Y91640
Y92890
Y93890
X5350Y91840
Y92690
X3811Y96274
X5350Y94090
Y94940
Y96340
X7650Y95140
Y96140
X9850Y94090
Y94940
Y96340
X12150Y95140
Y96140
X14350Y94090
Y94940
Y96340
X16650Y95140
Y96140
X18850Y94090
Y94940
Y96340
X21150Y95140
Y96140
X23350Y94090
Y94940
Y96340
X25650Y95140
Y96140
X27850Y94090
Y94940
Y96340
X30150Y95140
Y96140
X32350Y94090
Y94940
Y96340
X34650Y95140
Y96140
X36850Y94090
Y94940
Y96340
X39150Y95140
Y96140
X41350Y94090
Y94940
Y96340
X43650Y95140
Y96140
X45850Y94090
Y94940
Y96340
X48150Y95140
Y96140
X50350Y94090
Y94940
Y96340
X52650Y95140
Y96140
X54850Y94090
Y94940
Y96340
X57150Y95140
Y96140
X59350Y94090
Y94940
Y96340
X61650Y95140
Y96140
X63850Y94090
Y94940
Y96340
X66150Y95140
Y96140
X68350Y94090
Y94940
Y96340
X70650Y95140
Y96140
X72850Y94090
Y94940
Y96340
X75150Y95140
Y96140
X77350Y94090
Y94940
Y96340
X79650Y95140
Y96140
X81850Y94090
Y94940
Y96340
X84150Y95140
Y96140
X86350Y94090
Y94940
Y96340
X88650Y95140
Y96140
X90850Y94090
Y94940
Y96340
X93150Y95140
Y96140
X95350Y94090
Y94940
Y96340
X97650Y95140
Y96140
X99850Y94090
Y94940
Y96340
X102150Y95140
Y96140
X104350Y94090
Y94940
Y96340
X106650Y95140
Y96140
X108850Y94090
Y94940
Y96340
X111150Y95140
Y96140
X113350Y94090
Y94940
Y96340
X115650Y95140
Y96140
X117850Y94090
Y94940
Y96340
X120150Y95140
Y96140
X122350Y94090
Y94940
Y96340
X124650Y95140
Y96140
X126850Y94090
Y94940
Y96340
X129150Y95140
Y96140
X131350Y94090
Y94940
Y96340
X133650Y95140
Y96140
X135850Y94090
Y94940
Y96340
X138150Y95140
Y96140
X140350Y94090
Y94940
Y96340
X142650Y95140
Y96140
X144850Y94090
Y94940
Y96340
X147150Y95140
Y96140
X149350Y94090
Y94940
Y96340
X151650Y95140
Y96140
X153850Y94090
Y94940
Y96340
X156150Y95140
Y96140
X158350Y94090
Y94940
Y96340
X160650Y95140
Y96140
X162850Y94090
Y94940
Y96340
X165150Y95140
Y96140
X167350Y94090
Y94940
Y96340
X169650Y95140
Y96140
X171850Y94090
Y94940
Y96340
X174150Y95140
Y96140
X176350Y94090
Y94940
Y96340
X178650Y95140
Y96140
X180850Y94090
Y94940
Y96340
X183150Y95140
Y96140
X186645Y96912
X183150Y97390
Y98390
X180850Y97190
Y98590
X178650Y97390
Y98390
X176350Y97190
Y98590
X174150Y97390
Y98390
X171850Y97190
Y98590
X169650Y97390
Y98390
X167350Y97190
Y98590
X165150Y97390
Y98390
X162850Y97190
Y98590
X160650Y97390
Y98390
X158350Y97190
Y98590
X156150Y97390
Y98390
X153850Y97190
Y98590
X151650Y97390
Y98390
X149350Y97190
Y98590
X147150Y97390
Y98390
X144850Y97190
Y98590
X142650Y97390
Y98390
X140350Y97190
Y98590
X138150Y97390
Y98390
X135850Y97190
Y98590
X133650Y97390
Y98390
X131350Y97190
Y98590
X129150Y97390
Y98390
X126850Y97190
Y98590
X124650Y97390
Y98390
X122350Y97190
Y98590
X120150Y97390
Y98390
X117850Y97190
Y98590
X115650Y97390
Y98390
X113350Y97190
Y98590
X111150Y97390
Y98390
X108850Y97190
Y98590
X106650Y97390
Y98390
X104350Y97190
Y98590
X102150Y97390
Y98390
X99850Y97190
Y98590
X97650Y97390
Y98390
X95350Y97190
Y98590
X93150Y97390
Y98390
X90850Y97190
Y98590
X88650Y97390
Y98390
X86350Y97190
Y98590
X84150Y97390
Y98390
X81850Y97190
Y98590
X79650Y97390
Y98390
X77350Y97190
Y98590
X75150Y97390
Y98390
X72850Y97190
Y98590
X70650Y97390
Y98390
X68350Y97190
Y98590
X66150Y97390
Y98390
X63850Y97190
Y98590
X61650Y97390
Y98390
X59350Y97190
Y98590
X57150Y97390
Y98390
X54850Y97190
Y98590
X52650Y97390
Y98390
X50350Y97190
Y98590
X48150Y97390
Y98390
X45850Y97190
Y98590
X43650Y97390
Y98390
X41350Y97190
Y98590
X39150Y97390
Y98390
X36850Y97190
Y98590
X34650Y97390
Y98390
X32350Y97190
Y98590
X30150Y97390
Y98390
X27850Y97190
Y98590
X25650Y97390
Y98390
X23350Y97190
Y98590
X21150Y97390
Y98390
X18850Y97190
Y98590
X16650Y97390
Y98390
X14350Y97190
Y98590
X12150Y97390
Y98390
X9850Y97190
Y98590
X7650Y97390
Y98390
X5350Y97190
Y98590
Y99440
Y100840
X7650Y99640
Y100640
X9850Y99440
Y100840
X12150Y99640
Y100640
X14350Y99440
Y100840
X16650Y99640
Y100640
X18850Y99440
Y100840
X21150Y99640
Y100640
X23350Y99440
Y100840
X25650Y99640
Y100640
X27850Y99440
Y100840
X30150Y99640
Y100640
X32350Y99440
Y100840
X34650Y99640
Y100640
X36850Y99440
Y100840
X39150Y99640
Y100640
X41350Y99440
Y100840
X43650Y99640
Y100640
X45850Y99440
Y100840
X48150Y99640
Y100640
X50350Y99440
Y100840
X52650Y99640
Y100640
X54850Y99440
Y100840
X57150Y99640
Y100640
X59350Y99440
Y100840
X61650Y99640
Y100640
X63850Y99440
Y100840
X66150Y99640
Y100640
X68350Y99440
Y100840
X70650Y99640
Y100640
X72850Y99440
Y100840
X75150Y99640
Y100640
X77350Y99440
Y100840
X79650Y99640
Y100640
X81850Y99440
Y100840
X84150Y99640
Y100640
X86350Y99440
Y100840
X88650Y99640
Y100640
X90850Y99440
Y100840
X93150Y99640
Y100640
X95350Y99440
Y100840
X97650Y99640
Y100640
X99850Y99440
Y100840
X102150Y99640
Y100640
X104350Y99440
Y100840
X106650Y99640
Y100640
X108850Y99440
Y100840
X111150Y99640
Y100640
X113350Y99440
Y100840
X115650Y99640
Y100640
X117850Y99440
Y100840
X120150Y99640
Y100640
X122350Y99440
Y100840
X124650Y99640
Y100640
X126850Y99440
Y100840
X129150Y99640
Y100640
X131350Y99440
Y100840
X133650Y99640
Y100640
X135850Y99440
Y100840
X138150Y99640
Y100640
X140350Y99440
Y100840
X142650Y99640
Y100640
X144850Y99440
Y100840
X147150Y99640
Y100640
X149350Y99440
Y100840
X151650Y99640
Y100640
X153850Y99440
Y100840
X156150Y99640
Y100640
X158350Y99440
Y100840
X160650Y99640
Y100640
X162850Y99440
Y100840
X165150Y99640
Y100640
X167350Y99440
Y100840
X169650Y99640
Y100640
X171850Y99440
Y100840
X174150Y99640
Y100640
X176350Y99440
Y100840
X178650Y99640
Y100640
X180850Y99440
Y100840
X183150Y99640
Y100640
X186705Y101083
X183150Y101890
Y102890
X180850Y101690
Y103090
Y103940
X178650Y101890
Y102890
X176350Y101690
Y103090
Y103940
X174150Y101890
Y102890
X171850Y101690
Y103090
Y103940
X169650Y101890
Y102890
X167350Y101690
Y103090
Y103940
X165150Y101890
Y102890
X162850Y101690
Y103090
Y103940
X160650Y101890
Y102890
X158350Y101690
Y103090
Y103940
X156150Y101890
Y102890
X153850Y101690
Y103090
Y103940
X151650Y101890
Y102890
X149350Y101690
Y103090
Y103940
X147150Y101890
Y102890
X144850Y101690
Y103090
Y103940
X142650Y101890
Y102890
X140350Y101690
Y103090
Y103940
X138150Y101890
Y102890
X135850Y101690
Y103090
Y103940
X133650Y101890
Y102890
X131350Y101690
Y103090
Y103940
X129150Y101890
Y102890
X126850Y101690
Y103090
Y103940
X124650Y101890
Y102890
X122350Y101690
Y103090
Y103940
X120150Y101890
Y102890
X117850Y101690
Y103090
Y103940
X115650Y101890
Y102890
X113350Y101690
Y103090
Y103940
X111150Y101890
Y102890
X108850Y101690
Y103090
Y103940
X106650Y101890
Y102890
X104350Y101690
Y103090
Y103940
X102150Y101890
Y102890
X99850Y101690
Y103090
Y103940
X97650Y101890
Y102890
X95350Y101690
Y103090
Y103940
X93150Y101890
Y102890
X90850Y101690
Y103090
Y103940
X88650Y101890
Y102890
X86350Y101690
Y103090
Y103940
X84150Y101890
Y102890
X81850Y101690
Y103090
Y103940
X79650Y101890
Y102890
X77350Y101690
Y103090
Y103940
X75150Y101890
Y102890
X72850Y101690
Y103090
Y103940
X70650Y101890
Y102890
X68350Y101690
Y103090
Y103940
X66150Y101890
Y102890
X63850Y101690
Y103090
Y103940
X61650Y101890
Y102890
X59350Y101690
Y103090
Y103940
X57150Y101890
Y102890
X54850Y101690
Y103090
Y103940
X52650Y101890
Y102890
X50350Y101690
Y103090
Y103940
X48150Y101890
Y102890
X45850Y101690
Y103090
Y103940
X43650Y101890
Y102890
X41350Y101690
Y103090
Y103940
X39150Y101890
Y102890
X36850Y101690
Y103090
Y103940
X34650Y101890
Y102890
X32350Y101690
Y103090
Y103940
X30150Y101890
Y102890
X27850Y101690
Y103090
Y103940
X25650Y101890
Y102890
X23350Y101690
Y103090
Y103940
X21150Y101890
Y102890
X18850Y101690
Y103090
Y103940
X16650Y101890
Y102890
X14350Y101690
Y103090
Y103940
X12150Y101890
Y102890
X9850Y101690
Y103090
Y103940
X7650Y101890
Y102890
X5350Y101690
Y103090
Y103940
X3785Y102767
X5350Y105340
Y106190
X7650Y104140
Y105140
Y106390
X9850Y105340
Y106190
X12150Y104140
Y105140
Y106390
X14350Y105340
Y106190
X16650Y104140
Y105140
Y106390
X18850Y105340
Y106190
X21150Y104140
Y105140
Y106390
X23350Y105340
Y106190
X25650Y104140
Y105140
Y106390
X27850Y105340
Y106190
X30150Y104140
Y105140
Y106390
X32350Y105340
Y106190
X34650Y104140
Y105140
Y106390
X36850Y105340
Y106190
X39150Y104140
Y105140
Y106390
X41350Y105340
Y106190
X43650Y104140
Y105140
Y106390
X45850Y105340
Y106190
X48150Y104140
Y105140
Y106390
X50350Y105340
Y106190
X52650Y104140
Y105140
Y106390
X54850Y105340
Y106190
X57150Y104140
Y105140
Y106390
X59350Y105340
Y106190
X61650Y104140
Y105140
Y106390
X63850Y105340
Y106190
X66150Y104140
Y105140
Y106390
X68350Y105340
Y106190
X70650Y104140
Y105140
Y106390
X72850Y105340
Y106190
X75150Y104140
Y105140
Y106390
X77350Y105340
Y106190
X79650Y104140
Y105140
Y106390
X81850Y105340
Y106190
X84150Y104140
Y105140
Y106390
X86350Y105340
Y106190
X88650Y104140
Y105140
Y106390
X90850Y105340
Y106190
X93150Y104140
Y105140
Y106390
X95350Y105340
Y106190
X97650Y104140
Y105140
Y106390
X99850Y105340
Y106190
X102150Y104140
Y105140
Y106390
X104350Y105340
Y106190
X106650Y104140
Y105140
Y106390
X108850Y105340
Y106190
X111150Y104140
Y105140
Y106390
X113350Y105340
Y106190
X115650Y104140
Y105140
Y106390
X117850Y105340
Y106190
X120150Y104140
Y105140
Y106390
X122350Y105340
Y106190
X124650Y104140
Y105140
Y106390
X126850Y105340
Y106190
X129150Y104140
Y105140
Y106390
X131350Y105340
Y106190
X133650Y104140
Y105140
Y106390
X135850Y105340
Y106190
X138150Y104140
Y105140
Y106390
X140350Y105340
Y106190
X142650Y104140
Y105140
Y106390
X144850Y105340
Y106190
X147150Y104140
Y105140
Y106390
X149350Y105340
Y106190
X151650Y104140
Y105140
Y106390
X153850Y105340
Y106190
X156150Y104140
Y105140
Y106390
X158350Y105340
Y106190
X160650Y104140
Y105140
Y106390
X162850Y105340
Y106190
X165150Y104140
Y105140
Y106390
X167350Y105340
Y106190
X169650Y104140
Y105140
Y106390
X171850Y105340
Y106190
X174150Y104140
Y105140
Y106390
X176350Y105340
Y106190
X178650Y104140
Y105140
Y106390
X180850Y105340
Y106190
X183150Y104140
Y105140
Y106390
X186765Y104830
Y109062
X183150Y107390
Y108640
X180850Y107590
Y108440
X178650Y107390
Y108640
X176350Y107590
Y108440
X174150Y107390
Y108640
X171850Y107590
Y108440
X169650Y107390
Y108640
X167350Y107590
Y108440
X165150Y107390
Y108640
X162850Y107590
Y108440
X160650Y107390
Y108640
X158350Y107590
Y108440
X156150Y107390
Y108640
X153850Y107590
Y108440
X151650Y107390
Y108640
X149350Y107590
Y108440
X147150Y107390
Y108640
X144850Y107590
Y108440
X142650Y107390
Y108640
X140350Y107590
Y108440
X138150Y107390
Y108640
X135850Y107590
Y108440
X133650Y107390
Y108640
X131350Y107590
Y108440
X129150Y107390
Y108640
X126850Y107590
Y108440
X124650Y107390
Y108640
X122350Y107590
Y108440
X120150Y107390
Y108640
X117850Y107590
Y108440
X115650Y107390
Y108640
X113350Y107590
Y108440
X111150Y107390
Y108640
X108850Y107590
Y108440
X106650Y107390
Y108640
X104350Y107590
Y108440
X102150Y107390
Y108640
X99850Y107590
Y108440
X97650Y107390
Y108640
X95350Y107590
Y108440
X93150Y107390
Y108640
X90850Y107590
Y108440
X88650Y107390
Y108640
X86350Y107590
Y108440
X84150Y107390
Y108640
X81850Y107590
Y108440
X79650Y107390
Y108640
X77350Y107590
Y108440
X75150Y107390
Y108640
X72850Y107590
Y108440
X70650Y107390
Y108640
X68350Y107590
Y108440
X66150Y107390
Y108640
X63850Y107590
Y108440
X61650Y107390
Y108640
X59350Y107590
Y108440
X57150Y107390
Y108640
X54850Y107590
Y108440
X52650Y107390
Y108640
X50350Y107590
Y108440
X48150Y107390
Y108640
X45850Y107590
Y108440
X43650Y107390
Y108640
X41350Y107590
Y108440
X39150Y107390
Y108640
X36850Y107590
Y108440
X34650Y107390
Y108640
X32350Y107590
Y108440
X30150Y107390
Y108640
X27850Y107590
Y108440
X25650Y107390
Y108640
X23350Y107590
Y108440
X21150Y107390
Y108640
X18850Y107590
Y108440
X16650Y107390
Y108640
X14350Y107590
Y108440
X12150Y107390
Y108640
X9850Y107590
Y108440
X7650Y107390
Y108640
X5350Y107590
Y108440
X3715Y109244
X5350Y109840
Y110690
X7650Y109640
Y110890
X9850Y109840
Y110690
X12150Y109640
Y110890
X14350Y109840
Y110690
X16650Y109640
Y110890
X18850Y109840
Y110690
X21150Y109640
Y110890
X23350Y109840
Y110690
X25650Y109640
Y110890
X27850Y109840
Y110690
X30150Y109640
Y110890
X32350Y109840
Y110690
X34650Y109640
Y110890
X36850Y109840
Y110690
X39150Y109640
Y110890
X41350Y109840
Y110690
X43650Y109640
Y110890
X45850Y109840
Y110690
X48150Y109640
Y110890
X50350Y109840
Y110690
X52650Y109640
Y110890
X54850Y109840
Y110690
X57150Y109640
Y110890
X59350Y109840
Y110690
X61650Y109640
Y110890
X63850Y109840
Y110690
X66150Y109640
Y110890
X68350Y109840
Y110690
X70650Y109640
Y110890
X72850Y109840
Y110690
X75150Y109640
Y110890
X77350Y109840
Y110690
X79650Y109640
Y110890
X81850Y109840
Y110690
X84150Y109640
Y110890
X86350Y109840
Y110690
X88650Y109640
Y110890
X90850Y109840
Y110690
X93150Y109640
Y110890
X95350Y109840
Y110690
X97650Y109640
Y110890
X99850Y109840
Y110690
X102150Y109640
Y110890
X104350Y109840
Y110690
X106650Y109640
Y110890
X108850Y109840
Y110690
X111150Y109640
Y110890
X113350Y109840
Y110690
X115650Y109640
Y110890
X117850Y109840
Y110690
X120150Y109640
Y110890
X122350Y109840
Y110690
X124650Y109640
Y110890
X126850Y109840
Y110690
X129150Y109640
Y110890
X131350Y109840
Y110690
X133650Y109640
Y110890
X135850Y109840
Y110690
X138150Y109640
Y110890
X140350Y109840
Y110690
X142650Y109640
Y110890
X144850Y109840
Y110690
X147150Y109640
Y110890
X149350Y109840
Y110690
X151650Y109640
Y110890
X153850Y109840
Y110690
X156150Y109640
Y110890
X158350Y109840
Y110690
X160650Y109640
Y110890
X162850Y109840
Y110690
X165150Y109640
Y110890
X167350Y109840
Y110690
X169650Y109640
Y110890
X171850Y109840
Y110690
X174150Y109640
Y110890
X176350Y109840
Y110690
X178650Y109640
Y110890
X180850Y109840
Y110690
X183150Y109640
Y110890
X186765Y113474
X183150Y111890
Y113140
Y114140
X180850Y112090
Y112940
X178650Y111890
Y113140
Y114140
X176350Y112090
Y112940
X174150Y111890
Y113140
Y114140
X171850Y112090
Y112940
X169650Y111890
Y113140
Y114140
X167350Y112090
Y112940
X165150Y111890
Y113140
Y114140
X162850Y112090
Y112940
X160650Y111890
Y113140
Y114140
X158350Y112090
Y112940
X156150Y111890
Y113140
Y114140
X153850Y112090
Y112940
X151650Y111890
Y113140
Y114140
X149350Y112090
Y112940
X147150Y111890
Y113140
Y114140
X144850Y112090
Y112940
X142650Y111890
Y113140
Y114140
X140350Y112090
Y112940
X138150Y111890
Y113140
Y114140
X135850Y112090
Y112940
X133650Y111890
Y113140
Y114140
X131350Y112090
Y112940
X129150Y111890
Y113140
Y114140
X126850Y112090
Y112940
X124650Y111890
Y113140
Y114140
X122350Y112090
Y112940
X120150Y111890
Y113140
Y114140
X117850Y112090
Y112940
X115650Y111890
Y113140
Y114140
X113350Y112090
Y112940
X111150Y111890
Y113140
Y114140
X108850Y112090
Y112940
X106650Y111890
Y113140
Y114140
X104350Y112090
Y112940
X102150Y111890
Y113140
Y114140
X99850Y112090
Y112940
X97650Y111890
Y113140
Y114140
X95350Y112090
Y112940
X93150Y111890
Y113140
Y114140
X90850Y112090
Y112940
X88650Y111890
Y113140
Y114140
X86350Y112090
Y112940
X84150Y111890
Y113140
Y114140
X81850Y112090
Y112940
X79650Y111890
Y113140
Y114140
X77350Y112090
Y112940
X75150Y111890
Y113140
Y114140
X72850Y112090
Y112940
X70650Y111890
Y113140
Y114140
X68350Y112090
Y112940
X66150Y111890
Y113140
Y114140
X63850Y112090
Y112940
X61650Y111890
Y113140
Y114140
X59350Y112090
Y112940
X57150Y111890
Y113140
Y114140
X54850Y112090
Y112940
X52650Y111890
Y113140
Y114140
X50350Y112090
Y112940
X48150Y111890
Y113140
Y114140
X45850Y112090
Y112940
X43650Y111890
Y113140
Y114140
X41350Y112090
Y112940
X39150Y111890
Y113140
Y114140
X36850Y112090
Y112940
X34650Y111890
Y113140
Y114140
X32350Y112090
Y112940
X30150Y111890
Y113140
Y114140
X27850Y112090
Y112940
X25650Y111890
Y113140
Y114140
X23350Y112090
Y112940
X21150Y111890
Y113140
Y114140
X18850Y112090
Y112940
X16650Y111890
Y113140
Y114140
X14350Y112090
Y112940
X12150Y111890
Y113140
Y114140
X9850Y112090
Y112940
X7650Y111890
Y113140
Y114140
X5350Y112090
Y112940
X3772Y115106
X5350Y114340
Y115190
Y116590
X7650Y115390
Y116390
X9850Y114340
Y115190
Y116590
X12150Y115390
Y116390
X14350Y114340
Y115190
Y116590
X16650Y115390
Y116390
X18850Y114340
Y115190
Y116590
X21150Y115390
Y116390
X23350Y114340
Y115190
Y116590
X25650Y115390
Y116390
X27850Y114340
Y115190
Y116590
X30150Y115390
Y116390
X32350Y114340
Y115190
Y116590
X34650Y115390
Y116390
X36850Y114340
Y115190
Y116590
X39150Y115390
Y116390
X41350Y114340
Y115190
Y116590
X43650Y115390
Y116390
X45850Y114340
Y115190
Y116590
X48150Y115390
Y116390
X50350Y114340
Y115190
Y116590
X52650Y115390
Y116390
X54850Y114340
Y115190
Y116590
X57150Y115390
Y116390
X59350Y114340
Y115190
Y116590
X61650Y115390
Y116390
X63850Y114340
Y115190
Y116590
X66150Y115390
Y116390
X68350Y114340
Y115190
Y116590
X70650Y115390
Y116390
X72850Y114340
Y115190
Y116590
X75150Y115390
Y116390
X77350Y114340
Y115190
Y116590
X79650Y115390
Y116390
X81850Y114340
Y115190
Y116590
X84150Y115390
Y116390
X86350Y114340
Y115190
Y116590
X88650Y115390
Y116390
X90850Y114340
Y115190
Y116590
X93150Y115390
Y116390
X95350Y114340
Y115190
Y116590
X97650Y115390
Y116390
X99850Y114340
Y115190
Y116590
X102150Y115390
Y116390
X104350Y114340
Y115190
Y116590
X106650Y115390
Y116390
X108850Y114340
Y115190
Y116590
X111150Y115390
Y116390
X113350Y114340
Y115190
Y116590
X115650Y115390
Y116390
X117850Y114340
Y115190
Y116590
X120150Y115390
Y116390
X122350Y114340
Y115190
Y116590
X124650Y115390
Y116390
X126850Y114340
Y115190
Y116590
X129150Y115390
Y116390
X131350Y114340
Y115190
Y116590
X133650Y115390
Y116390
X135850Y114340
Y115190
Y116590
X138150Y115390
Y116390
X140350Y114340
Y115190
Y116590
X142650Y115390
Y116390
X144850Y114340
Y115190
Y116590
X147150Y115390
Y116390
X149350Y114340
Y115190
Y116590
X151650Y115390
Y116390
X153850Y114340
Y115190
Y116590
X156150Y115390
Y116390
X158350Y114340
Y115190
Y116590
X160650Y115390
Y116390
X162850Y114340
Y115190
Y116590
X165150Y115390
Y116390
X167350Y114340
Y115190
Y116590
X169650Y115390
Y116390
X171850Y114340
Y115190
Y116590
X174150Y115390
Y116390
X176350Y114340
Y115190
Y116590
X178650Y115390
Y116390
X180850Y114340
Y115190
Y116590
X183150Y115390
Y116390
X186524Y118068
X183150Y117640
Y118640
X180850Y117440
Y118840
X178650Y117640
Y118640
X176350Y117440
Y118840
X174150Y117640
Y118640
X171850Y117440
Y118840
X169650Y117640
Y118640
X167350Y117440
Y118840
X165150Y117640
Y118640
X162850Y117440
Y118840
X160650Y117640
Y118640
X158350Y117440
Y118840
X156150Y117640
Y118640
X153850Y117440
Y118840
X151650Y117640
Y118640
X149350Y117440
Y118840
X147150Y117640
Y118640
X144850Y117440
Y118840
X142650Y117640
Y118640
X140350Y117440
Y118840
X138150Y117640
Y118640
X135850Y117440
Y118840
X133650Y117640
Y118640
X131350Y117440
Y118840
X129150Y117640
Y118640
X126850Y117440
Y118840
X124650Y117640
Y118640
X122350Y117440
Y118840
X120150Y117640
Y118640
X117850Y117440
Y118840
X115650Y117640
Y118640
X113350Y117440
Y118840
X111150Y117640
Y118640
X108850Y117440
Y118840
X106650Y117640
Y118640
X104350Y117440
Y118840
X102150Y117640
Y118640
X99850Y117440
Y118840
X97650Y117640
Y118640
X95350Y117440
Y118840
X93150Y117640
Y118640
X90850Y117440
Y118840
X88650Y117640
Y118640
X86350Y117440
Y118840
X84150Y117640
Y118640
X81850Y117440
Y118840
X79650Y117640
Y118640
X77350Y117440
Y118840
X75150Y117640
Y118640
X72850Y117440
Y118840
X70650Y117640
Y118640
X68350Y117440
Y118840
X66150Y117640
Y118640
X63850Y117440
Y118840
X61650Y117640
Y118640
X59350Y117440
Y118840
X57150Y117640
Y118640
X54850Y117440
Y118840
X52650Y117640
Y118640
X50350Y117440
Y118840
X48150Y117640
Y118640
X45850Y117440
Y118840
X43650Y117640
Y118640
X41350Y117440
Y118840
X39150Y117640
Y118640
X36850Y117440
Y118840
X34650Y117640
Y118640
X32350Y117440
Y118840
X30150Y117640
Y118640
X27850Y117440
Y118840
X25650Y117640
Y118640
X23350Y117440
Y118840
X21150Y117640
Y118640
X18850Y117440
Y118840
X16650Y117640
Y118640
X14350Y117440
Y118840
X12150Y117640
Y118640
X9850Y117440
Y118840
X7650Y117640
Y118640
X5350Y117440
Y118840
X3720Y120117
X5350Y119690
Y121090
X7650Y119890
Y120890
X9850Y119690
Y121090
X12150Y119890
Y120890
X14350Y119690
Y121090
X16650Y119890
Y120890
X18850Y119690
Y121090
X21150Y119890
Y120890
X23350Y119690
Y121090
X25650Y119890
Y120890
X27850Y119690
Y121090
X30150Y119890
Y120890
X32350Y119690
Y121090
X34650Y119890
Y120890
X36850Y119690
Y121090
X39150Y119890
Y120890
X41350Y119690
Y121090
X43650Y119890
Y120890
X45850Y119690
Y121090
X48150Y119890
Y120890
X50350Y119690
Y121090
X52650Y119890
Y120890
X54850Y119690
Y121090
X57150Y119890
Y120890
X59350Y119690
Y121090
X61650Y119890
Y120890
X63850Y119690
Y121090
X66150Y119890
Y120890
X68350Y119690
Y121090
X70650Y119890
Y120890
X72850Y119690
Y121090
X75150Y119890
Y120890
X77350Y119690
Y121090
X79650Y119890
Y120890
X81850Y119690
Y121090
X84150Y119890
Y120890
X86350Y119690
Y121090
X88650Y119890
Y120890
X90850Y119690
Y121090
X93150Y119890
Y120890
X95350Y119690
Y121090
X97650Y119890
Y120890
X99850Y119690
Y121090
X102150Y119890
Y120890
X104350Y119690
Y121090
X106650Y119890
Y120890
X108850Y119690
Y121090
X111150Y119890
Y120890
X113350Y119690
Y121090
X115650Y119890
Y120890
X117850Y119690
Y121090
X120150Y119890
Y120890
X122350Y119690
Y121090
X124650Y119890
Y120890
X126850Y119690
Y121090
X129150Y119890
Y120890
X131350Y119690
Y121090
X133650Y119890
Y120890
X135850Y119690
Y121090
X138150Y119890
Y120890
X140350Y119690
Y121090
X142650Y119890
Y120890
X144850Y119690
Y121090
X147150Y119890
Y120890
X149350Y119690
Y121090
X151650Y119890
Y120890
X153850Y119690
Y121090
X156150Y119890
Y120890
X158350Y119690
Y121090
X160650Y119890
Y120890
X162850Y119690
Y121090
X165150Y119890
Y120890
X167350Y119690
Y121090
X169650Y119890
Y120890
X171850Y119690
Y121090
X174150Y119890
Y120890
X176350Y119690
Y121090
X178650Y119890
Y120890
X180850Y119690
Y121090
X183150Y119890
Y120890
X186645Y122480
X183150Y122190
Y123140
Y124440
X180850Y121990
Y123340
Y124240
X178650Y122190
Y123140
Y124440
X176350Y121990
Y123340
Y124240
X174150Y122190
Y123140
Y124440
X171850Y121990
Y123340
Y124240
X169650Y122190
Y123140
Y124440
X167350Y121990
Y123340
Y124240
X165150Y122190
Y123140
Y124440
X162850Y121990
Y123340
Y124240
X160650Y122190
Y123140
Y124440
X158350Y121990
Y123340
Y124240
X156150Y122190
Y123140
Y124440
X153850Y121990
Y123340
Y124240
X151650Y122190
Y123140
Y124440
X149350Y121990
Y123340
Y124240
X147150Y122190
Y123140
Y124440
X144850Y121990
Y123340
Y124240
X142650Y122190
Y123140
Y124440
X140350Y121990
Y123340
Y124240
X138150Y122190
Y123140
Y124440
X135850Y121990
Y123340
Y124240
X133650Y122190
Y123140
Y124440
X131350Y121990
Y123340
Y124240
X129150Y122190
Y123140
Y124440
X126850Y121990
Y123340
Y124240
X124650Y122190
Y123140
Y124440
X122350Y121990
Y123340
Y124240
X120150Y122190
Y123140
Y124440
X117850Y121990
Y123340
Y124240
X115650Y122190
Y123140
Y124440
X113350Y121990
Y123340
Y124240
X111150Y122190
Y123140
Y124440
X108850Y121990
Y123340
Y124240
X106650Y122190
Y123140
Y124440
X104350Y121990
Y123340
Y124240
X102150Y122190
Y123140
Y124440
X99850Y121990
Y123340
Y124240
X97650Y122190
Y123140
Y124440
X95350Y121990
Y123340
Y124240
X93150Y122190
Y123140
Y124440
X90850Y121990
Y123340
Y124240
X88650Y122190
Y123140
Y124440
X86350Y121990
Y123340
Y124240
X84150Y122190
Y123140
Y124440
X81850Y121990
Y123340
Y124240
X79650Y122190
Y123140
Y124440
X77350Y121990
Y123340
Y124240
X75150Y122190
Y123140
Y124440
X72850Y121990
Y123340
Y124240
X70650Y122190
Y123140
Y124440
X68350Y121990
Y123340
Y124240
X66150Y122190
Y123140
Y124440
X63850Y121990
Y123340
Y124240
X61650Y122190
Y123140
Y124440
X59350Y121990
Y123340
Y124240
X57150Y122190
Y123140
Y124440
X54850Y121990
Y123340
Y124240
X52650Y122190
Y123140
Y124440
X50350Y121990
Y123340
Y124240
X48150Y122190
Y123140
Y124440
X45850Y121990
Y123340
Y124240
X43650Y122190
Y123140
Y124440
X41350Y121990
Y123340
Y124240
X39150Y122190
Y123140
Y124440
X36850Y121990
Y123340
Y124240
X34650Y122190
Y123140
Y124440
X32350Y121990
Y123340
Y124240
X30150Y122190
Y123140
Y124440
X27850Y121990
Y123340
Y124240
X25650Y122190
Y123140
Y124440
X23350Y121990
Y123340
Y124240
X21150Y122190
Y123140
Y124440
X18850Y121990
Y123340
Y124240
X16650Y122190
Y123140
Y124440
X14350Y121990
Y123340
Y124240
X12150Y122190
Y123140
Y124440
X9850Y121990
Y123340
Y124240
X7650Y122190
Y123140
Y124440
X5350Y121990
Y123340
Y124240
X3807Y125354
X5350Y125590
Y126440
X7650Y125390
Y126640
X9850Y125590
Y126440
X12150Y125390
Y126640
X14350Y125590
Y126440
X16650Y125390
Y126640
X18850Y125590
Y126440
X21150Y125390
Y126640
X23350Y125590
Y126440
X25650Y125390
Y126640
X27850Y125590
Y126440
X30150Y125390
Y126640
X32350Y125590
Y126440
X34650Y125390
Y126640
X36850Y125590
Y126440
X39150Y125390
Y126640
X41350Y125590
Y126440
X43650Y125390
Y126640
X45850Y125590
Y126440
X48150Y125390
Y126640
X50350Y125590
Y126440
X52650Y125390
Y126640
X54850Y125590
Y126440
X57150Y125390
Y126640
X59350Y125590
Y126440
X61650Y125390
Y126640
X63850Y125590
Y126440
X66150Y125390
Y126640
X68350Y125590
Y126440
X70650Y125390
Y126640
X72850Y125590
Y126440
X75150Y125390
Y126640
X77350Y125590
Y126440
X79650Y125390
Y126640
X81850Y125590
Y126440
X84150Y125390
Y126640
X86350Y125590
Y126440
X88650Y125390
Y126640
X90850Y125590
Y126440
X93150Y125390
Y126640
X95350Y125590
Y126440
X97650Y125390
Y126640
X99850Y125590
Y126440
X102150Y125390
Y126640
X104350Y125590
Y126440
X106650Y125390
Y126640
X108850Y125590
Y126440
X111150Y125390
Y126640
X113350Y125590
Y126440
X115650Y125390
Y126640
X117850Y125590
Y126440
X120150Y125390
Y126640
X122350Y125590
Y126440
X124650Y125390
Y126640
X126850Y125590
Y126440
X129150Y125390
Y126640
X131350Y125590
Y126440
X133650Y125390
Y126640
X135850Y125590
Y126440
X138150Y125390
Y126640
X140350Y125590
Y126440
X142650Y125390
Y126640
X144850Y125590
Y126440
X147150Y125390
Y126640
X149350Y125590
Y126440
X151650Y125390
Y126640
X153850Y125590
Y126440
X156150Y125390
Y126640
X158350Y125590
Y126440
X160650Y125390
Y126640
X162850Y125590
Y126440
X165150Y125390
Y126640
X167350Y125590
Y126440
X169650Y125390
Y126640
X171850Y125590
Y126440
X174150Y125390
Y126640
X176350Y125590
Y126440
X178650Y125390
Y126640
X180850Y125590
Y126440
X183150Y125390
Y126640
X186524Y126772
X183150Y127640
Y128940
X180850Y127840
Y128740
X178650Y127640
Y128940
X176350Y127840
Y128740
X174150Y127640
Y128940
X171850Y127840
Y128740
X169650Y127640
Y128940
X167350Y127840
Y128740
X165150Y127640
Y128940
X162850Y127840
Y128740
X160650Y127640
Y128940
X158350Y127840
Y128740
X156150Y127640
Y128940
X153850Y127840
Y128740
X151650Y127640
Y128940
X149350Y127840
Y128740
X147150Y127640
Y128940
X144850Y127840
Y128740
X142650Y127640
Y128940
X140350Y127840
Y128740
X138150Y127640
Y128940
X135850Y127840
Y128740
X133650Y127640
Y128940
X131350Y127840
Y128740
X129150Y127640
Y128940
X126850Y127840
Y128740
X124650Y127640
Y128940
X122350Y127840
Y128740
X120150Y127640
Y128940
X117850Y127840
Y128740
X115650Y127640
Y128940
X113350Y127840
Y128740
X111150Y127640
Y128940
X108850Y127840
Y128740
X106650Y127640
Y128940
X104350Y127840
Y128740
X102150Y127640
Y128940
X99850Y127840
Y128740
X97650Y127640
Y128940
X95350Y127840
Y128740
X93150Y127640
Y128940
X90850Y127840
Y128740
X88650Y127640
Y128940
X86350Y127840
Y128740
X84150Y127640
Y128940
X81850Y127840
Y128740
X79650Y127640
Y128940
X77350Y127840
Y128740
X75150Y127640
Y128940
X72850Y127840
Y128740
X70650Y127640
Y128940
X68350Y127840
Y128740
X66150Y127640
Y128940
X63850Y127840
Y128740
X61650Y127640
Y128940
X59350Y127840
Y128740
X57150Y127640
Y128940
X54850Y127840
Y128740
X52650Y127640
Y128940
X50350Y127840
Y128740
X48150Y127640
Y128940
X45850Y127840
Y128740
X43650Y127640
Y128940
X41350Y127840
Y128740
X39150Y127640
Y128940
X36850Y127840
Y128740
X34650Y127640
Y128940
X32350Y127840
Y128740
X30150Y127640
Y128940
X27850Y127840
Y128740
X25650Y127640
Y128940
X23350Y127840
Y128740
X21150Y127640
Y128940
X18850Y127840
Y128740
X16650Y127640
Y128940
X14350Y127840
Y128740
X12150Y127640
Y128940
X9850Y127840
Y128740
X7650Y127640
Y128940
X5350Y127840
Y128740
X3814Y129795
X5350Y130140
Y130990
X7650Y129940
Y131190
X9850Y130140
Y130990
X12150Y129940
Y131190
X14350Y130140
Y130990
X16650Y129940
Y131190
X18850Y130140
Y130990
X21150Y129940
Y131190
X23350Y130140
Y130990
X25650Y129940
Y131190
X27850Y130140
Y130990
X30150Y129940
Y131190
X32350Y130140
Y130990
X34650Y129940
Y131190
X36850Y130140
Y130990
X39150Y129940
Y131190
X41350Y130140
Y130990
X43650Y129940
Y131190
X45850Y130140
Y130990
X48150Y129940
Y131190
X50350Y130140
Y130990
X52650Y129940
Y131190
X54850Y130140
Y130990
X57150Y129940
Y131190
X59350Y130140
Y130990
X61650Y129940
Y131190
X63850Y130140
Y130990
X66150Y129940
Y131190
X68350Y130140
Y130990
X70650Y129940
Y131190
X72850Y130140
Y130990
X75150Y129940
Y131190
X77350Y130140
Y130990
X79650Y129940
Y131190
X81850Y130140
Y130990
X84150Y129940
Y131190
X86350Y130140
Y130990
X88650Y129940
Y131190
X90850Y130140
Y130990
X93150Y129940
Y131190
X95350Y130140
Y130990
X97650Y129940
Y131190
X99850Y130140
Y130990
X102150Y129940
Y131190
X104350Y130140
Y130990
X106650Y129940
Y131190
X108850Y130140
Y130990
X111150Y129940
Y131190
X113350Y130140
Y130990
X115650Y129940
Y131190
X117850Y130140
Y130990
X120150Y129940
Y131190
X122350Y130140
Y130990
X124650Y129940
Y131190
X126850Y130140
Y130990
X129150Y129940
Y131190
X131350Y130140
Y130990
X133650Y129940
Y131190
X135850Y130140
Y130990
X138150Y129940
Y131190
X140350Y130140
Y130990
X142650Y129940
Y131190
X144850Y130140
Y130990
X147150Y129940
Y131190
X149350Y130140
Y130990
X151650Y129940
Y131190
X153850Y130140
Y130990
X156150Y129940
Y131190
X158350Y130140
Y130990
X160650Y129940
Y131190
X162850Y130140
Y130990
X165150Y129940
Y131190
X167350Y130140
Y130990
X169650Y129940
Y131190
X171850Y130140
Y130990
X174150Y129940
Y131190
X176350Y130140
Y130990
X178650Y129940
Y131190
X180850Y130140
Y130990
X183150Y129940
Y131190
X186645Y131003
X186584Y134448
X183150Y132190
Y133440
Y134390
X180850Y132390
Y133240
Y134590
X178650Y132190
Y133440
Y134390
X176350Y132390
Y133240
Y134590
X174150Y132190
Y133440
Y134390
X171850Y132390
Y133240
Y134590
X169650Y132190
Y133440
Y134390
X167350Y132390
Y133240
Y134590
X165150Y132190
Y133440
Y134390
X162850Y132390
Y133240
Y134590
X160650Y132190
Y133440
Y134390
X158350Y132390
Y133240
Y134590
X156150Y132190
Y133440
Y134390
X153850Y132390
Y133240
Y134590
X151650Y132190
Y133440
Y134390
X149350Y132390
Y133240
Y134590
X147150Y132190
Y133440
Y134390
X144850Y132390
Y133240
Y134590
X142650Y132190
Y133440
Y134390
X140350Y132390
Y133240
Y134590
X138150Y132190
Y133440
Y134390
X135850Y132390
Y133240
Y134590
X133650Y132190
Y133440
Y134390
X131350Y132390
Y133240
Y134590
X129150Y132190
Y133440
Y134390
X126850Y132390
Y133240
Y134590
X124650Y132190
Y133440
Y134390
X122350Y132390
Y133240
Y134590
X120150Y132190
Y133440
Y134390
X117850Y132390
Y133240
Y134590
X115650Y132190
Y133440
Y134390
X113350Y132390
Y133240
Y134590
X111150Y132190
Y133440
Y134390
X108850Y132390
Y133240
Y134590
X106650Y132190
Y133440
Y134390
X104350Y132390
Y133240
Y134590
X102150Y132190
Y133440
Y134390
X99850Y132390
Y133240
Y134590
X97650Y132190
Y133440
Y134390
X95350Y132390
Y133240
Y134590
X93150Y132190
Y133440
Y134390
X90850Y132390
Y133240
Y134590
X88650Y132190
Y133440
Y134390
X86350Y132390
Y133240
Y134590
X84150Y132190
Y133440
Y134390
X81850Y132390
Y133240
Y134590
X79650Y132190
Y133440
Y134390
X77350Y132390
Y133240
Y134590
X75150Y132190
Y133440
Y134390
X72850Y132390
Y133240
Y134590
X70650Y132190
Y133440
Y134390
X68350Y132390
Y133240
Y134590
X66150Y132190
Y133440
Y134390
X63850Y132390
Y133240
Y134590
X61650Y132190
Y133440
Y134390
X59350Y132390
Y133240
Y134590
X57150Y132190
Y133440
Y134390
X54850Y132390
Y133240
Y134590
X52650Y132190
Y133440
Y134390
X50350Y132390
Y133240
Y134590
X48150Y132190
Y133440
Y134390
X45850Y132390
Y133240
Y134590
X43650Y132190
Y133440
Y134390
X41350Y132390
Y133240
Y134590
X39150Y132190
Y133440
Y134390
X36850Y132390
Y133240
Y134590
X34650Y132190
Y133440
Y134390
X32350Y132390
Y133240
Y134590
X30150Y132190
Y133440
Y134390
X27850Y132390
Y133240
Y134590
X25650Y132190
Y133440
Y134390
X23350Y132390
Y133240
Y134590
X21150Y132190
Y133440
Y134390
X18850Y132390
Y133240
Y134590
X16650Y132190
Y133440
Y134390
X14350Y132390
Y133240
Y134590
X12150Y132190
Y133440
Y134390
X9850Y132390
Y133240
Y134590
X7650Y132190
Y133440
Y134390
X5350Y132390
Y133240
Y134590
X3709Y134482
X5350Y135490
Y136840
X7650Y135690
Y136640
X9850Y135490
Y136840
X12150Y135690
Y136640
X14350Y135490
Y136840
X16650Y135690
Y136640
X18850Y135490
Y136840
X21150Y135690
Y136640
X23350Y135490
Y136840
X25650Y135690
Y136640
X27850Y135490
Y136840
X30150Y135690
Y136640
X32350Y135490
Y136840
X34650Y135690
Y136640
X36850Y135490
Y136840
X39150Y135690
Y136640
X41350Y135490
Y136840
X43650Y135690
Y136640
X45850Y135490
Y136840
X48150Y135690
Y136640
X50350Y135490
Y136840
X52650Y135690
Y136640
X54850Y135490
Y136840
X57150Y135690
Y136640
X59350Y135490
Y136840
X61650Y135690
Y136640
X63850Y135490
Y136840
X66150Y135690
Y136640
X68350Y135490
Y136840
X70650Y135690
Y136640
X72850Y135490
Y136840
X75150Y135690
Y136640
X77350Y135490
Y136840
X79650Y135690
Y136640
X81850Y135490
Y136840
X84150Y135690
Y136640
X86350Y135490
Y136840
X88650Y135690
Y136640
X90850Y135490
Y136840
X93150Y135690
Y136640
X95350Y135490
Y136840
X97650Y135690
Y136640
X99850Y135490
Y136840
X102150Y135690
Y136640
X104350Y135490
Y136840
X106650Y135690
Y136640
X108850Y135490
Y136840
X111150Y135690
Y136640
X113350Y135490
Y136840
X115650Y135690
Y136640
X117850Y135490
Y136840
X120150Y135690
Y136640
X122350Y135490
Y136840
X124650Y135690
Y136640
X126850Y135490
Y136840
X129150Y135690
Y136640
X131350Y135490
Y136840
X133650Y135690
Y136640
X135850Y135490
Y136840
X138150Y135690
Y136640
X140350Y135490
Y136840
X142650Y135690
Y136640
X144850Y135490
Y136840
X147150Y135690
Y136640
X149350Y135490
Y136840
X151650Y135690
Y136640
X153850Y135490
Y136840
X156150Y135690
Y136640
X158350Y135490
Y136840
X160650Y135690
Y136640
X162850Y135490
Y136840
X165150Y135690
Y136640
X167350Y135490
Y136840
X169650Y135690
Y136640
X171850Y135490
Y136840
X174150Y135690
Y136640
X176350Y135490
Y136840
X178650Y135690
Y136640
X180850Y135490
Y136840
X183150Y135690
Y136640
X186645Y138498
X183150Y137890
Y138890
X180850Y137690
Y139090
X178650Y137890
Y138890
X176350Y137690
Y139090
X174150Y137890
Y138890
X171850Y137690
Y139090
X169650Y137890
Y138890
X167350Y137690
Y139090
X165150Y137890
Y138890
X162850Y137690
Y139090
X160650Y137890
Y138890
X158350Y137690
Y139090
X156150Y137890
Y138890
X153850Y137690
Y139090
X151650Y137890
Y138890
X149350Y137690
Y139090
X147150Y137890
Y138890
X144850Y137690
Y139090
X142650Y137890
Y138890
X140350Y137690
Y139090
X138150Y137890
Y138890
X135850Y137690
Y139090
X133650Y137890
Y138890
X131350Y137690
Y139090
X129150Y137890
Y138890
X126850Y137690
Y139090
X124650Y137890
Y138890
X122350Y137690
Y139090
X120150Y137890
Y138890
X117850Y137690
Y139090
X115650Y137890
Y138890
X113350Y137690
Y139090
X111150Y137890
Y138890
X108850Y137690
Y139090
X106650Y137890
Y138890
X104350Y137690
Y139090
X102150Y137890
Y138890
X99850Y137690
Y139090
X97650Y137890
Y138890
X95350Y137690
Y139090
X93150Y137890
Y138890
X90850Y137690
Y139090
X88650Y137890
Y138890
X86350Y137690
Y139090
X84150Y137890
Y138890
X81850Y137690
Y139090
X79650Y137890
Y138890
X77350Y137690
Y139090
X75150Y137890
Y138890
X72850Y137690
Y139090
X70650Y137890
Y138890
X68350Y137690
Y139090
X66150Y137890
Y138890
X63850Y137690
Y139090
X61650Y137890
Y138890
X59350Y137690
Y139090
X57150Y137890
Y138890
X54850Y137690
Y139090
X52650Y137890
Y138890
X50350Y137690
Y139090
X48150Y137890
Y138890
X45850Y137690
Y139090
X43650Y137890
Y138890
X41350Y137690
Y139090
X39150Y137890
Y138890
X36850Y137690
Y139090
X34650Y137890
Y138890
X32350Y137690
Y139090
X30150Y137890
Y138890
X27850Y137690
Y139090
X25650Y137890
Y138890
X23350Y137690
Y139090
X21150Y137890
Y138890
X18850Y137690
Y139090
X16650Y137890
Y138890
X14350Y137690
Y139090
X12150Y137890
Y138890
X9850Y137690
Y139090
X7650Y137890
Y138890
X5350Y137690
Y139090
X3761Y138882
X5350Y139990
Y141340
X7650Y140190
Y141140
X9850Y139990
Y141340
X12150Y140190
Y141140
X14350Y139990
Y141340
X16650Y140190
Y141140
X18850Y139990
Y141340
X21150Y140190
Y141140
X23350Y139990
Y141340
X25650Y140190
Y141140
X27850Y139990
Y141340
X30150Y140190
Y141140
X32350Y139990
Y141340
X34650Y140190
Y141140
X36850Y139990
Y141340
X39150Y140190
Y141140
X41350Y139990
Y141340
X43650Y140190
Y141140
X45850Y139990
Y141340
X48150Y140190
Y141140
X50350Y139990
Y141340
X52650Y140190
Y141140
X54850Y139990
Y141340
X57150Y140190
Y141140
X59350Y139990
Y141340
X61650Y140190
Y141140
X63850Y139990
Y141340
X66150Y140190
Y141140
X68350Y139990
Y141340
X70650Y140190
Y141140
X72850Y139990
Y141340
X75150Y140190
Y141140
X77350Y139990
Y141340
X79650Y140190
Y141140
X81850Y139990
Y141340
X84150Y140190
Y141140
X86350Y139990
Y141340
X88650Y140190
Y141140
X90850Y139990
Y141340
X93150Y140190
Y141140
X95350Y139990
Y141340
X97650Y140190
Y141140
X99850Y139990
Y141340
X102150Y140190
Y141140
X104350Y139990
Y141340
X106650Y140190
Y141140
X108850Y139990
Y141340
X111150Y140190
Y141140
X113350Y139990
Y141340
X115650Y140190
Y141140
X117850Y139990
Y141340
X120150Y140190
Y141140
X122350Y139990
Y141340
X124650Y140190
Y141140
X126850Y139990
Y141340
X129150Y140190
Y141140
X131350Y139990
Y141340
X133650Y140190
Y141140
X135850Y139990
Y141340
X138150Y140190
Y141140
X140350Y139990
Y141340
X142650Y140190
Y141140
X144850Y139990
Y141340
X147150Y140190
Y141140
X149350Y139990
Y141340
X151650Y140190
Y141140
X153850Y139990
Y141340
X156150Y140190
Y141140
X158350Y139990
Y141340
X160650Y140190
Y141140
X162850Y139990
Y141340
X165150Y140190
Y141140
X167350Y139990
Y141340
X169650Y140190
Y141140
X171850Y139990
Y141340
X174150Y140190
Y141140
X176350Y139990
Y141340
X178650Y140190
Y141140
X180850Y139990
Y141340
X183150Y140190
Y141140
X186403Y142971
X183150Y142440
Y143390
Y144640
X180850Y142240
Y143590
Y144440
X178650Y142440
Y143390
Y144640
X176350Y142240
Y143590
Y144440
X174150Y142440
Y143390
Y144640
X171850Y142240
Y143590
Y144440
X169650Y142440
Y143390
Y144640
X167350Y142240
Y143590
Y144440
X165150Y142440
Y143390
Y144640
X162850Y142240
Y143590
Y144440
X160650Y142440
Y143390
Y144640
X158350Y142240
Y143590
Y144440
X156150Y142440
Y143390
Y144640
X153850Y142240
Y143590
Y144440
X151650Y142440
Y143390
Y144640
X149350Y142240
Y143590
Y144440
X147150Y142440
Y143390
Y144640
X144850Y142240
Y143590
Y144440
X142650Y142440
Y143390
Y144640
X140350Y142240
Y143590
Y144440
X138150Y142440
Y143390
Y144640
X135850Y142240
Y143590
Y144440
X133650Y142440
Y143390
Y144640
X131350Y142240
Y143590
Y144440
X129150Y142440
Y143390
Y144640
X126850Y142240
Y143590
Y144440
X124650Y142440
Y143390
Y144640
X122350Y142240
Y143590
Y144440
X120150Y142440
Y143390
Y144640
X117850Y142240
Y143590
Y144440
X115650Y142440
Y143390
Y144640
X113350Y142240
Y143590
Y144440
X111150Y142440
Y143390
Y144640
X108850Y142240
Y143590
Y144440
X106650Y142440
Y143390
Y144640
X104350Y142240
Y143590
Y144440
X102150Y142440
Y143390
Y144640
X99850Y142240
Y143590
Y144440
X97650Y142440
Y143390
Y144640
X95350Y142240
Y143590
Y144440
X93150Y142440
Y143390
Y144640
X90850Y142240
Y143590
Y144440
X88650Y142440
Y143390
Y144640
X86350Y142240
Y143590
Y144440
X84150Y142440
Y143390
Y144640
X81850Y142240
Y143590
Y144440
X79650Y142440
Y143390
Y144640
X77350Y142240
Y143590
Y144440
X75150Y142440
Y143390
Y144640
X72850Y142240
Y143590
Y144440
X70650Y142440
Y143390
Y144640
X68350Y142240
Y143590
Y144440
X66150Y142440
Y143390
Y144640
X63850Y142240
Y143590
Y144440
X61650Y142440
Y143390
Y144640
X59350Y142240
Y143590
Y144440
X57150Y142440
Y143390
Y144640
X54850Y142240
Y143590
Y144440
X52650Y142440
Y143390
Y144640
X50350Y142240
Y143590
Y144440
X48150Y142440
Y143390
Y144640
X45850Y142240
Y143590
Y144440
X43650Y142440
Y143390
Y144640
X41350Y142240
Y143590
Y144440
X39150Y142440
Y143390
Y144640
X36850Y142240
Y143590
Y144440
X34650Y142440
Y143390
Y144640
X32350Y142240
Y143590
Y144440
X30150Y142440
Y143390
Y144640
X27850Y142240
Y143590
Y144440
X25650Y142440
Y143390
Y144640
X23350Y142240
Y143590
Y144440
X21150Y142440
Y143390
Y144640
X18850Y142240
Y143590
Y144440
X16650Y142440
Y143390
Y144640
X14350Y142240
Y143590
Y144440
X12150Y142440
Y143390
Y144640
X9850Y142240
Y143590
Y144440
X7650Y142440
Y143390
Y144640
X5350Y142240
Y143590
Y144440
X3718Y143639
X5350Y145840
Y146740
X7650Y145640
Y146940
X9850Y145840
Y146740
X12150Y145640
Y146940
X14350Y145840
Y146740
X16650Y145640
Y146940
X18850Y145840
Y146740
X21150Y145640
Y146940
X23350Y145840
Y146740
X25650Y145640
Y146940
X27850Y145840
Y146740
X30150Y145640
Y146940
X32350Y145840
Y146740
X34650Y145640
Y146940
X36850Y145840
Y146740
X39150Y145640
Y146940
X41350Y145840
Y146740
X43650Y145640
Y146940
X45850Y145840
Y146740
X48150Y145640
Y146940
X50350Y145840
Y146740
X52650Y145640
Y146940
X54850Y145840
Y146740
X57150Y145640
Y146940
X59350Y145840
Y146740
X61650Y145640
Y146940
X63850Y145840
Y146740
X66150Y145640
Y146940
X68350Y145840
Y146740
X70650Y145640
Y146940
X72850Y145840
Y146740
X75150Y145640
Y146940
X77350Y145840
Y146740
X79650Y145640
Y146940
X81850Y145840
Y146740
X84150Y145640
Y146940
X86350Y145840
Y146740
X88650Y145640
Y146940
X90850Y145840
Y146740
X93150Y145640
Y146940
X95350Y145840
Y146740
X97650Y145640
Y146940
X99850Y145840
Y146740
X102150Y145640
Y146940
X104350Y145840
Y146740
X106650Y145640
Y146940
X108850Y145840
Y146740
X111150Y145640
Y146940
X113350Y145840
Y146740
X115650Y145640
Y146940
X117850Y145840
Y146740
X120150Y145640
Y146940
X122350Y145840
Y146740
X124650Y145640
Y146940
X126850Y145840
Y146740
X129150Y145640
Y146940
X131350Y145840
Y146740
X133650Y145640
Y146940
X135850Y145840
Y146740
X138150Y145640
Y146940
X140350Y145840
Y146740
X142650Y145640
Y146940
X144850Y145840
Y146740
X147150Y145640
Y146940
X149350Y145840
Y146740
X151650Y145640
Y146940
X153850Y145840
Y146740
X156150Y145640
Y146940
X158350Y145840
Y146740
X160650Y145640
Y146940
X162850Y145840
Y146740
X165150Y145640
Y146940
X167350Y145840
Y146740
X169650Y145640
Y146940
X171850Y145840
Y146740
X174150Y145640
Y146940
X176350Y145840
Y146740
X178650Y145640
Y146940
X180850Y145840
Y146740
X183150Y145640
Y146940
X186463Y146718
X183150Y147890
Y149190
X180850Y148090
Y148990
X178650Y147890
Y149190
X176350Y148090
Y148990
X174150Y147890
Y149190
X171850Y148090
Y148990
X169650Y147890
Y149190
X167350Y148090
Y148990
X165150Y147890
Y149190
X162850Y148090
Y148990
X160650Y147890
Y149190
X158350Y148090
Y148990
X156150Y147890
Y149190
X153850Y148090
Y148990
X151650Y147890
Y149190
X149350Y148090
Y148990
X147150Y147890
Y149190
X144850Y148090
Y148990
X142650Y147890
Y149190
X140350Y148090
Y148990
X138150Y147890
Y149190
X135850Y148090
Y148990
X133650Y147890
Y149190
X131350Y148090
Y148990
X129150Y147890
Y149190
X126850Y148090
Y148990
X124650Y147890
Y149190
X122350Y148090
Y148990
X120150Y147890
Y149190
X117850Y148090
Y148990
X115650Y147890
Y149190
X113350Y148090
Y148990
X111150Y147890
Y149190
X108850Y148090
Y148990
X106650Y147890
Y149190
X104350Y148090
Y148990
X102150Y147890
Y149190
X99850Y148090
Y148990
X97650Y147890
Y149190
X95350Y148090
Y148990
X93150Y147890
Y149190
X90850Y148090
Y148990
X88650Y147890
Y149190
X86350Y148090
Y148990
X84150Y147890
Y149190
X81850Y148090
Y148990
X79650Y147890
Y149190
X77350Y148090
Y148990
X75150Y147890
Y149190
X72850Y148090
Y148990
X70650Y147890
Y149190
X68350Y148090
Y148990
X66150Y147890
Y149190
X63850Y148090
Y148990
X61650Y147890
Y149190
X59350Y148090
Y148990
X57150Y147890
Y149190
X54850Y148090
Y148990
X52650Y147890
Y149190
X50350Y148090
Y148990
X48150Y147890
Y149190
X45850Y148090
Y148990
X43650Y147890
Y149190
X41350Y148090
Y148990
X39150Y147890
Y149190
X36850Y148090
Y148990
X34650Y147890
Y149190
X32350Y148090
Y148990
X30150Y147890
Y149190
X27850Y148090
Y148990
X25650Y147890
Y149190
X23350Y148090
Y148990
X21150Y147890
Y149190
X18850Y148090
Y148990
X16650Y147890
Y149190
X14350Y148090
Y148990
X12150Y147890
Y149190
X9850Y148090
Y148990
X7650Y147890
Y149190
X5350Y148090
Y148990
X3753Y147550
X5350Y150340
Y151190
X7650Y150140
Y151390
Y152390
X9850Y150340
Y151190
X12150Y150140
Y151390
Y152390
X14350Y150340
Y151190
X16650Y150140
Y151390
Y152390
X18850Y150340
Y151190
X21150Y150140
Y151390
Y152390
X23350Y150340
Y151190
X25650Y150140
Y151390
Y152390
X27850Y150340
Y151190
X30150Y150140
Y151390
Y152390
X32350Y150340
Y151190
X34650Y150140
Y151390
Y152390
X36850Y150340
Y151190
X39150Y150140
Y151390
Y152390
X41350Y150340
Y151190
X43650Y150140
Y151390
Y152390
X45850Y150340
Y151190
X48150Y150140
Y151390
Y152390
X50350Y150340
Y151190
X52650Y150140
Y151390
Y152390
X54850Y150340
Y151190
X57150Y150140
Y151390
Y152390
X59350Y150340
Y151190
X61650Y150140
Y151390
Y152390
X63850Y150340
Y151190
X66150Y150140
Y151390
Y152390
X68350Y150340
Y151190
X70650Y150140
Y151390
Y152390
X72850Y150340
Y151190
X75150Y150140
Y151390
Y152390
X77350Y150340
Y151190
X79650Y150140
Y151390
Y152390
X81850Y150340
Y151190
X84150Y150140
Y151390
Y152390
X86350Y150340
Y151190
X88650Y150140
Y151390
Y152390
X90850Y150340
Y151190
X93150Y150140
Y151390
Y152390
X95350Y150340
Y151190
X97650Y150140
Y151390
Y152390
X99850Y150340
Y151190
X102150Y150140
Y151390
Y152390
X104350Y150340
Y151190
X106650Y150140
Y151390
Y152390
X108850Y150340
Y151190
X111150Y150140
Y151390
Y152390
X113350Y150340
Y151190
X115650Y150140
Y151390
Y152390
X117850Y150340
Y151190
X120150Y150140
Y151390
Y152390
X122350Y150340
Y151190
X124650Y150140
Y151390
Y152390
X126850Y150340
Y151190
X129150Y150140
Y151390
Y152390
X131350Y150340
Y151190
X133650Y150140
Y151390
Y152390
X135850Y150340
Y151190
X138150Y150140
Y151390
Y152390
X140350Y150340
Y151190
X142650Y150140
Y151390
Y152390
X144850Y150340
Y151190
X147150Y150140
Y151390
Y152390
X149350Y150340
Y151190
X151650Y150140
Y151390
Y152390
X153850Y150340
Y151190
X156150Y150140
Y151390
Y152390
X158350Y150340
Y151190
X160650Y150140
Y151390
Y152390
X162850Y150340
Y151190
X165150Y150140
Y151390
Y152390
X167350Y150340
Y151190
X169650Y150140
Y151390
Y152390
X171850Y150340
Y151190
X174150Y150140
Y151390
Y152390
X176350Y150340
Y151190
X178650Y150140
Y151390
Y152390
X180850Y150340
Y151190
X183150Y150140
Y151390
Y152390
X186524Y151614
X183150Y153690
Y154640
X180850Y152590
Y153490
Y154840
X178650Y153690
Y154640
X176350Y152590
Y153490
Y154840
X174150Y153690
Y154640
X171850Y152590
Y153490
Y154840
X169650Y153690
Y154640
X167350Y152590
Y153490
Y154840
X165150Y153690
Y154640
X162850Y152590
Y153490
Y154840
X160650Y153690
Y154640
X158350Y152590
Y153490
Y154840
X156150Y153690
Y154640
X153850Y152590
Y153490
Y154840
X151650Y153690
Y154640
X149350Y152590
Y153490
Y154840
X147150Y153690
Y154640
X144850Y152590
Y153490
Y154840
X142650Y153690
Y154640
X140350Y152590
Y153490
Y154840
X138150Y153690
Y154640
X135850Y152590
Y153490
Y154840
X133650Y153690
Y154640
X131350Y152590
Y153490
Y154840
X129150Y153690
Y154640
X126850Y152590
Y153490
Y154840
X124650Y153690
Y154640
X122350Y152590
Y153490
Y154840
X120150Y153690
Y154640
X117850Y152590
Y153490
Y154840
X115650Y153690
Y154640
X113350Y152590
Y153490
Y154840
X111150Y153690
Y154640
X108850Y152590
Y153490
Y154840
X106650Y153690
Y154640
X104350Y152590
Y153490
Y154840
X102150Y153690
Y154640
X99850Y152590
Y153490
Y154840
X97650Y153690
Y154640
X95350Y152590
Y153490
Y154840
X93150Y153690
Y154640
X90850Y152590
Y153490
Y154840
X88650Y153690
Y154640
X86350Y152590
Y153490
Y154840
X84150Y153690
Y154640
X81850Y152590
Y153490
Y154840
X79650Y153690
Y154640
X77350Y152590
Y153490
Y154840
X75150Y153690
Y154640
X72850Y152590
Y153490
Y154840
X70650Y153690
Y154640
X68350Y152590
Y153490
Y154840
X66150Y153690
Y154640
X63850Y152590
Y153490
Y154840
X61650Y153690
Y154640
X59350Y152590
Y153490
Y154840
X57150Y153690
Y154640
X54850Y152590
Y153490
Y154840
X52650Y153690
Y154640
X50350Y152590
Y153490
Y154840
X48150Y153690
Y154640
X45850Y152590
Y153490
Y154840
X43650Y153690
Y154640
X41350Y152590
Y153490
Y154840
X39150Y153690
Y154640
X36850Y152590
Y153490
Y154840
X34650Y153690
Y154640
X32350Y152590
Y153490
Y154840
X30150Y153690
Y154640
X27850Y152590
Y153490
Y154840
X25650Y153690
Y154640
X23350Y152590
Y153490
Y154840
X21150Y153690
Y154640
X18850Y152590
Y153490
Y154840
X16650Y153690
Y154640
X14350Y152590
Y153490
Y154840
X12150Y153690
Y154640
X9850Y152590
Y153490
Y154840
X7650Y153690
Y154640
X5350Y152590
Y153490
Y154840
X1383Y155594
X5350Y155740
Y156840
X7650Y155940
Y156840
X9800
X9850Y155740
X12150Y155940
Y156840
X14300
X14350Y155740
X16650Y155940
Y156840
X18850Y155740
Y156840
X21150Y155940
Y156840
X23350Y155740
Y156840
X25650Y155940
Y156840
X27850Y155740
Y156840
X30150Y155940
Y156840
X32300
X32350Y155740
X34650Y155940
Y156840
X36850Y155740
Y156840
X39150Y155940
Y156840
X41350Y155740
Y156840
X43650Y155940
Y156840
X45800
X45850Y155740
X48150Y155940
Y156840
X50300
X50350Y155740
X52650Y155940
Y156840
X54850Y155740
Y156840
X57150Y155940
Y156840
X59350Y155740
Y156840
X61650Y155940
Y156840
X63850Y155740
Y156840
X66150Y155940
Y156840
X68300
X68350Y155740
X70650Y155940
Y156840
X72850Y155740
Y156840
X75150Y155940
Y156889
X77350Y155740
Y156840
X79650Y155940
Y156840
X81800
X81850Y155740
X84150Y155940
Y156840
X86300
X86350Y155740
X88650Y155940
Y156840
X90850Y155740
Y156840
X93150Y155940
Y156840
X95350Y155740
Y156840
X97650Y155940
Y156840
X99850Y155740
Y156840
X102150Y155940
Y156840
X104300
X104350Y155740
X106650Y155940
Y156840
X108850Y155740
Y156840
X111150Y155940
Y156874
X113350Y155740
Y156840
X115650Y155940
Y156840
X117800
X117850Y155740
X120150Y155940
Y156840
X122300
X122350Y155740
X124650Y155940
Y156840
X126850Y155740
Y156840
X129150Y155940
Y156840
X131350Y155740
Y156840
X133650Y155940
Y156840
X135850Y155740
Y156840
X138150Y155940
Y156840
X140300
X140350Y155740
X142650Y155940
Y156840
X144850Y155740
Y156840
X147150Y155940
X147300Y156840
X149350Y155740
Y156840
X151650Y155940
Y156840
X153800
X153850Y155740
X156150Y155940
Y156840
X158300
X158350Y155740
X160650Y155940
Y156840
X162850Y155740
Y156840
X165150Y155940
Y156840
X167350Y155740
Y156840
X169650Y155940
Y156840
X171850Y155740
Y156840
X174150Y155940
Y156840
X176300
X176350Y155740
X178650Y155940
Y156840
X180850Y155740
Y156840
X183150Y155940
X186403Y155603
X186463Y159291
X183150Y158590
Y159440
X180850Y157740
Y158590
Y159440
X178650Y157740
Y158590
Y159440
X176300Y157740
Y158590
Y159440
X174150Y157740
Y158590
Y159440
X171850Y157740
Y158590
Y159440
X169650Y157740
Y158590
Y159440
X167350Y157740
Y158590
Y159440
X165150Y157740
Y158590
Y159440
X163961Y159251
X162850Y157740
Y158590
Y159440
X160650Y157740
Y158590
Y159440
X158300Y157740
Y158590
Y159440
X156150Y157740
Y158590
Y159440
X154955Y160014
X153800Y157740
Y158590
Y159440
X151650Y157740
Y158590
Y159440
X149350Y157740
Y158590
Y159440
X147300Y157740
X147150Y158590
Y159440
X144850Y157740
Y158590
Y159440
X142650Y157740
Y158590
Y159440
X140300Y157740
Y158590
Y159440
X138150Y157740
Y158590
Y159440
X135850Y157740
Y158590
Y159440
X133650Y157740
Y158590
Y159440
X131350Y157740
Y158590
Y159440
X129150Y157740
Y158590
Y159440
X128013Y159263
X126850Y157740
Y158590
Y159440
X124650Y157740
Y158590
Y159440
X122300Y157740
Y158590
Y159440
X120150Y157740
Y158590
Y159440
X118948Y159940
X117800Y157740
Y158590
Y159440
X115650Y157740
Y158590
Y159440
X113350Y157740
Y158590
Y159440
X111150Y157740
Y158590
Y159440
X108850Y157740
Y158590
Y159440
X106650Y157740
Y158590
Y159440
X104300Y157740
Y158590
Y159440
X102150Y157740
Y158590
Y159440
X99850Y157740
Y158590
Y159440
X97650Y157740
Y158590
Y159440
X96416Y159566
X95350Y157740
Y158590
Y159440
X93150Y157740
Y158590
Y159440
X91986Y159240
X90850Y157740
Y158590
Y159440
X88650Y157740
Y158590
Y159440
X87536Y159072
X86300Y157740
Y158590
Y159440
X84150Y157740
Y158590
Y159440
X82998Y159384
X81800Y157740
Y158590
Y159440
X79650Y157740
Y158590
Y159440
X77350Y157740
Y158590
Y159440
X75150Y157740
Y158590
Y159440
X72850Y157740
Y158590
Y159440
X70650Y157740
Y158590
Y159440
X68300Y157740
Y158590
Y159440
X66150Y157740
Y158590
Y159440
X63850Y157740
Y158590
Y159440
X61650Y157740
Y158590
Y159440
X59350Y157740
Y158590
Y159440
X57150Y157740
Y158590
Y159440
X54850Y157740
Y158590
Y159440
X52650Y157740
Y158590
Y159440
X50300Y157740
Y158590
Y159440
X48150Y157740
Y158590
Y159440
X47082Y159895
X45800Y157740
Y158590
Y159440
X43650Y157740
Y158590
Y159440
X41350Y157740
Y158590
Y159440
X39150Y157740
Y158590
Y159440
X36850Y157740
Y158590
Y159440
X34650Y157740
Y158590
Y159440
X32300Y157740
Y158590
Y159440
X30150Y157740
Y158590
Y159440
X27850Y157740
Y158590
Y159440
X25650Y157740
Y158590
Y159440
X24476Y159422
X23350Y157740
Y158590
Y159440
X21150Y157740
Y158590
Y159440
X20003Y159310
X18850Y157740
Y158590
Y159440
X16650Y157740
Y158590
Y159440
X14300Y157740
Y158590
Y159440
X12150Y157740
Y158590
Y159440
X11057Y159907
X9800Y157740
Y158590
Y159440
X7650Y157740
Y158590
Y159440
X5350Y157740
Y158590
Y159440
X5564Y161350
X6596Y161854
X12520Y162490
X14040Y162480
X15500
X17010
X30391Y161391
X31287Y161185
X32790Y161411
X34140Y161007
X35179Y161886
X36704Y161497
X36880Y162469
X37612Y161775
X38460Y161708
X48520Y162490
X50040Y162480
X51500
X53010
X66409Y161390
X67582Y160835
X68551Y161775
X69901Y161940
X71251Y161556
X72604Y161375
X73437Y161187
X74951Y161703
X84520Y162490
X86040Y162480
X87500
X89010
X102381Y161390
X103358Y160990
X103630Y162490
X105110
X106620
X108140
X108510Y161340
X109170Y162030
X109980Y161630
X120520Y162490
X122040Y162480
X123500
X125010
X138250Y161390
X139377Y160992
X139630Y162490
X141110
X142620
X144140
X144510Y161340
X145170Y162030
X145980Y161630
X149774Y162434
X156520Y162490
X158040Y162480
X159500
X161010
X174209Y161390
X175352Y160996
X175630Y162490
X177110
X178620
X180140
X180510Y161340
X181170Y162030
X181980Y161630
X186524Y162736
X179490Y164970
X177990
X176490
X174990
X173380Y163510
X172458Y163940
X172430Y164790
Y163090
X162560Y163420
X160460Y165090
X158960
X157460
X155960
X153370Y164300
X149955Y165033
X143520Y164990
X142020
X140520
X139020
X137380Y163510
X136481Y163090
X136468Y163940
X136430Y164790
X126560Y163420
X124400Y165050
X122900
X121400
X119900
X117370Y164300
X113759Y162575
X107490Y165030
X105990
X104490
X102990
X101380Y163510
X100511Y163079
X100434Y163940
X100430Y164790
X90560Y163420
X88490Y165000
X86990
X85490
X83990
X81370Y164300
X74847Y162675
X71620Y165080
X70120
X68620
X67120
X65375Y163432
X64550Y163015
X64475Y163968
X64430Y165014
X54560Y163420
X52520Y165080
X51020
X49520
X48020
X45370Y164300
X35580Y165050
X34080
X32580
X31080
X29375Y163498
X28483Y162966
X28430Y165012
X28428Y164162
X18560Y163420
X9370Y164300
X5097Y162832
X3029Y164712
X1418Y162832
X5016Y165706
X9370Y166140
Y167630
X12070Y165130
Y166630
X13570Y165130
Y166630
X15070Y165130
Y166630
X16570Y165130
Y166630
X19180Y166120
Y167630
X28452Y165862
X28470Y167212
X31080Y166550
X32580
X34080
X35580
X38280Y165620
Y167140
X45258Y167440
X45268Y165950
X48020Y166580
X49520
X51020
X52520
X55180Y166120
Y167630
X64440Y165864
X64470Y167214
X67120Y166580
X68620
X70120
X71620
X74280Y165620
Y167140
X81370Y166140
Y167630
X83990Y166500
X85490
X86990
X88490
X91180Y166120
Y167630
X100430Y165640
X100470Y167130
X102990Y166530
X104490
X105990
X107490
X110280Y165620
Y167140
X113638Y166524
X117370Y166140
Y167630
X119900Y166550
X121400
X122900
X124400
X127180Y166120
Y167630
X136430Y165640
X136470Y167130
X139020Y166490
X140520
X142020
X143520
X146280Y165620
Y167140
X153370Y166140
Y167630
X155960Y166590
X157460
X158960
X160460
X163180Y166120
Y167630
X172430Y165640
X172470Y167130
X174990Y166470
X176490
X177990
X179490
X182280Y165620
Y167140
X186524Y165939
X184710Y168780
X182280Y168650
Y170140
X179490Y167970
Y169470
X177990Y167970
Y169470
X176490Y167970
Y169470
X174990Y167970
Y169470
X172460Y168660
Y170150
X164379Y169005
X163180Y169140
X160460Y168090
Y169590
X158960Y168090
Y169590
X157460Y168090
Y169590
X155960Y168090
Y169590
X153370Y169140
X149653Y168055
X147779Y170050
X146280Y168650
Y170140
X143520Y167990
Y169490
X142020Y167990
Y169490
X140520Y167990
Y169490
X139020Y167990
Y169490
X136460Y168660
Y170150
X127460Y170020
X127180Y169140
X124400Y168050
Y169550
X122900Y168050
Y169550
X121400Y168050
Y169550
X119900Y168050
Y169550
X117370Y169140
X112470Y169707
X110280Y168650
Y170140
X107490Y168030
Y169530
X105990Y168030
Y169530
X104490Y168030
Y169530
X102990Y168030
Y169530
X100460Y168660
Y170150
X92306Y169868
X91180Y169140
X88490Y168000
Y169500
X86990Y168000
Y169500
X85490Y168000
Y169500
X83990Y168000
Y169500
X81370Y169140
X78312Y170070
X77829Y167840
X76244Y169532
X74280Y168650
Y170140
X71620Y168080
Y169580
X70120Y168080
Y169580
X68620Y168080
Y169580
X67120Y168080
Y169580
X64460Y168660
Y170150
X56402Y168318
X55460Y170020
X55180Y169140
X52520Y168080
Y169580
X51020Y168080
Y169580
X49520Y168080
Y169580
X48020Y168080
Y169580
X45370Y168950
X41800Y168085
X40189Y170019
X38280Y168650
Y170140
X35580Y168050
Y169550
X34080Y168050
Y169550
X32580Y168050
Y169550
X31080Y168050
Y169550
X28460Y168660
Y170150
X19507Y170055
X19180Y169140
X16570Y168130
Y169630
X15070Y168130
Y169630
X13570Y168130
Y169630
X12070Y168130
Y169630
X9370Y169140
X5177Y168794
X2948Y167747
X2546Y171587
X7863Y171318
X9040Y170640
X11520Y172290
X13050
X14550
X16050
X17550
X18499Y171291
X20544Y171091
X21220Y170467
X24572Y172530
X30600Y172300
X32130Y172290
X33650Y172300
X35150Y172290
X45040Y170640
X47520Y172290
X49050
X50550
X52050
X53550
X54280Y171630
X55010Y171140
X66600Y172300
X68130Y172290
X69650Y172300
X71150Y172290
X81040Y170640
X83520Y172290
X85050
X86550
X88050
X89550
X90280Y171630
X91010Y171140
X91735Y172319
X96553Y172044
X102600Y172300
X104130Y172290
X105650Y172300
X107150Y172290
X117040Y170640
X119520Y172290
X121050
X122550
X124050
X125550
X126280Y171630
X127010Y171140
X127032Y172363
X131872Y171420
X138600Y172300
X140130Y172290
X141650Y172300
X143150Y172290
X153040Y170640
X155520Y172290
X157050
X158550
X160050
X161712
X162329Y171485
X163437Y170643
X163649Y172037
X168028Y171682
X174600Y172300
X176130Y172290
X177650Y172300
X179150Y172290
X183320Y170533
X171775Y175187
X169720Y173918
X166577Y174402
X154488Y174946
X153670Y173180
X151527Y173797
X144515Y173676
X143367Y175066
X134109Y173596
X130361Y174563
X119481
X117670Y173180
X115613Y173475
X108803Y173374
X107070Y175147
X98729Y174502
X95102Y173938
X83040Y174449
X81670Y173180
X79252Y172783
X71892Y174287
X62946Y175120
X61173Y173052
X59391Y172953
X57063Y174977
X49171Y174975
X45670Y173180
X36483Y173362
X35476Y174853
X27150Y174839
X22692Y174705
X9670Y173180
X6332Y172768
X12971Y175483
X17429Y175564
X52979Y175639
X66196Y175550
X69823Y175657
X88292Y175631
X92040Y175590
X102396Y175671
X123773Y175892
X127158Y175711
X136839Y175852
X139619Y175792
X158538Y175610
X161983Y175731
X165247Y175610
X174918Y175731
X178726Y175429
X190630Y178840
X188130
X185630
X183130
X180630
X178130
X172780Y178740
X170280
X167780
X165280
X162780
X160280
X154450Y178550
X151950
X149450
X146950
X144450
X141950
X136500Y178740
X134000
X131500
X129000
X126500
X124000
X118260Y178550
X115760
X113260
X110760
X108260
X105760
X103080Y178740
X100580
X98080
X95580
X93080
X90580
X87520Y178460
X85020
X82520
X80020
X77520
X75020
X69250Y178360
X66750
X64250
X61750
X59250
X56750
X51430Y178490
X48930
X46430
X43930
X41430
X38930
X33160Y178300
X30660
X28160
X25660
X23160
X20660
X15080Y178130
X12580
X10080
X7580
X5080
X2580
Y180630
X5080
X12580
X15080
X20660Y180800
X23160
X33160
X38930Y180990
X48930
X51430
X56750Y180860
X69250
X75020Y180960
X85020
X87520
X90580Y181240
X103080
X105760Y181050
X118260
X124000Y181240
X136500
X141950Y181050
X154450
X160280Y181240
X170280
X172780
X178130Y181340
X190630
Y183840
X178130
X172780Y183740
X160280
X154450Y183550
X141950
X136500Y183740
X124000
X118260Y183550
X105760
X103080Y183740
X90580
X87520Y183460
X75020
X69250Y183360
X56750
X51430Y183490
X38930
X33160Y183300
X20660
X15080Y183130
X2580
Y185630
X15080
X20660Y185800
X33160
X38930Y185990
X51430
X56750Y185860
X69250
X75020Y185960
X87520
X90580Y186240
X100580
X103080
X105760Y186050
X118260
X124000Y186240
X134000
X136500
X141950Y186050
X151950
X154450
X160280Y186240
X170280
X172780
X178130Y186340
X188130
X190630
Y188840
X188130
X185630
X183130
X180630
X178130
X172780Y188740
X170280
X167780
X165280
X162780
X160280
X154450Y188550
X151950
X149450
X146950
X144450
X141950
X136500Y188740
X134000
X131500
X129000
X126500
X124000
X118260Y188550
X115760
X113260
X110760
X108260
X105760
X103080Y188740
X100580
X98080
X95580
X93080
X90580
X87520Y188460
X85020
X82520
X80020
X77520
X75020
X69250Y188360
X66750
X64250
X61750
X59250
X56750
X51430Y188490
X48930
X46430
X43930
X41430
X38930
X33160Y188300
X30660
X28160
X25660
X23160
X20660
X15080Y188130
X12580
X10080
X7580
X5080
X2580
T01
X46726Y25131
X88469Y25166
X124951Y25345
X159976Y25094
X161657Y24509
X123248Y26753
X86908Y26640
X45379Y26379
X9768
X6594Y26492
X39291Y171642
X43969
X75159
X77646
X111532
X113654
X147444Y171768
X149826Y171735
X183239Y173740
X180684Y173713
X149826Y173250
X147444Y173284
X113793Y173764
X111557
X77684Y173875
X75090
X43034Y173550
X39269
X10976Y173806
X7956Y173824
T03
X184000Y6000
X168000
X25000Y6094
X9000Y6109
X184000Y183540
X166000
X148000
X130000
X112000
X96500
X81000
X63000
X45000
X27000
X9000
T00
M30
