%
M48
M72
T01C0.0138
T02C0.0400
%
T01
X9155Y8269
X9549Y8860
X10041Y10533
X11222Y10533
X11222Y12305
X10041Y12305
X10041Y14076
X11222Y14076
X11222Y15848
X10041Y15848
X10041Y17620
X11222Y17620
X11222Y19391
X10041Y19391
X10041Y21163
X11222Y21163
X14962Y20474
X14962Y22246
X14962Y24017
X14962Y18506
X14864Y16931
X14864Y15061
X14864Y13289
X14962Y11517
T02
X6990Y4120
X8269Y4120
X8269Y5120
X8269Y6120
X6990Y6120
X6990Y5120
X9549Y5120
X9549Y6120
X10828Y6120
X10828Y5120
X12108Y5120
X12108Y6120
X13387Y6120
X13387Y5120
X13387Y4120
X12108Y4120
X10828Y4120
X9549Y4120
X14667Y4120
X15946Y4120
X17226Y4120
X18506Y4120
X18506Y5120
X18506Y6120
X17226Y6120
X17226Y5120
X15946Y5120
X15946Y6120
X14667Y6120
X14667Y5120
X19785Y5120
X19785Y6120
X21065Y6120
X21065Y5120
X22344Y5120
X22344Y6120
X23624Y6120
X23624Y5120
X24903Y5120
X24903Y6120
X26183Y6120
X26183Y5120
X26183Y4120
X24903Y4120
X23624Y4120
X22344Y4120
X21065Y4120
X19785Y4120
X19679Y25887
X18679Y25887
X17679Y25887
X16679Y25887
X14679Y25891
X13679Y25891
X20679Y25887
X21679Y25887
X22679Y25887
X23679Y25887
M30
