G75*
%MOIN*%
%OFA0B0*%
%FSLAX25Y25*%
%IPPOS*%
%LPD*%
%AMOC8*
5,1,8,0,0,1.08239X$1,22.5*
%
%ADD10C,0.00000*%
%ADD11C,0.00600*%
%ADD12C,0.00500*%
%ADD13C,0.00300*%
%ADD14C,0.00200*%
%ADD15C,0.00400*%
D10*
X0001000Y0001000D02*
X0001000Y0315961D01*
X0394701Y0315961D01*
X0394701Y0001000D01*
X0001000Y0001000D01*
D11*
X0064898Y0038697D02*
X0064898Y0043697D01*
X0067398Y0046197D01*
X0064898Y0048697D01*
X0064898Y0053697D01*
X0067398Y0056197D01*
X0064898Y0058697D01*
X0064898Y0063697D01*
X0067398Y0066197D01*
X0072398Y0066197D01*
X0074898Y0063697D01*
X0074898Y0058697D01*
X0072398Y0056197D01*
X0074898Y0053697D01*
X0074898Y0048697D01*
X0072398Y0046197D01*
X0074898Y0043697D01*
X0074898Y0038697D01*
X0072398Y0036197D01*
X0067398Y0036197D01*
X0064898Y0038697D01*
X0067398Y0046197D02*
X0072398Y0046197D01*
X0077693Y0048697D02*
X0077693Y0053697D01*
X0080193Y0056197D01*
X0077693Y0058697D01*
X0077693Y0063697D01*
X0080193Y0066197D01*
X0085193Y0066197D01*
X0087693Y0063697D01*
X0087693Y0058697D01*
X0085193Y0056197D01*
X0087693Y0053697D01*
X0087693Y0048697D01*
X0085193Y0046197D01*
X0087693Y0043697D01*
X0087693Y0038697D01*
X0085193Y0036197D01*
X0080193Y0036197D01*
X0077693Y0038697D01*
X0077693Y0043697D01*
X0080193Y0046197D01*
X0077693Y0048697D01*
X0080193Y0046197D02*
X0085193Y0046197D01*
X0090488Y0048697D02*
X0090488Y0053697D01*
X0092988Y0056197D01*
X0090488Y0058697D01*
X0090488Y0063697D01*
X0092988Y0066197D01*
X0097988Y0066197D01*
X0100488Y0063697D01*
X0100488Y0058697D01*
X0097988Y0056197D01*
X0100488Y0053697D01*
X0100488Y0048697D01*
X0097988Y0046197D01*
X0100488Y0043697D01*
X0100488Y0038697D01*
X0097988Y0036197D01*
X0092988Y0036197D01*
X0090488Y0038697D01*
X0090488Y0043697D01*
X0092988Y0046197D01*
X0090488Y0048697D01*
X0092988Y0046197D02*
X0097988Y0046197D01*
X0103283Y0048697D02*
X0103283Y0053697D01*
X0105783Y0056197D01*
X0103283Y0058697D01*
X0103283Y0063697D01*
X0105783Y0066197D01*
X0110783Y0066197D01*
X0113283Y0063697D01*
X0113283Y0058697D01*
X0110783Y0056197D01*
X0113283Y0053697D01*
X0113283Y0048697D01*
X0110783Y0046197D01*
X0113283Y0043697D01*
X0113283Y0038697D01*
X0110783Y0036197D01*
X0105783Y0036197D01*
X0103283Y0038697D01*
X0103283Y0043697D01*
X0105783Y0046197D01*
X0103283Y0048697D01*
X0105783Y0046197D02*
X0110783Y0046197D01*
X0116079Y0048697D02*
X0116079Y0053697D01*
X0118579Y0056197D01*
X0116079Y0058697D01*
X0116079Y0063697D01*
X0118579Y0066197D01*
X0123579Y0066197D01*
X0126079Y0063697D01*
X0126079Y0058697D01*
X0123579Y0056197D01*
X0126079Y0053697D01*
X0126079Y0048697D01*
X0123579Y0046197D01*
X0126079Y0043697D01*
X0126079Y0038697D01*
X0123579Y0036197D01*
X0118579Y0036197D01*
X0116079Y0038697D01*
X0116079Y0043697D01*
X0118579Y0046197D01*
X0116079Y0048697D01*
X0118579Y0046197D02*
X0123579Y0046197D01*
X0128874Y0048697D02*
X0128874Y0053697D01*
X0131374Y0056197D01*
X0128874Y0058697D01*
X0128874Y0063697D01*
X0131374Y0066197D01*
X0136374Y0066197D01*
X0138874Y0063697D01*
X0138874Y0058697D01*
X0136374Y0056197D01*
X0138874Y0053697D01*
X0138874Y0048697D01*
X0136374Y0046197D01*
X0138874Y0043697D01*
X0138874Y0038697D01*
X0136374Y0036197D01*
X0131374Y0036197D01*
X0128874Y0038697D01*
X0128874Y0043697D01*
X0131374Y0046197D01*
X0128874Y0048697D01*
X0131374Y0046197D02*
X0136374Y0046197D01*
X0141669Y0048697D02*
X0141669Y0053697D01*
X0144169Y0056197D01*
X0141669Y0058697D01*
X0141669Y0063697D01*
X0144169Y0066197D01*
X0149169Y0066197D01*
X0151669Y0063697D01*
X0151669Y0058697D01*
X0149169Y0056197D01*
X0151669Y0053697D01*
X0151669Y0048697D01*
X0149169Y0046197D01*
X0151669Y0043697D01*
X0151669Y0038697D01*
X0149169Y0036197D01*
X0144169Y0036197D01*
X0141669Y0038697D01*
X0141669Y0043697D01*
X0144169Y0046197D01*
X0141669Y0048697D01*
X0144169Y0046197D02*
X0149169Y0046197D01*
X0154465Y0048697D02*
X0154465Y0053697D01*
X0156965Y0056197D01*
X0154465Y0058697D01*
X0154465Y0063697D01*
X0156965Y0066197D01*
X0161965Y0066197D01*
X0164465Y0063697D01*
X0164465Y0058697D01*
X0161965Y0056197D01*
X0164465Y0053697D01*
X0164465Y0048697D01*
X0161965Y0046197D01*
X0164465Y0043697D01*
X0164465Y0038697D01*
X0161965Y0036197D01*
X0156965Y0036197D01*
X0154465Y0038697D01*
X0154465Y0043697D01*
X0156965Y0046197D01*
X0154465Y0048697D01*
X0156965Y0046197D02*
X0161965Y0046197D01*
X0167260Y0048697D02*
X0167260Y0053697D01*
X0169760Y0056197D01*
X0167260Y0058697D01*
X0167260Y0063697D01*
X0169760Y0066197D01*
X0174760Y0066197D01*
X0177260Y0063697D01*
X0177260Y0058697D01*
X0174760Y0056197D01*
X0177260Y0053697D01*
X0177260Y0048697D01*
X0174760Y0046197D01*
X0177260Y0043697D01*
X0177260Y0038697D01*
X0174760Y0036197D01*
X0169760Y0036197D01*
X0167260Y0038697D01*
X0167260Y0043697D01*
X0169760Y0046197D01*
X0167260Y0048697D01*
X0169760Y0046197D02*
X0174760Y0046197D01*
X0180055Y0048697D02*
X0180055Y0053697D01*
X0182555Y0056197D01*
X0180055Y0058697D01*
X0180055Y0063697D01*
X0182555Y0066197D01*
X0187555Y0066197D01*
X0190055Y0063697D01*
X0190055Y0058697D01*
X0187555Y0056197D01*
X0190055Y0053697D01*
X0190055Y0048697D01*
X0187555Y0046197D01*
X0190055Y0043697D01*
X0190055Y0038697D01*
X0187555Y0036197D01*
X0182555Y0036197D01*
X0180055Y0038697D01*
X0180055Y0043697D01*
X0182555Y0046197D01*
X0180055Y0048697D01*
X0182555Y0046197D02*
X0187555Y0046197D01*
X0192850Y0048697D02*
X0192850Y0053697D01*
X0195350Y0056197D01*
X0192850Y0058697D01*
X0192850Y0063697D01*
X0195350Y0066197D01*
X0200350Y0066197D01*
X0202850Y0063697D01*
X0202850Y0058697D01*
X0200350Y0056197D01*
X0202850Y0053697D01*
X0202850Y0048697D01*
X0200350Y0046197D01*
X0202850Y0043697D01*
X0202850Y0038697D01*
X0200350Y0036197D01*
X0195350Y0036197D01*
X0192850Y0038697D01*
X0192850Y0043697D01*
X0195350Y0046197D01*
X0192850Y0048697D01*
X0195350Y0046197D02*
X0200350Y0046197D01*
X0205646Y0048697D02*
X0205646Y0053697D01*
X0208146Y0056197D01*
X0205646Y0058697D01*
X0205646Y0063697D01*
X0208146Y0066197D01*
X0213146Y0066197D01*
X0215646Y0063697D01*
X0215646Y0058697D01*
X0213146Y0056197D01*
X0215646Y0053697D01*
X0215646Y0048697D01*
X0213146Y0046197D01*
X0215646Y0043697D01*
X0215646Y0038697D01*
X0213146Y0036197D01*
X0208146Y0036197D01*
X0205646Y0038697D01*
X0205646Y0043697D01*
X0208146Y0046197D01*
X0205646Y0048697D01*
X0208146Y0046197D02*
X0213146Y0046197D01*
X0218441Y0048697D02*
X0218441Y0053697D01*
X0220941Y0056197D01*
X0218441Y0058697D01*
X0218441Y0063697D01*
X0220941Y0066197D01*
X0225941Y0066197D01*
X0228441Y0063697D01*
X0228441Y0058697D01*
X0225941Y0056197D01*
X0228441Y0053697D01*
X0228441Y0048697D01*
X0225941Y0046197D01*
X0228441Y0043697D01*
X0228441Y0038697D01*
X0225941Y0036197D01*
X0220941Y0036197D01*
X0218441Y0038697D01*
X0218441Y0043697D01*
X0220941Y0046197D01*
X0218441Y0048697D01*
X0220941Y0046197D02*
X0225941Y0046197D01*
X0231236Y0048697D02*
X0231236Y0053697D01*
X0233736Y0056197D01*
X0231236Y0058697D01*
X0231236Y0063697D01*
X0233736Y0066197D01*
X0238736Y0066197D01*
X0241236Y0063697D01*
X0241236Y0058697D01*
X0238736Y0056197D01*
X0241236Y0053697D01*
X0241236Y0048697D01*
X0238736Y0046197D01*
X0241236Y0043697D01*
X0241236Y0038697D01*
X0238736Y0036197D01*
X0233736Y0036197D01*
X0231236Y0038697D01*
X0231236Y0043697D01*
X0233736Y0046197D01*
X0231236Y0048697D01*
X0233736Y0046197D02*
X0238736Y0046197D01*
X0244031Y0048697D02*
X0244031Y0053697D01*
X0246531Y0056197D01*
X0244031Y0058697D01*
X0244031Y0063697D01*
X0246531Y0066197D01*
X0251531Y0066197D01*
X0254031Y0063697D01*
X0254031Y0058697D01*
X0251531Y0056197D01*
X0254031Y0053697D01*
X0254031Y0048697D01*
X0251531Y0046197D01*
X0254031Y0043697D01*
X0254031Y0038697D01*
X0251531Y0036197D01*
X0246531Y0036197D01*
X0244031Y0038697D01*
X0244031Y0043697D01*
X0246531Y0046197D01*
X0244031Y0048697D01*
X0246531Y0046197D02*
X0251531Y0046197D01*
X0256827Y0048697D02*
X0256827Y0053697D01*
X0259327Y0056197D01*
X0256827Y0058697D01*
X0256827Y0063697D01*
X0259327Y0066197D01*
X0264327Y0066197D01*
X0266827Y0063697D01*
X0266827Y0058697D01*
X0264327Y0056197D01*
X0266827Y0053697D01*
X0266827Y0048697D01*
X0264327Y0046197D01*
X0266827Y0043697D01*
X0266827Y0038697D01*
X0264327Y0036197D01*
X0259327Y0036197D01*
X0256827Y0038697D01*
X0256827Y0043697D01*
X0259327Y0046197D01*
X0256827Y0048697D01*
X0259327Y0046197D02*
X0264327Y0046197D01*
X0264327Y0056197D02*
X0259327Y0056197D01*
X0251531Y0056197D02*
X0246531Y0056197D01*
X0238736Y0056197D02*
X0233736Y0056197D01*
X0225941Y0056197D02*
X0220941Y0056197D01*
X0213146Y0056197D02*
X0208146Y0056197D01*
X0200350Y0056197D02*
X0195350Y0056197D01*
X0187555Y0056197D02*
X0182555Y0056197D01*
X0174760Y0056197D02*
X0169760Y0056197D01*
X0161965Y0056197D02*
X0156965Y0056197D01*
X0149169Y0056197D02*
X0144169Y0056197D01*
X0136374Y0056197D02*
X0131374Y0056197D01*
X0123579Y0056197D02*
X0118579Y0056197D01*
X0110783Y0056197D02*
X0105783Y0056197D01*
X0097988Y0056197D02*
X0092988Y0056197D01*
X0085193Y0056197D02*
X0080193Y0056197D01*
X0072398Y0056197D02*
X0067398Y0056197D01*
X0134287Y0253913D02*
X0131787Y0256413D01*
X0131787Y0261413D01*
X0134287Y0263913D01*
X0139287Y0263913D01*
X0141787Y0261413D01*
X0144287Y0263913D01*
X0149287Y0263913D01*
X0151787Y0261413D01*
X0151787Y0256413D01*
X0149287Y0253913D01*
X0144287Y0253913D01*
X0141787Y0256413D01*
X0139287Y0253913D01*
X0134287Y0253913D01*
X0141787Y0256413D02*
X0141787Y0261413D01*
X0161787Y0261374D02*
X0161787Y0256374D01*
X0164287Y0253874D01*
X0169287Y0253874D01*
X0171787Y0256374D01*
X0171787Y0261374D01*
X0169287Y0263874D01*
X0164287Y0263874D01*
X0161787Y0261374D01*
X0171787Y0261374D02*
X0174287Y0263874D01*
X0179287Y0263874D01*
X0181787Y0261374D01*
X0184287Y0263874D01*
X0189287Y0263874D01*
X0191787Y0261374D01*
X0194287Y0263874D01*
X0199287Y0263874D01*
X0201787Y0261374D01*
X0204287Y0263874D01*
X0209287Y0263874D01*
X0211787Y0261374D01*
X0214287Y0263874D01*
X0219287Y0263874D01*
X0221787Y0261374D01*
X0224287Y0263874D01*
X0229287Y0263874D01*
X0231787Y0261374D01*
X0234287Y0263874D01*
X0239287Y0263874D01*
X0241787Y0261374D01*
X0241787Y0256374D01*
X0239287Y0253874D01*
X0234287Y0253874D01*
X0231787Y0256374D01*
X0229287Y0253874D01*
X0224287Y0253874D01*
X0221787Y0256374D01*
X0221787Y0261374D01*
X0221787Y0256374D02*
X0219287Y0253874D01*
X0214287Y0253874D01*
X0211787Y0256374D01*
X0209287Y0253874D01*
X0204287Y0253874D01*
X0201787Y0256374D01*
X0199287Y0253874D01*
X0194287Y0253874D01*
X0191787Y0256374D01*
X0191787Y0261374D01*
X0191787Y0256374D02*
X0189287Y0253874D01*
X0184287Y0253874D01*
X0181787Y0256374D01*
X0179287Y0253874D01*
X0174287Y0253874D01*
X0171787Y0256374D01*
X0181787Y0256374D02*
X0181787Y0261374D01*
X0201787Y0261374D02*
X0201787Y0256374D01*
X0211787Y0256374D02*
X0211787Y0261374D01*
X0231787Y0261374D02*
X0231787Y0256374D01*
D12*
X0231812Y0251424D02*
X0230562Y0251424D01*
X0230562Y0246924D01*
X0230562Y0248924D02*
X0231812Y0248924D01*
X0231881Y0248926D01*
X0231950Y0248932D01*
X0232018Y0248941D01*
X0232085Y0248954D01*
X0232152Y0248971D01*
X0232218Y0248992D01*
X0232282Y0249016D01*
X0232345Y0249044D01*
X0232407Y0249075D01*
X0232467Y0249109D01*
X0232524Y0249147D01*
X0232580Y0249188D01*
X0232633Y0249231D01*
X0232684Y0249278D01*
X0232732Y0249327D01*
X0232777Y0249379D01*
X0232819Y0249434D01*
X0232858Y0249490D01*
X0232895Y0249549D01*
X0232927Y0249610D01*
X0232957Y0249672D01*
X0232983Y0249736D01*
X0233005Y0249801D01*
X0233024Y0249867D01*
X0233039Y0249934D01*
X0233050Y0250002D01*
X0233058Y0250071D01*
X0233062Y0250140D01*
X0233062Y0250208D01*
X0233058Y0250277D01*
X0233050Y0250346D01*
X0233039Y0250414D01*
X0233024Y0250481D01*
X0233005Y0250547D01*
X0232983Y0250612D01*
X0232957Y0250676D01*
X0232927Y0250738D01*
X0232895Y0250799D01*
X0232858Y0250858D01*
X0232819Y0250914D01*
X0232777Y0250969D01*
X0232732Y0251021D01*
X0232684Y0251070D01*
X0232633Y0251117D01*
X0232580Y0251160D01*
X0232524Y0251201D01*
X0232467Y0251239D01*
X0232407Y0251273D01*
X0232345Y0251304D01*
X0232282Y0251332D01*
X0232218Y0251356D01*
X0232152Y0251377D01*
X0232085Y0251394D01*
X0232018Y0251407D01*
X0231950Y0251416D01*
X0231881Y0251422D01*
X0231812Y0251424D01*
X0234837Y0250424D02*
X0236087Y0251424D01*
X0236087Y0246924D01*
X0234837Y0246924D02*
X0237337Y0246924D01*
X0239337Y0248174D02*
X0239339Y0248105D01*
X0239345Y0248036D01*
X0239354Y0247968D01*
X0239367Y0247901D01*
X0239384Y0247834D01*
X0239405Y0247768D01*
X0239429Y0247704D01*
X0239457Y0247641D01*
X0239488Y0247579D01*
X0239522Y0247519D01*
X0239560Y0247462D01*
X0239601Y0247406D01*
X0239644Y0247353D01*
X0239691Y0247302D01*
X0239740Y0247254D01*
X0239792Y0247209D01*
X0239847Y0247167D01*
X0239903Y0247128D01*
X0239962Y0247091D01*
X0240023Y0247059D01*
X0240085Y0247029D01*
X0240149Y0247003D01*
X0240214Y0246981D01*
X0240280Y0246962D01*
X0240347Y0246947D01*
X0240415Y0246936D01*
X0240484Y0246928D01*
X0240553Y0246924D01*
X0240621Y0246924D01*
X0240690Y0246928D01*
X0240759Y0246936D01*
X0240827Y0246947D01*
X0240894Y0246962D01*
X0240960Y0246981D01*
X0241025Y0247003D01*
X0241089Y0247029D01*
X0241151Y0247059D01*
X0241212Y0247091D01*
X0241271Y0247128D01*
X0241327Y0247167D01*
X0241382Y0247209D01*
X0241434Y0247254D01*
X0241483Y0247302D01*
X0241530Y0247353D01*
X0241573Y0247406D01*
X0241614Y0247462D01*
X0241652Y0247519D01*
X0241686Y0247579D01*
X0241717Y0247641D01*
X0241745Y0247704D01*
X0241769Y0247768D01*
X0241790Y0247834D01*
X0241807Y0247901D01*
X0241820Y0247968D01*
X0241829Y0248036D01*
X0241835Y0248105D01*
X0241837Y0248174D01*
X0241835Y0248243D01*
X0241829Y0248312D01*
X0241820Y0248380D01*
X0241807Y0248447D01*
X0241790Y0248514D01*
X0241769Y0248580D01*
X0241745Y0248644D01*
X0241717Y0248707D01*
X0241686Y0248769D01*
X0241652Y0248829D01*
X0241614Y0248886D01*
X0241573Y0248942D01*
X0241530Y0248995D01*
X0241483Y0249046D01*
X0241434Y0249094D01*
X0241382Y0249139D01*
X0241327Y0249181D01*
X0241271Y0249220D01*
X0241212Y0249257D01*
X0241151Y0249289D01*
X0241089Y0249319D01*
X0241025Y0249345D01*
X0240960Y0249367D01*
X0240894Y0249386D01*
X0240827Y0249401D01*
X0240759Y0249412D01*
X0240690Y0249420D01*
X0240621Y0249424D01*
X0240553Y0249424D01*
X0240484Y0249420D01*
X0240415Y0249412D01*
X0240347Y0249401D01*
X0240280Y0249386D01*
X0240214Y0249367D01*
X0240149Y0249345D01*
X0240085Y0249319D01*
X0240023Y0249289D01*
X0239962Y0249257D01*
X0239903Y0249220D01*
X0239847Y0249181D01*
X0239792Y0249139D01*
X0239740Y0249094D01*
X0239691Y0249046D01*
X0239644Y0248995D01*
X0239601Y0248942D01*
X0239560Y0248886D01*
X0239522Y0248829D01*
X0239488Y0248769D01*
X0239457Y0248707D01*
X0239429Y0248644D01*
X0239405Y0248580D01*
X0239384Y0248514D01*
X0239367Y0248447D01*
X0239354Y0248380D01*
X0239345Y0248312D01*
X0239339Y0248243D01*
X0239337Y0248174D01*
X0239587Y0250424D02*
X0239589Y0250362D01*
X0239595Y0250301D01*
X0239604Y0250240D01*
X0239617Y0250180D01*
X0239634Y0250121D01*
X0239655Y0250063D01*
X0239679Y0250006D01*
X0239706Y0249951D01*
X0239737Y0249898D01*
X0239771Y0249846D01*
X0239808Y0249797D01*
X0239848Y0249750D01*
X0239891Y0249706D01*
X0239936Y0249665D01*
X0239984Y0249626D01*
X0240035Y0249590D01*
X0240087Y0249558D01*
X0240141Y0249529D01*
X0240197Y0249503D01*
X0240255Y0249481D01*
X0240313Y0249462D01*
X0240373Y0249447D01*
X0240434Y0249436D01*
X0240495Y0249428D01*
X0240556Y0249424D01*
X0240618Y0249424D01*
X0240679Y0249428D01*
X0240740Y0249436D01*
X0240801Y0249447D01*
X0240861Y0249462D01*
X0240919Y0249481D01*
X0240977Y0249503D01*
X0241033Y0249529D01*
X0241087Y0249558D01*
X0241139Y0249590D01*
X0241190Y0249626D01*
X0241238Y0249665D01*
X0241283Y0249706D01*
X0241326Y0249750D01*
X0241366Y0249797D01*
X0241403Y0249846D01*
X0241437Y0249898D01*
X0241468Y0249951D01*
X0241495Y0250006D01*
X0241519Y0250063D01*
X0241540Y0250121D01*
X0241557Y0250180D01*
X0241570Y0250240D01*
X0241579Y0250301D01*
X0241585Y0250362D01*
X0241587Y0250424D01*
X0241585Y0250486D01*
X0241579Y0250547D01*
X0241570Y0250608D01*
X0241557Y0250668D01*
X0241540Y0250727D01*
X0241519Y0250785D01*
X0241495Y0250842D01*
X0241468Y0250897D01*
X0241437Y0250950D01*
X0241403Y0251002D01*
X0241366Y0251051D01*
X0241326Y0251098D01*
X0241283Y0251142D01*
X0241238Y0251183D01*
X0241190Y0251222D01*
X0241139Y0251258D01*
X0241087Y0251290D01*
X0241033Y0251319D01*
X0240977Y0251345D01*
X0240919Y0251367D01*
X0240861Y0251386D01*
X0240801Y0251401D01*
X0240740Y0251412D01*
X0240679Y0251420D01*
X0240618Y0251424D01*
X0240556Y0251424D01*
X0240495Y0251420D01*
X0240434Y0251412D01*
X0240373Y0251401D01*
X0240313Y0251386D01*
X0240255Y0251367D01*
X0240197Y0251345D01*
X0240141Y0251319D01*
X0240087Y0251290D01*
X0240035Y0251258D01*
X0239984Y0251222D01*
X0239936Y0251183D01*
X0239891Y0251142D01*
X0239848Y0251098D01*
X0239808Y0251051D01*
X0239771Y0251002D01*
X0239737Y0250950D01*
X0239706Y0250897D01*
X0239679Y0250842D01*
X0239655Y0250785D01*
X0239634Y0250727D01*
X0239617Y0250668D01*
X0239604Y0250608D01*
X0239595Y0250547D01*
X0239589Y0250486D01*
X0239587Y0250424D01*
X0228208Y0251424D02*
X0228208Y0247924D01*
X0228206Y0247864D01*
X0228201Y0247803D01*
X0228192Y0247744D01*
X0228179Y0247685D01*
X0228163Y0247626D01*
X0228143Y0247569D01*
X0228120Y0247514D01*
X0228093Y0247459D01*
X0228064Y0247407D01*
X0228031Y0247356D01*
X0227995Y0247307D01*
X0227957Y0247261D01*
X0227915Y0247217D01*
X0227871Y0247175D01*
X0227825Y0247137D01*
X0227776Y0247101D01*
X0227725Y0247068D01*
X0227673Y0247039D01*
X0227618Y0247012D01*
X0227563Y0246989D01*
X0227506Y0246969D01*
X0227447Y0246953D01*
X0227388Y0246940D01*
X0227329Y0246931D01*
X0227268Y0246926D01*
X0227208Y0246924D01*
X0226708Y0246924D01*
X0151837Y0246963D02*
X0149337Y0246963D01*
X0150587Y0246963D02*
X0150587Y0251463D01*
X0149337Y0250463D01*
X0146312Y0251463D02*
X0146381Y0251461D01*
X0146450Y0251455D01*
X0146518Y0251446D01*
X0146585Y0251433D01*
X0146652Y0251416D01*
X0146718Y0251395D01*
X0146782Y0251371D01*
X0146845Y0251343D01*
X0146907Y0251312D01*
X0146967Y0251278D01*
X0147024Y0251240D01*
X0147080Y0251199D01*
X0147133Y0251156D01*
X0147184Y0251109D01*
X0147232Y0251060D01*
X0147277Y0251008D01*
X0147319Y0250953D01*
X0147358Y0250897D01*
X0147395Y0250838D01*
X0147427Y0250777D01*
X0147457Y0250715D01*
X0147483Y0250651D01*
X0147505Y0250586D01*
X0147524Y0250520D01*
X0147539Y0250453D01*
X0147550Y0250385D01*
X0147558Y0250316D01*
X0147562Y0250247D01*
X0147562Y0250179D01*
X0147558Y0250110D01*
X0147550Y0250041D01*
X0147539Y0249973D01*
X0147524Y0249906D01*
X0147505Y0249840D01*
X0147483Y0249775D01*
X0147457Y0249711D01*
X0147427Y0249649D01*
X0147395Y0249588D01*
X0147358Y0249529D01*
X0147319Y0249473D01*
X0147277Y0249418D01*
X0147232Y0249366D01*
X0147184Y0249317D01*
X0147133Y0249270D01*
X0147080Y0249227D01*
X0147024Y0249186D01*
X0146967Y0249148D01*
X0146907Y0249114D01*
X0146845Y0249083D01*
X0146782Y0249055D01*
X0146718Y0249031D01*
X0146652Y0249010D01*
X0146585Y0248993D01*
X0146518Y0248980D01*
X0146450Y0248971D01*
X0146381Y0248965D01*
X0146312Y0248963D01*
X0145062Y0248963D01*
X0145062Y0246963D02*
X0145062Y0251463D01*
X0146312Y0251463D01*
X0142708Y0251463D02*
X0142708Y0247963D01*
X0142706Y0247903D01*
X0142701Y0247842D01*
X0142692Y0247783D01*
X0142679Y0247724D01*
X0142663Y0247665D01*
X0142643Y0247608D01*
X0142620Y0247553D01*
X0142593Y0247498D01*
X0142564Y0247446D01*
X0142531Y0247395D01*
X0142495Y0247346D01*
X0142457Y0247300D01*
X0142415Y0247256D01*
X0142371Y0247214D01*
X0142325Y0247176D01*
X0142276Y0247140D01*
X0142225Y0247107D01*
X0142173Y0247078D01*
X0142118Y0247051D01*
X0142063Y0247028D01*
X0142006Y0247008D01*
X0141947Y0246992D01*
X0141888Y0246979D01*
X0141829Y0246970D01*
X0141768Y0246965D01*
X0141708Y0246963D01*
X0141208Y0246963D01*
X0124228Y0241945D02*
X0120488Y0241945D01*
X0120488Y0238598D01*
X0125606Y0237614D02*
X0125606Y0234858D01*
X0120488Y0233874D02*
X0120488Y0230528D01*
X0124228Y0230528D01*
X0124228Y0224228D02*
X0120488Y0224228D01*
X0120488Y0220882D01*
X0120488Y0216157D02*
X0120488Y0212811D01*
X0124228Y0212811D01*
X0125606Y0217142D02*
X0125606Y0219898D01*
X0124228Y0206512D02*
X0120488Y0206512D01*
X0120488Y0203165D01*
X0125606Y0202181D02*
X0125606Y0199425D01*
X0124228Y0195094D02*
X0120488Y0195094D01*
X0120488Y0198441D01*
X0120488Y0188795D02*
X0120488Y0185449D01*
X0120488Y0188795D02*
X0124228Y0188795D01*
X0125606Y0184465D02*
X0125606Y0181709D01*
X0120488Y0180724D02*
X0120488Y0177378D01*
X0124228Y0177378D01*
X0124228Y0171079D02*
X0120488Y0171079D01*
X0120488Y0167732D01*
X0120488Y0163008D02*
X0120488Y0159661D01*
X0124228Y0159661D01*
X0125606Y0163992D02*
X0125606Y0166748D01*
X0124228Y0153362D02*
X0120488Y0153362D01*
X0120488Y0150016D01*
X0125606Y0149031D02*
X0125606Y0146276D01*
X0120488Y0145291D02*
X0120488Y0141945D01*
X0124228Y0141945D01*
X0124228Y0135646D02*
X0120488Y0135646D01*
X0120488Y0132299D01*
X0120488Y0127575D02*
X0120488Y0124228D01*
X0124228Y0124228D01*
X0125606Y0128559D02*
X0125606Y0131315D01*
X0124228Y0117929D02*
X0120488Y0117929D01*
X0120488Y0114583D01*
X0125606Y0113598D02*
X0125606Y0110843D01*
X0124228Y0106512D02*
X0120488Y0106512D01*
X0120488Y0109858D01*
X0119233Y0066247D02*
X0118733Y0066247D01*
X0118673Y0066245D01*
X0118612Y0066240D01*
X0118553Y0066231D01*
X0118494Y0066218D01*
X0118435Y0066202D01*
X0118378Y0066182D01*
X0118323Y0066159D01*
X0118268Y0066132D01*
X0118216Y0066103D01*
X0118165Y0066070D01*
X0118116Y0066034D01*
X0118070Y0065996D01*
X0118026Y0065954D01*
X0117984Y0065910D01*
X0117946Y0065864D01*
X0117910Y0065815D01*
X0117877Y0065764D01*
X0117848Y0065712D01*
X0117821Y0065657D01*
X0117798Y0065602D01*
X0117778Y0065545D01*
X0117762Y0065486D01*
X0117749Y0065427D01*
X0117740Y0065368D01*
X0117735Y0065307D01*
X0117733Y0065247D01*
X0117733Y0063747D01*
X0115733Y0063747D01*
X0115733Y0066247D01*
X0119233Y0066247D02*
X0119293Y0066245D01*
X0119354Y0066240D01*
X0119413Y0066231D01*
X0119472Y0066218D01*
X0119531Y0066202D01*
X0119588Y0066182D01*
X0119643Y0066159D01*
X0119698Y0066132D01*
X0119750Y0066103D01*
X0119801Y0066070D01*
X0119850Y0066034D01*
X0119896Y0065996D01*
X0119940Y0065954D01*
X0119982Y0065910D01*
X0120020Y0065864D01*
X0120056Y0065815D01*
X0120089Y0065764D01*
X0120118Y0065712D01*
X0120145Y0065657D01*
X0120168Y0065602D01*
X0120188Y0065545D01*
X0120204Y0065486D01*
X0120217Y0065427D01*
X0120226Y0065368D01*
X0120231Y0065307D01*
X0120233Y0065247D01*
X0120233Y0063747D01*
X0118233Y0060722D02*
X0118233Y0059472D01*
X0118233Y0060722D02*
X0118231Y0060791D01*
X0118225Y0060860D01*
X0118216Y0060928D01*
X0118203Y0060995D01*
X0118186Y0061062D01*
X0118165Y0061128D01*
X0118141Y0061192D01*
X0118113Y0061255D01*
X0118082Y0061317D01*
X0118048Y0061377D01*
X0118010Y0061434D01*
X0117969Y0061490D01*
X0117926Y0061543D01*
X0117879Y0061594D01*
X0117830Y0061642D01*
X0117778Y0061687D01*
X0117723Y0061729D01*
X0117667Y0061768D01*
X0117608Y0061805D01*
X0117547Y0061837D01*
X0117485Y0061867D01*
X0117421Y0061893D01*
X0117356Y0061915D01*
X0117290Y0061934D01*
X0117223Y0061949D01*
X0117155Y0061960D01*
X0117086Y0061968D01*
X0117017Y0061972D01*
X0116949Y0061972D01*
X0116880Y0061968D01*
X0116811Y0061960D01*
X0116743Y0061949D01*
X0116676Y0061934D01*
X0116610Y0061915D01*
X0116545Y0061893D01*
X0116481Y0061867D01*
X0116419Y0061837D01*
X0116358Y0061805D01*
X0116299Y0061768D01*
X0116243Y0061729D01*
X0116188Y0061687D01*
X0116136Y0061642D01*
X0116087Y0061594D01*
X0116040Y0061543D01*
X0115997Y0061490D01*
X0115956Y0061434D01*
X0115918Y0061377D01*
X0115884Y0061317D01*
X0115853Y0061255D01*
X0115825Y0061192D01*
X0115801Y0061128D01*
X0115780Y0061062D01*
X0115763Y0060995D01*
X0115750Y0060928D01*
X0115741Y0060860D01*
X0115735Y0060791D01*
X0115733Y0060722D01*
X0115733Y0059472D01*
X0120233Y0059472D01*
X0119233Y0057117D02*
X0115733Y0057117D01*
X0119233Y0057117D02*
X0119293Y0057115D01*
X0119354Y0057110D01*
X0119413Y0057101D01*
X0119472Y0057088D01*
X0119531Y0057072D01*
X0119588Y0057052D01*
X0119643Y0057029D01*
X0119698Y0057002D01*
X0119750Y0056973D01*
X0119801Y0056940D01*
X0119850Y0056904D01*
X0119896Y0056866D01*
X0119940Y0056824D01*
X0119982Y0056780D01*
X0120020Y0056734D01*
X0120056Y0056685D01*
X0120089Y0056634D01*
X0120118Y0056582D01*
X0120145Y0056527D01*
X0120168Y0056472D01*
X0120188Y0056415D01*
X0120204Y0056356D01*
X0120217Y0056297D01*
X0120226Y0056238D01*
X0120231Y0056177D01*
X0120233Y0056117D01*
X0120233Y0055617D01*
X0128529Y0057117D02*
X0132029Y0057117D01*
X0132089Y0057115D01*
X0132150Y0057110D01*
X0132209Y0057101D01*
X0132268Y0057088D01*
X0132327Y0057072D01*
X0132384Y0057052D01*
X0132439Y0057029D01*
X0132494Y0057002D01*
X0132546Y0056973D01*
X0132597Y0056940D01*
X0132646Y0056904D01*
X0132692Y0056866D01*
X0132736Y0056824D01*
X0132778Y0056780D01*
X0132816Y0056734D01*
X0132852Y0056685D01*
X0132885Y0056634D01*
X0132914Y0056582D01*
X0132941Y0056527D01*
X0132964Y0056472D01*
X0132984Y0056415D01*
X0133000Y0056356D01*
X0133013Y0056297D01*
X0133022Y0056238D01*
X0133027Y0056177D01*
X0133029Y0056117D01*
X0133029Y0055617D01*
X0133029Y0059472D02*
X0128529Y0059472D01*
X0128529Y0060722D01*
X0128531Y0060791D01*
X0128537Y0060860D01*
X0128546Y0060928D01*
X0128559Y0060995D01*
X0128576Y0061062D01*
X0128597Y0061128D01*
X0128621Y0061192D01*
X0128649Y0061255D01*
X0128680Y0061317D01*
X0128714Y0061377D01*
X0128752Y0061434D01*
X0128793Y0061490D01*
X0128836Y0061543D01*
X0128883Y0061594D01*
X0128932Y0061642D01*
X0128984Y0061687D01*
X0129039Y0061729D01*
X0129095Y0061768D01*
X0129154Y0061805D01*
X0129215Y0061837D01*
X0129277Y0061867D01*
X0129341Y0061893D01*
X0129406Y0061915D01*
X0129472Y0061934D01*
X0129539Y0061949D01*
X0129607Y0061960D01*
X0129676Y0061968D01*
X0129745Y0061972D01*
X0129813Y0061972D01*
X0129882Y0061968D01*
X0129951Y0061960D01*
X0130019Y0061949D01*
X0130086Y0061934D01*
X0130152Y0061915D01*
X0130217Y0061893D01*
X0130281Y0061867D01*
X0130343Y0061837D01*
X0130404Y0061805D01*
X0130463Y0061768D01*
X0130519Y0061729D01*
X0130574Y0061687D01*
X0130626Y0061642D01*
X0130675Y0061594D01*
X0130722Y0061543D01*
X0130765Y0061490D01*
X0130806Y0061434D01*
X0130844Y0061377D01*
X0130878Y0061317D01*
X0130909Y0061255D01*
X0130937Y0061192D01*
X0130961Y0061128D01*
X0130982Y0061062D01*
X0130999Y0060995D01*
X0131012Y0060928D01*
X0131021Y0060860D01*
X0131027Y0060791D01*
X0131029Y0060722D01*
X0131029Y0059472D01*
X0130529Y0063747D02*
X0131779Y0063747D01*
X0131848Y0063749D01*
X0131917Y0063755D01*
X0131985Y0063764D01*
X0132052Y0063777D01*
X0132119Y0063794D01*
X0132185Y0063815D01*
X0132249Y0063839D01*
X0132312Y0063867D01*
X0132374Y0063898D01*
X0132434Y0063932D01*
X0132491Y0063970D01*
X0132547Y0064011D01*
X0132600Y0064054D01*
X0132651Y0064101D01*
X0132699Y0064150D01*
X0132744Y0064202D01*
X0132786Y0064257D01*
X0132825Y0064313D01*
X0132862Y0064372D01*
X0132894Y0064433D01*
X0132924Y0064495D01*
X0132950Y0064559D01*
X0132972Y0064624D01*
X0132991Y0064690D01*
X0133006Y0064757D01*
X0133017Y0064825D01*
X0133025Y0064894D01*
X0133029Y0064963D01*
X0133029Y0065031D01*
X0133025Y0065100D01*
X0133017Y0065169D01*
X0133006Y0065237D01*
X0132991Y0065304D01*
X0132972Y0065370D01*
X0132950Y0065435D01*
X0132924Y0065499D01*
X0132894Y0065561D01*
X0132862Y0065622D01*
X0132825Y0065681D01*
X0132786Y0065737D01*
X0132744Y0065792D01*
X0132699Y0065844D01*
X0132651Y0065893D01*
X0132600Y0065940D01*
X0132547Y0065983D01*
X0132491Y0066024D01*
X0132434Y0066062D01*
X0132374Y0066096D01*
X0132312Y0066127D01*
X0132249Y0066155D01*
X0132185Y0066179D01*
X0132119Y0066200D01*
X0132052Y0066217D01*
X0131985Y0066230D01*
X0131917Y0066239D01*
X0131848Y0066245D01*
X0131779Y0066247D01*
X0131529Y0066247D01*
X0131469Y0066245D01*
X0131408Y0066240D01*
X0131349Y0066231D01*
X0131290Y0066218D01*
X0131231Y0066202D01*
X0131174Y0066182D01*
X0131119Y0066159D01*
X0131064Y0066132D01*
X0131012Y0066103D01*
X0130961Y0066070D01*
X0130912Y0066034D01*
X0130866Y0065996D01*
X0130822Y0065954D01*
X0130780Y0065910D01*
X0130742Y0065864D01*
X0130706Y0065815D01*
X0130673Y0065764D01*
X0130644Y0065712D01*
X0130617Y0065657D01*
X0130594Y0065602D01*
X0130574Y0065545D01*
X0130558Y0065486D01*
X0130545Y0065427D01*
X0130536Y0065368D01*
X0130531Y0065307D01*
X0130529Y0065247D01*
X0130529Y0063747D01*
X0130442Y0063749D01*
X0130355Y0063755D01*
X0130268Y0063764D01*
X0130182Y0063777D01*
X0130096Y0063794D01*
X0130011Y0063815D01*
X0129928Y0063840D01*
X0129845Y0063868D01*
X0129764Y0063899D01*
X0129684Y0063934D01*
X0129606Y0063973D01*
X0129529Y0064015D01*
X0129454Y0064060D01*
X0129382Y0064109D01*
X0129311Y0064160D01*
X0129243Y0064215D01*
X0129178Y0064272D01*
X0129115Y0064333D01*
X0129054Y0064396D01*
X0128997Y0064461D01*
X0128942Y0064529D01*
X0128891Y0064600D01*
X0128842Y0064672D01*
X0128797Y0064747D01*
X0128755Y0064824D01*
X0128716Y0064902D01*
X0128681Y0064982D01*
X0128650Y0065063D01*
X0128622Y0065146D01*
X0128597Y0065229D01*
X0128576Y0065314D01*
X0128559Y0065400D01*
X0128546Y0065486D01*
X0128537Y0065573D01*
X0128531Y0065660D01*
X0128529Y0065747D01*
X0141324Y0066247D02*
X0145824Y0064997D01*
X0141824Y0063747D02*
X0141324Y0063747D01*
X0141324Y0066247D01*
X0141324Y0060722D02*
X0141324Y0059472D01*
X0145824Y0059472D01*
X0143824Y0059472D02*
X0143824Y0060722D01*
X0143822Y0060791D01*
X0143816Y0060860D01*
X0143807Y0060928D01*
X0143794Y0060995D01*
X0143777Y0061062D01*
X0143756Y0061128D01*
X0143732Y0061192D01*
X0143704Y0061255D01*
X0143673Y0061317D01*
X0143639Y0061377D01*
X0143601Y0061434D01*
X0143560Y0061490D01*
X0143517Y0061543D01*
X0143470Y0061594D01*
X0143421Y0061642D01*
X0143369Y0061687D01*
X0143314Y0061729D01*
X0143258Y0061768D01*
X0143199Y0061805D01*
X0143138Y0061837D01*
X0143076Y0061867D01*
X0143012Y0061893D01*
X0142947Y0061915D01*
X0142881Y0061934D01*
X0142814Y0061949D01*
X0142746Y0061960D01*
X0142677Y0061968D01*
X0142608Y0061972D01*
X0142540Y0061972D01*
X0142471Y0061968D01*
X0142402Y0061960D01*
X0142334Y0061949D01*
X0142267Y0061934D01*
X0142201Y0061915D01*
X0142136Y0061893D01*
X0142072Y0061867D01*
X0142010Y0061837D01*
X0141949Y0061805D01*
X0141890Y0061768D01*
X0141834Y0061729D01*
X0141779Y0061687D01*
X0141727Y0061642D01*
X0141678Y0061594D01*
X0141631Y0061543D01*
X0141588Y0061490D01*
X0141547Y0061434D01*
X0141509Y0061377D01*
X0141475Y0061317D01*
X0141444Y0061255D01*
X0141416Y0061192D01*
X0141392Y0061128D01*
X0141371Y0061062D01*
X0141354Y0060995D01*
X0141341Y0060928D01*
X0141332Y0060860D01*
X0141326Y0060791D01*
X0141324Y0060722D01*
X0141324Y0057117D02*
X0144824Y0057117D01*
X0144884Y0057115D01*
X0144945Y0057110D01*
X0145004Y0057101D01*
X0145063Y0057088D01*
X0145122Y0057072D01*
X0145179Y0057052D01*
X0145234Y0057029D01*
X0145289Y0057002D01*
X0145341Y0056973D01*
X0145392Y0056940D01*
X0145441Y0056904D01*
X0145487Y0056866D01*
X0145531Y0056824D01*
X0145573Y0056780D01*
X0145611Y0056734D01*
X0145647Y0056685D01*
X0145680Y0056634D01*
X0145709Y0056582D01*
X0145736Y0056527D01*
X0145759Y0056472D01*
X0145779Y0056415D01*
X0145795Y0056356D01*
X0145808Y0056297D01*
X0145817Y0056238D01*
X0145822Y0056177D01*
X0145824Y0056117D01*
X0145824Y0055617D01*
X0154119Y0057117D02*
X0157619Y0057117D01*
X0157679Y0057115D01*
X0157740Y0057110D01*
X0157799Y0057101D01*
X0157858Y0057088D01*
X0157917Y0057072D01*
X0157974Y0057052D01*
X0158029Y0057029D01*
X0158084Y0057002D01*
X0158136Y0056973D01*
X0158187Y0056940D01*
X0158236Y0056904D01*
X0158282Y0056866D01*
X0158326Y0056824D01*
X0158368Y0056780D01*
X0158406Y0056734D01*
X0158442Y0056685D01*
X0158475Y0056634D01*
X0158504Y0056582D01*
X0158531Y0056527D01*
X0158554Y0056472D01*
X0158574Y0056415D01*
X0158590Y0056356D01*
X0158603Y0056297D01*
X0158612Y0056238D01*
X0158617Y0056177D01*
X0158619Y0056117D01*
X0158619Y0055617D01*
X0158619Y0059472D02*
X0154119Y0059472D01*
X0154119Y0060722D01*
X0154121Y0060791D01*
X0154127Y0060860D01*
X0154136Y0060928D01*
X0154149Y0060995D01*
X0154166Y0061062D01*
X0154187Y0061128D01*
X0154211Y0061192D01*
X0154239Y0061255D01*
X0154270Y0061317D01*
X0154304Y0061377D01*
X0154342Y0061434D01*
X0154383Y0061490D01*
X0154426Y0061543D01*
X0154473Y0061594D01*
X0154522Y0061642D01*
X0154574Y0061687D01*
X0154629Y0061729D01*
X0154685Y0061768D01*
X0154744Y0061805D01*
X0154805Y0061837D01*
X0154867Y0061867D01*
X0154931Y0061893D01*
X0154996Y0061915D01*
X0155062Y0061934D01*
X0155129Y0061949D01*
X0155197Y0061960D01*
X0155266Y0061968D01*
X0155335Y0061972D01*
X0155403Y0061972D01*
X0155472Y0061968D01*
X0155541Y0061960D01*
X0155609Y0061949D01*
X0155676Y0061934D01*
X0155742Y0061915D01*
X0155807Y0061893D01*
X0155871Y0061867D01*
X0155933Y0061837D01*
X0155994Y0061805D01*
X0156053Y0061768D01*
X0156109Y0061729D01*
X0156164Y0061687D01*
X0156216Y0061642D01*
X0156265Y0061594D01*
X0156312Y0061543D01*
X0156355Y0061490D01*
X0156396Y0061434D01*
X0156434Y0061377D01*
X0156468Y0061317D01*
X0156499Y0061255D01*
X0156527Y0061192D01*
X0156551Y0061128D01*
X0156572Y0061062D01*
X0156589Y0060995D01*
X0156602Y0060928D01*
X0156611Y0060860D01*
X0156617Y0060791D01*
X0156619Y0060722D01*
X0156619Y0059472D01*
X0157369Y0063747D02*
X0157438Y0063749D01*
X0157507Y0063755D01*
X0157575Y0063764D01*
X0157642Y0063777D01*
X0157709Y0063794D01*
X0157775Y0063815D01*
X0157839Y0063839D01*
X0157902Y0063867D01*
X0157964Y0063898D01*
X0158024Y0063932D01*
X0158081Y0063970D01*
X0158137Y0064011D01*
X0158190Y0064054D01*
X0158241Y0064101D01*
X0158289Y0064150D01*
X0158334Y0064202D01*
X0158376Y0064257D01*
X0158415Y0064313D01*
X0158452Y0064372D01*
X0158484Y0064433D01*
X0158514Y0064495D01*
X0158540Y0064559D01*
X0158562Y0064624D01*
X0158581Y0064690D01*
X0158596Y0064757D01*
X0158607Y0064825D01*
X0158615Y0064894D01*
X0158619Y0064963D01*
X0158619Y0065031D01*
X0158615Y0065100D01*
X0158607Y0065169D01*
X0158596Y0065237D01*
X0158581Y0065304D01*
X0158562Y0065370D01*
X0158540Y0065435D01*
X0158514Y0065499D01*
X0158484Y0065561D01*
X0158452Y0065622D01*
X0158415Y0065681D01*
X0158376Y0065737D01*
X0158334Y0065792D01*
X0158289Y0065844D01*
X0158241Y0065893D01*
X0158190Y0065940D01*
X0158137Y0065983D01*
X0158081Y0066024D01*
X0158024Y0066062D01*
X0157964Y0066096D01*
X0157902Y0066127D01*
X0157839Y0066155D01*
X0157775Y0066179D01*
X0157709Y0066200D01*
X0157642Y0066217D01*
X0157575Y0066230D01*
X0157507Y0066239D01*
X0157438Y0066245D01*
X0157369Y0066247D01*
X0157300Y0066245D01*
X0157231Y0066239D01*
X0157163Y0066230D01*
X0157096Y0066217D01*
X0157029Y0066200D01*
X0156963Y0066179D01*
X0156899Y0066155D01*
X0156836Y0066127D01*
X0156774Y0066096D01*
X0156714Y0066062D01*
X0156657Y0066024D01*
X0156601Y0065983D01*
X0156548Y0065940D01*
X0156497Y0065893D01*
X0156449Y0065844D01*
X0156404Y0065792D01*
X0156362Y0065737D01*
X0156323Y0065681D01*
X0156286Y0065622D01*
X0156254Y0065561D01*
X0156224Y0065499D01*
X0156198Y0065435D01*
X0156176Y0065370D01*
X0156157Y0065304D01*
X0156142Y0065237D01*
X0156131Y0065169D01*
X0156123Y0065100D01*
X0156119Y0065031D01*
X0156119Y0064963D01*
X0156123Y0064894D01*
X0156131Y0064825D01*
X0156142Y0064757D01*
X0156157Y0064690D01*
X0156176Y0064624D01*
X0156198Y0064559D01*
X0156224Y0064495D01*
X0156254Y0064433D01*
X0156286Y0064372D01*
X0156323Y0064313D01*
X0156362Y0064257D01*
X0156404Y0064202D01*
X0156449Y0064150D01*
X0156497Y0064101D01*
X0156548Y0064054D01*
X0156601Y0064011D01*
X0156657Y0063970D01*
X0156714Y0063932D01*
X0156774Y0063898D01*
X0156836Y0063867D01*
X0156899Y0063839D01*
X0156963Y0063815D01*
X0157029Y0063794D01*
X0157096Y0063777D01*
X0157163Y0063764D01*
X0157231Y0063755D01*
X0157300Y0063749D01*
X0157369Y0063747D01*
X0155119Y0063997D02*
X0155181Y0063999D01*
X0155242Y0064005D01*
X0155303Y0064014D01*
X0155363Y0064027D01*
X0155422Y0064044D01*
X0155480Y0064065D01*
X0155537Y0064089D01*
X0155592Y0064116D01*
X0155645Y0064147D01*
X0155697Y0064181D01*
X0155746Y0064218D01*
X0155793Y0064258D01*
X0155837Y0064301D01*
X0155878Y0064346D01*
X0155917Y0064394D01*
X0155953Y0064445D01*
X0155985Y0064497D01*
X0156014Y0064551D01*
X0156040Y0064607D01*
X0156062Y0064665D01*
X0156081Y0064723D01*
X0156096Y0064783D01*
X0156107Y0064844D01*
X0156115Y0064905D01*
X0156119Y0064966D01*
X0156119Y0065028D01*
X0156115Y0065089D01*
X0156107Y0065150D01*
X0156096Y0065211D01*
X0156081Y0065271D01*
X0156062Y0065329D01*
X0156040Y0065387D01*
X0156014Y0065443D01*
X0155985Y0065497D01*
X0155953Y0065549D01*
X0155917Y0065600D01*
X0155878Y0065648D01*
X0155837Y0065693D01*
X0155793Y0065736D01*
X0155746Y0065776D01*
X0155697Y0065813D01*
X0155645Y0065847D01*
X0155592Y0065878D01*
X0155537Y0065905D01*
X0155480Y0065929D01*
X0155422Y0065950D01*
X0155363Y0065967D01*
X0155303Y0065980D01*
X0155242Y0065989D01*
X0155181Y0065995D01*
X0155119Y0065997D01*
X0155057Y0065995D01*
X0154996Y0065989D01*
X0154935Y0065980D01*
X0154875Y0065967D01*
X0154816Y0065950D01*
X0154758Y0065929D01*
X0154701Y0065905D01*
X0154646Y0065878D01*
X0154593Y0065847D01*
X0154541Y0065813D01*
X0154492Y0065776D01*
X0154445Y0065736D01*
X0154401Y0065693D01*
X0154360Y0065648D01*
X0154321Y0065600D01*
X0154285Y0065549D01*
X0154253Y0065497D01*
X0154224Y0065443D01*
X0154198Y0065387D01*
X0154176Y0065329D01*
X0154157Y0065271D01*
X0154142Y0065211D01*
X0154131Y0065150D01*
X0154123Y0065089D01*
X0154119Y0065028D01*
X0154119Y0064966D01*
X0154123Y0064905D01*
X0154131Y0064844D01*
X0154142Y0064783D01*
X0154157Y0064723D01*
X0154176Y0064665D01*
X0154198Y0064607D01*
X0154224Y0064551D01*
X0154253Y0064497D01*
X0154285Y0064445D01*
X0154321Y0064394D01*
X0154360Y0064346D01*
X0154401Y0064301D01*
X0154445Y0064258D01*
X0154492Y0064218D01*
X0154541Y0064181D01*
X0154593Y0064147D01*
X0154646Y0064116D01*
X0154701Y0064089D01*
X0154758Y0064065D01*
X0154816Y0064044D01*
X0154875Y0064027D01*
X0154935Y0064014D01*
X0154996Y0064005D01*
X0155057Y0063999D01*
X0155119Y0063997D01*
X0166915Y0060722D02*
X0166915Y0059472D01*
X0171415Y0059472D01*
X0169415Y0059472D02*
X0169415Y0060722D01*
X0169413Y0060791D01*
X0169407Y0060860D01*
X0169398Y0060928D01*
X0169385Y0060995D01*
X0169368Y0061062D01*
X0169347Y0061128D01*
X0169323Y0061192D01*
X0169295Y0061255D01*
X0169264Y0061317D01*
X0169230Y0061377D01*
X0169192Y0061434D01*
X0169151Y0061490D01*
X0169108Y0061543D01*
X0169061Y0061594D01*
X0169012Y0061642D01*
X0168960Y0061687D01*
X0168905Y0061729D01*
X0168849Y0061768D01*
X0168790Y0061805D01*
X0168729Y0061837D01*
X0168667Y0061867D01*
X0168603Y0061893D01*
X0168538Y0061915D01*
X0168472Y0061934D01*
X0168405Y0061949D01*
X0168337Y0061960D01*
X0168268Y0061968D01*
X0168199Y0061972D01*
X0168131Y0061972D01*
X0168062Y0061968D01*
X0167993Y0061960D01*
X0167925Y0061949D01*
X0167858Y0061934D01*
X0167792Y0061915D01*
X0167727Y0061893D01*
X0167663Y0061867D01*
X0167601Y0061837D01*
X0167540Y0061805D01*
X0167481Y0061768D01*
X0167425Y0061729D01*
X0167370Y0061687D01*
X0167318Y0061642D01*
X0167269Y0061594D01*
X0167222Y0061543D01*
X0167179Y0061490D01*
X0167138Y0061434D01*
X0167100Y0061377D01*
X0167066Y0061317D01*
X0167035Y0061255D01*
X0167007Y0061192D01*
X0166983Y0061128D01*
X0166962Y0061062D01*
X0166945Y0060995D01*
X0166932Y0060928D01*
X0166923Y0060860D01*
X0166917Y0060791D01*
X0166915Y0060722D01*
X0168165Y0063747D02*
X0168415Y0063747D01*
X0168475Y0063749D01*
X0168536Y0063754D01*
X0168595Y0063763D01*
X0168654Y0063776D01*
X0168713Y0063792D01*
X0168770Y0063812D01*
X0168825Y0063835D01*
X0168880Y0063862D01*
X0168932Y0063891D01*
X0168983Y0063924D01*
X0169032Y0063960D01*
X0169078Y0063998D01*
X0169122Y0064040D01*
X0169164Y0064084D01*
X0169202Y0064130D01*
X0169238Y0064179D01*
X0169271Y0064230D01*
X0169300Y0064282D01*
X0169327Y0064337D01*
X0169350Y0064392D01*
X0169370Y0064449D01*
X0169386Y0064508D01*
X0169399Y0064567D01*
X0169408Y0064626D01*
X0169413Y0064687D01*
X0169415Y0064747D01*
X0169415Y0066247D01*
X0168165Y0066247D01*
X0168096Y0066245D01*
X0168027Y0066239D01*
X0167959Y0066230D01*
X0167892Y0066217D01*
X0167825Y0066200D01*
X0167759Y0066179D01*
X0167695Y0066155D01*
X0167632Y0066127D01*
X0167570Y0066096D01*
X0167510Y0066062D01*
X0167453Y0066024D01*
X0167397Y0065983D01*
X0167344Y0065940D01*
X0167293Y0065893D01*
X0167245Y0065844D01*
X0167200Y0065792D01*
X0167158Y0065737D01*
X0167119Y0065681D01*
X0167082Y0065622D01*
X0167050Y0065561D01*
X0167020Y0065499D01*
X0166994Y0065435D01*
X0166972Y0065370D01*
X0166953Y0065304D01*
X0166938Y0065237D01*
X0166927Y0065169D01*
X0166919Y0065100D01*
X0166915Y0065031D01*
X0166915Y0064963D01*
X0166919Y0064894D01*
X0166927Y0064825D01*
X0166938Y0064757D01*
X0166953Y0064690D01*
X0166972Y0064624D01*
X0166994Y0064559D01*
X0167020Y0064495D01*
X0167050Y0064433D01*
X0167082Y0064372D01*
X0167119Y0064313D01*
X0167158Y0064257D01*
X0167200Y0064202D01*
X0167245Y0064150D01*
X0167293Y0064101D01*
X0167344Y0064054D01*
X0167397Y0064011D01*
X0167453Y0063970D01*
X0167510Y0063932D01*
X0167570Y0063898D01*
X0167632Y0063867D01*
X0167695Y0063839D01*
X0167759Y0063815D01*
X0167825Y0063794D01*
X0167892Y0063777D01*
X0167959Y0063764D01*
X0168027Y0063755D01*
X0168096Y0063749D01*
X0168165Y0063747D01*
X0169415Y0066247D02*
X0169502Y0066245D01*
X0169589Y0066239D01*
X0169676Y0066230D01*
X0169762Y0066217D01*
X0169848Y0066200D01*
X0169933Y0066179D01*
X0170016Y0066154D01*
X0170099Y0066126D01*
X0170180Y0066095D01*
X0170260Y0066060D01*
X0170338Y0066021D01*
X0170415Y0065979D01*
X0170490Y0065934D01*
X0170562Y0065885D01*
X0170633Y0065834D01*
X0170701Y0065779D01*
X0170766Y0065722D01*
X0170829Y0065661D01*
X0170890Y0065598D01*
X0170947Y0065533D01*
X0171002Y0065465D01*
X0171053Y0065394D01*
X0171102Y0065322D01*
X0171147Y0065247D01*
X0171189Y0065170D01*
X0171228Y0065092D01*
X0171263Y0065012D01*
X0171294Y0064931D01*
X0171322Y0064848D01*
X0171347Y0064765D01*
X0171368Y0064680D01*
X0171385Y0064594D01*
X0171398Y0064508D01*
X0171407Y0064421D01*
X0171413Y0064334D01*
X0171415Y0064247D01*
X0170415Y0057117D02*
X0166915Y0057117D01*
X0170415Y0057117D02*
X0170475Y0057115D01*
X0170536Y0057110D01*
X0170595Y0057101D01*
X0170654Y0057088D01*
X0170713Y0057072D01*
X0170770Y0057052D01*
X0170825Y0057029D01*
X0170880Y0057002D01*
X0170932Y0056973D01*
X0170983Y0056940D01*
X0171032Y0056904D01*
X0171078Y0056866D01*
X0171122Y0056824D01*
X0171164Y0056780D01*
X0171202Y0056734D01*
X0171238Y0056685D01*
X0171271Y0056634D01*
X0171300Y0056582D01*
X0171327Y0056527D01*
X0171350Y0056472D01*
X0171370Y0056415D01*
X0171386Y0056356D01*
X0171399Y0056297D01*
X0171408Y0056238D01*
X0171413Y0056177D01*
X0171415Y0056117D01*
X0171415Y0055617D01*
X0179710Y0056222D02*
X0179710Y0054972D01*
X0184210Y0054972D01*
X0182210Y0054972D02*
X0182210Y0056222D01*
X0182208Y0056291D01*
X0182202Y0056360D01*
X0182193Y0056428D01*
X0182180Y0056495D01*
X0182163Y0056562D01*
X0182142Y0056628D01*
X0182118Y0056692D01*
X0182090Y0056755D01*
X0182059Y0056817D01*
X0182025Y0056877D01*
X0181987Y0056934D01*
X0181946Y0056990D01*
X0181903Y0057043D01*
X0181856Y0057094D01*
X0181807Y0057142D01*
X0181755Y0057187D01*
X0181700Y0057229D01*
X0181644Y0057268D01*
X0181585Y0057305D01*
X0181524Y0057337D01*
X0181462Y0057367D01*
X0181398Y0057393D01*
X0181333Y0057415D01*
X0181267Y0057434D01*
X0181200Y0057449D01*
X0181132Y0057460D01*
X0181063Y0057468D01*
X0180994Y0057472D01*
X0180926Y0057472D01*
X0180857Y0057468D01*
X0180788Y0057460D01*
X0180720Y0057449D01*
X0180653Y0057434D01*
X0180587Y0057415D01*
X0180522Y0057393D01*
X0180458Y0057367D01*
X0180396Y0057337D01*
X0180335Y0057305D01*
X0180276Y0057268D01*
X0180220Y0057229D01*
X0180165Y0057187D01*
X0180113Y0057142D01*
X0180064Y0057094D01*
X0180017Y0057043D01*
X0179974Y0056990D01*
X0179933Y0056934D01*
X0179895Y0056877D01*
X0179861Y0056817D01*
X0179830Y0056755D01*
X0179802Y0056692D01*
X0179778Y0056628D01*
X0179757Y0056562D01*
X0179740Y0056495D01*
X0179727Y0056428D01*
X0179718Y0056360D01*
X0179712Y0056291D01*
X0179710Y0056222D01*
X0180710Y0059247D02*
X0179710Y0060497D01*
X0184210Y0060497D01*
X0184210Y0059247D02*
X0184210Y0061747D01*
X0183585Y0065872D02*
X0183476Y0065923D01*
X0183366Y0065970D01*
X0183254Y0066014D01*
X0183140Y0066054D01*
X0183026Y0066090D01*
X0182910Y0066123D01*
X0182794Y0066152D01*
X0182676Y0066177D01*
X0182558Y0066198D01*
X0182439Y0066216D01*
X0182320Y0066229D01*
X0182200Y0066239D01*
X0182080Y0066245D01*
X0181960Y0066247D01*
X0181960Y0063747D02*
X0182080Y0063749D01*
X0182200Y0063755D01*
X0182320Y0063765D01*
X0182439Y0063778D01*
X0182558Y0063796D01*
X0182676Y0063817D01*
X0182794Y0063842D01*
X0182910Y0063871D01*
X0183026Y0063904D01*
X0183140Y0063940D01*
X0183254Y0063980D01*
X0183366Y0064024D01*
X0183476Y0064071D01*
X0183585Y0064122D01*
X0183210Y0063997D02*
X0180710Y0065997D01*
X0180335Y0065872D02*
X0180279Y0065851D01*
X0180224Y0065825D01*
X0180170Y0065797D01*
X0180119Y0065765D01*
X0180070Y0065730D01*
X0180024Y0065691D01*
X0179980Y0065650D01*
X0179938Y0065606D01*
X0179900Y0065559D01*
X0179865Y0065510D01*
X0179833Y0065458D01*
X0179805Y0065405D01*
X0179780Y0065350D01*
X0179759Y0065294D01*
X0179741Y0065236D01*
X0179728Y0065177D01*
X0179718Y0065117D01*
X0179712Y0065057D01*
X0179710Y0064997D01*
X0179712Y0064937D01*
X0179718Y0064877D01*
X0179728Y0064817D01*
X0179741Y0064758D01*
X0179759Y0064700D01*
X0179780Y0064644D01*
X0179805Y0064589D01*
X0179833Y0064536D01*
X0179865Y0064484D01*
X0179900Y0064435D01*
X0179938Y0064388D01*
X0179980Y0064344D01*
X0180024Y0064303D01*
X0180070Y0064264D01*
X0180119Y0064229D01*
X0180170Y0064197D01*
X0180224Y0064169D01*
X0180279Y0064143D01*
X0180335Y0064122D01*
X0180335Y0065872D02*
X0180444Y0065923D01*
X0180554Y0065970D01*
X0180666Y0066014D01*
X0180780Y0066054D01*
X0180894Y0066090D01*
X0181010Y0066123D01*
X0181126Y0066152D01*
X0181244Y0066177D01*
X0181362Y0066198D01*
X0181481Y0066216D01*
X0181600Y0066229D01*
X0181720Y0066239D01*
X0181840Y0066245D01*
X0181960Y0066247D01*
X0181960Y0063747D02*
X0181840Y0063749D01*
X0181720Y0063755D01*
X0181600Y0063765D01*
X0181481Y0063778D01*
X0181362Y0063796D01*
X0181244Y0063817D01*
X0181126Y0063842D01*
X0181010Y0063871D01*
X0180894Y0063904D01*
X0180780Y0063940D01*
X0180666Y0063980D01*
X0180554Y0064024D01*
X0180444Y0064071D01*
X0180335Y0064122D01*
X0183585Y0065872D02*
X0183641Y0065851D01*
X0183696Y0065825D01*
X0183750Y0065797D01*
X0183801Y0065765D01*
X0183850Y0065730D01*
X0183896Y0065691D01*
X0183940Y0065650D01*
X0183982Y0065606D01*
X0184020Y0065559D01*
X0184055Y0065510D01*
X0184087Y0065458D01*
X0184115Y0065405D01*
X0184140Y0065350D01*
X0184161Y0065294D01*
X0184179Y0065236D01*
X0184192Y0065177D01*
X0184202Y0065117D01*
X0184208Y0065057D01*
X0184210Y0064997D01*
X0184208Y0064937D01*
X0184202Y0064877D01*
X0184192Y0064817D01*
X0184179Y0064758D01*
X0184161Y0064700D01*
X0184140Y0064644D01*
X0184115Y0064589D01*
X0184087Y0064536D01*
X0184055Y0064484D01*
X0184020Y0064435D01*
X0183982Y0064388D01*
X0183940Y0064344D01*
X0183896Y0064303D01*
X0183850Y0064264D01*
X0183801Y0064229D01*
X0183750Y0064197D01*
X0183696Y0064169D01*
X0183641Y0064143D01*
X0183585Y0064122D01*
X0192505Y0064997D02*
X0197005Y0064997D01*
X0197005Y0063747D02*
X0197005Y0066247D01*
X0193505Y0063747D02*
X0192505Y0064997D01*
X0192505Y0060497D02*
X0197005Y0060497D01*
X0197005Y0059247D02*
X0197005Y0061747D01*
X0193505Y0059247D02*
X0192505Y0060497D01*
X0192505Y0056222D02*
X0192505Y0054972D01*
X0197005Y0054972D01*
X0195005Y0054972D02*
X0195005Y0056222D01*
X0195003Y0056291D01*
X0194997Y0056360D01*
X0194988Y0056428D01*
X0194975Y0056495D01*
X0194958Y0056562D01*
X0194937Y0056628D01*
X0194913Y0056692D01*
X0194885Y0056755D01*
X0194854Y0056817D01*
X0194820Y0056877D01*
X0194782Y0056934D01*
X0194741Y0056990D01*
X0194698Y0057043D01*
X0194651Y0057094D01*
X0194602Y0057142D01*
X0194550Y0057187D01*
X0194495Y0057229D01*
X0194439Y0057268D01*
X0194380Y0057305D01*
X0194319Y0057337D01*
X0194257Y0057367D01*
X0194193Y0057393D01*
X0194128Y0057415D01*
X0194062Y0057434D01*
X0193995Y0057449D01*
X0193927Y0057460D01*
X0193858Y0057468D01*
X0193789Y0057472D01*
X0193721Y0057472D01*
X0193652Y0057468D01*
X0193583Y0057460D01*
X0193515Y0057449D01*
X0193448Y0057434D01*
X0193382Y0057415D01*
X0193317Y0057393D01*
X0193253Y0057367D01*
X0193191Y0057337D01*
X0193130Y0057305D01*
X0193071Y0057268D01*
X0193015Y0057229D01*
X0192960Y0057187D01*
X0192908Y0057142D01*
X0192859Y0057094D01*
X0192812Y0057043D01*
X0192769Y0056990D01*
X0192728Y0056934D01*
X0192690Y0056877D01*
X0192656Y0056817D01*
X0192625Y0056755D01*
X0192597Y0056692D01*
X0192573Y0056628D01*
X0192552Y0056562D01*
X0192535Y0056495D01*
X0192522Y0056428D01*
X0192513Y0056360D01*
X0192507Y0056291D01*
X0192505Y0056222D01*
X0192505Y0052617D02*
X0196005Y0052617D01*
X0196065Y0052615D01*
X0196126Y0052610D01*
X0196185Y0052601D01*
X0196244Y0052588D01*
X0196303Y0052572D01*
X0196360Y0052552D01*
X0196415Y0052529D01*
X0196470Y0052502D01*
X0196522Y0052473D01*
X0196573Y0052440D01*
X0196622Y0052404D01*
X0196668Y0052366D01*
X0196712Y0052324D01*
X0196754Y0052280D01*
X0196792Y0052234D01*
X0196828Y0052185D01*
X0196861Y0052134D01*
X0196890Y0052082D01*
X0196917Y0052027D01*
X0196940Y0051972D01*
X0196960Y0051915D01*
X0196976Y0051856D01*
X0196989Y0051797D01*
X0196998Y0051738D01*
X0197003Y0051677D01*
X0197005Y0051617D01*
X0197005Y0051117D01*
X0205300Y0052617D02*
X0208800Y0052617D01*
X0208860Y0052615D01*
X0208921Y0052610D01*
X0208980Y0052601D01*
X0209039Y0052588D01*
X0209098Y0052572D01*
X0209155Y0052552D01*
X0209210Y0052529D01*
X0209265Y0052502D01*
X0209317Y0052473D01*
X0209368Y0052440D01*
X0209417Y0052404D01*
X0209463Y0052366D01*
X0209507Y0052324D01*
X0209549Y0052280D01*
X0209587Y0052234D01*
X0209623Y0052185D01*
X0209656Y0052134D01*
X0209685Y0052082D01*
X0209712Y0052027D01*
X0209735Y0051972D01*
X0209755Y0051915D01*
X0209771Y0051856D01*
X0209784Y0051797D01*
X0209793Y0051738D01*
X0209798Y0051677D01*
X0209800Y0051617D01*
X0209800Y0051117D01*
X0209800Y0054972D02*
X0205300Y0054972D01*
X0205300Y0056222D01*
X0205302Y0056291D01*
X0205308Y0056360D01*
X0205317Y0056428D01*
X0205330Y0056495D01*
X0205347Y0056562D01*
X0205368Y0056628D01*
X0205392Y0056692D01*
X0205420Y0056755D01*
X0205451Y0056817D01*
X0205485Y0056877D01*
X0205523Y0056934D01*
X0205564Y0056990D01*
X0205607Y0057043D01*
X0205654Y0057094D01*
X0205703Y0057142D01*
X0205755Y0057187D01*
X0205810Y0057229D01*
X0205866Y0057268D01*
X0205925Y0057305D01*
X0205986Y0057337D01*
X0206048Y0057367D01*
X0206112Y0057393D01*
X0206177Y0057415D01*
X0206243Y0057434D01*
X0206310Y0057449D01*
X0206378Y0057460D01*
X0206447Y0057468D01*
X0206516Y0057472D01*
X0206584Y0057472D01*
X0206653Y0057468D01*
X0206722Y0057460D01*
X0206790Y0057449D01*
X0206857Y0057434D01*
X0206923Y0057415D01*
X0206988Y0057393D01*
X0207052Y0057367D01*
X0207114Y0057337D01*
X0207175Y0057305D01*
X0207234Y0057268D01*
X0207290Y0057229D01*
X0207345Y0057187D01*
X0207397Y0057142D01*
X0207446Y0057094D01*
X0207493Y0057043D01*
X0207536Y0056990D01*
X0207577Y0056934D01*
X0207615Y0056877D01*
X0207649Y0056817D01*
X0207680Y0056755D01*
X0207708Y0056692D01*
X0207732Y0056628D01*
X0207753Y0056562D01*
X0207770Y0056495D01*
X0207783Y0056428D01*
X0207792Y0056360D01*
X0207798Y0056291D01*
X0207800Y0056222D01*
X0207800Y0054972D01*
X0206300Y0059247D02*
X0205300Y0060497D01*
X0209800Y0060497D01*
X0209800Y0059247D02*
X0209800Y0061747D01*
X0209800Y0063747D02*
X0207300Y0065872D01*
X0205301Y0065122D02*
X0205303Y0065049D01*
X0205308Y0064977D01*
X0205317Y0064905D01*
X0205330Y0064833D01*
X0205346Y0064762D01*
X0205366Y0064692D01*
X0205390Y0064624D01*
X0205416Y0064556D01*
X0205447Y0064490D01*
X0205480Y0064425D01*
X0205517Y0064363D01*
X0205556Y0064302D01*
X0205599Y0064243D01*
X0205645Y0064186D01*
X0205693Y0064132D01*
X0205744Y0064081D01*
X0205798Y0064031D01*
X0205854Y0063985D01*
X0205912Y0063942D01*
X0205973Y0063901D01*
X0206035Y0063864D01*
X0206099Y0063830D01*
X0206165Y0063799D01*
X0206232Y0063771D01*
X0206301Y0063747D01*
X0207300Y0065872D02*
X0207254Y0065918D01*
X0207205Y0065962D01*
X0207154Y0066002D01*
X0207101Y0066040D01*
X0207046Y0066075D01*
X0206989Y0066107D01*
X0206931Y0066136D01*
X0206871Y0066162D01*
X0206809Y0066184D01*
X0206747Y0066203D01*
X0206684Y0066219D01*
X0206620Y0066231D01*
X0206555Y0066240D01*
X0206490Y0066245D01*
X0206425Y0066247D01*
X0206360Y0066245D01*
X0206294Y0066239D01*
X0206230Y0066230D01*
X0206166Y0066217D01*
X0206102Y0066200D01*
X0206040Y0066179D01*
X0205979Y0066155D01*
X0205920Y0066127D01*
X0205863Y0066096D01*
X0205807Y0066062D01*
X0205753Y0066024D01*
X0205702Y0065984D01*
X0205653Y0065940D01*
X0205607Y0065894D01*
X0205563Y0065845D01*
X0205523Y0065794D01*
X0205485Y0065740D01*
X0205451Y0065685D01*
X0205420Y0065627D01*
X0205392Y0065568D01*
X0205368Y0065507D01*
X0205347Y0065445D01*
X0205330Y0065381D01*
X0205317Y0065317D01*
X0205308Y0065253D01*
X0205302Y0065187D01*
X0205300Y0065122D01*
X0209800Y0066247D02*
X0209800Y0063747D01*
X0218096Y0063747D02*
X0218096Y0065247D01*
X0218098Y0065309D01*
X0218104Y0065370D01*
X0218113Y0065431D01*
X0218126Y0065491D01*
X0218143Y0065550D01*
X0218164Y0065608D01*
X0218188Y0065665D01*
X0218215Y0065720D01*
X0218246Y0065773D01*
X0218280Y0065825D01*
X0218317Y0065874D01*
X0218357Y0065921D01*
X0218400Y0065965D01*
X0218445Y0066006D01*
X0218493Y0066045D01*
X0218544Y0066081D01*
X0218596Y0066113D01*
X0218650Y0066142D01*
X0218706Y0066168D01*
X0218764Y0066190D01*
X0218822Y0066209D01*
X0218882Y0066224D01*
X0218943Y0066235D01*
X0219004Y0066243D01*
X0219065Y0066247D01*
X0219127Y0066247D01*
X0219188Y0066243D01*
X0219249Y0066235D01*
X0219310Y0066224D01*
X0219370Y0066209D01*
X0219428Y0066190D01*
X0219486Y0066168D01*
X0219542Y0066142D01*
X0219596Y0066113D01*
X0219648Y0066081D01*
X0219699Y0066045D01*
X0219747Y0066006D01*
X0219792Y0065965D01*
X0219835Y0065921D01*
X0219875Y0065874D01*
X0219912Y0065825D01*
X0219946Y0065773D01*
X0219977Y0065720D01*
X0220004Y0065665D01*
X0220028Y0065608D01*
X0220049Y0065550D01*
X0220066Y0065491D01*
X0220079Y0065431D01*
X0220088Y0065370D01*
X0220094Y0065309D01*
X0220096Y0065247D01*
X0220096Y0064247D01*
X0220096Y0064997D02*
X0220098Y0065066D01*
X0220104Y0065135D01*
X0220113Y0065203D01*
X0220126Y0065270D01*
X0220143Y0065337D01*
X0220164Y0065403D01*
X0220188Y0065467D01*
X0220216Y0065530D01*
X0220247Y0065592D01*
X0220281Y0065652D01*
X0220319Y0065709D01*
X0220360Y0065765D01*
X0220403Y0065818D01*
X0220450Y0065869D01*
X0220499Y0065917D01*
X0220551Y0065962D01*
X0220606Y0066004D01*
X0220662Y0066043D01*
X0220721Y0066080D01*
X0220782Y0066112D01*
X0220844Y0066142D01*
X0220908Y0066168D01*
X0220973Y0066190D01*
X0221039Y0066209D01*
X0221106Y0066224D01*
X0221174Y0066235D01*
X0221243Y0066243D01*
X0221312Y0066247D01*
X0221380Y0066247D01*
X0221449Y0066243D01*
X0221518Y0066235D01*
X0221586Y0066224D01*
X0221653Y0066209D01*
X0221719Y0066190D01*
X0221784Y0066168D01*
X0221848Y0066142D01*
X0221910Y0066112D01*
X0221971Y0066080D01*
X0222030Y0066043D01*
X0222086Y0066004D01*
X0222141Y0065962D01*
X0222193Y0065917D01*
X0222242Y0065869D01*
X0222289Y0065818D01*
X0222332Y0065765D01*
X0222373Y0065709D01*
X0222411Y0065652D01*
X0222445Y0065592D01*
X0222476Y0065530D01*
X0222504Y0065467D01*
X0222528Y0065403D01*
X0222549Y0065337D01*
X0222566Y0065270D01*
X0222579Y0065203D01*
X0222588Y0065135D01*
X0222594Y0065066D01*
X0222596Y0064997D01*
X0222596Y0063747D01*
X0222596Y0061747D02*
X0222596Y0059247D01*
X0222596Y0060497D02*
X0218096Y0060497D01*
X0219096Y0059247D01*
X0218096Y0056222D02*
X0218098Y0056291D01*
X0218104Y0056360D01*
X0218113Y0056428D01*
X0218126Y0056495D01*
X0218143Y0056562D01*
X0218164Y0056628D01*
X0218188Y0056692D01*
X0218216Y0056755D01*
X0218247Y0056817D01*
X0218281Y0056877D01*
X0218319Y0056934D01*
X0218360Y0056990D01*
X0218403Y0057043D01*
X0218450Y0057094D01*
X0218499Y0057142D01*
X0218551Y0057187D01*
X0218606Y0057229D01*
X0218662Y0057268D01*
X0218721Y0057305D01*
X0218782Y0057337D01*
X0218844Y0057367D01*
X0218908Y0057393D01*
X0218973Y0057415D01*
X0219039Y0057434D01*
X0219106Y0057449D01*
X0219174Y0057460D01*
X0219243Y0057468D01*
X0219312Y0057472D01*
X0219380Y0057472D01*
X0219449Y0057468D01*
X0219518Y0057460D01*
X0219586Y0057449D01*
X0219653Y0057434D01*
X0219719Y0057415D01*
X0219784Y0057393D01*
X0219848Y0057367D01*
X0219910Y0057337D01*
X0219971Y0057305D01*
X0220030Y0057268D01*
X0220086Y0057229D01*
X0220141Y0057187D01*
X0220193Y0057142D01*
X0220242Y0057094D01*
X0220289Y0057043D01*
X0220332Y0056990D01*
X0220373Y0056934D01*
X0220411Y0056877D01*
X0220445Y0056817D01*
X0220476Y0056755D01*
X0220504Y0056692D01*
X0220528Y0056628D01*
X0220549Y0056562D01*
X0220566Y0056495D01*
X0220579Y0056428D01*
X0220588Y0056360D01*
X0220594Y0056291D01*
X0220596Y0056222D01*
X0220596Y0054972D01*
X0222596Y0054972D02*
X0218096Y0054972D01*
X0218096Y0056222D01*
X0218096Y0052617D02*
X0221596Y0052617D01*
X0221656Y0052615D01*
X0221717Y0052610D01*
X0221776Y0052601D01*
X0221835Y0052588D01*
X0221894Y0052572D01*
X0221951Y0052552D01*
X0222006Y0052529D01*
X0222061Y0052502D01*
X0222113Y0052473D01*
X0222164Y0052440D01*
X0222213Y0052404D01*
X0222259Y0052366D01*
X0222303Y0052324D01*
X0222345Y0052280D01*
X0222383Y0052234D01*
X0222419Y0052185D01*
X0222452Y0052134D01*
X0222481Y0052082D01*
X0222508Y0052027D01*
X0222531Y0051972D01*
X0222551Y0051915D01*
X0222567Y0051856D01*
X0222580Y0051797D01*
X0222589Y0051738D01*
X0222594Y0051677D01*
X0222596Y0051617D01*
X0222596Y0051117D01*
X0230891Y0052617D02*
X0234391Y0052617D01*
X0234451Y0052615D01*
X0234512Y0052610D01*
X0234571Y0052601D01*
X0234630Y0052588D01*
X0234689Y0052572D01*
X0234746Y0052552D01*
X0234801Y0052529D01*
X0234856Y0052502D01*
X0234908Y0052473D01*
X0234959Y0052440D01*
X0235008Y0052404D01*
X0235054Y0052366D01*
X0235098Y0052324D01*
X0235140Y0052280D01*
X0235178Y0052234D01*
X0235214Y0052185D01*
X0235247Y0052134D01*
X0235276Y0052082D01*
X0235303Y0052027D01*
X0235326Y0051972D01*
X0235346Y0051915D01*
X0235362Y0051856D01*
X0235375Y0051797D01*
X0235384Y0051738D01*
X0235389Y0051677D01*
X0235391Y0051617D01*
X0235391Y0051117D01*
X0235391Y0054972D02*
X0230891Y0054972D01*
X0230891Y0056222D01*
X0230893Y0056291D01*
X0230899Y0056360D01*
X0230908Y0056428D01*
X0230921Y0056495D01*
X0230938Y0056562D01*
X0230959Y0056628D01*
X0230983Y0056692D01*
X0231011Y0056755D01*
X0231042Y0056817D01*
X0231076Y0056877D01*
X0231114Y0056934D01*
X0231155Y0056990D01*
X0231198Y0057043D01*
X0231245Y0057094D01*
X0231294Y0057142D01*
X0231346Y0057187D01*
X0231401Y0057229D01*
X0231457Y0057268D01*
X0231516Y0057305D01*
X0231577Y0057337D01*
X0231639Y0057367D01*
X0231703Y0057393D01*
X0231768Y0057415D01*
X0231834Y0057434D01*
X0231901Y0057449D01*
X0231969Y0057460D01*
X0232038Y0057468D01*
X0232107Y0057472D01*
X0232175Y0057472D01*
X0232244Y0057468D01*
X0232313Y0057460D01*
X0232381Y0057449D01*
X0232448Y0057434D01*
X0232514Y0057415D01*
X0232579Y0057393D01*
X0232643Y0057367D01*
X0232705Y0057337D01*
X0232766Y0057305D01*
X0232825Y0057268D01*
X0232881Y0057229D01*
X0232936Y0057187D01*
X0232988Y0057142D01*
X0233037Y0057094D01*
X0233084Y0057043D01*
X0233127Y0056990D01*
X0233168Y0056934D01*
X0233206Y0056877D01*
X0233240Y0056817D01*
X0233271Y0056755D01*
X0233299Y0056692D01*
X0233323Y0056628D01*
X0233344Y0056562D01*
X0233361Y0056495D01*
X0233374Y0056428D01*
X0233383Y0056360D01*
X0233389Y0056291D01*
X0233391Y0056222D01*
X0233391Y0054972D01*
X0231891Y0059247D02*
X0230891Y0060497D01*
X0235391Y0060497D01*
X0235391Y0059247D02*
X0235391Y0061747D01*
X0234391Y0063747D02*
X0230891Y0064747D01*
X0233391Y0065497D02*
X0235391Y0065497D01*
X0234391Y0066247D02*
X0234391Y0063747D01*
X0243686Y0063747D02*
X0243686Y0066247D01*
X0245686Y0065247D02*
X0245686Y0063747D01*
X0243686Y0063747D01*
X0243686Y0060497D02*
X0248186Y0060497D01*
X0248186Y0059247D02*
X0248186Y0061747D01*
X0248186Y0063747D02*
X0248186Y0065247D01*
X0248184Y0065307D01*
X0248179Y0065368D01*
X0248170Y0065427D01*
X0248157Y0065486D01*
X0248141Y0065545D01*
X0248121Y0065602D01*
X0248098Y0065657D01*
X0248071Y0065712D01*
X0248042Y0065764D01*
X0248009Y0065815D01*
X0247973Y0065864D01*
X0247935Y0065910D01*
X0247893Y0065954D01*
X0247849Y0065996D01*
X0247803Y0066034D01*
X0247754Y0066070D01*
X0247703Y0066103D01*
X0247651Y0066132D01*
X0247596Y0066159D01*
X0247541Y0066182D01*
X0247484Y0066202D01*
X0247425Y0066218D01*
X0247366Y0066231D01*
X0247307Y0066240D01*
X0247246Y0066245D01*
X0247186Y0066247D01*
X0246686Y0066247D01*
X0246626Y0066245D01*
X0246565Y0066240D01*
X0246506Y0066231D01*
X0246447Y0066218D01*
X0246388Y0066202D01*
X0246331Y0066182D01*
X0246276Y0066159D01*
X0246221Y0066132D01*
X0246169Y0066103D01*
X0246118Y0066070D01*
X0246069Y0066034D01*
X0246023Y0065996D01*
X0245979Y0065954D01*
X0245937Y0065910D01*
X0245899Y0065864D01*
X0245863Y0065815D01*
X0245830Y0065764D01*
X0245801Y0065712D01*
X0245774Y0065657D01*
X0245751Y0065602D01*
X0245731Y0065545D01*
X0245715Y0065486D01*
X0245702Y0065427D01*
X0245693Y0065368D01*
X0245688Y0065307D01*
X0245686Y0065247D01*
X0243686Y0060497D02*
X0244686Y0059247D01*
X0243686Y0056222D02*
X0243688Y0056291D01*
X0243694Y0056360D01*
X0243703Y0056428D01*
X0243716Y0056495D01*
X0243733Y0056562D01*
X0243754Y0056628D01*
X0243778Y0056692D01*
X0243806Y0056755D01*
X0243837Y0056817D01*
X0243871Y0056877D01*
X0243909Y0056934D01*
X0243950Y0056990D01*
X0243993Y0057043D01*
X0244040Y0057094D01*
X0244089Y0057142D01*
X0244141Y0057187D01*
X0244196Y0057229D01*
X0244252Y0057268D01*
X0244311Y0057305D01*
X0244372Y0057337D01*
X0244434Y0057367D01*
X0244498Y0057393D01*
X0244563Y0057415D01*
X0244629Y0057434D01*
X0244696Y0057449D01*
X0244764Y0057460D01*
X0244833Y0057468D01*
X0244902Y0057472D01*
X0244970Y0057472D01*
X0245039Y0057468D01*
X0245108Y0057460D01*
X0245176Y0057449D01*
X0245243Y0057434D01*
X0245309Y0057415D01*
X0245374Y0057393D01*
X0245438Y0057367D01*
X0245500Y0057337D01*
X0245561Y0057305D01*
X0245620Y0057268D01*
X0245676Y0057229D01*
X0245731Y0057187D01*
X0245783Y0057142D01*
X0245832Y0057094D01*
X0245879Y0057043D01*
X0245922Y0056990D01*
X0245963Y0056934D01*
X0246001Y0056877D01*
X0246035Y0056817D01*
X0246066Y0056755D01*
X0246094Y0056692D01*
X0246118Y0056628D01*
X0246139Y0056562D01*
X0246156Y0056495D01*
X0246169Y0056428D01*
X0246178Y0056360D01*
X0246184Y0056291D01*
X0246186Y0056222D01*
X0246186Y0054972D01*
X0248186Y0054972D02*
X0243686Y0054972D01*
X0243686Y0056222D01*
X0243686Y0052617D02*
X0247186Y0052617D01*
X0247246Y0052615D01*
X0247307Y0052610D01*
X0247366Y0052601D01*
X0247425Y0052588D01*
X0247484Y0052572D01*
X0247541Y0052552D01*
X0247596Y0052529D01*
X0247651Y0052502D01*
X0247703Y0052473D01*
X0247754Y0052440D01*
X0247803Y0052404D01*
X0247849Y0052366D01*
X0247893Y0052324D01*
X0247935Y0052280D01*
X0247973Y0052234D01*
X0248009Y0052185D01*
X0248042Y0052134D01*
X0248071Y0052082D01*
X0248098Y0052027D01*
X0248121Y0051972D01*
X0248141Y0051915D01*
X0248157Y0051856D01*
X0248170Y0051797D01*
X0248179Y0051738D01*
X0248184Y0051677D01*
X0248186Y0051617D01*
X0248186Y0051117D01*
X0256481Y0052617D02*
X0259981Y0052617D01*
X0260041Y0052615D01*
X0260102Y0052610D01*
X0260161Y0052601D01*
X0260220Y0052588D01*
X0260279Y0052572D01*
X0260336Y0052552D01*
X0260391Y0052529D01*
X0260446Y0052502D01*
X0260498Y0052473D01*
X0260549Y0052440D01*
X0260598Y0052404D01*
X0260644Y0052366D01*
X0260688Y0052324D01*
X0260730Y0052280D01*
X0260768Y0052234D01*
X0260804Y0052185D01*
X0260837Y0052134D01*
X0260866Y0052082D01*
X0260893Y0052027D01*
X0260916Y0051972D01*
X0260936Y0051915D01*
X0260952Y0051856D01*
X0260965Y0051797D01*
X0260974Y0051738D01*
X0260979Y0051677D01*
X0260981Y0051617D01*
X0260981Y0051117D01*
X0260981Y0054972D02*
X0256481Y0054972D01*
X0256481Y0056222D01*
X0256483Y0056291D01*
X0256489Y0056360D01*
X0256498Y0056428D01*
X0256511Y0056495D01*
X0256528Y0056562D01*
X0256549Y0056628D01*
X0256573Y0056692D01*
X0256601Y0056755D01*
X0256632Y0056817D01*
X0256666Y0056877D01*
X0256704Y0056934D01*
X0256745Y0056990D01*
X0256788Y0057043D01*
X0256835Y0057094D01*
X0256884Y0057142D01*
X0256936Y0057187D01*
X0256991Y0057229D01*
X0257047Y0057268D01*
X0257106Y0057305D01*
X0257167Y0057337D01*
X0257229Y0057367D01*
X0257293Y0057393D01*
X0257358Y0057415D01*
X0257424Y0057434D01*
X0257491Y0057449D01*
X0257559Y0057460D01*
X0257628Y0057468D01*
X0257697Y0057472D01*
X0257765Y0057472D01*
X0257834Y0057468D01*
X0257903Y0057460D01*
X0257971Y0057449D01*
X0258038Y0057434D01*
X0258104Y0057415D01*
X0258169Y0057393D01*
X0258233Y0057367D01*
X0258295Y0057337D01*
X0258356Y0057305D01*
X0258415Y0057268D01*
X0258471Y0057229D01*
X0258526Y0057187D01*
X0258578Y0057142D01*
X0258627Y0057094D01*
X0258674Y0057043D01*
X0258717Y0056990D01*
X0258758Y0056934D01*
X0258796Y0056877D01*
X0258830Y0056817D01*
X0258861Y0056755D01*
X0258889Y0056692D01*
X0258913Y0056628D01*
X0258934Y0056562D01*
X0258951Y0056495D01*
X0258964Y0056428D01*
X0258973Y0056360D01*
X0258979Y0056291D01*
X0258981Y0056222D01*
X0258981Y0054972D01*
X0257481Y0059247D02*
X0256481Y0060497D01*
X0260981Y0060497D01*
X0260981Y0059247D02*
X0260981Y0061747D01*
X0259731Y0063747D02*
X0258481Y0063747D01*
X0258481Y0065247D01*
X0258481Y0063747D02*
X0258394Y0063749D01*
X0258307Y0063755D01*
X0258220Y0063764D01*
X0258134Y0063777D01*
X0258048Y0063794D01*
X0257963Y0063815D01*
X0257880Y0063840D01*
X0257797Y0063868D01*
X0257716Y0063899D01*
X0257636Y0063934D01*
X0257558Y0063973D01*
X0257481Y0064015D01*
X0257406Y0064060D01*
X0257334Y0064109D01*
X0257263Y0064160D01*
X0257195Y0064215D01*
X0257130Y0064272D01*
X0257067Y0064333D01*
X0257006Y0064396D01*
X0256949Y0064461D01*
X0256894Y0064529D01*
X0256843Y0064600D01*
X0256794Y0064672D01*
X0256749Y0064747D01*
X0256707Y0064824D01*
X0256668Y0064902D01*
X0256633Y0064982D01*
X0256602Y0065063D01*
X0256574Y0065146D01*
X0256549Y0065229D01*
X0256528Y0065314D01*
X0256511Y0065400D01*
X0256498Y0065486D01*
X0256489Y0065573D01*
X0256483Y0065660D01*
X0256481Y0065747D01*
X0259481Y0066247D02*
X0259731Y0066247D01*
X0259481Y0066247D02*
X0259421Y0066245D01*
X0259360Y0066240D01*
X0259301Y0066231D01*
X0259242Y0066218D01*
X0259183Y0066202D01*
X0259126Y0066182D01*
X0259071Y0066159D01*
X0259016Y0066132D01*
X0258964Y0066103D01*
X0258913Y0066070D01*
X0258864Y0066034D01*
X0258818Y0065996D01*
X0258774Y0065954D01*
X0258732Y0065910D01*
X0258694Y0065864D01*
X0258658Y0065815D01*
X0258625Y0065764D01*
X0258596Y0065712D01*
X0258569Y0065657D01*
X0258546Y0065602D01*
X0258526Y0065545D01*
X0258510Y0065486D01*
X0258497Y0065427D01*
X0258488Y0065368D01*
X0258483Y0065307D01*
X0258481Y0065247D01*
X0259731Y0066247D02*
X0259800Y0066245D01*
X0259869Y0066239D01*
X0259937Y0066230D01*
X0260004Y0066217D01*
X0260071Y0066200D01*
X0260137Y0066179D01*
X0260201Y0066155D01*
X0260264Y0066127D01*
X0260326Y0066096D01*
X0260386Y0066062D01*
X0260443Y0066024D01*
X0260499Y0065983D01*
X0260552Y0065940D01*
X0260603Y0065893D01*
X0260651Y0065844D01*
X0260696Y0065792D01*
X0260738Y0065737D01*
X0260777Y0065681D01*
X0260814Y0065622D01*
X0260846Y0065561D01*
X0260876Y0065499D01*
X0260902Y0065435D01*
X0260924Y0065370D01*
X0260943Y0065304D01*
X0260958Y0065237D01*
X0260969Y0065169D01*
X0260977Y0065100D01*
X0260981Y0065031D01*
X0260981Y0064963D01*
X0260977Y0064894D01*
X0260969Y0064825D01*
X0260958Y0064757D01*
X0260943Y0064690D01*
X0260924Y0064624D01*
X0260902Y0064559D01*
X0260876Y0064495D01*
X0260846Y0064433D01*
X0260814Y0064372D01*
X0260777Y0064313D01*
X0260738Y0064257D01*
X0260696Y0064202D01*
X0260651Y0064150D01*
X0260603Y0064101D01*
X0260552Y0064054D01*
X0260499Y0064011D01*
X0260443Y0063970D01*
X0260386Y0063932D01*
X0260326Y0063898D01*
X0260264Y0063867D01*
X0260201Y0063839D01*
X0260137Y0063815D01*
X0260071Y0063794D01*
X0260004Y0063777D01*
X0259937Y0063764D01*
X0259869Y0063755D01*
X0259800Y0063749D01*
X0259731Y0063747D01*
X0269277Y0063747D02*
X0269277Y0066247D01*
X0273777Y0064997D01*
X0273777Y0061747D02*
X0273777Y0059247D01*
X0273777Y0060497D02*
X0269277Y0060497D01*
X0270277Y0059247D01*
X0269277Y0056222D02*
X0269279Y0056291D01*
X0269285Y0056360D01*
X0269294Y0056428D01*
X0269307Y0056495D01*
X0269324Y0056562D01*
X0269345Y0056628D01*
X0269369Y0056692D01*
X0269397Y0056755D01*
X0269428Y0056817D01*
X0269462Y0056877D01*
X0269500Y0056934D01*
X0269541Y0056990D01*
X0269584Y0057043D01*
X0269631Y0057094D01*
X0269680Y0057142D01*
X0269732Y0057187D01*
X0269787Y0057229D01*
X0269843Y0057268D01*
X0269902Y0057305D01*
X0269963Y0057337D01*
X0270025Y0057367D01*
X0270089Y0057393D01*
X0270154Y0057415D01*
X0270220Y0057434D01*
X0270287Y0057449D01*
X0270355Y0057460D01*
X0270424Y0057468D01*
X0270493Y0057472D01*
X0270561Y0057472D01*
X0270630Y0057468D01*
X0270699Y0057460D01*
X0270767Y0057449D01*
X0270834Y0057434D01*
X0270900Y0057415D01*
X0270965Y0057393D01*
X0271029Y0057367D01*
X0271091Y0057337D01*
X0271152Y0057305D01*
X0271211Y0057268D01*
X0271267Y0057229D01*
X0271322Y0057187D01*
X0271374Y0057142D01*
X0271423Y0057094D01*
X0271470Y0057043D01*
X0271513Y0056990D01*
X0271554Y0056934D01*
X0271592Y0056877D01*
X0271626Y0056817D01*
X0271657Y0056755D01*
X0271685Y0056692D01*
X0271709Y0056628D01*
X0271730Y0056562D01*
X0271747Y0056495D01*
X0271760Y0056428D01*
X0271769Y0056360D01*
X0271775Y0056291D01*
X0271777Y0056222D01*
X0271777Y0054972D01*
X0273777Y0054972D02*
X0269277Y0054972D01*
X0269277Y0056222D01*
X0269277Y0052617D02*
X0272777Y0052617D01*
X0272837Y0052615D01*
X0272898Y0052610D01*
X0272957Y0052601D01*
X0273016Y0052588D01*
X0273075Y0052572D01*
X0273132Y0052552D01*
X0273187Y0052529D01*
X0273242Y0052502D01*
X0273294Y0052473D01*
X0273345Y0052440D01*
X0273394Y0052404D01*
X0273440Y0052366D01*
X0273484Y0052324D01*
X0273526Y0052280D01*
X0273564Y0052234D01*
X0273600Y0052185D01*
X0273633Y0052134D01*
X0273662Y0052082D01*
X0273689Y0052027D01*
X0273712Y0051972D01*
X0273732Y0051915D01*
X0273748Y0051856D01*
X0273761Y0051797D01*
X0273770Y0051738D01*
X0273775Y0051677D01*
X0273777Y0051617D01*
X0273777Y0051117D01*
X0269777Y0063747D02*
X0269277Y0063747D01*
X0184210Y0051617D02*
X0184210Y0051117D01*
X0184210Y0051617D02*
X0184208Y0051677D01*
X0184203Y0051738D01*
X0184194Y0051797D01*
X0184181Y0051856D01*
X0184165Y0051915D01*
X0184145Y0051972D01*
X0184122Y0052027D01*
X0184095Y0052082D01*
X0184066Y0052134D01*
X0184033Y0052185D01*
X0183997Y0052234D01*
X0183959Y0052280D01*
X0183917Y0052324D01*
X0183873Y0052366D01*
X0183827Y0052404D01*
X0183778Y0052440D01*
X0183727Y0052473D01*
X0183675Y0052502D01*
X0183620Y0052529D01*
X0183565Y0052552D01*
X0183508Y0052572D01*
X0183449Y0052588D01*
X0183390Y0052601D01*
X0183331Y0052610D01*
X0183270Y0052615D01*
X0183210Y0052617D01*
X0179710Y0052617D01*
X0107438Y0055617D02*
X0107438Y0056117D01*
X0107436Y0056177D01*
X0107431Y0056238D01*
X0107422Y0056297D01*
X0107409Y0056356D01*
X0107393Y0056415D01*
X0107373Y0056472D01*
X0107350Y0056527D01*
X0107323Y0056582D01*
X0107294Y0056634D01*
X0107261Y0056685D01*
X0107225Y0056734D01*
X0107187Y0056780D01*
X0107145Y0056824D01*
X0107101Y0056866D01*
X0107055Y0056904D01*
X0107006Y0056940D01*
X0106955Y0056973D01*
X0106903Y0057002D01*
X0106848Y0057029D01*
X0106793Y0057052D01*
X0106736Y0057072D01*
X0106677Y0057088D01*
X0106618Y0057101D01*
X0106559Y0057110D01*
X0106498Y0057115D01*
X0106438Y0057117D01*
X0102938Y0057117D01*
X0102938Y0059472D02*
X0102938Y0060722D01*
X0102938Y0059472D02*
X0107438Y0059472D01*
X0105438Y0059472D02*
X0105438Y0060722D01*
X0105436Y0060791D01*
X0105430Y0060860D01*
X0105421Y0060928D01*
X0105408Y0060995D01*
X0105391Y0061062D01*
X0105370Y0061128D01*
X0105346Y0061192D01*
X0105318Y0061255D01*
X0105287Y0061317D01*
X0105253Y0061377D01*
X0105215Y0061434D01*
X0105174Y0061490D01*
X0105131Y0061543D01*
X0105084Y0061594D01*
X0105035Y0061642D01*
X0104983Y0061687D01*
X0104928Y0061729D01*
X0104872Y0061768D01*
X0104813Y0061805D01*
X0104752Y0061837D01*
X0104690Y0061867D01*
X0104626Y0061893D01*
X0104561Y0061915D01*
X0104495Y0061934D01*
X0104428Y0061949D01*
X0104360Y0061960D01*
X0104291Y0061968D01*
X0104222Y0061972D01*
X0104154Y0061972D01*
X0104085Y0061968D01*
X0104016Y0061960D01*
X0103948Y0061949D01*
X0103881Y0061934D01*
X0103815Y0061915D01*
X0103750Y0061893D01*
X0103686Y0061867D01*
X0103624Y0061837D01*
X0103563Y0061805D01*
X0103504Y0061768D01*
X0103448Y0061729D01*
X0103393Y0061687D01*
X0103341Y0061642D01*
X0103292Y0061594D01*
X0103245Y0061543D01*
X0103202Y0061490D01*
X0103161Y0061434D01*
X0103123Y0061377D01*
X0103089Y0061317D01*
X0103058Y0061255D01*
X0103030Y0061192D01*
X0103006Y0061128D01*
X0102985Y0061062D01*
X0102968Y0060995D01*
X0102955Y0060928D01*
X0102946Y0060860D01*
X0102940Y0060791D01*
X0102938Y0060722D01*
X0102938Y0064747D02*
X0106438Y0063747D01*
X0106438Y0066247D01*
X0105438Y0065497D02*
X0107438Y0065497D01*
X0094643Y0064997D02*
X0094643Y0063747D01*
X0094643Y0064997D02*
X0094641Y0065066D01*
X0094635Y0065135D01*
X0094626Y0065203D01*
X0094613Y0065270D01*
X0094596Y0065337D01*
X0094575Y0065403D01*
X0094551Y0065467D01*
X0094523Y0065530D01*
X0094492Y0065592D01*
X0094458Y0065652D01*
X0094420Y0065709D01*
X0094379Y0065765D01*
X0094336Y0065818D01*
X0094289Y0065869D01*
X0094240Y0065917D01*
X0094188Y0065962D01*
X0094133Y0066004D01*
X0094077Y0066043D01*
X0094018Y0066080D01*
X0093957Y0066112D01*
X0093895Y0066142D01*
X0093831Y0066168D01*
X0093766Y0066190D01*
X0093700Y0066209D01*
X0093633Y0066224D01*
X0093565Y0066235D01*
X0093496Y0066243D01*
X0093427Y0066247D01*
X0093359Y0066247D01*
X0093290Y0066243D01*
X0093221Y0066235D01*
X0093153Y0066224D01*
X0093086Y0066209D01*
X0093020Y0066190D01*
X0092955Y0066168D01*
X0092891Y0066142D01*
X0092829Y0066112D01*
X0092768Y0066080D01*
X0092709Y0066043D01*
X0092653Y0066004D01*
X0092598Y0065962D01*
X0092546Y0065917D01*
X0092497Y0065869D01*
X0092450Y0065818D01*
X0092407Y0065765D01*
X0092366Y0065709D01*
X0092328Y0065652D01*
X0092294Y0065592D01*
X0092263Y0065530D01*
X0092235Y0065467D01*
X0092211Y0065403D01*
X0092190Y0065337D01*
X0092173Y0065270D01*
X0092160Y0065203D01*
X0092151Y0065135D01*
X0092145Y0065066D01*
X0092143Y0064997D01*
X0092143Y0065247D02*
X0092143Y0064247D01*
X0092143Y0065247D02*
X0092141Y0065309D01*
X0092135Y0065370D01*
X0092126Y0065431D01*
X0092113Y0065491D01*
X0092096Y0065550D01*
X0092075Y0065608D01*
X0092051Y0065665D01*
X0092024Y0065720D01*
X0091993Y0065773D01*
X0091959Y0065825D01*
X0091922Y0065874D01*
X0091882Y0065921D01*
X0091839Y0065965D01*
X0091794Y0066006D01*
X0091746Y0066045D01*
X0091695Y0066081D01*
X0091643Y0066113D01*
X0091589Y0066142D01*
X0091533Y0066168D01*
X0091475Y0066190D01*
X0091417Y0066209D01*
X0091357Y0066224D01*
X0091296Y0066235D01*
X0091235Y0066243D01*
X0091174Y0066247D01*
X0091112Y0066247D01*
X0091051Y0066243D01*
X0090990Y0066235D01*
X0090929Y0066224D01*
X0090869Y0066209D01*
X0090811Y0066190D01*
X0090753Y0066168D01*
X0090697Y0066142D01*
X0090643Y0066113D01*
X0090591Y0066081D01*
X0090540Y0066045D01*
X0090492Y0066006D01*
X0090447Y0065965D01*
X0090404Y0065921D01*
X0090364Y0065874D01*
X0090327Y0065825D01*
X0090293Y0065773D01*
X0090262Y0065720D01*
X0090235Y0065665D01*
X0090211Y0065608D01*
X0090190Y0065550D01*
X0090173Y0065491D01*
X0090160Y0065431D01*
X0090151Y0065370D01*
X0090145Y0065309D01*
X0090143Y0065247D01*
X0090143Y0063747D01*
X0090143Y0060722D02*
X0090143Y0059472D01*
X0094643Y0059472D01*
X0092643Y0059472D02*
X0092643Y0060722D01*
X0092641Y0060791D01*
X0092635Y0060860D01*
X0092626Y0060928D01*
X0092613Y0060995D01*
X0092596Y0061062D01*
X0092575Y0061128D01*
X0092551Y0061192D01*
X0092523Y0061255D01*
X0092492Y0061317D01*
X0092458Y0061377D01*
X0092420Y0061434D01*
X0092379Y0061490D01*
X0092336Y0061543D01*
X0092289Y0061594D01*
X0092240Y0061642D01*
X0092188Y0061687D01*
X0092133Y0061729D01*
X0092077Y0061768D01*
X0092018Y0061805D01*
X0091957Y0061837D01*
X0091895Y0061867D01*
X0091831Y0061893D01*
X0091766Y0061915D01*
X0091700Y0061934D01*
X0091633Y0061949D01*
X0091565Y0061960D01*
X0091496Y0061968D01*
X0091427Y0061972D01*
X0091359Y0061972D01*
X0091290Y0061968D01*
X0091221Y0061960D01*
X0091153Y0061949D01*
X0091086Y0061934D01*
X0091020Y0061915D01*
X0090955Y0061893D01*
X0090891Y0061867D01*
X0090829Y0061837D01*
X0090768Y0061805D01*
X0090709Y0061768D01*
X0090653Y0061729D01*
X0090598Y0061687D01*
X0090546Y0061642D01*
X0090497Y0061594D01*
X0090450Y0061543D01*
X0090407Y0061490D01*
X0090366Y0061434D01*
X0090328Y0061377D01*
X0090294Y0061317D01*
X0090263Y0061255D01*
X0090235Y0061192D01*
X0090211Y0061128D01*
X0090190Y0061062D01*
X0090173Y0060995D01*
X0090160Y0060928D01*
X0090151Y0060860D01*
X0090145Y0060791D01*
X0090143Y0060722D01*
X0090143Y0057117D02*
X0093643Y0057117D01*
X0093703Y0057115D01*
X0093764Y0057110D01*
X0093823Y0057101D01*
X0093882Y0057088D01*
X0093941Y0057072D01*
X0093998Y0057052D01*
X0094053Y0057029D01*
X0094108Y0057002D01*
X0094160Y0056973D01*
X0094211Y0056940D01*
X0094260Y0056904D01*
X0094306Y0056866D01*
X0094350Y0056824D01*
X0094392Y0056780D01*
X0094430Y0056734D01*
X0094466Y0056685D01*
X0094499Y0056634D01*
X0094528Y0056582D01*
X0094555Y0056527D01*
X0094578Y0056472D01*
X0094598Y0056415D01*
X0094614Y0056356D01*
X0094627Y0056297D01*
X0094636Y0056238D01*
X0094641Y0056177D01*
X0094643Y0056117D01*
X0094643Y0055617D01*
X0081848Y0055617D02*
X0081848Y0056117D01*
X0081846Y0056177D01*
X0081841Y0056238D01*
X0081832Y0056297D01*
X0081819Y0056356D01*
X0081803Y0056415D01*
X0081783Y0056472D01*
X0081760Y0056527D01*
X0081733Y0056582D01*
X0081704Y0056634D01*
X0081671Y0056685D01*
X0081635Y0056734D01*
X0081597Y0056780D01*
X0081555Y0056824D01*
X0081511Y0056866D01*
X0081465Y0056904D01*
X0081416Y0056940D01*
X0081365Y0056973D01*
X0081313Y0057002D01*
X0081258Y0057029D01*
X0081203Y0057052D01*
X0081146Y0057072D01*
X0081087Y0057088D01*
X0081028Y0057101D01*
X0080969Y0057110D01*
X0080908Y0057115D01*
X0080848Y0057117D01*
X0077348Y0057117D01*
X0077348Y0059472D02*
X0077348Y0060722D01*
X0077350Y0060791D01*
X0077356Y0060860D01*
X0077365Y0060928D01*
X0077378Y0060995D01*
X0077395Y0061062D01*
X0077416Y0061128D01*
X0077440Y0061192D01*
X0077468Y0061255D01*
X0077499Y0061317D01*
X0077533Y0061377D01*
X0077571Y0061434D01*
X0077612Y0061490D01*
X0077655Y0061543D01*
X0077702Y0061594D01*
X0077751Y0061642D01*
X0077803Y0061687D01*
X0077858Y0061729D01*
X0077914Y0061768D01*
X0077973Y0061805D01*
X0078034Y0061837D01*
X0078096Y0061867D01*
X0078160Y0061893D01*
X0078225Y0061915D01*
X0078291Y0061934D01*
X0078358Y0061949D01*
X0078426Y0061960D01*
X0078495Y0061968D01*
X0078564Y0061972D01*
X0078632Y0061972D01*
X0078701Y0061968D01*
X0078770Y0061960D01*
X0078838Y0061949D01*
X0078905Y0061934D01*
X0078971Y0061915D01*
X0079036Y0061893D01*
X0079100Y0061867D01*
X0079162Y0061837D01*
X0079223Y0061805D01*
X0079282Y0061768D01*
X0079338Y0061729D01*
X0079393Y0061687D01*
X0079445Y0061642D01*
X0079494Y0061594D01*
X0079541Y0061543D01*
X0079584Y0061490D01*
X0079625Y0061434D01*
X0079663Y0061377D01*
X0079697Y0061317D01*
X0079728Y0061255D01*
X0079756Y0061192D01*
X0079780Y0061128D01*
X0079801Y0061062D01*
X0079818Y0060995D01*
X0079831Y0060928D01*
X0079840Y0060860D01*
X0079846Y0060791D01*
X0079848Y0060722D01*
X0079848Y0059472D01*
X0081848Y0059472D02*
X0077348Y0059472D01*
X0079348Y0065872D02*
X0079302Y0065918D01*
X0079253Y0065962D01*
X0079202Y0066002D01*
X0079149Y0066040D01*
X0079094Y0066075D01*
X0079037Y0066107D01*
X0078979Y0066136D01*
X0078919Y0066162D01*
X0078857Y0066184D01*
X0078795Y0066203D01*
X0078732Y0066219D01*
X0078668Y0066231D01*
X0078603Y0066240D01*
X0078538Y0066245D01*
X0078473Y0066247D01*
X0079348Y0065872D02*
X0081848Y0063747D01*
X0081848Y0066247D01*
X0078348Y0063747D02*
X0078279Y0063771D01*
X0078212Y0063799D01*
X0078146Y0063830D01*
X0078082Y0063864D01*
X0078020Y0063901D01*
X0077959Y0063942D01*
X0077901Y0063985D01*
X0077845Y0064031D01*
X0077791Y0064081D01*
X0077740Y0064132D01*
X0077692Y0064186D01*
X0077646Y0064243D01*
X0077603Y0064302D01*
X0077564Y0064363D01*
X0077527Y0064425D01*
X0077494Y0064490D01*
X0077463Y0064556D01*
X0077437Y0064624D01*
X0077413Y0064692D01*
X0077393Y0064762D01*
X0077377Y0064833D01*
X0077364Y0064905D01*
X0077355Y0064977D01*
X0077350Y0065049D01*
X0077348Y0065122D01*
X0077350Y0065187D01*
X0077356Y0065253D01*
X0077365Y0065317D01*
X0077378Y0065381D01*
X0077395Y0065445D01*
X0077416Y0065507D01*
X0077440Y0065568D01*
X0077468Y0065627D01*
X0077499Y0065685D01*
X0077533Y0065740D01*
X0077571Y0065794D01*
X0077611Y0065845D01*
X0077655Y0065894D01*
X0077701Y0065940D01*
X0077750Y0065984D01*
X0077801Y0066024D01*
X0077855Y0066062D01*
X0077911Y0066096D01*
X0077968Y0066127D01*
X0078027Y0066155D01*
X0078088Y0066179D01*
X0078150Y0066200D01*
X0078214Y0066217D01*
X0078278Y0066230D01*
X0078342Y0066239D01*
X0078408Y0066245D01*
X0078473Y0066247D01*
D13*
X0101465Y0095717D02*
X0102271Y0095717D01*
X0102271Y0095716D02*
X0102326Y0095718D01*
X0102381Y0095724D01*
X0102435Y0095733D01*
X0102488Y0095746D01*
X0102541Y0095763D01*
X0102592Y0095783D01*
X0102642Y0095806D01*
X0102690Y0095833D01*
X0102736Y0095864D01*
X0102780Y0095897D01*
X0102821Y0095933D01*
X0102860Y0095972D01*
X0102896Y0096013D01*
X0102929Y0096057D01*
X0102960Y0096103D01*
X0102987Y0096151D01*
X0103010Y0096201D01*
X0103030Y0096252D01*
X0103047Y0096305D01*
X0103060Y0096358D01*
X0103069Y0096412D01*
X0103075Y0096467D01*
X0103077Y0096522D01*
X0103076Y0096522D02*
X0103076Y0097811D01*
X0103077Y0097811D02*
X0103075Y0097866D01*
X0103069Y0097921D01*
X0103060Y0097975D01*
X0103047Y0098028D01*
X0103030Y0098081D01*
X0103010Y0098132D01*
X0102987Y0098182D01*
X0102960Y0098230D01*
X0102929Y0098276D01*
X0102896Y0098320D01*
X0102860Y0098361D01*
X0102821Y0098400D01*
X0102780Y0098436D01*
X0102736Y0098469D01*
X0102690Y0098500D01*
X0102642Y0098527D01*
X0102592Y0098550D01*
X0102541Y0098570D01*
X0102488Y0098587D01*
X0102435Y0098600D01*
X0102381Y0098609D01*
X0102326Y0098615D01*
X0102271Y0098617D01*
X0101465Y0098617D01*
X0101465Y0095717D01*
X0104441Y0095717D02*
X0106052Y0095717D01*
X0105247Y0095717D02*
X0105247Y0098617D01*
X0104441Y0097972D01*
X0110323Y0098617D02*
X0111129Y0098617D01*
X0111184Y0098615D01*
X0111239Y0098609D01*
X0111293Y0098600D01*
X0111346Y0098587D01*
X0111399Y0098570D01*
X0111450Y0098550D01*
X0111500Y0098527D01*
X0111548Y0098500D01*
X0111594Y0098469D01*
X0111638Y0098436D01*
X0111679Y0098400D01*
X0111718Y0098361D01*
X0111754Y0098320D01*
X0111787Y0098276D01*
X0111818Y0098230D01*
X0111845Y0098182D01*
X0111868Y0098132D01*
X0111888Y0098081D01*
X0111905Y0098028D01*
X0111918Y0097975D01*
X0111927Y0097921D01*
X0111933Y0097866D01*
X0111935Y0097811D01*
X0111934Y0097811D02*
X0111934Y0096522D01*
X0111935Y0096522D02*
X0111933Y0096467D01*
X0111927Y0096412D01*
X0111918Y0096358D01*
X0111905Y0096305D01*
X0111888Y0096252D01*
X0111868Y0096201D01*
X0111845Y0096151D01*
X0111818Y0096103D01*
X0111787Y0096057D01*
X0111754Y0096013D01*
X0111718Y0095972D01*
X0111679Y0095933D01*
X0111638Y0095897D01*
X0111594Y0095864D01*
X0111548Y0095833D01*
X0111500Y0095806D01*
X0111450Y0095783D01*
X0111399Y0095763D01*
X0111346Y0095746D01*
X0111293Y0095733D01*
X0111239Y0095724D01*
X0111184Y0095718D01*
X0111129Y0095716D01*
X0111129Y0095717D02*
X0110323Y0095717D01*
X0110323Y0098617D01*
X0114669Y0097328D02*
X0114706Y0097365D01*
X0114740Y0097405D01*
X0114772Y0097447D01*
X0114800Y0097492D01*
X0114826Y0097538D01*
X0114848Y0097585D01*
X0114867Y0097634D01*
X0114883Y0097684D01*
X0114895Y0097735D01*
X0114904Y0097787D01*
X0114909Y0097839D01*
X0114911Y0097892D01*
X0114669Y0097328D02*
X0113299Y0095717D01*
X0114910Y0095717D01*
X0113299Y0097972D02*
X0113319Y0098027D01*
X0113342Y0098081D01*
X0113369Y0098133D01*
X0113399Y0098183D01*
X0113431Y0098232D01*
X0113467Y0098278D01*
X0113506Y0098322D01*
X0113547Y0098363D01*
X0113591Y0098402D01*
X0113637Y0098438D01*
X0113686Y0098471D01*
X0113736Y0098501D01*
X0113788Y0098527D01*
X0113842Y0098551D01*
X0113897Y0098570D01*
X0113953Y0098587D01*
X0114010Y0098599D01*
X0114068Y0098609D01*
X0114126Y0098614D01*
X0114185Y0098616D01*
X0114185Y0098617D02*
X0114237Y0098615D01*
X0114288Y0098610D01*
X0114339Y0098600D01*
X0114389Y0098588D01*
X0114438Y0098571D01*
X0114486Y0098551D01*
X0114532Y0098528D01*
X0114577Y0098502D01*
X0114619Y0098472D01*
X0114660Y0098440D01*
X0114698Y0098405D01*
X0114733Y0098367D01*
X0114765Y0098326D01*
X0114795Y0098284D01*
X0114821Y0098239D01*
X0114844Y0098193D01*
X0114864Y0098145D01*
X0114881Y0098096D01*
X0114893Y0098046D01*
X0114903Y0097995D01*
X0114908Y0097944D01*
X0114910Y0097892D01*
X0119181Y0098617D02*
X0119987Y0098617D01*
X0119181Y0098617D02*
X0119181Y0095717D01*
X0119987Y0095717D01*
X0119987Y0095716D02*
X0120042Y0095718D01*
X0120097Y0095724D01*
X0120151Y0095733D01*
X0120204Y0095746D01*
X0120257Y0095763D01*
X0120308Y0095783D01*
X0120358Y0095806D01*
X0120406Y0095833D01*
X0120452Y0095864D01*
X0120496Y0095897D01*
X0120537Y0095933D01*
X0120576Y0095972D01*
X0120612Y0096013D01*
X0120645Y0096057D01*
X0120676Y0096103D01*
X0120703Y0096151D01*
X0120726Y0096201D01*
X0120746Y0096252D01*
X0120763Y0096305D01*
X0120776Y0096358D01*
X0120785Y0096412D01*
X0120791Y0096467D01*
X0120793Y0096522D01*
X0120793Y0097811D01*
X0120791Y0097866D01*
X0120785Y0097921D01*
X0120776Y0097975D01*
X0120763Y0098028D01*
X0120746Y0098081D01*
X0120726Y0098132D01*
X0120703Y0098182D01*
X0120676Y0098230D01*
X0120645Y0098276D01*
X0120612Y0098320D01*
X0120576Y0098361D01*
X0120537Y0098400D01*
X0120496Y0098436D01*
X0120452Y0098469D01*
X0120406Y0098500D01*
X0120358Y0098527D01*
X0120308Y0098550D01*
X0120257Y0098570D01*
X0120204Y0098587D01*
X0120151Y0098600D01*
X0120097Y0098609D01*
X0120042Y0098615D01*
X0119987Y0098617D01*
X0122157Y0098617D02*
X0123124Y0098617D01*
X0123124Y0098616D02*
X0123173Y0098614D01*
X0123222Y0098608D01*
X0123271Y0098599D01*
X0123318Y0098586D01*
X0123365Y0098569D01*
X0123410Y0098549D01*
X0123453Y0098526D01*
X0123495Y0098499D01*
X0123534Y0098469D01*
X0123571Y0098436D01*
X0123605Y0098400D01*
X0123636Y0098362D01*
X0123665Y0098322D01*
X0123690Y0098280D01*
X0123712Y0098235D01*
X0123730Y0098190D01*
X0123745Y0098143D01*
X0123756Y0098095D01*
X0123764Y0098046D01*
X0123768Y0097997D01*
X0123768Y0097947D01*
X0123764Y0097898D01*
X0123756Y0097849D01*
X0123745Y0097801D01*
X0123730Y0097754D01*
X0123712Y0097709D01*
X0123690Y0097664D01*
X0123665Y0097622D01*
X0123636Y0097582D01*
X0123605Y0097544D01*
X0123571Y0097508D01*
X0123534Y0097475D01*
X0123495Y0097445D01*
X0123453Y0097418D01*
X0123410Y0097395D01*
X0123365Y0097375D01*
X0123318Y0097358D01*
X0123271Y0097345D01*
X0123222Y0097336D01*
X0123173Y0097330D01*
X0123124Y0097328D01*
X0122480Y0097328D01*
X0122963Y0097328D02*
X0123018Y0097326D01*
X0123073Y0097320D01*
X0123127Y0097311D01*
X0123180Y0097298D01*
X0123233Y0097281D01*
X0123284Y0097261D01*
X0123334Y0097238D01*
X0123382Y0097211D01*
X0123428Y0097180D01*
X0123472Y0097147D01*
X0123513Y0097111D01*
X0123552Y0097072D01*
X0123588Y0097031D01*
X0123621Y0096987D01*
X0123652Y0096941D01*
X0123679Y0096893D01*
X0123702Y0096843D01*
X0123722Y0096792D01*
X0123739Y0096739D01*
X0123752Y0096686D01*
X0123761Y0096632D01*
X0123767Y0096577D01*
X0123769Y0096522D01*
X0123767Y0096467D01*
X0123761Y0096412D01*
X0123752Y0096358D01*
X0123739Y0096305D01*
X0123722Y0096252D01*
X0123702Y0096201D01*
X0123679Y0096151D01*
X0123652Y0096103D01*
X0123621Y0096057D01*
X0123588Y0096013D01*
X0123552Y0095972D01*
X0123513Y0095933D01*
X0123472Y0095897D01*
X0123428Y0095864D01*
X0123382Y0095833D01*
X0123334Y0095806D01*
X0123284Y0095783D01*
X0123233Y0095763D01*
X0123180Y0095746D01*
X0123127Y0095733D01*
X0123073Y0095724D01*
X0123018Y0095718D01*
X0122963Y0095716D01*
X0122963Y0095717D02*
X0122157Y0095717D01*
X0128040Y0095717D02*
X0128845Y0095717D01*
X0128040Y0095717D02*
X0128040Y0098617D01*
X0128845Y0098617D01*
X0128900Y0098615D01*
X0128955Y0098609D01*
X0129009Y0098600D01*
X0129062Y0098587D01*
X0129115Y0098570D01*
X0129166Y0098550D01*
X0129216Y0098527D01*
X0129264Y0098500D01*
X0129310Y0098469D01*
X0129354Y0098436D01*
X0129395Y0098400D01*
X0129434Y0098361D01*
X0129470Y0098320D01*
X0129503Y0098276D01*
X0129534Y0098230D01*
X0129561Y0098182D01*
X0129584Y0098132D01*
X0129604Y0098081D01*
X0129621Y0098028D01*
X0129634Y0097975D01*
X0129643Y0097921D01*
X0129649Y0097866D01*
X0129651Y0097811D01*
X0129651Y0096522D01*
X0129649Y0096467D01*
X0129643Y0096412D01*
X0129634Y0096358D01*
X0129621Y0096305D01*
X0129604Y0096252D01*
X0129584Y0096201D01*
X0129561Y0096151D01*
X0129534Y0096103D01*
X0129503Y0096057D01*
X0129470Y0096013D01*
X0129434Y0095972D01*
X0129395Y0095933D01*
X0129354Y0095897D01*
X0129310Y0095864D01*
X0129264Y0095833D01*
X0129216Y0095806D01*
X0129166Y0095783D01*
X0129115Y0095763D01*
X0129062Y0095746D01*
X0129009Y0095733D01*
X0128955Y0095724D01*
X0128900Y0095718D01*
X0128845Y0095716D01*
X0131016Y0096361D02*
X0131660Y0098617D01*
X0132144Y0097006D02*
X0132144Y0095717D01*
X0132627Y0096361D02*
X0131016Y0096361D01*
X0136898Y0095717D02*
X0136898Y0098617D01*
X0137704Y0098617D01*
X0137759Y0098615D01*
X0137814Y0098609D01*
X0137868Y0098600D01*
X0137921Y0098587D01*
X0137974Y0098570D01*
X0138025Y0098550D01*
X0138075Y0098527D01*
X0138123Y0098500D01*
X0138169Y0098469D01*
X0138213Y0098436D01*
X0138254Y0098400D01*
X0138293Y0098361D01*
X0138329Y0098320D01*
X0138362Y0098276D01*
X0138393Y0098230D01*
X0138420Y0098182D01*
X0138443Y0098132D01*
X0138463Y0098081D01*
X0138480Y0098028D01*
X0138493Y0097975D01*
X0138502Y0097921D01*
X0138508Y0097866D01*
X0138510Y0097811D01*
X0138509Y0097811D02*
X0138509Y0096522D01*
X0138510Y0096522D02*
X0138508Y0096467D01*
X0138502Y0096412D01*
X0138493Y0096358D01*
X0138480Y0096305D01*
X0138463Y0096252D01*
X0138443Y0096201D01*
X0138420Y0096151D01*
X0138393Y0096103D01*
X0138362Y0096057D01*
X0138329Y0096013D01*
X0138293Y0095972D01*
X0138254Y0095933D01*
X0138213Y0095897D01*
X0138169Y0095864D01*
X0138123Y0095833D01*
X0138075Y0095806D01*
X0138025Y0095783D01*
X0137974Y0095763D01*
X0137921Y0095746D01*
X0137868Y0095733D01*
X0137814Y0095724D01*
X0137759Y0095718D01*
X0137704Y0095716D01*
X0137704Y0095717D02*
X0136898Y0095717D01*
X0139874Y0095717D02*
X0140841Y0095717D01*
X0140889Y0095719D01*
X0140937Y0095724D01*
X0140984Y0095733D01*
X0141031Y0095746D01*
X0141076Y0095762D01*
X0141120Y0095781D01*
X0141163Y0095803D01*
X0141204Y0095829D01*
X0141243Y0095858D01*
X0141279Y0095889D01*
X0141313Y0095923D01*
X0141344Y0095959D01*
X0141373Y0095998D01*
X0141399Y0096039D01*
X0141421Y0096082D01*
X0141440Y0096126D01*
X0141456Y0096171D01*
X0141469Y0096218D01*
X0141478Y0096265D01*
X0141483Y0096313D01*
X0141485Y0096361D01*
X0141485Y0096684D01*
X0141483Y0096732D01*
X0141478Y0096780D01*
X0141469Y0096827D01*
X0141456Y0096874D01*
X0141440Y0096919D01*
X0141421Y0096963D01*
X0141399Y0097006D01*
X0141373Y0097047D01*
X0141344Y0097086D01*
X0141313Y0097122D01*
X0141279Y0097156D01*
X0141243Y0097187D01*
X0141204Y0097216D01*
X0141163Y0097242D01*
X0141120Y0097264D01*
X0141076Y0097283D01*
X0141031Y0097299D01*
X0140984Y0097312D01*
X0140937Y0097321D01*
X0140889Y0097326D01*
X0140841Y0097328D01*
X0139874Y0097328D01*
X0139874Y0098617D01*
X0141485Y0098617D01*
X0145756Y0098617D02*
X0145756Y0095717D01*
X0146562Y0095717D01*
X0146562Y0095716D02*
X0146617Y0095718D01*
X0146672Y0095724D01*
X0146726Y0095733D01*
X0146779Y0095746D01*
X0146832Y0095763D01*
X0146883Y0095783D01*
X0146933Y0095806D01*
X0146981Y0095833D01*
X0147027Y0095864D01*
X0147071Y0095897D01*
X0147112Y0095933D01*
X0147151Y0095972D01*
X0147187Y0096013D01*
X0147220Y0096057D01*
X0147251Y0096103D01*
X0147278Y0096151D01*
X0147301Y0096201D01*
X0147321Y0096252D01*
X0147338Y0096305D01*
X0147351Y0096358D01*
X0147360Y0096412D01*
X0147366Y0096467D01*
X0147368Y0096522D01*
X0147367Y0096522D02*
X0147367Y0097811D01*
X0147368Y0097811D02*
X0147366Y0097866D01*
X0147360Y0097921D01*
X0147351Y0097975D01*
X0147338Y0098028D01*
X0147321Y0098081D01*
X0147301Y0098132D01*
X0147278Y0098182D01*
X0147251Y0098230D01*
X0147220Y0098276D01*
X0147187Y0098320D01*
X0147151Y0098361D01*
X0147112Y0098400D01*
X0147071Y0098436D01*
X0147027Y0098469D01*
X0146981Y0098500D01*
X0146933Y0098527D01*
X0146883Y0098550D01*
X0146832Y0098570D01*
X0146779Y0098587D01*
X0146726Y0098600D01*
X0146672Y0098609D01*
X0146617Y0098615D01*
X0146562Y0098617D01*
X0145756Y0098617D01*
X0148732Y0097328D02*
X0148732Y0096522D01*
X0148734Y0096467D01*
X0148740Y0096412D01*
X0148749Y0096358D01*
X0148762Y0096305D01*
X0148779Y0096252D01*
X0148799Y0096201D01*
X0148822Y0096151D01*
X0148849Y0096103D01*
X0148880Y0096057D01*
X0148913Y0096013D01*
X0148949Y0095972D01*
X0148988Y0095933D01*
X0149029Y0095897D01*
X0149073Y0095864D01*
X0149119Y0095833D01*
X0149167Y0095806D01*
X0149217Y0095783D01*
X0149268Y0095763D01*
X0149321Y0095746D01*
X0149374Y0095733D01*
X0149428Y0095724D01*
X0149483Y0095718D01*
X0149538Y0095716D01*
X0149593Y0095718D01*
X0149648Y0095724D01*
X0149702Y0095733D01*
X0149755Y0095746D01*
X0149808Y0095763D01*
X0149859Y0095783D01*
X0149909Y0095806D01*
X0149957Y0095833D01*
X0150003Y0095864D01*
X0150047Y0095897D01*
X0150088Y0095933D01*
X0150127Y0095972D01*
X0150163Y0096013D01*
X0150196Y0096057D01*
X0150227Y0096103D01*
X0150254Y0096151D01*
X0150277Y0096201D01*
X0150297Y0096252D01*
X0150314Y0096305D01*
X0150327Y0096358D01*
X0150336Y0096412D01*
X0150342Y0096467D01*
X0150344Y0096522D01*
X0150343Y0096522D02*
X0150343Y0096684D01*
X0150341Y0096732D01*
X0150336Y0096780D01*
X0150327Y0096827D01*
X0150314Y0096874D01*
X0150298Y0096919D01*
X0150279Y0096963D01*
X0150257Y0097006D01*
X0150231Y0097047D01*
X0150202Y0097086D01*
X0150171Y0097122D01*
X0150137Y0097156D01*
X0150101Y0097187D01*
X0150062Y0097216D01*
X0150021Y0097242D01*
X0149978Y0097264D01*
X0149934Y0097283D01*
X0149889Y0097299D01*
X0149842Y0097312D01*
X0149795Y0097321D01*
X0149747Y0097326D01*
X0149699Y0097328D01*
X0148732Y0097328D01*
X0148734Y0097398D01*
X0148740Y0097467D01*
X0148749Y0097537D01*
X0148762Y0097605D01*
X0148779Y0097673D01*
X0148799Y0097740D01*
X0148824Y0097805D01*
X0148851Y0097869D01*
X0148882Y0097932D01*
X0148917Y0097993D01*
X0148954Y0098051D01*
X0148995Y0098108D01*
X0149039Y0098162D01*
X0149085Y0098214D01*
X0149135Y0098264D01*
X0149187Y0098310D01*
X0149241Y0098354D01*
X0149298Y0098395D01*
X0149356Y0098432D01*
X0149417Y0098467D01*
X0149480Y0098498D01*
X0149544Y0098525D01*
X0149609Y0098550D01*
X0149676Y0098570D01*
X0149744Y0098587D01*
X0149812Y0098600D01*
X0149882Y0098609D01*
X0149951Y0098615D01*
X0150021Y0098617D01*
X0154615Y0098617D02*
X0154615Y0095717D01*
X0155420Y0095717D01*
X0155420Y0095716D02*
X0155475Y0095718D01*
X0155530Y0095724D01*
X0155584Y0095733D01*
X0155637Y0095746D01*
X0155690Y0095763D01*
X0155741Y0095783D01*
X0155791Y0095806D01*
X0155839Y0095833D01*
X0155885Y0095864D01*
X0155929Y0095897D01*
X0155970Y0095933D01*
X0156009Y0095972D01*
X0156045Y0096013D01*
X0156078Y0096057D01*
X0156109Y0096103D01*
X0156136Y0096151D01*
X0156159Y0096201D01*
X0156179Y0096252D01*
X0156196Y0096305D01*
X0156209Y0096358D01*
X0156218Y0096412D01*
X0156224Y0096467D01*
X0156226Y0096522D01*
X0156226Y0097811D01*
X0156224Y0097866D01*
X0156218Y0097921D01*
X0156209Y0097975D01*
X0156196Y0098028D01*
X0156179Y0098081D01*
X0156159Y0098132D01*
X0156136Y0098182D01*
X0156109Y0098230D01*
X0156078Y0098276D01*
X0156045Y0098320D01*
X0156009Y0098361D01*
X0155970Y0098400D01*
X0155929Y0098436D01*
X0155885Y0098469D01*
X0155839Y0098500D01*
X0155791Y0098527D01*
X0155741Y0098550D01*
X0155690Y0098570D01*
X0155637Y0098587D01*
X0155584Y0098600D01*
X0155530Y0098609D01*
X0155475Y0098615D01*
X0155420Y0098617D01*
X0154615Y0098617D01*
X0157591Y0098617D02*
X0159202Y0098617D01*
X0158396Y0095717D01*
X0157591Y0098295D02*
X0157591Y0098617D01*
X0163473Y0098617D02*
X0163473Y0095717D01*
X0164278Y0095717D01*
X0164278Y0095716D02*
X0164333Y0095718D01*
X0164388Y0095724D01*
X0164442Y0095733D01*
X0164495Y0095746D01*
X0164548Y0095763D01*
X0164599Y0095783D01*
X0164649Y0095806D01*
X0164697Y0095833D01*
X0164743Y0095864D01*
X0164787Y0095897D01*
X0164828Y0095933D01*
X0164867Y0095972D01*
X0164903Y0096013D01*
X0164936Y0096057D01*
X0164967Y0096103D01*
X0164994Y0096151D01*
X0165017Y0096201D01*
X0165037Y0096252D01*
X0165054Y0096305D01*
X0165067Y0096358D01*
X0165076Y0096412D01*
X0165082Y0096467D01*
X0165084Y0096522D01*
X0165084Y0097811D01*
X0165082Y0097866D01*
X0165076Y0097921D01*
X0165067Y0097975D01*
X0165054Y0098028D01*
X0165037Y0098081D01*
X0165017Y0098132D01*
X0164994Y0098182D01*
X0164967Y0098230D01*
X0164936Y0098276D01*
X0164903Y0098320D01*
X0164867Y0098361D01*
X0164828Y0098400D01*
X0164787Y0098436D01*
X0164743Y0098469D01*
X0164697Y0098500D01*
X0164649Y0098527D01*
X0164599Y0098550D01*
X0164548Y0098570D01*
X0164495Y0098587D01*
X0164442Y0098600D01*
X0164388Y0098609D01*
X0164333Y0098615D01*
X0164278Y0098617D01*
X0163473Y0098617D01*
X0166610Y0097972D02*
X0166612Y0097923D01*
X0166618Y0097874D01*
X0166627Y0097825D01*
X0166640Y0097778D01*
X0166657Y0097731D01*
X0166677Y0097686D01*
X0166700Y0097643D01*
X0166727Y0097601D01*
X0166757Y0097562D01*
X0166790Y0097525D01*
X0166826Y0097491D01*
X0166864Y0097460D01*
X0166904Y0097431D01*
X0166946Y0097406D01*
X0166991Y0097384D01*
X0167036Y0097366D01*
X0167083Y0097351D01*
X0167131Y0097340D01*
X0167180Y0097332D01*
X0167229Y0097328D01*
X0167279Y0097328D01*
X0167328Y0097332D01*
X0167377Y0097340D01*
X0167425Y0097351D01*
X0167472Y0097366D01*
X0167517Y0097384D01*
X0167562Y0097406D01*
X0167604Y0097431D01*
X0167644Y0097460D01*
X0167682Y0097491D01*
X0167718Y0097525D01*
X0167751Y0097562D01*
X0167781Y0097601D01*
X0167808Y0097643D01*
X0167831Y0097686D01*
X0167851Y0097731D01*
X0167868Y0097778D01*
X0167881Y0097825D01*
X0167890Y0097874D01*
X0167896Y0097923D01*
X0167898Y0097972D01*
X0167896Y0098021D01*
X0167890Y0098070D01*
X0167881Y0098119D01*
X0167868Y0098166D01*
X0167851Y0098213D01*
X0167831Y0098258D01*
X0167808Y0098301D01*
X0167781Y0098343D01*
X0167751Y0098382D01*
X0167718Y0098419D01*
X0167682Y0098453D01*
X0167644Y0098484D01*
X0167604Y0098513D01*
X0167562Y0098538D01*
X0167517Y0098560D01*
X0167472Y0098578D01*
X0167425Y0098593D01*
X0167377Y0098604D01*
X0167328Y0098612D01*
X0167279Y0098616D01*
X0167229Y0098616D01*
X0167180Y0098612D01*
X0167131Y0098604D01*
X0167083Y0098593D01*
X0167036Y0098578D01*
X0166991Y0098560D01*
X0166946Y0098538D01*
X0166904Y0098513D01*
X0166864Y0098484D01*
X0166826Y0098453D01*
X0166790Y0098419D01*
X0166757Y0098382D01*
X0166727Y0098343D01*
X0166700Y0098301D01*
X0166677Y0098258D01*
X0166657Y0098213D01*
X0166640Y0098166D01*
X0166627Y0098119D01*
X0166618Y0098070D01*
X0166612Y0098021D01*
X0166610Y0097972D01*
X0166448Y0096522D02*
X0166450Y0096467D01*
X0166456Y0096412D01*
X0166465Y0096358D01*
X0166478Y0096305D01*
X0166495Y0096252D01*
X0166515Y0096201D01*
X0166538Y0096151D01*
X0166565Y0096103D01*
X0166596Y0096057D01*
X0166629Y0096013D01*
X0166665Y0095972D01*
X0166704Y0095933D01*
X0166745Y0095897D01*
X0166789Y0095864D01*
X0166835Y0095833D01*
X0166883Y0095806D01*
X0166933Y0095783D01*
X0166984Y0095763D01*
X0167037Y0095746D01*
X0167090Y0095733D01*
X0167144Y0095724D01*
X0167199Y0095718D01*
X0167254Y0095716D01*
X0167309Y0095718D01*
X0167364Y0095724D01*
X0167418Y0095733D01*
X0167471Y0095746D01*
X0167524Y0095763D01*
X0167575Y0095783D01*
X0167625Y0095806D01*
X0167673Y0095833D01*
X0167719Y0095864D01*
X0167763Y0095897D01*
X0167804Y0095933D01*
X0167843Y0095972D01*
X0167879Y0096013D01*
X0167912Y0096057D01*
X0167943Y0096103D01*
X0167970Y0096151D01*
X0167993Y0096201D01*
X0168013Y0096252D01*
X0168030Y0096305D01*
X0168043Y0096358D01*
X0168052Y0096412D01*
X0168058Y0096467D01*
X0168060Y0096522D01*
X0168058Y0096577D01*
X0168052Y0096632D01*
X0168043Y0096686D01*
X0168030Y0096739D01*
X0168013Y0096792D01*
X0167993Y0096843D01*
X0167970Y0096893D01*
X0167943Y0096941D01*
X0167912Y0096987D01*
X0167879Y0097031D01*
X0167843Y0097072D01*
X0167804Y0097111D01*
X0167763Y0097147D01*
X0167719Y0097180D01*
X0167673Y0097211D01*
X0167625Y0097238D01*
X0167575Y0097261D01*
X0167524Y0097281D01*
X0167471Y0097298D01*
X0167418Y0097311D01*
X0167364Y0097320D01*
X0167309Y0097326D01*
X0167254Y0097328D01*
X0167199Y0097326D01*
X0167144Y0097320D01*
X0167090Y0097311D01*
X0167037Y0097298D01*
X0166984Y0097281D01*
X0166933Y0097261D01*
X0166883Y0097238D01*
X0166835Y0097211D01*
X0166789Y0097180D01*
X0166745Y0097147D01*
X0166704Y0097111D01*
X0166665Y0097072D01*
X0166629Y0097031D01*
X0166596Y0096987D01*
X0166565Y0096941D01*
X0166538Y0096893D01*
X0166515Y0096843D01*
X0166495Y0096792D01*
X0166478Y0096739D01*
X0166465Y0096686D01*
X0166456Y0096632D01*
X0166450Y0096577D01*
X0166448Y0096522D01*
X0172331Y0095717D02*
X0172331Y0098617D01*
X0173137Y0098617D01*
X0173192Y0098615D01*
X0173247Y0098609D01*
X0173301Y0098600D01*
X0173354Y0098587D01*
X0173407Y0098570D01*
X0173458Y0098550D01*
X0173508Y0098527D01*
X0173556Y0098500D01*
X0173602Y0098469D01*
X0173646Y0098436D01*
X0173687Y0098400D01*
X0173726Y0098361D01*
X0173762Y0098320D01*
X0173795Y0098276D01*
X0173826Y0098230D01*
X0173853Y0098182D01*
X0173876Y0098132D01*
X0173896Y0098081D01*
X0173913Y0098028D01*
X0173926Y0097975D01*
X0173935Y0097921D01*
X0173941Y0097866D01*
X0173943Y0097811D01*
X0173942Y0097811D02*
X0173942Y0096522D01*
X0173943Y0096522D02*
X0173941Y0096467D01*
X0173935Y0096412D01*
X0173926Y0096358D01*
X0173913Y0096305D01*
X0173896Y0096252D01*
X0173876Y0096201D01*
X0173853Y0096151D01*
X0173826Y0096103D01*
X0173795Y0096057D01*
X0173762Y0096013D01*
X0173726Y0095972D01*
X0173687Y0095933D01*
X0173646Y0095897D01*
X0173602Y0095864D01*
X0173556Y0095833D01*
X0173508Y0095806D01*
X0173458Y0095783D01*
X0173407Y0095763D01*
X0173354Y0095746D01*
X0173301Y0095733D01*
X0173247Y0095724D01*
X0173192Y0095718D01*
X0173137Y0095716D01*
X0173137Y0095717D02*
X0172331Y0095717D01*
X0175629Y0095717D02*
X0175699Y0095719D01*
X0175768Y0095725D01*
X0175838Y0095734D01*
X0175906Y0095747D01*
X0175974Y0095764D01*
X0176041Y0095784D01*
X0176106Y0095809D01*
X0176170Y0095836D01*
X0176233Y0095867D01*
X0176294Y0095902D01*
X0176352Y0095939D01*
X0176409Y0095980D01*
X0176463Y0096024D01*
X0176515Y0096070D01*
X0176565Y0096120D01*
X0176611Y0096172D01*
X0176655Y0096226D01*
X0176696Y0096283D01*
X0176733Y0096341D01*
X0176768Y0096402D01*
X0176799Y0096465D01*
X0176826Y0096529D01*
X0176851Y0096594D01*
X0176871Y0096661D01*
X0176888Y0096729D01*
X0176901Y0096797D01*
X0176910Y0096867D01*
X0176916Y0096936D01*
X0176918Y0097006D01*
X0176918Y0097811D01*
X0176918Y0097006D02*
X0175952Y0097006D01*
X0175904Y0097008D01*
X0175856Y0097013D01*
X0175809Y0097022D01*
X0175762Y0097035D01*
X0175717Y0097051D01*
X0175673Y0097070D01*
X0175630Y0097092D01*
X0175589Y0097118D01*
X0175550Y0097147D01*
X0175514Y0097178D01*
X0175480Y0097212D01*
X0175448Y0097248D01*
X0175420Y0097287D01*
X0175394Y0097328D01*
X0175372Y0097371D01*
X0175353Y0097415D01*
X0175337Y0097460D01*
X0175324Y0097507D01*
X0175315Y0097554D01*
X0175310Y0097602D01*
X0175308Y0097650D01*
X0175307Y0097650D02*
X0175307Y0097811D01*
X0175309Y0097866D01*
X0175315Y0097921D01*
X0175324Y0097975D01*
X0175337Y0098028D01*
X0175354Y0098081D01*
X0175374Y0098132D01*
X0175397Y0098182D01*
X0175424Y0098230D01*
X0175455Y0098276D01*
X0175488Y0098320D01*
X0175524Y0098361D01*
X0175563Y0098400D01*
X0175604Y0098436D01*
X0175648Y0098469D01*
X0175694Y0098500D01*
X0175742Y0098527D01*
X0175792Y0098550D01*
X0175843Y0098570D01*
X0175896Y0098587D01*
X0175949Y0098600D01*
X0176003Y0098609D01*
X0176058Y0098615D01*
X0176113Y0098617D01*
X0176168Y0098615D01*
X0176223Y0098609D01*
X0176277Y0098600D01*
X0176330Y0098587D01*
X0176383Y0098570D01*
X0176434Y0098550D01*
X0176484Y0098527D01*
X0176532Y0098500D01*
X0176578Y0098469D01*
X0176622Y0098436D01*
X0176663Y0098400D01*
X0176702Y0098361D01*
X0176738Y0098320D01*
X0176771Y0098276D01*
X0176802Y0098230D01*
X0176829Y0098182D01*
X0176852Y0098132D01*
X0176872Y0098081D01*
X0176889Y0098028D01*
X0176902Y0097975D01*
X0176911Y0097921D01*
X0176917Y0097866D01*
X0176919Y0097811D01*
X0181189Y0098617D02*
X0181995Y0098617D01*
X0181189Y0098617D02*
X0181189Y0095717D01*
X0181995Y0095717D01*
X0181995Y0095716D02*
X0182050Y0095718D01*
X0182105Y0095724D01*
X0182159Y0095733D01*
X0182212Y0095746D01*
X0182265Y0095763D01*
X0182316Y0095783D01*
X0182366Y0095806D01*
X0182414Y0095833D01*
X0182460Y0095864D01*
X0182504Y0095897D01*
X0182545Y0095933D01*
X0182584Y0095972D01*
X0182620Y0096013D01*
X0182653Y0096057D01*
X0182684Y0096103D01*
X0182711Y0096151D01*
X0182734Y0096201D01*
X0182754Y0096252D01*
X0182771Y0096305D01*
X0182784Y0096358D01*
X0182793Y0096412D01*
X0182799Y0096467D01*
X0182801Y0096522D01*
X0182800Y0096522D02*
X0182800Y0097811D01*
X0182801Y0097811D02*
X0182799Y0097866D01*
X0182793Y0097921D01*
X0182784Y0097975D01*
X0182771Y0098028D01*
X0182754Y0098081D01*
X0182734Y0098132D01*
X0182711Y0098182D01*
X0182684Y0098230D01*
X0182653Y0098276D01*
X0182620Y0098320D01*
X0182584Y0098361D01*
X0182545Y0098400D01*
X0182504Y0098436D01*
X0182460Y0098469D01*
X0182414Y0098500D01*
X0182366Y0098527D01*
X0182316Y0098550D01*
X0182265Y0098570D01*
X0182212Y0098587D01*
X0182159Y0098600D01*
X0182105Y0098609D01*
X0182050Y0098615D01*
X0181995Y0098617D01*
X0184165Y0097972D02*
X0184971Y0098617D01*
X0184971Y0095717D01*
X0185776Y0095717D02*
X0184165Y0095717D01*
X0188415Y0096120D02*
X0188453Y0096202D01*
X0188488Y0096285D01*
X0188520Y0096370D01*
X0188549Y0096455D01*
X0188574Y0096542D01*
X0188596Y0096630D01*
X0188614Y0096718D01*
X0188630Y0096807D01*
X0188642Y0096897D01*
X0188650Y0096986D01*
X0188655Y0097077D01*
X0188657Y0097167D01*
X0187045Y0097167D02*
X0187047Y0097257D01*
X0187052Y0097348D01*
X0187060Y0097437D01*
X0187072Y0097527D01*
X0187088Y0097616D01*
X0187106Y0097704D01*
X0187128Y0097792D01*
X0187153Y0097879D01*
X0187182Y0097964D01*
X0187214Y0098049D01*
X0187249Y0098132D01*
X0187287Y0098214D01*
X0187851Y0098617D02*
X0187897Y0098615D01*
X0187943Y0098610D01*
X0187988Y0098601D01*
X0188033Y0098589D01*
X0188076Y0098573D01*
X0188118Y0098554D01*
X0188159Y0098531D01*
X0188197Y0098506D01*
X0188234Y0098478D01*
X0188268Y0098447D01*
X0188300Y0098413D01*
X0188329Y0098377D01*
X0188355Y0098339D01*
X0188378Y0098299D01*
X0188398Y0098257D01*
X0188415Y0098214D01*
X0188495Y0097972D02*
X0187206Y0096361D01*
X0187851Y0095717D02*
X0187897Y0095719D01*
X0187943Y0095724D01*
X0187988Y0095733D01*
X0188033Y0095745D01*
X0188076Y0095761D01*
X0188118Y0095780D01*
X0188159Y0095803D01*
X0188197Y0095828D01*
X0188234Y0095856D01*
X0188268Y0095887D01*
X0188300Y0095921D01*
X0188329Y0095957D01*
X0188355Y0095995D01*
X0188378Y0096035D01*
X0188398Y0096077D01*
X0188415Y0096120D01*
X0187851Y0095717D02*
X0187805Y0095719D01*
X0187759Y0095724D01*
X0187714Y0095733D01*
X0187669Y0095745D01*
X0187626Y0095761D01*
X0187584Y0095780D01*
X0187543Y0095803D01*
X0187505Y0095828D01*
X0187468Y0095856D01*
X0187434Y0095887D01*
X0187402Y0095921D01*
X0187373Y0095957D01*
X0187347Y0095995D01*
X0187324Y0096035D01*
X0187304Y0096077D01*
X0187287Y0096120D01*
X0188657Y0097167D02*
X0188655Y0097257D01*
X0188650Y0097348D01*
X0188642Y0097437D01*
X0188630Y0097527D01*
X0188614Y0097616D01*
X0188596Y0097704D01*
X0188574Y0097792D01*
X0188549Y0097879D01*
X0188520Y0097964D01*
X0188488Y0098049D01*
X0188453Y0098132D01*
X0188415Y0098214D01*
X0187851Y0098617D02*
X0187805Y0098615D01*
X0187759Y0098610D01*
X0187714Y0098601D01*
X0187669Y0098589D01*
X0187626Y0098573D01*
X0187584Y0098554D01*
X0187543Y0098531D01*
X0187505Y0098506D01*
X0187468Y0098478D01*
X0187434Y0098447D01*
X0187402Y0098413D01*
X0187373Y0098377D01*
X0187347Y0098339D01*
X0187324Y0098299D01*
X0187304Y0098257D01*
X0187287Y0098214D01*
X0187045Y0097167D02*
X0187047Y0097077D01*
X0187052Y0096986D01*
X0187060Y0096897D01*
X0187072Y0096807D01*
X0187088Y0096718D01*
X0187106Y0096630D01*
X0187128Y0096542D01*
X0187153Y0096455D01*
X0187182Y0096370D01*
X0187214Y0096285D01*
X0187249Y0096202D01*
X0187287Y0096120D01*
X0190048Y0095717D02*
X0190048Y0098617D01*
X0190853Y0098617D01*
X0190908Y0098615D01*
X0190963Y0098609D01*
X0191017Y0098600D01*
X0191070Y0098587D01*
X0191123Y0098570D01*
X0191174Y0098550D01*
X0191224Y0098527D01*
X0191272Y0098500D01*
X0191318Y0098469D01*
X0191362Y0098436D01*
X0191403Y0098400D01*
X0191442Y0098361D01*
X0191478Y0098320D01*
X0191511Y0098276D01*
X0191542Y0098230D01*
X0191569Y0098182D01*
X0191592Y0098132D01*
X0191612Y0098081D01*
X0191629Y0098028D01*
X0191642Y0097975D01*
X0191651Y0097921D01*
X0191657Y0097866D01*
X0191659Y0097811D01*
X0191659Y0096522D01*
X0191657Y0096467D01*
X0191651Y0096412D01*
X0191642Y0096358D01*
X0191629Y0096305D01*
X0191612Y0096252D01*
X0191592Y0096201D01*
X0191569Y0096151D01*
X0191542Y0096103D01*
X0191511Y0096057D01*
X0191478Y0096013D01*
X0191442Y0095972D01*
X0191403Y0095933D01*
X0191362Y0095897D01*
X0191318Y0095864D01*
X0191272Y0095833D01*
X0191224Y0095806D01*
X0191174Y0095783D01*
X0191123Y0095763D01*
X0191070Y0095746D01*
X0191017Y0095733D01*
X0190963Y0095724D01*
X0190908Y0095718D01*
X0190853Y0095716D01*
X0190853Y0095717D02*
X0190048Y0095717D01*
X0193024Y0095717D02*
X0194635Y0095717D01*
X0193829Y0095717D02*
X0193829Y0098617D01*
X0193024Y0097972D01*
X0195904Y0097972D02*
X0196709Y0098617D01*
X0196709Y0095717D01*
X0195904Y0095717D02*
X0197515Y0095717D01*
X0198906Y0095717D02*
X0198906Y0098617D01*
X0199711Y0098617D01*
X0199766Y0098615D01*
X0199821Y0098609D01*
X0199875Y0098600D01*
X0199928Y0098587D01*
X0199981Y0098570D01*
X0200032Y0098550D01*
X0200082Y0098527D01*
X0200130Y0098500D01*
X0200176Y0098469D01*
X0200220Y0098436D01*
X0200261Y0098400D01*
X0200300Y0098361D01*
X0200336Y0098320D01*
X0200369Y0098276D01*
X0200400Y0098230D01*
X0200427Y0098182D01*
X0200450Y0098132D01*
X0200470Y0098081D01*
X0200487Y0098028D01*
X0200500Y0097975D01*
X0200509Y0097921D01*
X0200515Y0097866D01*
X0200517Y0097811D01*
X0200517Y0096522D01*
X0200515Y0096467D01*
X0200509Y0096412D01*
X0200500Y0096358D01*
X0200487Y0096305D01*
X0200470Y0096252D01*
X0200450Y0096201D01*
X0200427Y0096151D01*
X0200400Y0096103D01*
X0200369Y0096057D01*
X0200336Y0096013D01*
X0200300Y0095972D01*
X0200261Y0095933D01*
X0200220Y0095897D01*
X0200176Y0095864D01*
X0200130Y0095833D01*
X0200082Y0095806D01*
X0200032Y0095783D01*
X0199981Y0095763D01*
X0199928Y0095746D01*
X0199875Y0095733D01*
X0199821Y0095724D01*
X0199766Y0095718D01*
X0199711Y0095716D01*
X0199711Y0095717D02*
X0198906Y0095717D01*
X0201882Y0095717D02*
X0203493Y0095717D01*
X0202687Y0095717D02*
X0202687Y0098617D01*
X0201882Y0097972D01*
X0204762Y0095717D02*
X0206373Y0095717D01*
X0207764Y0095717D02*
X0208570Y0095717D01*
X0208570Y0095716D02*
X0208625Y0095718D01*
X0208680Y0095724D01*
X0208734Y0095733D01*
X0208787Y0095746D01*
X0208840Y0095763D01*
X0208891Y0095783D01*
X0208941Y0095806D01*
X0208989Y0095833D01*
X0209035Y0095864D01*
X0209079Y0095897D01*
X0209120Y0095933D01*
X0209159Y0095972D01*
X0209195Y0096013D01*
X0209228Y0096057D01*
X0209259Y0096103D01*
X0209286Y0096151D01*
X0209309Y0096201D01*
X0209329Y0096252D01*
X0209346Y0096305D01*
X0209359Y0096358D01*
X0209368Y0096412D01*
X0209374Y0096467D01*
X0209376Y0096522D01*
X0209375Y0096522D02*
X0209375Y0097811D01*
X0209376Y0097811D02*
X0209374Y0097866D01*
X0209368Y0097921D01*
X0209359Y0097975D01*
X0209346Y0098028D01*
X0209329Y0098081D01*
X0209309Y0098132D01*
X0209286Y0098182D01*
X0209259Y0098230D01*
X0209228Y0098276D01*
X0209195Y0098320D01*
X0209159Y0098361D01*
X0209120Y0098400D01*
X0209079Y0098436D01*
X0209035Y0098469D01*
X0208989Y0098500D01*
X0208941Y0098527D01*
X0208891Y0098550D01*
X0208840Y0098570D01*
X0208787Y0098587D01*
X0208734Y0098600D01*
X0208680Y0098609D01*
X0208625Y0098615D01*
X0208570Y0098617D01*
X0207764Y0098617D01*
X0207764Y0095717D01*
X0206131Y0097328D02*
X0204762Y0095717D01*
X0204762Y0097972D02*
X0204782Y0098027D01*
X0204805Y0098081D01*
X0204832Y0098133D01*
X0204862Y0098183D01*
X0204894Y0098232D01*
X0204930Y0098278D01*
X0204969Y0098322D01*
X0205010Y0098363D01*
X0205054Y0098402D01*
X0205100Y0098438D01*
X0205149Y0098471D01*
X0205199Y0098501D01*
X0205251Y0098527D01*
X0205305Y0098551D01*
X0205360Y0098570D01*
X0205416Y0098587D01*
X0205473Y0098599D01*
X0205531Y0098609D01*
X0205589Y0098614D01*
X0205648Y0098616D01*
X0205648Y0098617D02*
X0205700Y0098615D01*
X0205751Y0098610D01*
X0205802Y0098600D01*
X0205852Y0098588D01*
X0205901Y0098571D01*
X0205949Y0098551D01*
X0205995Y0098528D01*
X0206040Y0098502D01*
X0206082Y0098472D01*
X0206123Y0098440D01*
X0206161Y0098405D01*
X0206196Y0098367D01*
X0206228Y0098326D01*
X0206258Y0098284D01*
X0206284Y0098239D01*
X0206307Y0098193D01*
X0206327Y0098145D01*
X0206344Y0098096D01*
X0206356Y0098046D01*
X0206366Y0097995D01*
X0206371Y0097944D01*
X0206373Y0097892D01*
X0206371Y0097839D01*
X0206366Y0097787D01*
X0206357Y0097735D01*
X0206345Y0097684D01*
X0206329Y0097634D01*
X0206310Y0097585D01*
X0206288Y0097538D01*
X0206262Y0097492D01*
X0206234Y0097447D01*
X0206202Y0097405D01*
X0206168Y0097365D01*
X0206131Y0097328D01*
X0210740Y0097972D02*
X0211546Y0098617D01*
X0211546Y0095717D01*
X0212351Y0095717D02*
X0210740Y0095717D01*
X0213620Y0095717D02*
X0214426Y0095717D01*
X0214426Y0095716D02*
X0214481Y0095718D01*
X0214536Y0095724D01*
X0214590Y0095733D01*
X0214643Y0095746D01*
X0214696Y0095763D01*
X0214747Y0095783D01*
X0214797Y0095806D01*
X0214845Y0095833D01*
X0214891Y0095864D01*
X0214935Y0095897D01*
X0214976Y0095933D01*
X0215015Y0095972D01*
X0215051Y0096013D01*
X0215084Y0096057D01*
X0215115Y0096103D01*
X0215142Y0096151D01*
X0215165Y0096201D01*
X0215185Y0096252D01*
X0215202Y0096305D01*
X0215215Y0096358D01*
X0215224Y0096412D01*
X0215230Y0096467D01*
X0215232Y0096522D01*
X0215230Y0096577D01*
X0215224Y0096632D01*
X0215215Y0096686D01*
X0215202Y0096739D01*
X0215185Y0096792D01*
X0215165Y0096843D01*
X0215142Y0096893D01*
X0215115Y0096941D01*
X0215084Y0096987D01*
X0215051Y0097031D01*
X0215015Y0097072D01*
X0214976Y0097111D01*
X0214935Y0097147D01*
X0214891Y0097180D01*
X0214845Y0097211D01*
X0214797Y0097238D01*
X0214747Y0097261D01*
X0214696Y0097281D01*
X0214643Y0097298D01*
X0214590Y0097311D01*
X0214536Y0097320D01*
X0214481Y0097326D01*
X0214426Y0097328D01*
X0214587Y0097328D02*
X0213942Y0097328D01*
X0214587Y0097328D02*
X0214636Y0097330D01*
X0214685Y0097336D01*
X0214734Y0097345D01*
X0214781Y0097358D01*
X0214828Y0097375D01*
X0214873Y0097395D01*
X0214916Y0097418D01*
X0214958Y0097445D01*
X0214997Y0097475D01*
X0215034Y0097508D01*
X0215068Y0097544D01*
X0215099Y0097582D01*
X0215128Y0097622D01*
X0215153Y0097664D01*
X0215175Y0097709D01*
X0215193Y0097754D01*
X0215208Y0097801D01*
X0215219Y0097849D01*
X0215227Y0097898D01*
X0215231Y0097947D01*
X0215231Y0097997D01*
X0215227Y0098046D01*
X0215219Y0098095D01*
X0215208Y0098143D01*
X0215193Y0098190D01*
X0215175Y0098235D01*
X0215153Y0098280D01*
X0215128Y0098322D01*
X0215099Y0098362D01*
X0215068Y0098400D01*
X0215034Y0098436D01*
X0214997Y0098469D01*
X0214958Y0098499D01*
X0214916Y0098526D01*
X0214873Y0098549D01*
X0214828Y0098569D01*
X0214781Y0098586D01*
X0214734Y0098599D01*
X0214685Y0098608D01*
X0214636Y0098614D01*
X0214587Y0098616D01*
X0214587Y0098617D02*
X0213620Y0098617D01*
X0216622Y0098617D02*
X0216622Y0095717D01*
X0217428Y0095717D01*
X0217428Y0095716D02*
X0217483Y0095718D01*
X0217538Y0095724D01*
X0217592Y0095733D01*
X0217645Y0095746D01*
X0217698Y0095763D01*
X0217749Y0095783D01*
X0217799Y0095806D01*
X0217847Y0095833D01*
X0217893Y0095864D01*
X0217937Y0095897D01*
X0217978Y0095933D01*
X0218017Y0095972D01*
X0218053Y0096013D01*
X0218086Y0096057D01*
X0218117Y0096103D01*
X0218144Y0096151D01*
X0218167Y0096201D01*
X0218187Y0096252D01*
X0218204Y0096305D01*
X0218217Y0096358D01*
X0218226Y0096412D01*
X0218232Y0096467D01*
X0218234Y0096522D01*
X0218234Y0097811D01*
X0218232Y0097866D01*
X0218226Y0097921D01*
X0218217Y0097975D01*
X0218204Y0098028D01*
X0218187Y0098081D01*
X0218167Y0098132D01*
X0218144Y0098182D01*
X0218117Y0098230D01*
X0218086Y0098276D01*
X0218053Y0098320D01*
X0218017Y0098361D01*
X0217978Y0098400D01*
X0217937Y0098436D01*
X0217893Y0098469D01*
X0217847Y0098500D01*
X0217799Y0098527D01*
X0217749Y0098550D01*
X0217698Y0098570D01*
X0217645Y0098587D01*
X0217592Y0098600D01*
X0217538Y0098609D01*
X0217483Y0098615D01*
X0217428Y0098617D01*
X0216622Y0098617D01*
X0219598Y0097972D02*
X0220404Y0098617D01*
X0220404Y0095717D01*
X0219598Y0095717D02*
X0221210Y0095717D01*
X0222478Y0096361D02*
X0223123Y0098617D01*
X0223606Y0097006D02*
X0223606Y0095717D01*
X0224090Y0096361D02*
X0222478Y0096361D01*
X0225481Y0095717D02*
X0226286Y0095717D01*
X0225481Y0095717D02*
X0225481Y0098617D01*
X0226286Y0098617D01*
X0226341Y0098615D01*
X0226396Y0098609D01*
X0226450Y0098600D01*
X0226503Y0098587D01*
X0226556Y0098570D01*
X0226607Y0098550D01*
X0226657Y0098527D01*
X0226705Y0098500D01*
X0226751Y0098469D01*
X0226795Y0098436D01*
X0226836Y0098400D01*
X0226875Y0098361D01*
X0226911Y0098320D01*
X0226944Y0098276D01*
X0226975Y0098230D01*
X0227002Y0098182D01*
X0227025Y0098132D01*
X0227045Y0098081D01*
X0227062Y0098028D01*
X0227075Y0097975D01*
X0227084Y0097921D01*
X0227090Y0097866D01*
X0227092Y0097811D01*
X0227092Y0096522D01*
X0227090Y0096467D01*
X0227084Y0096412D01*
X0227075Y0096358D01*
X0227062Y0096305D01*
X0227045Y0096252D01*
X0227025Y0096201D01*
X0227002Y0096151D01*
X0226975Y0096103D01*
X0226944Y0096057D01*
X0226911Y0096013D01*
X0226875Y0095972D01*
X0226836Y0095933D01*
X0226795Y0095897D01*
X0226751Y0095864D01*
X0226705Y0095833D01*
X0226657Y0095806D01*
X0226607Y0095783D01*
X0226556Y0095763D01*
X0226503Y0095746D01*
X0226450Y0095733D01*
X0226396Y0095724D01*
X0226341Y0095718D01*
X0226286Y0095716D01*
X0228457Y0095717D02*
X0230068Y0095717D01*
X0229262Y0095717D02*
X0229262Y0098617D01*
X0228457Y0097972D01*
X0231337Y0097328D02*
X0231337Y0098617D01*
X0232948Y0098617D01*
X0234339Y0098617D02*
X0234339Y0095717D01*
X0235145Y0095717D01*
X0235145Y0095716D02*
X0235200Y0095718D01*
X0235255Y0095724D01*
X0235309Y0095733D01*
X0235362Y0095746D01*
X0235415Y0095763D01*
X0235466Y0095783D01*
X0235516Y0095806D01*
X0235564Y0095833D01*
X0235610Y0095864D01*
X0235654Y0095897D01*
X0235695Y0095933D01*
X0235734Y0095972D01*
X0235770Y0096013D01*
X0235803Y0096057D01*
X0235834Y0096103D01*
X0235861Y0096151D01*
X0235884Y0096201D01*
X0235904Y0096252D01*
X0235921Y0096305D01*
X0235934Y0096358D01*
X0235943Y0096412D01*
X0235949Y0096467D01*
X0235951Y0096522D01*
X0235950Y0096522D02*
X0235950Y0097811D01*
X0235951Y0097811D02*
X0235949Y0097866D01*
X0235943Y0097921D01*
X0235934Y0097975D01*
X0235921Y0098028D01*
X0235904Y0098081D01*
X0235884Y0098132D01*
X0235861Y0098182D01*
X0235834Y0098230D01*
X0235803Y0098276D01*
X0235770Y0098320D01*
X0235734Y0098361D01*
X0235695Y0098400D01*
X0235654Y0098436D01*
X0235610Y0098469D01*
X0235564Y0098500D01*
X0235516Y0098527D01*
X0235466Y0098550D01*
X0235415Y0098570D01*
X0235362Y0098587D01*
X0235309Y0098600D01*
X0235255Y0098609D01*
X0235200Y0098615D01*
X0235145Y0098617D01*
X0234339Y0098617D01*
X0232948Y0096684D02*
X0232948Y0096361D01*
X0232947Y0096361D02*
X0232945Y0096313D01*
X0232940Y0096265D01*
X0232931Y0096218D01*
X0232918Y0096171D01*
X0232902Y0096126D01*
X0232883Y0096082D01*
X0232861Y0096039D01*
X0232835Y0095998D01*
X0232806Y0095959D01*
X0232775Y0095923D01*
X0232741Y0095889D01*
X0232705Y0095858D01*
X0232666Y0095829D01*
X0232625Y0095803D01*
X0232582Y0095781D01*
X0232538Y0095762D01*
X0232493Y0095746D01*
X0232446Y0095733D01*
X0232399Y0095724D01*
X0232351Y0095719D01*
X0232303Y0095717D01*
X0231337Y0095717D01*
X0232947Y0096684D02*
X0232945Y0096732D01*
X0232940Y0096780D01*
X0232931Y0096827D01*
X0232918Y0096874D01*
X0232902Y0096919D01*
X0232883Y0096963D01*
X0232861Y0097006D01*
X0232835Y0097047D01*
X0232806Y0097086D01*
X0232775Y0097122D01*
X0232741Y0097156D01*
X0232705Y0097187D01*
X0232666Y0097216D01*
X0232625Y0097242D01*
X0232582Y0097264D01*
X0232538Y0097283D01*
X0232493Y0097299D01*
X0232446Y0097312D01*
X0232399Y0097321D01*
X0232351Y0097326D01*
X0232303Y0097328D01*
X0231337Y0097328D01*
X0237315Y0097972D02*
X0238121Y0098617D01*
X0238121Y0095717D01*
X0238926Y0095717D02*
X0237315Y0095717D01*
X0240195Y0096522D02*
X0240195Y0097328D01*
X0241162Y0097328D01*
X0240195Y0097328D02*
X0240197Y0097398D01*
X0240203Y0097467D01*
X0240212Y0097537D01*
X0240225Y0097605D01*
X0240242Y0097673D01*
X0240262Y0097740D01*
X0240287Y0097805D01*
X0240314Y0097869D01*
X0240345Y0097932D01*
X0240380Y0097993D01*
X0240417Y0098051D01*
X0240458Y0098108D01*
X0240502Y0098162D01*
X0240548Y0098214D01*
X0240598Y0098264D01*
X0240650Y0098310D01*
X0240704Y0098354D01*
X0240761Y0098395D01*
X0240819Y0098432D01*
X0240880Y0098467D01*
X0240943Y0098498D01*
X0241007Y0098525D01*
X0241072Y0098550D01*
X0241139Y0098570D01*
X0241207Y0098587D01*
X0241275Y0098600D01*
X0241345Y0098609D01*
X0241414Y0098615D01*
X0241484Y0098617D01*
X0241806Y0096684D02*
X0241806Y0096522D01*
X0241806Y0096684D02*
X0241804Y0096732D01*
X0241799Y0096780D01*
X0241790Y0096827D01*
X0241777Y0096874D01*
X0241761Y0096919D01*
X0241742Y0096963D01*
X0241720Y0097006D01*
X0241694Y0097047D01*
X0241665Y0097086D01*
X0241634Y0097122D01*
X0241600Y0097156D01*
X0241564Y0097187D01*
X0241525Y0097216D01*
X0241484Y0097242D01*
X0241441Y0097264D01*
X0241397Y0097283D01*
X0241352Y0097299D01*
X0241305Y0097312D01*
X0241258Y0097321D01*
X0241210Y0097326D01*
X0241162Y0097328D01*
X0241807Y0096522D02*
X0241805Y0096467D01*
X0241799Y0096412D01*
X0241790Y0096358D01*
X0241777Y0096305D01*
X0241760Y0096252D01*
X0241740Y0096201D01*
X0241717Y0096151D01*
X0241690Y0096103D01*
X0241659Y0096057D01*
X0241626Y0096013D01*
X0241590Y0095972D01*
X0241551Y0095933D01*
X0241510Y0095897D01*
X0241466Y0095864D01*
X0241420Y0095833D01*
X0241372Y0095806D01*
X0241322Y0095783D01*
X0241271Y0095763D01*
X0241218Y0095746D01*
X0241165Y0095733D01*
X0241111Y0095724D01*
X0241056Y0095718D01*
X0241001Y0095716D01*
X0240946Y0095718D01*
X0240891Y0095724D01*
X0240837Y0095733D01*
X0240784Y0095746D01*
X0240731Y0095763D01*
X0240680Y0095783D01*
X0240630Y0095806D01*
X0240582Y0095833D01*
X0240536Y0095864D01*
X0240492Y0095897D01*
X0240451Y0095933D01*
X0240412Y0095972D01*
X0240376Y0096013D01*
X0240343Y0096057D01*
X0240312Y0096103D01*
X0240285Y0096151D01*
X0240262Y0096201D01*
X0240242Y0096252D01*
X0240225Y0096305D01*
X0240212Y0096358D01*
X0240203Y0096412D01*
X0240197Y0096467D01*
X0240195Y0096522D01*
X0108932Y0116333D02*
X0108127Y0113433D01*
X0106052Y0113433D02*
X0104441Y0113433D01*
X0105247Y0113433D02*
X0105247Y0116333D01*
X0104441Y0115689D01*
X0103076Y0115528D02*
X0103076Y0114239D01*
X0103077Y0114239D02*
X0103075Y0114184D01*
X0103069Y0114129D01*
X0103060Y0114075D01*
X0103047Y0114022D01*
X0103030Y0113969D01*
X0103010Y0113918D01*
X0102987Y0113868D01*
X0102960Y0113820D01*
X0102929Y0113774D01*
X0102896Y0113730D01*
X0102860Y0113689D01*
X0102821Y0113650D01*
X0102780Y0113614D01*
X0102736Y0113581D01*
X0102690Y0113550D01*
X0102642Y0113523D01*
X0102592Y0113500D01*
X0102541Y0113480D01*
X0102488Y0113463D01*
X0102435Y0113450D01*
X0102381Y0113441D01*
X0102326Y0113435D01*
X0102271Y0113433D01*
X0101465Y0113433D01*
X0101465Y0116333D01*
X0102271Y0116333D01*
X0102271Y0116334D02*
X0102326Y0116332D01*
X0102381Y0116326D01*
X0102435Y0116317D01*
X0102488Y0116304D01*
X0102541Y0116287D01*
X0102592Y0116267D01*
X0102642Y0116244D01*
X0102690Y0116217D01*
X0102736Y0116186D01*
X0102780Y0116153D01*
X0102821Y0116117D01*
X0102860Y0116078D01*
X0102896Y0116037D01*
X0102929Y0115993D01*
X0102960Y0115947D01*
X0102987Y0115899D01*
X0103010Y0115849D01*
X0103030Y0115798D01*
X0103047Y0115745D01*
X0103060Y0115692D01*
X0103069Y0115638D01*
X0103075Y0115583D01*
X0103077Y0115528D01*
X0107321Y0116011D02*
X0107321Y0116333D01*
X0108932Y0116333D01*
X0106052Y0131150D02*
X0104441Y0131150D01*
X0105247Y0131150D02*
X0105247Y0134050D01*
X0104441Y0133406D01*
X0103076Y0133244D02*
X0103076Y0131956D01*
X0103077Y0131956D02*
X0103075Y0131901D01*
X0103069Y0131846D01*
X0103060Y0131792D01*
X0103047Y0131739D01*
X0103030Y0131686D01*
X0103010Y0131635D01*
X0102987Y0131585D01*
X0102960Y0131537D01*
X0102929Y0131491D01*
X0102896Y0131447D01*
X0102860Y0131406D01*
X0102821Y0131367D01*
X0102780Y0131331D01*
X0102736Y0131298D01*
X0102690Y0131267D01*
X0102642Y0131240D01*
X0102592Y0131217D01*
X0102541Y0131197D01*
X0102488Y0131180D01*
X0102435Y0131167D01*
X0102381Y0131158D01*
X0102326Y0131152D01*
X0102271Y0131150D01*
X0101465Y0131150D01*
X0101465Y0134050D01*
X0102271Y0134050D01*
X0102326Y0134048D01*
X0102381Y0134042D01*
X0102435Y0134033D01*
X0102488Y0134020D01*
X0102541Y0134003D01*
X0102592Y0133983D01*
X0102642Y0133960D01*
X0102690Y0133933D01*
X0102736Y0133902D01*
X0102780Y0133869D01*
X0102821Y0133833D01*
X0102860Y0133794D01*
X0102896Y0133753D01*
X0102929Y0133709D01*
X0102960Y0133663D01*
X0102987Y0133615D01*
X0103010Y0133565D01*
X0103030Y0133514D01*
X0103047Y0133461D01*
X0103060Y0133408D01*
X0103069Y0133354D01*
X0103075Y0133299D01*
X0103077Y0133244D01*
X0107321Y0133244D02*
X0107321Y0133083D01*
X0107323Y0133035D01*
X0107328Y0132987D01*
X0107337Y0132940D01*
X0107350Y0132893D01*
X0107366Y0132848D01*
X0107385Y0132804D01*
X0107407Y0132761D01*
X0107433Y0132720D01*
X0107461Y0132681D01*
X0107493Y0132645D01*
X0107527Y0132611D01*
X0107563Y0132580D01*
X0107602Y0132551D01*
X0107643Y0132525D01*
X0107686Y0132503D01*
X0107730Y0132484D01*
X0107775Y0132468D01*
X0107822Y0132455D01*
X0107869Y0132446D01*
X0107917Y0132441D01*
X0107965Y0132439D01*
X0108932Y0132439D01*
X0108932Y0133244D01*
X0108933Y0133244D02*
X0108931Y0133299D01*
X0108925Y0133354D01*
X0108916Y0133408D01*
X0108903Y0133461D01*
X0108886Y0133514D01*
X0108866Y0133565D01*
X0108843Y0133615D01*
X0108816Y0133663D01*
X0108785Y0133709D01*
X0108752Y0133753D01*
X0108716Y0133794D01*
X0108677Y0133833D01*
X0108636Y0133869D01*
X0108592Y0133902D01*
X0108546Y0133933D01*
X0108498Y0133960D01*
X0108448Y0133983D01*
X0108397Y0134003D01*
X0108344Y0134020D01*
X0108291Y0134033D01*
X0108237Y0134042D01*
X0108182Y0134048D01*
X0108127Y0134050D01*
X0108072Y0134048D01*
X0108017Y0134042D01*
X0107963Y0134033D01*
X0107910Y0134020D01*
X0107857Y0134003D01*
X0107806Y0133983D01*
X0107756Y0133960D01*
X0107708Y0133933D01*
X0107662Y0133902D01*
X0107618Y0133869D01*
X0107577Y0133833D01*
X0107538Y0133794D01*
X0107502Y0133753D01*
X0107469Y0133709D01*
X0107438Y0133663D01*
X0107411Y0133615D01*
X0107388Y0133565D01*
X0107368Y0133514D01*
X0107351Y0133461D01*
X0107338Y0133408D01*
X0107329Y0133354D01*
X0107323Y0133299D01*
X0107321Y0133244D01*
X0108932Y0132439D02*
X0108930Y0132369D01*
X0108924Y0132300D01*
X0108915Y0132230D01*
X0108902Y0132162D01*
X0108885Y0132094D01*
X0108865Y0132027D01*
X0108840Y0131962D01*
X0108813Y0131898D01*
X0108782Y0131835D01*
X0108747Y0131774D01*
X0108710Y0131716D01*
X0108669Y0131659D01*
X0108625Y0131605D01*
X0108579Y0131553D01*
X0108529Y0131503D01*
X0108477Y0131457D01*
X0108423Y0131413D01*
X0108366Y0131372D01*
X0108308Y0131335D01*
X0108247Y0131300D01*
X0108184Y0131269D01*
X0108120Y0131242D01*
X0108055Y0131217D01*
X0107988Y0131197D01*
X0107920Y0131180D01*
X0107852Y0131167D01*
X0107782Y0131158D01*
X0107713Y0131152D01*
X0107643Y0131150D01*
X0107321Y0148867D02*
X0108932Y0148867D01*
X0108127Y0148867D02*
X0108127Y0151767D01*
X0107321Y0151122D01*
X0105810Y0150478D02*
X0104441Y0148867D01*
X0106052Y0148867D01*
X0104441Y0151122D02*
X0104461Y0151177D01*
X0104484Y0151231D01*
X0104511Y0151283D01*
X0104541Y0151333D01*
X0104573Y0151382D01*
X0104609Y0151428D01*
X0104648Y0151472D01*
X0104689Y0151513D01*
X0104733Y0151552D01*
X0104779Y0151588D01*
X0104828Y0151621D01*
X0104878Y0151651D01*
X0104930Y0151677D01*
X0104984Y0151701D01*
X0105039Y0151720D01*
X0105095Y0151737D01*
X0105152Y0151749D01*
X0105210Y0151759D01*
X0105268Y0151764D01*
X0105327Y0151766D01*
X0105327Y0151767D02*
X0105379Y0151765D01*
X0105430Y0151760D01*
X0105481Y0151750D01*
X0105531Y0151738D01*
X0105580Y0151721D01*
X0105628Y0151701D01*
X0105674Y0151678D01*
X0105719Y0151652D01*
X0105761Y0151622D01*
X0105802Y0151590D01*
X0105840Y0151555D01*
X0105875Y0151517D01*
X0105907Y0151476D01*
X0105937Y0151434D01*
X0105963Y0151389D01*
X0105986Y0151343D01*
X0106006Y0151295D01*
X0106023Y0151246D01*
X0106035Y0151196D01*
X0106045Y0151145D01*
X0106050Y0151094D01*
X0106052Y0151042D01*
X0106050Y0150989D01*
X0106045Y0150937D01*
X0106036Y0150885D01*
X0106024Y0150834D01*
X0106008Y0150784D01*
X0105989Y0150735D01*
X0105967Y0150688D01*
X0105941Y0150642D01*
X0105913Y0150597D01*
X0105881Y0150555D01*
X0105847Y0150515D01*
X0105810Y0150478D01*
X0103076Y0150961D02*
X0103076Y0149672D01*
X0103077Y0149672D02*
X0103075Y0149617D01*
X0103069Y0149562D01*
X0103060Y0149508D01*
X0103047Y0149455D01*
X0103030Y0149402D01*
X0103010Y0149351D01*
X0102987Y0149301D01*
X0102960Y0149253D01*
X0102929Y0149207D01*
X0102896Y0149163D01*
X0102860Y0149122D01*
X0102821Y0149083D01*
X0102780Y0149047D01*
X0102736Y0149014D01*
X0102690Y0148983D01*
X0102642Y0148956D01*
X0102592Y0148933D01*
X0102541Y0148913D01*
X0102488Y0148896D01*
X0102435Y0148883D01*
X0102381Y0148874D01*
X0102326Y0148868D01*
X0102271Y0148866D01*
X0102271Y0148867D02*
X0101465Y0148867D01*
X0101465Y0151767D01*
X0102271Y0151767D01*
X0102326Y0151765D01*
X0102381Y0151759D01*
X0102435Y0151750D01*
X0102488Y0151737D01*
X0102541Y0151720D01*
X0102592Y0151700D01*
X0102642Y0151677D01*
X0102690Y0151650D01*
X0102736Y0151619D01*
X0102780Y0151586D01*
X0102821Y0151550D01*
X0102860Y0151511D01*
X0102896Y0151470D01*
X0102929Y0151426D01*
X0102960Y0151380D01*
X0102987Y0151332D01*
X0103010Y0151282D01*
X0103030Y0151231D01*
X0103047Y0151178D01*
X0103060Y0151125D01*
X0103069Y0151071D01*
X0103075Y0151016D01*
X0103077Y0150961D01*
X0102271Y0166583D02*
X0101465Y0166583D01*
X0101465Y0169483D01*
X0102271Y0169483D01*
X0102271Y0169484D02*
X0102326Y0169482D01*
X0102381Y0169476D01*
X0102435Y0169467D01*
X0102488Y0169454D01*
X0102541Y0169437D01*
X0102592Y0169417D01*
X0102642Y0169394D01*
X0102690Y0169367D01*
X0102736Y0169336D01*
X0102780Y0169303D01*
X0102821Y0169267D01*
X0102860Y0169228D01*
X0102896Y0169187D01*
X0102929Y0169143D01*
X0102960Y0169097D01*
X0102987Y0169049D01*
X0103010Y0168999D01*
X0103030Y0168948D01*
X0103047Y0168895D01*
X0103060Y0168842D01*
X0103069Y0168788D01*
X0103075Y0168733D01*
X0103077Y0168678D01*
X0103076Y0168678D02*
X0103076Y0167389D01*
X0103077Y0167389D02*
X0103075Y0167334D01*
X0103069Y0167279D01*
X0103060Y0167225D01*
X0103047Y0167172D01*
X0103030Y0167119D01*
X0103010Y0167068D01*
X0102987Y0167018D01*
X0102960Y0166970D01*
X0102929Y0166924D01*
X0102896Y0166880D01*
X0102860Y0166839D01*
X0102821Y0166800D01*
X0102780Y0166764D01*
X0102736Y0166731D01*
X0102690Y0166700D01*
X0102642Y0166673D01*
X0102592Y0166650D01*
X0102541Y0166630D01*
X0102488Y0166613D01*
X0102435Y0166600D01*
X0102381Y0166591D01*
X0102326Y0166585D01*
X0102271Y0166583D01*
X0104441Y0166583D02*
X0105810Y0168194D01*
X0105327Y0169483D02*
X0105268Y0169481D01*
X0105210Y0169476D01*
X0105152Y0169466D01*
X0105095Y0169454D01*
X0105039Y0169437D01*
X0104984Y0169418D01*
X0104930Y0169394D01*
X0104878Y0169368D01*
X0104828Y0169338D01*
X0104779Y0169305D01*
X0104733Y0169269D01*
X0104689Y0169230D01*
X0104648Y0169189D01*
X0104609Y0169145D01*
X0104573Y0169099D01*
X0104541Y0169050D01*
X0104511Y0169000D01*
X0104484Y0168948D01*
X0104461Y0168894D01*
X0104441Y0168839D01*
X0105810Y0168194D02*
X0105847Y0168231D01*
X0105881Y0168271D01*
X0105913Y0168313D01*
X0105941Y0168358D01*
X0105967Y0168404D01*
X0105989Y0168451D01*
X0106008Y0168500D01*
X0106024Y0168550D01*
X0106036Y0168601D01*
X0106045Y0168653D01*
X0106050Y0168705D01*
X0106052Y0168758D01*
X0106050Y0168810D01*
X0106045Y0168861D01*
X0106035Y0168912D01*
X0106023Y0168962D01*
X0106006Y0169011D01*
X0105986Y0169059D01*
X0105963Y0169105D01*
X0105937Y0169150D01*
X0105907Y0169192D01*
X0105875Y0169233D01*
X0105840Y0169271D01*
X0105802Y0169306D01*
X0105761Y0169338D01*
X0105719Y0169368D01*
X0105674Y0169394D01*
X0105628Y0169417D01*
X0105580Y0169437D01*
X0105531Y0169454D01*
X0105481Y0169466D01*
X0105430Y0169476D01*
X0105379Y0169481D01*
X0105327Y0169483D01*
X0107321Y0169483D02*
X0108288Y0169483D01*
X0108337Y0169481D01*
X0108386Y0169475D01*
X0108435Y0169466D01*
X0108482Y0169453D01*
X0108529Y0169436D01*
X0108574Y0169416D01*
X0108617Y0169393D01*
X0108659Y0169366D01*
X0108698Y0169336D01*
X0108735Y0169303D01*
X0108769Y0169267D01*
X0108800Y0169229D01*
X0108829Y0169189D01*
X0108854Y0169147D01*
X0108876Y0169102D01*
X0108894Y0169057D01*
X0108909Y0169010D01*
X0108920Y0168962D01*
X0108928Y0168913D01*
X0108932Y0168864D01*
X0108932Y0168814D01*
X0108928Y0168765D01*
X0108920Y0168716D01*
X0108909Y0168668D01*
X0108894Y0168621D01*
X0108876Y0168576D01*
X0108854Y0168531D01*
X0108829Y0168489D01*
X0108800Y0168449D01*
X0108769Y0168411D01*
X0108735Y0168375D01*
X0108698Y0168342D01*
X0108659Y0168312D01*
X0108617Y0168285D01*
X0108574Y0168262D01*
X0108529Y0168242D01*
X0108482Y0168225D01*
X0108435Y0168212D01*
X0108386Y0168203D01*
X0108337Y0168197D01*
X0108288Y0168195D01*
X0108288Y0168194D02*
X0107643Y0168194D01*
X0108127Y0168195D02*
X0108182Y0168193D01*
X0108237Y0168187D01*
X0108291Y0168178D01*
X0108344Y0168165D01*
X0108397Y0168148D01*
X0108448Y0168128D01*
X0108498Y0168105D01*
X0108546Y0168078D01*
X0108592Y0168047D01*
X0108636Y0168014D01*
X0108677Y0167978D01*
X0108716Y0167939D01*
X0108752Y0167898D01*
X0108785Y0167854D01*
X0108816Y0167808D01*
X0108843Y0167760D01*
X0108866Y0167710D01*
X0108886Y0167659D01*
X0108903Y0167606D01*
X0108916Y0167553D01*
X0108925Y0167499D01*
X0108931Y0167444D01*
X0108933Y0167389D01*
X0108931Y0167334D01*
X0108925Y0167279D01*
X0108916Y0167225D01*
X0108903Y0167172D01*
X0108886Y0167119D01*
X0108866Y0167068D01*
X0108843Y0167018D01*
X0108816Y0166970D01*
X0108785Y0166924D01*
X0108752Y0166880D01*
X0108716Y0166839D01*
X0108677Y0166800D01*
X0108636Y0166764D01*
X0108592Y0166731D01*
X0108546Y0166700D01*
X0108498Y0166673D01*
X0108448Y0166650D01*
X0108397Y0166630D01*
X0108344Y0166613D01*
X0108291Y0166600D01*
X0108237Y0166591D01*
X0108182Y0166585D01*
X0108127Y0166583D01*
X0107321Y0166583D01*
X0106052Y0166583D02*
X0104441Y0166583D01*
X0104441Y0184300D02*
X0106052Y0184300D01*
X0107321Y0184300D02*
X0108288Y0184300D01*
X0108336Y0184302D01*
X0108384Y0184307D01*
X0108431Y0184316D01*
X0108478Y0184329D01*
X0108523Y0184345D01*
X0108567Y0184364D01*
X0108610Y0184386D01*
X0108651Y0184412D01*
X0108690Y0184441D01*
X0108726Y0184472D01*
X0108760Y0184506D01*
X0108791Y0184542D01*
X0108820Y0184581D01*
X0108846Y0184622D01*
X0108868Y0184665D01*
X0108887Y0184709D01*
X0108903Y0184754D01*
X0108916Y0184801D01*
X0108925Y0184848D01*
X0108930Y0184896D01*
X0108932Y0184944D01*
X0108932Y0185266D01*
X0108930Y0185314D01*
X0108925Y0185362D01*
X0108916Y0185409D01*
X0108903Y0185456D01*
X0108887Y0185501D01*
X0108868Y0185545D01*
X0108846Y0185588D01*
X0108820Y0185629D01*
X0108791Y0185668D01*
X0108760Y0185704D01*
X0108726Y0185738D01*
X0108690Y0185769D01*
X0108651Y0185798D01*
X0108610Y0185824D01*
X0108567Y0185846D01*
X0108523Y0185865D01*
X0108478Y0185881D01*
X0108431Y0185894D01*
X0108384Y0185903D01*
X0108336Y0185908D01*
X0108288Y0185910D01*
X0108288Y0185911D02*
X0107321Y0185911D01*
X0107321Y0187200D01*
X0108932Y0187200D01*
X0105810Y0185911D02*
X0104441Y0184300D01*
X0103076Y0185105D02*
X0103076Y0186394D01*
X0103077Y0186394D02*
X0103075Y0186449D01*
X0103069Y0186504D01*
X0103060Y0186558D01*
X0103047Y0186611D01*
X0103030Y0186664D01*
X0103010Y0186715D01*
X0102987Y0186765D01*
X0102960Y0186813D01*
X0102929Y0186859D01*
X0102896Y0186903D01*
X0102860Y0186944D01*
X0102821Y0186983D01*
X0102780Y0187019D01*
X0102736Y0187052D01*
X0102690Y0187083D01*
X0102642Y0187110D01*
X0102592Y0187133D01*
X0102541Y0187153D01*
X0102488Y0187170D01*
X0102435Y0187183D01*
X0102381Y0187192D01*
X0102326Y0187198D01*
X0102271Y0187200D01*
X0101465Y0187200D01*
X0101465Y0184300D01*
X0102271Y0184300D01*
X0102271Y0184299D02*
X0102326Y0184301D01*
X0102381Y0184307D01*
X0102435Y0184316D01*
X0102488Y0184329D01*
X0102541Y0184346D01*
X0102592Y0184366D01*
X0102642Y0184389D01*
X0102690Y0184416D01*
X0102736Y0184447D01*
X0102780Y0184480D01*
X0102821Y0184516D01*
X0102860Y0184555D01*
X0102896Y0184596D01*
X0102929Y0184640D01*
X0102960Y0184686D01*
X0102987Y0184734D01*
X0103010Y0184784D01*
X0103030Y0184835D01*
X0103047Y0184888D01*
X0103060Y0184941D01*
X0103069Y0184995D01*
X0103075Y0185050D01*
X0103077Y0185105D01*
X0104441Y0186555D02*
X0104461Y0186610D01*
X0104484Y0186664D01*
X0104511Y0186716D01*
X0104541Y0186766D01*
X0104573Y0186815D01*
X0104609Y0186861D01*
X0104648Y0186905D01*
X0104689Y0186946D01*
X0104733Y0186985D01*
X0104779Y0187021D01*
X0104828Y0187054D01*
X0104878Y0187084D01*
X0104930Y0187110D01*
X0104984Y0187134D01*
X0105039Y0187153D01*
X0105095Y0187170D01*
X0105152Y0187182D01*
X0105210Y0187192D01*
X0105268Y0187197D01*
X0105327Y0187199D01*
X0105327Y0187200D02*
X0105379Y0187198D01*
X0105430Y0187193D01*
X0105481Y0187183D01*
X0105531Y0187171D01*
X0105580Y0187154D01*
X0105628Y0187134D01*
X0105674Y0187111D01*
X0105719Y0187085D01*
X0105761Y0187055D01*
X0105802Y0187023D01*
X0105840Y0186988D01*
X0105875Y0186950D01*
X0105907Y0186909D01*
X0105937Y0186867D01*
X0105963Y0186822D01*
X0105986Y0186776D01*
X0106006Y0186728D01*
X0106023Y0186679D01*
X0106035Y0186629D01*
X0106045Y0186578D01*
X0106050Y0186527D01*
X0106052Y0186475D01*
X0106050Y0186422D01*
X0106045Y0186370D01*
X0106036Y0186318D01*
X0106024Y0186267D01*
X0106008Y0186217D01*
X0105989Y0186168D01*
X0105967Y0186121D01*
X0105941Y0186075D01*
X0105913Y0186030D01*
X0105881Y0185988D01*
X0105847Y0185948D01*
X0105810Y0185911D01*
X0106052Y0202016D02*
X0104441Y0202016D01*
X0105810Y0203627D01*
X0105327Y0204916D02*
X0105268Y0204914D01*
X0105210Y0204909D01*
X0105152Y0204899D01*
X0105095Y0204887D01*
X0105039Y0204870D01*
X0104984Y0204851D01*
X0104930Y0204827D01*
X0104878Y0204801D01*
X0104828Y0204771D01*
X0104779Y0204738D01*
X0104733Y0204702D01*
X0104689Y0204663D01*
X0104648Y0204622D01*
X0104609Y0204578D01*
X0104573Y0204532D01*
X0104541Y0204483D01*
X0104511Y0204433D01*
X0104484Y0204381D01*
X0104461Y0204327D01*
X0104441Y0204272D01*
X0105810Y0203627D02*
X0105847Y0203664D01*
X0105881Y0203704D01*
X0105913Y0203746D01*
X0105941Y0203791D01*
X0105967Y0203837D01*
X0105989Y0203884D01*
X0106008Y0203933D01*
X0106024Y0203983D01*
X0106036Y0204034D01*
X0106045Y0204086D01*
X0106050Y0204138D01*
X0106052Y0204191D01*
X0106050Y0204243D01*
X0106045Y0204294D01*
X0106035Y0204345D01*
X0106023Y0204395D01*
X0106006Y0204444D01*
X0105986Y0204492D01*
X0105963Y0204538D01*
X0105937Y0204583D01*
X0105907Y0204625D01*
X0105875Y0204666D01*
X0105840Y0204704D01*
X0105802Y0204739D01*
X0105761Y0204771D01*
X0105719Y0204801D01*
X0105674Y0204827D01*
X0105628Y0204850D01*
X0105580Y0204870D01*
X0105531Y0204887D01*
X0105481Y0204899D01*
X0105430Y0204909D01*
X0105379Y0204914D01*
X0105327Y0204916D01*
X0107321Y0204916D02*
X0108932Y0204916D01*
X0108127Y0202016D01*
X0107321Y0204594D02*
X0107321Y0204916D01*
X0103076Y0204111D02*
X0103076Y0202822D01*
X0103077Y0202822D02*
X0103075Y0202767D01*
X0103069Y0202712D01*
X0103060Y0202658D01*
X0103047Y0202605D01*
X0103030Y0202552D01*
X0103010Y0202501D01*
X0102987Y0202451D01*
X0102960Y0202403D01*
X0102929Y0202357D01*
X0102896Y0202313D01*
X0102860Y0202272D01*
X0102821Y0202233D01*
X0102780Y0202197D01*
X0102736Y0202164D01*
X0102690Y0202133D01*
X0102642Y0202106D01*
X0102592Y0202083D01*
X0102541Y0202063D01*
X0102488Y0202046D01*
X0102435Y0202033D01*
X0102381Y0202024D01*
X0102326Y0202018D01*
X0102271Y0202016D01*
X0101465Y0202016D01*
X0101465Y0204916D01*
X0102271Y0204916D01*
X0102271Y0204917D02*
X0102326Y0204915D01*
X0102381Y0204909D01*
X0102435Y0204900D01*
X0102488Y0204887D01*
X0102541Y0204870D01*
X0102592Y0204850D01*
X0102642Y0204827D01*
X0102690Y0204800D01*
X0102736Y0204769D01*
X0102780Y0204736D01*
X0102821Y0204700D01*
X0102860Y0204661D01*
X0102896Y0204620D01*
X0102929Y0204576D01*
X0102960Y0204530D01*
X0102987Y0204482D01*
X0103010Y0204432D01*
X0103030Y0204381D01*
X0103047Y0204328D01*
X0103060Y0204275D01*
X0103069Y0204221D01*
X0103075Y0204166D01*
X0103077Y0204111D01*
X0102271Y0219733D02*
X0101465Y0219733D01*
X0101465Y0222633D01*
X0102271Y0222633D01*
X0102326Y0222631D01*
X0102381Y0222625D01*
X0102435Y0222616D01*
X0102488Y0222603D01*
X0102541Y0222586D01*
X0102592Y0222566D01*
X0102642Y0222543D01*
X0102690Y0222516D01*
X0102736Y0222485D01*
X0102780Y0222452D01*
X0102821Y0222416D01*
X0102860Y0222377D01*
X0102896Y0222336D01*
X0102929Y0222292D01*
X0102960Y0222246D01*
X0102987Y0222198D01*
X0103010Y0222148D01*
X0103030Y0222097D01*
X0103047Y0222044D01*
X0103060Y0221991D01*
X0103069Y0221937D01*
X0103075Y0221882D01*
X0103077Y0221827D01*
X0103076Y0221827D02*
X0103076Y0220538D01*
X0103077Y0220538D02*
X0103075Y0220483D01*
X0103069Y0220428D01*
X0103060Y0220374D01*
X0103047Y0220321D01*
X0103030Y0220268D01*
X0103010Y0220217D01*
X0102987Y0220167D01*
X0102960Y0220119D01*
X0102929Y0220073D01*
X0102896Y0220029D01*
X0102860Y0219988D01*
X0102821Y0219949D01*
X0102780Y0219913D01*
X0102736Y0219880D01*
X0102690Y0219849D01*
X0102642Y0219822D01*
X0102592Y0219799D01*
X0102541Y0219779D01*
X0102488Y0219762D01*
X0102435Y0219749D01*
X0102381Y0219740D01*
X0102326Y0219734D01*
X0102271Y0219732D01*
X0104441Y0219733D02*
X0106052Y0219733D01*
X0104441Y0219733D02*
X0105810Y0221344D01*
X0105327Y0222632D02*
X0105268Y0222630D01*
X0105210Y0222625D01*
X0105152Y0222615D01*
X0105095Y0222603D01*
X0105039Y0222586D01*
X0104984Y0222567D01*
X0104930Y0222543D01*
X0104878Y0222517D01*
X0104828Y0222487D01*
X0104779Y0222454D01*
X0104733Y0222418D01*
X0104689Y0222379D01*
X0104648Y0222338D01*
X0104609Y0222294D01*
X0104573Y0222248D01*
X0104541Y0222199D01*
X0104511Y0222149D01*
X0104484Y0222097D01*
X0104461Y0222043D01*
X0104441Y0221988D01*
X0105810Y0221344D02*
X0105847Y0221381D01*
X0105881Y0221421D01*
X0105913Y0221463D01*
X0105941Y0221508D01*
X0105967Y0221554D01*
X0105989Y0221601D01*
X0106008Y0221650D01*
X0106024Y0221700D01*
X0106036Y0221751D01*
X0106045Y0221803D01*
X0106050Y0221855D01*
X0106052Y0221908D01*
X0106050Y0221960D01*
X0106045Y0222011D01*
X0106035Y0222062D01*
X0106023Y0222112D01*
X0106006Y0222161D01*
X0105986Y0222209D01*
X0105963Y0222255D01*
X0105937Y0222300D01*
X0105907Y0222342D01*
X0105875Y0222383D01*
X0105840Y0222421D01*
X0105802Y0222456D01*
X0105761Y0222488D01*
X0105719Y0222518D01*
X0105674Y0222544D01*
X0105628Y0222567D01*
X0105580Y0222587D01*
X0105531Y0222604D01*
X0105481Y0222616D01*
X0105430Y0222626D01*
X0105379Y0222631D01*
X0105327Y0222633D01*
X0107321Y0221827D02*
X0107321Y0221666D01*
X0107323Y0221618D01*
X0107328Y0221570D01*
X0107337Y0221523D01*
X0107350Y0221476D01*
X0107366Y0221431D01*
X0107385Y0221387D01*
X0107407Y0221344D01*
X0107433Y0221303D01*
X0107461Y0221264D01*
X0107493Y0221228D01*
X0107527Y0221194D01*
X0107563Y0221163D01*
X0107602Y0221134D01*
X0107643Y0221108D01*
X0107686Y0221086D01*
X0107730Y0221067D01*
X0107775Y0221051D01*
X0107822Y0221038D01*
X0107869Y0221029D01*
X0107917Y0221024D01*
X0107965Y0221022D01*
X0108932Y0221022D01*
X0108932Y0221827D01*
X0108933Y0221827D02*
X0108931Y0221882D01*
X0108925Y0221937D01*
X0108916Y0221991D01*
X0108903Y0222044D01*
X0108886Y0222097D01*
X0108866Y0222148D01*
X0108843Y0222198D01*
X0108816Y0222246D01*
X0108785Y0222292D01*
X0108752Y0222336D01*
X0108716Y0222377D01*
X0108677Y0222416D01*
X0108636Y0222452D01*
X0108592Y0222485D01*
X0108546Y0222516D01*
X0108498Y0222543D01*
X0108448Y0222566D01*
X0108397Y0222586D01*
X0108344Y0222603D01*
X0108291Y0222616D01*
X0108237Y0222625D01*
X0108182Y0222631D01*
X0108127Y0222633D01*
X0108072Y0222631D01*
X0108017Y0222625D01*
X0107963Y0222616D01*
X0107910Y0222603D01*
X0107857Y0222586D01*
X0107806Y0222566D01*
X0107756Y0222543D01*
X0107708Y0222516D01*
X0107662Y0222485D01*
X0107618Y0222452D01*
X0107577Y0222416D01*
X0107538Y0222377D01*
X0107502Y0222336D01*
X0107469Y0222292D01*
X0107438Y0222246D01*
X0107411Y0222198D01*
X0107388Y0222148D01*
X0107368Y0222097D01*
X0107351Y0222044D01*
X0107338Y0221991D01*
X0107329Y0221937D01*
X0107323Y0221882D01*
X0107321Y0221827D01*
X0108932Y0221022D02*
X0108930Y0220952D01*
X0108924Y0220883D01*
X0108915Y0220813D01*
X0108902Y0220745D01*
X0108885Y0220677D01*
X0108865Y0220610D01*
X0108840Y0220545D01*
X0108813Y0220481D01*
X0108782Y0220418D01*
X0108747Y0220357D01*
X0108710Y0220299D01*
X0108669Y0220242D01*
X0108625Y0220188D01*
X0108579Y0220136D01*
X0108529Y0220086D01*
X0108477Y0220040D01*
X0108423Y0219996D01*
X0108366Y0219955D01*
X0108308Y0219918D01*
X0108247Y0219883D01*
X0108184Y0219852D01*
X0108120Y0219825D01*
X0108055Y0219800D01*
X0107988Y0219780D01*
X0107920Y0219763D01*
X0107852Y0219750D01*
X0107782Y0219741D01*
X0107713Y0219735D01*
X0107643Y0219733D01*
D14*
X0124476Y0212564D02*
X0124476Y0211542D01*
X0124478Y0211493D01*
X0124483Y0211444D01*
X0124493Y0211396D01*
X0124506Y0211349D01*
X0124522Y0211303D01*
X0124542Y0211258D01*
X0124566Y0211215D01*
X0124592Y0211174D01*
X0124622Y0211135D01*
X0124655Y0211099D01*
X0124690Y0211065D01*
X0124728Y0211034D01*
X0124768Y0211006D01*
X0124810Y0210981D01*
X0124854Y0210959D01*
X0124899Y0210941D01*
X0124946Y0210926D01*
X0124993Y0210915D01*
X0125042Y0210907D01*
X0125091Y0210903D01*
X0125139Y0210903D01*
X0125188Y0210907D01*
X0125237Y0210915D01*
X0125284Y0210926D01*
X0125331Y0210941D01*
X0125376Y0210959D01*
X0125420Y0210981D01*
X0125462Y0211006D01*
X0125502Y0211034D01*
X0125540Y0211065D01*
X0125575Y0211099D01*
X0125608Y0211135D01*
X0125638Y0211174D01*
X0125664Y0211215D01*
X0125688Y0211258D01*
X0125708Y0211303D01*
X0125724Y0211349D01*
X0125737Y0211396D01*
X0125747Y0211444D01*
X0125752Y0211493D01*
X0125754Y0211542D01*
X0125754Y0212564D01*
X0125752Y0212613D01*
X0125747Y0212662D01*
X0125737Y0212710D01*
X0125724Y0212757D01*
X0125708Y0212803D01*
X0125688Y0212848D01*
X0125664Y0212891D01*
X0125638Y0212932D01*
X0125608Y0212971D01*
X0125575Y0213007D01*
X0125540Y0213041D01*
X0125502Y0213072D01*
X0125462Y0213100D01*
X0125420Y0213125D01*
X0125376Y0213147D01*
X0125331Y0213165D01*
X0125284Y0213180D01*
X0125237Y0213191D01*
X0125188Y0213199D01*
X0125139Y0213203D01*
X0125091Y0213203D01*
X0125042Y0213199D01*
X0124993Y0213191D01*
X0124946Y0213180D01*
X0124899Y0213165D01*
X0124854Y0213147D01*
X0124810Y0213125D01*
X0124768Y0213100D01*
X0124728Y0213072D01*
X0124690Y0213041D01*
X0124655Y0213007D01*
X0124622Y0212971D01*
X0124592Y0212932D01*
X0124566Y0212891D01*
X0124542Y0212848D01*
X0124522Y0212803D01*
X0124506Y0212757D01*
X0124493Y0212710D01*
X0124483Y0212662D01*
X0124478Y0212613D01*
X0124476Y0212564D01*
X0125498Y0211414D02*
X0126009Y0210903D01*
X0126669Y0211542D02*
X0126669Y0212181D01*
X0127436Y0212181D01*
X0126670Y0212181D02*
X0126672Y0212243D01*
X0126677Y0212304D01*
X0126687Y0212365D01*
X0126700Y0212426D01*
X0126716Y0212485D01*
X0126736Y0212543D01*
X0126760Y0212600D01*
X0126787Y0212656D01*
X0126817Y0212710D01*
X0126851Y0212762D01*
X0126887Y0212811D01*
X0126927Y0212859D01*
X0126969Y0212904D01*
X0127014Y0212946D01*
X0127062Y0212985D01*
X0127111Y0213022D01*
X0127163Y0213056D01*
X0127217Y0213086D01*
X0127273Y0213113D01*
X0127330Y0213137D01*
X0127388Y0213157D01*
X0127447Y0213173D01*
X0127508Y0213186D01*
X0127569Y0213196D01*
X0127630Y0213201D01*
X0127692Y0213203D01*
X0127947Y0211670D02*
X0127947Y0211542D01*
X0127947Y0211670D02*
X0127945Y0211712D01*
X0127940Y0211754D01*
X0127931Y0211795D01*
X0127919Y0211836D01*
X0127904Y0211875D01*
X0127885Y0211913D01*
X0127864Y0211949D01*
X0127839Y0211984D01*
X0127812Y0212016D01*
X0127782Y0212046D01*
X0127750Y0212073D01*
X0127715Y0212098D01*
X0127679Y0212119D01*
X0127641Y0212138D01*
X0127602Y0212153D01*
X0127561Y0212165D01*
X0127520Y0212174D01*
X0127478Y0212179D01*
X0127436Y0212181D01*
X0127947Y0211542D02*
X0127945Y0211493D01*
X0127940Y0211444D01*
X0127930Y0211396D01*
X0127917Y0211349D01*
X0127901Y0211303D01*
X0127881Y0211258D01*
X0127857Y0211215D01*
X0127831Y0211174D01*
X0127801Y0211135D01*
X0127768Y0211099D01*
X0127733Y0211065D01*
X0127695Y0211034D01*
X0127655Y0211006D01*
X0127613Y0210981D01*
X0127569Y0210959D01*
X0127524Y0210941D01*
X0127477Y0210926D01*
X0127430Y0210915D01*
X0127381Y0210907D01*
X0127332Y0210903D01*
X0127284Y0210903D01*
X0127235Y0210907D01*
X0127186Y0210915D01*
X0127139Y0210926D01*
X0127092Y0210941D01*
X0127047Y0210959D01*
X0127003Y0210981D01*
X0126961Y0211006D01*
X0126921Y0211034D01*
X0126883Y0211065D01*
X0126848Y0211099D01*
X0126815Y0211135D01*
X0126785Y0211174D01*
X0126759Y0211215D01*
X0126735Y0211258D01*
X0126715Y0211303D01*
X0126699Y0211349D01*
X0126686Y0211396D01*
X0126676Y0211444D01*
X0126671Y0211493D01*
X0126669Y0211542D01*
X0126669Y0195487D02*
X0127947Y0195487D01*
X0127436Y0194464D02*
X0126669Y0194464D01*
X0126669Y0195487D01*
X0125754Y0194848D02*
X0125754Y0193825D01*
X0125498Y0193698D02*
X0126009Y0193187D01*
X0126669Y0193187D02*
X0127436Y0193187D01*
X0127478Y0193189D01*
X0127520Y0193194D01*
X0127561Y0193203D01*
X0127602Y0193215D01*
X0127641Y0193230D01*
X0127679Y0193249D01*
X0127715Y0193270D01*
X0127750Y0193295D01*
X0127782Y0193322D01*
X0127812Y0193352D01*
X0127839Y0193384D01*
X0127864Y0193419D01*
X0127885Y0193455D01*
X0127904Y0193493D01*
X0127919Y0193532D01*
X0127931Y0193573D01*
X0127940Y0193614D01*
X0127945Y0193656D01*
X0127947Y0193698D01*
X0127947Y0193953D01*
X0127945Y0193995D01*
X0127940Y0194037D01*
X0127931Y0194078D01*
X0127919Y0194119D01*
X0127904Y0194158D01*
X0127885Y0194196D01*
X0127864Y0194232D01*
X0127839Y0194267D01*
X0127812Y0194299D01*
X0127782Y0194329D01*
X0127750Y0194356D01*
X0127715Y0194381D01*
X0127679Y0194402D01*
X0127641Y0194421D01*
X0127602Y0194436D01*
X0127561Y0194448D01*
X0127520Y0194457D01*
X0127478Y0194462D01*
X0127436Y0194464D01*
X0125754Y0194848D02*
X0125752Y0194897D01*
X0125747Y0194946D01*
X0125737Y0194994D01*
X0125724Y0195041D01*
X0125708Y0195087D01*
X0125688Y0195132D01*
X0125664Y0195175D01*
X0125638Y0195216D01*
X0125608Y0195255D01*
X0125575Y0195291D01*
X0125540Y0195325D01*
X0125502Y0195356D01*
X0125462Y0195384D01*
X0125420Y0195409D01*
X0125376Y0195431D01*
X0125331Y0195449D01*
X0125284Y0195464D01*
X0125237Y0195475D01*
X0125188Y0195483D01*
X0125139Y0195487D01*
X0125091Y0195487D01*
X0125042Y0195483D01*
X0124993Y0195475D01*
X0124946Y0195464D01*
X0124899Y0195449D01*
X0124854Y0195431D01*
X0124810Y0195409D01*
X0124768Y0195384D01*
X0124728Y0195356D01*
X0124690Y0195325D01*
X0124655Y0195291D01*
X0124622Y0195255D01*
X0124592Y0195216D01*
X0124566Y0195175D01*
X0124542Y0195132D01*
X0124522Y0195087D01*
X0124506Y0195041D01*
X0124493Y0194994D01*
X0124483Y0194946D01*
X0124478Y0194897D01*
X0124476Y0194848D01*
X0124476Y0193825D01*
X0124478Y0193776D01*
X0124483Y0193727D01*
X0124493Y0193679D01*
X0124506Y0193632D01*
X0124522Y0193586D01*
X0124542Y0193541D01*
X0124566Y0193498D01*
X0124592Y0193457D01*
X0124622Y0193418D01*
X0124655Y0193382D01*
X0124690Y0193348D01*
X0124728Y0193317D01*
X0124768Y0193289D01*
X0124810Y0193264D01*
X0124854Y0193242D01*
X0124899Y0193224D01*
X0124946Y0193209D01*
X0124993Y0193198D01*
X0125042Y0193190D01*
X0125091Y0193186D01*
X0125139Y0193186D01*
X0125188Y0193190D01*
X0125237Y0193198D01*
X0125284Y0193209D01*
X0125331Y0193224D01*
X0125376Y0193242D01*
X0125420Y0193264D01*
X0125462Y0193289D01*
X0125502Y0193317D01*
X0125540Y0193348D01*
X0125575Y0193382D01*
X0125608Y0193418D01*
X0125638Y0193457D01*
X0125664Y0193498D01*
X0125688Y0193541D01*
X0125708Y0193586D01*
X0125724Y0193632D01*
X0125737Y0193679D01*
X0125747Y0193727D01*
X0125752Y0193776D01*
X0125754Y0193825D01*
X0127181Y0177770D02*
X0126669Y0175981D01*
X0127947Y0175981D01*
X0127564Y0176492D02*
X0127564Y0175470D01*
X0126009Y0175470D02*
X0125498Y0175981D01*
X0125754Y0176109D02*
X0125754Y0177131D01*
X0125752Y0177180D01*
X0125747Y0177229D01*
X0125737Y0177277D01*
X0125724Y0177324D01*
X0125708Y0177370D01*
X0125688Y0177415D01*
X0125664Y0177458D01*
X0125638Y0177499D01*
X0125608Y0177538D01*
X0125575Y0177574D01*
X0125540Y0177608D01*
X0125502Y0177639D01*
X0125462Y0177667D01*
X0125420Y0177692D01*
X0125376Y0177714D01*
X0125331Y0177732D01*
X0125284Y0177747D01*
X0125237Y0177758D01*
X0125188Y0177766D01*
X0125139Y0177770D01*
X0125091Y0177770D01*
X0125042Y0177766D01*
X0124993Y0177758D01*
X0124946Y0177747D01*
X0124899Y0177732D01*
X0124854Y0177714D01*
X0124810Y0177692D01*
X0124768Y0177667D01*
X0124728Y0177639D01*
X0124690Y0177608D01*
X0124655Y0177574D01*
X0124622Y0177538D01*
X0124592Y0177499D01*
X0124566Y0177458D01*
X0124542Y0177415D01*
X0124522Y0177370D01*
X0124506Y0177324D01*
X0124493Y0177277D01*
X0124483Y0177229D01*
X0124478Y0177180D01*
X0124476Y0177131D01*
X0124476Y0176109D01*
X0124478Y0176060D01*
X0124483Y0176011D01*
X0124493Y0175963D01*
X0124506Y0175916D01*
X0124522Y0175870D01*
X0124542Y0175825D01*
X0124566Y0175782D01*
X0124592Y0175741D01*
X0124622Y0175702D01*
X0124655Y0175666D01*
X0124690Y0175632D01*
X0124728Y0175601D01*
X0124768Y0175573D01*
X0124810Y0175548D01*
X0124854Y0175526D01*
X0124899Y0175508D01*
X0124946Y0175493D01*
X0124993Y0175482D01*
X0125042Y0175474D01*
X0125091Y0175470D01*
X0125139Y0175470D01*
X0125188Y0175474D01*
X0125237Y0175482D01*
X0125284Y0175493D01*
X0125331Y0175508D01*
X0125376Y0175526D01*
X0125420Y0175548D01*
X0125462Y0175573D01*
X0125502Y0175601D01*
X0125540Y0175632D01*
X0125575Y0175666D01*
X0125608Y0175702D01*
X0125638Y0175741D01*
X0125664Y0175782D01*
X0125688Y0175825D01*
X0125708Y0175870D01*
X0125724Y0175916D01*
X0125737Y0175963D01*
X0125747Y0176011D01*
X0125752Y0176060D01*
X0125754Y0176109D01*
X0126669Y0160054D02*
X0127436Y0160054D01*
X0127436Y0160053D02*
X0127479Y0160051D01*
X0127522Y0160046D01*
X0127565Y0160037D01*
X0127606Y0160024D01*
X0127646Y0160008D01*
X0127685Y0159988D01*
X0127722Y0159965D01*
X0127757Y0159940D01*
X0127790Y0159911D01*
X0127820Y0159880D01*
X0127847Y0159846D01*
X0127871Y0159810D01*
X0127892Y0159772D01*
X0127910Y0159733D01*
X0127925Y0159692D01*
X0127936Y0159650D01*
X0127943Y0159607D01*
X0127947Y0159564D01*
X0127947Y0159520D01*
X0127943Y0159477D01*
X0127936Y0159434D01*
X0127925Y0159392D01*
X0127910Y0159351D01*
X0127892Y0159312D01*
X0127871Y0159274D01*
X0127847Y0159238D01*
X0127820Y0159204D01*
X0127790Y0159173D01*
X0127757Y0159144D01*
X0127722Y0159119D01*
X0127685Y0159096D01*
X0127646Y0159076D01*
X0127606Y0159060D01*
X0127565Y0159047D01*
X0127522Y0159038D01*
X0127479Y0159033D01*
X0127436Y0159031D01*
X0126925Y0159031D01*
X0127308Y0159031D02*
X0127357Y0159029D01*
X0127406Y0159024D01*
X0127454Y0159014D01*
X0127501Y0159001D01*
X0127547Y0158985D01*
X0127592Y0158965D01*
X0127635Y0158941D01*
X0127676Y0158915D01*
X0127715Y0158885D01*
X0127751Y0158852D01*
X0127785Y0158817D01*
X0127816Y0158779D01*
X0127844Y0158739D01*
X0127869Y0158697D01*
X0127891Y0158653D01*
X0127909Y0158608D01*
X0127924Y0158561D01*
X0127935Y0158514D01*
X0127943Y0158465D01*
X0127947Y0158416D01*
X0127947Y0158368D01*
X0127943Y0158319D01*
X0127935Y0158270D01*
X0127924Y0158223D01*
X0127909Y0158176D01*
X0127891Y0158131D01*
X0127869Y0158087D01*
X0127844Y0158045D01*
X0127816Y0158005D01*
X0127785Y0157967D01*
X0127751Y0157932D01*
X0127715Y0157899D01*
X0127676Y0157869D01*
X0127635Y0157843D01*
X0127592Y0157819D01*
X0127547Y0157799D01*
X0127501Y0157783D01*
X0127454Y0157770D01*
X0127406Y0157760D01*
X0127357Y0157755D01*
X0127308Y0157753D01*
X0127308Y0157754D02*
X0126669Y0157754D01*
X0126009Y0157754D02*
X0125498Y0158265D01*
X0125754Y0158392D02*
X0125754Y0159415D01*
X0125752Y0159464D01*
X0125747Y0159513D01*
X0125737Y0159561D01*
X0125724Y0159608D01*
X0125708Y0159654D01*
X0125688Y0159699D01*
X0125664Y0159742D01*
X0125638Y0159783D01*
X0125608Y0159822D01*
X0125575Y0159858D01*
X0125540Y0159892D01*
X0125502Y0159923D01*
X0125462Y0159951D01*
X0125420Y0159976D01*
X0125376Y0159998D01*
X0125331Y0160016D01*
X0125284Y0160031D01*
X0125237Y0160042D01*
X0125188Y0160050D01*
X0125139Y0160054D01*
X0125091Y0160054D01*
X0125042Y0160050D01*
X0124993Y0160042D01*
X0124946Y0160031D01*
X0124899Y0160016D01*
X0124854Y0159998D01*
X0124810Y0159976D01*
X0124768Y0159951D01*
X0124728Y0159923D01*
X0124690Y0159892D01*
X0124655Y0159858D01*
X0124622Y0159822D01*
X0124592Y0159783D01*
X0124566Y0159742D01*
X0124542Y0159699D01*
X0124522Y0159654D01*
X0124506Y0159608D01*
X0124493Y0159561D01*
X0124483Y0159513D01*
X0124478Y0159464D01*
X0124476Y0159415D01*
X0124476Y0158392D01*
X0124478Y0158343D01*
X0124483Y0158294D01*
X0124493Y0158246D01*
X0124506Y0158199D01*
X0124522Y0158153D01*
X0124542Y0158108D01*
X0124566Y0158065D01*
X0124592Y0158024D01*
X0124622Y0157985D01*
X0124655Y0157949D01*
X0124690Y0157915D01*
X0124728Y0157884D01*
X0124768Y0157856D01*
X0124810Y0157831D01*
X0124854Y0157809D01*
X0124899Y0157791D01*
X0124946Y0157776D01*
X0124993Y0157765D01*
X0125042Y0157757D01*
X0125091Y0157753D01*
X0125139Y0157753D01*
X0125188Y0157757D01*
X0125237Y0157765D01*
X0125284Y0157776D01*
X0125331Y0157791D01*
X0125376Y0157809D01*
X0125420Y0157831D01*
X0125462Y0157856D01*
X0125502Y0157884D01*
X0125540Y0157915D01*
X0125575Y0157949D01*
X0125608Y0157985D01*
X0125638Y0158024D01*
X0125664Y0158065D01*
X0125688Y0158108D01*
X0125708Y0158153D01*
X0125724Y0158199D01*
X0125737Y0158246D01*
X0125747Y0158294D01*
X0125752Y0158343D01*
X0125754Y0158392D01*
X0125754Y0141698D02*
X0125754Y0140676D01*
X0125498Y0140548D02*
X0126009Y0140037D01*
X0126669Y0140037D02*
X0127947Y0140037D01*
X0126669Y0140037D02*
X0127756Y0141315D01*
X0127372Y0142337D02*
X0127320Y0142335D01*
X0127269Y0142330D01*
X0127218Y0142321D01*
X0127168Y0142308D01*
X0127119Y0142292D01*
X0127071Y0142273D01*
X0127025Y0142250D01*
X0126980Y0142225D01*
X0126937Y0142196D01*
X0126897Y0142164D01*
X0126858Y0142129D01*
X0126822Y0142092D01*
X0126789Y0142053D01*
X0126759Y0142011D01*
X0126732Y0141967D01*
X0126708Y0141921D01*
X0126687Y0141874D01*
X0126669Y0141826D01*
X0127756Y0141315D02*
X0127788Y0141347D01*
X0127817Y0141382D01*
X0127844Y0141419D01*
X0127868Y0141457D01*
X0127889Y0141498D01*
X0127907Y0141540D01*
X0127921Y0141583D01*
X0127933Y0141627D01*
X0127941Y0141671D01*
X0127946Y0141717D01*
X0127948Y0141762D01*
X0127947Y0141762D02*
X0127945Y0141807D01*
X0127940Y0141852D01*
X0127931Y0141896D01*
X0127919Y0141940D01*
X0127903Y0141982D01*
X0127884Y0142023D01*
X0127862Y0142062D01*
X0127837Y0142100D01*
X0127809Y0142135D01*
X0127779Y0142169D01*
X0127745Y0142199D01*
X0127710Y0142227D01*
X0127672Y0142252D01*
X0127633Y0142274D01*
X0127592Y0142293D01*
X0127550Y0142309D01*
X0127506Y0142321D01*
X0127462Y0142330D01*
X0127417Y0142335D01*
X0127372Y0142337D01*
X0125754Y0141698D02*
X0125752Y0141747D01*
X0125747Y0141796D01*
X0125737Y0141844D01*
X0125724Y0141891D01*
X0125708Y0141937D01*
X0125688Y0141982D01*
X0125664Y0142025D01*
X0125638Y0142066D01*
X0125608Y0142105D01*
X0125575Y0142141D01*
X0125540Y0142175D01*
X0125502Y0142206D01*
X0125462Y0142234D01*
X0125420Y0142259D01*
X0125376Y0142281D01*
X0125331Y0142299D01*
X0125284Y0142314D01*
X0125237Y0142325D01*
X0125188Y0142333D01*
X0125139Y0142337D01*
X0125091Y0142337D01*
X0125042Y0142333D01*
X0124993Y0142325D01*
X0124946Y0142314D01*
X0124899Y0142299D01*
X0124854Y0142281D01*
X0124810Y0142259D01*
X0124768Y0142234D01*
X0124728Y0142206D01*
X0124690Y0142175D01*
X0124655Y0142141D01*
X0124622Y0142105D01*
X0124592Y0142066D01*
X0124566Y0142025D01*
X0124542Y0141982D01*
X0124522Y0141937D01*
X0124506Y0141891D01*
X0124493Y0141844D01*
X0124483Y0141796D01*
X0124478Y0141747D01*
X0124476Y0141698D01*
X0124476Y0140676D01*
X0124478Y0140627D01*
X0124483Y0140578D01*
X0124493Y0140530D01*
X0124506Y0140483D01*
X0124522Y0140437D01*
X0124542Y0140392D01*
X0124566Y0140349D01*
X0124592Y0140308D01*
X0124622Y0140269D01*
X0124655Y0140233D01*
X0124690Y0140199D01*
X0124728Y0140168D01*
X0124768Y0140140D01*
X0124810Y0140115D01*
X0124854Y0140093D01*
X0124899Y0140075D01*
X0124946Y0140060D01*
X0124993Y0140049D01*
X0125042Y0140041D01*
X0125091Y0140037D01*
X0125139Y0140037D01*
X0125188Y0140041D01*
X0125237Y0140049D01*
X0125284Y0140060D01*
X0125331Y0140075D01*
X0125376Y0140093D01*
X0125420Y0140115D01*
X0125462Y0140140D01*
X0125502Y0140168D01*
X0125540Y0140199D01*
X0125575Y0140233D01*
X0125608Y0140269D01*
X0125638Y0140308D01*
X0125664Y0140349D01*
X0125688Y0140392D01*
X0125708Y0140437D01*
X0125724Y0140483D01*
X0125737Y0140530D01*
X0125747Y0140578D01*
X0125752Y0140627D01*
X0125754Y0140676D01*
X0127308Y0124620D02*
X0127308Y0122320D01*
X0126669Y0122320D02*
X0127947Y0122320D01*
X0126009Y0122320D02*
X0125498Y0122832D01*
X0125754Y0122959D02*
X0125754Y0123982D01*
X0125752Y0124031D01*
X0125747Y0124080D01*
X0125737Y0124128D01*
X0125724Y0124175D01*
X0125708Y0124221D01*
X0125688Y0124266D01*
X0125664Y0124309D01*
X0125638Y0124350D01*
X0125608Y0124389D01*
X0125575Y0124425D01*
X0125540Y0124459D01*
X0125502Y0124490D01*
X0125462Y0124518D01*
X0125420Y0124543D01*
X0125376Y0124565D01*
X0125331Y0124583D01*
X0125284Y0124598D01*
X0125237Y0124609D01*
X0125188Y0124617D01*
X0125139Y0124621D01*
X0125091Y0124621D01*
X0125042Y0124617D01*
X0124993Y0124609D01*
X0124946Y0124598D01*
X0124899Y0124583D01*
X0124854Y0124565D01*
X0124810Y0124543D01*
X0124768Y0124518D01*
X0124728Y0124490D01*
X0124690Y0124459D01*
X0124655Y0124425D01*
X0124622Y0124389D01*
X0124592Y0124350D01*
X0124566Y0124309D01*
X0124542Y0124266D01*
X0124522Y0124221D01*
X0124506Y0124175D01*
X0124493Y0124128D01*
X0124483Y0124080D01*
X0124478Y0124031D01*
X0124476Y0123982D01*
X0124476Y0122959D01*
X0124478Y0122910D01*
X0124483Y0122861D01*
X0124493Y0122813D01*
X0124506Y0122766D01*
X0124522Y0122720D01*
X0124542Y0122675D01*
X0124566Y0122632D01*
X0124592Y0122591D01*
X0124622Y0122552D01*
X0124655Y0122516D01*
X0124690Y0122482D01*
X0124728Y0122451D01*
X0124768Y0122423D01*
X0124810Y0122398D01*
X0124854Y0122376D01*
X0124899Y0122358D01*
X0124946Y0122343D01*
X0124993Y0122332D01*
X0125042Y0122324D01*
X0125091Y0122320D01*
X0125139Y0122320D01*
X0125188Y0122324D01*
X0125237Y0122332D01*
X0125284Y0122343D01*
X0125331Y0122358D01*
X0125376Y0122376D01*
X0125420Y0122398D01*
X0125462Y0122423D01*
X0125502Y0122451D01*
X0125540Y0122482D01*
X0125575Y0122516D01*
X0125608Y0122552D01*
X0125638Y0122591D01*
X0125664Y0122632D01*
X0125688Y0122675D01*
X0125708Y0122720D01*
X0125724Y0122766D01*
X0125737Y0122813D01*
X0125747Y0122861D01*
X0125752Y0122910D01*
X0125754Y0122959D01*
X0126669Y0124109D02*
X0127308Y0124620D01*
X0127308Y0228620D02*
X0127947Y0230920D01*
X0126669Y0230920D01*
X0126669Y0230664D01*
X0125754Y0230281D02*
X0125754Y0229259D01*
X0125498Y0229131D02*
X0126009Y0228620D01*
X0125754Y0229259D02*
X0125752Y0229210D01*
X0125747Y0229161D01*
X0125737Y0229113D01*
X0125724Y0229066D01*
X0125708Y0229020D01*
X0125688Y0228975D01*
X0125664Y0228932D01*
X0125638Y0228891D01*
X0125608Y0228852D01*
X0125575Y0228816D01*
X0125540Y0228782D01*
X0125502Y0228751D01*
X0125462Y0228723D01*
X0125420Y0228698D01*
X0125376Y0228676D01*
X0125331Y0228658D01*
X0125284Y0228643D01*
X0125237Y0228632D01*
X0125188Y0228624D01*
X0125139Y0228620D01*
X0125091Y0228620D01*
X0125042Y0228624D01*
X0124993Y0228632D01*
X0124946Y0228643D01*
X0124899Y0228658D01*
X0124854Y0228676D01*
X0124810Y0228698D01*
X0124768Y0228723D01*
X0124728Y0228751D01*
X0124690Y0228782D01*
X0124655Y0228816D01*
X0124622Y0228852D01*
X0124592Y0228891D01*
X0124566Y0228932D01*
X0124542Y0228975D01*
X0124522Y0229020D01*
X0124506Y0229066D01*
X0124493Y0229113D01*
X0124483Y0229161D01*
X0124478Y0229210D01*
X0124476Y0229259D01*
X0124476Y0230281D01*
X0124478Y0230330D01*
X0124483Y0230379D01*
X0124493Y0230427D01*
X0124506Y0230474D01*
X0124522Y0230520D01*
X0124542Y0230565D01*
X0124566Y0230608D01*
X0124592Y0230649D01*
X0124622Y0230688D01*
X0124655Y0230724D01*
X0124690Y0230758D01*
X0124728Y0230789D01*
X0124768Y0230817D01*
X0124810Y0230842D01*
X0124854Y0230864D01*
X0124899Y0230882D01*
X0124946Y0230897D01*
X0124993Y0230908D01*
X0125042Y0230916D01*
X0125091Y0230920D01*
X0125139Y0230920D01*
X0125188Y0230916D01*
X0125237Y0230908D01*
X0125284Y0230897D01*
X0125331Y0230882D01*
X0125376Y0230864D01*
X0125420Y0230842D01*
X0125462Y0230817D01*
X0125502Y0230789D01*
X0125540Y0230758D01*
X0125575Y0230724D01*
X0125608Y0230688D01*
X0125638Y0230649D01*
X0125664Y0230608D01*
X0125688Y0230565D01*
X0125708Y0230520D01*
X0125724Y0230474D01*
X0125737Y0230427D01*
X0125747Y0230379D01*
X0125752Y0230330D01*
X0125754Y0230281D01*
X0126009Y0246336D02*
X0125498Y0246847D01*
X0125754Y0246975D02*
X0125754Y0247997D01*
X0125752Y0248046D01*
X0125747Y0248095D01*
X0125737Y0248143D01*
X0125724Y0248190D01*
X0125708Y0248236D01*
X0125688Y0248281D01*
X0125664Y0248324D01*
X0125638Y0248365D01*
X0125608Y0248404D01*
X0125575Y0248440D01*
X0125540Y0248474D01*
X0125502Y0248505D01*
X0125462Y0248533D01*
X0125420Y0248558D01*
X0125376Y0248580D01*
X0125331Y0248598D01*
X0125284Y0248613D01*
X0125237Y0248624D01*
X0125188Y0248632D01*
X0125139Y0248636D01*
X0125091Y0248636D01*
X0125042Y0248632D01*
X0124993Y0248624D01*
X0124946Y0248613D01*
X0124899Y0248598D01*
X0124854Y0248580D01*
X0124810Y0248558D01*
X0124768Y0248533D01*
X0124728Y0248505D01*
X0124690Y0248474D01*
X0124655Y0248440D01*
X0124622Y0248404D01*
X0124592Y0248365D01*
X0124566Y0248324D01*
X0124542Y0248281D01*
X0124522Y0248236D01*
X0124506Y0248190D01*
X0124493Y0248143D01*
X0124483Y0248095D01*
X0124478Y0248046D01*
X0124476Y0247997D01*
X0124476Y0246975D01*
X0124478Y0246926D01*
X0124483Y0246877D01*
X0124493Y0246829D01*
X0124506Y0246782D01*
X0124522Y0246736D01*
X0124542Y0246691D01*
X0124566Y0246648D01*
X0124592Y0246607D01*
X0124622Y0246568D01*
X0124655Y0246532D01*
X0124690Y0246498D01*
X0124728Y0246467D01*
X0124768Y0246439D01*
X0124810Y0246414D01*
X0124854Y0246392D01*
X0124899Y0246374D01*
X0124946Y0246359D01*
X0124993Y0246348D01*
X0125042Y0246340D01*
X0125091Y0246336D01*
X0125139Y0246336D01*
X0125188Y0246340D01*
X0125237Y0246348D01*
X0125284Y0246359D01*
X0125331Y0246374D01*
X0125376Y0246392D01*
X0125420Y0246414D01*
X0125462Y0246439D01*
X0125502Y0246467D01*
X0125540Y0246498D01*
X0125575Y0246532D01*
X0125608Y0246568D01*
X0125638Y0246607D01*
X0125664Y0246648D01*
X0125688Y0246691D01*
X0125708Y0246736D01*
X0125724Y0246782D01*
X0125737Y0246829D01*
X0125747Y0246877D01*
X0125752Y0246926D01*
X0125754Y0246975D01*
X0126669Y0246975D02*
X0126671Y0246926D01*
X0126676Y0246877D01*
X0126686Y0246829D01*
X0126699Y0246782D01*
X0126715Y0246736D01*
X0126735Y0246691D01*
X0126759Y0246648D01*
X0126785Y0246607D01*
X0126815Y0246568D01*
X0126848Y0246532D01*
X0126883Y0246498D01*
X0126921Y0246467D01*
X0126961Y0246439D01*
X0127003Y0246414D01*
X0127047Y0246392D01*
X0127092Y0246374D01*
X0127139Y0246359D01*
X0127186Y0246348D01*
X0127235Y0246340D01*
X0127284Y0246336D01*
X0127332Y0246336D01*
X0127381Y0246340D01*
X0127430Y0246348D01*
X0127477Y0246359D01*
X0127524Y0246374D01*
X0127569Y0246392D01*
X0127613Y0246414D01*
X0127655Y0246439D01*
X0127695Y0246467D01*
X0127733Y0246498D01*
X0127768Y0246532D01*
X0127801Y0246568D01*
X0127831Y0246607D01*
X0127857Y0246648D01*
X0127881Y0246691D01*
X0127901Y0246736D01*
X0127917Y0246782D01*
X0127930Y0246829D01*
X0127940Y0246877D01*
X0127945Y0246926D01*
X0127947Y0246975D01*
X0127945Y0247024D01*
X0127940Y0247073D01*
X0127930Y0247121D01*
X0127917Y0247168D01*
X0127901Y0247214D01*
X0127881Y0247259D01*
X0127857Y0247302D01*
X0127831Y0247343D01*
X0127801Y0247382D01*
X0127768Y0247418D01*
X0127733Y0247452D01*
X0127695Y0247483D01*
X0127655Y0247511D01*
X0127613Y0247536D01*
X0127569Y0247558D01*
X0127524Y0247576D01*
X0127477Y0247591D01*
X0127430Y0247602D01*
X0127381Y0247610D01*
X0127332Y0247614D01*
X0127284Y0247614D01*
X0127235Y0247610D01*
X0127186Y0247602D01*
X0127139Y0247591D01*
X0127092Y0247576D01*
X0127047Y0247558D01*
X0127003Y0247536D01*
X0126961Y0247511D01*
X0126921Y0247483D01*
X0126883Y0247452D01*
X0126848Y0247418D01*
X0126815Y0247382D01*
X0126785Y0247343D01*
X0126759Y0247302D01*
X0126735Y0247259D01*
X0126715Y0247214D01*
X0126699Y0247168D01*
X0126686Y0247121D01*
X0126676Y0247073D01*
X0126671Y0247024D01*
X0126669Y0246975D01*
X0126797Y0248125D02*
X0126799Y0248082D01*
X0126804Y0248039D01*
X0126813Y0247996D01*
X0126826Y0247955D01*
X0126842Y0247915D01*
X0126862Y0247876D01*
X0126885Y0247839D01*
X0126910Y0247804D01*
X0126939Y0247771D01*
X0126970Y0247741D01*
X0127004Y0247714D01*
X0127040Y0247690D01*
X0127078Y0247669D01*
X0127117Y0247651D01*
X0127158Y0247636D01*
X0127200Y0247625D01*
X0127243Y0247618D01*
X0127286Y0247614D01*
X0127330Y0247614D01*
X0127373Y0247618D01*
X0127416Y0247625D01*
X0127458Y0247636D01*
X0127499Y0247651D01*
X0127538Y0247669D01*
X0127576Y0247690D01*
X0127612Y0247714D01*
X0127646Y0247741D01*
X0127677Y0247771D01*
X0127706Y0247804D01*
X0127731Y0247839D01*
X0127754Y0247876D01*
X0127774Y0247915D01*
X0127790Y0247955D01*
X0127803Y0247996D01*
X0127812Y0248039D01*
X0127817Y0248082D01*
X0127819Y0248125D01*
X0127817Y0248168D01*
X0127812Y0248211D01*
X0127803Y0248254D01*
X0127790Y0248295D01*
X0127774Y0248335D01*
X0127754Y0248374D01*
X0127731Y0248411D01*
X0127706Y0248446D01*
X0127677Y0248479D01*
X0127646Y0248509D01*
X0127612Y0248536D01*
X0127576Y0248560D01*
X0127538Y0248581D01*
X0127499Y0248599D01*
X0127458Y0248614D01*
X0127416Y0248625D01*
X0127373Y0248632D01*
X0127330Y0248636D01*
X0127286Y0248636D01*
X0127243Y0248632D01*
X0127200Y0248625D01*
X0127158Y0248614D01*
X0127117Y0248599D01*
X0127078Y0248581D01*
X0127040Y0248560D01*
X0127004Y0248536D01*
X0126970Y0248509D01*
X0126939Y0248479D01*
X0126910Y0248446D01*
X0126885Y0248411D01*
X0126862Y0248374D01*
X0126842Y0248335D01*
X0126826Y0248295D01*
X0126813Y0248254D01*
X0126804Y0248211D01*
X0126799Y0248168D01*
X0126797Y0248125D01*
D15*
X0131002Y0238207D02*
X0131065Y0238205D01*
X0131128Y0238199D01*
X0131190Y0238190D01*
X0131251Y0238176D01*
X0131312Y0238159D01*
X0131371Y0238138D01*
X0131429Y0238113D01*
X0131486Y0238085D01*
X0131540Y0238054D01*
X0131592Y0238019D01*
X0131643Y0237981D01*
X0131691Y0237940D01*
X0131736Y0237896D01*
X0131778Y0237850D01*
X0131818Y0237801D01*
X0131854Y0237750D01*
X0131887Y0237696D01*
X0131917Y0237641D01*
X0131943Y0237583D01*
X0131966Y0237525D01*
X0131985Y0237465D01*
X0132000Y0237404D01*
X0132012Y0237342D01*
X0132020Y0237279D01*
X0132024Y0237216D01*
X0132024Y0237154D01*
X0132020Y0237091D01*
X0132012Y0237028D01*
X0132000Y0236966D01*
X0131985Y0236905D01*
X0131966Y0236845D01*
X0131943Y0236787D01*
X0131917Y0236729D01*
X0131887Y0236674D01*
X0131854Y0236620D01*
X0131818Y0236569D01*
X0131778Y0236520D01*
X0131736Y0236474D01*
X0131691Y0236430D01*
X0131643Y0236389D01*
X0131592Y0236351D01*
X0131540Y0236316D01*
X0131486Y0236285D01*
X0131429Y0236257D01*
X0131371Y0236232D01*
X0131312Y0236211D01*
X0131251Y0236194D01*
X0131190Y0236180D01*
X0131128Y0236171D01*
X0131065Y0236165D01*
X0131002Y0236163D01*
X0130939Y0236165D01*
X0130876Y0236171D01*
X0130814Y0236180D01*
X0130753Y0236194D01*
X0130692Y0236211D01*
X0130633Y0236232D01*
X0130575Y0236257D01*
X0130518Y0236285D01*
X0130464Y0236316D01*
X0130412Y0236351D01*
X0130361Y0236389D01*
X0130313Y0236430D01*
X0130268Y0236474D01*
X0130226Y0236520D01*
X0130186Y0236569D01*
X0130150Y0236620D01*
X0130117Y0236674D01*
X0130087Y0236729D01*
X0130061Y0236787D01*
X0130038Y0236845D01*
X0130019Y0236905D01*
X0130004Y0236966D01*
X0129992Y0237028D01*
X0129984Y0237091D01*
X0129980Y0237154D01*
X0129980Y0237216D01*
X0129984Y0237279D01*
X0129992Y0237342D01*
X0130004Y0237404D01*
X0130019Y0237465D01*
X0130038Y0237525D01*
X0130061Y0237583D01*
X0130087Y0237641D01*
X0130117Y0237696D01*
X0130150Y0237750D01*
X0130186Y0237801D01*
X0130226Y0237850D01*
X0130268Y0237896D01*
X0130313Y0237940D01*
X0130361Y0237981D01*
X0130412Y0238019D01*
X0130464Y0238054D01*
X0130518Y0238085D01*
X0130575Y0238113D01*
X0130633Y0238138D01*
X0130692Y0238159D01*
X0130753Y0238176D01*
X0130814Y0238190D01*
X0130876Y0238199D01*
X0130939Y0238205D01*
X0131002Y0238207D01*
X0133302Y0238463D02*
X0133372Y0238461D01*
X0133443Y0238455D01*
X0133512Y0238446D01*
X0133581Y0238432D01*
X0133650Y0238415D01*
X0133717Y0238394D01*
X0133783Y0238369D01*
X0133847Y0238341D01*
X0133910Y0238309D01*
X0133971Y0238274D01*
X0134030Y0238235D01*
X0134087Y0238194D01*
X0134141Y0238149D01*
X0134193Y0238101D01*
X0134242Y0238051D01*
X0134289Y0237997D01*
X0134332Y0237942D01*
X0134372Y0237884D01*
X0134409Y0237824D01*
X0134442Y0237762D01*
X0134472Y0237698D01*
X0134499Y0237633D01*
X0134522Y0237567D01*
X0134541Y0237499D01*
X0134556Y0237430D01*
X0134568Y0237361D01*
X0134576Y0237291D01*
X0134580Y0237220D01*
X0134580Y0237150D01*
X0134576Y0237079D01*
X0134568Y0237009D01*
X0134556Y0236940D01*
X0134541Y0236871D01*
X0134522Y0236803D01*
X0134499Y0236737D01*
X0134472Y0236672D01*
X0134442Y0236608D01*
X0134409Y0236546D01*
X0134372Y0236486D01*
X0134332Y0236428D01*
X0134289Y0236373D01*
X0134242Y0236319D01*
X0134193Y0236269D01*
X0134141Y0236221D01*
X0134087Y0236176D01*
X0134030Y0236135D01*
X0133971Y0236096D01*
X0133910Y0236061D01*
X0133847Y0236029D01*
X0133783Y0236001D01*
X0133717Y0235976D01*
X0133650Y0235955D01*
X0133581Y0235938D01*
X0133512Y0235924D01*
X0133443Y0235915D01*
X0133372Y0235909D01*
X0133302Y0235907D01*
X0133232Y0235909D01*
X0133161Y0235915D01*
X0133092Y0235924D01*
X0133023Y0235938D01*
X0132954Y0235955D01*
X0132887Y0235976D01*
X0132821Y0236001D01*
X0132757Y0236029D01*
X0132694Y0236061D01*
X0132633Y0236096D01*
X0132574Y0236135D01*
X0132517Y0236176D01*
X0132463Y0236221D01*
X0132411Y0236269D01*
X0132362Y0236319D01*
X0132315Y0236373D01*
X0132272Y0236428D01*
X0132232Y0236486D01*
X0132195Y0236546D01*
X0132162Y0236608D01*
X0132132Y0236672D01*
X0132105Y0236737D01*
X0132082Y0236803D01*
X0132063Y0236871D01*
X0132048Y0236940D01*
X0132036Y0237009D01*
X0132028Y0237079D01*
X0132024Y0237150D01*
X0132024Y0237220D01*
X0132028Y0237291D01*
X0132036Y0237361D01*
X0132048Y0237430D01*
X0132063Y0237499D01*
X0132082Y0237567D01*
X0132105Y0237633D01*
X0132132Y0237698D01*
X0132162Y0237762D01*
X0132195Y0237824D01*
X0132232Y0237884D01*
X0132272Y0237942D01*
X0132315Y0237997D01*
X0132362Y0238051D01*
X0132411Y0238101D01*
X0132463Y0238149D01*
X0132517Y0238194D01*
X0132574Y0238235D01*
X0132633Y0238274D01*
X0132694Y0238309D01*
X0132757Y0238341D01*
X0132821Y0238369D01*
X0132887Y0238394D01*
X0132954Y0238415D01*
X0133023Y0238432D01*
X0133092Y0238446D01*
X0133161Y0238455D01*
X0133232Y0238461D01*
X0133302Y0238463D01*
X0134580Y0233992D02*
X0132535Y0232970D01*
X0132535Y0232714D02*
X0132535Y0231436D01*
X0132535Y0232714D02*
X0132533Y0232784D01*
X0132527Y0232855D01*
X0132518Y0232924D01*
X0132504Y0232993D01*
X0132487Y0233062D01*
X0132466Y0233129D01*
X0132441Y0233195D01*
X0132413Y0233259D01*
X0132381Y0233322D01*
X0132346Y0233383D01*
X0132307Y0233442D01*
X0132266Y0233499D01*
X0132221Y0233553D01*
X0132173Y0233605D01*
X0132123Y0233654D01*
X0132069Y0233701D01*
X0132014Y0233744D01*
X0131956Y0233784D01*
X0131896Y0233821D01*
X0131834Y0233854D01*
X0131770Y0233884D01*
X0131705Y0233911D01*
X0131639Y0233934D01*
X0131571Y0233953D01*
X0131502Y0233968D01*
X0131433Y0233980D01*
X0131363Y0233988D01*
X0131292Y0233992D01*
X0131222Y0233992D01*
X0131151Y0233988D01*
X0131081Y0233980D01*
X0131012Y0233968D01*
X0130943Y0233953D01*
X0130875Y0233934D01*
X0130809Y0233911D01*
X0130744Y0233884D01*
X0130680Y0233854D01*
X0130618Y0233821D01*
X0130558Y0233784D01*
X0130500Y0233744D01*
X0130445Y0233701D01*
X0130391Y0233654D01*
X0130341Y0233605D01*
X0130293Y0233553D01*
X0130248Y0233499D01*
X0130207Y0233442D01*
X0130168Y0233383D01*
X0130133Y0233322D01*
X0130101Y0233259D01*
X0130073Y0233195D01*
X0130048Y0233129D01*
X0130027Y0233062D01*
X0130010Y0232993D01*
X0129996Y0232924D01*
X0129987Y0232855D01*
X0129981Y0232784D01*
X0129979Y0232714D01*
X0129980Y0232714D02*
X0129980Y0231436D01*
X0134580Y0231436D01*
X0129980Y0220746D02*
X0134580Y0219468D01*
X0134580Y0216275D02*
X0132535Y0215253D01*
X0132535Y0214997D02*
X0132535Y0213720D01*
X0132535Y0214997D02*
X0132533Y0215067D01*
X0132527Y0215138D01*
X0132518Y0215207D01*
X0132504Y0215276D01*
X0132487Y0215345D01*
X0132466Y0215412D01*
X0132441Y0215478D01*
X0132413Y0215542D01*
X0132381Y0215605D01*
X0132346Y0215666D01*
X0132307Y0215725D01*
X0132266Y0215782D01*
X0132221Y0215836D01*
X0132173Y0215888D01*
X0132123Y0215937D01*
X0132069Y0215984D01*
X0132014Y0216027D01*
X0131956Y0216067D01*
X0131896Y0216104D01*
X0131834Y0216137D01*
X0131770Y0216167D01*
X0131705Y0216194D01*
X0131639Y0216217D01*
X0131571Y0216236D01*
X0131502Y0216251D01*
X0131433Y0216263D01*
X0131363Y0216271D01*
X0131292Y0216275D01*
X0131222Y0216275D01*
X0131151Y0216271D01*
X0131081Y0216263D01*
X0131012Y0216251D01*
X0130943Y0216236D01*
X0130875Y0216217D01*
X0130809Y0216194D01*
X0130744Y0216167D01*
X0130680Y0216137D01*
X0130618Y0216104D01*
X0130558Y0216067D01*
X0130500Y0216027D01*
X0130445Y0215984D01*
X0130391Y0215937D01*
X0130341Y0215888D01*
X0130293Y0215836D01*
X0130248Y0215782D01*
X0130207Y0215725D01*
X0130168Y0215666D01*
X0130133Y0215605D01*
X0130101Y0215542D01*
X0130073Y0215478D01*
X0130048Y0215412D01*
X0130027Y0215345D01*
X0130010Y0215276D01*
X0129996Y0215207D01*
X0129987Y0215138D01*
X0129981Y0215067D01*
X0129979Y0214997D01*
X0129980Y0214997D02*
X0129980Y0213720D01*
X0134580Y0213720D01*
X0130491Y0218191D02*
X0129980Y0218191D01*
X0129980Y0220746D01*
X0133046Y0203030D02*
X0133302Y0203030D01*
X0133046Y0203029D02*
X0132984Y0203027D01*
X0132923Y0203022D01*
X0132862Y0203012D01*
X0132801Y0202999D01*
X0132742Y0202983D01*
X0132684Y0202963D01*
X0132627Y0202939D01*
X0132571Y0202912D01*
X0132517Y0202882D01*
X0132465Y0202848D01*
X0132416Y0202812D01*
X0132368Y0202772D01*
X0132323Y0202730D01*
X0132281Y0202685D01*
X0132241Y0202637D01*
X0132205Y0202588D01*
X0132171Y0202536D01*
X0132141Y0202482D01*
X0132114Y0202426D01*
X0132090Y0202369D01*
X0132070Y0202311D01*
X0132054Y0202252D01*
X0132041Y0202191D01*
X0132031Y0202130D01*
X0132026Y0202069D01*
X0132024Y0202007D01*
X0132024Y0200474D01*
X0133302Y0200474D01*
X0133372Y0200476D01*
X0133443Y0200482D01*
X0133512Y0200491D01*
X0133581Y0200505D01*
X0133650Y0200522D01*
X0133717Y0200543D01*
X0133783Y0200568D01*
X0133847Y0200596D01*
X0133910Y0200628D01*
X0133971Y0200663D01*
X0134030Y0200702D01*
X0134087Y0200743D01*
X0134141Y0200788D01*
X0134193Y0200836D01*
X0134242Y0200886D01*
X0134289Y0200940D01*
X0134332Y0200995D01*
X0134372Y0201053D01*
X0134409Y0201113D01*
X0134442Y0201175D01*
X0134472Y0201239D01*
X0134499Y0201304D01*
X0134522Y0201370D01*
X0134541Y0201438D01*
X0134556Y0201507D01*
X0134568Y0201576D01*
X0134576Y0201646D01*
X0134580Y0201717D01*
X0134580Y0201787D01*
X0134576Y0201858D01*
X0134568Y0201928D01*
X0134556Y0201997D01*
X0134541Y0202066D01*
X0134522Y0202134D01*
X0134499Y0202200D01*
X0134472Y0202265D01*
X0134442Y0202329D01*
X0134409Y0202391D01*
X0134372Y0202451D01*
X0134332Y0202509D01*
X0134289Y0202564D01*
X0134242Y0202618D01*
X0134193Y0202668D01*
X0134141Y0202716D01*
X0134087Y0202761D01*
X0134030Y0202802D01*
X0133971Y0202841D01*
X0133910Y0202876D01*
X0133847Y0202908D01*
X0133783Y0202936D01*
X0133717Y0202961D01*
X0133650Y0202982D01*
X0133581Y0202999D01*
X0133512Y0203013D01*
X0133443Y0203022D01*
X0133372Y0203028D01*
X0133302Y0203030D01*
X0132024Y0200475D02*
X0131935Y0200477D01*
X0131846Y0200483D01*
X0131757Y0200492D01*
X0131669Y0200506D01*
X0131582Y0200523D01*
X0131495Y0200545D01*
X0131409Y0200570D01*
X0131325Y0200598D01*
X0131242Y0200631D01*
X0131160Y0200667D01*
X0131080Y0200706D01*
X0131002Y0200749D01*
X0130926Y0200795D01*
X0130852Y0200845D01*
X0130780Y0200897D01*
X0130710Y0200953D01*
X0130643Y0201012D01*
X0130579Y0201074D01*
X0130517Y0201138D01*
X0130458Y0201205D01*
X0130402Y0201275D01*
X0130350Y0201347D01*
X0130300Y0201421D01*
X0130254Y0201497D01*
X0130211Y0201575D01*
X0130172Y0201655D01*
X0130136Y0201737D01*
X0130103Y0201820D01*
X0130075Y0201904D01*
X0130050Y0201990D01*
X0130028Y0202077D01*
X0130011Y0202164D01*
X0129997Y0202252D01*
X0129988Y0202341D01*
X0129982Y0202430D01*
X0129980Y0202519D01*
X0129980Y0197281D02*
X0129980Y0196003D01*
X0134580Y0196003D01*
X0132535Y0196003D02*
X0132535Y0197281D01*
X0132535Y0197536D02*
X0134580Y0198559D01*
X0132535Y0197281D02*
X0132533Y0197351D01*
X0132527Y0197422D01*
X0132518Y0197491D01*
X0132504Y0197560D01*
X0132487Y0197629D01*
X0132466Y0197696D01*
X0132441Y0197762D01*
X0132413Y0197826D01*
X0132381Y0197889D01*
X0132346Y0197950D01*
X0132307Y0198009D01*
X0132266Y0198066D01*
X0132221Y0198120D01*
X0132173Y0198172D01*
X0132123Y0198221D01*
X0132069Y0198268D01*
X0132014Y0198311D01*
X0131956Y0198351D01*
X0131896Y0198388D01*
X0131834Y0198421D01*
X0131770Y0198451D01*
X0131705Y0198478D01*
X0131639Y0198501D01*
X0131571Y0198520D01*
X0131502Y0198535D01*
X0131433Y0198547D01*
X0131363Y0198555D01*
X0131292Y0198559D01*
X0131222Y0198559D01*
X0131151Y0198555D01*
X0131081Y0198547D01*
X0131012Y0198535D01*
X0130943Y0198520D01*
X0130875Y0198501D01*
X0130809Y0198478D01*
X0130744Y0198451D01*
X0130680Y0198421D01*
X0130618Y0198388D01*
X0130558Y0198351D01*
X0130500Y0198311D01*
X0130445Y0198268D01*
X0130391Y0198221D01*
X0130341Y0198172D01*
X0130293Y0198120D01*
X0130248Y0198066D01*
X0130207Y0198009D01*
X0130168Y0197950D01*
X0130133Y0197889D01*
X0130101Y0197826D01*
X0130073Y0197762D01*
X0130048Y0197696D01*
X0130027Y0197629D01*
X0130010Y0197560D01*
X0129996Y0197491D01*
X0129987Y0197422D01*
X0129981Y0197351D01*
X0129979Y0197281D01*
X0129980Y0185313D02*
X0129980Y0182758D01*
X0132024Y0182758D01*
X0132024Y0184291D01*
X0132026Y0184353D01*
X0132031Y0184414D01*
X0132041Y0184475D01*
X0132054Y0184536D01*
X0132070Y0184595D01*
X0132090Y0184653D01*
X0132114Y0184710D01*
X0132141Y0184766D01*
X0132171Y0184820D01*
X0132205Y0184872D01*
X0132241Y0184921D01*
X0132281Y0184969D01*
X0132323Y0185014D01*
X0132368Y0185056D01*
X0132416Y0185096D01*
X0132465Y0185132D01*
X0132517Y0185166D01*
X0132571Y0185196D01*
X0132627Y0185223D01*
X0132684Y0185247D01*
X0132742Y0185267D01*
X0132801Y0185283D01*
X0132862Y0185296D01*
X0132923Y0185306D01*
X0132984Y0185311D01*
X0133046Y0185313D01*
X0133557Y0185313D01*
X0133619Y0185311D01*
X0133680Y0185306D01*
X0133741Y0185296D01*
X0133802Y0185283D01*
X0133861Y0185267D01*
X0133919Y0185247D01*
X0133976Y0185223D01*
X0134032Y0185196D01*
X0134086Y0185166D01*
X0134138Y0185132D01*
X0134187Y0185096D01*
X0134235Y0185056D01*
X0134280Y0185014D01*
X0134322Y0184969D01*
X0134362Y0184921D01*
X0134398Y0184872D01*
X0134432Y0184820D01*
X0134462Y0184766D01*
X0134489Y0184710D01*
X0134513Y0184653D01*
X0134533Y0184595D01*
X0134549Y0184536D01*
X0134562Y0184475D01*
X0134572Y0184414D01*
X0134577Y0184353D01*
X0134579Y0184291D01*
X0134580Y0184291D02*
X0134580Y0182758D01*
X0134580Y0180842D02*
X0132535Y0179820D01*
X0132535Y0179564D02*
X0132535Y0178287D01*
X0132535Y0179564D02*
X0132533Y0179634D01*
X0132527Y0179705D01*
X0132518Y0179774D01*
X0132504Y0179843D01*
X0132487Y0179912D01*
X0132466Y0179979D01*
X0132441Y0180045D01*
X0132413Y0180109D01*
X0132381Y0180172D01*
X0132346Y0180233D01*
X0132307Y0180292D01*
X0132266Y0180349D01*
X0132221Y0180403D01*
X0132173Y0180455D01*
X0132123Y0180504D01*
X0132069Y0180551D01*
X0132014Y0180594D01*
X0131956Y0180634D01*
X0131896Y0180671D01*
X0131834Y0180704D01*
X0131770Y0180734D01*
X0131705Y0180761D01*
X0131639Y0180784D01*
X0131571Y0180803D01*
X0131502Y0180818D01*
X0131433Y0180830D01*
X0131363Y0180838D01*
X0131292Y0180842D01*
X0131222Y0180842D01*
X0131151Y0180838D01*
X0131081Y0180830D01*
X0131012Y0180818D01*
X0130943Y0180803D01*
X0130875Y0180784D01*
X0130809Y0180761D01*
X0130744Y0180734D01*
X0130680Y0180704D01*
X0130618Y0180671D01*
X0130558Y0180634D01*
X0130500Y0180594D01*
X0130445Y0180551D01*
X0130391Y0180504D01*
X0130341Y0180455D01*
X0130293Y0180403D01*
X0130248Y0180349D01*
X0130207Y0180292D01*
X0130168Y0180233D01*
X0130133Y0180172D01*
X0130101Y0180109D01*
X0130073Y0180045D01*
X0130048Y0179979D01*
X0130027Y0179912D01*
X0130010Y0179843D01*
X0129996Y0179774D01*
X0129987Y0179705D01*
X0129981Y0179634D01*
X0129979Y0179564D01*
X0129980Y0179564D02*
X0129980Y0178287D01*
X0134580Y0178287D01*
X0133557Y0167597D02*
X0133557Y0165041D01*
X0129980Y0166063D01*
X0132535Y0166830D02*
X0134580Y0166830D01*
X0134580Y0163126D02*
X0132535Y0162103D01*
X0132535Y0161848D02*
X0132535Y0160570D01*
X0132535Y0161848D02*
X0132533Y0161918D01*
X0132527Y0161989D01*
X0132518Y0162058D01*
X0132504Y0162127D01*
X0132487Y0162196D01*
X0132466Y0162263D01*
X0132441Y0162329D01*
X0132413Y0162393D01*
X0132381Y0162456D01*
X0132346Y0162517D01*
X0132307Y0162576D01*
X0132266Y0162633D01*
X0132221Y0162687D01*
X0132173Y0162739D01*
X0132123Y0162788D01*
X0132069Y0162835D01*
X0132014Y0162878D01*
X0131956Y0162918D01*
X0131896Y0162955D01*
X0131834Y0162988D01*
X0131770Y0163018D01*
X0131705Y0163045D01*
X0131639Y0163068D01*
X0131571Y0163087D01*
X0131502Y0163102D01*
X0131433Y0163114D01*
X0131363Y0163122D01*
X0131292Y0163126D01*
X0131222Y0163126D01*
X0131151Y0163122D01*
X0131081Y0163114D01*
X0131012Y0163102D01*
X0130943Y0163087D01*
X0130875Y0163068D01*
X0130809Y0163045D01*
X0130744Y0163018D01*
X0130680Y0162988D01*
X0130618Y0162955D01*
X0130558Y0162918D01*
X0130500Y0162878D01*
X0130445Y0162835D01*
X0130391Y0162788D01*
X0130341Y0162739D01*
X0130293Y0162687D01*
X0130248Y0162633D01*
X0130207Y0162576D01*
X0130168Y0162517D01*
X0130133Y0162456D01*
X0130101Y0162393D01*
X0130073Y0162329D01*
X0130048Y0162263D01*
X0130027Y0162196D01*
X0130010Y0162127D01*
X0129996Y0162058D01*
X0129987Y0161989D01*
X0129981Y0161918D01*
X0129979Y0161848D01*
X0129980Y0161848D02*
X0129980Y0160570D01*
X0134580Y0160570D01*
X0134580Y0148602D02*
X0134580Y0147325D01*
X0134580Y0148602D02*
X0134578Y0148672D01*
X0134572Y0148743D01*
X0134563Y0148812D01*
X0134549Y0148881D01*
X0134532Y0148950D01*
X0134511Y0149017D01*
X0134486Y0149083D01*
X0134458Y0149147D01*
X0134426Y0149210D01*
X0134391Y0149271D01*
X0134352Y0149330D01*
X0134311Y0149387D01*
X0134266Y0149441D01*
X0134218Y0149493D01*
X0134168Y0149542D01*
X0134114Y0149589D01*
X0134059Y0149632D01*
X0134001Y0149672D01*
X0133941Y0149709D01*
X0133879Y0149742D01*
X0133815Y0149772D01*
X0133750Y0149799D01*
X0133684Y0149822D01*
X0133616Y0149841D01*
X0133547Y0149856D01*
X0133478Y0149868D01*
X0133408Y0149876D01*
X0133337Y0149880D01*
X0133267Y0149880D01*
X0133196Y0149876D01*
X0133126Y0149868D01*
X0133057Y0149856D01*
X0132988Y0149841D01*
X0132920Y0149822D01*
X0132854Y0149799D01*
X0132789Y0149772D01*
X0132725Y0149742D01*
X0132663Y0149709D01*
X0132603Y0149672D01*
X0132545Y0149632D01*
X0132490Y0149589D01*
X0132436Y0149542D01*
X0132386Y0149493D01*
X0132338Y0149441D01*
X0132293Y0149387D01*
X0132252Y0149330D01*
X0132213Y0149271D01*
X0132178Y0149210D01*
X0132146Y0149147D01*
X0132118Y0149083D01*
X0132093Y0149017D01*
X0132072Y0148950D01*
X0132055Y0148881D01*
X0132041Y0148812D01*
X0132032Y0148743D01*
X0132026Y0148672D01*
X0132024Y0148602D01*
X0132024Y0148858D02*
X0132024Y0147836D01*
X0132024Y0148858D02*
X0132022Y0148921D01*
X0132016Y0148984D01*
X0132007Y0149046D01*
X0131993Y0149107D01*
X0131976Y0149168D01*
X0131955Y0149227D01*
X0131930Y0149285D01*
X0131902Y0149342D01*
X0131871Y0149396D01*
X0131836Y0149448D01*
X0131798Y0149499D01*
X0131757Y0149547D01*
X0131713Y0149592D01*
X0131667Y0149634D01*
X0131618Y0149674D01*
X0131567Y0149710D01*
X0131513Y0149743D01*
X0131458Y0149773D01*
X0131400Y0149799D01*
X0131342Y0149822D01*
X0131282Y0149841D01*
X0131221Y0149856D01*
X0131159Y0149868D01*
X0131096Y0149876D01*
X0131033Y0149880D01*
X0130971Y0149880D01*
X0130908Y0149876D01*
X0130845Y0149868D01*
X0130783Y0149856D01*
X0130722Y0149841D01*
X0130662Y0149822D01*
X0130604Y0149799D01*
X0130546Y0149773D01*
X0130491Y0149743D01*
X0130437Y0149710D01*
X0130386Y0149674D01*
X0130337Y0149634D01*
X0130291Y0149592D01*
X0130247Y0149547D01*
X0130206Y0149499D01*
X0130168Y0149448D01*
X0130133Y0149396D01*
X0130102Y0149342D01*
X0130074Y0149285D01*
X0130049Y0149227D01*
X0130028Y0149168D01*
X0130011Y0149107D01*
X0129997Y0149046D01*
X0129988Y0148984D01*
X0129982Y0148921D01*
X0129980Y0148858D01*
X0129980Y0147325D01*
X0129980Y0144131D02*
X0129980Y0142854D01*
X0134580Y0142854D01*
X0132535Y0142854D02*
X0132535Y0144131D01*
X0132535Y0144387D02*
X0134580Y0145409D01*
X0132535Y0144131D02*
X0132533Y0144201D01*
X0132527Y0144272D01*
X0132518Y0144341D01*
X0132504Y0144410D01*
X0132487Y0144479D01*
X0132466Y0144546D01*
X0132441Y0144612D01*
X0132413Y0144676D01*
X0132381Y0144739D01*
X0132346Y0144800D01*
X0132307Y0144859D01*
X0132266Y0144916D01*
X0132221Y0144970D01*
X0132173Y0145022D01*
X0132123Y0145071D01*
X0132069Y0145118D01*
X0132014Y0145161D01*
X0131956Y0145201D01*
X0131896Y0145238D01*
X0131834Y0145271D01*
X0131770Y0145301D01*
X0131705Y0145328D01*
X0131639Y0145351D01*
X0131571Y0145370D01*
X0131502Y0145385D01*
X0131433Y0145397D01*
X0131363Y0145405D01*
X0131292Y0145409D01*
X0131222Y0145409D01*
X0131151Y0145405D01*
X0131081Y0145397D01*
X0131012Y0145385D01*
X0130943Y0145370D01*
X0130875Y0145351D01*
X0130809Y0145328D01*
X0130744Y0145301D01*
X0130680Y0145271D01*
X0130618Y0145238D01*
X0130558Y0145201D01*
X0130500Y0145161D01*
X0130445Y0145118D01*
X0130391Y0145071D01*
X0130341Y0145022D01*
X0130293Y0144970D01*
X0130248Y0144916D01*
X0130207Y0144859D01*
X0130168Y0144800D01*
X0130133Y0144739D01*
X0130101Y0144676D01*
X0130073Y0144612D01*
X0130048Y0144546D01*
X0130027Y0144479D01*
X0130010Y0144410D01*
X0129996Y0144341D01*
X0129987Y0144272D01*
X0129981Y0144201D01*
X0129979Y0144131D01*
X0132024Y0131780D02*
X0134580Y0129608D01*
X0134580Y0132164D01*
X0131002Y0129609D02*
X0130932Y0129634D01*
X0130863Y0129662D01*
X0130796Y0129693D01*
X0130730Y0129728D01*
X0130667Y0129766D01*
X0130605Y0129808D01*
X0130545Y0129852D01*
X0130488Y0129899D01*
X0130433Y0129949D01*
X0130381Y0130002D01*
X0130331Y0130058D01*
X0130285Y0130115D01*
X0130241Y0130176D01*
X0130200Y0130238D01*
X0130163Y0130302D01*
X0130129Y0130368D01*
X0130098Y0130436D01*
X0130071Y0130505D01*
X0130047Y0130575D01*
X0130026Y0130646D01*
X0130010Y0130719D01*
X0129997Y0130792D01*
X0129987Y0130866D01*
X0129982Y0130940D01*
X0129980Y0131014D01*
X0129982Y0131081D01*
X0129988Y0131148D01*
X0129997Y0131214D01*
X0130011Y0131279D01*
X0130028Y0131344D01*
X0130049Y0131407D01*
X0130074Y0131469D01*
X0130102Y0131530D01*
X0130134Y0131589D01*
X0130169Y0131646D01*
X0130208Y0131701D01*
X0130249Y0131753D01*
X0130294Y0131803D01*
X0130341Y0131850D01*
X0130391Y0131895D01*
X0130443Y0131936D01*
X0130498Y0131975D01*
X0130555Y0132010D01*
X0130614Y0132042D01*
X0130675Y0132070D01*
X0130737Y0132095D01*
X0130800Y0132116D01*
X0130865Y0132133D01*
X0130930Y0132147D01*
X0130996Y0132156D01*
X0131063Y0132162D01*
X0131130Y0132164D01*
X0131130Y0132163D02*
X0131197Y0132161D01*
X0131263Y0132156D01*
X0131329Y0132147D01*
X0131395Y0132134D01*
X0131459Y0132118D01*
X0131523Y0132099D01*
X0131586Y0132076D01*
X0131647Y0132050D01*
X0131707Y0132020D01*
X0131765Y0131987D01*
X0131821Y0131952D01*
X0131875Y0131913D01*
X0131927Y0131871D01*
X0131977Y0131827D01*
X0132024Y0131780D01*
X0134580Y0127693D02*
X0132535Y0126670D01*
X0132535Y0126415D02*
X0132535Y0125137D01*
X0132535Y0126415D02*
X0132533Y0126485D01*
X0132527Y0126556D01*
X0132518Y0126625D01*
X0132504Y0126694D01*
X0132487Y0126763D01*
X0132466Y0126830D01*
X0132441Y0126896D01*
X0132413Y0126960D01*
X0132381Y0127023D01*
X0132346Y0127084D01*
X0132307Y0127143D01*
X0132266Y0127200D01*
X0132221Y0127254D01*
X0132173Y0127306D01*
X0132123Y0127355D01*
X0132069Y0127402D01*
X0132014Y0127445D01*
X0131956Y0127485D01*
X0131896Y0127522D01*
X0131834Y0127555D01*
X0131770Y0127585D01*
X0131705Y0127612D01*
X0131639Y0127635D01*
X0131571Y0127654D01*
X0131502Y0127669D01*
X0131433Y0127681D01*
X0131363Y0127689D01*
X0131292Y0127693D01*
X0131222Y0127693D01*
X0131151Y0127689D01*
X0131081Y0127681D01*
X0131012Y0127669D01*
X0130943Y0127654D01*
X0130875Y0127635D01*
X0130809Y0127612D01*
X0130744Y0127585D01*
X0130680Y0127555D01*
X0130618Y0127522D01*
X0130558Y0127485D01*
X0130500Y0127445D01*
X0130445Y0127402D01*
X0130391Y0127355D01*
X0130341Y0127306D01*
X0130293Y0127254D01*
X0130248Y0127200D01*
X0130207Y0127143D01*
X0130168Y0127084D01*
X0130133Y0127023D01*
X0130101Y0126960D01*
X0130073Y0126896D01*
X0130048Y0126830D01*
X0130027Y0126763D01*
X0130010Y0126694D01*
X0129996Y0126625D01*
X0129987Y0126556D01*
X0129981Y0126485D01*
X0129979Y0126415D01*
X0129980Y0126415D02*
X0129980Y0125137D01*
X0134580Y0125137D01*
X0134580Y0114447D02*
X0134580Y0111891D01*
X0134580Y0113169D02*
X0129980Y0113169D01*
X0131002Y0111891D01*
X0129979Y0108698D02*
X0129981Y0108768D01*
X0129987Y0108839D01*
X0129996Y0108908D01*
X0130010Y0108977D01*
X0130027Y0109046D01*
X0130048Y0109113D01*
X0130073Y0109179D01*
X0130101Y0109243D01*
X0130133Y0109306D01*
X0130168Y0109367D01*
X0130207Y0109426D01*
X0130248Y0109483D01*
X0130293Y0109537D01*
X0130341Y0109589D01*
X0130391Y0109638D01*
X0130445Y0109685D01*
X0130500Y0109728D01*
X0130558Y0109768D01*
X0130618Y0109805D01*
X0130680Y0109838D01*
X0130744Y0109868D01*
X0130809Y0109895D01*
X0130875Y0109918D01*
X0130943Y0109937D01*
X0131012Y0109952D01*
X0131081Y0109964D01*
X0131151Y0109972D01*
X0131222Y0109976D01*
X0131292Y0109976D01*
X0131363Y0109972D01*
X0131433Y0109964D01*
X0131502Y0109952D01*
X0131571Y0109937D01*
X0131639Y0109918D01*
X0131705Y0109895D01*
X0131770Y0109868D01*
X0131834Y0109838D01*
X0131896Y0109805D01*
X0131956Y0109768D01*
X0132014Y0109728D01*
X0132069Y0109685D01*
X0132123Y0109638D01*
X0132173Y0109589D01*
X0132221Y0109537D01*
X0132266Y0109483D01*
X0132307Y0109426D01*
X0132346Y0109367D01*
X0132381Y0109306D01*
X0132413Y0109243D01*
X0132441Y0109179D01*
X0132466Y0109113D01*
X0132487Y0109046D01*
X0132504Y0108977D01*
X0132518Y0108908D01*
X0132527Y0108839D01*
X0132533Y0108768D01*
X0132535Y0108698D01*
X0132535Y0107420D01*
X0132535Y0108954D02*
X0134580Y0109976D01*
X0134580Y0107420D02*
X0129980Y0107420D01*
X0129980Y0108698D01*
M02*
