; Version : LOCAL
; Job     : D:\SpiROSE\PCB\Rotative_base\PCB\PCB.pcb
; User    : DESKTOP-6JAMO00:Adrien
; Date    : Mon Jan 08 11:53:40 2018
; Format  : 3.3 / Absolute / MM / Leading
; Contents: Thru / Drill / Plated
M48
METRIC,TZ
FMAT,2
ICI,OFF
T04C0.3000
T01C0.4000
T02C0.5000
T03C1.5000
T06C3.0000
T05C4.0000
T07C5.0000
%
M71
G90
G93X0Y0
T04
X129658Y19821
X130476Y21087
X129588
X129547Y22566
X127992Y22575
X127048Y21087
X126794Y22602
X89840Y22568
X87300
X125248Y24684
X127241Y24613
X129493Y24532
X130905Y24541
X132094Y24613
X125618Y27713
X122642Y27572
X120571Y27653
X97500Y25500
X88570Y28768
X91110
X120330Y29603
X124611Y28637
X124631Y31412
X123243Y32799
X121594
X120390Y31936
X89514Y32579
X88312
X87711Y33180
X88913
X116651Y34521
X119633Y34567
X124550Y33604
X124651Y37525
X124570Y35796
X117498Y37829
X110470Y42365
X105852Y45192
X106453Y44591
X123884Y44654
X126925Y47854
X123112Y46368
X122366Y48038
X118584Y47364
X116197Y46429
X106453Y45793
X105852Y46394
X104809Y47342
X95881Y48039
X98579Y50575
X103235Y50172
X104738Y49794
X105504Y49097
X109328Y49403
X111003Y49581
X112944Y48898
X113545Y49500
X114146Y48898
X114747Y49500
X116097Y49253
X119273Y49555
X119295Y48607
X122561Y50225
X123472Y49772
X124379Y48812
X125433Y48842
X126320Y49693
X127589Y49932
X132646Y48865
X129529Y53128
X124529
X99112Y51678
X89728Y53294
X95486Y55510
X99211Y55726
X100632Y53440
X101832
X103032
X104528
X107038
X109031
X112030Y53393
X117029Y53440
X119529
X123029
X126029
X127245Y53404
X128533Y53440
X130342Y55681
Y54481
X133887Y55222
X169214Y57093
X156251Y58090
X130342Y56881
X123028Y56214
X117029Y56217
X107038Y56222
X103075
X99211Y57724
X95595Y57500
X94792Y56760
X91893Y57768
X87744Y56374
X91893Y59621
X92778Y58694
Y60547
X94456Y59444
X95507Y59255
X95931Y60527
X99211Y60225
X127541Y58768
X130342Y59219
Y60725
X135252Y60225
X169187Y60350
X161056Y63393
X130342Y62225
X128994Y63411
X127543Y62225
X101001Y61725
X99211
X95993Y63091
X95709Y61779
X92778Y62400
X91893Y61474
Y63327
Y65180
X92778Y64253
X94319Y65484
X95369Y65762
X95619Y64203
X99211Y64229
X134076Y65544
X135220Y65429
X137251Y64932
X140909Y65421
X142679
X144449
X146219
X147989
X148926Y66297
X147104Y66306
X145334
X143564
X141794
X140024
X138548Y67165
X134022Y68099
X130342Y66230
X101011Y67728
X99211
X96029Y67834
X95184Y68498
X92778Y66106
Y67965
X91893Y67033
Y68894
X95544Y69961
X99211Y71117
X101011
X134018Y68849
X136596Y69005
Y69855
X169711Y69500
X134374Y72278
X130342Y71729
X127544Y71732
X99211Y72317
X95282Y71737
X93974Y72949
X71210Y72699
X69210
X67210
X65210
X63210
X61210
X59210
X57210
X55210
X53210
X51210
X49210
X93958Y74450
X95011Y74260
X99211Y75228
X127544Y75723
X130342Y74171
Y75723
X134438Y74033
X136278Y73883
X133628Y78176
X130342Y77726
X101011Y78106
X99211
X95532Y76260
X94887Y77734
X63196Y78109
X47355Y78849
Y80849
X63196Y80109
X91358Y80539
X92425Y80962
X92925Y79168
X95279Y78784
X99211Y79306
X130342Y81227
X134409Y79316
X178760Y82174
X176260
X173760
X171260
X168760
X166260
X133611Y81664
X130342Y83230
X125573Y81743
X122029
X113030Y81735
X105026Y81732
X98933Y83231
X95320Y83473
X94549Y82255
X93515Y81378
X93499Y82436
X63196Y82109
X47355Y82849
X23329Y83883
Y85380
X25829Y83883
X28329
X30829
X33329
X35829
Y85380
X47355Y84849
X63196Y84109
Y86109
X99111Y86277
X101030Y84551
X103028
X105026
X106532
X108530
X113030
X116529
X120035
X122029
X125530
X127681
X128881
X130441Y86279
X157546Y86345
X158480Y85027
X166249Y84096
Y86096
X178749Y84096
Y86096
Y88096
X166249
X133384Y86510
X132940Y88439
X127059Y88418
X125054Y87730
X122655Y88785
X122038Y87915
X118562Y88471
X117497Y88477
X115935Y88563
X114874Y88194
X111797Y88170
X108613Y88255
X107554Y88331
X106051Y88245
X103620Y87926
X100535Y87743
X63196Y88109
X47355Y86849
Y88849
X35829Y87380
X23329
Y89380
Y91380
X35829Y89380
Y91380
X94787Y91387
X99139Y89582
X109498Y89255
X110554Y89006
X113075Y90455
X113789Y91008
X114755Y91291
X116245Y91079
X123511Y89544
X124561Y89001
X126323Y89189
X133904Y88960
X134131Y91089
X134316Y90036
X166249Y90096
X178749
Y92096
X166249
X161402Y91503
X161308Y92653
X160427Y93628
X158612Y92069
X135216Y91918
X134135Y92146
X35829Y93380
X23329
Y95380
X35829
X63603Y96236
X65037Y96276
X166249Y94096
Y96096
X178749Y94096
Y96096
X111128Y97486
X71854Y98437
X67128Y98519
X65977Y97986
X64093Y98637
X35829Y97380
X23329
X69520Y99189
X72993Y99129
X77933Y100119
X78862Y99234
X79792Y100119
X80721Y99234
X81650Y100119
X82579Y99234
X83508Y100119
X84437Y99234
X85366Y100119
X86296Y99238
X87225Y100121
X88154Y99238
X89083Y100121
X116186Y99574
X89073Y103091
X60745Y102849
X23329Y104208
Y106208
X35829Y104208
Y106208
X91445Y106298
X120434Y105820
X124506Y106560
X125119Y105680
X166189Y104406
Y106406
X178689Y104406
Y106406
Y108406
X166189
X141347Y109181
X134885Y109157
X133322Y108227
X131874Y109115
X130394Y108260
X128884Y109085
X127197Y107539
X125995Y108679
X123671Y108461
X122701Y107946
X121494Y109078
X119611Y106807
X119010Y107694
X118408Y108734
X116757Y106925
X116152Y107809
X115548Y108699
X35829Y108208
X23329
Y110208
X35829
X67274Y109238
X79312Y109357
X92620Y109485
X95636Y109445
X96621Y109506
X103035
X109128Y109445
X110636
X112124Y109526
X117669Y109481
X124345Y109273
X126642Y109535
X137174Y109324
X159174Y111074
X166189Y110406
X178689
Y112406
X166189
X142990Y113280
X141490
X139990
X138427Y112544
X137059
X135632Y112584
X134103
X132655Y112544
X131167Y112564
X129679Y112624
X128131Y112564
X126663
X123667Y112544
X122138Y112584
X120610Y112604
X119223Y112544
X117594
X112164Y112645
X109128Y112544
X103156Y112604
X97163Y112544
X95635Y112584
X92598Y112624
X88114
X84675Y112604
X83167
X79166Y112645
X76129
X71631Y112604
X67516Y112578
X35829Y112208
Y114208
X23329Y112208
Y114208
Y116208
X35829
X67878Y116780
X71859Y116740
X74393Y116780
X76826Y116760
X79923
X83884Y116740
X87826Y116760
X89877Y116740
X95869Y116760
X103913
X108893Y116780
X110381Y116727
X111910Y116780
X113411Y116740
X114886Y116780
X117862Y116767
X119296Y116780
X120905
X123895Y116767
X127836
X129418Y116780
X130893Y116740
X133869
X135397Y116700
X137364Y116687
X139990Y114780
Y116280
X141490Y114780
Y116280
X142990Y114780
Y116280
X154804Y115961
X166189Y114406
Y116406
X178689Y114406
Y116406
X178681Y118026
X176181
X173681
X171181
X168681
X166181
X155947Y119080
X147917Y117145
X35829Y118120
X33329
X30829
X28329
X25829
X23329
X69277Y120215
X71848Y119976
X74386Y119859
X77015Y119819
X79910Y119873
X83891Y119859
X87900
X89897Y119886
X95903Y119859
X103893Y119846
X108893Y119819
X110395
X111883Y119806
X113398Y119846
X114899Y119832
X117875
X119377
X120892
X122380
X123895Y119806
X127850Y119832
X130867Y119838
X137364Y119903
X155332Y120115
X156384Y120133
X148585Y123393
X135922Y123703
X144435Y128782
X137425Y128472
X164270Y130686
X171714Y130086
X160752Y134058
X167450Y136803
X169576
X171893Y134879
X169576Y138613
X167450
X92925Y139646
X91727Y139665
X169576Y142303
X167450
Y144455
X163407Y144344
X161548Y144338
X158679Y147283
X162861Y147203
X164792Y147216
X167382Y145940
X165697Y147994
Y149495
X164215Y149147
X164188Y148195
X163022Y148141
X162969Y149134
X161816Y148208
X161682Y149093
X160663Y149066
X160622Y148155
X158679Y148396
Y149308
Y150836
X160609Y149951
X161641
X162915Y150018
X164162Y150005
X165697Y150581
X166217Y153629
X164349Y153647
X162804Y153577
X158252
X164808Y156349
T01
X120509Y18220
X115543Y23367
X83000Y32000
X80000
Y35000
X83000
X119470Y37749
X102000Y40000
X105000
Y43000
X102000
X81337Y43339
X93377Y48358
X91814Y50932
X91258Y55568
X91302Y53434
X160202Y58087
X161056Y63393
X155947Y119080
X148561Y119362
X54000Y120000
X57000
X146683Y124457
X162518Y132059
X43750Y139569
X47000Y161000
X50000
X53000
X56000
X59000
Y164000
X56000
X53000
X50000
X47000
Y167000
X50000
X53000
X56000
X59000
X68000Y176000
X71000
X74000
X77000
X80000
X83000
X86000
X89000
X92000
X95000
X98000
X105000
X108000
X111000
X114000
X117000
X120000
T02
X38845Y95865
X40115
X41385
X42655
X43925
X45195
X46465
X47735
X49005
X50275
X51545
X52815
X54085
X55355
X144645
X145915
X147185
X148455
X149725
X150995
X152265
X153535
X154805
X156075
X157345
X158615
X159885
X161155
Y97135
X159885
X158615
X157345
X156075
X154805
X153535
X152265
X150995
X149725
X148455
X147185
X145915
X144645
X55355
X54085
X52815
X51545
X50275
X49005
X47735
X46465
X45195
X43925
X42655
X41385
X40115
X38845
X163405Y102765
Y104035
X162135Y102765
Y104035
X160865Y102765
Y104035
X159595Y102765
Y104035
X158325Y102765
Y104035
X157055Y102765
Y104035
X155785Y102765
Y104035
X154515Y102765
Y104035
X153245Y102765
Y104035
X151975Y102765
Y104035
X150705Y102765
Y104035
X149435Y102765
Y104035
X148165Y102765
Y104035
X146895Y102765
Y104035
X57605Y102765
Y104035
X56335Y102765
Y104035
X55065Y102765
Y104035
X53795Y102765
Y104035
X52525Y102765
Y104035
X51255Y102765
Y104035
X49985Y102765
Y104035
X48715Y102765
Y104035
X47445Y102765
Y104035
X46175Y102765
Y104035
X44905Y102765
Y104035
X43635Y102765
Y104035
X42365Y102765
Y104035
X41095Y102765
Y104035
T03
X81422Y51781
X78252
X68732
X62382
X52862
X46512
X36992
X33822Y65038
Y68269
Y72101
Y75271
X36992
X46512
X49682
X52852
X62382
X65552
X68732
X78252
X81422
T06
X100000Y93650
X93650Y100000
X106350
X100000Y106350
T05
X70000Y26300
X141600Y31100
X57500Y32300
X153100Y40100
X13630Y90950
X29630
X172625
X188630Y91030
Y109130
X172625Y109140
X29630Y109050
X13630
X30900Y142900
X38800Y151800
X151900Y161300
T07
X100000Y100000
T00
M30
