; Version : LOCAL
; Job     : D:\SpiROSE\PCB\Rotative_base\PCB\PCB.pcb
; User    : DESKTOP-6JAMO00:Adrien
; Date    : Mon Jan 08 09:44:49 2018
; Format  : 3.3 / Absolute / MM / Leading
; Contents: Thru / Drill / Plated
M48
METRIC,TZ
FMAT,2
ICI,OFF
T04C0.3000
T01C0.4000
T02C0.5000
T03C1.5000
T05C3.3750
%
M71
G90
G93X0Y0
T04
X27048Y-78913
X29588
X29658Y-80179
X30476Y-78913
X29547Y-77434
X27992Y-77425
X26794Y-77398
X-10160Y-77432
X-12700
X-2500Y-74500
X25248Y-75316
X27241Y-75387
X29493Y-75468
X30905Y-75459
X32094Y-75387
X25618Y-72287
X24611Y-71363
X22642Y-72428
X20571Y-72347
X-8890Y-71232
X-11430
X20330Y-70397
X24631Y-68588
X24550Y-66396
X23243Y-67201
X21594
X20390Y-68064
X-10486Y-67421
X-11087Y-66820
X-11688Y-67421
X-12289Y-66820
X16651Y-65479
X19633Y-65433
X24570Y-64204
X24651Y-62475
X17498Y-62171
X10470Y-57635
X5852Y-54808
Y-53606
X6453Y-55409
Y-54207
X16197Y-53571
X23112Y-53632
X23884Y-55346
X32646Y-51135
X26925Y-52146
X25433Y-51158
X24379Y-51188
X22366Y-51962
X19295Y-51393
X18584Y-52636
X14146Y-51102
X12944
X5504Y-50903
X4809Y-52658
X-4119Y-51961
X-1421Y-49425
X-888Y-48322
X3235Y-49828
X4738Y-50206
X9328Y-50597
X11003Y-50419
X13545Y-50500
X14747
X16097Y-50747
X19273Y-50445
X22561Y-49775
X23472Y-50228
X26320Y-50307
X27589Y-50068
X29529Y-46872
X28533Y-46560
X27245Y-46596
X26029Y-46560
X24529Y-46872
X23029Y-46560
X19529
X17029
X12030Y-46607
X9031Y-46560
X7038
X4528
X3032
X1832
X632
X-10272Y-46706
X-12256Y-43626
X-5208Y-43240
X-4514Y-44490
X-789Y-44274
X3075Y-43778
X7038
X17029Y-43783
X23028Y-43786
X30342Y-44319
Y-45519
X33887Y-44778
X69214Y-42907
X56251Y-41910
X30342Y-43119
Y-40781
X27541Y-41232
X-789Y-42276
X-4405Y-42500
X-4493Y-40745
X-7222Y-41306
X-8107Y-42232
Y-40379
Y-38526
X-7222Y-39453
X-5544Y-40556
X-4291Y-38221
X-4069Y-39473
X-789Y-39775
Y-38275
X1001
X30342Y-39275
X35252Y-39775
X69187Y-39650
X61056Y-36607
X30342Y-37775
X28994Y-36589
X27543Y-37775
X-789Y-35771
X-4007Y-36909
X-4381Y-35797
X-7222Y-37600
Y-35747
X-8107Y-36673
Y-34820
X-7222Y-33894
X-5681Y-34516
X-4631Y-34238
X30342Y-33770
X34076Y-34456
X35220Y-34571
X37251Y-35068
X40024Y-33694
X40909Y-34579
X41794Y-33694
X42679Y-34579
X43564Y-33694
X44449Y-34579
X45334Y-33694
X46219Y-34579
X47104Y-33694
X47989Y-34579
X48926Y-33703
X69711Y-30500
X38548Y-32835
X36596Y-30995
X34022Y-31901
X34018Y-31151
X1011Y-32272
X-789
X-3971Y-32166
X-4816Y-31502
X-7222Y-32035
X-8107Y-32967
Y-31106
X-4718Y-28263
X-4456Y-30039
X-789Y-28883
X1011
X27544Y-28268
X30342Y-28271
X36596Y-30145
X36278Y-26117
X34438Y-25967
X34374Y-27722
X30342Y-25829
X-789Y-27683
X-4989Y-25740
X-6026Y-27051
X-6042Y-25550
X-28790Y-27301
X-30790
X-32790
X-34790
X-36790
X-38790
X-40790
X-42790
X-44790
X-46790
X-48790
X-50790
X-4468Y-23740
X-789Y-24772
X27544Y-24277
X30342
X34409Y-20684
X33628Y-21824
X30342Y-22274
X1011Y-21894
X-789
Y-20694
X-4721Y-21216
X-5113Y-22266
X-7075Y-20832
X-36804Y-21891
X-52645Y-21151
Y-19151
X-36804Y-19891
Y-17891
X-8642Y-19461
X-7575Y-19038
X-6485Y-18622
X5026Y-18268
X13030Y-18265
X22029Y-18257
X25573
X30342Y-18773
X33611Y-18336
X66260Y-17826
X68760
X71260
X73760
X76260
X78760
X78749Y-15904
X66249
X30342Y-16770
X28881Y-15449
X27681
X25530
X22029
X20035
X16529
X13030
X8530
X6532
X5026
X3028
X1030
X-1067Y-16769
X-4680Y-16527
X-5451Y-17745
X-6501Y-17564
X-36804Y-15891
X-52645Y-17151
X-64171Y-16117
X-66671
X-69171
X-71671
X-74171
X-76671
Y-14620
X-64171
X-52645Y-15151
Y-13151
X-36804Y-13891
X-889Y-13723
X30441Y-13721
X33384Y-13490
X57546Y-13655
X58480Y-14973
X66249Y-13904
X78749
Y-11904
X66249
X33904Y-11040
X32940Y-11561
X27059Y-11582
X26323Y-10811
X25054Y-12270
X24561Y-10999
X23511Y-10456
X22655Y-11215
X22038Y-12085
X18562Y-11529
X17497Y-11523
X15935Y-11437
X14874Y-11806
X11797Y-11830
X10554Y-10994
X9498Y-10745
X8613Y-11745
X7554Y-11669
X6051Y-11755
X3620Y-12074
X535Y-12257
X-861Y-10418
X-36804Y-11891
X-52645Y-11151
X-64171Y-12620
Y-10620
X-76671Y-12620
Y-10620
Y-8620
X-64171
X-5213Y-8613
X13789Y-8992
X14755Y-8709
X16245Y-8921
X34131Y-8911
X34135Y-7854
X34316Y-9964
X35216Y-8082
X58612Y-7931
X61402Y-8497
X66249Y-9904
Y-7904
X78749Y-9904
Y-7904
Y-5904
X66249
X61308Y-7347
X60427Y-6372
X-64171Y-6620
X-76671
Y-4620
Y-2620
X-64171Y-4620
Y-2620
X-36397Y-3764
X-34963Y-3724
X66249Y-3904
X78749
X16186Y-426
X-10917Y121
X-11846Y-762
X-12775Y121
X-13704Y-762
X-14634Y119
X-15563Y-766
X-16492Y119
X-17421Y-766
X-18350Y119
X-19279Y-766
X-20208Y119
X-21138Y-766
X-22067Y119
X-27007Y-871
X-28146Y-1563
X-30480Y-811
X-32872Y-1481
X-34023Y-2014
X-35907Y-1363
X-76671Y4208
X-64171
X-39255Y2849
X-10927Y3091
X66189Y4406
X78689
Y6406
X66189
X27197Y7539
X25119Y5680
X24506Y6560
X20434Y5820
X19611Y6807
X16757Y6925
X-8555Y6298
X-64171Y6208
X-76671
Y8208
X-64171
X-32726Y9238
X-20688Y9357
X-7380Y9485
X-4364Y9445
X-3379Y9506
X3035
X9128Y9445
X10636
X12124Y9526
X15548Y8699
X16152Y7809
X17669Y9481
X18408Y8734
X19010Y7694
X21494Y9078
X22701Y7946
X23671Y8461
X24345Y9273
X25995Y8679
X26642Y9535
X28884Y9085
X30394Y8260
X31874Y9115
X33322Y8227
X34885Y9157
X37174Y9324
X41347Y9181
X66189Y8406
X78689
Y10406
Y12406
X66189Y10406
Y12406
X59174Y11074
X38427Y12544
X37059
X35632Y12584
X34103
X32655Y12544
X31167Y12564
X29679Y12624
X28131Y12564
X26663
X23667Y12544
X22138Y12584
X20610Y12604
X19223Y12544
X17594
X12164Y12645
X9128Y12544
X3156Y12604
X-2837Y12544
X-4365Y12584
X-7402Y12624
X-11886
X-15325Y12604
X-16833
X-20834Y12645
X-23871
X-28369Y12604
X-32484Y12578
X-64171Y10208
Y12208
X-76671Y10208
Y12208
Y14208
X-64171
X39990Y13280
Y14780
X41490Y13280
Y14780
X42990Y13280
Y14780
X66189Y14406
X78689
Y16406
X66189
X54804Y15961
X47917Y17145
X42990Y16280
X41490
X39990
X37364Y16687
X35397Y16700
X33869Y16740
X30893
X29418Y16780
X27836Y16767
X23895
X20905Y16780
X19296
X17862Y16767
X14886Y16780
X13411Y16740
X11910Y16780
X10381Y16727
X8893Y16780
X3913Y16760
X-4131
X-10123Y16740
X-12174Y16760
X-16116Y16740
X-20077Y16760
X-23174
X-25607Y16780
X-28141Y16740
X-32122Y16780
X-64171Y16208
X-76671
Y18120
X-74171
X-71671
X-69171
X-66671
X-64171
X-30723Y20215
X-28152Y19976
X-25614Y19859
X-22985Y19819
X-20090Y19873
X-16109Y19859
X-12100
X-10103Y19886
X-4097Y19859
X3893Y19846
X8893Y19819
X10395
X11883Y19806
X13398Y19846
X14899Y19832
X17875
X19377
X20892
X22380
X23895Y19806
X27850Y19832
X30867Y19838
X37364Y19903
X55332Y20115
X55947Y19080
X56384Y20133
X66181Y18026
X68681
X71181
X73681
X76181
X78681
X35922Y23703
X48585Y23393
X37425Y28472
X44435Y28782
X71714Y30086
X64270Y30686
X60752Y34058
X71893Y34879
X69576Y36803
X67450
X-8273Y39665
X-7075Y39646
X67450Y38613
X69576
Y42303
X67450
X61548Y44338
X63407Y44344
X67450Y44455
X67382Y45940
X65697Y47994
X64792Y47216
X64188Y48195
X63022Y48141
X62861Y47203
X61816Y48208
X60622Y48155
X58679Y47283
Y48396
Y49308
X60609Y49951
X60663Y49066
X61641Y49951
X61682Y49093
X62915Y50018
X62969Y49134
X64162Y50005
X64215Y49147
X65697Y49495
Y50581
X58679Y50836
X58252Y53577
X62804
X64349Y53647
X66217Y53629
X64808Y56349
T01
X20509Y-81780
X15543Y-76633
X-17000Y-68000
X-20000
Y-65000
X-17000
X19470Y-62251
X2000Y-60000
X5000
Y-57000
X2000
X-18663Y-56661
X-6623Y-51642
X-8186Y-49068
X-8698Y-46566
X-8742Y-44432
X60202Y-41913
X61056Y-36607
X-46000Y20000
X-43000
X48561Y19362
X55947Y19080
X46683Y24457
X62518Y32059
X-56250Y39569
X-41000Y61000
X-44000
X-47000
X-50000
X-53000
Y64000
X-50000
X-47000
X-44000
X-41000
Y67000
X-44000
X-47000
X-50000
X-53000
X-32000Y76000
X-29000
X-26000
X-23000
X-20000
X-17000
X-14000
X-11000
X-8000
X-5000
X-2000
X5000
X8000
X11000
X14000
X17000
X20000
T02
X-61155Y-4135
Y-2865
X-59885Y-4135
Y-2865
X-58615Y-4135
Y-2865
X-57345Y-4135
Y-2865
X-56075Y-4135
Y-2865
X-54805Y-4135
Y-2865
X-53535Y-4135
Y-2865
X-52265Y-4135
Y-2865
X-50995Y-4135
Y-2865
X-49725Y-4135
Y-2865
X-48455Y-4135
Y-2865
X-47185Y-4135
Y-2865
X-45915Y-4135
Y-2865
X-44645Y-4135
Y-2865
X44645Y-4135
Y-2865
X45915Y-4135
Y-2865
X47185Y-4135
Y-2865
X48455Y-4135
Y-2865
X49725Y-4135
Y-2865
X50995Y-4135
Y-2865
X52265Y-4135
Y-2865
X53535Y-4135
Y-2865
X54805Y-4135
Y-2865
X56075Y-4135
Y-2865
X57345Y-4135
Y-2865
X58615Y-4135
Y-2865
X59885Y-4135
Y-2865
X61155Y-4135
Y-2865
X-58905Y2765
Y4035
X-57635Y2765
Y4035
X-56365Y2765
Y4035
X-55095Y2765
Y4035
X-53825Y2765
Y4035
X-52555Y2765
Y4035
X-51285Y2765
Y4035
X-50015Y2765
Y4035
X-48745Y2765
Y4035
X-47475Y2765
Y4035
X-46205Y2765
Y4035
X-44935Y2765
Y4035
X-43665Y2765
Y4035
X-42395Y2765
Y4035
X46895Y2765
Y4035
X48165Y2765
Y4035
X49435Y2765
Y4035
X50705Y2765
Y4035
X51975Y2765
Y4035
X53245Y2765
Y4035
X54515Y2765
Y4035
X55785Y2765
Y4035
X57055Y2765
Y4035
X58325Y2765
Y4035
X59595Y2765
Y4035
X60865Y2765
Y4035
X62135Y2765
Y4035
X63405Y2765
Y4035
T03
X-18578Y-48219
X-21748
X-31268
X-37618
X-47138
X-53488
X-63008
X-66178Y-34962
Y-31731
Y-27899
Y-24729
X-63008
X-53488
X-50318
X-47148
X-37618
X-34448
X-31268
X-21748
X-18578
T05
X-29800Y-73800
X41600Y-68900
X-42500Y-67700
X53100Y-59900
X-86370Y-9050
X-70370
X72625
X88630Y-8970
X-86370Y9050
X-70370
X72625Y9140
X88630Y9130
X-70500Y41100
X-61600Y53200
X51900Y61300
T00
M30
