*
G04 Job   : H:\SPIROSE\PCB\LED_PANEL\PCB\PCB.pcb*
G04 User  : DESKTOP-D6MOGOB:alexis*
G04 Layer : InsertionOutline.gdo*
G04 Date  : Tue Jan 16 15:36:55 2018*
%ICAS*%
%MOIN*%
%FSLAX24Y24*%
%OFA0.0000B0.0000*%
G90*
G74*
%ADD10C,0.00500*%
G01*
G54D10*
X2278Y19222D02*
X2841D01*
Y19785*
X2278*
Y19222*
X2841*
Y19785*
X2278*
Y19222*
Y20108D02*
X2841D01*
Y20671*
X2278*
Y20108*
X2841*
Y20671*
X2278*
Y20108*
Y20994D02*
X2841D01*
Y21557*
X2278*
Y20994*
X2841*
Y21557*
X2278*
Y20994*
Y21880D02*
X2841D01*
Y22443*
X2278*
Y21880*
X2841*
Y22443*
X2278*
Y21880*
Y22766D02*
X2841D01*
Y23329*
X2278*
Y22766*
X2841*
Y23329*
X2278*
Y22766*
Y23652D02*
X2841D01*
Y24215*
X2278*
Y23652*
X2841*
Y24215*
X2278*
Y23652*
Y24537D02*
X2841D01*
Y25100*
X2278*
Y24537*
X2841*
Y25100*
X2278*
Y24537*
Y25423D02*
X2841D01*
Y25986*
X2278*
Y25423*
X2841*
Y25986*
X2278*
Y25423*
Y26309D02*
X2841D01*
Y26872*
X2278*
Y26309*
X2841*
Y26872*
X2278*
Y26309*
Y27195D02*
X2841D01*
Y27758*
X2278*
Y27195*
X2841*
Y27758*
X2278*
Y27195*
Y28081D02*
X2841D01*
Y28644*
X2278*
Y28081*
X2841*
Y28644*
X2278*
Y28081*
Y28967D02*
X2841D01*
Y29530*
X2278*
Y28967*
X2841*
Y29530*
X2278*
Y28967*
Y29852D02*
X2841D01*
Y30415*
X2278*
Y29852*
X2841*
Y30415*
X2278*
Y29852*
Y30738D02*
X2841D01*
Y31301*
X2278*
Y30738*
X2841*
Y31301*
X2278*
Y30738*
Y31624D02*
X2841D01*
Y32187*
X2278*
Y31624*
X2841*
Y32187*
X2278*
Y31624*
Y32510D02*
X2841D01*
Y33073*
X2278*
Y32510*
X2841*
Y33073*
X2278*
Y32510*
Y33396D02*
X2841D01*
Y33959*
X2278*
Y33396*
X2841*
Y33959*
X2278*
Y33396*
Y34281D02*
X2841D01*
Y34844*
X2278*
Y34281*
X2841*
Y34844*
X2278*
Y34281*
Y35167D02*
X2841D01*
Y35730*
X2278*
Y35167*
X2841*
Y35730*
X2278*
Y35167*
Y36053D02*
X2841D01*
Y36616*
X2278*
Y36053*
X2841*
Y36616*
X2278*
Y36053*
Y36939D02*
X2841D01*
Y37502*
X2278*
Y36939*
X2841*
Y37502*
X2278*
Y36939*
Y37825D02*
X2841D01*
Y38388*
X2278*
Y37825*
X2841*
Y38388*
X2278*
Y37825*
Y38711D02*
X2841D01*
Y39274*
X2278*
Y38711*
X2841*
Y39274*
X2278*
Y38711*
Y39596D02*
X2841D01*
Y40159*
X2278*
Y39596*
X2841*
Y40159*
X2278*
Y39596*
Y40482D02*
X2841D01*
Y41045*
X2278*
Y40482*
X2841*
Y41045*
X2278*
Y40482*
Y41368D02*
X2841D01*
Y41931*
X2278*
Y41368*
X2841*
Y41931*
X2278*
Y41368*
Y42254D02*
X2841D01*
Y42817*
X2278*
Y42254*
X2841*
Y42817*
X2278*
Y42254*
Y43140D02*
X2841D01*
Y43703*
X2278*
Y43140*
X2841*
Y43703*
X2278*
Y43140*
Y44026D02*
X2841D01*
Y44589*
X2278*
Y44026*
X2841*
Y44589*
X2278*
Y44026*
Y44911D02*
X2841D01*
Y45474*
X2278*
Y44911*
X2841*
Y45474*
X2278*
Y44911*
Y45797D02*
X2841D01*
Y46360*
X2278*
Y45797*
X2841*
Y46360*
X2278*
Y45797*
Y46683D02*
X2841D01*
Y47246*
X2278*
Y46683*
X2841*
Y47246*
X2278*
Y46683*
Y47569D02*
X2841D01*
Y48132*
X2278*
Y47569*
X2841*
Y48132*
X2278*
Y47569*
Y48455D02*
X2841D01*
Y49018*
X2278*
Y48455*
X2841*
Y49018*
X2278*
Y48455*
Y49341D02*
X2841D01*
Y49904*
X2278*
Y49341*
X2841*
Y49904*
X2278*
Y49341*
Y50226D02*
X2841D01*
Y50789*
X2278*
Y50226*
X2841*
Y50789*
X2278*
Y50226*
Y51112D02*
X2841D01*
Y51675*
X2278*
Y51112*
X2841*
Y51675*
X2278*
Y51112*
Y51998D02*
X2841D01*
Y52561*
X2278*
Y51998*
X2841*
Y52561*
X2278*
Y51998*
Y52884D02*
X2841D01*
Y53447*
X2278*
Y52884*
X2841*
Y53447*
X2278*
Y52884*
Y53770D02*
X2841D01*
Y54333*
X2278*
Y53770*
X2841*
Y54333*
X2278*
Y53770*
Y54656D02*
X2841D01*
Y55219*
X2278*
Y54656*
X2841*
Y55219*
X2278*
Y54656*
Y55541D02*
X2841D01*
Y56104*
X2278*
Y55541*
X2841*
Y56104*
X2278*
Y55541*
Y56427D02*
X2841D01*
Y56990*
X2278*
Y56427*
X2841*
Y56990*
X2278*
Y56427*
Y57313D02*
X2841D01*
Y57876*
X2278*
Y57313*
X2841*
Y57876*
X2278*
Y57313*
Y58199D02*
X2841D01*
Y58762*
X2278*
Y58199*
X2841*
Y58762*
X2278*
Y58199*
Y59085D02*
X2841D01*
Y59648*
X2278*
Y59085*
X2841*
Y59648*
X2278*
Y59085*
Y59970D02*
X2841D01*
Y60533*
X2278*
Y59970*
X2841*
Y60533*
X2278*
Y59970*
Y60856D02*
X2841D01*
Y61419*
X2278*
Y60856*
X2841*
Y61419*
X2278*
Y60856*
X3878Y11303D02*
X7146D01*
Y14571*
X3878*
Y11303*
X7146*
Y14571*
X3878*
Y11303*
X3986Y64268D02*
X7254D01*
Y67535*
X3986*
Y64268*
X7254*
Y67535*
X3986*
Y64268*
X4049Y19222D02*
X4612D01*
Y19785*
X4049*
Y19222*
X4612*
Y19785*
X4049*
Y19222*
Y20108D02*
X4612D01*
Y20671*
X4049*
Y20108*
X4612*
Y20671*
X4049*
Y20108*
Y20994D02*
X4612D01*
Y21557*
X4049*
Y20994*
X4612*
Y21557*
X4049*
Y20994*
Y21880D02*
X4612D01*
Y22443*
X4049*
Y21880*
X4612*
Y22443*
X4049*
Y21880*
Y22766D02*
X4612D01*
Y23329*
X4049*
Y22766*
X4612*
Y23329*
X4049*
Y22766*
Y23652D02*
X4612D01*
Y24215*
X4049*
Y23652*
X4612*
Y24215*
X4049*
Y23652*
Y24537D02*
X4612D01*
Y25100*
X4049*
Y24537*
X4612*
Y25100*
X4049*
Y24537*
Y25423D02*
X4612D01*
Y25986*
X4049*
Y25423*
X4612*
Y25986*
X4049*
Y25423*
Y26309D02*
X4612D01*
Y26872*
X4049*
Y26309*
X4612*
Y26872*
X4049*
Y26309*
Y27195D02*
X4612D01*
Y27758*
X4049*
Y27195*
X4612*
Y27758*
X4049*
Y27195*
Y28081D02*
X4612D01*
Y28644*
X4049*
Y28081*
X4612*
Y28644*
X4049*
Y28081*
Y28967D02*
X4612D01*
Y29530*
X4049*
Y28967*
X4612*
Y29530*
X4049*
Y28967*
Y29852D02*
X4612D01*
Y30415*
X4049*
Y29852*
X4612*
Y30415*
X4049*
Y29852*
Y30738D02*
X4612D01*
Y31301*
X4049*
Y30738*
X4612*
Y31301*
X4049*
Y30738*
Y31624D02*
X4612D01*
Y32187*
X4049*
Y31624*
X4612*
Y32187*
X4049*
Y31624*
Y32510D02*
X4612D01*
Y33073*
X4049*
Y32510*
X4612*
Y33073*
X4049*
Y32510*
Y33396D02*
X4612D01*
Y33959*
X4049*
Y33396*
X4612*
Y33959*
X4049*
Y33396*
Y34281D02*
X4612D01*
Y34844*
X4049*
Y34281*
X4612*
Y34844*
X4049*
Y34281*
Y35167D02*
X4612D01*
Y35730*
X4049*
Y35167*
X4612*
Y35730*
X4049*
Y35167*
Y36053D02*
X4612D01*
Y36616*
X4049*
Y36053*
X4612*
Y36616*
X4049*
Y36053*
Y36939D02*
X4612D01*
Y37502*
X4049*
Y36939*
X4612*
Y37502*
X4049*
Y36939*
Y37825D02*
X4612D01*
Y38388*
X4049*
Y37825*
X4612*
Y38388*
X4049*
Y37825*
Y38711D02*
X4612D01*
Y39274*
X4049*
Y38711*
X4612*
Y39274*
X4049*
Y38711*
Y39596D02*
X4612D01*
Y40159*
X4049*
Y39596*
X4612*
Y40159*
X4049*
Y39596*
Y40482D02*
X4612D01*
Y41045*
X4049*
Y40482*
X4612*
Y41045*
X4049*
Y40482*
Y41368D02*
X4612D01*
Y41931*
X4049*
Y41368*
X4612*
Y41931*
X4049*
Y41368*
Y42254D02*
X4612D01*
Y42817*
X4049*
Y42254*
X4612*
Y42817*
X4049*
Y42254*
Y43140D02*
X4612D01*
Y43703*
X4049*
Y43140*
X4612*
Y43703*
X4049*
Y43140*
Y44026D02*
X4612D01*
Y44589*
X4049*
Y44026*
X4612*
Y44589*
X4049*
Y44026*
Y44911D02*
X4612D01*
Y45474*
X4049*
Y44911*
X4612*
Y45474*
X4049*
Y44911*
Y45797D02*
X4612D01*
Y46360*
X4049*
Y45797*
X4612*
Y46360*
X4049*
Y45797*
Y46683D02*
X4612D01*
Y47246*
X4049*
Y46683*
X4612*
Y47246*
X4049*
Y46683*
Y47569D02*
X4612D01*
Y48132*
X4049*
Y47569*
X4612*
Y48132*
X4049*
Y47569*
Y48455D02*
X4612D01*
Y49018*
X4049*
Y48455*
X4612*
Y49018*
X4049*
Y48455*
Y49341D02*
X4612D01*
Y49904*
X4049*
Y49341*
X4612*
Y49904*
X4049*
Y49341*
Y50226D02*
X4612D01*
Y50789*
X4049*
Y50226*
X4612*
Y50789*
X4049*
Y50226*
Y51112D02*
X4612D01*
Y51675*
X4049*
Y51112*
X4612*
Y51675*
X4049*
Y51112*
Y51998D02*
X4612D01*
Y52561*
X4049*
Y51998*
X4612*
Y52561*
X4049*
Y51998*
Y52884D02*
X4612D01*
Y53447*
X4049*
Y52884*
X4612*
Y53447*
X4049*
Y52884*
Y53770D02*
X4612D01*
Y54333*
X4049*
Y53770*
X4612*
Y54333*
X4049*
Y53770*
Y54656D02*
X4612D01*
Y55219*
X4049*
Y54656*
X4612*
Y55219*
X4049*
Y54656*
Y55541D02*
X4612D01*
Y56104*
X4049*
Y55541*
X4612*
Y56104*
X4049*
Y55541*
Y56427D02*
X4612D01*
Y56990*
X4049*
Y56427*
X4612*
Y56990*
X4049*
Y56427*
Y57313D02*
X4612D01*
Y57876*
X4049*
Y57313*
X4612*
Y57876*
X4049*
Y57313*
Y58199D02*
X4612D01*
Y58762*
X4049*
Y58199*
X4612*
Y58762*
X4049*
Y58199*
Y59085D02*
X4612D01*
Y59648*
X4049*
Y59085*
X4612*
Y59648*
X4049*
Y59085*
Y59970D02*
X4612D01*
Y60533*
X4049*
Y59970*
X4612*
Y60533*
X4049*
Y59970*
Y60856D02*
X4612D01*
Y61419*
X4049*
Y60856*
X4612*
Y61419*
X4049*
Y60856*
X5821Y19222D02*
X6384D01*
Y19785*
X5821*
Y19222*
X6384*
Y19785*
X5821*
Y19222*
Y20108D02*
X6384D01*
Y20671*
X5821*
Y20108*
X6384*
Y20671*
X5821*
Y20108*
Y20994D02*
X6384D01*
Y21557*
X5821*
Y20994*
X6384*
Y21557*
X5821*
Y20994*
Y21880D02*
X6384D01*
Y22443*
X5821*
Y21880*
X6384*
Y22443*
X5821*
Y21880*
Y22766D02*
X6384D01*
Y23329*
X5821*
Y22766*
X6384*
Y23329*
X5821*
Y22766*
Y23652D02*
X6384D01*
Y24215*
X5821*
Y23652*
X6384*
Y24215*
X5821*
Y23652*
Y24537D02*
X6384D01*
Y25100*
X5821*
Y24537*
X6384*
Y25100*
X5821*
Y24537*
Y25423D02*
X6384D01*
Y25986*
X5821*
Y25423*
X6384*
Y25986*
X5821*
Y25423*
Y26309D02*
X6384D01*
Y26872*
X5821*
Y26309*
X6384*
Y26872*
X5821*
Y26309*
Y27195D02*
X6384D01*
Y27758*
X5821*
Y27195*
X6384*
Y27758*
X5821*
Y27195*
Y28081D02*
X6384D01*
Y28644*
X5821*
Y28081*
X6384*
Y28644*
X5821*
Y28081*
Y28967D02*
X6384D01*
Y29530*
X5821*
Y28967*
X6384*
Y29530*
X5821*
Y28967*
Y29852D02*
X6384D01*
Y30415*
X5821*
Y29852*
X6384*
Y30415*
X5821*
Y29852*
Y30738D02*
X6384D01*
Y31301*
X5821*
Y30738*
X6384*
Y31301*
X5821*
Y30738*
Y31624D02*
X6384D01*
Y32187*
X5821*
Y31624*
X6384*
Y32187*
X5821*
Y31624*
Y32510D02*
X6384D01*
Y33073*
X5821*
Y32510*
X6384*
Y33073*
X5821*
Y32510*
Y33396D02*
X6384D01*
Y33959*
X5821*
Y33396*
X6384*
Y33959*
X5821*
Y33396*
Y34281D02*
X6384D01*
Y34844*
X5821*
Y34281*
X6384*
Y34844*
X5821*
Y34281*
Y35167D02*
X6384D01*
Y35730*
X5821*
Y35167*
X6384*
Y35730*
X5821*
Y35167*
Y36053D02*
X6384D01*
Y36616*
X5821*
Y36053*
X6384*
Y36616*
X5821*
Y36053*
Y36939D02*
X6384D01*
Y37502*
X5821*
Y36939*
X6384*
Y37502*
X5821*
Y36939*
Y37825D02*
X6384D01*
Y38388*
X5821*
Y37825*
X6384*
Y38388*
X5821*
Y37825*
Y38711D02*
X6384D01*
Y39274*
X5821*
Y38711*
X6384*
Y39274*
X5821*
Y38711*
Y39596D02*
X6384D01*
Y40159*
X5821*
Y39596*
X6384*
Y40159*
X5821*
Y39596*
Y40482D02*
X6384D01*
Y41045*
X5821*
Y40482*
X6384*
Y41045*
X5821*
Y40482*
Y41368D02*
X6384D01*
Y41931*
X5821*
Y41368*
X6384*
Y41931*
X5821*
Y41368*
Y42254D02*
X6384D01*
Y42817*
X5821*
Y42254*
X6384*
Y42817*
X5821*
Y42254*
Y43140D02*
X6384D01*
Y43703*
X5821*
Y43140*
X6384*
Y43703*
X5821*
Y43140*
Y44026D02*
X6384D01*
Y44589*
X5821*
Y44026*
X6384*
Y44589*
X5821*
Y44026*
Y44911D02*
X6384D01*
Y45474*
X5821*
Y44911*
X6384*
Y45474*
X5821*
Y44911*
Y45797D02*
X6384D01*
Y46360*
X5821*
Y45797*
X6384*
Y46360*
X5821*
Y45797*
Y46683D02*
X6384D01*
Y47246*
X5821*
Y46683*
X6384*
Y47246*
X5821*
Y46683*
Y47569D02*
X6384D01*
Y48132*
X5821*
Y47569*
X6384*
Y48132*
X5821*
Y47569*
Y48455D02*
X6384D01*
Y49018*
X5821*
Y48455*
X6384*
Y49018*
X5821*
Y48455*
Y49341D02*
X6384D01*
Y49904*
X5821*
Y49341*
X6384*
Y49904*
X5821*
Y49341*
Y50226D02*
X6384D01*
Y50789*
X5821*
Y50226*
X6384*
Y50789*
X5821*
Y50226*
Y51112D02*
X6384D01*
Y51675*
X5821*
Y51112*
X6384*
Y51675*
X5821*
Y51112*
Y51998D02*
X6384D01*
Y52561*
X5821*
Y51998*
X6384*
Y52561*
X5821*
Y51998*
Y52884D02*
X6384D01*
Y53447*
X5821*
Y52884*
X6384*
Y53447*
X5821*
Y52884*
Y53770D02*
X6384D01*
Y54333*
X5821*
Y53770*
X6384*
Y54333*
X5821*
Y53770*
Y54656D02*
X6384D01*
Y55219*
X5821*
Y54656*
X6384*
Y55219*
X5821*
Y54656*
Y55541D02*
X6384D01*
Y56104*
X5821*
Y55541*
X6384*
Y56104*
X5821*
Y55541*
Y56427D02*
X6384D01*
Y56990*
X5821*
Y56427*
X6384*
Y56990*
X5821*
Y56427*
Y57313D02*
X6384D01*
Y57876*
X5821*
Y57313*
X6384*
Y57876*
X5821*
Y57313*
Y58199D02*
X6384D01*
Y58762*
X5821*
Y58199*
X6384*
Y58762*
X5821*
Y58199*
Y59085D02*
X6384D01*
Y59648*
X5821*
Y59085*
X6384*
Y59648*
X5821*
Y59085*
Y59970D02*
X6384D01*
Y60533*
X5821*
Y59970*
X6384*
Y60533*
X5821*
Y59970*
Y60856D02*
X6384D01*
Y61419*
X5821*
Y60856*
X6384*
Y61419*
X5821*
Y60856*
X7593Y19222D02*
X8156D01*
Y19785*
X7593*
Y19222*
X8156*
Y19785*
X7593*
Y19222*
Y20108D02*
X8156D01*
Y20671*
X7593*
Y20108*
X8156*
Y20671*
X7593*
Y20108*
Y20994D02*
X8156D01*
Y21557*
X7593*
Y20994*
X8156*
Y21557*
X7593*
Y20994*
Y21880D02*
X8156D01*
Y22443*
X7593*
Y21880*
X8156*
Y22443*
X7593*
Y21880*
Y22766D02*
X8156D01*
Y23329*
X7593*
Y22766*
X8156*
Y23329*
X7593*
Y22766*
Y23652D02*
X8156D01*
Y24215*
X7593*
Y23652*
X8156*
Y24215*
X7593*
Y23652*
Y24537D02*
X8156D01*
Y25100*
X7593*
Y24537*
X8156*
Y25100*
X7593*
Y24537*
Y25423D02*
X8156D01*
Y25986*
X7593*
Y25423*
X8156*
Y25986*
X7593*
Y25423*
Y26309D02*
X8156D01*
Y26872*
X7593*
Y26309*
X8156*
Y26872*
X7593*
Y26309*
Y27195D02*
X8156D01*
Y27758*
X7593*
Y27195*
X8156*
Y27758*
X7593*
Y27195*
Y28081D02*
X8156D01*
Y28644*
X7593*
Y28081*
X8156*
Y28644*
X7593*
Y28081*
Y28967D02*
X8156D01*
Y29530*
X7593*
Y28967*
X8156*
Y29530*
X7593*
Y28967*
Y29852D02*
X8156D01*
Y30415*
X7593*
Y29852*
X8156*
Y30415*
X7593*
Y29852*
Y30738D02*
X8156D01*
Y31301*
X7593*
Y30738*
X8156*
Y31301*
X7593*
Y30738*
Y31624D02*
X8156D01*
Y32187*
X7593*
Y31624*
X8156*
Y32187*
X7593*
Y31624*
Y32510D02*
X8156D01*
Y33073*
X7593*
Y32510*
X8156*
Y33073*
X7593*
Y32510*
Y33396D02*
X8156D01*
Y33959*
X7593*
Y33396*
X8156*
Y33959*
X7593*
Y33396*
Y34281D02*
X8156D01*
Y34844*
X7593*
Y34281*
X8156*
Y34844*
X7593*
Y34281*
Y35167D02*
X8156D01*
Y35730*
X7593*
Y35167*
X8156*
Y35730*
X7593*
Y35167*
Y36053D02*
X8156D01*
Y36616*
X7593*
Y36053*
X8156*
Y36616*
X7593*
Y36053*
Y36939D02*
X8156D01*
Y37502*
X7593*
Y36939*
X8156*
Y37502*
X7593*
Y36939*
Y37825D02*
X8156D01*
Y38388*
X7593*
Y37825*
X8156*
Y38388*
X7593*
Y37825*
Y38711D02*
X8156D01*
Y39274*
X7593*
Y38711*
X8156*
Y39274*
X7593*
Y38711*
Y39596D02*
X8156D01*
Y40159*
X7593*
Y39596*
X8156*
Y40159*
X7593*
Y39596*
Y40482D02*
X8156D01*
Y41045*
X7593*
Y40482*
X8156*
Y41045*
X7593*
Y40482*
Y41368D02*
X8156D01*
Y41931*
X7593*
Y41368*
X8156*
Y41931*
X7593*
Y41368*
Y42254D02*
X8156D01*
Y42817*
X7593*
Y42254*
X8156*
Y42817*
X7593*
Y42254*
Y43140D02*
X8156D01*
Y43703*
X7593*
Y43140*
X8156*
Y43703*
X7593*
Y43140*
Y44026D02*
X8156D01*
Y44589*
X7593*
Y44026*
X8156*
Y44589*
X7593*
Y44026*
Y44911D02*
X8156D01*
Y45474*
X7593*
Y44911*
X8156*
Y45474*
X7593*
Y44911*
Y45797D02*
X8156D01*
Y46360*
X7593*
Y45797*
X8156*
Y46360*
X7593*
Y45797*
Y46683D02*
X8156D01*
Y47246*
X7593*
Y46683*
X8156*
Y47246*
X7593*
Y46683*
Y47569D02*
X8156D01*
Y48132*
X7593*
Y47569*
X8156*
Y48132*
X7593*
Y47569*
Y48455D02*
X8156D01*
Y49018*
X7593*
Y48455*
X8156*
Y49018*
X7593*
Y48455*
Y49341D02*
X8156D01*
Y49904*
X7593*
Y49341*
X8156*
Y49904*
X7593*
Y49341*
Y50226D02*
X8156D01*
Y50789*
X7593*
Y50226*
X8156*
Y50789*
X7593*
Y50226*
Y51112D02*
X8156D01*
Y51675*
X7593*
Y51112*
X8156*
Y51675*
X7593*
Y51112*
Y51998D02*
X8156D01*
Y52561*
X7593*
Y51998*
X8156*
Y52561*
X7593*
Y51998*
Y52884D02*
X8156D01*
Y53447*
X7593*
Y52884*
X8156*
Y53447*
X7593*
Y52884*
Y53770D02*
X8156D01*
Y54333*
X7593*
Y53770*
X8156*
Y54333*
X7593*
Y53770*
Y54656D02*
X8156D01*
Y55219*
X7593*
Y54656*
X8156*
Y55219*
X7593*
Y54656*
Y55541D02*
X8156D01*
Y56104*
X7593*
Y55541*
X8156*
Y56104*
X7593*
Y55541*
Y56427D02*
X8156D01*
Y56990*
X7593*
Y56427*
X8156*
Y56990*
X7593*
Y56427*
Y57313D02*
X8156D01*
Y57876*
X7593*
Y57313*
X8156*
Y57876*
X7593*
Y57313*
Y58199D02*
X8156D01*
Y58762*
X7593*
Y58199*
X8156*
Y58762*
X7593*
Y58199*
Y59085D02*
X8156D01*
Y59648*
X7593*
Y59085*
X8156*
Y59648*
X7593*
Y59085*
Y59970D02*
X8156D01*
Y60533*
X7593*
Y59970*
X8156*
Y60533*
X7593*
Y59970*
Y60856D02*
X8156D01*
Y61419*
X7593*
Y60856*
X8156*
Y61419*
X7593*
Y60856*
X9364Y19222D02*
X9927D01*
Y19785*
X9364*
Y19222*
X9927*
Y19785*
X9364*
Y19222*
Y20108D02*
X9927D01*
Y20671*
X9364*
Y20108*
X9927*
Y20671*
X9364*
Y20108*
Y20994D02*
X9927D01*
Y21557*
X9364*
Y20994*
X9927*
Y21557*
X9364*
Y20994*
Y21880D02*
X9927D01*
Y22443*
X9364*
Y21880*
X9927*
Y22443*
X9364*
Y21880*
Y22766D02*
X9927D01*
Y23329*
X9364*
Y22766*
X9927*
Y23329*
X9364*
Y22766*
Y23652D02*
X9927D01*
Y24215*
X9364*
Y23652*
X9927*
Y24215*
X9364*
Y23652*
Y24537D02*
X9927D01*
Y25100*
X9364*
Y24537*
X9927*
Y25100*
X9364*
Y24537*
Y25423D02*
X9927D01*
Y25986*
X9364*
Y25423*
X9927*
Y25986*
X9364*
Y25423*
Y26309D02*
X9927D01*
Y26872*
X9364*
Y26309*
X9927*
Y26872*
X9364*
Y26309*
Y27195D02*
X9927D01*
Y27758*
X9364*
Y27195*
X9927*
Y27758*
X9364*
Y27195*
Y28081D02*
X9927D01*
Y28644*
X9364*
Y28081*
X9927*
Y28644*
X9364*
Y28081*
Y28967D02*
X9927D01*
Y29530*
X9364*
Y28967*
X9927*
Y29530*
X9364*
Y28967*
Y29852D02*
X9927D01*
Y30415*
X9364*
Y29852*
X9927*
Y30415*
X9364*
Y29852*
Y30738D02*
X9927D01*
Y31301*
X9364*
Y30738*
X9927*
Y31301*
X9364*
Y30738*
Y31624D02*
X9927D01*
Y32187*
X9364*
Y31624*
X9927*
Y32187*
X9364*
Y31624*
Y32510D02*
X9927D01*
Y33073*
X9364*
Y32510*
X9927*
Y33073*
X9364*
Y32510*
Y33396D02*
X9927D01*
Y33959*
X9364*
Y33396*
X9927*
Y33959*
X9364*
Y33396*
Y34281D02*
X9927D01*
Y34844*
X9364*
Y34281*
X9927*
Y34844*
X9364*
Y34281*
Y35167D02*
X9927D01*
Y35730*
X9364*
Y35167*
X9927*
Y35730*
X9364*
Y35167*
Y36053D02*
X9927D01*
Y36616*
X9364*
Y36053*
X9927*
Y36616*
X9364*
Y36053*
Y36939D02*
X9927D01*
Y37502*
X9364*
Y36939*
X9927*
Y37502*
X9364*
Y36939*
Y37825D02*
X9927D01*
Y38388*
X9364*
Y37825*
X9927*
Y38388*
X9364*
Y37825*
Y38711D02*
X9927D01*
Y39274*
X9364*
Y38711*
X9927*
Y39274*
X9364*
Y38711*
Y39596D02*
X9927D01*
Y40159*
X9364*
Y39596*
X9927*
Y40159*
X9364*
Y39596*
Y40482D02*
X9927D01*
Y41045*
X9364*
Y40482*
X9927*
Y41045*
X9364*
Y40482*
Y41368D02*
X9927D01*
Y41931*
X9364*
Y41368*
X9927*
Y41931*
X9364*
Y41368*
Y42254D02*
X9927D01*
Y42817*
X9364*
Y42254*
X9927*
Y42817*
X9364*
Y42254*
Y43140D02*
X9927D01*
Y43703*
X9364*
Y43140*
X9927*
Y43703*
X9364*
Y43140*
Y44026D02*
X9927D01*
Y44589*
X9364*
Y44026*
X9927*
Y44589*
X9364*
Y44026*
Y44911D02*
X9927D01*
Y45474*
X9364*
Y44911*
X9927*
Y45474*
X9364*
Y44911*
Y45797D02*
X9927D01*
Y46360*
X9364*
Y45797*
X9927*
Y46360*
X9364*
Y45797*
Y46683D02*
X9927D01*
Y47246*
X9364*
Y46683*
X9927*
Y47246*
X9364*
Y46683*
Y47569D02*
X9927D01*
Y48132*
X9364*
Y47569*
X9927*
Y48132*
X9364*
Y47569*
Y48455D02*
X9927D01*
Y49018*
X9364*
Y48455*
X9927*
Y49018*
X9364*
Y48455*
Y49341D02*
X9927D01*
Y49904*
X9364*
Y49341*
X9927*
Y49904*
X9364*
Y49341*
Y50226D02*
X9927D01*
Y50789*
X9364*
Y50226*
X9927*
Y50789*
X9364*
Y50226*
Y51112D02*
X9927D01*
Y51675*
X9364*
Y51112*
X9927*
Y51675*
X9364*
Y51112*
Y51998D02*
X9927D01*
Y52561*
X9364*
Y51998*
X9927*
Y52561*
X9364*
Y51998*
Y52884D02*
X9927D01*
Y53447*
X9364*
Y52884*
X9927*
Y53447*
X9364*
Y52884*
Y53770D02*
X9927D01*
Y54333*
X9364*
Y53770*
X9927*
Y54333*
X9364*
Y53770*
Y54656D02*
X9927D01*
Y55219*
X9364*
Y54656*
X9927*
Y55219*
X9364*
Y54656*
Y55541D02*
X9927D01*
Y56104*
X9364*
Y55541*
X9927*
Y56104*
X9364*
Y55541*
Y56427D02*
X9927D01*
Y56990*
X9364*
Y56427*
X9927*
Y56990*
X9364*
Y56427*
Y57313D02*
X9927D01*
Y57876*
X9364*
Y57313*
X9927*
Y57876*
X9364*
Y57313*
Y58199D02*
X9927D01*
Y58762*
X9364*
Y58199*
X9927*
Y58762*
X9364*
Y58199*
Y59085D02*
X9927D01*
Y59648*
X9364*
Y59085*
X9927*
Y59648*
X9364*
Y59085*
Y59970D02*
X9927D01*
Y60533*
X9364*
Y59970*
X9927*
Y60533*
X9364*
Y59970*
Y60856D02*
X9927D01*
Y61419*
X9364*
Y60856*
X9927*
Y61419*
X9364*
Y60856*
X11136Y19222D02*
X11699D01*
Y19785*
X11136*
Y19222*
X11699*
Y19785*
X11136*
Y19222*
Y20108D02*
X11699D01*
Y20671*
X11136*
Y20108*
X11699*
Y20671*
X11136*
Y20108*
Y20994D02*
X11699D01*
Y21557*
X11136*
Y20994*
X11699*
Y21557*
X11136*
Y20994*
Y21880D02*
X11699D01*
Y22443*
X11136*
Y21880*
X11699*
Y22443*
X11136*
Y21880*
Y22766D02*
X11699D01*
Y23329*
X11136*
Y22766*
X11699*
Y23329*
X11136*
Y22766*
Y23652D02*
X11699D01*
Y24215*
X11136*
Y23652*
X11699*
Y24215*
X11136*
Y23652*
Y24537D02*
X11699D01*
Y25100*
X11136*
Y24537*
X11699*
Y25100*
X11136*
Y24537*
Y25423D02*
X11699D01*
Y25986*
X11136*
Y25423*
X11699*
Y25986*
X11136*
Y25423*
Y26309D02*
X11699D01*
Y26872*
X11136*
Y26309*
X11699*
Y26872*
X11136*
Y26309*
Y27195D02*
X11699D01*
Y27758*
X11136*
Y27195*
X11699*
Y27758*
X11136*
Y27195*
Y28081D02*
X11699D01*
Y28644*
X11136*
Y28081*
X11699*
Y28644*
X11136*
Y28081*
Y28967D02*
X11699D01*
Y29530*
X11136*
Y28967*
X11699*
Y29530*
X11136*
Y28967*
Y29852D02*
X11699D01*
Y30415*
X11136*
Y29852*
X11699*
Y30415*
X11136*
Y29852*
Y30738D02*
X11699D01*
Y31301*
X11136*
Y30738*
X11699*
Y31301*
X11136*
Y30738*
Y31624D02*
X11699D01*
Y32187*
X11136*
Y31624*
X11699*
Y32187*
X11136*
Y31624*
Y32510D02*
X11699D01*
Y33073*
X11136*
Y32510*
X11699*
Y33073*
X11136*
Y32510*
Y33396D02*
X11699D01*
Y33959*
X11136*
Y33396*
X11699*
Y33959*
X11136*
Y33396*
Y34281D02*
X11699D01*
Y34844*
X11136*
Y34281*
X11699*
Y34844*
X11136*
Y34281*
Y35167D02*
X11699D01*
Y35730*
X11136*
Y35167*
X11699*
Y35730*
X11136*
Y35167*
Y36053D02*
X11699D01*
Y36616*
X11136*
Y36053*
X11699*
Y36616*
X11136*
Y36053*
Y36939D02*
X11699D01*
Y37502*
X11136*
Y36939*
X11699*
Y37502*
X11136*
Y36939*
Y37825D02*
X11699D01*
Y38388*
X11136*
Y37825*
X11699*
Y38388*
X11136*
Y37825*
Y38711D02*
X11699D01*
Y39274*
X11136*
Y38711*
X11699*
Y39274*
X11136*
Y38711*
Y39596D02*
X11699D01*
Y40159*
X11136*
Y39596*
X11699*
Y40159*
X11136*
Y39596*
Y40482D02*
X11699D01*
Y41045*
X11136*
Y40482*
X11699*
Y41045*
X11136*
Y40482*
Y41368D02*
X11699D01*
Y41931*
X11136*
Y41368*
X11699*
Y41931*
X11136*
Y41368*
Y42254D02*
X11699D01*
Y42817*
X11136*
Y42254*
X11699*
Y42817*
X11136*
Y42254*
Y43140D02*
X11699D01*
Y43703*
X11136*
Y43140*
X11699*
Y43703*
X11136*
Y43140*
Y44026D02*
X11699D01*
Y44589*
X11136*
Y44026*
X11699*
Y44589*
X11136*
Y44026*
Y44911D02*
X11699D01*
Y45474*
X11136*
Y44911*
X11699*
Y45474*
X11136*
Y44911*
Y45797D02*
X11699D01*
Y46360*
X11136*
Y45797*
X11699*
Y46360*
X11136*
Y45797*
Y46683D02*
X11699D01*
Y47246*
X11136*
Y46683*
X11699*
Y47246*
X11136*
Y46683*
Y47569D02*
X11699D01*
Y48132*
X11136*
Y47569*
X11699*
Y48132*
X11136*
Y47569*
Y48455D02*
X11699D01*
Y49018*
X11136*
Y48455*
X11699*
Y49018*
X11136*
Y48455*
Y49341D02*
X11699D01*
Y49904*
X11136*
Y49341*
X11699*
Y49904*
X11136*
Y49341*
Y50226D02*
X11699D01*
Y50789*
X11136*
Y50226*
X11699*
Y50789*
X11136*
Y50226*
Y51112D02*
X11699D01*
Y51675*
X11136*
Y51112*
X11699*
Y51675*
X11136*
Y51112*
Y51998D02*
X11699D01*
Y52561*
X11136*
Y51998*
X11699*
Y52561*
X11136*
Y51998*
Y52884D02*
X11699D01*
Y53447*
X11136*
Y52884*
X11699*
Y53447*
X11136*
Y52884*
Y53770D02*
X11699D01*
Y54333*
X11136*
Y53770*
X11699*
Y54333*
X11136*
Y53770*
Y54656D02*
X11699D01*
Y55219*
X11136*
Y54656*
X11699*
Y55219*
X11136*
Y54656*
Y55541D02*
X11699D01*
Y56104*
X11136*
Y55541*
X11699*
Y56104*
X11136*
Y55541*
Y56427D02*
X11699D01*
Y56990*
X11136*
Y56427*
X11699*
Y56990*
X11136*
Y56427*
Y57313D02*
X11699D01*
Y57876*
X11136*
Y57313*
X11699*
Y57876*
X11136*
Y57313*
Y58199D02*
X11699D01*
Y58762*
X11136*
Y58199*
X11699*
Y58762*
X11136*
Y58199*
Y59085D02*
X11699D01*
Y59648*
X11136*
Y59085*
X11699*
Y59648*
X11136*
Y59085*
Y59970D02*
X11699D01*
Y60533*
X11136*
Y59970*
X11699*
Y60533*
X11136*
Y59970*
Y60856D02*
X11699D01*
Y61419*
X11136*
Y60856*
X11699*
Y61419*
X11136*
Y60856*
X11506Y64268D02*
X14774D01*
Y67535*
X11506*
Y64268*
X14774*
Y67535*
X11506*
Y64268*
X12907Y19222D02*
X13470D01*
Y19785*
X12907*
Y19222*
X13470*
Y19785*
X12907*
Y19222*
Y20108D02*
X13470D01*
Y20671*
X12907*
Y20108*
X13470*
Y20671*
X12907*
Y20108*
Y20994D02*
X13470D01*
Y21557*
X12907*
Y20994*
X13470*
Y21557*
X12907*
Y20994*
Y21880D02*
X13470D01*
Y22443*
X12907*
Y21880*
X13470*
Y22443*
X12907*
Y21880*
Y22766D02*
X13470D01*
Y23329*
X12907*
Y22766*
X13470*
Y23329*
X12907*
Y22766*
Y23652D02*
X13470D01*
Y24215*
X12907*
Y23652*
X13470*
Y24215*
X12907*
Y23652*
Y24537D02*
X13470D01*
Y25100*
X12907*
Y24537*
X13470*
Y25100*
X12907*
Y24537*
Y25423D02*
X13470D01*
Y25986*
X12907*
Y25423*
X13470*
Y25986*
X12907*
Y25423*
Y26309D02*
X13470D01*
Y26872*
X12907*
Y26309*
X13470*
Y26872*
X12907*
Y26309*
Y27195D02*
X13470D01*
Y27758*
X12907*
Y27195*
X13470*
Y27758*
X12907*
Y27195*
Y28081D02*
X13470D01*
Y28644*
X12907*
Y28081*
X13470*
Y28644*
X12907*
Y28081*
Y28967D02*
X13470D01*
Y29530*
X12907*
Y28967*
X13470*
Y29530*
X12907*
Y28967*
Y29852D02*
X13470D01*
Y30415*
X12907*
Y29852*
X13470*
Y30415*
X12907*
Y29852*
Y30738D02*
X13470D01*
Y31301*
X12907*
Y30738*
X13470*
Y31301*
X12907*
Y30738*
Y31624D02*
X13470D01*
Y32187*
X12907*
Y31624*
X13470*
Y32187*
X12907*
Y31624*
Y32510D02*
X13470D01*
Y33073*
X12907*
Y32510*
X13470*
Y33073*
X12907*
Y32510*
Y33396D02*
X13470D01*
Y33959*
X12907*
Y33396*
X13470*
Y33959*
X12907*
Y33396*
Y34281D02*
X13470D01*
Y34844*
X12907*
Y34281*
X13470*
Y34844*
X12907*
Y34281*
Y35167D02*
X13470D01*
Y35730*
X12907*
Y35167*
X13470*
Y35730*
X12907*
Y35167*
Y36053D02*
X13470D01*
Y36616*
X12907*
Y36053*
X13470*
Y36616*
X12907*
Y36053*
Y36939D02*
X13470D01*
Y37502*
X12907*
Y36939*
X13470*
Y37502*
X12907*
Y36939*
Y37825D02*
X13470D01*
Y38388*
X12907*
Y37825*
X13470*
Y38388*
X12907*
Y37825*
Y38711D02*
X13470D01*
Y39274*
X12907*
Y38711*
X13470*
Y39274*
X12907*
Y38711*
Y39596D02*
X13470D01*
Y40159*
X12907*
Y39596*
X13470*
Y40159*
X12907*
Y39596*
Y40482D02*
X13470D01*
Y41045*
X12907*
Y40482*
X13470*
Y41045*
X12907*
Y40482*
Y41368D02*
X13470D01*
Y41931*
X12907*
Y41368*
X13470*
Y41931*
X12907*
Y41368*
Y42254D02*
X13470D01*
Y42817*
X12907*
Y42254*
X13470*
Y42817*
X12907*
Y42254*
Y43140D02*
X13470D01*
Y43703*
X12907*
Y43140*
X13470*
Y43703*
X12907*
Y43140*
Y44026D02*
X13470D01*
Y44589*
X12907*
Y44026*
X13470*
Y44589*
X12907*
Y44026*
Y44911D02*
X13470D01*
Y45474*
X12907*
Y44911*
X13470*
Y45474*
X12907*
Y44911*
Y45797D02*
X13470D01*
Y46360*
X12907*
Y45797*
X13470*
Y46360*
X12907*
Y45797*
Y46683D02*
X13470D01*
Y47246*
X12907*
Y46683*
X13470*
Y47246*
X12907*
Y46683*
Y47569D02*
X13470D01*
Y48132*
X12907*
Y47569*
X13470*
Y48132*
X12907*
Y47569*
Y48455D02*
X13470D01*
Y49018*
X12907*
Y48455*
X13470*
Y49018*
X12907*
Y48455*
Y49341D02*
X13470D01*
Y49904*
X12907*
Y49341*
X13470*
Y49904*
X12907*
Y49341*
Y50226D02*
X13470D01*
Y50789*
X12907*
Y50226*
X13470*
Y50789*
X12907*
Y50226*
Y51112D02*
X13470D01*
Y51675*
X12907*
Y51112*
X13470*
Y51675*
X12907*
Y51112*
Y51998D02*
X13470D01*
Y52561*
X12907*
Y51998*
X13470*
Y52561*
X12907*
Y51998*
Y52884D02*
X13470D01*
Y53447*
X12907*
Y52884*
X13470*
Y53447*
X12907*
Y52884*
Y53770D02*
X13470D01*
Y54333*
X12907*
Y53770*
X13470*
Y54333*
X12907*
Y53770*
Y54656D02*
X13470D01*
Y55219*
X12907*
Y54656*
X13470*
Y55219*
X12907*
Y54656*
Y55541D02*
X13470D01*
Y56104*
X12907*
Y55541*
X13470*
Y56104*
X12907*
Y55541*
Y56427D02*
X13470D01*
Y56990*
X12907*
Y56427*
X13470*
Y56990*
X12907*
Y56427*
Y57313D02*
X13470D01*
Y57876*
X12907*
Y57313*
X13470*
Y57876*
X12907*
Y57313*
Y58199D02*
X13470D01*
Y58762*
X12907*
Y58199*
X13470*
Y58762*
X12907*
Y58199*
Y59085D02*
X13470D01*
Y59648*
X12907*
Y59085*
X13470*
Y59648*
X12907*
Y59085*
Y59970D02*
X13470D01*
Y60533*
X12907*
Y59970*
X13470*
Y60533*
X12907*
Y59970*
Y60856D02*
X13470D01*
Y61419*
X12907*
Y60856*
X13470*
Y61419*
X12907*
Y60856*
X14679Y19222D02*
X15242D01*
Y19785*
X14679*
Y19222*
X15242*
Y19785*
X14679*
Y19222*
Y20108D02*
X15242D01*
Y20671*
X14679*
Y20108*
X15242*
Y20671*
X14679*
Y20108*
Y20994D02*
X15242D01*
Y21557*
X14679*
Y20994*
X15242*
Y21557*
X14679*
Y20994*
Y21880D02*
X15242D01*
Y22443*
X14679*
Y21880*
X15242*
Y22443*
X14679*
Y21880*
Y22766D02*
X15242D01*
Y23329*
X14679*
Y22766*
X15242*
Y23329*
X14679*
Y22766*
Y23652D02*
X15242D01*
Y24215*
X14679*
Y23652*
X15242*
Y24215*
X14679*
Y23652*
Y24537D02*
X15242D01*
Y25100*
X14679*
Y24537*
X15242*
Y25100*
X14679*
Y24537*
Y25423D02*
X15242D01*
Y25986*
X14679*
Y25423*
X15242*
Y25986*
X14679*
Y25423*
Y26309D02*
X15242D01*
Y26872*
X14679*
Y26309*
X15242*
Y26872*
X14679*
Y26309*
Y27195D02*
X15242D01*
Y27758*
X14679*
Y27195*
X15242*
Y27758*
X14679*
Y27195*
Y28081D02*
X15242D01*
Y28644*
X14679*
Y28081*
X15242*
Y28644*
X14679*
Y28081*
Y28967D02*
X15242D01*
Y29530*
X14679*
Y28967*
X15242*
Y29530*
X14679*
Y28967*
Y29852D02*
X15242D01*
Y30415*
X14679*
Y29852*
X15242*
Y30415*
X14679*
Y29852*
Y30738D02*
X15242D01*
Y31301*
X14679*
Y30738*
X15242*
Y31301*
X14679*
Y30738*
Y31624D02*
X15242D01*
Y32187*
X14679*
Y31624*
X15242*
Y32187*
X14679*
Y31624*
Y32510D02*
X15242D01*
Y33073*
X14679*
Y32510*
X15242*
Y33073*
X14679*
Y32510*
Y33396D02*
X15242D01*
Y33959*
X14679*
Y33396*
X15242*
Y33959*
X14679*
Y33396*
Y34281D02*
X15242D01*
Y34844*
X14679*
Y34281*
X15242*
Y34844*
X14679*
Y34281*
Y35167D02*
X15242D01*
Y35730*
X14679*
Y35167*
X15242*
Y35730*
X14679*
Y35167*
Y36053D02*
X15242D01*
Y36616*
X14679*
Y36053*
X15242*
Y36616*
X14679*
Y36053*
Y36939D02*
X15242D01*
Y37502*
X14679*
Y36939*
X15242*
Y37502*
X14679*
Y36939*
Y37825D02*
X15242D01*
Y38388*
X14679*
Y37825*
X15242*
Y38388*
X14679*
Y37825*
Y38711D02*
X15242D01*
Y39274*
X14679*
Y38711*
X15242*
Y39274*
X14679*
Y38711*
Y39596D02*
X15242D01*
Y40159*
X14679*
Y39596*
X15242*
Y40159*
X14679*
Y39596*
Y40482D02*
X15242D01*
Y41045*
X14679*
Y40482*
X15242*
Y41045*
X14679*
Y40482*
Y41368D02*
X15242D01*
Y41931*
X14679*
Y41368*
X15242*
Y41931*
X14679*
Y41368*
Y42254D02*
X15242D01*
Y42817*
X14679*
Y42254*
X15242*
Y42817*
X14679*
Y42254*
Y43140D02*
X15242D01*
Y43703*
X14679*
Y43140*
X15242*
Y43703*
X14679*
Y43140*
Y44026D02*
X15242D01*
Y44589*
X14679*
Y44026*
X15242*
Y44589*
X14679*
Y44026*
Y44911D02*
X15242D01*
Y45474*
X14679*
Y44911*
X15242*
Y45474*
X14679*
Y44911*
Y45797D02*
X15242D01*
Y46360*
X14679*
Y45797*
X15242*
Y46360*
X14679*
Y45797*
Y46683D02*
X15242D01*
Y47246*
X14679*
Y46683*
X15242*
Y47246*
X14679*
Y46683*
Y47569D02*
X15242D01*
Y48132*
X14679*
Y47569*
X15242*
Y48132*
X14679*
Y47569*
Y48455D02*
X15242D01*
Y49018*
X14679*
Y48455*
X15242*
Y49018*
X14679*
Y48455*
Y49341D02*
X15242D01*
Y49904*
X14679*
Y49341*
X15242*
Y49904*
X14679*
Y49341*
Y50226D02*
X15242D01*
Y50789*
X14679*
Y50226*
X15242*
Y50789*
X14679*
Y50226*
Y51112D02*
X15242D01*
Y51675*
X14679*
Y51112*
X15242*
Y51675*
X14679*
Y51112*
Y51998D02*
X15242D01*
Y52561*
X14679*
Y51998*
X15242*
Y52561*
X14679*
Y51998*
Y52884D02*
X15242D01*
Y53447*
X14679*
Y52884*
X15242*
Y53447*
X14679*
Y52884*
Y53770D02*
X15242D01*
Y54333*
X14679*
Y53770*
X15242*
Y54333*
X14679*
Y53770*
Y54656D02*
X15242D01*
Y55219*
X14679*
Y54656*
X15242*
Y55219*
X14679*
Y54656*
Y55541D02*
X15242D01*
Y56104*
X14679*
Y55541*
X15242*
Y56104*
X14679*
Y55541*
Y56427D02*
X15242D01*
Y56990*
X14679*
Y56427*
X15242*
Y56990*
X14679*
Y56427*
Y57313D02*
X15242D01*
Y57876*
X14679*
Y57313*
X15242*
Y57876*
X14679*
Y57313*
Y58199D02*
X15242D01*
Y58762*
X14679*
Y58199*
X15242*
Y58762*
X14679*
Y58199*
Y59085D02*
X15242D01*
Y59648*
X14679*
Y59085*
X15242*
Y59648*
X14679*
Y59085*
Y59970D02*
X15242D01*
Y60533*
X14679*
Y59970*
X15242*
Y60533*
X14679*
Y59970*
Y60856D02*
X15242D01*
Y61419*
X14679*
Y60856*
X15242*
Y61419*
X14679*
Y60856*
X16451Y19222D02*
X17014D01*
Y19785*
X16451*
Y19222*
X17014*
Y19785*
X16451*
Y19222*
Y20108D02*
X17014D01*
Y20671*
X16451*
Y20108*
X17014*
Y20671*
X16451*
Y20108*
Y20994D02*
X17014D01*
Y21557*
X16451*
Y20994*
X17014*
Y21557*
X16451*
Y20994*
Y21880D02*
X17014D01*
Y22443*
X16451*
Y21880*
X17014*
Y22443*
X16451*
Y21880*
Y22766D02*
X17014D01*
Y23329*
X16451*
Y22766*
X17014*
Y23329*
X16451*
Y22766*
Y23652D02*
X17014D01*
Y24215*
X16451*
Y23652*
X17014*
Y24215*
X16451*
Y23652*
Y24537D02*
X17014D01*
Y25100*
X16451*
Y24537*
X17014*
Y25100*
X16451*
Y24537*
Y25423D02*
X17014D01*
Y25986*
X16451*
Y25423*
X17014*
Y25986*
X16451*
Y25423*
Y26309D02*
X17014D01*
Y26872*
X16451*
Y26309*
X17014*
Y26872*
X16451*
Y26309*
Y27195D02*
X17014D01*
Y27758*
X16451*
Y27195*
X17014*
Y27758*
X16451*
Y27195*
Y28081D02*
X17014D01*
Y28644*
X16451*
Y28081*
X17014*
Y28644*
X16451*
Y28081*
Y28967D02*
X17014D01*
Y29530*
X16451*
Y28967*
X17014*
Y29530*
X16451*
Y28967*
Y29852D02*
X17014D01*
Y30415*
X16451*
Y29852*
X17014*
Y30415*
X16451*
Y29852*
Y30738D02*
X17014D01*
Y31301*
X16451*
Y30738*
X17014*
Y31301*
X16451*
Y30738*
Y31624D02*
X17014D01*
Y32187*
X16451*
Y31624*
X17014*
Y32187*
X16451*
Y31624*
Y32510D02*
X17014D01*
Y33073*
X16451*
Y32510*
X17014*
Y33073*
X16451*
Y32510*
Y33396D02*
X17014D01*
Y33959*
X16451*
Y33396*
X17014*
Y33959*
X16451*
Y33396*
Y34281D02*
X17014D01*
Y34844*
X16451*
Y34281*
X17014*
Y34844*
X16451*
Y34281*
Y35167D02*
X17014D01*
Y35730*
X16451*
Y35167*
X17014*
Y35730*
X16451*
Y35167*
Y36053D02*
X17014D01*
Y36616*
X16451*
Y36053*
X17014*
Y36616*
X16451*
Y36053*
Y36939D02*
X17014D01*
Y37502*
X16451*
Y36939*
X17014*
Y37502*
X16451*
Y36939*
Y37825D02*
X17014D01*
Y38388*
X16451*
Y37825*
X17014*
Y38388*
X16451*
Y37825*
Y38711D02*
X17014D01*
Y39274*
X16451*
Y38711*
X17014*
Y39274*
X16451*
Y38711*
Y39596D02*
X17014D01*
Y40159*
X16451*
Y39596*
X17014*
Y40159*
X16451*
Y39596*
Y40482D02*
X17014D01*
Y41045*
X16451*
Y40482*
X17014*
Y41045*
X16451*
Y40482*
Y41368D02*
X17014D01*
Y41931*
X16451*
Y41368*
X17014*
Y41931*
X16451*
Y41368*
Y42254D02*
X17014D01*
Y42817*
X16451*
Y42254*
X17014*
Y42817*
X16451*
Y42254*
Y43140D02*
X17014D01*
Y43703*
X16451*
Y43140*
X17014*
Y43703*
X16451*
Y43140*
Y44026D02*
X17014D01*
Y44589*
X16451*
Y44026*
X17014*
Y44589*
X16451*
Y44026*
Y44911D02*
X17014D01*
Y45474*
X16451*
Y44911*
X17014*
Y45474*
X16451*
Y44911*
Y45797D02*
X17014D01*
Y46360*
X16451*
Y45797*
X17014*
Y46360*
X16451*
Y45797*
Y46683D02*
X17014D01*
Y47246*
X16451*
Y46683*
X17014*
Y47246*
X16451*
Y46683*
Y47569D02*
X17014D01*
Y48132*
X16451*
Y47569*
X17014*
Y48132*
X16451*
Y47569*
Y48455D02*
X17014D01*
Y49018*
X16451*
Y48455*
X17014*
Y49018*
X16451*
Y48455*
Y49341D02*
X17014D01*
Y49904*
X16451*
Y49341*
X17014*
Y49904*
X16451*
Y49341*
Y50226D02*
X17014D01*
Y50789*
X16451*
Y50226*
X17014*
Y50789*
X16451*
Y50226*
Y51112D02*
X17014D01*
Y51675*
X16451*
Y51112*
X17014*
Y51675*
X16451*
Y51112*
Y51998D02*
X17014D01*
Y52561*
X16451*
Y51998*
X17014*
Y52561*
X16451*
Y51998*
Y52884D02*
X17014D01*
Y53447*
X16451*
Y52884*
X17014*
Y53447*
X16451*
Y52884*
Y53770D02*
X17014D01*
Y54333*
X16451*
Y53770*
X17014*
Y54333*
X16451*
Y53770*
Y54656D02*
X17014D01*
Y55219*
X16451*
Y54656*
X17014*
Y55219*
X16451*
Y54656*
Y55541D02*
X17014D01*
Y56104*
X16451*
Y55541*
X17014*
Y56104*
X16451*
Y55541*
Y56427D02*
X17014D01*
Y56990*
X16451*
Y56427*
X17014*
Y56990*
X16451*
Y56427*
Y57313D02*
X17014D01*
Y57876*
X16451*
Y57313*
X17014*
Y57876*
X16451*
Y57313*
Y58199D02*
X17014D01*
Y58762*
X16451*
Y58199*
X17014*
Y58762*
X16451*
Y58199*
Y59085D02*
X17014D01*
Y59648*
X16451*
Y59085*
X17014*
Y59648*
X16451*
Y59085*
Y59970D02*
X17014D01*
Y60533*
X16451*
Y59970*
X17014*
Y60533*
X16451*
Y59970*
Y60856D02*
X17014D01*
Y61419*
X16451*
Y60856*
X17014*
Y61419*
X16451*
Y60856*
X17795Y11224D02*
X21063D01*
Y14492*
X17795*
Y11224*
X21063*
Y14492*
X17795*
Y11224*
X18159Y64268D02*
X21427D01*
Y67535*
X18159*
Y64268*
X21427*
Y67535*
X18159*
Y64268*
X18222Y19222D02*
X18785D01*
Y19785*
X18222*
Y19222*
X18785*
Y19785*
X18222*
Y19222*
Y20108D02*
X18785D01*
Y20671*
X18222*
Y20108*
X18785*
Y20671*
X18222*
Y20108*
Y20994D02*
X18785D01*
Y21557*
X18222*
Y20994*
X18785*
Y21557*
X18222*
Y20994*
Y21880D02*
X18785D01*
Y22443*
X18222*
Y21880*
X18785*
Y22443*
X18222*
Y21880*
Y22766D02*
X18785D01*
Y23329*
X18222*
Y22766*
X18785*
Y23329*
X18222*
Y22766*
Y23652D02*
X18785D01*
Y24215*
X18222*
Y23652*
X18785*
Y24215*
X18222*
Y23652*
Y24537D02*
X18785D01*
Y25100*
X18222*
Y24537*
X18785*
Y25100*
X18222*
Y24537*
Y25423D02*
X18785D01*
Y25986*
X18222*
Y25423*
X18785*
Y25986*
X18222*
Y25423*
Y26309D02*
X18785D01*
Y26872*
X18222*
Y26309*
X18785*
Y26872*
X18222*
Y26309*
Y27195D02*
X18785D01*
Y27758*
X18222*
Y27195*
X18785*
Y27758*
X18222*
Y27195*
Y28081D02*
X18785D01*
Y28644*
X18222*
Y28081*
X18785*
Y28644*
X18222*
Y28081*
Y28967D02*
X18785D01*
Y29530*
X18222*
Y28967*
X18785*
Y29530*
X18222*
Y28967*
Y29852D02*
X18785D01*
Y30415*
X18222*
Y29852*
X18785*
Y30415*
X18222*
Y29852*
Y30738D02*
X18785D01*
Y31301*
X18222*
Y30738*
X18785*
Y31301*
X18222*
Y30738*
Y31624D02*
X18785D01*
Y32187*
X18222*
Y31624*
X18785*
Y32187*
X18222*
Y31624*
Y32510D02*
X18785D01*
Y33073*
X18222*
Y32510*
X18785*
Y33073*
X18222*
Y32510*
Y33396D02*
X18785D01*
Y33959*
X18222*
Y33396*
X18785*
Y33959*
X18222*
Y33396*
Y34281D02*
X18785D01*
Y34844*
X18222*
Y34281*
X18785*
Y34844*
X18222*
Y34281*
Y35167D02*
X18785D01*
Y35730*
X18222*
Y35167*
X18785*
Y35730*
X18222*
Y35167*
Y36053D02*
X18785D01*
Y36616*
X18222*
Y36053*
X18785*
Y36616*
X18222*
Y36053*
Y36939D02*
X18785D01*
Y37502*
X18222*
Y36939*
X18785*
Y37502*
X18222*
Y36939*
Y37825D02*
X18785D01*
Y38388*
X18222*
Y37825*
X18785*
Y38388*
X18222*
Y37825*
Y38711D02*
X18785D01*
Y39274*
X18222*
Y38711*
X18785*
Y39274*
X18222*
Y38711*
Y39596D02*
X18785D01*
Y40159*
X18222*
Y39596*
X18785*
Y40159*
X18222*
Y39596*
Y40482D02*
X18785D01*
Y41045*
X18222*
Y40482*
X18785*
Y41045*
X18222*
Y40482*
Y41368D02*
X18785D01*
Y41931*
X18222*
Y41368*
X18785*
Y41931*
X18222*
Y41368*
Y42254D02*
X18785D01*
Y42817*
X18222*
Y42254*
X18785*
Y42817*
X18222*
Y42254*
Y43140D02*
X18785D01*
Y43703*
X18222*
Y43140*
X18785*
Y43703*
X18222*
Y43140*
Y44026D02*
X18785D01*
Y44589*
X18222*
Y44026*
X18785*
Y44589*
X18222*
Y44026*
Y44911D02*
X18785D01*
Y45474*
X18222*
Y44911*
X18785*
Y45474*
X18222*
Y44911*
Y45797D02*
X18785D01*
Y46360*
X18222*
Y45797*
X18785*
Y46360*
X18222*
Y45797*
Y46683D02*
X18785D01*
Y47246*
X18222*
Y46683*
X18785*
Y47246*
X18222*
Y46683*
Y47569D02*
X18785D01*
Y48132*
X18222*
Y47569*
X18785*
Y48132*
X18222*
Y47569*
Y48455D02*
X18785D01*
Y49018*
X18222*
Y48455*
X18785*
Y49018*
X18222*
Y48455*
Y49341D02*
X18785D01*
Y49904*
X18222*
Y49341*
X18785*
Y49904*
X18222*
Y49341*
Y50226D02*
X18785D01*
Y50789*
X18222*
Y50226*
X18785*
Y50789*
X18222*
Y50226*
Y51112D02*
X18785D01*
Y51675*
X18222*
Y51112*
X18785*
Y51675*
X18222*
Y51112*
Y51998D02*
X18785D01*
Y52561*
X18222*
Y51998*
X18785*
Y52561*
X18222*
Y51998*
Y52884D02*
X18785D01*
Y53447*
X18222*
Y52884*
X18785*
Y53447*
X18222*
Y52884*
Y53770D02*
X18785D01*
Y54333*
X18222*
Y53770*
X18785*
Y54333*
X18222*
Y53770*
Y54656D02*
X18785D01*
Y55219*
X18222*
Y54656*
X18785*
Y55219*
X18222*
Y54656*
Y55541D02*
X18785D01*
Y56104*
X18222*
Y55541*
X18785*
Y56104*
X18222*
Y55541*
Y56427D02*
X18785D01*
Y56990*
X18222*
Y56427*
X18785*
Y56990*
X18222*
Y56427*
Y57313D02*
X18785D01*
Y57876*
X18222*
Y57313*
X18785*
Y57876*
X18222*
Y57313*
Y58199D02*
X18785D01*
Y58762*
X18222*
Y58199*
X18785*
Y58762*
X18222*
Y58199*
Y59085D02*
X18785D01*
Y59648*
X18222*
Y59085*
X18785*
Y59648*
X18222*
Y59085*
Y59970D02*
X18785D01*
Y60533*
X18222*
Y59970*
X18785*
Y60533*
X18222*
Y59970*
Y60856D02*
X18785D01*
Y61419*
X18222*
Y60856*
X18785*
Y61419*
X18222*
Y60856*
X19994Y19222D02*
X20557D01*
Y19785*
X19994*
Y19222*
X20557*
Y19785*
X19994*
Y19222*
Y20108D02*
X20557D01*
Y20671*
X19994*
Y20108*
X20557*
Y20671*
X19994*
Y20108*
Y20994D02*
X20557D01*
Y21557*
X19994*
Y20994*
X20557*
Y21557*
X19994*
Y20994*
Y21880D02*
X20557D01*
Y22443*
X19994*
Y21880*
X20557*
Y22443*
X19994*
Y21880*
Y22766D02*
X20557D01*
Y23329*
X19994*
Y22766*
X20557*
Y23329*
X19994*
Y22766*
Y23652D02*
X20557D01*
Y24215*
X19994*
Y23652*
X20557*
Y24215*
X19994*
Y23652*
Y24537D02*
X20557D01*
Y25100*
X19994*
Y24537*
X20557*
Y25100*
X19994*
Y24537*
Y25423D02*
X20557D01*
Y25986*
X19994*
Y25423*
X20557*
Y25986*
X19994*
Y25423*
Y26309D02*
X20557D01*
Y26872*
X19994*
Y26309*
X20557*
Y26872*
X19994*
Y26309*
Y27195D02*
X20557D01*
Y27758*
X19994*
Y27195*
X20557*
Y27758*
X19994*
Y27195*
Y28081D02*
X20557D01*
Y28644*
X19994*
Y28081*
X20557*
Y28644*
X19994*
Y28081*
Y28967D02*
X20557D01*
Y29530*
X19994*
Y28967*
X20557*
Y29530*
X19994*
Y28967*
Y29852D02*
X20557D01*
Y30415*
X19994*
Y29852*
X20557*
Y30415*
X19994*
Y29852*
Y30738D02*
X20557D01*
Y31301*
X19994*
Y30738*
X20557*
Y31301*
X19994*
Y30738*
Y31624D02*
X20557D01*
Y32187*
X19994*
Y31624*
X20557*
Y32187*
X19994*
Y31624*
Y32510D02*
X20557D01*
Y33073*
X19994*
Y32510*
X20557*
Y33073*
X19994*
Y32510*
Y33396D02*
X20557D01*
Y33959*
X19994*
Y33396*
X20557*
Y33959*
X19994*
Y33396*
Y34281D02*
X20557D01*
Y34844*
X19994*
Y34281*
X20557*
Y34844*
X19994*
Y34281*
Y35167D02*
X20557D01*
Y35730*
X19994*
Y35167*
X20557*
Y35730*
X19994*
Y35167*
Y36053D02*
X20557D01*
Y36616*
X19994*
Y36053*
X20557*
Y36616*
X19994*
Y36053*
Y36939D02*
X20557D01*
Y37502*
X19994*
Y36939*
X20557*
Y37502*
X19994*
Y36939*
Y37825D02*
X20557D01*
Y38388*
X19994*
Y37825*
X20557*
Y38388*
X19994*
Y37825*
Y38711D02*
X20557D01*
Y39274*
X19994*
Y38711*
X20557*
Y39274*
X19994*
Y38711*
Y39596D02*
X20557D01*
Y40159*
X19994*
Y39596*
X20557*
Y40159*
X19994*
Y39596*
Y40482D02*
X20557D01*
Y41045*
X19994*
Y40482*
X20557*
Y41045*
X19994*
Y40482*
Y41368D02*
X20557D01*
Y41931*
X19994*
Y41368*
X20557*
Y41931*
X19994*
Y41368*
Y42254D02*
X20557D01*
Y42817*
X19994*
Y42254*
X20557*
Y42817*
X19994*
Y42254*
Y43140D02*
X20557D01*
Y43703*
X19994*
Y43140*
X20557*
Y43703*
X19994*
Y43140*
Y44026D02*
X20557D01*
Y44589*
X19994*
Y44026*
X20557*
Y44589*
X19994*
Y44026*
Y44911D02*
X20557D01*
Y45474*
X19994*
Y44911*
X20557*
Y45474*
X19994*
Y44911*
Y45797D02*
X20557D01*
Y46360*
X19994*
Y45797*
X20557*
Y46360*
X19994*
Y45797*
Y46683D02*
X20557D01*
Y47246*
X19994*
Y46683*
X20557*
Y47246*
X19994*
Y46683*
Y47569D02*
X20557D01*
Y48132*
X19994*
Y47569*
X20557*
Y48132*
X19994*
Y47569*
Y48455D02*
X20557D01*
Y49018*
X19994*
Y48455*
X20557*
Y49018*
X19994*
Y48455*
Y49341D02*
X20557D01*
Y49904*
X19994*
Y49341*
X20557*
Y49904*
X19994*
Y49341*
Y50226D02*
X20557D01*
Y50789*
X19994*
Y50226*
X20557*
Y50789*
X19994*
Y50226*
Y51112D02*
X20557D01*
Y51675*
X19994*
Y51112*
X20557*
Y51675*
X19994*
Y51112*
Y51998D02*
X20557D01*
Y52561*
X19994*
Y51998*
X20557*
Y52561*
X19994*
Y51998*
Y52884D02*
X20557D01*
Y53447*
X19994*
Y52884*
X20557*
Y53447*
X19994*
Y52884*
Y53770D02*
X20557D01*
Y54333*
X19994*
Y53770*
X20557*
Y54333*
X19994*
Y53770*
Y54656D02*
X20557D01*
Y55219*
X19994*
Y54656*
X20557*
Y55219*
X19994*
Y54656*
Y55541D02*
X20557D01*
Y56104*
X19994*
Y55541*
X20557*
Y56104*
X19994*
Y55541*
Y56427D02*
X20557D01*
Y56990*
X19994*
Y56427*
X20557*
Y56990*
X19994*
Y56427*
Y57313D02*
X20557D01*
Y57876*
X19994*
Y57313*
X20557*
Y57876*
X19994*
Y57313*
Y58199D02*
X20557D01*
Y58762*
X19994*
Y58199*
X20557*
Y58762*
X19994*
Y58199*
Y59085D02*
X20557D01*
Y59648*
X19994*
Y59085*
X20557*
Y59648*
X19994*
Y59085*
Y59970D02*
X20557D01*
Y60533*
X19994*
Y59970*
X20557*
Y60533*
X19994*
Y59970*
Y60856D02*
X20557D01*
Y61419*
X19994*
Y60856*
X20557*
Y61419*
X19994*
Y60856*
X21766Y19222D02*
X22329D01*
Y19785*
X21766*
Y19222*
X22329*
Y19785*
X21766*
Y19222*
Y20108D02*
X22329D01*
Y20671*
X21766*
Y20108*
X22329*
Y20671*
X21766*
Y20108*
Y20994D02*
X22329D01*
Y21557*
X21766*
Y20994*
X22329*
Y21557*
X21766*
Y20994*
Y21880D02*
X22329D01*
Y22443*
X21766*
Y21880*
X22329*
Y22443*
X21766*
Y21880*
Y22766D02*
X22329D01*
Y23329*
X21766*
Y22766*
X22329*
Y23329*
X21766*
Y22766*
Y23652D02*
X22329D01*
Y24215*
X21766*
Y23652*
X22329*
Y24215*
X21766*
Y23652*
Y24537D02*
X22329D01*
Y25100*
X21766*
Y24537*
X22329*
Y25100*
X21766*
Y24537*
Y25423D02*
X22329D01*
Y25986*
X21766*
Y25423*
X22329*
Y25986*
X21766*
Y25423*
Y26309D02*
X22329D01*
Y26872*
X21766*
Y26309*
X22329*
Y26872*
X21766*
Y26309*
Y27195D02*
X22329D01*
Y27758*
X21766*
Y27195*
X22329*
Y27758*
X21766*
Y27195*
Y28081D02*
X22329D01*
Y28644*
X21766*
Y28081*
X22329*
Y28644*
X21766*
Y28081*
Y28967D02*
X22329D01*
Y29530*
X21766*
Y28967*
X22329*
Y29530*
X21766*
Y28967*
Y29852D02*
X22329D01*
Y30415*
X21766*
Y29852*
X22329*
Y30415*
X21766*
Y29852*
Y30738D02*
X22329D01*
Y31301*
X21766*
Y30738*
X22329*
Y31301*
X21766*
Y30738*
Y31624D02*
X22329D01*
Y32187*
X21766*
Y31624*
X22329*
Y32187*
X21766*
Y31624*
Y32510D02*
X22329D01*
Y33073*
X21766*
Y32510*
X22329*
Y33073*
X21766*
Y32510*
Y33396D02*
X22329D01*
Y33959*
X21766*
Y33396*
X22329*
Y33959*
X21766*
Y33396*
Y34281D02*
X22329D01*
Y34844*
X21766*
Y34281*
X22329*
Y34844*
X21766*
Y34281*
Y35167D02*
X22329D01*
Y35730*
X21766*
Y35167*
X22329*
Y35730*
X21766*
Y35167*
Y36053D02*
X22329D01*
Y36616*
X21766*
Y36053*
X22329*
Y36616*
X21766*
Y36053*
Y36939D02*
X22329D01*
Y37502*
X21766*
Y36939*
X22329*
Y37502*
X21766*
Y36939*
Y37825D02*
X22329D01*
Y38388*
X21766*
Y37825*
X22329*
Y38388*
X21766*
Y37825*
Y38711D02*
X22329D01*
Y39274*
X21766*
Y38711*
X22329*
Y39274*
X21766*
Y38711*
Y39596D02*
X22329D01*
Y40159*
X21766*
Y39596*
X22329*
Y40159*
X21766*
Y39596*
Y40482D02*
X22329D01*
Y41045*
X21766*
Y40482*
X22329*
Y41045*
X21766*
Y40482*
Y41368D02*
X22329D01*
Y41931*
X21766*
Y41368*
X22329*
Y41931*
X21766*
Y41368*
Y42254D02*
X22329D01*
Y42817*
X21766*
Y42254*
X22329*
Y42817*
X21766*
Y42254*
Y43140D02*
X22329D01*
Y43703*
X21766*
Y43140*
X22329*
Y43703*
X21766*
Y43140*
Y44026D02*
X22329D01*
Y44589*
X21766*
Y44026*
X22329*
Y44589*
X21766*
Y44026*
Y44911D02*
X22329D01*
Y45474*
X21766*
Y44911*
X22329*
Y45474*
X21766*
Y44911*
Y45797D02*
X22329D01*
Y46360*
X21766*
Y45797*
X22329*
Y46360*
X21766*
Y45797*
Y46683D02*
X22329D01*
Y47246*
X21766*
Y46683*
X22329*
Y47246*
X21766*
Y46683*
Y47569D02*
X22329D01*
Y48132*
X21766*
Y47569*
X22329*
Y48132*
X21766*
Y47569*
Y48455D02*
X22329D01*
Y49018*
X21766*
Y48455*
X22329*
Y49018*
X21766*
Y48455*
Y49341D02*
X22329D01*
Y49904*
X21766*
Y49341*
X22329*
Y49904*
X21766*
Y49341*
Y50226D02*
X22329D01*
Y50789*
X21766*
Y50226*
X22329*
Y50789*
X21766*
Y50226*
Y51112D02*
X22329D01*
Y51675*
X21766*
Y51112*
X22329*
Y51675*
X21766*
Y51112*
Y51998D02*
X22329D01*
Y52561*
X21766*
Y51998*
X22329*
Y52561*
X21766*
Y51998*
Y52884D02*
X22329D01*
Y53447*
X21766*
Y52884*
X22329*
Y53447*
X21766*
Y52884*
Y53770D02*
X22329D01*
Y54333*
X21766*
Y53770*
X22329*
Y54333*
X21766*
Y53770*
Y54656D02*
X22329D01*
Y55219*
X21766*
Y54656*
X22329*
Y55219*
X21766*
Y54656*
Y55541D02*
X22329D01*
Y56104*
X21766*
Y55541*
X22329*
Y56104*
X21766*
Y55541*
Y56427D02*
X22329D01*
Y56990*
X21766*
Y56427*
X22329*
Y56990*
X21766*
Y56427*
Y57313D02*
X22329D01*
Y57876*
X21766*
Y57313*
X22329*
Y57876*
X21766*
Y57313*
Y58199D02*
X22329D01*
Y58762*
X21766*
Y58199*
X22329*
Y58762*
X21766*
Y58199*
Y59085D02*
X22329D01*
Y59648*
X21766*
Y59085*
X22329*
Y59648*
X21766*
Y59085*
Y59970D02*
X22329D01*
Y60533*
X21766*
Y59970*
X22329*
Y60533*
X21766*
Y59970*
Y60856D02*
X22329D01*
Y61419*
X21766*
Y60856*
X22329*
Y61419*
X21766*
Y60856*
X23537Y19222D02*
X24100D01*
Y19785*
X23537*
Y19222*
X24100*
Y19785*
X23537*
Y19222*
Y20108D02*
X24100D01*
Y20671*
X23537*
Y20108*
X24100*
Y20671*
X23537*
Y20108*
Y20994D02*
X24100D01*
Y21557*
X23537*
Y20994*
X24100*
Y21557*
X23537*
Y20994*
Y21880D02*
X24100D01*
Y22443*
X23537*
Y21880*
X24100*
Y22443*
X23537*
Y21880*
Y22766D02*
X24100D01*
Y23329*
X23537*
Y22766*
X24100*
Y23329*
X23537*
Y22766*
Y23652D02*
X24100D01*
Y24215*
X23537*
Y23652*
X24100*
Y24215*
X23537*
Y23652*
Y24537D02*
X24100D01*
Y25100*
X23537*
Y24537*
X24100*
Y25100*
X23537*
Y24537*
Y25423D02*
X24100D01*
Y25986*
X23537*
Y25423*
X24100*
Y25986*
X23537*
Y25423*
Y26309D02*
X24100D01*
Y26872*
X23537*
Y26309*
X24100*
Y26872*
X23537*
Y26309*
Y27195D02*
X24100D01*
Y27758*
X23537*
Y27195*
X24100*
Y27758*
X23537*
Y27195*
Y28081D02*
X24100D01*
Y28644*
X23537*
Y28081*
X24100*
Y28644*
X23537*
Y28081*
Y28967D02*
X24100D01*
Y29530*
X23537*
Y28967*
X24100*
Y29530*
X23537*
Y28967*
Y29852D02*
X24100D01*
Y30415*
X23537*
Y29852*
X24100*
Y30415*
X23537*
Y29852*
Y30738D02*
X24100D01*
Y31301*
X23537*
Y30738*
X24100*
Y31301*
X23537*
Y30738*
Y31624D02*
X24100D01*
Y32187*
X23537*
Y31624*
X24100*
Y32187*
X23537*
Y31624*
Y32510D02*
X24100D01*
Y33073*
X23537*
Y32510*
X24100*
Y33073*
X23537*
Y32510*
Y33396D02*
X24100D01*
Y33959*
X23537*
Y33396*
X24100*
Y33959*
X23537*
Y33396*
Y34281D02*
X24100D01*
Y34844*
X23537*
Y34281*
X24100*
Y34844*
X23537*
Y34281*
Y35167D02*
X24100D01*
Y35730*
X23537*
Y35167*
X24100*
Y35730*
X23537*
Y35167*
Y36053D02*
X24100D01*
Y36616*
X23537*
Y36053*
X24100*
Y36616*
X23537*
Y36053*
Y36939D02*
X24100D01*
Y37502*
X23537*
Y36939*
X24100*
Y37502*
X23537*
Y36939*
Y37825D02*
X24100D01*
Y38388*
X23537*
Y37825*
X24100*
Y38388*
X23537*
Y37825*
Y38711D02*
X24100D01*
Y39274*
X23537*
Y38711*
X24100*
Y39274*
X23537*
Y38711*
Y39596D02*
X24100D01*
Y40159*
X23537*
Y39596*
X24100*
Y40159*
X23537*
Y39596*
Y40482D02*
X24100D01*
Y41045*
X23537*
Y40482*
X24100*
Y41045*
X23537*
Y40482*
Y41368D02*
X24100D01*
Y41931*
X23537*
Y41368*
X24100*
Y41931*
X23537*
Y41368*
Y42254D02*
X24100D01*
Y42817*
X23537*
Y42254*
X24100*
Y42817*
X23537*
Y42254*
Y43140D02*
X24100D01*
Y43703*
X23537*
Y43140*
X24100*
Y43703*
X23537*
Y43140*
Y44026D02*
X24100D01*
Y44589*
X23537*
Y44026*
X24100*
Y44589*
X23537*
Y44026*
Y44911D02*
X24100D01*
Y45474*
X23537*
Y44911*
X24100*
Y45474*
X23537*
Y44911*
Y45797D02*
X24100D01*
Y46360*
X23537*
Y45797*
X24100*
Y46360*
X23537*
Y45797*
Y46683D02*
X24100D01*
Y47246*
X23537*
Y46683*
X24100*
Y47246*
X23537*
Y46683*
Y47569D02*
X24100D01*
Y48132*
X23537*
Y47569*
X24100*
Y48132*
X23537*
Y47569*
Y48455D02*
X24100D01*
Y49018*
X23537*
Y48455*
X24100*
Y49018*
X23537*
Y48455*
Y49341D02*
X24100D01*
Y49904*
X23537*
Y49341*
X24100*
Y49904*
X23537*
Y49341*
Y50226D02*
X24100D01*
Y50789*
X23537*
Y50226*
X24100*
Y50789*
X23537*
Y50226*
Y51112D02*
X24100D01*
Y51675*
X23537*
Y51112*
X24100*
Y51675*
X23537*
Y51112*
Y51998D02*
X24100D01*
Y52561*
X23537*
Y51998*
X24100*
Y52561*
X23537*
Y51998*
Y52884D02*
X24100D01*
Y53447*
X23537*
Y52884*
X24100*
Y53447*
X23537*
Y52884*
Y53770D02*
X24100D01*
Y54333*
X23537*
Y53770*
X24100*
Y54333*
X23537*
Y53770*
Y54656D02*
X24100D01*
Y55219*
X23537*
Y54656*
X24100*
Y55219*
X23537*
Y54656*
Y55541D02*
X24100D01*
Y56104*
X23537*
Y55541*
X24100*
Y56104*
X23537*
Y55541*
Y56427D02*
X24100D01*
Y56990*
X23537*
Y56427*
X24100*
Y56990*
X23537*
Y56427*
Y57313D02*
X24100D01*
Y57876*
X23537*
Y57313*
X24100*
Y57876*
X23537*
Y57313*
Y58199D02*
X24100D01*
Y58762*
X23537*
Y58199*
X24100*
Y58762*
X23537*
Y58199*
Y59085D02*
X24100D01*
Y59648*
X23537*
Y59085*
X24100*
Y59648*
X23537*
Y59085*
Y59970D02*
X24100D01*
Y60533*
X23537*
Y59970*
X24100*
Y60533*
X23537*
Y59970*
Y60856D02*
X24100D01*
Y61419*
X23537*
Y60856*
X24100*
Y61419*
X23537*
Y60856*
X25309Y19222D02*
X25872D01*
Y19785*
X25309*
Y19222*
X25872*
Y19785*
X25309*
Y19222*
Y20108D02*
X25872D01*
Y20671*
X25309*
Y20108*
X25872*
Y20671*
X25309*
Y20108*
Y20994D02*
X25872D01*
Y21557*
X25309*
Y20994*
X25872*
Y21557*
X25309*
Y20994*
Y21880D02*
X25872D01*
Y22443*
X25309*
Y21880*
X25872*
Y22443*
X25309*
Y21880*
Y22766D02*
X25872D01*
Y23329*
X25309*
Y22766*
X25872*
Y23329*
X25309*
Y22766*
Y23652D02*
X25872D01*
Y24215*
X25309*
Y23652*
X25872*
Y24215*
X25309*
Y23652*
Y24537D02*
X25872D01*
Y25100*
X25309*
Y24537*
X25872*
Y25100*
X25309*
Y24537*
Y25423D02*
X25872D01*
Y25986*
X25309*
Y25423*
X25872*
Y25986*
X25309*
Y25423*
Y26309D02*
X25872D01*
Y26872*
X25309*
Y26309*
X25872*
Y26872*
X25309*
Y26309*
Y27195D02*
X25872D01*
Y27758*
X25309*
Y27195*
X25872*
Y27758*
X25309*
Y27195*
Y28081D02*
X25872D01*
Y28644*
X25309*
Y28081*
X25872*
Y28644*
X25309*
Y28081*
Y28967D02*
X25872D01*
Y29530*
X25309*
Y28967*
X25872*
Y29530*
X25309*
Y28967*
Y29852D02*
X25872D01*
Y30415*
X25309*
Y29852*
X25872*
Y30415*
X25309*
Y29852*
Y30738D02*
X25872D01*
Y31301*
X25309*
Y30738*
X25872*
Y31301*
X25309*
Y30738*
Y31624D02*
X25872D01*
Y32187*
X25309*
Y31624*
X25872*
Y32187*
X25309*
Y31624*
Y32510D02*
X25872D01*
Y33073*
X25309*
Y32510*
X25872*
Y33073*
X25309*
Y32510*
Y33396D02*
X25872D01*
Y33959*
X25309*
Y33396*
X25872*
Y33959*
X25309*
Y33396*
Y34281D02*
X25872D01*
Y34844*
X25309*
Y34281*
X25872*
Y34844*
X25309*
Y34281*
Y35167D02*
X25872D01*
Y35730*
X25309*
Y35167*
X25872*
Y35730*
X25309*
Y35167*
Y36053D02*
X25872D01*
Y36616*
X25309*
Y36053*
X25872*
Y36616*
X25309*
Y36053*
Y36939D02*
X25872D01*
Y37502*
X25309*
Y36939*
X25872*
Y37502*
X25309*
Y36939*
Y37825D02*
X25872D01*
Y38388*
X25309*
Y37825*
X25872*
Y38388*
X25309*
Y37825*
Y38711D02*
X25872D01*
Y39274*
X25309*
Y38711*
X25872*
Y39274*
X25309*
Y38711*
Y39596D02*
X25872D01*
Y40159*
X25309*
Y39596*
X25872*
Y40159*
X25309*
Y39596*
Y40482D02*
X25872D01*
Y41045*
X25309*
Y40482*
X25872*
Y41045*
X25309*
Y40482*
Y41368D02*
X25872D01*
Y41931*
X25309*
Y41368*
X25872*
Y41931*
X25309*
Y41368*
Y42254D02*
X25872D01*
Y42817*
X25309*
Y42254*
X25872*
Y42817*
X25309*
Y42254*
Y43140D02*
X25872D01*
Y43703*
X25309*
Y43140*
X25872*
Y43703*
X25309*
Y43140*
Y44026D02*
X25872D01*
Y44589*
X25309*
Y44026*
X25872*
Y44589*
X25309*
Y44026*
Y44911D02*
X25872D01*
Y45474*
X25309*
Y44911*
X25872*
Y45474*
X25309*
Y44911*
Y45797D02*
X25872D01*
Y46360*
X25309*
Y45797*
X25872*
Y46360*
X25309*
Y45797*
Y46683D02*
X25872D01*
Y47246*
X25309*
Y46683*
X25872*
Y47246*
X25309*
Y46683*
Y47569D02*
X25872D01*
Y48132*
X25309*
Y47569*
X25872*
Y48132*
X25309*
Y47569*
Y48455D02*
X25872D01*
Y49018*
X25309*
Y48455*
X25872*
Y49018*
X25309*
Y48455*
Y49341D02*
X25872D01*
Y49904*
X25309*
Y49341*
X25872*
Y49904*
X25309*
Y49341*
Y50226D02*
X25872D01*
Y50789*
X25309*
Y50226*
X25872*
Y50789*
X25309*
Y50226*
Y51112D02*
X25872D01*
Y51675*
X25309*
Y51112*
X25872*
Y51675*
X25309*
Y51112*
Y51998D02*
X25872D01*
Y52561*
X25309*
Y51998*
X25872*
Y52561*
X25309*
Y51998*
Y52884D02*
X25872D01*
Y53447*
X25309*
Y52884*
X25872*
Y53447*
X25309*
Y52884*
Y53770D02*
X25872D01*
Y54333*
X25309*
Y53770*
X25872*
Y54333*
X25309*
Y53770*
Y54656D02*
X25872D01*
Y55219*
X25309*
Y54656*
X25872*
Y55219*
X25309*
Y54656*
Y55541D02*
X25872D01*
Y56104*
X25309*
Y55541*
X25872*
Y56104*
X25309*
Y55541*
Y56427D02*
X25872D01*
Y56990*
X25309*
Y56427*
X25872*
Y56990*
X25309*
Y56427*
Y57313D02*
X25872D01*
Y57876*
X25309*
Y57313*
X25872*
Y57876*
X25309*
Y57313*
Y58199D02*
X25872D01*
Y58762*
X25309*
Y58199*
X25872*
Y58762*
X25309*
Y58199*
Y59085D02*
X25872D01*
Y59648*
X25309*
Y59085*
X25872*
Y59648*
X25309*
Y59085*
Y59970D02*
X25872D01*
Y60533*
X25309*
Y59970*
X25872*
Y60533*
X25309*
Y59970*
Y60856D02*
X25872D01*
Y61419*
X25309*
Y60856*
X25872*
Y61419*
X25309*
Y60856*
X25679Y64268D02*
X28947D01*
Y67535*
X25679*
Y64268*
X28947*
Y67535*
X25679*
Y64268*
X27081Y19222D02*
X27644D01*
Y19785*
X27081*
Y19222*
X27644*
Y19785*
X27081*
Y19222*
Y20108D02*
X27644D01*
Y20671*
X27081*
Y20108*
X27644*
Y20671*
X27081*
Y20108*
Y20994D02*
X27644D01*
Y21557*
X27081*
Y20994*
X27644*
Y21557*
X27081*
Y20994*
Y21880D02*
X27644D01*
Y22443*
X27081*
Y21880*
X27644*
Y22443*
X27081*
Y21880*
Y22766D02*
X27644D01*
Y23329*
X27081*
Y22766*
X27644*
Y23329*
X27081*
Y22766*
Y23652D02*
X27644D01*
Y24215*
X27081*
Y23652*
X27644*
Y24215*
X27081*
Y23652*
Y24537D02*
X27644D01*
Y25100*
X27081*
Y24537*
X27644*
Y25100*
X27081*
Y24537*
Y25423D02*
X27644D01*
Y25986*
X27081*
Y25423*
X27644*
Y25986*
X27081*
Y25423*
Y26309D02*
X27644D01*
Y26872*
X27081*
Y26309*
X27644*
Y26872*
X27081*
Y26309*
Y27195D02*
X27644D01*
Y27758*
X27081*
Y27195*
X27644*
Y27758*
X27081*
Y27195*
Y28081D02*
X27644D01*
Y28644*
X27081*
Y28081*
X27644*
Y28644*
X27081*
Y28081*
Y28967D02*
X27644D01*
Y29530*
X27081*
Y28967*
X27644*
Y29530*
X27081*
Y28967*
Y29852D02*
X27644D01*
Y30415*
X27081*
Y29852*
X27644*
Y30415*
X27081*
Y29852*
Y30738D02*
X27644D01*
Y31301*
X27081*
Y30738*
X27644*
Y31301*
X27081*
Y30738*
Y31624D02*
X27644D01*
Y32187*
X27081*
Y31624*
X27644*
Y32187*
X27081*
Y31624*
Y32510D02*
X27644D01*
Y33073*
X27081*
Y32510*
X27644*
Y33073*
X27081*
Y32510*
Y33396D02*
X27644D01*
Y33959*
X27081*
Y33396*
X27644*
Y33959*
X27081*
Y33396*
Y34281D02*
X27644D01*
Y34844*
X27081*
Y34281*
X27644*
Y34844*
X27081*
Y34281*
Y35167D02*
X27644D01*
Y35730*
X27081*
Y35167*
X27644*
Y35730*
X27081*
Y35167*
Y36053D02*
X27644D01*
Y36616*
X27081*
Y36053*
X27644*
Y36616*
X27081*
Y36053*
Y36939D02*
X27644D01*
Y37502*
X27081*
Y36939*
X27644*
Y37502*
X27081*
Y36939*
Y37825D02*
X27644D01*
Y38388*
X27081*
Y37825*
X27644*
Y38388*
X27081*
Y37825*
Y38711D02*
X27644D01*
Y39274*
X27081*
Y38711*
X27644*
Y39274*
X27081*
Y38711*
Y39596D02*
X27644D01*
Y40159*
X27081*
Y39596*
X27644*
Y40159*
X27081*
Y39596*
Y40482D02*
X27644D01*
Y41045*
X27081*
Y40482*
X27644*
Y41045*
X27081*
Y40482*
Y41368D02*
X27644D01*
Y41931*
X27081*
Y41368*
X27644*
Y41931*
X27081*
Y41368*
Y42254D02*
X27644D01*
Y42817*
X27081*
Y42254*
X27644*
Y42817*
X27081*
Y42254*
Y43140D02*
X27644D01*
Y43703*
X27081*
Y43140*
X27644*
Y43703*
X27081*
Y43140*
Y44026D02*
X27644D01*
Y44589*
X27081*
Y44026*
X27644*
Y44589*
X27081*
Y44026*
Y44911D02*
X27644D01*
Y45474*
X27081*
Y44911*
X27644*
Y45474*
X27081*
Y44911*
Y45797D02*
X27644D01*
Y46360*
X27081*
Y45797*
X27644*
Y46360*
X27081*
Y45797*
Y46683D02*
X27644D01*
Y47246*
X27081*
Y46683*
X27644*
Y47246*
X27081*
Y46683*
Y47569D02*
X27644D01*
Y48132*
X27081*
Y47569*
X27644*
Y48132*
X27081*
Y47569*
Y48455D02*
X27644D01*
Y49018*
X27081*
Y48455*
X27644*
Y49018*
X27081*
Y48455*
Y49341D02*
X27644D01*
Y49904*
X27081*
Y49341*
X27644*
Y49904*
X27081*
Y49341*
Y50226D02*
X27644D01*
Y50789*
X27081*
Y50226*
X27644*
Y50789*
X27081*
Y50226*
Y51112D02*
X27644D01*
Y51675*
X27081*
Y51112*
X27644*
Y51675*
X27081*
Y51112*
Y51998D02*
X27644D01*
Y52561*
X27081*
Y51998*
X27644*
Y52561*
X27081*
Y51998*
Y52884D02*
X27644D01*
Y53447*
X27081*
Y52884*
X27644*
Y53447*
X27081*
Y52884*
Y53770D02*
X27644D01*
Y54333*
X27081*
Y53770*
X27644*
Y54333*
X27081*
Y53770*
Y54656D02*
X27644D01*
Y55219*
X27081*
Y54656*
X27644*
Y55219*
X27081*
Y54656*
Y55541D02*
X27644D01*
Y56104*
X27081*
Y55541*
X27644*
Y56104*
X27081*
Y55541*
Y56427D02*
X27644D01*
Y56990*
X27081*
Y56427*
X27644*
Y56990*
X27081*
Y56427*
Y57313D02*
X27644D01*
Y57876*
X27081*
Y57313*
X27644*
Y57876*
X27081*
Y57313*
Y58199D02*
X27644D01*
Y58762*
X27081*
Y58199*
X27644*
Y58762*
X27081*
Y58199*
Y59085D02*
X27644D01*
Y59648*
X27081*
Y59085*
X27644*
Y59648*
X27081*
Y59085*
Y59970D02*
X27644D01*
Y60533*
X27081*
Y59970*
X27644*
Y60533*
X27081*
Y59970*
Y60856D02*
X27644D01*
Y61419*
X27081*
Y60856*
X27644*
Y61419*
X27081*
Y60856*
X28852Y19222D02*
X29415D01*
Y19785*
X28852*
Y19222*
X29415*
Y19785*
X28852*
Y19222*
Y20108D02*
X29415D01*
Y20671*
X28852*
Y20108*
X29415*
Y20671*
X28852*
Y20108*
Y20994D02*
X29415D01*
Y21557*
X28852*
Y20994*
X29415*
Y21557*
X28852*
Y20994*
Y21880D02*
X29415D01*
Y22443*
X28852*
Y21880*
X29415*
Y22443*
X28852*
Y21880*
Y22766D02*
X29415D01*
Y23329*
X28852*
Y22766*
X29415*
Y23329*
X28852*
Y22766*
Y23652D02*
X29415D01*
Y24215*
X28852*
Y23652*
X29415*
Y24215*
X28852*
Y23652*
Y24537D02*
X29415D01*
Y25100*
X28852*
Y24537*
X29415*
Y25100*
X28852*
Y24537*
Y25423D02*
X29415D01*
Y25986*
X28852*
Y25423*
X29415*
Y25986*
X28852*
Y25423*
Y26309D02*
X29415D01*
Y26872*
X28852*
Y26309*
X29415*
Y26872*
X28852*
Y26309*
Y27195D02*
X29415D01*
Y27758*
X28852*
Y27195*
X29415*
Y27758*
X28852*
Y27195*
Y28081D02*
X29415D01*
Y28644*
X28852*
Y28081*
X29415*
Y28644*
X28852*
Y28081*
Y28967D02*
X29415D01*
Y29530*
X28852*
Y28967*
X29415*
Y29530*
X28852*
Y28967*
Y29852D02*
X29415D01*
Y30415*
X28852*
Y29852*
X29415*
Y30415*
X28852*
Y29852*
Y30738D02*
X29415D01*
Y31301*
X28852*
Y30738*
X29415*
Y31301*
X28852*
Y30738*
Y31624D02*
X29415D01*
Y32187*
X28852*
Y31624*
X29415*
Y32187*
X28852*
Y31624*
Y32510D02*
X29415D01*
Y33073*
X28852*
Y32510*
X29415*
Y33073*
X28852*
Y32510*
Y33396D02*
X29415D01*
Y33959*
X28852*
Y33396*
X29415*
Y33959*
X28852*
Y33396*
Y34281D02*
X29415D01*
Y34844*
X28852*
Y34281*
X29415*
Y34844*
X28852*
Y34281*
Y35167D02*
X29415D01*
Y35730*
X28852*
Y35167*
X29415*
Y35730*
X28852*
Y35167*
Y36053D02*
X29415D01*
Y36616*
X28852*
Y36053*
X29415*
Y36616*
X28852*
Y36053*
Y36939D02*
X29415D01*
Y37502*
X28852*
Y36939*
X29415*
Y37502*
X28852*
Y36939*
Y37825D02*
X29415D01*
Y38388*
X28852*
Y37825*
X29415*
Y38388*
X28852*
Y37825*
Y38711D02*
X29415D01*
Y39274*
X28852*
Y38711*
X29415*
Y39274*
X28852*
Y38711*
Y39596D02*
X29415D01*
Y40159*
X28852*
Y39596*
X29415*
Y40159*
X28852*
Y39596*
Y40482D02*
X29415D01*
Y41045*
X28852*
Y40482*
X29415*
Y41045*
X28852*
Y40482*
Y41368D02*
X29415D01*
Y41931*
X28852*
Y41368*
X29415*
Y41931*
X28852*
Y41368*
Y42254D02*
X29415D01*
Y42817*
X28852*
Y42254*
X29415*
Y42817*
X28852*
Y42254*
Y43140D02*
X29415D01*
Y43703*
X28852*
Y43140*
X29415*
Y43703*
X28852*
Y43140*
Y44026D02*
X29415D01*
Y44589*
X28852*
Y44026*
X29415*
Y44589*
X28852*
Y44026*
Y44911D02*
X29415D01*
Y45474*
X28852*
Y44911*
X29415*
Y45474*
X28852*
Y44911*
Y45797D02*
X29415D01*
Y46360*
X28852*
Y45797*
X29415*
Y46360*
X28852*
Y45797*
Y46683D02*
X29415D01*
Y47246*
X28852*
Y46683*
X29415*
Y47246*
X28852*
Y46683*
Y47569D02*
X29415D01*
Y48132*
X28852*
Y47569*
X29415*
Y48132*
X28852*
Y47569*
Y48455D02*
X29415D01*
Y49018*
X28852*
Y48455*
X29415*
Y49018*
X28852*
Y48455*
Y49341D02*
X29415D01*
Y49904*
X28852*
Y49341*
X29415*
Y49904*
X28852*
Y49341*
Y50226D02*
X29415D01*
Y50789*
X28852*
Y50226*
X29415*
Y50789*
X28852*
Y50226*
Y51112D02*
X29415D01*
Y51675*
X28852*
Y51112*
X29415*
Y51675*
X28852*
Y51112*
Y51998D02*
X29415D01*
Y52561*
X28852*
Y51998*
X29415*
Y52561*
X28852*
Y51998*
Y52884D02*
X29415D01*
Y53447*
X28852*
Y52884*
X29415*
Y53447*
X28852*
Y52884*
Y53770D02*
X29415D01*
Y54333*
X28852*
Y53770*
X29415*
Y54333*
X28852*
Y53770*
Y54656D02*
X29415D01*
Y55219*
X28852*
Y54656*
X29415*
Y55219*
X28852*
Y54656*
Y55541D02*
X29415D01*
Y56104*
X28852*
Y55541*
X29415*
Y56104*
X28852*
Y55541*
Y56427D02*
X29415D01*
Y56990*
X28852*
Y56427*
X29415*
Y56990*
X28852*
Y56427*
Y57313D02*
X29415D01*
Y57876*
X28852*
Y57313*
X29415*
Y57876*
X28852*
Y57313*
Y58199D02*
X29415D01*
Y58762*
X28852*
Y58199*
X29415*
Y58762*
X28852*
Y58199*
Y59085D02*
X29415D01*
Y59648*
X28852*
Y59085*
X29415*
Y59648*
X28852*
Y59085*
Y59970D02*
X29415D01*
Y60533*
X28852*
Y59970*
X29415*
Y60533*
X28852*
Y59970*
Y60856D02*
X29415D01*
Y61419*
X28852*
Y60856*
X29415*
Y61419*
X28852*
Y60856*
X30624Y19222D02*
X31187D01*
Y19785*
X30624*
Y19222*
X31187*
Y19785*
X30624*
Y19222*
Y20108D02*
X31187D01*
Y20671*
X30624*
Y20108*
X31187*
Y20671*
X30624*
Y20108*
Y20994D02*
X31187D01*
Y21557*
X30624*
Y20994*
X31187*
Y21557*
X30624*
Y20994*
Y21880D02*
X31187D01*
Y22443*
X30624*
Y21880*
X31187*
Y22443*
X30624*
Y21880*
Y22766D02*
X31187D01*
Y23329*
X30624*
Y22766*
X31187*
Y23329*
X30624*
Y22766*
Y23652D02*
X31187D01*
Y24215*
X30624*
Y23652*
X31187*
Y24215*
X30624*
Y23652*
Y24537D02*
X31187D01*
Y25100*
X30624*
Y24537*
X31187*
Y25100*
X30624*
Y24537*
Y25423D02*
X31187D01*
Y25986*
X30624*
Y25423*
X31187*
Y25986*
X30624*
Y25423*
Y26309D02*
X31187D01*
Y26872*
X30624*
Y26309*
X31187*
Y26872*
X30624*
Y26309*
Y27195D02*
X31187D01*
Y27758*
X30624*
Y27195*
X31187*
Y27758*
X30624*
Y27195*
Y28081D02*
X31187D01*
Y28644*
X30624*
Y28081*
X31187*
Y28644*
X30624*
Y28081*
Y28967D02*
X31187D01*
Y29530*
X30624*
Y28967*
X31187*
Y29530*
X30624*
Y28967*
Y29852D02*
X31187D01*
Y30415*
X30624*
Y29852*
X31187*
Y30415*
X30624*
Y29852*
Y30738D02*
X31187D01*
Y31301*
X30624*
Y30738*
X31187*
Y31301*
X30624*
Y30738*
Y31624D02*
X31187D01*
Y32187*
X30624*
Y31624*
X31187*
Y32187*
X30624*
Y31624*
Y32510D02*
X31187D01*
Y33073*
X30624*
Y32510*
X31187*
Y33073*
X30624*
Y32510*
Y33396D02*
X31187D01*
Y33959*
X30624*
Y33396*
X31187*
Y33959*
X30624*
Y33396*
Y34281D02*
X31187D01*
Y34844*
X30624*
Y34281*
X31187*
Y34844*
X30624*
Y34281*
Y35167D02*
X31187D01*
Y35730*
X30624*
Y35167*
X31187*
Y35730*
X30624*
Y35167*
Y36053D02*
X31187D01*
Y36616*
X30624*
Y36053*
X31187*
Y36616*
X30624*
Y36053*
Y36939D02*
X31187D01*
Y37502*
X30624*
Y36939*
X31187*
Y37502*
X30624*
Y36939*
Y37825D02*
X31187D01*
Y38388*
X30624*
Y37825*
X31187*
Y38388*
X30624*
Y37825*
Y38711D02*
X31187D01*
Y39274*
X30624*
Y38711*
X31187*
Y39274*
X30624*
Y38711*
Y39596D02*
X31187D01*
Y40159*
X30624*
Y39596*
X31187*
Y40159*
X30624*
Y39596*
Y40482D02*
X31187D01*
Y41045*
X30624*
Y40482*
X31187*
Y41045*
X30624*
Y40482*
Y41368D02*
X31187D01*
Y41931*
X30624*
Y41368*
X31187*
Y41931*
X30624*
Y41368*
Y42254D02*
X31187D01*
Y42817*
X30624*
Y42254*
X31187*
Y42817*
X30624*
Y42254*
Y43140D02*
X31187D01*
Y43703*
X30624*
Y43140*
X31187*
Y43703*
X30624*
Y43140*
Y44026D02*
X31187D01*
Y44589*
X30624*
Y44026*
X31187*
Y44589*
X30624*
Y44026*
Y44911D02*
X31187D01*
Y45474*
X30624*
Y44911*
X31187*
Y45474*
X30624*
Y44911*
Y45797D02*
X31187D01*
Y46360*
X30624*
Y45797*
X31187*
Y46360*
X30624*
Y45797*
Y46683D02*
X31187D01*
Y47246*
X30624*
Y46683*
X31187*
Y47246*
X30624*
Y46683*
Y47569D02*
X31187D01*
Y48132*
X30624*
Y47569*
X31187*
Y48132*
X30624*
Y47569*
Y48455D02*
X31187D01*
Y49018*
X30624*
Y48455*
X31187*
Y49018*
X30624*
Y48455*
Y49341D02*
X31187D01*
Y49904*
X30624*
Y49341*
X31187*
Y49904*
X30624*
Y49341*
Y50226D02*
X31187D01*
Y50789*
X30624*
Y50226*
X31187*
Y50789*
X30624*
Y50226*
Y51112D02*
X31187D01*
Y51675*
X30624*
Y51112*
X31187*
Y51675*
X30624*
Y51112*
Y51998D02*
X31187D01*
Y52561*
X30624*
Y51998*
X31187*
Y52561*
X30624*
Y51998*
Y52884D02*
X31187D01*
Y53447*
X30624*
Y52884*
X31187*
Y53447*
X30624*
Y52884*
Y53770D02*
X31187D01*
Y54333*
X30624*
Y53770*
X31187*
Y54333*
X30624*
Y53770*
Y54656D02*
X31187D01*
Y55219*
X30624*
Y54656*
X31187*
Y55219*
X30624*
Y54656*
Y55541D02*
X31187D01*
Y56104*
X30624*
Y55541*
X31187*
Y56104*
X30624*
Y55541*
Y56427D02*
X31187D01*
Y56990*
X30624*
Y56427*
X31187*
Y56990*
X30624*
Y56427*
Y57313D02*
X31187D01*
Y57876*
X30624*
Y57313*
X31187*
Y57876*
X30624*
Y57313*
Y58199D02*
X31187D01*
Y58762*
X30624*
Y58199*
X31187*
Y58762*
X30624*
Y58199*
Y59085D02*
X31187D01*
Y59648*
X30624*
Y59085*
X31187*
Y59648*
X30624*
Y59085*
Y59970D02*
X31187D01*
Y60533*
X30624*
Y59970*
X31187*
Y60533*
X30624*
Y59970*
Y60856D02*
X31187D01*
Y61419*
X30624*
Y60856*
X31187*
Y61419*
X30624*
Y60856*
X32333Y64268D02*
X35600D01*
Y67535*
X32333*
Y64268*
X35600*
Y67535*
X32333*
Y64268*
X32396Y19222D02*
X32959D01*
Y19785*
X32396*
Y19222*
X32959*
Y19785*
X32396*
Y19222*
Y20108D02*
X32959D01*
Y20671*
X32396*
Y20108*
X32959*
Y20671*
X32396*
Y20108*
Y20994D02*
X32959D01*
Y21557*
X32396*
Y20994*
X32959*
Y21557*
X32396*
Y20994*
Y21880D02*
X32959D01*
Y22443*
X32396*
Y21880*
X32959*
Y22443*
X32396*
Y21880*
Y22766D02*
X32959D01*
Y23329*
X32396*
Y22766*
X32959*
Y23329*
X32396*
Y22766*
Y23652D02*
X32959D01*
Y24215*
X32396*
Y23652*
X32959*
Y24215*
X32396*
Y23652*
Y24537D02*
X32959D01*
Y25100*
X32396*
Y24537*
X32959*
Y25100*
X32396*
Y24537*
Y25423D02*
X32959D01*
Y25986*
X32396*
Y25423*
X32959*
Y25986*
X32396*
Y25423*
Y26309D02*
X32959D01*
Y26872*
X32396*
Y26309*
X32959*
Y26872*
X32396*
Y26309*
Y27195D02*
X32959D01*
Y27758*
X32396*
Y27195*
X32959*
Y27758*
X32396*
Y27195*
Y28081D02*
X32959D01*
Y28644*
X32396*
Y28081*
X32959*
Y28644*
X32396*
Y28081*
Y28967D02*
X32959D01*
Y29530*
X32396*
Y28967*
X32959*
Y29530*
X32396*
Y28967*
Y29852D02*
X32959D01*
Y30415*
X32396*
Y29852*
X32959*
Y30415*
X32396*
Y29852*
Y30738D02*
X32959D01*
Y31301*
X32396*
Y30738*
X32959*
Y31301*
X32396*
Y30738*
Y31624D02*
X32959D01*
Y32187*
X32396*
Y31624*
X32959*
Y32187*
X32396*
Y31624*
Y32510D02*
X32959D01*
Y33073*
X32396*
Y32510*
X32959*
Y33073*
X32396*
Y32510*
Y33396D02*
X32959D01*
Y33959*
X32396*
Y33396*
X32959*
Y33959*
X32396*
Y33396*
Y34281D02*
X32959D01*
Y34844*
X32396*
Y34281*
X32959*
Y34844*
X32396*
Y34281*
Y35167D02*
X32959D01*
Y35730*
X32396*
Y35167*
X32959*
Y35730*
X32396*
Y35167*
Y36053D02*
X32959D01*
Y36616*
X32396*
Y36053*
X32959*
Y36616*
X32396*
Y36053*
Y36939D02*
X32959D01*
Y37502*
X32396*
Y36939*
X32959*
Y37502*
X32396*
Y36939*
Y37825D02*
X32959D01*
Y38388*
X32396*
Y37825*
X32959*
Y38388*
X32396*
Y37825*
Y38711D02*
X32959D01*
Y39274*
X32396*
Y38711*
X32959*
Y39274*
X32396*
Y38711*
Y39596D02*
X32959D01*
Y40159*
X32396*
Y39596*
X32959*
Y40159*
X32396*
Y39596*
Y40482D02*
X32959D01*
Y41045*
X32396*
Y40482*
X32959*
Y41045*
X32396*
Y40482*
Y41368D02*
X32959D01*
Y41931*
X32396*
Y41368*
X32959*
Y41931*
X32396*
Y41368*
Y42254D02*
X32959D01*
Y42817*
X32396*
Y42254*
X32959*
Y42817*
X32396*
Y42254*
Y43140D02*
X32959D01*
Y43703*
X32396*
Y43140*
X32959*
Y43703*
X32396*
Y43140*
Y44026D02*
X32959D01*
Y44589*
X32396*
Y44026*
X32959*
Y44589*
X32396*
Y44026*
Y44911D02*
X32959D01*
Y45474*
X32396*
Y44911*
X32959*
Y45474*
X32396*
Y44911*
Y45797D02*
X32959D01*
Y46360*
X32396*
Y45797*
X32959*
Y46360*
X32396*
Y45797*
Y46683D02*
X32959D01*
Y47246*
X32396*
Y46683*
X32959*
Y47246*
X32396*
Y46683*
Y47569D02*
X32959D01*
Y48132*
X32396*
Y47569*
X32959*
Y48132*
X32396*
Y47569*
Y48455D02*
X32959D01*
Y49018*
X32396*
Y48455*
X32959*
Y49018*
X32396*
Y48455*
Y49341D02*
X32959D01*
Y49904*
X32396*
Y49341*
X32959*
Y49904*
X32396*
Y49341*
Y50226D02*
X32959D01*
Y50789*
X32396*
Y50226*
X32959*
Y50789*
X32396*
Y50226*
Y51112D02*
X32959D01*
Y51675*
X32396*
Y51112*
X32959*
Y51675*
X32396*
Y51112*
Y51998D02*
X32959D01*
Y52561*
X32396*
Y51998*
X32959*
Y52561*
X32396*
Y51998*
Y52884D02*
X32959D01*
Y53447*
X32396*
Y52884*
X32959*
Y53447*
X32396*
Y52884*
Y53770D02*
X32959D01*
Y54333*
X32396*
Y53770*
X32959*
Y54333*
X32396*
Y53770*
Y54656D02*
X32959D01*
Y55219*
X32396*
Y54656*
X32959*
Y55219*
X32396*
Y54656*
Y55541D02*
X32959D01*
Y56104*
X32396*
Y55541*
X32959*
Y56104*
X32396*
Y55541*
Y56427D02*
X32959D01*
Y56990*
X32396*
Y56427*
X32959*
Y56990*
X32396*
Y56427*
Y57313D02*
X32959D01*
Y57876*
X32396*
Y57313*
X32959*
Y57876*
X32396*
Y57313*
Y58199D02*
X32959D01*
Y58762*
X32396*
Y58199*
X32959*
Y58762*
X32396*
Y58199*
Y59085D02*
X32959D01*
Y59648*
X32396*
Y59085*
X32959*
Y59648*
X32396*
Y59085*
Y59970D02*
X32959D01*
Y60533*
X32396*
Y59970*
X32959*
Y60533*
X32396*
Y59970*
Y60856D02*
X32959D01*
Y61419*
X32396*
Y60856*
X32959*
Y61419*
X32396*
Y60856*
X34167Y19222D02*
X34730D01*
Y19785*
X34167*
Y19222*
X34730*
Y19785*
X34167*
Y19222*
Y20108D02*
X34730D01*
Y20671*
X34167*
Y20108*
X34730*
Y20671*
X34167*
Y20108*
Y20994D02*
X34730D01*
Y21557*
X34167*
Y20994*
X34730*
Y21557*
X34167*
Y20994*
Y21880D02*
X34730D01*
Y22443*
X34167*
Y21880*
X34730*
Y22443*
X34167*
Y21880*
Y22766D02*
X34730D01*
Y23329*
X34167*
Y22766*
X34730*
Y23329*
X34167*
Y22766*
Y23652D02*
X34730D01*
Y24215*
X34167*
Y23652*
X34730*
Y24215*
X34167*
Y23652*
Y24537D02*
X34730D01*
Y25100*
X34167*
Y24537*
X34730*
Y25100*
X34167*
Y24537*
Y25423D02*
X34730D01*
Y25986*
X34167*
Y25423*
X34730*
Y25986*
X34167*
Y25423*
Y26309D02*
X34730D01*
Y26872*
X34167*
Y26309*
X34730*
Y26872*
X34167*
Y26309*
Y27195D02*
X34730D01*
Y27758*
X34167*
Y27195*
X34730*
Y27758*
X34167*
Y27195*
Y28081D02*
X34730D01*
Y28644*
X34167*
Y28081*
X34730*
Y28644*
X34167*
Y28081*
Y28967D02*
X34730D01*
Y29530*
X34167*
Y28967*
X34730*
Y29530*
X34167*
Y28967*
Y29852D02*
X34730D01*
Y30415*
X34167*
Y29852*
X34730*
Y30415*
X34167*
Y29852*
Y30738D02*
X34730D01*
Y31301*
X34167*
Y30738*
X34730*
Y31301*
X34167*
Y30738*
Y31624D02*
X34730D01*
Y32187*
X34167*
Y31624*
X34730*
Y32187*
X34167*
Y31624*
Y32510D02*
X34730D01*
Y33073*
X34167*
Y32510*
X34730*
Y33073*
X34167*
Y32510*
Y33396D02*
X34730D01*
Y33959*
X34167*
Y33396*
X34730*
Y33959*
X34167*
Y33396*
Y34281D02*
X34730D01*
Y34844*
X34167*
Y34281*
X34730*
Y34844*
X34167*
Y34281*
Y35167D02*
X34730D01*
Y35730*
X34167*
Y35167*
X34730*
Y35730*
X34167*
Y35167*
Y36053D02*
X34730D01*
Y36616*
X34167*
Y36053*
X34730*
Y36616*
X34167*
Y36053*
Y36939D02*
X34730D01*
Y37502*
X34167*
Y36939*
X34730*
Y37502*
X34167*
Y36939*
Y37825D02*
X34730D01*
Y38388*
X34167*
Y37825*
X34730*
Y38388*
X34167*
Y37825*
Y38711D02*
X34730D01*
Y39274*
X34167*
Y38711*
X34730*
Y39274*
X34167*
Y38711*
Y39596D02*
X34730D01*
Y40159*
X34167*
Y39596*
X34730*
Y40159*
X34167*
Y39596*
Y40482D02*
X34730D01*
Y41045*
X34167*
Y40482*
X34730*
Y41045*
X34167*
Y40482*
Y41368D02*
X34730D01*
Y41931*
X34167*
Y41368*
X34730*
Y41931*
X34167*
Y41368*
Y42254D02*
X34730D01*
Y42817*
X34167*
Y42254*
X34730*
Y42817*
X34167*
Y42254*
Y43140D02*
X34730D01*
Y43703*
X34167*
Y43140*
X34730*
Y43703*
X34167*
Y43140*
Y44026D02*
X34730D01*
Y44589*
X34167*
Y44026*
X34730*
Y44589*
X34167*
Y44026*
Y44911D02*
X34730D01*
Y45474*
X34167*
Y44911*
X34730*
Y45474*
X34167*
Y44911*
Y45797D02*
X34730D01*
Y46360*
X34167*
Y45797*
X34730*
Y46360*
X34167*
Y45797*
Y46683D02*
X34730D01*
Y47246*
X34167*
Y46683*
X34730*
Y47246*
X34167*
Y46683*
Y47569D02*
X34730D01*
Y48132*
X34167*
Y47569*
X34730*
Y48132*
X34167*
Y47569*
Y48455D02*
X34730D01*
Y49018*
X34167*
Y48455*
X34730*
Y49018*
X34167*
Y48455*
Y49341D02*
X34730D01*
Y49904*
X34167*
Y49341*
X34730*
Y49904*
X34167*
Y49341*
Y50226D02*
X34730D01*
Y50789*
X34167*
Y50226*
X34730*
Y50789*
X34167*
Y50226*
Y51112D02*
X34730D01*
Y51675*
X34167*
Y51112*
X34730*
Y51675*
X34167*
Y51112*
Y51998D02*
X34730D01*
Y52561*
X34167*
Y51998*
X34730*
Y52561*
X34167*
Y51998*
Y52884D02*
X34730D01*
Y53447*
X34167*
Y52884*
X34730*
Y53447*
X34167*
Y52884*
Y53770D02*
X34730D01*
Y54333*
X34167*
Y53770*
X34730*
Y54333*
X34167*
Y53770*
Y54656D02*
X34730D01*
Y55219*
X34167*
Y54656*
X34730*
Y55219*
X34167*
Y54656*
Y55541D02*
X34730D01*
Y56104*
X34167*
Y55541*
X34730*
Y56104*
X34167*
Y55541*
Y56427D02*
X34730D01*
Y56990*
X34167*
Y56427*
X34730*
Y56990*
X34167*
Y56427*
Y57313D02*
X34730D01*
Y57876*
X34167*
Y57313*
X34730*
Y57876*
X34167*
Y57313*
Y58199D02*
X34730D01*
Y58762*
X34167*
Y58199*
X34730*
Y58762*
X34167*
Y58199*
Y59085D02*
X34730D01*
Y59648*
X34167*
Y59085*
X34730*
Y59648*
X34167*
Y59085*
Y59970D02*
X34730D01*
Y60533*
X34167*
Y59970*
X34730*
Y60533*
X34167*
Y59970*
Y60856D02*
X34730D01*
Y61419*
X34167*
Y60856*
X34730*
Y61419*
X34167*
Y60856*
X34291Y11224D02*
X37559D01*
Y14492*
X34291*
Y11224*
X37559*
Y14492*
X34291*
Y11224*
X35939Y19222D02*
X36502D01*
Y19785*
X35939*
Y19222*
X36502*
Y19785*
X35939*
Y19222*
Y20108D02*
X36502D01*
Y20671*
X35939*
Y20108*
X36502*
Y20671*
X35939*
Y20108*
Y20994D02*
X36502D01*
Y21557*
X35939*
Y20994*
X36502*
Y21557*
X35939*
Y20994*
Y21880D02*
X36502D01*
Y22443*
X35939*
Y21880*
X36502*
Y22443*
X35939*
Y21880*
Y22766D02*
X36502D01*
Y23329*
X35939*
Y22766*
X36502*
Y23329*
X35939*
Y22766*
Y23652D02*
X36502D01*
Y24215*
X35939*
Y23652*
X36502*
Y24215*
X35939*
Y23652*
Y24537D02*
X36502D01*
Y25100*
X35939*
Y24537*
X36502*
Y25100*
X35939*
Y24537*
Y25423D02*
X36502D01*
Y25986*
X35939*
Y25423*
X36502*
Y25986*
X35939*
Y25423*
Y26309D02*
X36502D01*
Y26872*
X35939*
Y26309*
X36502*
Y26872*
X35939*
Y26309*
Y27195D02*
X36502D01*
Y27758*
X35939*
Y27195*
X36502*
Y27758*
X35939*
Y27195*
Y28081D02*
X36502D01*
Y28644*
X35939*
Y28081*
X36502*
Y28644*
X35939*
Y28081*
Y28967D02*
X36502D01*
Y29530*
X35939*
Y28967*
X36502*
Y29530*
X35939*
Y28967*
Y29852D02*
X36502D01*
Y30415*
X35939*
Y29852*
X36502*
Y30415*
X35939*
Y29852*
Y30738D02*
X36502D01*
Y31301*
X35939*
Y30738*
X36502*
Y31301*
X35939*
Y30738*
Y31624D02*
X36502D01*
Y32187*
X35939*
Y31624*
X36502*
Y32187*
X35939*
Y31624*
Y32510D02*
X36502D01*
Y33073*
X35939*
Y32510*
X36502*
Y33073*
X35939*
Y32510*
Y33396D02*
X36502D01*
Y33959*
X35939*
Y33396*
X36502*
Y33959*
X35939*
Y33396*
Y34281D02*
X36502D01*
Y34844*
X35939*
Y34281*
X36502*
Y34844*
X35939*
Y34281*
Y35167D02*
X36502D01*
Y35730*
X35939*
Y35167*
X36502*
Y35730*
X35939*
Y35167*
Y36053D02*
X36502D01*
Y36616*
X35939*
Y36053*
X36502*
Y36616*
X35939*
Y36053*
Y36939D02*
X36502D01*
Y37502*
X35939*
Y36939*
X36502*
Y37502*
X35939*
Y36939*
Y37825D02*
X36502D01*
Y38388*
X35939*
Y37825*
X36502*
Y38388*
X35939*
Y37825*
Y38711D02*
X36502D01*
Y39274*
X35939*
Y38711*
X36502*
Y39274*
X35939*
Y38711*
Y39596D02*
X36502D01*
Y40159*
X35939*
Y39596*
X36502*
Y40159*
X35939*
Y39596*
Y40482D02*
X36502D01*
Y41045*
X35939*
Y40482*
X36502*
Y41045*
X35939*
Y40482*
Y41368D02*
X36502D01*
Y41931*
X35939*
Y41368*
X36502*
Y41931*
X35939*
Y41368*
Y42254D02*
X36502D01*
Y42817*
X35939*
Y42254*
X36502*
Y42817*
X35939*
Y42254*
Y43140D02*
X36502D01*
Y43703*
X35939*
Y43140*
X36502*
Y43703*
X35939*
Y43140*
Y44026D02*
X36502D01*
Y44589*
X35939*
Y44026*
X36502*
Y44589*
X35939*
Y44026*
Y44911D02*
X36502D01*
Y45474*
X35939*
Y44911*
X36502*
Y45474*
X35939*
Y44911*
Y45797D02*
X36502D01*
Y46360*
X35939*
Y45797*
X36502*
Y46360*
X35939*
Y45797*
Y46683D02*
X36502D01*
Y47246*
X35939*
Y46683*
X36502*
Y47246*
X35939*
Y46683*
Y47569D02*
X36502D01*
Y48132*
X35939*
Y47569*
X36502*
Y48132*
X35939*
Y47569*
Y48455D02*
X36502D01*
Y49018*
X35939*
Y48455*
X36502*
Y49018*
X35939*
Y48455*
Y49341D02*
X36502D01*
Y49904*
X35939*
Y49341*
X36502*
Y49904*
X35939*
Y49341*
Y50226D02*
X36502D01*
Y50789*
X35939*
Y50226*
X36502*
Y50789*
X35939*
Y50226*
Y51112D02*
X36502D01*
Y51675*
X35939*
Y51112*
X36502*
Y51675*
X35939*
Y51112*
Y51998D02*
X36502D01*
Y52561*
X35939*
Y51998*
X36502*
Y52561*
X35939*
Y51998*
Y52884D02*
X36502D01*
Y53447*
X35939*
Y52884*
X36502*
Y53447*
X35939*
Y52884*
Y53770D02*
X36502D01*
Y54333*
X35939*
Y53770*
X36502*
Y54333*
X35939*
Y53770*
Y54656D02*
X36502D01*
Y55219*
X35939*
Y54656*
X36502*
Y55219*
X35939*
Y54656*
Y55541D02*
X36502D01*
Y56104*
X35939*
Y55541*
X36502*
Y56104*
X35939*
Y55541*
Y56427D02*
X36502D01*
Y56990*
X35939*
Y56427*
X36502*
Y56990*
X35939*
Y56427*
Y57313D02*
X36502D01*
Y57876*
X35939*
Y57313*
X36502*
Y57876*
X35939*
Y57313*
Y58199D02*
X36502D01*
Y58762*
X35939*
Y58199*
X36502*
Y58762*
X35939*
Y58199*
Y59085D02*
X36502D01*
Y59648*
X35939*
Y59085*
X36502*
Y59648*
X35939*
Y59085*
Y59970D02*
X36502D01*
Y60533*
X35939*
Y59970*
X36502*
Y60533*
X35939*
Y59970*
Y60856D02*
X36502D01*
Y61419*
X35939*
Y60856*
X36502*
Y61419*
X35939*
Y60856*
X37711Y19222D02*
X38274D01*
Y19785*
X37711*
Y19222*
X38274*
Y19785*
X37711*
Y19222*
Y20108D02*
X38274D01*
Y20671*
X37711*
Y20108*
X38274*
Y20671*
X37711*
Y20108*
Y20994D02*
X38274D01*
Y21557*
X37711*
Y20994*
X38274*
Y21557*
X37711*
Y20994*
Y21880D02*
X38274D01*
Y22443*
X37711*
Y21880*
X38274*
Y22443*
X37711*
Y21880*
Y22766D02*
X38274D01*
Y23329*
X37711*
Y22766*
X38274*
Y23329*
X37711*
Y22766*
Y23652D02*
X38274D01*
Y24215*
X37711*
Y23652*
X38274*
Y24215*
X37711*
Y23652*
Y24537D02*
X38274D01*
Y25100*
X37711*
Y24537*
X38274*
Y25100*
X37711*
Y24537*
Y25423D02*
X38274D01*
Y25986*
X37711*
Y25423*
X38274*
Y25986*
X37711*
Y25423*
Y26309D02*
X38274D01*
Y26872*
X37711*
Y26309*
X38274*
Y26872*
X37711*
Y26309*
Y27195D02*
X38274D01*
Y27758*
X37711*
Y27195*
X38274*
Y27758*
X37711*
Y27195*
Y28081D02*
X38274D01*
Y28644*
X37711*
Y28081*
X38274*
Y28644*
X37711*
Y28081*
Y28967D02*
X38274D01*
Y29530*
X37711*
Y28967*
X38274*
Y29530*
X37711*
Y28967*
Y29852D02*
X38274D01*
Y30415*
X37711*
Y29852*
X38274*
Y30415*
X37711*
Y29852*
Y30738D02*
X38274D01*
Y31301*
X37711*
Y30738*
X38274*
Y31301*
X37711*
Y30738*
Y31624D02*
X38274D01*
Y32187*
X37711*
Y31624*
X38274*
Y32187*
X37711*
Y31624*
Y32510D02*
X38274D01*
Y33073*
X37711*
Y32510*
X38274*
Y33073*
X37711*
Y32510*
Y33396D02*
X38274D01*
Y33959*
X37711*
Y33396*
X38274*
Y33959*
X37711*
Y33396*
Y34281D02*
X38274D01*
Y34844*
X37711*
Y34281*
X38274*
Y34844*
X37711*
Y34281*
Y35167D02*
X38274D01*
Y35730*
X37711*
Y35167*
X38274*
Y35730*
X37711*
Y35167*
Y36053D02*
X38274D01*
Y36616*
X37711*
Y36053*
X38274*
Y36616*
X37711*
Y36053*
Y36939D02*
X38274D01*
Y37502*
X37711*
Y36939*
X38274*
Y37502*
X37711*
Y36939*
Y37825D02*
X38274D01*
Y38388*
X37711*
Y37825*
X38274*
Y38388*
X37711*
Y37825*
Y38711D02*
X38274D01*
Y39274*
X37711*
Y38711*
X38274*
Y39274*
X37711*
Y38711*
Y39596D02*
X38274D01*
Y40159*
X37711*
Y39596*
X38274*
Y40159*
X37711*
Y39596*
Y40482D02*
X38274D01*
Y41045*
X37711*
Y40482*
X38274*
Y41045*
X37711*
Y40482*
Y41368D02*
X38274D01*
Y41931*
X37711*
Y41368*
X38274*
Y41931*
X37711*
Y41368*
Y42254D02*
X38274D01*
Y42817*
X37711*
Y42254*
X38274*
Y42817*
X37711*
Y42254*
Y43140D02*
X38274D01*
Y43703*
X37711*
Y43140*
X38274*
Y43703*
X37711*
Y43140*
Y44026D02*
X38274D01*
Y44589*
X37711*
Y44026*
X38274*
Y44589*
X37711*
Y44026*
Y44911D02*
X38274D01*
Y45474*
X37711*
Y44911*
X38274*
Y45474*
X37711*
Y44911*
Y45797D02*
X38274D01*
Y46360*
X37711*
Y45797*
X38274*
Y46360*
X37711*
Y45797*
Y46683D02*
X38274D01*
Y47246*
X37711*
Y46683*
X38274*
Y47246*
X37711*
Y46683*
Y47569D02*
X38274D01*
Y48132*
X37711*
Y47569*
X38274*
Y48132*
X37711*
Y47569*
Y48455D02*
X38274D01*
Y49018*
X37711*
Y48455*
X38274*
Y49018*
X37711*
Y48455*
Y49341D02*
X38274D01*
Y49904*
X37711*
Y49341*
X38274*
Y49904*
X37711*
Y49341*
Y50226D02*
X38274D01*
Y50789*
X37711*
Y50226*
X38274*
Y50789*
X37711*
Y50226*
Y51112D02*
X38274D01*
Y51675*
X37711*
Y51112*
X38274*
Y51675*
X37711*
Y51112*
Y51998D02*
X38274D01*
Y52561*
X37711*
Y51998*
X38274*
Y52561*
X37711*
Y51998*
Y52884D02*
X38274D01*
Y53447*
X37711*
Y52884*
X38274*
Y53447*
X37711*
Y52884*
Y53770D02*
X38274D01*
Y54333*
X37711*
Y53770*
X38274*
Y54333*
X37711*
Y53770*
Y54656D02*
X38274D01*
Y55219*
X37711*
Y54656*
X38274*
Y55219*
X37711*
Y54656*
Y55541D02*
X38274D01*
Y56104*
X37711*
Y55541*
X38274*
Y56104*
X37711*
Y55541*
Y56427D02*
X38274D01*
Y56990*
X37711*
Y56427*
X38274*
Y56990*
X37711*
Y56427*
Y57313D02*
X38274D01*
Y57876*
X37711*
Y57313*
X38274*
Y57876*
X37711*
Y57313*
Y58199D02*
X38274D01*
Y58762*
X37711*
Y58199*
X38274*
Y58762*
X37711*
Y58199*
Y59085D02*
X38274D01*
Y59648*
X37711*
Y59085*
X38274*
Y59648*
X37711*
Y59085*
Y59970D02*
X38274D01*
Y60533*
X37711*
Y59970*
X38274*
Y60533*
X37711*
Y59970*
Y60856D02*
X38274D01*
Y61419*
X37711*
Y60856*
X38274*
Y61419*
X37711*
Y60856*
X39482Y19222D02*
X40045D01*
Y19785*
X39482*
Y19222*
X40045*
Y19785*
X39482*
Y19222*
Y20108D02*
X40045D01*
Y20671*
X39482*
Y20108*
X40045*
Y20671*
X39482*
Y20108*
Y20994D02*
X40045D01*
Y21557*
X39482*
Y20994*
X40045*
Y21557*
X39482*
Y20994*
Y21880D02*
X40045D01*
Y22443*
X39482*
Y21880*
X40045*
Y22443*
X39482*
Y21880*
Y22766D02*
X40045D01*
Y23329*
X39482*
Y22766*
X40045*
Y23329*
X39482*
Y22766*
Y23652D02*
X40045D01*
Y24215*
X39482*
Y23652*
X40045*
Y24215*
X39482*
Y23652*
Y24537D02*
X40045D01*
Y25100*
X39482*
Y24537*
X40045*
Y25100*
X39482*
Y24537*
Y25423D02*
X40045D01*
Y25986*
X39482*
Y25423*
X40045*
Y25986*
X39482*
Y25423*
Y26309D02*
X40045D01*
Y26872*
X39482*
Y26309*
X40045*
Y26872*
X39482*
Y26309*
Y27195D02*
X40045D01*
Y27758*
X39482*
Y27195*
X40045*
Y27758*
X39482*
Y27195*
Y28081D02*
X40045D01*
Y28644*
X39482*
Y28081*
X40045*
Y28644*
X39482*
Y28081*
Y28967D02*
X40045D01*
Y29530*
X39482*
Y28967*
X40045*
Y29530*
X39482*
Y28967*
Y29852D02*
X40045D01*
Y30415*
X39482*
Y29852*
X40045*
Y30415*
X39482*
Y29852*
Y30738D02*
X40045D01*
Y31301*
X39482*
Y30738*
X40045*
Y31301*
X39482*
Y30738*
Y31624D02*
X40045D01*
Y32187*
X39482*
Y31624*
X40045*
Y32187*
X39482*
Y31624*
Y32510D02*
X40045D01*
Y33073*
X39482*
Y32510*
X40045*
Y33073*
X39482*
Y32510*
Y33396D02*
X40045D01*
Y33959*
X39482*
Y33396*
X40045*
Y33959*
X39482*
Y33396*
Y34281D02*
X40045D01*
Y34844*
X39482*
Y34281*
X40045*
Y34844*
X39482*
Y34281*
Y35167D02*
X40045D01*
Y35730*
X39482*
Y35167*
X40045*
Y35730*
X39482*
Y35167*
Y36053D02*
X40045D01*
Y36616*
X39482*
Y36053*
X40045*
Y36616*
X39482*
Y36053*
Y36939D02*
X40045D01*
Y37502*
X39482*
Y36939*
X40045*
Y37502*
X39482*
Y36939*
Y37825D02*
X40045D01*
Y38388*
X39482*
Y37825*
X40045*
Y38388*
X39482*
Y37825*
Y38711D02*
X40045D01*
Y39274*
X39482*
Y38711*
X40045*
Y39274*
X39482*
Y38711*
Y39596D02*
X40045D01*
Y40159*
X39482*
Y39596*
X40045*
Y40159*
X39482*
Y39596*
Y40482D02*
X40045D01*
Y41045*
X39482*
Y40482*
X40045*
Y41045*
X39482*
Y40482*
Y41368D02*
X40045D01*
Y41931*
X39482*
Y41368*
X40045*
Y41931*
X39482*
Y41368*
Y42254D02*
X40045D01*
Y42817*
X39482*
Y42254*
X40045*
Y42817*
X39482*
Y42254*
Y43140D02*
X40045D01*
Y43703*
X39482*
Y43140*
X40045*
Y43703*
X39482*
Y43140*
Y44026D02*
X40045D01*
Y44589*
X39482*
Y44026*
X40045*
Y44589*
X39482*
Y44026*
Y44911D02*
X40045D01*
Y45474*
X39482*
Y44911*
X40045*
Y45474*
X39482*
Y44911*
Y45797D02*
X40045D01*
Y46360*
X39482*
Y45797*
X40045*
Y46360*
X39482*
Y45797*
Y46683D02*
X40045D01*
Y47246*
X39482*
Y46683*
X40045*
Y47246*
X39482*
Y46683*
Y47569D02*
X40045D01*
Y48132*
X39482*
Y47569*
X40045*
Y48132*
X39482*
Y47569*
Y48455D02*
X40045D01*
Y49018*
X39482*
Y48455*
X40045*
Y49018*
X39482*
Y48455*
Y49341D02*
X40045D01*
Y49904*
X39482*
Y49341*
X40045*
Y49904*
X39482*
Y49341*
Y50226D02*
X40045D01*
Y50789*
X39482*
Y50226*
X40045*
Y50789*
X39482*
Y50226*
Y51112D02*
X40045D01*
Y51675*
X39482*
Y51112*
X40045*
Y51675*
X39482*
Y51112*
Y51998D02*
X40045D01*
Y52561*
X39482*
Y51998*
X40045*
Y52561*
X39482*
Y51998*
Y52884D02*
X40045D01*
Y53447*
X39482*
Y52884*
X40045*
Y53447*
X39482*
Y52884*
Y53770D02*
X40045D01*
Y54333*
X39482*
Y53770*
X40045*
Y54333*
X39482*
Y53770*
Y54656D02*
X40045D01*
Y55219*
X39482*
Y54656*
X40045*
Y55219*
X39482*
Y54656*
Y55541D02*
X40045D01*
Y56104*
X39482*
Y55541*
X40045*
Y56104*
X39482*
Y55541*
Y56427D02*
X40045D01*
Y56990*
X39482*
Y56427*
X40045*
Y56990*
X39482*
Y56427*
Y57313D02*
X40045D01*
Y57876*
X39482*
Y57313*
X40045*
Y57876*
X39482*
Y57313*
Y58199D02*
X40045D01*
Y58762*
X39482*
Y58199*
X40045*
Y58762*
X39482*
Y58199*
Y59085D02*
X40045D01*
Y59648*
X39482*
Y59085*
X40045*
Y59648*
X39482*
Y59085*
Y59970D02*
X40045D01*
Y60533*
X39482*
Y59970*
X40045*
Y60533*
X39482*
Y59970*
Y60856D02*
X40045D01*
Y61419*
X39482*
Y60856*
X40045*
Y61419*
X39482*
Y60856*
X39852Y64268D02*
X43120D01*
Y67535*
X39852*
Y64268*
X43120*
Y67535*
X39852*
Y64268*
X41254Y19222D02*
X41817D01*
Y19785*
X41254*
Y19222*
X41817*
Y19785*
X41254*
Y19222*
Y20108D02*
X41817D01*
Y20671*
X41254*
Y20108*
X41817*
Y20671*
X41254*
Y20108*
Y20994D02*
X41817D01*
Y21557*
X41254*
Y20994*
X41817*
Y21557*
X41254*
Y20994*
Y21880D02*
X41817D01*
Y22443*
X41254*
Y21880*
X41817*
Y22443*
X41254*
Y21880*
Y22766D02*
X41817D01*
Y23329*
X41254*
Y22766*
X41817*
Y23329*
X41254*
Y22766*
Y23652D02*
X41817D01*
Y24215*
X41254*
Y23652*
X41817*
Y24215*
X41254*
Y23652*
Y24537D02*
X41817D01*
Y25100*
X41254*
Y24537*
X41817*
Y25100*
X41254*
Y24537*
Y25423D02*
X41817D01*
Y25986*
X41254*
Y25423*
X41817*
Y25986*
X41254*
Y25423*
Y26309D02*
X41817D01*
Y26872*
X41254*
Y26309*
X41817*
Y26872*
X41254*
Y26309*
Y27195D02*
X41817D01*
Y27758*
X41254*
Y27195*
X41817*
Y27758*
X41254*
Y27195*
Y28081D02*
X41817D01*
Y28644*
X41254*
Y28081*
X41817*
Y28644*
X41254*
Y28081*
Y28967D02*
X41817D01*
Y29530*
X41254*
Y28967*
X41817*
Y29530*
X41254*
Y28967*
Y29852D02*
X41817D01*
Y30415*
X41254*
Y29852*
X41817*
Y30415*
X41254*
Y29852*
Y30738D02*
X41817D01*
Y31301*
X41254*
Y30738*
X41817*
Y31301*
X41254*
Y30738*
Y31624D02*
X41817D01*
Y32187*
X41254*
Y31624*
X41817*
Y32187*
X41254*
Y31624*
Y32510D02*
X41817D01*
Y33073*
X41254*
Y32510*
X41817*
Y33073*
X41254*
Y32510*
Y33396D02*
X41817D01*
Y33959*
X41254*
Y33396*
X41817*
Y33959*
X41254*
Y33396*
Y34281D02*
X41817D01*
Y34844*
X41254*
Y34281*
X41817*
Y34844*
X41254*
Y34281*
Y35167D02*
X41817D01*
Y35730*
X41254*
Y35167*
X41817*
Y35730*
X41254*
Y35167*
Y36053D02*
X41817D01*
Y36616*
X41254*
Y36053*
X41817*
Y36616*
X41254*
Y36053*
Y36939D02*
X41817D01*
Y37502*
X41254*
Y36939*
X41817*
Y37502*
X41254*
Y36939*
Y37825D02*
X41817D01*
Y38388*
X41254*
Y37825*
X41817*
Y38388*
X41254*
Y37825*
Y38711D02*
X41817D01*
Y39274*
X41254*
Y38711*
X41817*
Y39274*
X41254*
Y38711*
Y39596D02*
X41817D01*
Y40159*
X41254*
Y39596*
X41817*
Y40159*
X41254*
Y39596*
Y40482D02*
X41817D01*
Y41045*
X41254*
Y40482*
X41817*
Y41045*
X41254*
Y40482*
Y41368D02*
X41817D01*
Y41931*
X41254*
Y41368*
X41817*
Y41931*
X41254*
Y41368*
Y42254D02*
X41817D01*
Y42817*
X41254*
Y42254*
X41817*
Y42817*
X41254*
Y42254*
Y43140D02*
X41817D01*
Y43703*
X41254*
Y43140*
X41817*
Y43703*
X41254*
Y43140*
Y44026D02*
X41817D01*
Y44589*
X41254*
Y44026*
X41817*
Y44589*
X41254*
Y44026*
Y44911D02*
X41817D01*
Y45474*
X41254*
Y44911*
X41817*
Y45474*
X41254*
Y44911*
Y45797D02*
X41817D01*
Y46360*
X41254*
Y45797*
X41817*
Y46360*
X41254*
Y45797*
Y46683D02*
X41817D01*
Y47246*
X41254*
Y46683*
X41817*
Y47246*
X41254*
Y46683*
Y47569D02*
X41817D01*
Y48132*
X41254*
Y47569*
X41817*
Y48132*
X41254*
Y47569*
Y48455D02*
X41817D01*
Y49018*
X41254*
Y48455*
X41817*
Y49018*
X41254*
Y48455*
Y49341D02*
X41817D01*
Y49904*
X41254*
Y49341*
X41817*
Y49904*
X41254*
Y49341*
Y50226D02*
X41817D01*
Y50789*
X41254*
Y50226*
X41817*
Y50789*
X41254*
Y50226*
Y51112D02*
X41817D01*
Y51675*
X41254*
Y51112*
X41817*
Y51675*
X41254*
Y51112*
Y51998D02*
X41817D01*
Y52561*
X41254*
Y51998*
X41817*
Y52561*
X41254*
Y51998*
Y52884D02*
X41817D01*
Y53447*
X41254*
Y52884*
X41817*
Y53447*
X41254*
Y52884*
Y53770D02*
X41817D01*
Y54333*
X41254*
Y53770*
X41817*
Y54333*
X41254*
Y53770*
Y54656D02*
X41817D01*
Y55219*
X41254*
Y54656*
X41817*
Y55219*
X41254*
Y54656*
Y55541D02*
X41817D01*
Y56104*
X41254*
Y55541*
X41817*
Y56104*
X41254*
Y55541*
Y56427D02*
X41817D01*
Y56990*
X41254*
Y56427*
X41817*
Y56990*
X41254*
Y56427*
Y57313D02*
X41817D01*
Y57876*
X41254*
Y57313*
X41817*
Y57876*
X41254*
Y57313*
Y58199D02*
X41817D01*
Y58762*
X41254*
Y58199*
X41817*
Y58762*
X41254*
Y58199*
Y59085D02*
X41817D01*
Y59648*
X41254*
Y59085*
X41817*
Y59648*
X41254*
Y59085*
Y59970D02*
X41817D01*
Y60533*
X41254*
Y59970*
X41817*
Y60533*
X41254*
Y59970*
Y60856D02*
X41817D01*
Y61419*
X41254*
Y60856*
X41817*
Y61419*
X41254*
Y60856*
X43026Y19222D02*
X43589D01*
Y19785*
X43026*
Y19222*
X43589*
Y19785*
X43026*
Y19222*
Y20108D02*
X43589D01*
Y20671*
X43026*
Y20108*
X43589*
Y20671*
X43026*
Y20108*
Y20994D02*
X43589D01*
Y21557*
X43026*
Y20994*
X43589*
Y21557*
X43026*
Y20994*
Y21880D02*
X43589D01*
Y22443*
X43026*
Y21880*
X43589*
Y22443*
X43026*
Y21880*
Y22766D02*
X43589D01*
Y23329*
X43026*
Y22766*
X43589*
Y23329*
X43026*
Y22766*
Y23652D02*
X43589D01*
Y24215*
X43026*
Y23652*
X43589*
Y24215*
X43026*
Y23652*
Y24537D02*
X43589D01*
Y25100*
X43026*
Y24537*
X43589*
Y25100*
X43026*
Y24537*
Y25423D02*
X43589D01*
Y25986*
X43026*
Y25423*
X43589*
Y25986*
X43026*
Y25423*
Y26309D02*
X43589D01*
Y26872*
X43026*
Y26309*
X43589*
Y26872*
X43026*
Y26309*
Y27195D02*
X43589D01*
Y27758*
X43026*
Y27195*
X43589*
Y27758*
X43026*
Y27195*
Y28081D02*
X43589D01*
Y28644*
X43026*
Y28081*
X43589*
Y28644*
X43026*
Y28081*
Y28967D02*
X43589D01*
Y29530*
X43026*
Y28967*
X43589*
Y29530*
X43026*
Y28967*
Y29852D02*
X43589D01*
Y30415*
X43026*
Y29852*
X43589*
Y30415*
X43026*
Y29852*
Y30738D02*
X43589D01*
Y31301*
X43026*
Y30738*
X43589*
Y31301*
X43026*
Y30738*
Y31624D02*
X43589D01*
Y32187*
X43026*
Y31624*
X43589*
Y32187*
X43026*
Y31624*
Y32510D02*
X43589D01*
Y33073*
X43026*
Y32510*
X43589*
Y33073*
X43026*
Y32510*
Y33396D02*
X43589D01*
Y33959*
X43026*
Y33396*
X43589*
Y33959*
X43026*
Y33396*
Y34281D02*
X43589D01*
Y34844*
X43026*
Y34281*
X43589*
Y34844*
X43026*
Y34281*
Y35167D02*
X43589D01*
Y35730*
X43026*
Y35167*
X43589*
Y35730*
X43026*
Y35167*
Y36053D02*
X43589D01*
Y36616*
X43026*
Y36053*
X43589*
Y36616*
X43026*
Y36053*
Y36939D02*
X43589D01*
Y37502*
X43026*
Y36939*
X43589*
Y37502*
X43026*
Y36939*
Y37825D02*
X43589D01*
Y38388*
X43026*
Y37825*
X43589*
Y38388*
X43026*
Y37825*
Y38711D02*
X43589D01*
Y39274*
X43026*
Y38711*
X43589*
Y39274*
X43026*
Y38711*
Y39596D02*
X43589D01*
Y40159*
X43026*
Y39596*
X43589*
Y40159*
X43026*
Y39596*
Y40482D02*
X43589D01*
Y41045*
X43026*
Y40482*
X43589*
Y41045*
X43026*
Y40482*
Y41368D02*
X43589D01*
Y41931*
X43026*
Y41368*
X43589*
Y41931*
X43026*
Y41368*
Y42254D02*
X43589D01*
Y42817*
X43026*
Y42254*
X43589*
Y42817*
X43026*
Y42254*
Y43140D02*
X43589D01*
Y43703*
X43026*
Y43140*
X43589*
Y43703*
X43026*
Y43140*
Y44026D02*
X43589D01*
Y44589*
X43026*
Y44026*
X43589*
Y44589*
X43026*
Y44026*
Y44911D02*
X43589D01*
Y45474*
X43026*
Y44911*
X43589*
Y45474*
X43026*
Y44911*
Y45797D02*
X43589D01*
Y46360*
X43026*
Y45797*
X43589*
Y46360*
X43026*
Y45797*
Y46683D02*
X43589D01*
Y47246*
X43026*
Y46683*
X43589*
Y47246*
X43026*
Y46683*
Y47569D02*
X43589D01*
Y48132*
X43026*
Y47569*
X43589*
Y48132*
X43026*
Y47569*
Y48455D02*
X43589D01*
Y49018*
X43026*
Y48455*
X43589*
Y49018*
X43026*
Y48455*
Y49341D02*
X43589D01*
Y49904*
X43026*
Y49341*
X43589*
Y49904*
X43026*
Y49341*
Y50226D02*
X43589D01*
Y50789*
X43026*
Y50226*
X43589*
Y50789*
X43026*
Y50226*
Y51112D02*
X43589D01*
Y51675*
X43026*
Y51112*
X43589*
Y51675*
X43026*
Y51112*
Y51998D02*
X43589D01*
Y52561*
X43026*
Y51998*
X43589*
Y52561*
X43026*
Y51998*
Y52884D02*
X43589D01*
Y53447*
X43026*
Y52884*
X43589*
Y53447*
X43026*
Y52884*
Y53770D02*
X43589D01*
Y54333*
X43026*
Y53770*
X43589*
Y54333*
X43026*
Y53770*
Y54656D02*
X43589D01*
Y55219*
X43026*
Y54656*
X43589*
Y55219*
X43026*
Y54656*
Y55541D02*
X43589D01*
Y56104*
X43026*
Y55541*
X43589*
Y56104*
X43026*
Y55541*
Y56427D02*
X43589D01*
Y56990*
X43026*
Y56427*
X43589*
Y56990*
X43026*
Y56427*
Y57313D02*
X43589D01*
Y57876*
X43026*
Y57313*
X43589*
Y57876*
X43026*
Y57313*
Y58199D02*
X43589D01*
Y58762*
X43026*
Y58199*
X43589*
Y58762*
X43026*
Y58199*
Y59085D02*
X43589D01*
Y59648*
X43026*
Y59085*
X43589*
Y59648*
X43026*
Y59085*
Y59970D02*
X43589D01*
Y60533*
X43026*
Y59970*
X43589*
Y60533*
X43026*
Y59970*
Y60856D02*
X43589D01*
Y61419*
X43026*
Y60856*
X43589*
Y61419*
X43026*
Y60856*
X44797Y19222D02*
X45360D01*
Y19785*
X44797*
Y19222*
X45360*
Y19785*
X44797*
Y19222*
Y20108D02*
X45360D01*
Y20671*
X44797*
Y20108*
X45360*
Y20671*
X44797*
Y20108*
Y20994D02*
X45360D01*
Y21557*
X44797*
Y20994*
X45360*
Y21557*
X44797*
Y20994*
Y21880D02*
X45360D01*
Y22443*
X44797*
Y21880*
X45360*
Y22443*
X44797*
Y21880*
Y22766D02*
X45360D01*
Y23329*
X44797*
Y22766*
X45360*
Y23329*
X44797*
Y22766*
Y23652D02*
X45360D01*
Y24215*
X44797*
Y23652*
X45360*
Y24215*
X44797*
Y23652*
Y24537D02*
X45360D01*
Y25100*
X44797*
Y24537*
X45360*
Y25100*
X44797*
Y24537*
Y25423D02*
X45360D01*
Y25986*
X44797*
Y25423*
X45360*
Y25986*
X44797*
Y25423*
Y26309D02*
X45360D01*
Y26872*
X44797*
Y26309*
X45360*
Y26872*
X44797*
Y26309*
Y27195D02*
X45360D01*
Y27758*
X44797*
Y27195*
X45360*
Y27758*
X44797*
Y27195*
Y28081D02*
X45360D01*
Y28644*
X44797*
Y28081*
X45360*
Y28644*
X44797*
Y28081*
Y28967D02*
X45360D01*
Y29530*
X44797*
Y28967*
X45360*
Y29530*
X44797*
Y28967*
Y29852D02*
X45360D01*
Y30415*
X44797*
Y29852*
X45360*
Y30415*
X44797*
Y29852*
Y30738D02*
X45360D01*
Y31301*
X44797*
Y30738*
X45360*
Y31301*
X44797*
Y30738*
Y31624D02*
X45360D01*
Y32187*
X44797*
Y31624*
X45360*
Y32187*
X44797*
Y31624*
Y32510D02*
X45360D01*
Y33073*
X44797*
Y32510*
X45360*
Y33073*
X44797*
Y32510*
Y33396D02*
X45360D01*
Y33959*
X44797*
Y33396*
X45360*
Y33959*
X44797*
Y33396*
Y34281D02*
X45360D01*
Y34844*
X44797*
Y34281*
X45360*
Y34844*
X44797*
Y34281*
Y35167D02*
X45360D01*
Y35730*
X44797*
Y35167*
X45360*
Y35730*
X44797*
Y35167*
Y36053D02*
X45360D01*
Y36616*
X44797*
Y36053*
X45360*
Y36616*
X44797*
Y36053*
Y36939D02*
X45360D01*
Y37502*
X44797*
Y36939*
X45360*
Y37502*
X44797*
Y36939*
Y37825D02*
X45360D01*
Y38388*
X44797*
Y37825*
X45360*
Y38388*
X44797*
Y37825*
Y38711D02*
X45360D01*
Y39274*
X44797*
Y38711*
X45360*
Y39274*
X44797*
Y38711*
Y39596D02*
X45360D01*
Y40159*
X44797*
Y39596*
X45360*
Y40159*
X44797*
Y39596*
Y40482D02*
X45360D01*
Y41045*
X44797*
Y40482*
X45360*
Y41045*
X44797*
Y40482*
Y41368D02*
X45360D01*
Y41931*
X44797*
Y41368*
X45360*
Y41931*
X44797*
Y41368*
Y42254D02*
X45360D01*
Y42817*
X44797*
Y42254*
X45360*
Y42817*
X44797*
Y42254*
Y43140D02*
X45360D01*
Y43703*
X44797*
Y43140*
X45360*
Y43703*
X44797*
Y43140*
Y44026D02*
X45360D01*
Y44589*
X44797*
Y44026*
X45360*
Y44589*
X44797*
Y44026*
Y44911D02*
X45360D01*
Y45474*
X44797*
Y44911*
X45360*
Y45474*
X44797*
Y44911*
Y45797D02*
X45360D01*
Y46360*
X44797*
Y45797*
X45360*
Y46360*
X44797*
Y45797*
Y46683D02*
X45360D01*
Y47246*
X44797*
Y46683*
X45360*
Y47246*
X44797*
Y46683*
Y47569D02*
X45360D01*
Y48132*
X44797*
Y47569*
X45360*
Y48132*
X44797*
Y47569*
Y48455D02*
X45360D01*
Y49018*
X44797*
Y48455*
X45360*
Y49018*
X44797*
Y48455*
Y49341D02*
X45360D01*
Y49904*
X44797*
Y49341*
X45360*
Y49904*
X44797*
Y49341*
Y50226D02*
X45360D01*
Y50789*
X44797*
Y50226*
X45360*
Y50789*
X44797*
Y50226*
Y51112D02*
X45360D01*
Y51675*
X44797*
Y51112*
X45360*
Y51675*
X44797*
Y51112*
Y51998D02*
X45360D01*
Y52561*
X44797*
Y51998*
X45360*
Y52561*
X44797*
Y51998*
Y52884D02*
X45360D01*
Y53447*
X44797*
Y52884*
X45360*
Y53447*
X44797*
Y52884*
Y53770D02*
X45360D01*
Y54333*
X44797*
Y53770*
X45360*
Y54333*
X44797*
Y53770*
Y54656D02*
X45360D01*
Y55219*
X44797*
Y54656*
X45360*
Y55219*
X44797*
Y54656*
Y55541D02*
X45360D01*
Y56104*
X44797*
Y55541*
X45360*
Y56104*
X44797*
Y55541*
Y56427D02*
X45360D01*
Y56990*
X44797*
Y56427*
X45360*
Y56990*
X44797*
Y56427*
Y57313D02*
X45360D01*
Y57876*
X44797*
Y57313*
X45360*
Y57876*
X44797*
Y57313*
Y58199D02*
X45360D01*
Y58762*
X44797*
Y58199*
X45360*
Y58762*
X44797*
Y58199*
Y59085D02*
X45360D01*
Y59648*
X44797*
Y59085*
X45360*
Y59648*
X44797*
Y59085*
Y59970D02*
X45360D01*
Y60533*
X44797*
Y59970*
X45360*
Y60533*
X44797*
Y59970*
Y60856D02*
X45360D01*
Y61419*
X44797*
Y60856*
X45360*
Y61419*
X44797*
Y60856*
X46506Y64268D02*
X49774D01*
Y67535*
X46506*
Y64268*
X49774*
Y67535*
X46506*
Y64268*
X46569Y19222D02*
X47132D01*
Y19785*
X46569*
Y19222*
X47132*
Y19785*
X46569*
Y19222*
Y20108D02*
X47132D01*
Y20671*
X46569*
Y20108*
X47132*
Y20671*
X46569*
Y20108*
Y20994D02*
X47132D01*
Y21557*
X46569*
Y20994*
X47132*
Y21557*
X46569*
Y20994*
Y21880D02*
X47132D01*
Y22443*
X46569*
Y21880*
X47132*
Y22443*
X46569*
Y21880*
Y22766D02*
X47132D01*
Y23329*
X46569*
Y22766*
X47132*
Y23329*
X46569*
Y22766*
Y23652D02*
X47132D01*
Y24215*
X46569*
Y23652*
X47132*
Y24215*
X46569*
Y23652*
Y24537D02*
X47132D01*
Y25100*
X46569*
Y24537*
X47132*
Y25100*
X46569*
Y24537*
Y25423D02*
X47132D01*
Y25986*
X46569*
Y25423*
X47132*
Y25986*
X46569*
Y25423*
Y26309D02*
X47132D01*
Y26872*
X46569*
Y26309*
X47132*
Y26872*
X46569*
Y26309*
Y27195D02*
X47132D01*
Y27758*
X46569*
Y27195*
X47132*
Y27758*
X46569*
Y27195*
Y28081D02*
X47132D01*
Y28644*
X46569*
Y28081*
X47132*
Y28644*
X46569*
Y28081*
Y28967D02*
X47132D01*
Y29530*
X46569*
Y28967*
X47132*
Y29530*
X46569*
Y28967*
Y29852D02*
X47132D01*
Y30415*
X46569*
Y29852*
X47132*
Y30415*
X46569*
Y29852*
Y30738D02*
X47132D01*
Y31301*
X46569*
Y30738*
X47132*
Y31301*
X46569*
Y30738*
Y31624D02*
X47132D01*
Y32187*
X46569*
Y31624*
X47132*
Y32187*
X46569*
Y31624*
Y32510D02*
X47132D01*
Y33073*
X46569*
Y32510*
X47132*
Y33073*
X46569*
Y32510*
Y33396D02*
X47132D01*
Y33959*
X46569*
Y33396*
X47132*
Y33959*
X46569*
Y33396*
Y34281D02*
X47132D01*
Y34844*
X46569*
Y34281*
X47132*
Y34844*
X46569*
Y34281*
Y35167D02*
X47132D01*
Y35730*
X46569*
Y35167*
X47132*
Y35730*
X46569*
Y35167*
Y36053D02*
X47132D01*
Y36616*
X46569*
Y36053*
X47132*
Y36616*
X46569*
Y36053*
Y36939D02*
X47132D01*
Y37502*
X46569*
Y36939*
X47132*
Y37502*
X46569*
Y36939*
Y37825D02*
X47132D01*
Y38388*
X46569*
Y37825*
X47132*
Y38388*
X46569*
Y37825*
Y38711D02*
X47132D01*
Y39274*
X46569*
Y38711*
X47132*
Y39274*
X46569*
Y38711*
Y39596D02*
X47132D01*
Y40159*
X46569*
Y39596*
X47132*
Y40159*
X46569*
Y39596*
Y40482D02*
X47132D01*
Y41045*
X46569*
Y40482*
X47132*
Y41045*
X46569*
Y40482*
Y41368D02*
X47132D01*
Y41931*
X46569*
Y41368*
X47132*
Y41931*
X46569*
Y41368*
Y42254D02*
X47132D01*
Y42817*
X46569*
Y42254*
X47132*
Y42817*
X46569*
Y42254*
Y43140D02*
X47132D01*
Y43703*
X46569*
Y43140*
X47132*
Y43703*
X46569*
Y43140*
Y44026D02*
X47132D01*
Y44589*
X46569*
Y44026*
X47132*
Y44589*
X46569*
Y44026*
Y44911D02*
X47132D01*
Y45474*
X46569*
Y44911*
X47132*
Y45474*
X46569*
Y44911*
Y45797D02*
X47132D01*
Y46360*
X46569*
Y45797*
X47132*
Y46360*
X46569*
Y45797*
Y46683D02*
X47132D01*
Y47246*
X46569*
Y46683*
X47132*
Y47246*
X46569*
Y46683*
Y47569D02*
X47132D01*
Y48132*
X46569*
Y47569*
X47132*
Y48132*
X46569*
Y47569*
Y48455D02*
X47132D01*
Y49018*
X46569*
Y48455*
X47132*
Y49018*
X46569*
Y48455*
Y49341D02*
X47132D01*
Y49904*
X46569*
Y49341*
X47132*
Y49904*
X46569*
Y49341*
Y50226D02*
X47132D01*
Y50789*
X46569*
Y50226*
X47132*
Y50789*
X46569*
Y50226*
Y51112D02*
X47132D01*
Y51675*
X46569*
Y51112*
X47132*
Y51675*
X46569*
Y51112*
Y51998D02*
X47132D01*
Y52561*
X46569*
Y51998*
X47132*
Y52561*
X46569*
Y51998*
Y52884D02*
X47132D01*
Y53447*
X46569*
Y52884*
X47132*
Y53447*
X46569*
Y52884*
Y53770D02*
X47132D01*
Y54333*
X46569*
Y53770*
X47132*
Y54333*
X46569*
Y53770*
Y54656D02*
X47132D01*
Y55219*
X46569*
Y54656*
X47132*
Y55219*
X46569*
Y54656*
Y55541D02*
X47132D01*
Y56104*
X46569*
Y55541*
X47132*
Y56104*
X46569*
Y55541*
Y56427D02*
X47132D01*
Y56990*
X46569*
Y56427*
X47132*
Y56990*
X46569*
Y56427*
Y57313D02*
X47132D01*
Y57876*
X46569*
Y57313*
X47132*
Y57876*
X46569*
Y57313*
Y58199D02*
X47132D01*
Y58762*
X46569*
Y58199*
X47132*
Y58762*
X46569*
Y58199*
Y59085D02*
X47132D01*
Y59648*
X46569*
Y59085*
X47132*
Y59648*
X46569*
Y59085*
Y59970D02*
X47132D01*
Y60533*
X46569*
Y59970*
X47132*
Y60533*
X46569*
Y59970*
Y60856D02*
X47132D01*
Y61419*
X46569*
Y60856*
X47132*
Y61419*
X46569*
Y60856*
X48341Y19222D02*
X48904D01*
Y19785*
X48341*
Y19222*
X48904*
Y19785*
X48341*
Y19222*
Y20108D02*
X48904D01*
Y20671*
X48341*
Y20108*
X48904*
Y20671*
X48341*
Y20108*
Y20994D02*
X48904D01*
Y21557*
X48341*
Y20994*
X48904*
Y21557*
X48341*
Y20994*
Y21880D02*
X48904D01*
Y22443*
X48341*
Y21880*
X48904*
Y22443*
X48341*
Y21880*
Y22766D02*
X48904D01*
Y23329*
X48341*
Y22766*
X48904*
Y23329*
X48341*
Y22766*
Y23652D02*
X48904D01*
Y24215*
X48341*
Y23652*
X48904*
Y24215*
X48341*
Y23652*
Y24537D02*
X48904D01*
Y25100*
X48341*
Y24537*
X48904*
Y25100*
X48341*
Y24537*
Y25423D02*
X48904D01*
Y25986*
X48341*
Y25423*
X48904*
Y25986*
X48341*
Y25423*
Y26309D02*
X48904D01*
Y26872*
X48341*
Y26309*
X48904*
Y26872*
X48341*
Y26309*
Y27195D02*
X48904D01*
Y27758*
X48341*
Y27195*
X48904*
Y27758*
X48341*
Y27195*
Y28081D02*
X48904D01*
Y28644*
X48341*
Y28081*
X48904*
Y28644*
X48341*
Y28081*
Y28967D02*
X48904D01*
Y29530*
X48341*
Y28967*
X48904*
Y29530*
X48341*
Y28967*
Y29852D02*
X48904D01*
Y30415*
X48341*
Y29852*
X48904*
Y30415*
X48341*
Y29852*
Y30738D02*
X48904D01*
Y31301*
X48341*
Y30738*
X48904*
Y31301*
X48341*
Y30738*
Y31624D02*
X48904D01*
Y32187*
X48341*
Y31624*
X48904*
Y32187*
X48341*
Y31624*
Y32510D02*
X48904D01*
Y33073*
X48341*
Y32510*
X48904*
Y33073*
X48341*
Y32510*
Y33396D02*
X48904D01*
Y33959*
X48341*
Y33396*
X48904*
Y33959*
X48341*
Y33396*
Y34281D02*
X48904D01*
Y34844*
X48341*
Y34281*
X48904*
Y34844*
X48341*
Y34281*
Y35167D02*
X48904D01*
Y35730*
X48341*
Y35167*
X48904*
Y35730*
X48341*
Y35167*
Y36053D02*
X48904D01*
Y36616*
X48341*
Y36053*
X48904*
Y36616*
X48341*
Y36053*
Y36939D02*
X48904D01*
Y37502*
X48341*
Y36939*
X48904*
Y37502*
X48341*
Y36939*
Y37825D02*
X48904D01*
Y38388*
X48341*
Y37825*
X48904*
Y38388*
X48341*
Y37825*
Y38711D02*
X48904D01*
Y39274*
X48341*
Y38711*
X48904*
Y39274*
X48341*
Y38711*
Y39596D02*
X48904D01*
Y40159*
X48341*
Y39596*
X48904*
Y40159*
X48341*
Y39596*
Y40482D02*
X48904D01*
Y41045*
X48341*
Y40482*
X48904*
Y41045*
X48341*
Y40482*
Y41368D02*
X48904D01*
Y41931*
X48341*
Y41368*
X48904*
Y41931*
X48341*
Y41368*
Y42254D02*
X48904D01*
Y42817*
X48341*
Y42254*
X48904*
Y42817*
X48341*
Y42254*
Y43140D02*
X48904D01*
Y43703*
X48341*
Y43140*
X48904*
Y43703*
X48341*
Y43140*
Y44026D02*
X48904D01*
Y44589*
X48341*
Y44026*
X48904*
Y44589*
X48341*
Y44026*
Y44911D02*
X48904D01*
Y45474*
X48341*
Y44911*
X48904*
Y45474*
X48341*
Y44911*
Y45797D02*
X48904D01*
Y46360*
X48341*
Y45797*
X48904*
Y46360*
X48341*
Y45797*
Y46683D02*
X48904D01*
Y47246*
X48341*
Y46683*
X48904*
Y47246*
X48341*
Y46683*
Y47569D02*
X48904D01*
Y48132*
X48341*
Y47569*
X48904*
Y48132*
X48341*
Y47569*
Y48455D02*
X48904D01*
Y49018*
X48341*
Y48455*
X48904*
Y49018*
X48341*
Y48455*
Y49341D02*
X48904D01*
Y49904*
X48341*
Y49341*
X48904*
Y49904*
X48341*
Y49341*
Y50226D02*
X48904D01*
Y50789*
X48341*
Y50226*
X48904*
Y50789*
X48341*
Y50226*
Y51112D02*
X48904D01*
Y51675*
X48341*
Y51112*
X48904*
Y51675*
X48341*
Y51112*
Y51998D02*
X48904D01*
Y52561*
X48341*
Y51998*
X48904*
Y52561*
X48341*
Y51998*
Y52884D02*
X48904D01*
Y53447*
X48341*
Y52884*
X48904*
Y53447*
X48341*
Y52884*
Y53770D02*
X48904D01*
Y54333*
X48341*
Y53770*
X48904*
Y54333*
X48341*
Y53770*
Y54656D02*
X48904D01*
Y55219*
X48341*
Y54656*
X48904*
Y55219*
X48341*
Y54656*
Y55541D02*
X48904D01*
Y56104*
X48341*
Y55541*
X48904*
Y56104*
X48341*
Y55541*
Y56427D02*
X48904D01*
Y56990*
X48341*
Y56427*
X48904*
Y56990*
X48341*
Y56427*
Y57313D02*
X48904D01*
Y57876*
X48341*
Y57313*
X48904*
Y57876*
X48341*
Y57313*
Y58199D02*
X48904D01*
Y58762*
X48341*
Y58199*
X48904*
Y58762*
X48341*
Y58199*
Y59085D02*
X48904D01*
Y59648*
X48341*
Y59085*
X48904*
Y59648*
X48341*
Y59085*
Y59970D02*
X48904D01*
Y60533*
X48341*
Y59970*
X48904*
Y60533*
X48341*
Y59970*
Y60856D02*
X48904D01*
Y61419*
X48341*
Y60856*
X48904*
Y61419*
X48341*
Y60856*
X48551Y11185D02*
X51819D01*
Y14453*
X48551*
Y11185*
X51819*
Y14453*
X48551*
Y11185*
X50112Y19222D02*
X50675D01*
Y19785*
X50112*
Y19222*
X50675*
Y19785*
X50112*
Y19222*
Y20108D02*
X50675D01*
Y20671*
X50112*
Y20108*
X50675*
Y20671*
X50112*
Y20108*
Y20994D02*
X50675D01*
Y21557*
X50112*
Y20994*
X50675*
Y21557*
X50112*
Y20994*
Y21880D02*
X50675D01*
Y22443*
X50112*
Y21880*
X50675*
Y22443*
X50112*
Y21880*
Y22766D02*
X50675D01*
Y23329*
X50112*
Y22766*
X50675*
Y23329*
X50112*
Y22766*
Y23652D02*
X50675D01*
Y24215*
X50112*
Y23652*
X50675*
Y24215*
X50112*
Y23652*
Y24537D02*
X50675D01*
Y25100*
X50112*
Y24537*
X50675*
Y25100*
X50112*
Y24537*
Y25423D02*
X50675D01*
Y25986*
X50112*
Y25423*
X50675*
Y25986*
X50112*
Y25423*
Y26309D02*
X50675D01*
Y26872*
X50112*
Y26309*
X50675*
Y26872*
X50112*
Y26309*
Y27195D02*
X50675D01*
Y27758*
X50112*
Y27195*
X50675*
Y27758*
X50112*
Y27195*
Y28081D02*
X50675D01*
Y28644*
X50112*
Y28081*
X50675*
Y28644*
X50112*
Y28081*
Y28967D02*
X50675D01*
Y29530*
X50112*
Y28967*
X50675*
Y29530*
X50112*
Y28967*
Y29852D02*
X50675D01*
Y30415*
X50112*
Y29852*
X50675*
Y30415*
X50112*
Y29852*
Y30738D02*
X50675D01*
Y31301*
X50112*
Y30738*
X50675*
Y31301*
X50112*
Y30738*
Y31624D02*
X50675D01*
Y32187*
X50112*
Y31624*
X50675*
Y32187*
X50112*
Y31624*
Y32510D02*
X50675D01*
Y33073*
X50112*
Y32510*
X50675*
Y33073*
X50112*
Y32510*
Y33396D02*
X50675D01*
Y33959*
X50112*
Y33396*
X50675*
Y33959*
X50112*
Y33396*
Y34281D02*
X50675D01*
Y34844*
X50112*
Y34281*
X50675*
Y34844*
X50112*
Y34281*
Y35167D02*
X50675D01*
Y35730*
X50112*
Y35167*
X50675*
Y35730*
X50112*
Y35167*
Y36053D02*
X50675D01*
Y36616*
X50112*
Y36053*
X50675*
Y36616*
X50112*
Y36053*
Y36939D02*
X50675D01*
Y37502*
X50112*
Y36939*
X50675*
Y37502*
X50112*
Y36939*
Y37825D02*
X50675D01*
Y38388*
X50112*
Y37825*
X50675*
Y38388*
X50112*
Y37825*
Y38711D02*
X50675D01*
Y39274*
X50112*
Y38711*
X50675*
Y39274*
X50112*
Y38711*
Y39596D02*
X50675D01*
Y40159*
X50112*
Y39596*
X50675*
Y40159*
X50112*
Y39596*
Y40482D02*
X50675D01*
Y41045*
X50112*
Y40482*
X50675*
Y41045*
X50112*
Y40482*
Y41368D02*
X50675D01*
Y41931*
X50112*
Y41368*
X50675*
Y41931*
X50112*
Y41368*
Y42254D02*
X50675D01*
Y42817*
X50112*
Y42254*
X50675*
Y42817*
X50112*
Y42254*
Y43140D02*
X50675D01*
Y43703*
X50112*
Y43140*
X50675*
Y43703*
X50112*
Y43140*
Y44026D02*
X50675D01*
Y44589*
X50112*
Y44026*
X50675*
Y44589*
X50112*
Y44026*
Y44911D02*
X50675D01*
Y45474*
X50112*
Y44911*
X50675*
Y45474*
X50112*
Y44911*
Y45797D02*
X50675D01*
Y46360*
X50112*
Y45797*
X50675*
Y46360*
X50112*
Y45797*
Y46683D02*
X50675D01*
Y47246*
X50112*
Y46683*
X50675*
Y47246*
X50112*
Y46683*
Y47569D02*
X50675D01*
Y48132*
X50112*
Y47569*
X50675*
Y48132*
X50112*
Y47569*
Y48455D02*
X50675D01*
Y49018*
X50112*
Y48455*
X50675*
Y49018*
X50112*
Y48455*
Y49341D02*
X50675D01*
Y49904*
X50112*
Y49341*
X50675*
Y49904*
X50112*
Y49341*
Y50226D02*
X50675D01*
Y50789*
X50112*
Y50226*
X50675*
Y50789*
X50112*
Y50226*
Y51112D02*
X50675D01*
Y51675*
X50112*
Y51112*
X50675*
Y51675*
X50112*
Y51112*
Y51998D02*
X50675D01*
Y52561*
X50112*
Y51998*
X50675*
Y52561*
X50112*
Y51998*
Y52884D02*
X50675D01*
Y53447*
X50112*
Y52884*
X50675*
Y53447*
X50112*
Y52884*
Y53770D02*
X50675D01*
Y54333*
X50112*
Y53770*
X50675*
Y54333*
X50112*
Y53770*
Y54656D02*
X50675D01*
Y55219*
X50112*
Y54656*
X50675*
Y55219*
X50112*
Y54656*
Y55541D02*
X50675D01*
Y56104*
X50112*
Y55541*
X50675*
Y56104*
X50112*
Y55541*
Y56427D02*
X50675D01*
Y56990*
X50112*
Y56427*
X50675*
Y56990*
X50112*
Y56427*
Y57313D02*
X50675D01*
Y57876*
X50112*
Y57313*
X50675*
Y57876*
X50112*
Y57313*
Y58199D02*
X50675D01*
Y58762*
X50112*
Y58199*
X50675*
Y58762*
X50112*
Y58199*
Y59085D02*
X50675D01*
Y59648*
X50112*
Y59085*
X50675*
Y59648*
X50112*
Y59085*
Y59970D02*
X50675D01*
Y60533*
X50112*
Y59970*
X50675*
Y60533*
X50112*
Y59970*
Y60856D02*
X50675D01*
Y61419*
X50112*
Y60856*
X50675*
Y61419*
X50112*
Y60856*
X51884Y19222D02*
X52447D01*
Y19785*
X51884*
Y19222*
X52447*
Y19785*
X51884*
Y19222*
Y20108D02*
X52447D01*
Y20671*
X51884*
Y20108*
X52447*
Y20671*
X51884*
Y20108*
Y20994D02*
X52447D01*
Y21557*
X51884*
Y20994*
X52447*
Y21557*
X51884*
Y20994*
Y21880D02*
X52447D01*
Y22443*
X51884*
Y21880*
X52447*
Y22443*
X51884*
Y21880*
Y22766D02*
X52447D01*
Y23329*
X51884*
Y22766*
X52447*
Y23329*
X51884*
Y22766*
Y23652D02*
X52447D01*
Y24215*
X51884*
Y23652*
X52447*
Y24215*
X51884*
Y23652*
Y24537D02*
X52447D01*
Y25100*
X51884*
Y24537*
X52447*
Y25100*
X51884*
Y24537*
Y25423D02*
X52447D01*
Y25986*
X51884*
Y25423*
X52447*
Y25986*
X51884*
Y25423*
Y26309D02*
X52447D01*
Y26872*
X51884*
Y26309*
X52447*
Y26872*
X51884*
Y26309*
Y27195D02*
X52447D01*
Y27758*
X51884*
Y27195*
X52447*
Y27758*
X51884*
Y27195*
Y28081D02*
X52447D01*
Y28644*
X51884*
Y28081*
X52447*
Y28644*
X51884*
Y28081*
Y28967D02*
X52447D01*
Y29530*
X51884*
Y28967*
X52447*
Y29530*
X51884*
Y28967*
Y29852D02*
X52447D01*
Y30415*
X51884*
Y29852*
X52447*
Y30415*
X51884*
Y29852*
Y30738D02*
X52447D01*
Y31301*
X51884*
Y30738*
X52447*
Y31301*
X51884*
Y30738*
Y31624D02*
X52447D01*
Y32187*
X51884*
Y31624*
X52447*
Y32187*
X51884*
Y31624*
Y32510D02*
X52447D01*
Y33073*
X51884*
Y32510*
X52447*
Y33073*
X51884*
Y32510*
Y33396D02*
X52447D01*
Y33959*
X51884*
Y33396*
X52447*
Y33959*
X51884*
Y33396*
Y34281D02*
X52447D01*
Y34844*
X51884*
Y34281*
X52447*
Y34844*
X51884*
Y34281*
Y35167D02*
X52447D01*
Y35730*
X51884*
Y35167*
X52447*
Y35730*
X51884*
Y35167*
Y36053D02*
X52447D01*
Y36616*
X51884*
Y36053*
X52447*
Y36616*
X51884*
Y36053*
Y36939D02*
X52447D01*
Y37502*
X51884*
Y36939*
X52447*
Y37502*
X51884*
Y36939*
Y37825D02*
X52447D01*
Y38388*
X51884*
Y37825*
X52447*
Y38388*
X51884*
Y37825*
Y38711D02*
X52447D01*
Y39274*
X51884*
Y38711*
X52447*
Y39274*
X51884*
Y38711*
Y39596D02*
X52447D01*
Y40159*
X51884*
Y39596*
X52447*
Y40159*
X51884*
Y39596*
Y40482D02*
X52447D01*
Y41045*
X51884*
Y40482*
X52447*
Y41045*
X51884*
Y40482*
Y41368D02*
X52447D01*
Y41931*
X51884*
Y41368*
X52447*
Y41931*
X51884*
Y41368*
Y42254D02*
X52447D01*
Y42817*
X51884*
Y42254*
X52447*
Y42817*
X51884*
Y42254*
Y43140D02*
X52447D01*
Y43703*
X51884*
Y43140*
X52447*
Y43703*
X51884*
Y43140*
Y44026D02*
X52447D01*
Y44589*
X51884*
Y44026*
X52447*
Y44589*
X51884*
Y44026*
Y44911D02*
X52447D01*
Y45474*
X51884*
Y44911*
X52447*
Y45474*
X51884*
Y44911*
Y45797D02*
X52447D01*
Y46360*
X51884*
Y45797*
X52447*
Y46360*
X51884*
Y45797*
Y46683D02*
X52447D01*
Y47246*
X51884*
Y46683*
X52447*
Y47246*
X51884*
Y46683*
Y47569D02*
X52447D01*
Y48132*
X51884*
Y47569*
X52447*
Y48132*
X51884*
Y47569*
Y48455D02*
X52447D01*
Y49018*
X51884*
Y48455*
X52447*
Y49018*
X51884*
Y48455*
Y49341D02*
X52447D01*
Y49904*
X51884*
Y49341*
X52447*
Y49904*
X51884*
Y49341*
Y50226D02*
X52447D01*
Y50789*
X51884*
Y50226*
X52447*
Y50789*
X51884*
Y50226*
Y51112D02*
X52447D01*
Y51675*
X51884*
Y51112*
X52447*
Y51675*
X51884*
Y51112*
Y51998D02*
X52447D01*
Y52561*
X51884*
Y51998*
X52447*
Y52561*
X51884*
Y51998*
Y52884D02*
X52447D01*
Y53447*
X51884*
Y52884*
X52447*
Y53447*
X51884*
Y52884*
Y53770D02*
X52447D01*
Y54333*
X51884*
Y53770*
X52447*
Y54333*
X51884*
Y53770*
Y54656D02*
X52447D01*
Y55219*
X51884*
Y54656*
X52447*
Y55219*
X51884*
Y54656*
Y55541D02*
X52447D01*
Y56104*
X51884*
Y55541*
X52447*
Y56104*
X51884*
Y55541*
Y56427D02*
X52447D01*
Y56990*
X51884*
Y56427*
X52447*
Y56990*
X51884*
Y56427*
Y57313D02*
X52447D01*
Y57876*
X51884*
Y57313*
X52447*
Y57876*
X51884*
Y57313*
Y58199D02*
X52447D01*
Y58762*
X51884*
Y58199*
X52447*
Y58762*
X51884*
Y58199*
Y59085D02*
X52447D01*
Y59648*
X51884*
Y59085*
X52447*
Y59648*
X51884*
Y59085*
Y59970D02*
X52447D01*
Y60533*
X51884*
Y59970*
X52447*
Y60533*
X51884*
Y59970*
Y60856D02*
X52447D01*
Y61419*
X51884*
Y60856*
X52447*
Y61419*
X51884*
Y60856*
X53656Y19222D02*
X54219D01*
Y19785*
X53656*
Y19222*
X54219*
Y19785*
X53656*
Y19222*
Y20108D02*
X54219D01*
Y20671*
X53656*
Y20108*
X54219*
Y20671*
X53656*
Y20108*
Y20994D02*
X54219D01*
Y21557*
X53656*
Y20994*
X54219*
Y21557*
X53656*
Y20994*
Y21880D02*
X54219D01*
Y22443*
X53656*
Y21880*
X54219*
Y22443*
X53656*
Y21880*
Y22766D02*
X54219D01*
Y23329*
X53656*
Y22766*
X54219*
Y23329*
X53656*
Y22766*
Y23652D02*
X54219D01*
Y24215*
X53656*
Y23652*
X54219*
Y24215*
X53656*
Y23652*
Y24537D02*
X54219D01*
Y25100*
X53656*
Y24537*
X54219*
Y25100*
X53656*
Y24537*
Y25423D02*
X54219D01*
Y25986*
X53656*
Y25423*
X54219*
Y25986*
X53656*
Y25423*
Y26309D02*
X54219D01*
Y26872*
X53656*
Y26309*
X54219*
Y26872*
X53656*
Y26309*
Y27195D02*
X54219D01*
Y27758*
X53656*
Y27195*
X54219*
Y27758*
X53656*
Y27195*
Y28081D02*
X54219D01*
Y28644*
X53656*
Y28081*
X54219*
Y28644*
X53656*
Y28081*
Y28967D02*
X54219D01*
Y29530*
X53656*
Y28967*
X54219*
Y29530*
X53656*
Y28967*
Y29852D02*
X54219D01*
Y30415*
X53656*
Y29852*
X54219*
Y30415*
X53656*
Y29852*
Y30738D02*
X54219D01*
Y31301*
X53656*
Y30738*
X54219*
Y31301*
X53656*
Y30738*
Y31624D02*
X54219D01*
Y32187*
X53656*
Y31624*
X54219*
Y32187*
X53656*
Y31624*
Y32510D02*
X54219D01*
Y33073*
X53656*
Y32510*
X54219*
Y33073*
X53656*
Y32510*
Y33396D02*
X54219D01*
Y33959*
X53656*
Y33396*
X54219*
Y33959*
X53656*
Y33396*
Y34281D02*
X54219D01*
Y34844*
X53656*
Y34281*
X54219*
Y34844*
X53656*
Y34281*
Y35167D02*
X54219D01*
Y35730*
X53656*
Y35167*
X54219*
Y35730*
X53656*
Y35167*
Y36053D02*
X54219D01*
Y36616*
X53656*
Y36053*
X54219*
Y36616*
X53656*
Y36053*
Y36939D02*
X54219D01*
Y37502*
X53656*
Y36939*
X54219*
Y37502*
X53656*
Y36939*
Y37825D02*
X54219D01*
Y38388*
X53656*
Y37825*
X54219*
Y38388*
X53656*
Y37825*
Y38711D02*
X54219D01*
Y39274*
X53656*
Y38711*
X54219*
Y39274*
X53656*
Y38711*
Y39596D02*
X54219D01*
Y40159*
X53656*
Y39596*
X54219*
Y40159*
X53656*
Y39596*
Y40482D02*
X54219D01*
Y41045*
X53656*
Y40482*
X54219*
Y41045*
X53656*
Y40482*
Y41368D02*
X54219D01*
Y41931*
X53656*
Y41368*
X54219*
Y41931*
X53656*
Y41368*
Y42254D02*
X54219D01*
Y42817*
X53656*
Y42254*
X54219*
Y42817*
X53656*
Y42254*
Y43140D02*
X54219D01*
Y43703*
X53656*
Y43140*
X54219*
Y43703*
X53656*
Y43140*
Y44026D02*
X54219D01*
Y44589*
X53656*
Y44026*
X54219*
Y44589*
X53656*
Y44026*
Y44911D02*
X54219D01*
Y45474*
X53656*
Y44911*
X54219*
Y45474*
X53656*
Y44911*
Y45797D02*
X54219D01*
Y46360*
X53656*
Y45797*
X54219*
Y46360*
X53656*
Y45797*
Y46683D02*
X54219D01*
Y47246*
X53656*
Y46683*
X54219*
Y47246*
X53656*
Y46683*
Y47569D02*
X54219D01*
Y48132*
X53656*
Y47569*
X54219*
Y48132*
X53656*
Y47569*
Y48455D02*
X54219D01*
Y49018*
X53656*
Y48455*
X54219*
Y49018*
X53656*
Y48455*
Y49341D02*
X54219D01*
Y49904*
X53656*
Y49341*
X54219*
Y49904*
X53656*
Y49341*
Y50226D02*
X54219D01*
Y50789*
X53656*
Y50226*
X54219*
Y50789*
X53656*
Y50226*
Y51112D02*
X54219D01*
Y51675*
X53656*
Y51112*
X54219*
Y51675*
X53656*
Y51112*
Y51998D02*
X54219D01*
Y52561*
X53656*
Y51998*
X54219*
Y52561*
X53656*
Y51998*
Y52884D02*
X54219D01*
Y53447*
X53656*
Y52884*
X54219*
Y53447*
X53656*
Y52884*
Y53770D02*
X54219D01*
Y54333*
X53656*
Y53770*
X54219*
Y54333*
X53656*
Y53770*
Y54656D02*
X54219D01*
Y55219*
X53656*
Y54656*
X54219*
Y55219*
X53656*
Y54656*
Y55541D02*
X54219D01*
Y56104*
X53656*
Y55541*
X54219*
Y56104*
X53656*
Y55541*
Y56427D02*
X54219D01*
Y56990*
X53656*
Y56427*
X54219*
Y56990*
X53656*
Y56427*
Y57313D02*
X54219D01*
Y57876*
X53656*
Y57313*
X54219*
Y57876*
X53656*
Y57313*
Y58199D02*
X54219D01*
Y58762*
X53656*
Y58199*
X54219*
Y58762*
X53656*
Y58199*
Y59085D02*
X54219D01*
Y59648*
X53656*
Y59085*
X54219*
Y59648*
X53656*
Y59085*
Y59970D02*
X54219D01*
Y60533*
X53656*
Y59970*
X54219*
Y60533*
X53656*
Y59970*
Y60856D02*
X54219D01*
Y61419*
X53656*
Y60856*
X54219*
Y61419*
X53656*
Y60856*
X54026Y64268D02*
X57293D01*
Y67535*
X54026*
Y64268*
X57293*
Y67535*
X54026*
Y64268*
X55427Y19222D02*
X55990D01*
Y19785*
X55427*
Y19222*
X55990*
Y19785*
X55427*
Y19222*
Y20108D02*
X55990D01*
Y20671*
X55427*
Y20108*
X55990*
Y20671*
X55427*
Y20108*
Y20994D02*
X55990D01*
Y21557*
X55427*
Y20994*
X55990*
Y21557*
X55427*
Y20994*
Y21880D02*
X55990D01*
Y22443*
X55427*
Y21880*
X55990*
Y22443*
X55427*
Y21880*
Y22766D02*
X55990D01*
Y23329*
X55427*
Y22766*
X55990*
Y23329*
X55427*
Y22766*
Y23652D02*
X55990D01*
Y24215*
X55427*
Y23652*
X55990*
Y24215*
X55427*
Y23652*
Y24537D02*
X55990D01*
Y25100*
X55427*
Y24537*
X55990*
Y25100*
X55427*
Y24537*
Y25423D02*
X55990D01*
Y25986*
X55427*
Y25423*
X55990*
Y25986*
X55427*
Y25423*
Y26309D02*
X55990D01*
Y26872*
X55427*
Y26309*
X55990*
Y26872*
X55427*
Y26309*
Y27195D02*
X55990D01*
Y27758*
X55427*
Y27195*
X55990*
Y27758*
X55427*
Y27195*
Y28081D02*
X55990D01*
Y28644*
X55427*
Y28081*
X55990*
Y28644*
X55427*
Y28081*
Y28967D02*
X55990D01*
Y29530*
X55427*
Y28967*
X55990*
Y29530*
X55427*
Y28967*
Y29852D02*
X55990D01*
Y30415*
X55427*
Y29852*
X55990*
Y30415*
X55427*
Y29852*
Y30738D02*
X55990D01*
Y31301*
X55427*
Y30738*
X55990*
Y31301*
X55427*
Y30738*
Y31624D02*
X55990D01*
Y32187*
X55427*
Y31624*
X55990*
Y32187*
X55427*
Y31624*
Y32510D02*
X55990D01*
Y33073*
X55427*
Y32510*
X55990*
Y33073*
X55427*
Y32510*
Y33396D02*
X55990D01*
Y33959*
X55427*
Y33396*
X55990*
Y33959*
X55427*
Y33396*
Y34281D02*
X55990D01*
Y34844*
X55427*
Y34281*
X55990*
Y34844*
X55427*
Y34281*
Y35167D02*
X55990D01*
Y35730*
X55427*
Y35167*
X55990*
Y35730*
X55427*
Y35167*
Y36053D02*
X55990D01*
Y36616*
X55427*
Y36053*
X55990*
Y36616*
X55427*
Y36053*
Y36939D02*
X55990D01*
Y37502*
X55427*
Y36939*
X55990*
Y37502*
X55427*
Y36939*
Y37825D02*
X55990D01*
Y38388*
X55427*
Y37825*
X55990*
Y38388*
X55427*
Y37825*
Y38711D02*
X55990D01*
Y39274*
X55427*
Y38711*
X55990*
Y39274*
X55427*
Y38711*
Y39596D02*
X55990D01*
Y40159*
X55427*
Y39596*
X55990*
Y40159*
X55427*
Y39596*
Y40482D02*
X55990D01*
Y41045*
X55427*
Y40482*
X55990*
Y41045*
X55427*
Y40482*
Y41368D02*
X55990D01*
Y41931*
X55427*
Y41368*
X55990*
Y41931*
X55427*
Y41368*
Y42254D02*
X55990D01*
Y42817*
X55427*
Y42254*
X55990*
Y42817*
X55427*
Y42254*
Y43140D02*
X55990D01*
Y43703*
X55427*
Y43140*
X55990*
Y43703*
X55427*
Y43140*
Y44026D02*
X55990D01*
Y44589*
X55427*
Y44026*
X55990*
Y44589*
X55427*
Y44026*
Y44911D02*
X55990D01*
Y45474*
X55427*
Y44911*
X55990*
Y45474*
X55427*
Y44911*
Y45797D02*
X55990D01*
Y46360*
X55427*
Y45797*
X55990*
Y46360*
X55427*
Y45797*
Y46683D02*
X55990D01*
Y47246*
X55427*
Y46683*
X55990*
Y47246*
X55427*
Y46683*
Y47569D02*
X55990D01*
Y48132*
X55427*
Y47569*
X55990*
Y48132*
X55427*
Y47569*
Y48455D02*
X55990D01*
Y49018*
X55427*
Y48455*
X55990*
Y49018*
X55427*
Y48455*
Y49341D02*
X55990D01*
Y49904*
X55427*
Y49341*
X55990*
Y49904*
X55427*
Y49341*
Y50226D02*
X55990D01*
Y50789*
X55427*
Y50226*
X55990*
Y50789*
X55427*
Y50226*
Y51112D02*
X55990D01*
Y51675*
X55427*
Y51112*
X55990*
Y51675*
X55427*
Y51112*
Y51998D02*
X55990D01*
Y52561*
X55427*
Y51998*
X55990*
Y52561*
X55427*
Y51998*
Y52884D02*
X55990D01*
Y53447*
X55427*
Y52884*
X55990*
Y53447*
X55427*
Y52884*
Y53770D02*
X55990D01*
Y54333*
X55427*
Y53770*
X55990*
Y54333*
X55427*
Y53770*
Y54656D02*
X55990D01*
Y55219*
X55427*
Y54656*
X55990*
Y55219*
X55427*
Y54656*
Y55541D02*
X55990D01*
Y56104*
X55427*
Y55541*
X55990*
Y56104*
X55427*
Y55541*
Y56427D02*
X55990D01*
Y56990*
X55427*
Y56427*
X55990*
Y56990*
X55427*
Y56427*
Y57313D02*
X55990D01*
Y57876*
X55427*
Y57313*
X55990*
Y57876*
X55427*
Y57313*
Y58199D02*
X55990D01*
Y58762*
X55427*
Y58199*
X55990*
Y58762*
X55427*
Y58199*
Y59085D02*
X55990D01*
Y59648*
X55427*
Y59085*
X55990*
Y59648*
X55427*
Y59085*
Y59970D02*
X55990D01*
Y60533*
X55427*
Y59970*
X55990*
Y60533*
X55427*
Y59970*
Y60856D02*
X55990D01*
Y61419*
X55427*
Y60856*
X55990*
Y61419*
X55427*
Y60856*
X57199Y19222D02*
X57762D01*
Y19785*
X57199*
Y19222*
X57762*
Y19785*
X57199*
Y19222*
Y20108D02*
X57762D01*
Y20671*
X57199*
Y20108*
X57762*
Y20671*
X57199*
Y20108*
Y20994D02*
X57762D01*
Y21557*
X57199*
Y20994*
X57762*
Y21557*
X57199*
Y20994*
Y21880D02*
X57762D01*
Y22443*
X57199*
Y21880*
X57762*
Y22443*
X57199*
Y21880*
Y22766D02*
X57762D01*
Y23329*
X57199*
Y22766*
X57762*
Y23329*
X57199*
Y22766*
Y23652D02*
X57762D01*
Y24215*
X57199*
Y23652*
X57762*
Y24215*
X57199*
Y23652*
Y24537D02*
X57762D01*
Y25100*
X57199*
Y24537*
X57762*
Y25100*
X57199*
Y24537*
Y25423D02*
X57762D01*
Y25986*
X57199*
Y25423*
X57762*
Y25986*
X57199*
Y25423*
Y26309D02*
X57762D01*
Y26872*
X57199*
Y26309*
X57762*
Y26872*
X57199*
Y26309*
Y27195D02*
X57762D01*
Y27758*
X57199*
Y27195*
X57762*
Y27758*
X57199*
Y27195*
Y28081D02*
X57762D01*
Y28644*
X57199*
Y28081*
X57762*
Y28644*
X57199*
Y28081*
Y28967D02*
X57762D01*
Y29530*
X57199*
Y28967*
X57762*
Y29530*
X57199*
Y28967*
Y29852D02*
X57762D01*
Y30415*
X57199*
Y29852*
X57762*
Y30415*
X57199*
Y29852*
Y30738D02*
X57762D01*
Y31301*
X57199*
Y30738*
X57762*
Y31301*
X57199*
Y30738*
Y31624D02*
X57762D01*
Y32187*
X57199*
Y31624*
X57762*
Y32187*
X57199*
Y31624*
Y32510D02*
X57762D01*
Y33073*
X57199*
Y32510*
X57762*
Y33073*
X57199*
Y32510*
Y33396D02*
X57762D01*
Y33959*
X57199*
Y33396*
X57762*
Y33959*
X57199*
Y33396*
Y34281D02*
X57762D01*
Y34844*
X57199*
Y34281*
X57762*
Y34844*
X57199*
Y34281*
Y35167D02*
X57762D01*
Y35730*
X57199*
Y35167*
X57762*
Y35730*
X57199*
Y35167*
Y36053D02*
X57762D01*
Y36616*
X57199*
Y36053*
X57762*
Y36616*
X57199*
Y36053*
Y36939D02*
X57762D01*
Y37502*
X57199*
Y36939*
X57762*
Y37502*
X57199*
Y36939*
Y37825D02*
X57762D01*
Y38388*
X57199*
Y37825*
X57762*
Y38388*
X57199*
Y37825*
Y38711D02*
X57762D01*
Y39274*
X57199*
Y38711*
X57762*
Y39274*
X57199*
Y38711*
Y39596D02*
X57762D01*
Y40159*
X57199*
Y39596*
X57762*
Y40159*
X57199*
Y39596*
Y40482D02*
X57762D01*
Y41045*
X57199*
Y40482*
X57762*
Y41045*
X57199*
Y40482*
Y41368D02*
X57762D01*
Y41931*
X57199*
Y41368*
X57762*
Y41931*
X57199*
Y41368*
Y42254D02*
X57762D01*
Y42817*
X57199*
Y42254*
X57762*
Y42817*
X57199*
Y42254*
Y43140D02*
X57762D01*
Y43703*
X57199*
Y43140*
X57762*
Y43703*
X57199*
Y43140*
Y44026D02*
X57762D01*
Y44589*
X57199*
Y44026*
X57762*
Y44589*
X57199*
Y44026*
Y44911D02*
X57762D01*
Y45474*
X57199*
Y44911*
X57762*
Y45474*
X57199*
Y44911*
Y45797D02*
X57762D01*
Y46360*
X57199*
Y45797*
X57762*
Y46360*
X57199*
Y45797*
Y46683D02*
X57762D01*
Y47246*
X57199*
Y46683*
X57762*
Y47246*
X57199*
Y46683*
Y47569D02*
X57762D01*
Y48132*
X57199*
Y47569*
X57762*
Y48132*
X57199*
Y47569*
Y48455D02*
X57762D01*
Y49018*
X57199*
Y48455*
X57762*
Y49018*
X57199*
Y48455*
Y49341D02*
X57762D01*
Y49904*
X57199*
Y49341*
X57762*
Y49904*
X57199*
Y49341*
Y50226D02*
X57762D01*
Y50789*
X57199*
Y50226*
X57762*
Y50789*
X57199*
Y50226*
Y51112D02*
X57762D01*
Y51675*
X57199*
Y51112*
X57762*
Y51675*
X57199*
Y51112*
Y51998D02*
X57762D01*
Y52561*
X57199*
Y51998*
X57762*
Y52561*
X57199*
Y51998*
Y52884D02*
X57762D01*
Y53447*
X57199*
Y52884*
X57762*
Y53447*
X57199*
Y52884*
Y53770D02*
X57762D01*
Y54333*
X57199*
Y53770*
X57762*
Y54333*
X57199*
Y53770*
Y54656D02*
X57762D01*
Y55219*
X57199*
Y54656*
X57762*
Y55219*
X57199*
Y54656*
Y55541D02*
X57762D01*
Y56104*
X57199*
Y55541*
X57762*
Y56104*
X57199*
Y55541*
Y56427D02*
X57762D01*
Y56990*
X57199*
Y56427*
X57762*
Y56990*
X57199*
Y56427*
Y57313D02*
X57762D01*
Y57876*
X57199*
Y57313*
X57762*
Y57876*
X57199*
Y57313*
Y58199D02*
X57762D01*
Y58762*
X57199*
Y58199*
X57762*
Y58762*
X57199*
Y58199*
Y59085D02*
X57762D01*
Y59648*
X57199*
Y59085*
X57762*
Y59648*
X57199*
Y59085*
Y59970D02*
X57762D01*
Y60533*
X57199*
Y59970*
X57762*
Y60533*
X57199*
Y59970*
Y60856D02*
X57762D01*
Y61419*
X57199*
Y60856*
X57762*
Y61419*
X57199*
Y60856*
X58970Y19222D02*
X59533D01*
Y19785*
X58970*
Y19222*
X59533*
Y19785*
X58970*
Y19222*
Y20108D02*
X59533D01*
Y20671*
X58970*
Y20108*
X59533*
Y20671*
X58970*
Y20108*
Y20994D02*
X59533D01*
Y21557*
X58970*
Y20994*
X59533*
Y21557*
X58970*
Y20994*
Y21880D02*
X59533D01*
Y22443*
X58970*
Y21880*
X59533*
Y22443*
X58970*
Y21880*
Y22766D02*
X59533D01*
Y23329*
X58970*
Y22766*
X59533*
Y23329*
X58970*
Y22766*
Y23652D02*
X59533D01*
Y24215*
X58970*
Y23652*
X59533*
Y24215*
X58970*
Y23652*
Y24537D02*
X59533D01*
Y25100*
X58970*
Y24537*
X59533*
Y25100*
X58970*
Y24537*
Y25423D02*
X59533D01*
Y25986*
X58970*
Y25423*
X59533*
Y25986*
X58970*
Y25423*
Y26309D02*
X59533D01*
Y26872*
X58970*
Y26309*
X59533*
Y26872*
X58970*
Y26309*
Y27195D02*
X59533D01*
Y27758*
X58970*
Y27195*
X59533*
Y27758*
X58970*
Y27195*
Y28081D02*
X59533D01*
Y28644*
X58970*
Y28081*
X59533*
Y28644*
X58970*
Y28081*
Y28967D02*
X59533D01*
Y29530*
X58970*
Y28967*
X59533*
Y29530*
X58970*
Y28967*
Y29852D02*
X59533D01*
Y30415*
X58970*
Y29852*
X59533*
Y30415*
X58970*
Y29852*
Y30738D02*
X59533D01*
Y31301*
X58970*
Y30738*
X59533*
Y31301*
X58970*
Y30738*
Y31624D02*
X59533D01*
Y32187*
X58970*
Y31624*
X59533*
Y32187*
X58970*
Y31624*
Y32510D02*
X59533D01*
Y33073*
X58970*
Y32510*
X59533*
Y33073*
X58970*
Y32510*
Y33396D02*
X59533D01*
Y33959*
X58970*
Y33396*
X59533*
Y33959*
X58970*
Y33396*
Y34281D02*
X59533D01*
Y34844*
X58970*
Y34281*
X59533*
Y34844*
X58970*
Y34281*
Y35167D02*
X59533D01*
Y35730*
X58970*
Y35167*
X59533*
Y35730*
X58970*
Y35167*
Y36053D02*
X59533D01*
Y36616*
X58970*
Y36053*
X59533*
Y36616*
X58970*
Y36053*
Y36939D02*
X59533D01*
Y37502*
X58970*
Y36939*
X59533*
Y37502*
X58970*
Y36939*
Y37825D02*
X59533D01*
Y38388*
X58970*
Y37825*
X59533*
Y38388*
X58970*
Y37825*
Y38711D02*
X59533D01*
Y39274*
X58970*
Y38711*
X59533*
Y39274*
X58970*
Y38711*
Y39596D02*
X59533D01*
Y40159*
X58970*
Y39596*
X59533*
Y40159*
X58970*
Y39596*
Y40482D02*
X59533D01*
Y41045*
X58970*
Y40482*
X59533*
Y41045*
X58970*
Y40482*
Y41368D02*
X59533D01*
Y41931*
X58970*
Y41368*
X59533*
Y41931*
X58970*
Y41368*
Y42254D02*
X59533D01*
Y42817*
X58970*
Y42254*
X59533*
Y42817*
X58970*
Y42254*
Y43140D02*
X59533D01*
Y43703*
X58970*
Y43140*
X59533*
Y43703*
X58970*
Y43140*
Y44026D02*
X59533D01*
Y44589*
X58970*
Y44026*
X59533*
Y44589*
X58970*
Y44026*
Y44911D02*
X59533D01*
Y45474*
X58970*
Y44911*
X59533*
Y45474*
X58970*
Y44911*
Y45797D02*
X59533D01*
Y46360*
X58970*
Y45797*
X59533*
Y46360*
X58970*
Y45797*
Y46683D02*
X59533D01*
Y47246*
X58970*
Y46683*
X59533*
Y47246*
X58970*
Y46683*
Y47569D02*
X59533D01*
Y48132*
X58970*
Y47569*
X59533*
Y48132*
X58970*
Y47569*
Y48455D02*
X59533D01*
Y49018*
X58970*
Y48455*
X59533*
Y49018*
X58970*
Y48455*
Y49341D02*
X59533D01*
Y49904*
X58970*
Y49341*
X59533*
Y49904*
X58970*
Y49341*
Y50226D02*
X59533D01*
Y50789*
X58970*
Y50226*
X59533*
Y50789*
X58970*
Y50226*
Y51112D02*
X59533D01*
Y51675*
X58970*
Y51112*
X59533*
Y51675*
X58970*
Y51112*
Y51998D02*
X59533D01*
Y52561*
X58970*
Y51998*
X59533*
Y52561*
X58970*
Y51998*
Y52884D02*
X59533D01*
Y53447*
X58970*
Y52884*
X59533*
Y53447*
X58970*
Y52884*
Y53770D02*
X59533D01*
Y54333*
X58970*
Y53770*
X59533*
Y54333*
X58970*
Y53770*
Y54656D02*
X59533D01*
Y55219*
X58970*
Y54656*
X59533*
Y55219*
X58970*
Y54656*
Y55541D02*
X59533D01*
Y56104*
X58970*
Y55541*
X59533*
Y56104*
X58970*
Y55541*
Y56427D02*
X59533D01*
Y56990*
X58970*
Y56427*
X59533*
Y56990*
X58970*
Y56427*
Y57313D02*
X59533D01*
Y57876*
X58970*
Y57313*
X59533*
Y57876*
X58970*
Y57313*
Y58199D02*
X59533D01*
Y58762*
X58970*
Y58199*
X59533*
Y58762*
X58970*
Y58199*
Y59085D02*
X59533D01*
Y59648*
X58970*
Y59085*
X59533*
Y59648*
X58970*
Y59085*
Y59970D02*
X59533D01*
Y60533*
X58970*
Y59970*
X59533*
Y60533*
X58970*
Y59970*
Y60856D02*
X59533D01*
Y61419*
X58970*
Y60856*
X59533*
Y61419*
X58970*
Y60856*
X60679Y64268D02*
X63947D01*
Y67535*
X60679*
Y64268*
X63947*
Y67535*
X60679*
Y64268*
X60742Y19222D02*
X61305D01*
Y19785*
X60742*
Y19222*
X61305*
Y19785*
X60742*
Y19222*
Y20108D02*
X61305D01*
Y20671*
X60742*
Y20108*
X61305*
Y20671*
X60742*
Y20108*
Y20994D02*
X61305D01*
Y21557*
X60742*
Y20994*
X61305*
Y21557*
X60742*
Y20994*
Y21880D02*
X61305D01*
Y22443*
X60742*
Y21880*
X61305*
Y22443*
X60742*
Y21880*
Y22766D02*
X61305D01*
Y23329*
X60742*
Y22766*
X61305*
Y23329*
X60742*
Y22766*
Y23652D02*
X61305D01*
Y24215*
X60742*
Y23652*
X61305*
Y24215*
X60742*
Y23652*
Y24537D02*
X61305D01*
Y25100*
X60742*
Y24537*
X61305*
Y25100*
X60742*
Y24537*
Y25423D02*
X61305D01*
Y25986*
X60742*
Y25423*
X61305*
Y25986*
X60742*
Y25423*
Y26309D02*
X61305D01*
Y26872*
X60742*
Y26309*
X61305*
Y26872*
X60742*
Y26309*
Y27195D02*
X61305D01*
Y27758*
X60742*
Y27195*
X61305*
Y27758*
X60742*
Y27195*
Y28081D02*
X61305D01*
Y28644*
X60742*
Y28081*
X61305*
Y28644*
X60742*
Y28081*
Y28967D02*
X61305D01*
Y29530*
X60742*
Y28967*
X61305*
Y29530*
X60742*
Y28967*
Y29852D02*
X61305D01*
Y30415*
X60742*
Y29852*
X61305*
Y30415*
X60742*
Y29852*
Y30738D02*
X61305D01*
Y31301*
X60742*
Y30738*
X61305*
Y31301*
X60742*
Y30738*
Y31624D02*
X61305D01*
Y32187*
X60742*
Y31624*
X61305*
Y32187*
X60742*
Y31624*
Y32510D02*
X61305D01*
Y33073*
X60742*
Y32510*
X61305*
Y33073*
X60742*
Y32510*
Y33396D02*
X61305D01*
Y33959*
X60742*
Y33396*
X61305*
Y33959*
X60742*
Y33396*
Y34281D02*
X61305D01*
Y34844*
X60742*
Y34281*
X61305*
Y34844*
X60742*
Y34281*
Y35167D02*
X61305D01*
Y35730*
X60742*
Y35167*
X61305*
Y35730*
X60742*
Y35167*
Y36053D02*
X61305D01*
Y36616*
X60742*
Y36053*
X61305*
Y36616*
X60742*
Y36053*
Y36939D02*
X61305D01*
Y37502*
X60742*
Y36939*
X61305*
Y37502*
X60742*
Y36939*
Y37825D02*
X61305D01*
Y38388*
X60742*
Y37825*
X61305*
Y38388*
X60742*
Y37825*
Y38711D02*
X61305D01*
Y39274*
X60742*
Y38711*
X61305*
Y39274*
X60742*
Y38711*
Y39596D02*
X61305D01*
Y40159*
X60742*
Y39596*
X61305*
Y40159*
X60742*
Y39596*
Y40482D02*
X61305D01*
Y41045*
X60742*
Y40482*
X61305*
Y41045*
X60742*
Y40482*
Y41368D02*
X61305D01*
Y41931*
X60742*
Y41368*
X61305*
Y41931*
X60742*
Y41368*
Y42254D02*
X61305D01*
Y42817*
X60742*
Y42254*
X61305*
Y42817*
X60742*
Y42254*
Y43140D02*
X61305D01*
Y43703*
X60742*
Y43140*
X61305*
Y43703*
X60742*
Y43140*
Y44026D02*
X61305D01*
Y44589*
X60742*
Y44026*
X61305*
Y44589*
X60742*
Y44026*
Y44911D02*
X61305D01*
Y45474*
X60742*
Y44911*
X61305*
Y45474*
X60742*
Y44911*
Y45797D02*
X61305D01*
Y46360*
X60742*
Y45797*
X61305*
Y46360*
X60742*
Y45797*
Y46683D02*
X61305D01*
Y47246*
X60742*
Y46683*
X61305*
Y47246*
X60742*
Y46683*
Y47569D02*
X61305D01*
Y48132*
X60742*
Y47569*
X61305*
Y48132*
X60742*
Y47569*
Y48455D02*
X61305D01*
Y49018*
X60742*
Y48455*
X61305*
Y49018*
X60742*
Y48455*
Y49341D02*
X61305D01*
Y49904*
X60742*
Y49341*
X61305*
Y49904*
X60742*
Y49341*
Y50226D02*
X61305D01*
Y50789*
X60742*
Y50226*
X61305*
Y50789*
X60742*
Y50226*
Y51112D02*
X61305D01*
Y51675*
X60742*
Y51112*
X61305*
Y51675*
X60742*
Y51112*
Y51998D02*
X61305D01*
Y52561*
X60742*
Y51998*
X61305*
Y52561*
X60742*
Y51998*
Y52884D02*
X61305D01*
Y53447*
X60742*
Y52884*
X61305*
Y53447*
X60742*
Y52884*
Y53770D02*
X61305D01*
Y54333*
X60742*
Y53770*
X61305*
Y54333*
X60742*
Y53770*
Y54656D02*
X61305D01*
Y55219*
X60742*
Y54656*
X61305*
Y55219*
X60742*
Y54656*
Y55541D02*
X61305D01*
Y56104*
X60742*
Y55541*
X61305*
Y56104*
X60742*
Y55541*
Y56427D02*
X61305D01*
Y56990*
X60742*
Y56427*
X61305*
Y56990*
X60742*
Y56427*
Y57313D02*
X61305D01*
Y57876*
X60742*
Y57313*
X61305*
Y57876*
X60742*
Y57313*
Y58199D02*
X61305D01*
Y58762*
X60742*
Y58199*
X61305*
Y58762*
X60742*
Y58199*
Y59085D02*
X61305D01*
Y59648*
X60742*
Y59085*
X61305*
Y59648*
X60742*
Y59085*
Y59970D02*
X61305D01*
Y60533*
X60742*
Y59970*
X61305*
Y60533*
X60742*
Y59970*
Y60856D02*
X61305D01*
Y61419*
X60742*
Y60856*
X61305*
Y61419*
X60742*
Y60856*
X62514Y19222D02*
X63077D01*
Y19785*
X62514*
Y19222*
X63077*
Y19785*
X62514*
Y19222*
Y20108D02*
X63077D01*
Y20671*
X62514*
Y20108*
X63077*
Y20671*
X62514*
Y20108*
Y20994D02*
X63077D01*
Y21557*
X62514*
Y20994*
X63077*
Y21557*
X62514*
Y20994*
Y21880D02*
X63077D01*
Y22443*
X62514*
Y21880*
X63077*
Y22443*
X62514*
Y21880*
Y22766D02*
X63077D01*
Y23329*
X62514*
Y22766*
X63077*
Y23329*
X62514*
Y22766*
Y23652D02*
X63077D01*
Y24215*
X62514*
Y23652*
X63077*
Y24215*
X62514*
Y23652*
Y24537D02*
X63077D01*
Y25100*
X62514*
Y24537*
X63077*
Y25100*
X62514*
Y24537*
Y25423D02*
X63077D01*
Y25986*
X62514*
Y25423*
X63077*
Y25986*
X62514*
Y25423*
Y26309D02*
X63077D01*
Y26872*
X62514*
Y26309*
X63077*
Y26872*
X62514*
Y26309*
Y27195D02*
X63077D01*
Y27758*
X62514*
Y27195*
X63077*
Y27758*
X62514*
Y27195*
Y28081D02*
X63077D01*
Y28644*
X62514*
Y28081*
X63077*
Y28644*
X62514*
Y28081*
Y28967D02*
X63077D01*
Y29530*
X62514*
Y28967*
X63077*
Y29530*
X62514*
Y28967*
Y29852D02*
X63077D01*
Y30415*
X62514*
Y29852*
X63077*
Y30415*
X62514*
Y29852*
Y30738D02*
X63077D01*
Y31301*
X62514*
Y30738*
X63077*
Y31301*
X62514*
Y30738*
Y31624D02*
X63077D01*
Y32187*
X62514*
Y31624*
X63077*
Y32187*
X62514*
Y31624*
Y32510D02*
X63077D01*
Y33073*
X62514*
Y32510*
X63077*
Y33073*
X62514*
Y32510*
Y33396D02*
X63077D01*
Y33959*
X62514*
Y33396*
X63077*
Y33959*
X62514*
Y33396*
Y34281D02*
X63077D01*
Y34844*
X62514*
Y34281*
X63077*
Y34844*
X62514*
Y34281*
Y35167D02*
X63077D01*
Y35730*
X62514*
Y35167*
X63077*
Y35730*
X62514*
Y35167*
Y36053D02*
X63077D01*
Y36616*
X62514*
Y36053*
X63077*
Y36616*
X62514*
Y36053*
Y36939D02*
X63077D01*
Y37502*
X62514*
Y36939*
X63077*
Y37502*
X62514*
Y36939*
Y37825D02*
X63077D01*
Y38388*
X62514*
Y37825*
X63077*
Y38388*
X62514*
Y37825*
Y38711D02*
X63077D01*
Y39274*
X62514*
Y38711*
X63077*
Y39274*
X62514*
Y38711*
Y39596D02*
X63077D01*
Y40159*
X62514*
Y39596*
X63077*
Y40159*
X62514*
Y39596*
Y40482D02*
X63077D01*
Y41045*
X62514*
Y40482*
X63077*
Y41045*
X62514*
Y40482*
Y41368D02*
X63077D01*
Y41931*
X62514*
Y41368*
X63077*
Y41931*
X62514*
Y41368*
Y42254D02*
X63077D01*
Y42817*
X62514*
Y42254*
X63077*
Y42817*
X62514*
Y42254*
Y43140D02*
X63077D01*
Y43703*
X62514*
Y43140*
X63077*
Y43703*
X62514*
Y43140*
Y44026D02*
X63077D01*
Y44589*
X62514*
Y44026*
X63077*
Y44589*
X62514*
Y44026*
Y44911D02*
X63077D01*
Y45474*
X62514*
Y44911*
X63077*
Y45474*
X62514*
Y44911*
Y45797D02*
X63077D01*
Y46360*
X62514*
Y45797*
X63077*
Y46360*
X62514*
Y45797*
Y46683D02*
X63077D01*
Y47246*
X62514*
Y46683*
X63077*
Y47246*
X62514*
Y46683*
Y47569D02*
X63077D01*
Y48132*
X62514*
Y47569*
X63077*
Y48132*
X62514*
Y47569*
Y48455D02*
X63077D01*
Y49018*
X62514*
Y48455*
X63077*
Y49018*
X62514*
Y48455*
Y49341D02*
X63077D01*
Y49904*
X62514*
Y49341*
X63077*
Y49904*
X62514*
Y49341*
Y50226D02*
X63077D01*
Y50789*
X62514*
Y50226*
X63077*
Y50789*
X62514*
Y50226*
Y51112D02*
X63077D01*
Y51675*
X62514*
Y51112*
X63077*
Y51675*
X62514*
Y51112*
Y51998D02*
X63077D01*
Y52561*
X62514*
Y51998*
X63077*
Y52561*
X62514*
Y51998*
Y52884D02*
X63077D01*
Y53447*
X62514*
Y52884*
X63077*
Y53447*
X62514*
Y52884*
Y53770D02*
X63077D01*
Y54333*
X62514*
Y53770*
X63077*
Y54333*
X62514*
Y53770*
Y54656D02*
X63077D01*
Y55219*
X62514*
Y54656*
X63077*
Y55219*
X62514*
Y54656*
Y55541D02*
X63077D01*
Y56104*
X62514*
Y55541*
X63077*
Y56104*
X62514*
Y55541*
Y56427D02*
X63077D01*
Y56990*
X62514*
Y56427*
X63077*
Y56990*
X62514*
Y56427*
Y57313D02*
X63077D01*
Y57876*
X62514*
Y57313*
X63077*
Y57876*
X62514*
Y57313*
Y58199D02*
X63077D01*
Y58762*
X62514*
Y58199*
X63077*
Y58762*
X62514*
Y58199*
Y59085D02*
X63077D01*
Y59648*
X62514*
Y59085*
X63077*
Y59648*
X62514*
Y59085*
Y59970D02*
X63077D01*
Y60533*
X62514*
Y59970*
X63077*
Y60533*
X62514*
Y59970*
Y60856D02*
X63077D01*
Y61419*
X62514*
Y60856*
X63077*
Y61419*
X62514*
Y60856*
X63169Y10713D02*
X66437D01*
Y13980*
X63169*
Y10713*
X66437*
Y13980*
X63169*
Y10713*
X64285Y19222D02*
X64848D01*
Y19785*
X64285*
Y19222*
X64848*
Y19785*
X64285*
Y19222*
Y20108D02*
X64848D01*
Y20671*
X64285*
Y20108*
X64848*
Y20671*
X64285*
Y20108*
Y20994D02*
X64848D01*
Y21557*
X64285*
Y20994*
X64848*
Y21557*
X64285*
Y20994*
Y21880D02*
X64848D01*
Y22443*
X64285*
Y21880*
X64848*
Y22443*
X64285*
Y21880*
Y22766D02*
X64848D01*
Y23329*
X64285*
Y22766*
X64848*
Y23329*
X64285*
Y22766*
Y23652D02*
X64848D01*
Y24215*
X64285*
Y23652*
X64848*
Y24215*
X64285*
Y23652*
Y24537D02*
X64848D01*
Y25100*
X64285*
Y24537*
X64848*
Y25100*
X64285*
Y24537*
Y25423D02*
X64848D01*
Y25986*
X64285*
Y25423*
X64848*
Y25986*
X64285*
Y25423*
Y26309D02*
X64848D01*
Y26872*
X64285*
Y26309*
X64848*
Y26872*
X64285*
Y26309*
Y27195D02*
X64848D01*
Y27758*
X64285*
Y27195*
X64848*
Y27758*
X64285*
Y27195*
Y28081D02*
X64848D01*
Y28644*
X64285*
Y28081*
X64848*
Y28644*
X64285*
Y28081*
Y28967D02*
X64848D01*
Y29530*
X64285*
Y28967*
X64848*
Y29530*
X64285*
Y28967*
Y29852D02*
X64848D01*
Y30415*
X64285*
Y29852*
X64848*
Y30415*
X64285*
Y29852*
Y30738D02*
X64848D01*
Y31301*
X64285*
Y30738*
X64848*
Y31301*
X64285*
Y30738*
Y31624D02*
X64848D01*
Y32187*
X64285*
Y31624*
X64848*
Y32187*
X64285*
Y31624*
Y32510D02*
X64848D01*
Y33073*
X64285*
Y32510*
X64848*
Y33073*
X64285*
Y32510*
Y33396D02*
X64848D01*
Y33959*
X64285*
Y33396*
X64848*
Y33959*
X64285*
Y33396*
Y34281D02*
X64848D01*
Y34844*
X64285*
Y34281*
X64848*
Y34844*
X64285*
Y34281*
Y35167D02*
X64848D01*
Y35730*
X64285*
Y35167*
X64848*
Y35730*
X64285*
Y35167*
Y36053D02*
X64848D01*
Y36616*
X64285*
Y36053*
X64848*
Y36616*
X64285*
Y36053*
Y36939D02*
X64848D01*
Y37502*
X64285*
Y36939*
X64848*
Y37502*
X64285*
Y36939*
Y37825D02*
X64848D01*
Y38388*
X64285*
Y37825*
X64848*
Y38388*
X64285*
Y37825*
Y38711D02*
X64848D01*
Y39274*
X64285*
Y38711*
X64848*
Y39274*
X64285*
Y38711*
Y39596D02*
X64848D01*
Y40159*
X64285*
Y39596*
X64848*
Y40159*
X64285*
Y39596*
Y40482D02*
X64848D01*
Y41045*
X64285*
Y40482*
X64848*
Y41045*
X64285*
Y40482*
Y41368D02*
X64848D01*
Y41931*
X64285*
Y41368*
X64848*
Y41931*
X64285*
Y41368*
Y42254D02*
X64848D01*
Y42817*
X64285*
Y42254*
X64848*
Y42817*
X64285*
Y42254*
Y43140D02*
X64848D01*
Y43703*
X64285*
Y43140*
X64848*
Y43703*
X64285*
Y43140*
Y44026D02*
X64848D01*
Y44589*
X64285*
Y44026*
X64848*
Y44589*
X64285*
Y44026*
Y44911D02*
X64848D01*
Y45474*
X64285*
Y44911*
X64848*
Y45474*
X64285*
Y44911*
Y45797D02*
X64848D01*
Y46360*
X64285*
Y45797*
X64848*
Y46360*
X64285*
Y45797*
Y46683D02*
X64848D01*
Y47246*
X64285*
Y46683*
X64848*
Y47246*
X64285*
Y46683*
Y47569D02*
X64848D01*
Y48132*
X64285*
Y47569*
X64848*
Y48132*
X64285*
Y47569*
Y48455D02*
X64848D01*
Y49018*
X64285*
Y48455*
X64848*
Y49018*
X64285*
Y48455*
Y49341D02*
X64848D01*
Y49904*
X64285*
Y49341*
X64848*
Y49904*
X64285*
Y49341*
Y50226D02*
X64848D01*
Y50789*
X64285*
Y50226*
X64848*
Y50789*
X64285*
Y50226*
Y51112D02*
X64848D01*
Y51675*
X64285*
Y51112*
X64848*
Y51675*
X64285*
Y51112*
Y51998D02*
X64848D01*
Y52561*
X64285*
Y51998*
X64848*
Y52561*
X64285*
Y51998*
Y52884D02*
X64848D01*
Y53447*
X64285*
Y52884*
X64848*
Y53447*
X64285*
Y52884*
Y53770D02*
X64848D01*
Y54333*
X64285*
Y53770*
X64848*
Y54333*
X64285*
Y53770*
Y54656D02*
X64848D01*
Y55219*
X64285*
Y54656*
X64848*
Y55219*
X64285*
Y54656*
Y55541D02*
X64848D01*
Y56104*
X64285*
Y55541*
X64848*
Y56104*
X64285*
Y55541*
Y56427D02*
X64848D01*
Y56990*
X64285*
Y56427*
X64848*
Y56990*
X64285*
Y56427*
Y57313D02*
X64848D01*
Y57876*
X64285*
Y57313*
X64848*
Y57876*
X64285*
Y57313*
Y58199D02*
X64848D01*
Y58762*
X64285*
Y58199*
X64848*
Y58762*
X64285*
Y58199*
Y59085D02*
X64848D01*
Y59648*
X64285*
Y59085*
X64848*
Y59648*
X64285*
Y59085*
Y59970D02*
X64848D01*
Y60533*
X64285*
Y59970*
X64848*
Y60533*
X64285*
Y59970*
Y60856D02*
X64848D01*
Y61419*
X64285*
Y60856*
X64848*
Y61419*
X64285*
Y60856*
X66057Y19222D02*
X66620D01*
Y19785*
X66057*
Y19222*
X66620*
Y19785*
X66057*
Y19222*
Y20108D02*
X66620D01*
Y20671*
X66057*
Y20108*
X66620*
Y20671*
X66057*
Y20108*
Y20994D02*
X66620D01*
Y21557*
X66057*
Y20994*
X66620*
Y21557*
X66057*
Y20994*
Y21880D02*
X66620D01*
Y22443*
X66057*
Y21880*
X66620*
Y22443*
X66057*
Y21880*
Y22766D02*
X66620D01*
Y23329*
X66057*
Y22766*
X66620*
Y23329*
X66057*
Y22766*
Y23652D02*
X66620D01*
Y24215*
X66057*
Y23652*
X66620*
Y24215*
X66057*
Y23652*
Y24537D02*
X66620D01*
Y25100*
X66057*
Y24537*
X66620*
Y25100*
X66057*
Y24537*
Y25423D02*
X66620D01*
Y25986*
X66057*
Y25423*
X66620*
Y25986*
X66057*
Y25423*
Y26309D02*
X66620D01*
Y26872*
X66057*
Y26309*
X66620*
Y26872*
X66057*
Y26309*
Y27195D02*
X66620D01*
Y27758*
X66057*
Y27195*
X66620*
Y27758*
X66057*
Y27195*
Y28081D02*
X66620D01*
Y28644*
X66057*
Y28081*
X66620*
Y28644*
X66057*
Y28081*
Y28967D02*
X66620D01*
Y29530*
X66057*
Y28967*
X66620*
Y29530*
X66057*
Y28967*
Y29852D02*
X66620D01*
Y30415*
X66057*
Y29852*
X66620*
Y30415*
X66057*
Y29852*
Y30738D02*
X66620D01*
Y31301*
X66057*
Y30738*
X66620*
Y31301*
X66057*
Y30738*
Y31624D02*
X66620D01*
Y32187*
X66057*
Y31624*
X66620*
Y32187*
X66057*
Y31624*
Y32510D02*
X66620D01*
Y33073*
X66057*
Y32510*
X66620*
Y33073*
X66057*
Y32510*
Y33396D02*
X66620D01*
Y33959*
X66057*
Y33396*
X66620*
Y33959*
X66057*
Y33396*
Y34281D02*
X66620D01*
Y34844*
X66057*
Y34281*
X66620*
Y34844*
X66057*
Y34281*
Y35167D02*
X66620D01*
Y35730*
X66057*
Y35167*
X66620*
Y35730*
X66057*
Y35167*
Y36053D02*
X66620D01*
Y36616*
X66057*
Y36053*
X66620*
Y36616*
X66057*
Y36053*
Y36939D02*
X66620D01*
Y37502*
X66057*
Y36939*
X66620*
Y37502*
X66057*
Y36939*
Y37825D02*
X66620D01*
Y38388*
X66057*
Y37825*
X66620*
Y38388*
X66057*
Y37825*
Y38711D02*
X66620D01*
Y39274*
X66057*
Y38711*
X66620*
Y39274*
X66057*
Y38711*
Y39596D02*
X66620D01*
Y40159*
X66057*
Y39596*
X66620*
Y40159*
X66057*
Y39596*
Y40482D02*
X66620D01*
Y41045*
X66057*
Y40482*
X66620*
Y41045*
X66057*
Y40482*
Y41368D02*
X66620D01*
Y41931*
X66057*
Y41368*
X66620*
Y41931*
X66057*
Y41368*
Y42254D02*
X66620D01*
Y42817*
X66057*
Y42254*
X66620*
Y42817*
X66057*
Y42254*
Y43140D02*
X66620D01*
Y43703*
X66057*
Y43140*
X66620*
Y43703*
X66057*
Y43140*
Y44026D02*
X66620D01*
Y44589*
X66057*
Y44026*
X66620*
Y44589*
X66057*
Y44026*
Y44911D02*
X66620D01*
Y45474*
X66057*
Y44911*
X66620*
Y45474*
X66057*
Y44911*
Y45797D02*
X66620D01*
Y46360*
X66057*
Y45797*
X66620*
Y46360*
X66057*
Y45797*
Y46683D02*
X66620D01*
Y47246*
X66057*
Y46683*
X66620*
Y47246*
X66057*
Y46683*
Y47569D02*
X66620D01*
Y48132*
X66057*
Y47569*
X66620*
Y48132*
X66057*
Y47569*
Y48455D02*
X66620D01*
Y49018*
X66057*
Y48455*
X66620*
Y49018*
X66057*
Y48455*
Y49341D02*
X66620D01*
Y49904*
X66057*
Y49341*
X66620*
Y49904*
X66057*
Y49341*
Y50226D02*
X66620D01*
Y50789*
X66057*
Y50226*
X66620*
Y50789*
X66057*
Y50226*
Y51112D02*
X66620D01*
Y51675*
X66057*
Y51112*
X66620*
Y51675*
X66057*
Y51112*
Y51998D02*
X66620D01*
Y52561*
X66057*
Y51998*
X66620*
Y52561*
X66057*
Y51998*
Y52884D02*
X66620D01*
Y53447*
X66057*
Y52884*
X66620*
Y53447*
X66057*
Y52884*
Y53770D02*
X66620D01*
Y54333*
X66057*
Y53770*
X66620*
Y54333*
X66057*
Y53770*
Y54656D02*
X66620D01*
Y55219*
X66057*
Y54656*
X66620*
Y55219*
X66057*
Y54656*
Y55541D02*
X66620D01*
Y56104*
X66057*
Y55541*
X66620*
Y56104*
X66057*
Y55541*
Y56427D02*
X66620D01*
Y56990*
X66057*
Y56427*
X66620*
Y56990*
X66057*
Y56427*
Y57313D02*
X66620D01*
Y57876*
X66057*
Y57313*
X66620*
Y57876*
X66057*
Y57313*
Y58199D02*
X66620D01*
Y58762*
X66057*
Y58199*
X66620*
Y58762*
X66057*
Y58199*
Y59085D02*
X66620D01*
Y59648*
X66057*
Y59085*
X66620*
Y59648*
X66057*
Y59085*
Y59970D02*
X66620D01*
Y60533*
X66057*
Y59970*
X66620*
Y60533*
X66057*
Y59970*
Y60856D02*
X66620D01*
Y61419*
X66057*
Y60856*
X66620*
Y61419*
X66057*
Y60856*
X67829Y19222D02*
X68392D01*
Y19785*
X67829*
Y19222*
X68392*
Y19785*
X67829*
Y19222*
Y20108D02*
X68392D01*
Y20671*
X67829*
Y20108*
X68392*
Y20671*
X67829*
Y20108*
Y20994D02*
X68392D01*
Y21557*
X67829*
Y20994*
X68392*
Y21557*
X67829*
Y20994*
Y21880D02*
X68392D01*
Y22443*
X67829*
Y21880*
X68392*
Y22443*
X67829*
Y21880*
Y22766D02*
X68392D01*
Y23329*
X67829*
Y22766*
X68392*
Y23329*
X67829*
Y22766*
Y23652D02*
X68392D01*
Y24215*
X67829*
Y23652*
X68392*
Y24215*
X67829*
Y23652*
Y24537D02*
X68392D01*
Y25100*
X67829*
Y24537*
X68392*
Y25100*
X67829*
Y24537*
Y25423D02*
X68392D01*
Y25986*
X67829*
Y25423*
X68392*
Y25986*
X67829*
Y25423*
Y26309D02*
X68392D01*
Y26872*
X67829*
Y26309*
X68392*
Y26872*
X67829*
Y26309*
Y27195D02*
X68392D01*
Y27758*
X67829*
Y27195*
X68392*
Y27758*
X67829*
Y27195*
Y28081D02*
X68392D01*
Y28644*
X67829*
Y28081*
X68392*
Y28644*
X67829*
Y28081*
Y28967D02*
X68392D01*
Y29530*
X67829*
Y28967*
X68392*
Y29530*
X67829*
Y28967*
Y29852D02*
X68392D01*
Y30415*
X67829*
Y29852*
X68392*
Y30415*
X67829*
Y29852*
Y30738D02*
X68392D01*
Y31301*
X67829*
Y30738*
X68392*
Y31301*
X67829*
Y30738*
Y31624D02*
X68392D01*
Y32187*
X67829*
Y31624*
X68392*
Y32187*
X67829*
Y31624*
Y32510D02*
X68392D01*
Y33073*
X67829*
Y32510*
X68392*
Y33073*
X67829*
Y32510*
Y33396D02*
X68392D01*
Y33959*
X67829*
Y33396*
X68392*
Y33959*
X67829*
Y33396*
Y34281D02*
X68392D01*
Y34844*
X67829*
Y34281*
X68392*
Y34844*
X67829*
Y34281*
Y35167D02*
X68392D01*
Y35730*
X67829*
Y35167*
X68392*
Y35730*
X67829*
Y35167*
Y36053D02*
X68392D01*
Y36616*
X67829*
Y36053*
X68392*
Y36616*
X67829*
Y36053*
Y36939D02*
X68392D01*
Y37502*
X67829*
Y36939*
X68392*
Y37502*
X67829*
Y36939*
Y37825D02*
X68392D01*
Y38388*
X67829*
Y37825*
X68392*
Y38388*
X67829*
Y37825*
Y38711D02*
X68392D01*
Y39274*
X67829*
Y38711*
X68392*
Y39274*
X67829*
Y38711*
Y39596D02*
X68392D01*
Y40159*
X67829*
Y39596*
X68392*
Y40159*
X67829*
Y39596*
Y40482D02*
X68392D01*
Y41045*
X67829*
Y40482*
X68392*
Y41045*
X67829*
Y40482*
Y41368D02*
X68392D01*
Y41931*
X67829*
Y41368*
X68392*
Y41931*
X67829*
Y41368*
Y42254D02*
X68392D01*
Y42817*
X67829*
Y42254*
X68392*
Y42817*
X67829*
Y42254*
Y43140D02*
X68392D01*
Y43703*
X67829*
Y43140*
X68392*
Y43703*
X67829*
Y43140*
Y44026D02*
X68392D01*
Y44589*
X67829*
Y44026*
X68392*
Y44589*
X67829*
Y44026*
Y44911D02*
X68392D01*
Y45474*
X67829*
Y44911*
X68392*
Y45474*
X67829*
Y44911*
Y45797D02*
X68392D01*
Y46360*
X67829*
Y45797*
X68392*
Y46360*
X67829*
Y45797*
Y46683D02*
X68392D01*
Y47246*
X67829*
Y46683*
X68392*
Y47246*
X67829*
Y46683*
Y47569D02*
X68392D01*
Y48132*
X67829*
Y47569*
X68392*
Y48132*
X67829*
Y47569*
Y48455D02*
X68392D01*
Y49018*
X67829*
Y48455*
X68392*
Y49018*
X67829*
Y48455*
Y49341D02*
X68392D01*
Y49904*
X67829*
Y49341*
X68392*
Y49904*
X67829*
Y49341*
Y50226D02*
X68392D01*
Y50789*
X67829*
Y50226*
X68392*
Y50789*
X67829*
Y50226*
Y51112D02*
X68392D01*
Y51675*
X67829*
Y51112*
X68392*
Y51675*
X67829*
Y51112*
Y51998D02*
X68392D01*
Y52561*
X67829*
Y51998*
X68392*
Y52561*
X67829*
Y51998*
Y52884D02*
X68392D01*
Y53447*
X67829*
Y52884*
X68392*
Y53447*
X67829*
Y52884*
Y53770D02*
X68392D01*
Y54333*
X67829*
Y53770*
X68392*
Y54333*
X67829*
Y53770*
Y54656D02*
X68392D01*
Y55219*
X67829*
Y54656*
X68392*
Y55219*
X67829*
Y54656*
Y55541D02*
X68392D01*
Y56104*
X67829*
Y55541*
X68392*
Y56104*
X67829*
Y55541*
Y56427D02*
X68392D01*
Y56990*
X67829*
Y56427*
X68392*
Y56990*
X67829*
Y56427*
Y57313D02*
X68392D01*
Y57876*
X67829*
Y57313*
X68392*
Y57876*
X67829*
Y57313*
Y58199D02*
X68392D01*
Y58762*
X67829*
Y58199*
X68392*
Y58762*
X67829*
Y58199*
Y59085D02*
X68392D01*
Y59648*
X67829*
Y59085*
X68392*
Y59648*
X67829*
Y59085*
Y59970D02*
X68392D01*
Y60533*
X67829*
Y59970*
X68392*
Y60533*
X67829*
Y59970*
Y60856D02*
X68392D01*
Y61419*
X67829*
Y60856*
X68392*
Y61419*
X67829*
Y60856*
X68199Y64268D02*
X71467D01*
Y67535*
X68199*
Y64268*
X71467*
Y67535*
X68199*
Y64268*
X69600Y19222D02*
X70163D01*
Y19785*
X69600*
Y19222*
X70163*
Y19785*
X69600*
Y19222*
Y20108D02*
X70163D01*
Y20671*
X69600*
Y20108*
X70163*
Y20671*
X69600*
Y20108*
Y20994D02*
X70163D01*
Y21557*
X69600*
Y20994*
X70163*
Y21557*
X69600*
Y20994*
Y21880D02*
X70163D01*
Y22443*
X69600*
Y21880*
X70163*
Y22443*
X69600*
Y21880*
Y22766D02*
X70163D01*
Y23329*
X69600*
Y22766*
X70163*
Y23329*
X69600*
Y22766*
Y23652D02*
X70163D01*
Y24215*
X69600*
Y23652*
X70163*
Y24215*
X69600*
Y23652*
Y24537D02*
X70163D01*
Y25100*
X69600*
Y24537*
X70163*
Y25100*
X69600*
Y24537*
Y25423D02*
X70163D01*
Y25986*
X69600*
Y25423*
X70163*
Y25986*
X69600*
Y25423*
Y26309D02*
X70163D01*
Y26872*
X69600*
Y26309*
X70163*
Y26872*
X69600*
Y26309*
Y27195D02*
X70163D01*
Y27758*
X69600*
Y27195*
X70163*
Y27758*
X69600*
Y27195*
Y28081D02*
X70163D01*
Y28644*
X69600*
Y28081*
X70163*
Y28644*
X69600*
Y28081*
Y28967D02*
X70163D01*
Y29530*
X69600*
Y28967*
X70163*
Y29530*
X69600*
Y28967*
Y29852D02*
X70163D01*
Y30415*
X69600*
Y29852*
X70163*
Y30415*
X69600*
Y29852*
Y30738D02*
X70163D01*
Y31301*
X69600*
Y30738*
X70163*
Y31301*
X69600*
Y30738*
Y31624D02*
X70163D01*
Y32187*
X69600*
Y31624*
X70163*
Y32187*
X69600*
Y31624*
Y32510D02*
X70163D01*
Y33073*
X69600*
Y32510*
X70163*
Y33073*
X69600*
Y32510*
Y33396D02*
X70163D01*
Y33959*
X69600*
Y33396*
X70163*
Y33959*
X69600*
Y33396*
Y34281D02*
X70163D01*
Y34844*
X69600*
Y34281*
X70163*
Y34844*
X69600*
Y34281*
Y35167D02*
X70163D01*
Y35730*
X69600*
Y35167*
X70163*
Y35730*
X69600*
Y35167*
Y36053D02*
X70163D01*
Y36616*
X69600*
Y36053*
X70163*
Y36616*
X69600*
Y36053*
Y36939D02*
X70163D01*
Y37502*
X69600*
Y36939*
X70163*
Y37502*
X69600*
Y36939*
Y37825D02*
X70163D01*
Y38388*
X69600*
Y37825*
X70163*
Y38388*
X69600*
Y37825*
Y38711D02*
X70163D01*
Y39274*
X69600*
Y38711*
X70163*
Y39274*
X69600*
Y38711*
Y39596D02*
X70163D01*
Y40159*
X69600*
Y39596*
X70163*
Y40159*
X69600*
Y39596*
Y40482D02*
X70163D01*
Y41045*
X69600*
Y40482*
X70163*
Y41045*
X69600*
Y40482*
Y41368D02*
X70163D01*
Y41931*
X69600*
Y41368*
X70163*
Y41931*
X69600*
Y41368*
Y42254D02*
X70163D01*
Y42817*
X69600*
Y42254*
X70163*
Y42817*
X69600*
Y42254*
Y43140D02*
X70163D01*
Y43703*
X69600*
Y43140*
X70163*
Y43703*
X69600*
Y43140*
Y44026D02*
X70163D01*
Y44589*
X69600*
Y44026*
X70163*
Y44589*
X69600*
Y44026*
Y44911D02*
X70163D01*
Y45474*
X69600*
Y44911*
X70163*
Y45474*
X69600*
Y44911*
Y45797D02*
X70163D01*
Y46360*
X69600*
Y45797*
X70163*
Y46360*
X69600*
Y45797*
Y46683D02*
X70163D01*
Y47246*
X69600*
Y46683*
X70163*
Y47246*
X69600*
Y46683*
Y47569D02*
X70163D01*
Y48132*
X69600*
Y47569*
X70163*
Y48132*
X69600*
Y47569*
Y48455D02*
X70163D01*
Y49018*
X69600*
Y48455*
X70163*
Y49018*
X69600*
Y48455*
Y49341D02*
X70163D01*
Y49904*
X69600*
Y49341*
X70163*
Y49904*
X69600*
Y49341*
Y50226D02*
X70163D01*
Y50789*
X69600*
Y50226*
X70163*
Y50789*
X69600*
Y50226*
Y51112D02*
X70163D01*
Y51675*
X69600*
Y51112*
X70163*
Y51675*
X69600*
Y51112*
Y51998D02*
X70163D01*
Y52561*
X69600*
Y51998*
X70163*
Y52561*
X69600*
Y51998*
Y52884D02*
X70163D01*
Y53447*
X69600*
Y52884*
X70163*
Y53447*
X69600*
Y52884*
Y53770D02*
X70163D01*
Y54333*
X69600*
Y53770*
X70163*
Y54333*
X69600*
Y53770*
Y54656D02*
X70163D01*
Y55219*
X69600*
Y54656*
X70163*
Y55219*
X69600*
Y54656*
Y55541D02*
X70163D01*
Y56104*
X69600*
Y55541*
X70163*
Y56104*
X69600*
Y55541*
Y56427D02*
X70163D01*
Y56990*
X69600*
Y56427*
X70163*
Y56990*
X69600*
Y56427*
Y57313D02*
X70163D01*
Y57876*
X69600*
Y57313*
X70163*
Y57876*
X69600*
Y57313*
Y58199D02*
X70163D01*
Y58762*
X69600*
Y58199*
X70163*
Y58762*
X69600*
Y58199*
Y59085D02*
X70163D01*
Y59648*
X69600*
Y59085*
X70163*
Y59648*
X69600*
Y59085*
Y59970D02*
X70163D01*
Y60533*
X69600*
Y59970*
X70163*
Y60533*
X69600*
Y59970*
Y60856D02*
X70163D01*
Y61419*
X69600*
Y60856*
X70163*
Y61419*
X69600*
Y60856*
X71372Y19222D02*
X71935D01*
Y19785*
X71372*
Y19222*
X71935*
Y19785*
X71372*
Y19222*
Y20108D02*
X71935D01*
Y20671*
X71372*
Y20108*
X71935*
Y20671*
X71372*
Y20108*
Y20994D02*
X71935D01*
Y21557*
X71372*
Y20994*
X71935*
Y21557*
X71372*
Y20994*
Y21880D02*
X71935D01*
Y22443*
X71372*
Y21880*
X71935*
Y22443*
X71372*
Y21880*
Y22766D02*
X71935D01*
Y23329*
X71372*
Y22766*
X71935*
Y23329*
X71372*
Y22766*
Y23652D02*
X71935D01*
Y24215*
X71372*
Y23652*
X71935*
Y24215*
X71372*
Y23652*
Y24537D02*
X71935D01*
Y25100*
X71372*
Y24537*
X71935*
Y25100*
X71372*
Y24537*
Y25423D02*
X71935D01*
Y25986*
X71372*
Y25423*
X71935*
Y25986*
X71372*
Y25423*
Y26309D02*
X71935D01*
Y26872*
X71372*
Y26309*
X71935*
Y26872*
X71372*
Y26309*
Y27195D02*
X71935D01*
Y27758*
X71372*
Y27195*
X71935*
Y27758*
X71372*
Y27195*
Y28081D02*
X71935D01*
Y28644*
X71372*
Y28081*
X71935*
Y28644*
X71372*
Y28081*
Y28967D02*
X71935D01*
Y29530*
X71372*
Y28967*
X71935*
Y29530*
X71372*
Y28967*
Y29852D02*
X71935D01*
Y30415*
X71372*
Y29852*
X71935*
Y30415*
X71372*
Y29852*
Y30738D02*
X71935D01*
Y31301*
X71372*
Y30738*
X71935*
Y31301*
X71372*
Y30738*
Y31624D02*
X71935D01*
Y32187*
X71372*
Y31624*
X71935*
Y32187*
X71372*
Y31624*
Y32510D02*
X71935D01*
Y33073*
X71372*
Y32510*
X71935*
Y33073*
X71372*
Y32510*
Y33396D02*
X71935D01*
Y33959*
X71372*
Y33396*
X71935*
Y33959*
X71372*
Y33396*
Y34281D02*
X71935D01*
Y34844*
X71372*
Y34281*
X71935*
Y34844*
X71372*
Y34281*
Y35167D02*
X71935D01*
Y35730*
X71372*
Y35167*
X71935*
Y35730*
X71372*
Y35167*
Y36053D02*
X71935D01*
Y36616*
X71372*
Y36053*
X71935*
Y36616*
X71372*
Y36053*
Y36939D02*
X71935D01*
Y37502*
X71372*
Y36939*
X71935*
Y37502*
X71372*
Y36939*
Y37825D02*
X71935D01*
Y38388*
X71372*
Y37825*
X71935*
Y38388*
X71372*
Y37825*
Y38711D02*
X71935D01*
Y39274*
X71372*
Y38711*
X71935*
Y39274*
X71372*
Y38711*
Y39596D02*
X71935D01*
Y40159*
X71372*
Y39596*
X71935*
Y40159*
X71372*
Y39596*
Y40482D02*
X71935D01*
Y41045*
X71372*
Y40482*
X71935*
Y41045*
X71372*
Y40482*
Y41368D02*
X71935D01*
Y41931*
X71372*
Y41368*
X71935*
Y41931*
X71372*
Y41368*
Y42254D02*
X71935D01*
Y42817*
X71372*
Y42254*
X71935*
Y42817*
X71372*
Y42254*
Y43140D02*
X71935D01*
Y43703*
X71372*
Y43140*
X71935*
Y43703*
X71372*
Y43140*
Y44026D02*
X71935D01*
Y44589*
X71372*
Y44026*
X71935*
Y44589*
X71372*
Y44026*
Y44911D02*
X71935D01*
Y45474*
X71372*
Y44911*
X71935*
Y45474*
X71372*
Y44911*
Y45797D02*
X71935D01*
Y46360*
X71372*
Y45797*
X71935*
Y46360*
X71372*
Y45797*
Y46683D02*
X71935D01*
Y47246*
X71372*
Y46683*
X71935*
Y47246*
X71372*
Y46683*
Y47569D02*
X71935D01*
Y48132*
X71372*
Y47569*
X71935*
Y48132*
X71372*
Y47569*
Y48455D02*
X71935D01*
Y49018*
X71372*
Y48455*
X71935*
Y49018*
X71372*
Y48455*
Y49341D02*
X71935D01*
Y49904*
X71372*
Y49341*
X71935*
Y49904*
X71372*
Y49341*
Y50226D02*
X71935D01*
Y50789*
X71372*
Y50226*
X71935*
Y50789*
X71372*
Y50226*
Y51112D02*
X71935D01*
Y51675*
X71372*
Y51112*
X71935*
Y51675*
X71372*
Y51112*
Y51998D02*
X71935D01*
Y52561*
X71372*
Y51998*
X71935*
Y52561*
X71372*
Y51998*
Y52884D02*
X71935D01*
Y53447*
X71372*
Y52884*
X71935*
Y53447*
X71372*
Y52884*
Y53770D02*
X71935D01*
Y54333*
X71372*
Y53770*
X71935*
Y54333*
X71372*
Y53770*
Y54656D02*
X71935D01*
Y55219*
X71372*
Y54656*
X71935*
Y55219*
X71372*
Y54656*
Y55541D02*
X71935D01*
Y56104*
X71372*
Y55541*
X71935*
Y56104*
X71372*
Y55541*
Y56427D02*
X71935D01*
Y56990*
X71372*
Y56427*
X71935*
Y56990*
X71372*
Y56427*
Y57313D02*
X71935D01*
Y57876*
X71372*
Y57313*
X71935*
Y57876*
X71372*
Y57313*
Y58199D02*
X71935D01*
Y58762*
X71372*
Y58199*
X71935*
Y58762*
X71372*
Y58199*
Y59085D02*
X71935D01*
Y59648*
X71372*
Y59085*
X71935*
Y59648*
X71372*
Y59085*
Y59970D02*
X71935D01*
Y60533*
X71372*
Y59970*
X71935*
Y60533*
X71372*
Y59970*
Y60856D02*
X71935D01*
Y61419*
X71372*
Y60856*
X71935*
Y61419*
X71372*
Y60856*
X75984Y0D02*
X47835D01*
Y1378*
X28150*
Y0*
X0*
Y74622*
X75984*
Y0*
M02*
