*
G04 Job   : H:\SPIROSE\PCB\LED_PANEL\PCB\PCB.pcb*
G04 User  : DESKTOP-D6MOGOB:alexis*
G04 Layer : SoldermaskBottom.gdo*
G04 Date  : Sun Jan 07 22:55:57 2018*
G04 Mentor Graphics Example Gerber Output Definition*
%ICAS*%
%MOIN*%
%FSLAX24Y24*%
%OFA0.0000B0.0000*%
G90*
G74*
%ADD10C,0.00000*%
%ADD12C,0.02559*%
%ADD11C,0.32677*%
G01*
G36*
X787Y69898D02*
X6299D01*
Y74622*
X787*
Y69898*
X7875Y69900D02*
X13386D01*
Y74624*
X7875*
Y69900*
X14964Y69899D02*
X20475D01*
Y74623*
X14964*
Y69899*
X22052Y69902D02*
X27563D01*
Y74626*
X22052*
Y69902*
X29134Y69883D02*
X34645D01*
Y74606*
X29134*
Y69883*
X35265Y69927D02*
X40776D01*
Y74651*
X35265*
Y69927*
X41337Y69905D02*
X46848D01*
Y74629*
X41337*
Y69905*
X48438Y69910D02*
X53949D01*
Y74634*
X48438*
Y69910*
X55516Y69888D02*
X61027D01*
Y74612*
X55516*
Y69888*
X62615D02*
X68126D01*
Y74612*
X62615*
Y69888*
X69685Y69886D02*
X75196D01*
Y74610*
X69685*
Y69886*
G37*
G54D10*
X0Y0D02*
X75984D01*
Y74622*
X0*
Y0*
G54D11*
X3543Y2405D03*
Y72260D03*
X9843Y2399D03*
X10630Y72260D03*
X17717D03*
X24803D03*
X31890D03*
X37992D03*
X44094D03*
X51181D03*
X58268D03*
X65354D03*
X66142Y2362D03*
X72441D03*
Y72260D03*
G54D12*
X2596Y10430D03*
X3132Y68435D03*
X3845Y10386D03*
X4321Y68428D03*
X15460Y68327D03*
X15469Y67576D03*
X16943Y68327D03*
X17311Y67576D03*
X17866Y10386D03*
X18396Y9894D03*
X29563Y68455D03*
X29590Y67576D03*
X30569D03*
X30584Y68455D03*
X34216Y10488D03*
X34830Y9908D03*
X43910Y67576D03*
X43920Y68411D03*
X44746Y67576D03*
X44800Y68411D03*
X48523Y10533D03*
X49193Y9978D03*
X58049Y68222D03*
Y67625D03*
X58987Y67612D03*
Y68209D03*
X62983Y9880D03*
X63645Y9649D03*
X71135Y68391D03*
X72141Y68402D03*
M02*
