; Version : LOCAL
; Job     : H:\SPIROSE\PCB\ROTATIVE_BASE\PCB\PCB.pcb
; User    : DESKTOP-D6MOGOB:alexis
; Date    : Tue Jan 09 14:20:12 2018
; Format  : 3.3 / Absolute / MM / Leading
; Contents: Thru / Drill / Plated
M48
METRIC,TZ
FMAT,2
ICI,OFF
T04C0.3000
T01C0.4000
T02C0.5000
T03C1.5000
T05C4.0000
T06C5.0000
%
M71
G90
G93X0Y0
T04
X100066Y1111
X94645Y33247
X105057Y34327
X113156Y34250
X79836Y38646
X127048Y39837
X129588
X129658Y38571
X130476Y39837
X129547Y41316
X127992Y41325
X126794Y41352
X118966Y41903
X89840Y41318
X87300
X78396Y43857
X82167Y44440
X91525Y44474
X94233Y44405
X97500Y44250
X125248Y43434
X127241Y43363
X129493Y43282
X130905Y43291
X132094Y43363
X125618Y46463
X124611Y47387
X122642Y46322
X120571Y46403
X114339Y47490
X91110Y47518
X88570
X82030Y48142
X79184Y48039
X120330Y48353
X120390Y50686
X124631Y50162
X124550Y52354
X123243Y51549
X121594
X119633Y53317
X116651Y53271
X112487Y52461
X89514Y51329
X88913Y51930
X88312Y51329
X87711Y51930
X48984Y52163
X65335Y55383
X74128Y55788
X124570Y54546
X124651Y56275
X117498Y56579
X117493Y58262
X117478Y57426
X109779Y56540
X81687Y58179
X77676Y57562
X58856Y57331
X55154
X51529Y57562
X45899Y57177
X40345Y58565
X50758Y60802
X53072Y60956
X113756Y59763
X123884Y63404
X110470Y61115
X106453Y63341
X83607Y61633
X70889Y61188
X66569Y61014
X55463Y61110
X40037Y61419
X38725
X36797Y61496
X35255Y63964
X35409Y65970
X38263Y65738
X39728
X50835Y63656
X66492Y65642
X105852Y63942
Y65144
X106453Y64543
X114647Y63911
X116197Y65179
X123112Y65118
X132646Y67615
X126925Y66604
X126320Y68443
X125433Y67592
X124379Y67562
X123472Y68522
X122366Y66788
X119295Y67357
X119273Y68305
X118584Y66114
X116097Y68003
X114747Y68250
X114146Y67648
X113545Y68250
X112944Y67648
X111003Y68331
X109328Y68153
X105504Y67847
X104809Y66092
X104738Y68544
X95881Y66789
X71120Y66355
X69346
X68035Y66432
X55386Y66124
X53612Y66355
X50835
X98579Y69325
X99112Y70428
X103235Y68922
X122561Y68975
X127589Y68682
X130342Y73231
X129524Y72098
X128533Y72190
X127245Y72154
X126029Y72190
X124529Y71878
X123029Y72190
X119529
X117029
X112030Y72143
X109031Y72190
X107038
X104528
X103032
X101832
X100632
X89728Y72044
X33678Y72388
X87744Y75124
X94792Y75510
X95486Y74260
X99211Y74476
X103075Y74972
X107038
X117029Y74967
X123028Y74964
X130342Y74431
Y75631
X133887Y73972
X155050Y74533
X161084Y74499
X165026Y74087
X169214Y75843
X172293Y74293
X173939Y78647
X172177Y76764
X162916Y77852
X156251Y76840
X130342Y77969
X127541Y77518
X99211Y76474
X95595Y76250
X95507Y78005
X94456Y78194
X92778Y77444
X91893Y76518
Y78371
X80534Y76592
X33678Y79330
X46057Y79369
X52999
X70006Y79716
X76716Y79484
X91893Y80224
X92778Y79297
Y81150
X95709Y80529
X95931Y79277
X99211Y78975
Y80475
X101001
X104360Y79060
X108360
X112360
X116360
X120360
X127543Y80975
X130342Y79475
Y80975
X135252Y78975
X159678Y80786
X161581Y80838
X162896Y78860
X166077Y79141
X169187Y79100
X172170Y81718
X163072Y82020
X159987Y83769
X158804
X137251Y83682
X128994Y82161
X124360Y83060
X120360
X116360
X112360
X108360
X104360
X99211Y82979
X95993Y81841
X95619Y82953
X92778Y83003
X91893Y82077
X27854Y82126
X45132Y84922
X53693Y84575
X91893Y83930
Y85783
X92778Y84856
X94319Y84234
X95369Y84512
X130342Y84980
X134076Y84294
X135220Y84179
X138548Y85915
X140024Y85056
X140909Y84171
X141794Y85056
X142679Y84171
X143564Y85056
X144449Y84171
X145334Y85056
X146219Y84171
X147104Y85056
X147989Y84171
X148926Y85047
X168162Y83820
X169727Y85956
X172122Y83872
X172687Y85671
X172585Y87985
X169711Y88250
X163611
X160457Y87747
Y88747
X158804Y87008
X146018Y87465
X136596Y87755
Y88605
X134022Y86849
X134018Y87599
X124360Y87060
X120360
X116360
X112360
X108360
X104360
X101011Y86478
X99211
X95544Y88711
X92778Y86715
X91893Y87644
X63703Y88672
X60448Y88397
X57635Y88066
X54491Y88231
X51346Y88286
X22995Y89531
X45806Y90439
X47320Y88948
X49554Y89829
X52692Y89960
X55874Y89872
X59055Y89829
X61888Y89872
X63647Y91375
X65244Y89872
X68382Y89960
X69329Y91375
X70910Y89960
X73699Y90003
X76924Y90483
X95282Y90487
X99211Y89867
Y91067
X101011Y89867
X104360Y91060
X108360
X112360
X116360
X120360
X124360
X127544Y90482
X130342Y90479
X134374Y91028
X145401Y89442
X169693Y90538
X172430Y91842
X170116Y93641
X166928Y93847
X158804Y92304
X147115Y92082
X136278Y92633
X134438Y92783
X130342Y92921
X99211Y93978
X95011Y93010
X93974Y91699
X93958Y93200
X78537Y91485
X76334Y92092
X74615Y92618
X72804Y91706
X60101Y92705
X57911Y91596
X55330Y93814
X47651Y91706
X44063Y93185
X40268Y92434
X27970Y91497
X39661Y94972
X43278Y95364
X53951Y96241
X56765Y95248
X60101Y95625
X71429Y94396
X76227Y94667
X94887Y96484
X95532Y95010
X104360Y95060
X108360
X112360
X116360
X120360
X124360
X127544Y94473
X130342
Y96476
X145161Y94687
X160381Y95715
X134409Y98066
X133628Y96926
X101011Y96856
X99211
Y98056
X95279Y97534
X92925Y97918
X78639Y96664
X78595Y98538
X77200Y97710
X75806Y98625
X75762Y96664
X74680Y97719
X70951Y96860
X67530Y97191
X63196Y96859
Y98859
X62028Y97605
X60766Y97935
X58841Y98014
X56268Y98172
X54392Y98889
X51910Y97676
X47355Y97599
X45327Y96584
X45196Y98545
X43409Y98371
X41126Y97382
X39998Y98485
X38478Y97185
X36002Y100667
X38552Y99073
X41225Y100594
X47355Y99599
Y101599
X49317Y99386
X51523Y100655
X56986Y100710
X63196Y100859
X65838Y99950
X67971Y100649
X70509Y99067
X72937Y100833
X77200Y99235
X91358Y99289
X92425Y99712
X93499Y101186
X93515Y100128
X94549Y101005
X105026Y100482
X113030Y100485
X122029Y100493
X125573
X130342Y99977
X133611Y100414
X148829Y101029
X158480Y103777
X130342Y101980
X128881Y103301
X127681
X125530
X122029
X120035
X116529
X113030
X108530
X106532
X105026
X103028
X101030
X98933Y101981
X95320Y102223
X76808Y102199
X75893Y103245
X75239Y102199
X70436Y102047
X67898Y102929
X63196Y102859
X61860Y103585
X60476Y103901
X60417Y102139
X58743Y103015
X56655Y103193
X54227Y102365
X51523Y103138
X49923Y102476
X47355Y103599
X45283Y102468
X43627Y102381
X43496Y103645
X40685Y103757
X39434Y102654
X37743Y103708
X37620Y102163
X38920Y106307
X38969Y104370
X45240Y106652
X45370Y104516
X47355Y105599
X49703Y105896
X53123Y106117
X56172Y104556
X60417Y105935
X61806Y105982
X63196Y104859
X65544Y104401
X67787Y105872
X69884Y105394
X72311Y104842
X74411Y104335
X99111Y105027
X100535Y106493
X103620Y106676
X122038Y106665
X125054Y106480
X130441Y105029
X133384Y105260
X145218Y105439
X149423Y105097
X157546Y105095
X194550Y107090
X190550
X186550
X182550
X177623Y107332
X175839Y107921
X173761Y106928
X169163Y107185
X166920Y108325
X134316Y108786
X133904Y107710
X132940Y107189
X127059Y107168
X126323Y107939
X124561Y107751
X123511Y108294
X122655Y107535
X118562Y107221
X117497Y107227
X115935Y107313
X114874Y106944
X113075Y109205
X111797Y106920
X110554Y107756
X109498Y108005
X108613Y107005
X107554Y107081
X106051Y106995
X99139Y108332
X71024Y106939
X70877Y108336
X68118Y108116
X65911Y107637
X63196Y106859
X61562Y107524
X54944Y106945
X54848Y108561
X51088Y108136
X47355Y107599
X45800Y108285
X44281Y107567
X38993Y107999
X35829Y108130
X33359Y107420
X26242Y107364
X23329Y108130
X19360Y107210
X15360
X11360
X7360
Y109750
X19360
X23329Y110130
X35829
X39095Y109368
X39631Y110721
X41404Y110227
X46546Y110913
X50625Y110776
X94787Y110137
X113789Y109758
X114755Y110041
X115120Y111744
X116245Y109829
X134131Y109839
X134135Y110896
X135216Y110668
X145538Y110353
X150977Y110376
X154999Y110787
X158612Y110819
X161308Y111403
X161402Y110253
X166662Y110863
X178359Y109576
X182550Y109630
X194550
Y112170
X182550
X178506Y113070
X166249Y112846
X160427Y112378
X157101Y112661
X148897Y112570
X120262Y113161
X38730Y112353
X35829Y112130
Y114130
X23329Y112130
Y114130
X19360Y112290
X7360
Y114830
X19360
X23329Y116130
X25324Y115174
X27455Y116744
X35829Y116130
X57550Y115472
X62280Y114855
X63603Y114986
X65037Y115026
X65977Y116736
X75629Y116509
X120262Y114418
X134854Y114726
X166772Y114321
X169899Y116712
X176042Y116123
X178580Y116601
X182550Y114710
X194550
Y117250
X190550
X186550
X182550
X178616Y118919
X172753Y118812
X166699Y117080
X116186Y118324
X89083Y118871
X88154Y117988
X87225Y118871
X86296Y117988
X85366Y118869
X84437Y117984
X83508Y118869
X82579Y117984
X81650Y118869
X80721Y117984
X79792Y118869
X78862Y117984
X77933Y118869
X72993Y117879
X71854Y117187
X69520Y117939
X67128Y117269
X64093Y117387
X32807Y118454
X31207Y116854
X29442Y118399
X26021Y118509
X19360Y117370
X15360
X11360
X7360
Y119910
X11360
X15360
X19360
X23759Y119392
X27235Y120054
X31317Y119944
X34186Y120165
X37984Y120880
X60745Y121599
X89073Y121841
X113315Y121685
X134648Y120691
X140956Y120254
X145001Y121831
X166625Y119838
X169347Y121273
X175894Y121199
X182550Y119790
X186550
X190550
X194550
Y122330
X182550
X178543Y122303
X166699
X125119Y124430
X87245Y124411
X38464Y122765
X35829Y122958
X23329
X19360Y122450
X7360
Y124990
X19360
X23329Y124958
Y126958
X35829Y124958
Y126958
X38430Y125302
X41275
X84519Y126467
X91445Y125048
X108892Y124565
X113263Y125285
X116152Y126559
X116757Y125675
X119010Y126444
X119611Y125557
X120434Y124570
X122701Y126696
X124506Y125310
X127197Y126289
X133322Y126977
X135882Y125370
X154517Y126995
X155909Y124727
X166809Y125098
X178616Y125687
X182550Y124870
X194550
Y127410
X182550
X178580Y129291
X168648Y129107
X166920Y127562
X141347Y127931
X138644Y127860
X137174Y128074
X134885Y127907
X131874Y127865
X130394Y127010
X128884Y127835
X126642Y128285
X125995Y127429
X124345Y128023
X123671Y127211
X121494Y127828
X118408Y127484
X117669Y128231
X115548Y127449
X112124Y128276
X110636Y128195
X109128
X103035Y128256
X96621
X95636Y128195
X92620Y128235
X79312Y128107
X71716Y128015
X67274Y127988
X54490Y128884
X49322Y129115
X35829Y128958
X33548Y128952
X23329Y128958
X19360Y127530
X7360
Y130070
X11360
X15360
X19360
X23329Y130958
X26100Y129635
X28520Y130752
X31624Y130504
X35829Y130958
X41995Y130812
X67516Y131328
X71631Y131354
X76129Y131395
X79166
X83167Y131354
X84675
X88114Y131374
X92598
X95635Y131334
X97163Y131294
X103156Y131354
X109128Y131294
X111142Y131981
X112164Y131395
X117594Y131294
X119223
X120610Y131354
X122138Y131334
X123667Y131294
X126663Y131314
X128131
X129679Y131374
X131167Y131314
X132655Y131294
X134103Y131334
X135632
X137059Y131294
X138427
X141218Y131851
X154620Y131829
X159172Y131806
X159174Y129824
X166809Y129990
X169936Y130431
X172658Y130579
X176336Y130358
X182550Y129950
X186550
X190550
X194550
X159172Y133652
X142646Y132587
X141267Y133788
X139954Y132401
X54490Y132818
X46546Y134515
X35829Y132958
X33361Y134042
X29513Y133980
X26658Y134104
X23329Y132958
Y134958
Y136870
X25829
X28329
X30829
X33329
X35829Y134958
Y136870
X67878Y135530
X71859Y135490
X74393Y135530
X76826Y135510
X79923
X83884Y135490
X87826Y135510
X89877Y135490
X95869Y135510
X103913
X108893Y135530
X110381Y135477
X111910Y135530
X113411Y135490
X114886Y135530
X117862Y135517
X119296Y135530
X120905
X123895Y135517
X127836
X129418Y135530
X130893Y135490
X133869
X135397Y135450
X137364Y135437
X140115Y134793
X142395Y134744
X147917Y135895
X154723Y135017
X155934Y136835
X156709Y137155
X159174Y135566
X156767Y139519
X156515Y138753
X155944Y139432
X155217Y138705
X155120Y139557
X155101Y137184
X138894Y138892
X137364Y138653
X130867Y138588
X127850Y138582
X123895Y138556
X122380Y138582
X120892
X119377
X117875
X114899
X113398Y138596
X111883Y138556
X110395Y138569
X108893
X103893Y138596
X95903Y138609
X89897Y138636
X87900Y138609
X83891
X79910Y138623
X77015Y138569
X74386Y138609
X71848Y138726
X69277Y138965
X48956Y139162
X41937Y141630
X86197Y141830
X120040Y141007
X148585Y142143
X135922Y142453
X125979Y143090
X107314Y143167
X61404Y143621
X115335Y145327
X137425Y147222
X171714Y148836
X164270Y149436
X144435Y147532
X120426Y149800
X86437Y149543
X61481Y149303
X65308Y149960
X100218Y150109
X137857Y151960
X171714Y150089
X171893Y153629
X160752Y152808
X126442Y153965
X72944Y153730
X58366Y154511
X52890Y154356
X25740Y153354
X86951Y156433
X108548Y154968
X115181Y156202
X167450Y155553
Y157363
X169576Y155553
Y157363
X170401Y156329
X175809Y156328
X174400Y157513
X171893Y157558
X171201Y159566
X168811Y158177
X133615Y158670
X120657Y158747
X93659Y159815
X92925Y158396
X92254Y159895
X91727Y158415
X73059Y159630
X67506Y160671
X86797Y162449
X99369Y162141
X127136Y162064
X167450Y161053
X168811Y161001
X170362Y161042
X167450Y163205
X167382Y164690
X163407Y163094
X162529Y162739
X161548Y163088
X156707Y164074
X154112Y164052
X152641Y162817
X120271Y163761
X115181Y162681
X109627Y163684
X158679Y167146
X160622Y166905
X161816Y166958
X162861Y165953
X163022Y166891
X164188Y166945
X166123Y166554
X166108Y167762
Y169000
X164215Y167897
X164162Y168755
X162969Y167884
X162915Y168768
X161682Y167843
X161641Y168701
X160663Y167816
X160609Y168701
X158683Y168399
X158679Y169586
X48606Y171750
X158252Y172327
X162804
X164725Y172406
X166217Y172379
X164808Y175099
X51113Y173099
X48490Y175645
X51383Y176648
X54160Y176571
X58827Y177033
X106202Y176991
X112508Y177512
X118467Y177281
X121417Y177049
X96425Y178206
X44865Y180620
X84681Y180925
X90293Y182834
X100128Y182140
X109615Y180810
X115343Y181041
X118062Y185380
X106144Y185091
X93301Y185380
X78491Y183529
X44827Y183783
X48298Y187215
X51537Y187292
X54546Y187138
X57207
X74557Y185785
X81384Y187058
X87458Y186016
X112392Y185553
X121128Y187868
X109268Y190355
X102557Y189487
X96309Y189082
X90408Y188851
X76235Y189198
X72012Y192149
X84508Y190644
X93532Y191744
X115227Y190644
X118395Y194839
X115412Y194736
X112558Y194865
X109396Y194787
X106465Y194865
X96524Y194897
X93631
X90507Y194704
X87537Y194807
X84632
X81598
X78435Y194781
X75607Y194884
X72496Y194832
X69436Y194781
X100000Y235966
T01
X120509Y36970
X115543Y42117
X80000Y50750
X83000
X80000Y53750
X83000
X119470Y56499
X102000Y58750
X105000
Y61750
X102000
X81337Y62089
X93377Y67108
X91814Y69682
X91302Y72184
X91258Y74318
X160202Y76837
X161056Y82143
X155947Y137830
X148561Y138112
X57000Y138750
X54000
X146683Y143207
X162518Y150809
X43750Y158319
X59000Y179750
X56000
X53000
X50000
X47000
Y182750
X50000
X53000
X56000
X59000
X47000Y185750
X50000
X53000
X56000
X59000
X120000Y194750
X117000
X114000
X111000
X108000
X105000
X98000
X95000
X92000
X89000
X86000
X83000
X80000
X77000
X74000
X71000
X68000
T02
X38845Y114615
Y115885
X40115Y114615
Y115885
X41385Y114615
Y115885
X42655Y114615
Y115885
X43925Y114615
Y115885
X45195Y114615
Y115885
X46465Y114615
Y115885
X47735Y114615
Y115885
X49005Y114615
Y115885
X50275Y114615
Y115885
X51545Y114615
Y115885
X52815Y114615
Y115885
X54085Y114615
Y115885
X55355Y114615
Y115885
X144645Y114615
Y115885
X145915Y114615
Y115885
X147185Y114615
Y115885
X148455Y114615
Y115885
X149725Y114615
Y115885
X150995Y114615
Y115885
X152265Y114615
Y115885
X153535Y114615
Y115885
X154805Y114615
Y115885
X156075Y114615
Y115885
X157345Y114615
Y115885
X158615Y114615
Y115885
X159885Y114615
Y115885
X161155Y114615
Y115885
X41095Y121515
X42365
X43635
X44905
X46175
X47445
X48715
X49985
X51255
X52525
X53795
X55065
X56335
X57605
X146895
X148165
X149435
X150705
X151975
X153245
X154515
X155785
X157055
X158325
X159595
X160865
X162135
X163405
Y122785
X162135
X160865
X159595
X158325
X157055
X155785
X154515
X153245
X151975
X150705
X149435
X148165
X146895
X57605
X56335
X55065
X53795
X52525
X51255
X49985
X48715
X47445
X46175
X44905
X43635
X42365
X41095
T03
X36992Y70531
X46512
X52862
X62382
X68732
X78252
X81422
X33822Y83788
Y87019
Y90851
Y94021
X36992
X46512
X49682
X52852
X62382
X65552
X68732
X78252
X81422
T05
X70000Y45050
X141600Y49850
X57500Y51050
X153100Y58850
X188630Y112100
X172630
X100000Y112400
X29630Y112100
X13630
X106350Y118750
X93650
X13630Y125400
X29630
X100000Y125100
X172630Y125400
X188630
X30900Y161650
X38800Y170550
X151900Y180050
T06
X100000Y118750
T00
M30
