*
G04 Job   : H:\SPIROSE\PCB\ROTATIVE_BASE\PCB\PCB.pcb*
G04 User  : DESKTOP-D6MOGOB:alexis*
G04 Layer : EtchLayer3.gdo*
G04 Date  : Tue Jan 09 14:21:18 2018*
%ICAS*%
%MOIN*%
%FSLAX24Y24*%
%OFA0.0000B0.0000*%
G90*
G74*
%ADD10C,0.00000*%
%ADD18C,0.00591*%
%ADD14C,0.00787*%
%ADD17C,0.01000*%
%ADD15C,0.01575*%
%ADD16C,0.02362*%
%ADD19C,0.02756*%
%ADD70C,0.03937*%
%ADD71C,0.08661*%
%ADD12C,0.19685*%
%ADD13C,0.23622*%
%ADD11C,0.31496*%
G01*
G36*
X197Y51673D02*
G02X1968Y53445I1771D01*
G01X1969*
X3732*
Y44134*
G03X5366Y42500I1634*
X7000Y44134J1634*
X5366Y45768I1634*
X3732Y44134J1634*
G01Y49370*
G03X5366Y47736I1634*
X7000Y49370J1634*
X5366Y51004I1634*
X3732Y49370J1634*
G01Y53445*
X5272*
G03X5850Y53914J590*
G02X8346Y61387I33520J7044*
G01Y37795*
G03X8464Y37677I119*
G01X12804Y37664*
Y32987*
G03X13316Y32475I512*
X13828Y32987J512*
X13316Y33499I512*
X12804Y32987J512*
G01Y34259*
G03X13316Y33748I512*
X13828Y34259J511*
X13316Y34771I512*
X12804Y34259J512*
G01Y35768*
G03X13316Y35256I512*
X13828Y35768J512*
X13316Y36280I512*
X12804Y35768J512*
G01Y37016*
G03X13316Y36504I512*
X13828Y37016J512*
X13316Y37528I512*
X12804Y37016J512*
G01Y37664*
X14474Y37659*
G02X14503Y37629J30*
X14478Y37600I29*
G03X13973Y37016I86J584*
G01Y27768*
G03X14564Y27177I591*
X15154Y27768J591*
X14564Y28359I590*
X13973Y27768J591*
G01Y37016*
G03X14564Y36425I591*
X15154Y37016J591*
X14653Y37600I590*
G02X14628Y37629I5J29*
X14658Y37658I30*
G01X16361Y37653*
G02X16390Y37624I1J29*
G01X16393Y35795*
G03X16428Y35711I118*
G01X17800Y34339*
Y27768*
G03X18312Y27256I512*
X18824Y27768J512*
X18312Y28280I512*
X17800Y27768J512*
G01Y34339*
X17825Y34314*
G03X17908Y34280I83J84*
G01X20221*
Y27768*
G03X20812Y27177I591*
X20863Y27180J591*
G01Y20098*
G03X22638Y18324I1775*
X24413Y20098J1774*
X22638Y21873I1775*
X20863Y20098J1775*
G01Y27180*
G03X21402Y27768I51J588*
X20812Y28359I590*
X20221Y27768J591*
G01Y34280*
X24048*
Y27768*
G03X24560Y27256I512*
X25072Y27768J512*
X24560Y28280I512*
X24048Y27768J512*
G01Y34280*
X25784*
Y17736*
G03X27559Y15961I1775*
X29334Y17736J1775*
X27559Y19511I1775*
X25784Y17736J1775*
G01Y34280*
X26469*
Y27768*
G03X27060Y27177I591*
X27650Y27768J591*
X27060Y28359I590*
X26469Y27768J591*
G01Y34280*
X30207*
G03X30290Y34314J118*
G01X30296Y34320*
Y27768*
G03X30808Y27256I512*
X31280Y27569J512*
G01Y19980*
G03X31496Y19764I216*
X31713Y19980J216*
X31496Y20197I217*
X31280Y19980J217*
G01Y21161*
G03X31496Y20945I216*
X31713Y21161J216*
X31496Y21378I217*
X31280Y21161J217*
G01Y27569*
G03X31320Y27768I472J199*
X30808Y28280I512*
X30296Y27768J512*
G01Y34320*
X31473Y35491*
G03X31507Y35575I84J84*
G01X31510Y36854*
G02X31539Y36883I29*
X31544J29*
G01Y27768*
G03X31806Y27321I512*
G01Y24445*
G03X32022Y24228I216*
X32239Y24445J217*
X32022Y24661I217*
X31806Y24445J216*
G01Y27321*
G03X32056Y27256I250J447*
X32461Y27455J512*
G01Y19980*
G03X32677Y19764I216*
X32894Y19980J216*
X32677Y20197I217*
X32461Y19980J217*
G01Y21161*
G03X32677Y20945I216*
X32894Y21161J216*
X32677Y21378I217*
X32461Y21161J217*
G01Y27455*
G03X32568Y27768I405J313*
X32056Y28280I512*
X31544Y27768J512*
G01Y36883*
G02X31568Y36863I5J29*
G03X32056Y36504I488J153*
X32568Y37016J512*
X32056Y37528I512*
X31568Y37171J512*
G02X31540Y37151I28J9*
X31511Y37180J29*
G01X31513Y38215*
G02X31542Y38244I29*
G01X32619Y38246*
G02X32649Y38216J30*
G01Y33218*
G03X32675Y33155I88*
G01X34173Y31657*
Y16267*
G03X34370Y16070I197*
X34567Y16267J197*
X34370Y16464I197*
X34173Y16267J197*
G01Y31657*
X34335Y31495*
Y20445*
G03X34532Y20248I197*
X34541J197*
G01X34542*
G02X34572Y20219J29*
G01Y20217*
G03Y20208I196J9*
X34673Y20036I196*
G01Y18708*
G03X34870Y18511I197*
X35067Y18708J197*
X34870Y18905I197*
X34673Y18708J197*
G01Y20036*
G03X34768Y20011I95J172*
X34965Y20208J197*
Y20217I197*
G01Y20219*
G02X34995Y20248I30*
G01X34996*
G03X35005I9J197*
X35014J197*
G01X35016*
G02X35045Y20219J29*
G01Y20217*
G03Y20208I197J9*
X35173Y20024I197*
G01Y16267*
G03X35370Y16070I197*
X35567Y16267J197*
X35370Y16464I197*
X35173Y16267J197*
G01Y20024*
G03X35242Y20011I69J184*
X35439Y20208J197*
X35242Y20405I197*
X35233J197*
G01X35231*
G02X35202Y20434J29*
G01Y20436*
G03Y20445I197J9*
X35005Y20642I197*
X34808Y20445J197*
Y20436I197*
G01Y20434*
G02X34779Y20405I29*
G01X34778*
G03X34768I10J197*
X34759J197*
G01X34758*
G02X34728Y20434J29*
G01Y20436*
G03X34729Y20445I196J9*
X34532Y20642I197*
X34335Y20445J197*
G01Y31495*
X35673Y30157*
Y18708*
G03X35870Y18511I197*
X36067Y18708J197*
X35870Y18905I197*
X35673Y18708J197*
G01Y30157*
X35712Y30118*
Y29259*
G03X35729Y29174I216*
G01Y28419*
G03X35931Y28203I217*
G01Y27434*
G03X36147Y27217I216*
X36364Y27434J217*
X36147Y27651I217*
X35931Y27434J217*
G01Y28203*
G03X35946Y28202I15J216*
X36162Y28419J217*
X35946Y28635I216*
X35729Y28419J216*
G01Y29174*
G03X35928Y29042I199J85*
X36145Y29259J217*
X35928Y29476I217*
X35712Y29259J217*
G01Y30118*
X35767Y30062*
G03X35830Y30036I63J63*
G01X35985*
G02X36010Y30022J29*
G03X36178Y29928I168J103*
X36375Y30125J197*
X36178Y30322I197*
X36010Y30228J197*
G02X35985Y30214I25J15*
G01X35879*
G02X35858Y30222J29*
G01X32835Y33246*
G02X32826Y33266I21J20*
G01Y38305*
G02X32856Y38335I30*
G01X32859*
G02X32889Y38305J30*
G01Y33367*
G03X32915Y33305I89*
G01X35792Y30427*
G03X35855Y30401I63J63*
G01X36334*
G02X36359Y30387J29*
G03X36527Y30293I168J103*
X36546Y30294J197*
G01Y26420*
G03X36762Y26204I216*
X36979Y26420J216*
X36762Y26637I217*
X36546Y26420J217*
G01Y30294*
G03X36724Y30490I19J196*
X36527Y30687I197*
X36359Y30593J197*
G02X36334Y30578I25J15*
G01X35904*
G02X35883Y30587J30*
G01X33075Y33395*
G02X33066Y33416I21J21*
G01Y38465*
G03X33040Y38527I88*
G01X28146Y43422*
G03X28083Y43448I63J63*
G01X21607*
G02X21586Y43456J29*
G01X20142Y44900*
G02X20134Y44916I21J21*
G03X20132Y44923I78J13*
G01X20059Y45196*
G03X19793Y45400I266J72*
X19518Y45124J276*
X19722Y44858I275*
G01X19994Y44785*
G03X20001Y44783I21J76*
G02X20017Y44775I5J29*
G01X21496Y43296*
G03X21558Y43270I62J63*
G01X28034*
G02X28055Y43262J29*
G01X32108Y39208*
G02X32117Y39188I20J20*
X32088Y39158I29*
X32067Y39166J30*
G01X31707Y39521*
X28046Y43182*
G03X27984Y43207I62J63*
G01X18814*
G02X18807Y43208J30*
G03X18784Y43211I23J85*
G01X18495*
G03X18473Y43208J88*
G02X18465Y43207I8J29*
G01X17847*
G02X17826Y43216J30*
G01X16188Y44854*
G02X16180Y44870I21J21*
G03X16177Y44884I77J14*
G01X16052Y45219*
Y45220*
G03X15793Y45400I259J96*
X15518Y45124J276*
X15698Y44866I275*
G01X16034Y44741*
G03X16047Y44737I27J74*
G02X16063Y44729I5J29*
G01X17736Y43056*
G03X17798Y43030I62J63*
G01X18491*
G03X18514Y43033J89*
G02X18522Y43034I8J28*
G01X18758*
G02X18765Y43033J29*
G03X18788Y43030I23J86*
G01X27935*
G02X27956Y43022J29*
G01X28301Y42676*
G02X28310Y42655I21J21*
X28280Y42625I30*
G01X18256Y42628*
G02X18227Y42654J29*
G03X18031Y42829I196J22*
X17836Y42654J197*
G02X17806Y42628I30J4*
G01X14856Y42629*
G02X14827Y42658J29*
G01Y55917*
G02X14836Y55938I29*
G01X15018Y56119*
Y45624*
G03X15293Y45348I275*
X15569Y45624J276*
X15293Y45900I276*
X15018Y45624J276*
G01Y56119*
X15864Y56959*
Y47841*
G03X16018Y47570I315*
G01Y45624*
G03X16293Y45348I275*
X16518Y45464J276*
G01Y45124*
G03X16793Y44848I275*
X17069Y45124J276*
X16793Y45400I276*
X16518Y45124J276*
G01Y45464*
G03X16552Y45528I225J160*
G01Y45529*
X16677Y45864*
G03X16680Y45878I74J28*
G02X16688Y45894I29J5*
G01X16794Y46000*
G02X16815Y46008I21J21*
G01X17018*
Y45624*
G03X17293Y45348I275*
X17518Y45464J276*
G01Y45124*
G03X17793Y44848I275*
X18069Y45124J276*
X17793Y45400I276*
X17518Y45124J276*
G01Y45464*
G03X17569Y45624I225J160*
X17293Y45900I276*
X17018Y45624J276*
G01Y46008*
X18018*
Y45624*
G03X18293Y45348I275*
X18518Y45464J276*
G01Y45124*
G03X18793Y44848I275*
X19069Y45124J276*
X18793Y45400I276*
X18518Y45124J276*
G01Y45464*
G03X18569Y45624I225J160*
X18293Y45900I276*
X18018Y45624J276*
G01Y46008*
X19018*
Y45624*
G03X19293Y45348I275*
X19569Y45624J276*
X19293Y45900I276*
X19018Y45624J276*
G01Y46008*
X20018*
Y45624*
G03X20293Y45348I275*
X20518Y45464J276*
G01Y45124*
G03X20722Y44858I275*
G01X20994Y44785*
G03X21001Y44783I21J76*
G02X21017Y44775I5J29*
G01X22255Y43537*
G03X22318Y43511I63J62*
G01X28134*
G02X28154Y43502J30*
G01X33121Y38536*
G02X33129Y38515I21J21*
G01Y33467*
G03X33155Y33404I89*
G01X35767Y30792*
G03X35830Y30766I63J63*
G01X35985*
G02X36010Y30752J30*
G03X36178Y30658I168J103*
X36375Y30855J197*
X36178Y31051I197*
X36010Y30957J196*
G02X35985Y30943I25J16*
G01X35879*
G02X35858Y30952J30*
G01X33315Y33495*
G02X33306Y33516I21J21*
G01Y38564*
G03X33280Y38627I88*
G01X28245Y43662*
G03X28183Y43688I62J63*
G01X22367*
G02X22346Y43696J29*
G01X21142Y44900*
G02X21134Y44916I21J21*
G03X21132Y44923I78J13*
G01X21059Y45196*
G03X20793Y45400I266J72*
X20518Y45124J276*
G01Y45464*
G03X20569Y45624I225J160*
X20293Y45900I276*
X20018Y45624J276*
G01Y46008*
X21018*
Y45624*
G03X21293Y45348I275*
X21496Y45437J276*
G02X21518Y45447I22J20*
X21541Y45435J30*
G03X21604Y45372I252J189*
G02X21616Y45348I17J24*
X21607Y45327I29*
G03X21518Y45124I186J203*
X21722Y44858I275*
G01X21994Y44785*
G03X22001Y44783I21J76*
G02X22017Y44775I5J29*
G01X23015Y43777*
G03X23078Y43751I63J62*
G01X28233*
G02X28254Y43742J30*
G01X33361Y38635*
G02X33369Y38615I21J20*
G01Y33617*
G03X33395Y33554I89*
G01X35792Y31157*
G03X35855Y31131I63J62*
G01X36334*
G02X36359Y31117J30*
G03X36527Y31023I168J102*
X36724Y31219J196*
X36527Y31416I197*
X36359Y31322J197*
G02X36334Y31308I25J15*
G01X35904*
G02X35883Y31317J29*
G01X33555Y33645*
G02X33546Y33665I21J20*
G01Y38663*
G03X33521Y38726I88*
G01X28345Y43902*
G03X28282Y43928I63J63*
G01X23127*
G02X23106Y43937J29*
G01X22142Y44900*
G02X22134Y44916I21J21*
G03X22132Y44923I78J13*
G01X22059Y45196*
G03X21980Y45327I266J72*
G02X21970Y45348I20J21*
X21982Y45372I30*
G03X22108Y45624I189J252*
X21793Y45939I315*
X21541Y45813J315*
G02X21518Y45801I23J18*
X21496Y45811J30*
G03X21293Y45900I203J187*
X21018Y45624J276*
G01Y46008*
X24591*
G03X24654Y46034J89*
G01X24844Y46224*
Y45270*
G03X25040Y45073I196*
X25087Y45079J197*
G02X25094Y45080I7J29*
X25114Y45071J30*
G01X25205Y44980*
G02X25210Y44974I21J21*
G03X25224Y44955I77J44*
G01X26163Y44017*
G03X26225Y43991I62J63*
G01X28333*
G02X28353Y43982J30*
G01X33601Y38735*
G02X33609Y38714I21J21*
G01Y33716*
G03X33635Y33653I89*
G01X35767Y31522*
G03X35830Y31496I63J62*
G01X35985*
G02X36010Y31481J30*
G03X36178Y31387I168J103*
X36375Y31584J197*
X36178Y31781I197*
X36010Y31687J197*
G02X35985Y31673I25J15*
G01X35879*
G02X35858Y31681J29*
G01X33795Y33744*
G02X33787Y33765I21J21*
G01Y38763*
G03X33761Y38826I89*
G01X28444Y44142*
G03X28381Y44168I63J62*
G01X26274*
G02X26253Y44177J30*
G01X25368Y45062*
G02X25364Y45068I21J21*
G03X25349Y45086I77J44*
G01X25240Y45196*
G02X25231Y45217I21J21*
X25232Y45224I30*
G03X25237Y45270I192J46*
X25040Y45467I197*
X24844Y45270J197*
G01Y46224*
X25037Y46417*
Y46216*
G03X25233Y46019I196*
X25280Y46024J197*
G02X25287Y46025I7J29*
X25307Y46016J30*
G01X25384Y45939*
G02X25392Y45924I21J20*
G03X25408Y45886I88J14*
G01Y45286*
G03X25605Y45089I197*
X25651Y45094J197*
G02X25658Y45095I7J28*
X25679Y45087J29*
G01X25785Y44980*
G02X25789Y44976I20J21*
G03X25798Y44965I72J52*
G01X26506Y44257*
G03X26569Y44231I63J63*
G01X28432*
G02X28453Y44222J29*
G01X33841Y38834*
G02X33850Y38813I21J21*
G01Y33866*
G03X33876Y33803I88*
G01X35792Y31886*
G03X35855Y31860I63J63*
G01X36334*
G02X36359Y31846J29*
G03X36527Y31752I168J103*
X36724Y31949J197*
X36527Y32146I197*
X36359Y32052J197*
G02X36334Y32038I25J15*
G01X35904*
G02X35883Y32046J29*
G01X34035Y33894*
G02X34027Y33915I21J21*
G01Y38862*
G03X34001Y38925I89*
G01X28544Y44382*
G03X28481Y44408I63J62*
G01X26618*
G02X26597Y44417J30*
G01X25936Y45077*
G02X25933Y45081I21J21*
G03X25923Y45093I72J51*
G01X25804Y45212*
G02X25796Y45233I21J21*
Y45240I29*
G03X25802Y45286I191J46*
X25605Y45483I197*
X25408Y45286J197*
G01Y45886*
G03X25417Y45876I72J52*
G01X26796Y44497*
G03X26858Y44471I62J63*
G01X28531*
G02X28552Y44463J29*
G01X34081Y38934*
G02X34090Y38913I21J21*
G01Y33965*
G03X34116Y33903I88*
G01X35767Y32251*
G03X35830Y32225I63J63*
G01X35985*
G02X36010Y32211J29*
G03X36178Y32117I168J103*
X36375Y32314J197*
X36178Y32511I197*
X36010Y32416J197*
G02X35985Y32402I25J16*
G01X35879*
G02X35858Y32411J30*
G01X34276Y33993*
G02X34267Y34014I20J21*
G01Y38962*
G03X34241Y39025I89*
G01X28643Y44622*
G03X28580Y44648I63J62*
G01X26907*
G02X26886Y44657J30*
G01X25575Y45968*
G02X25567Y45984I21J21*
G03X25542Y46032I87J15*
G01X25433Y46142*
G02X25424Y46163I21J21*
X25425Y46169I30*
G03X25430Y46216I192J47*
X25233Y46412I197*
X25037Y46216J196*
G01Y46417*
X25119Y46500*
G02X25140Y46508I21J21*
G01X25778*
Y45959*
G03X25975Y45762I197*
X26021Y45768J197*
G02X26028Y45769I7J29*
X26049Y45760J30*
G01X27072Y44737*
G03X27134Y44711I62J63*
G01X28631*
G02X28652Y44703J29*
G01X34321Y39033*
G02X34330Y39012I21J21*
G01Y34115*
G03X34356Y34052I89*
G01X35792Y32616*
G03X35855Y32590I63J62*
G01X36334*
G02X36359Y32576J30*
G03X36527Y32482I168J102*
X36724Y32678J196*
X36527Y32875I197*
X36359Y32781J197*
G02X36334Y32767I25J16*
G01X35904*
G02X35883Y32776J30*
G01X34516Y34143*
G02X34507Y34164I21J21*
G01Y39061*
G03X34481Y39124I88*
G01X28743Y44863*
G03X28680Y44889I63J63*
G01X27183*
G02X27163Y44897J29*
G01X26175Y45885*
G02X26166Y45906I20J21*
X26167Y45913I29*
G03X26172Y45959I192J46*
X25975Y46156I197*
X25778Y45959J197*
G01Y46508*
X26232*
Y46169*
G03X26428Y45972I196*
X26475Y45977J197*
G02X26481Y45978I6J28*
X26502Y45970J29*
G01X27494Y44978*
G03X27557Y44952I63J62*
G01X28730*
G02X28751Y44943J30*
G01X34561Y39133*
G02X34570Y39112I20J21*
G01Y34215*
G03X34596Y34152I89*
G01X35767Y32981*
G03X35830Y32955I63J62*
G01X35985*
G02X36010Y32941J30*
G03X36178Y32846I168J102*
X36375Y33043J197*
X36178Y33240I197*
X36010Y33146J197*
G02X35985Y33132I25J15*
G01X35879*
G02X35858Y33141J29*
G01X34756Y34243*
G02X34747Y34263I21J20*
G01Y39161*
G03X34721Y39223I88*
G01X28842Y45103*
G03X28779Y45129I63J63*
G01X27606*
G02X27585Y45137J29*
G01X26628Y46095*
G02X26619Y46116I20J21*
X26620Y46123I29*
G03X26625Y46169I192J46*
X26428Y46366I197*
X26232Y46169J197*
G01Y46508*
X26550*
G02X26571Y46500J29*
G01X27853Y45218*
G03X27916Y45192I63J62*
G01X28830*
G02X28851Y45183J30*
G01X34802Y39232*
G02X34810Y39211I21J21*
G01Y34351*
G03X34836Y34288I89*
G01X35779Y33345*
G03X35842Y33319I63J63*
G01X36334*
G02X36359Y33305J29*
G03X36527Y33211I168J103*
X36724Y33408J197*
X36527Y33605I197*
X36359Y33511J197*
G02X36334Y33497I25J15*
G01X35891*
G02X35870Y33505J29*
G01X34996Y34379*
G02X34987Y34400I21J21*
G01Y39260*
G03X34961Y39323I88*
G01X28941Y45343*
G03X28879Y45369I62J63*
G01X27965*
G02X27944Y45378J29*
G01X26662Y46659*
G03X26599Y46685I63J62*
G01X25091*
G03X25029Y46660J88*
G01X24563Y46194*
G02X24542Y46185I21J21*
G01X16766*
G03X16703Y46159J88*
G01X16563Y46019*
G02X16547Y46011I21J21*
G03X16534Y46007I14J78*
G01X16198Y45882*
G03X16018Y45624I95J258*
G01Y47570*
G03X16179Y47526I161J271*
X16431Y47652J315*
G02X16455Y47663I24J18*
X16476Y47654J29*
G03X16608Y47574I203J187*
G01X16880Y47501*
G03X16887Y47500I20J76*
G02X16903Y47492I5J29*
G01X18120Y46274*
G03X18183Y46248I63J63*
G01X24492*
G03X24554Y46274J89*
G01X25020Y46740*
G02X25041Y46748I21J21*
G01X27173*
Y46433*
G03X27370Y46236I197*
X27416Y46241J197*
G02X27423Y46242I7J28*
X27444Y46233J29*
G01X27549Y46129*
X27550Y46127*
G03X27554Y46123I67J59*
G01X28210Y45467*
G03X28273Y45441I63J63*
G01X28920*
G02X28941Y45432J30*
G01X35042Y39332*
G02X35050Y39311I21J21*
G01Y34451*
G03X35076Y34388I89*
G01X35754Y33710*
G03X35817Y33684I63J63*
G01X35985*
G02X36010Y33670J29*
G03X36178Y33576I168J103*
X36375Y33773J197*
X36178Y33970I197*
X36010Y33876J197*
G02X35985Y33861I25J15*
G01X35866*
G02X35845Y33870J30*
G01X35236Y34479*
G02X35228Y34499I21J20*
G01Y39360*
G03X35202Y39422I89*
G01X29032Y45592*
G03X28969Y45618I63J62*
G01X28322*
G02X28301Y45627J30*
G01X27684Y46243*
X27683Y46245*
G03X27679Y46249I66J59*
G01X27569Y46359*
G02X27561Y46380I21J21*
X27562Y46387I29*
G03X27567Y46433I192J46*
X27370Y46629I197*
X27173Y46433J196*
G01Y46748*
X28092*
Y46136*
G03X28289Y45940I197*
X28335Y45945J196*
G02X28342Y45946I7J29*
X28363Y45937J30*
G01X28509Y45791*
G03X28571Y45765I62J63*
G01X28936*
G02X28956Y45757J29*
G01X35282Y39431*
G02X35291Y39410I21J21*
G01Y34550*
G03X35317Y34487I88*
G01X35727Y34077*
G03X35789Y34051I62J63*
G01X36334*
G02X36359Y34037J29*
G03X36527Y33943I168J103*
X36724Y34140J197*
X36527Y34337I197*
X36359Y34243J197*
G02X36334Y34228I25J15*
G01X35838*
G02X35817Y34237J30*
G01X35476Y34578*
G02X35468Y34599I21J21*
G01Y39459*
G03X35442Y39522I89*
G01X29047Y45917*
G03X28985Y45942I62J63*
G01X28620*
G02X28599Y45951J30*
G01X28488Y46062*
G02X28479Y46083I21J21*
X28480Y46090I30*
G03X28486Y46136I191J46*
X28289Y46333I197*
X28092Y46136J197*
G01Y46748*
X28541*
Y46409*
G03X28737Y46212I196*
X28784Y46218J197*
G02X28790Y46219I6J29*
X28811Y46210J30*
G01X28950Y46072*
G03X28998Y46047I62J62*
G02X29014Y46039I5J29*
G01X35522Y39531*
G02X35531Y39510I21J21*
G01Y34649*
G03X35557Y34587I88*
G01X35700Y34443*
G03X35763Y34417I63J63*
G01X35985*
G02X36010Y34403J29*
G03X36178Y34309I168J103*
X36375Y34506J197*
X36178Y34703I197*
X36010Y34608J197*
G02X35985Y34594I25J16*
G01X35812*
G02X35791Y34603J30*
G01X35717Y34678*
G02X35708Y34698I20J20*
G01Y39559*
G03X35682Y39621I89*
G01X29106Y46197*
G03X29058Y46222I62J63*
G02X29042Y46230I5J29*
G01X28937Y46335*
G02X28928Y46356I21J21*
X28929Y46363I30*
G03X28934Y46409I192J46*
X28737Y46606I197*
X28541Y46409J197*
G01Y46748*
X30247*
G02X30268Y46740J29*
G01X30271Y46736*
G03X30334Y46710I63J63*
G01X30489*
G02X30514Y46696J29*
G03X30682Y46602I168J103*
X30879Y46799J197*
X30682Y46996I197*
X30514Y46901J197*
G02X30489Y46887I25J16*
G01X30383*
G02X30362Y46896J30*
G01X30358Y46900*
G03X30296Y46926I62J63*
G01X24992*
G03X24929Y46900J89*
G01X24464Y46434*
G02X24443Y46426I21J21*
G01X18232*
G02X18211Y46434J29*
G01X17028Y47617*
G02X17020Y47633I21J21*
G03X17018Y47640I78J14*
G01X16945Y47912*
G03X16679Y48116I266J71*
X16476Y48027J275*
G02X16455Y48018I21J20*
X16431Y48030J29*
G03X16368Y48093I252J189*
G02X16356Y48116I18J23*
X16366Y48138I30*
G03X16445Y48269I187J203*
G01X16518Y48542*
G03X16520Y48548I76J20*
G02X16528Y48564I29J5*
G01X16904Y48940*
Y48341*
G03X17179Y48065I275*
X17404Y48181J276*
G01Y47841*
G03X17608Y47574I275*
G01X17880Y47501*
G03X17887Y47500I20J76*
G02X17903Y47492I5J29*
G01X18880Y46515*
G03X18943Y46489I63J62*
G01X24392*
G03X24455Y46514J88*
G01X24987Y47047*
G02X25008Y47055I21J21*
G01X30822*
G02X30843Y47047J29*
G01X30951Y46939*
G02X30960Y46918I21J21*
G01Y46643*
G02X30945Y46618I30*
G03X30851Y46450I103J168*
X31048Y46253I197*
X31245Y46450J197*
X31151Y46618I197*
G02X31137Y46643I15J25*
G01Y46967*
G03X31111Y47029I89*
G01X30933Y47207*
G03X30871Y47232I62J63*
G01X24959*
G03X24896Y47207J88*
G01X24364Y46674*
G02X24343Y46666I21J21*
G01X18992*
G02X18971Y46674J29*
G01X18028Y47617*
G02X18020Y47633I21J21*
G03X18018Y47640I78J14*
G01X17945Y47912*
G03X17679Y48116I266J71*
X17404Y47841J275*
G01Y48181*
G03X17445Y48269I225J160*
G01X17518Y48542*
G03X17520Y48548I76J20*
G02X17528Y48564I29J5*
G01X17904Y48940*
Y48341*
G03X18179Y48065I275*
X18404Y48181J276*
G01Y47841*
G03X18608Y47574I275*
G01X18880Y47501*
G03X18887Y47500I20J76*
G02X18903Y47492I5J29*
G01X19640Y46755*
G03X19702Y46729I62J62*
G01X24293*
G03X24355Y46755J88*
G01X24888Y47287*
G02X24908Y47295I20J21*
G01X31109*
G02X31129Y47287J29*
G01X31317Y47099*
G02X31325Y47079I21J20*
G01Y46992*
G02X31311Y46967I29*
G03X31217Y46799I103J168*
X31414Y46602I197*
X31611Y46799J197*
X31517Y46967I197*
G02X31503Y46992I15J25*
G01Y47128*
G03X31477Y47190I89*
G01X31220Y47447*
G03X31157Y47473I63J63*
G01X24860*
G03X24797Y47447J89*
G01X24265Y46914*
G02X24244Y46906I21J21*
G01X19751*
G02X19730Y46914J29*
G01X19028Y47617*
G02X19020Y47633I21J21*
G03X19018Y47640I78J14*
G01X18945Y47912*
G03X18679Y48116I266J71*
X18404Y47841J275*
G01Y48181*
G03X18445Y48269I225J160*
G01X18518Y48542*
G03X18520Y48548I76J20*
G02X18528Y48564I29J5*
G01X18904Y48940*
Y48341*
G03X19179Y48065I275*
X19404Y48181J276*
G01Y47841*
G03X19608Y47574I275*
G01X19880Y47501*
G03X19887Y47500I20J76*
G02X19903Y47492I5J29*
G01X20400Y46995*
G03X20462Y46969I62J62*
G01X24193*
G03X24256Y46995J88*
G01X24788Y47527*
G02X24809Y47536I21J21*
G01X31208*
G02X31229Y47527J30*
G01X31683Y47073*
G02X31691Y47052I21J21*
G01Y46643*
G02X31677Y46618I29*
G03X31583Y46450I103J168*
X31780Y46253I197*
X31977Y46450J197*
X31883Y46618I197*
G02X31868Y46643I15J25*
G01Y47101*
G03X31842Y47164I88*
G01X31320Y47687*
G03X31257Y47713I63J63*
G01X24760*
G03X24697Y47687J89*
G01X24165Y47155*
G02X24144Y47146I21J21*
G01X20511*
G02X20490Y47155J30*
G01X20028Y47617*
G02X20020Y47633I21J21*
G03X20018Y47640I78J14*
G01X19945Y47912*
G03X19679Y48116I266J71*
X19404Y47841J275*
G01Y48181*
G03X19445Y48269I225J160*
G01X19518Y48542*
G03X19520Y48548I76J20*
G02X19528Y48564I29J5*
G01X19904Y48940*
Y48341*
G03X20179Y48065I275*
X20404Y48181J276*
G01Y47841*
G03X20608Y47574I275*
G01X20880Y47501*
G03X20887Y47500I20J76*
G02X20903Y47492I5J29*
G01X21142Y47252*
G03X21205Y47226I63J63*
G01X24111*
G03X24174Y47252J89*
G01X24689Y47767*
G02X24709Y47776I20J21*
G01X31360*
G02X31381Y47767J30*
G01X32048Y47099*
G02X32057Y47079I21J20*
G01Y46992*
G02X32043Y46967I30*
G03X31949Y46799I103J168*
X32146Y46602I197*
X32342Y46799J197*
X32248Y46967I196*
G02X32234Y46992I16J25*
G01Y47128*
G03X32208Y47190I88*
G01X31471Y47927*
G03X31409Y47953I62J63*
G01X24661*
G03X24598Y47927J89*
G01X24083Y47412*
G02X24062Y47404I21J21*
G01X21254*
G02X21233Y47412J29*
G01X21028Y47617*
G02X21020Y47633I21J21*
G03X21018Y47640I78J14*
G01X20945Y47912*
G03X20679Y48116I266J71*
X20404Y47841J275*
G01Y48181*
G03X20445Y48269I225J160*
G01X20518Y48542*
G03X20520Y48548I76J20*
G02X20528Y48564I29J5*
G01X20790Y48826*
G02X20810Y48834I20J21*
G01X20904*
Y48341*
G03X21179Y48065I275*
X21404Y48181J276*
G01Y47841*
G03X21608Y47574I275*
G01X21880Y47501*
G03X21887Y47500I20J76*
G02X21903Y47492I5J29*
G03X21965Y47467I62J63*
G01X23132*
G03X23195Y47492J88*
G01X23807Y48105*
G02X23828Y48114I21J21*
G01X31381*
G02X31402Y48105J30*
G01X32414Y47093*
G02X32423Y47072I21J21*
G01Y46643*
G02X32409Y46618I30*
G03X32315Y46450I102J168*
X32511Y46253I196*
X32708Y46450J197*
X32614Y46618I197*
G02X32600Y46643I16J25*
G01Y47121*
G03X32574Y47184I89*
G01X31493Y48265*
G03X31430Y48291I63J62*
G01X23779*
G03X23717Y48265J88*
G01X23104Y47652*
G02X23083Y47644I21J21*
G01X22934*
G02X22905Y47673J29*
X22910Y47689I29*
G03X22945Y47769I231J152*
G01X23018Y48042*
G03X23020Y48048I76J20*
G02X23028Y48064I29J5*
G01X23309Y48345*
G02X23330Y48354I21J20*
G01X31533*
G02X31554Y48345J29*
G01X32780Y47119*
G02X32789Y47098I21J21*
G01Y46992*
G02X32775Y46967I30*
G03X32680Y46799I102J168*
X32877Y46602I197*
X33074Y46799J197*
X32980Y46967I197*
G02X32966Y46992I15J25*
G01Y47147*
G03X32940Y47210I89*
G01X31644Y48505*
G03X31582Y48531I62J62*
G01X23281*
G03X23219Y48505J88*
G01X22903Y48189*
G02X22887Y48181I21J21*
G03X22880Y48180I13J77*
G01X22608Y48107*
G03X22404Y47841I71J266*
X22449Y47689I275*
G02X22454Y47673I25J16*
X22424Y47644I30*
G01X22040*
G02X22011Y47666J29*
G01X21945Y47912*
G03X21679Y48116I266J71*
X21404Y47841J275*
G01Y48181*
G03X21445Y48269I225J160*
G01X21518Y48542*
G03X21520Y48548I76J20*
G02X21528Y48564I29J5*
G01X21549Y48586*
G02X21570Y48594I21J21*
G01X21972*
G02X22002Y48565J29*
X21992Y48543I30*
G03X21904Y48341I187J202*
X22179Y48065I275*
X22455Y48341J276*
X22366Y48543I276*
G02X22357Y48565I20J22*
X22386Y48594I29*
G01X31672*
G02X31693Y48586J29*
G01X31928Y48350*
G02X31936Y48332I21J21*
G03X31962Y48277I89J7*
G01X33146Y47093*
G02X33154Y47072I21J21*
G01Y46643*
G02X33140Y46618I29*
G03X33046Y46450I103J168*
X33243Y46253I197*
X33440Y46450J197*
X33346Y46618I197*
G02X33332Y46643I15J25*
G01Y47121*
G03X33306Y47184I89*
G01X32122Y48368*
G02X32113Y48386I20J21*
G03X32087Y48441I88J7*
G01X31783Y48745*
G03X31721Y48771I62J62*
G01X21521*
G03X21459Y48745J88*
G01X21403Y48689*
G02X21387Y48681I21J21*
G03X21380Y48680I13J77*
G01X21108Y48607*
G03X20904Y48341I71J266*
G01Y48834*
X31784*
G02X31805Y48826J29*
G01X33512Y47119*
G02X33520Y47098I21J21*
G01Y46992*
G02X33506Y46967I29*
G03X33412Y46799I103J168*
X33609Y46602I197*
X33806Y46799J197*
X33712Y46967I197*
G02X33697Y46992I15J25*
G01Y47147*
G03X33671Y47210I88*
G01X31896Y48986*
G03X31833Y49012I63J63*
G01X20762*
G03X20699Y48986J89*
G01X20403Y48689*
G02X20387Y48681I21J21*
G03X20380Y48680I13J77*
G01X20108Y48607*
G03X19904Y48341I71J266*
G01Y48940*
X20030Y49066*
G02X20051Y49075I21J21*
G01X31923*
G02X31944Y49066J30*
G01X32077Y48932*
G02X32086Y48914I20J21*
G03X32112Y48859I88J7*
G01X33877Y47093*
G02X33886Y47072I20J21*
G01Y46645*
G02X33872Y46620I29*
G03X33778Y46452I103J168*
X33975Y46255I197*
X34172Y46452J197*
X34077Y46620I197*
G02X34063Y46645I16J25*
G01Y47121*
G03X34037Y47184I88*
G01X32271Y48950*
G02X32262Y48968I21J21*
G03X32237Y49023I88J7*
G01X32035Y49226*
G03X31972Y49252I63J63*
G01X20002*
G03X19939Y49226J89*
G01X19403Y48689*
G02X19387Y48681I21J21*
G03X19380Y48680I13J77*
G01X19108Y48607*
G03X18904Y48341I71J266*
G01Y48940*
X19161Y49197*
G03X19172Y49211I63J62*
G02X19176Y49216I25J16*
G01X19266Y49306*
G02X19287Y49315I21J21*
G01X32036*
G02X32057Y49306J30*
G01X34243Y47120*
G02X34252Y47099I21J21*
G01Y46993*
G02X34238Y46968I30*
G03X34144Y46800I102J168*
X34340Y46603I196*
X34537Y46800J197*
X34443Y46968I197*
G02X34429Y46993I16J25*
G01Y47148*
G03X34403Y47211I89*
G01X32148Y49466*
G03X32085Y49492I63J63*
G01X19238*
G03X19176Y49466J89*
G01X19035Y49326*
G03X19024Y49312I63J63*
G02X19020Y49307I25J16*
G01X18403Y48689*
G02X18387Y48681I21J21*
G03X18380Y48680I13J77*
G01X18108Y48607*
G03X17904Y48341I71J266*
G01Y48940*
X18510Y49546*
G02X18531Y49555I21J21*
G01X32136*
G02X32157Y49546J30*
G01X34609Y47094*
G02X34618Y47073I21J21*
G01Y46645*
G02X34604Y46620I30*
G03X34509Y46452I102J168*
X34706Y46255I197*
X34903Y46452J197*
X34809Y46620I197*
G02X34795Y46645I15J25*
G01Y47122*
G03X34769Y47185I89*
G01X32247Y49706*
G03X32185Y49732I62J63*
G01X18482*
G03X18419Y49706J89*
G01X17403Y48689*
G02X17387Y48681I21J21*
G03X17380Y48680I13J77*
G01X17108Y48607*
G03X16904Y48341I71J266*
G01Y48940*
X17642Y49678*
G03X17652Y49689I62J63*
G02X17655Y49693I24J17*
G01X17748Y49786*
G02X17769Y49795I21J21*
G01X32288*
G02X32309Y49786J30*
G01X34940Y47155*
G03X34942Y47153I65J60*
G01X34975Y47120*
G02X34984Y47099I21J21*
G01Y46993*
G02X34969Y46968I30*
G03X34875Y46800I103J168*
X35072Y46603I197*
X35269Y46800J197*
X35175Y46968I197*
G02X35161Y46993I15J25*
G01Y47148*
G03X35135Y47211I89*
G01X35070Y47276*
X35069*
G03X35067Y47278I64J60*
G01X32399Y49946*
G03X32337Y49972I62J62*
G01X17720*
G03X17657Y49946J88*
G01X17517Y49806*
G03X17508Y49795I63J63*
G02X17505Y49791I24J17*
G01X16403Y48689*
G02X16387Y48681I21J21*
G03X16380Y48680I13J77*
G01X16108Y48607*
G03X15904Y48341I71J266*
X15992Y48138I275*
G02X16002Y48116I20J22*
X15990Y48093I30*
G03X15864Y47841I189J252*
G01Y56959*
X20000Y61067*
Y57940*
G03X20495Y57444I495*
X20990Y57940J496*
X20495Y58435I495*
X20000Y57940J495*
G01Y61067*
X21043Y62103*
Y54626*
G03X21260Y54409I217*
X21476Y54626J217*
X21260Y54843I216*
X21043Y54626J217*
G01Y62103*
X22224Y63276*
Y54626*
G03X22441Y54409I217*
X22657Y54626J217*
X22441Y54843I216*
X22224Y54626J217*
G01Y63276*
X24026Y65066*
G02X24047Y65074I21J21*
G01X24247*
Y52477*
G03X24762Y51962I515*
X25276Y52477J515*
X24762Y52992I514*
X24247Y52477J515*
G01Y65074*
X24762*
Y57005*
G03X26139Y55627I1377*
X27517Y57005J1378*
X26139Y58383I1378*
X24762Y57005J1378*
G01Y65074*
X35373*
Y44523*
G03X35399Y44460I89*
G01X37331Y42528*
Y40245*
G03X37527Y40048I196*
X37724Y40245J197*
X37527Y40442I197*
X37331Y40245J197*
G01Y42528*
X38824Y41035*
Y27727*
G03X39021Y27531I197*
X39217Y27727J196*
X39021Y27924I196*
X38824Y27727J197*
G01Y41035*
X38863Y40996*
Y29321*
G03X39060Y29124I197*
X39256Y29321J197*
X39060Y29518I196*
X38863Y29321J197*
G01Y30108*
G03X39060Y29911I197*
X39256Y30108J197*
X39060Y30305I196*
X38863Y30108J197*
G01Y31093*
G03X39060Y30896I197*
X39256Y31093J197*
X39060Y31289I196*
X38863Y31093J196*
G01Y31683*
G03X39060Y31486I197*
X39256Y31683J197*
X39060Y31880I196*
X38863Y31683J197*
G01Y32669*
G03X39060Y32472I197*
X39256Y32669J197*
X39060Y32866I196*
X38863Y32669J197*
G01Y34047*
G03X39060Y33850I197*
X39256Y34047J197*
X39060Y34243I196*
X38863Y34047J196*
G01Y35381*
G03X39060Y35184I197*
X39256Y35381J197*
X39060Y35578I196*
X38863Y35381J197*
G01Y35853*
G03X39060Y35656I197*
X39256Y35853J197*
X39060Y36050I196*
X38863Y35853J197*
G01Y36999*
G03X39060Y36802I197*
X39256Y36999J197*
X39060Y37196I196*
X38863Y36999J197*
G01Y38132*
G03X39060Y37935I197*
X39256Y38132J197*
X39060Y38329I196*
X38863Y38132J197*
G01Y38605*
G03X39060Y38408I197*
X39256Y38605J197*
X39060Y38801I196*
X38863Y38605J196*
G01Y40996*
X39422Y40437*
Y28421*
G03X39619Y28224I197*
X39816Y28421J197*
X39619Y28618I197*
X39422Y28421J197*
G01Y40437*
X39567Y40292*
Y31683*
G03X39764Y31486I197*
X39895Y31536J197*
G01Y28421*
G03X39941Y28294I196*
G01Y23130*
G03X40157Y22913I216*
X40374Y23130J217*
X40157Y23346I217*
X39941Y23130J216*
G01Y24311*
G03X40157Y24094I216*
X40374Y24311J217*
X40157Y24528I217*
X39941Y24311J217*
G01Y28294*
G03X40091Y28224I150J127*
X40288Y28421J197*
X40091Y28618I197*
X39895Y28421J197*
G01Y31536*
G03X39961Y31683I131J147*
X39764Y31880I197*
X39567Y31683J197*
G01Y40292*
X39571Y40288*
Y35381*
Y35379*
Y34047*
G03X39768Y33850I197*
X39965Y34047J197*
X39768Y34243I197*
X39571Y34047J196*
G01Y35379*
G03X39768Y35184I197J2*
X39965Y35381J197*
X39768Y35578I197*
X39571Y35381J197*
G01Y38132*
G03X39768Y37935I197*
X39965Y38132J197*
X39768Y38329I197*
X39571Y38132J197*
G01Y40288*
X40367Y39492*
Y28421*
G03X40564Y28224I197*
X40761Y28421J197*
X40564Y28618I197*
X40367Y28421J197*
G01Y39492*
X40384Y39475*
Y29516*
G03X40581Y29320I197*
X40778Y29516J196*
X40581Y29713I197*
X40384Y29516J197*
G01Y39475*
X40956Y38903*
Y28421*
G03X41122Y28227I197*
G01Y23130*
G03X41339Y22913I217*
X41555Y23130J217*
X41339Y23346I216*
X41122Y23130J216*
G01Y24311*
G03X41339Y24094I217*
X41555Y24311J217*
X41339Y24528I216*
X41122Y24311J217*
G01Y28227*
G03X41153Y28224I31J194*
X41349Y28421J197*
X41153Y28618I196*
X40956Y28421J197*
G01Y38903*
X41440Y38419*
G02X41448Y38398I21J21*
G01Y26905*
G02X41434Y26879I29*
G03X41340Y26712I103J167*
X41477Y26524I197*
G01Y25647*
G03X41674Y25451I197*
X41683J196*
G01X41685*
G02X41714Y25421J30*
G01Y25420*
G03Y25411I197J9*
Y25402I197*
G01Y25400*
G02X41685Y25371I29*
G01X41683*
G03X41674I9J197*
X41477Y25174J197*
X41674Y24977I197*
X41683Y24978J197*
G01X41685*
G02X41714Y24948J30*
G01Y24947*
G03Y24938I197J9*
X41911Y24741I197*
X42108Y24938J197*
X41911Y25134I197*
X41902J196*
G01X41900*
G02X41871Y25164J30*
G01Y25165*
G03Y25174I197J9*
Y25183I197*
G01Y25185*
G02X41900Y25214I29*
G01X41902*
G03X41911I9J197*
X42108Y25411J197*
X41911Y25608I197*
X41902Y25607J197*
G01X41900*
G02X41871Y25637J30*
G01Y25638*
G03Y25647I197J9*
X41674Y25844I197*
X41477Y25647J197*
G01Y26524*
G03X41537Y26515I60J188*
X41734Y26712J197*
X41640Y26879I197*
G02X41626Y26905I15J26*
G01Y38447*
G03X41600Y38510I89*
G01X39671Y40438*
G02X39662Y40459I21J21*
X39692Y40489I30*
X39703Y40487J30*
G03X39775Y40473I72J183*
X39972Y40670J197*
X39775Y40867I197*
X39579Y40670J197*
X39592Y40597I196*
G02X39595Y40586I27J11*
X39565Y40557I30*
X39544Y40565J29*
G01X39007Y41102*
G02X38999Y41123I21J21*
X39027Y41152I29*
G03X39217Y41349I7J197*
X39193Y41443I197*
G02X39189Y41457I26J14*
X39219Y41487I30*
G01X40365*
Y40670*
G03X40562Y40473I197*
X40759Y40670J197*
X40562Y40867I197*
X40365Y40670J197*
G01Y41487*
X40394*
G02X40415Y41478J30*
G01X41150Y40744*
G02X41152Y40741I21J21*
G01Y39560*
G03X41349Y39363I197*
X41546Y39560J197*
X41349Y39757I197*
X41152Y39560J197*
G01Y40741*
G02X41158Y40723I23J18*
X41157Y40716I29*
G03X41152Y40670I192J46*
X41349Y40473I197*
X41546Y40670J197*
X41349Y40867I197*
X41303Y40861J197*
G02X41296Y40860I7J29*
X41275Y40869J30*
G01X40506Y41638*
G03X40443Y41664I63J63*
G01X38625*
G02X38604Y41673J30*
G01X35691Y44586*
G02X35682Y44606I21J20*
G01Y46389*
G02X35712Y46419I30*
X35740Y46398J30*
G03X36870Y45568I1130J354*
X37989Y46364J1184*
G02X38017Y46384I28J10*
X38045Y46362J30*
G03X38980Y45427I1325J390*
G02X39002Y45399I8J28*
X38982Y45371I30*
G03X38186Y44252I388J1119*
X39370Y43068I1184*
X40554Y44252J1184*
X39758Y45371I1184*
G02X39739Y45399I10J28*
X39760Y45427I29*
G03X40695Y46362I390J1325*
G02X40723Y46384I28J8*
X40751Y46364J30*
G03X41745Y45574I1119J388*
G01Y40670*
G03X41942Y40473I197*
X41944J197*
G01Y28421*
G03X42141Y28224I197*
X42338Y28421J197*
X42141Y28618I197*
X41944Y28421J197*
G01Y29517*
G03X42141Y29320I197*
X42338Y29517J197*
X42141Y29713I197*
X41944Y29517J196*
G01Y40473*
G03X42139Y40670I2J197*
X41942Y40867I197*
X41745Y40670J197*
G01Y45574*
G03X41870Y45568I125J1178*
X42532Y45770J1184*
G01Y40670*
G03X42728Y40473I196*
G01X42729*
Y28421*
G03X42926Y28224I197*
X43122Y28421J197*
X42926Y28618I196*
X42729Y28421J197*
G01Y40473*
G03X42925Y40670I1J197*
X42728Y40867I197*
X42532Y40670J197*
G01Y45770*
G03X43054Y46752I662J982*
X41870Y47936I1184*
X40751Y47140J1184*
G02X40723Y47120I28J10*
X40695Y47142J30*
G03X39760Y48077I1325J390*
G02X39739Y48105I8J28*
X39758Y48133I29*
G03X40554Y49252I388J1119*
X39370Y50436I1184*
X38186Y49252J1184*
X38982Y48133I1184*
G02X39002Y48105I10J28*
X38980Y48077I30*
G03X38045Y47142I390J1325*
G02X38017Y47120I28J8*
X37989Y47140J30*
G03X36870Y47936I1119J388*
X35740Y47106J1184*
G02X35712Y47085I28J9*
X35682Y47115J30*
G01Y52025*
G02X35691Y52046I30*
G01X36647Y53002*
G03X36673Y53065I62J63*
G01Y62168*
G02X36687Y62193I30*
G03X36782Y62361I102J168*
X36585Y62558I197*
X36388Y62361J197*
X36482Y62193I197*
G02X36496Y62168I15J25*
G01Y61950*
G02X36467Y61921I29*
X36446Y61930J29*
G01X36217Y62159*
G02X36208Y62179I21J20*
X36221Y62204I30*
G03X36310Y62368I108J164*
X36113Y62565I197*
X35916Y62368J197*
X36010Y62200I197*
G02X36024Y62175I15J25*
G01Y62137*
G03X36050Y62075I89*
G01X36353Y61772*
G02X36362Y61751I21J21*
G01Y53147*
G02X36353Y53126I30*
G01X35399Y52172*
G03X35373Y52109I63J63*
G01Y65074*
X43274*
Y17507*
G03X43691Y17091I417*
X44107Y17507J416*
X43691Y17924I416*
X43274Y17507J417*
G01Y65074*
X43295*
Y24061*
G03X43492Y23864I197*
X43689Y24061J197*
X43492Y24258I197*
X43295Y24061J197*
G01Y65074*
X43560*
Y51961*
G03X43654Y51793I197*
G02X43668Y51768I16J25*
G01Y51056*
G03X43694Y50993I89*
G01X43743Y50944*
G02X43752Y50923I21J21*
G01Y43671*
G03X43778Y43609I88*
G01X43909Y43477*
Y28403*
G03X44106Y28206I197*
X44269Y28292J197*
G01Y26633*
G03X44466Y26436I197*
X44663Y26633J197*
Y26642I197*
G01Y26644*
G02X44692Y26673I29*
G01X44694*
G03X44703I9J197*
X44712J197*
G01X44713*
G02X44743Y26644J29*
G01Y26642*
G03X44742Y26633I196J9*
X44939Y26436I197*
X45136Y26633J197*
Y26642I197*
G01Y26644*
G02X45165Y26673I29*
G01X45167*
G03X45176I9J197*
X45273Y26699J197*
G01Y16581*
G03X45489Y16365I216*
X45706Y16581J216*
X45489Y16798I217*
X45273Y16581J217*
G01Y26699*
G03X45373Y26870I97J171*
X45176Y27067I197*
X44979Y26870J197*
Y26861I197*
G01Y26859*
G02X44950Y26830I29*
G01X44948*
G03X44939I9J197*
X44930J197*
G01X44929*
G02X44899Y26859J29*
G01Y26861*
G03X44900Y26870I196J9*
X44703Y27067I197*
X44506Y26870J197*
Y26861I197*
G01Y26859*
G02X44477Y26830I29*
G01X44475*
G03X44466I9J197*
X44269Y26633J197*
G01Y28292*
G03X44303Y28403I163J111*
X44106Y28599I197*
X43909Y28403J196*
G01Y43477*
X44303Y43083*
Y39561*
G03X44500Y39364I197*
X44697Y39561J197*
X44500Y39758I197*
X44303Y39561J197*
G01Y40670*
G03X44500Y40473I197*
X44697Y40670J197*
X44500Y40867I197*
X44303Y40670J197*
G01Y43083*
X44318Y43068*
G02X44327Y43047I20J21*
X44326Y43040I29*
G03X44321Y42994I192J46*
X44518Y42797I197*
X44715Y42994J197*
X44518Y43191I197*
X44472Y43186J197*
G02X44465Y43185I7J28*
X44444Y43193J29*
G01X43938Y43700*
G02X43929Y43720I21J20*
G01Y50972*
G03X43903Y51035I89*
G01X43854Y51084*
G02X43845Y51105I21J21*
G01Y51768*
G02X43859Y51793I30*
G03X43953Y51961I102J168*
X43757Y52158I196*
X43560Y51961J197*
G01Y65074*
X44982*
Y43323*
G03X45179Y43126I197*
X45376Y43323J197*
X45179Y43520I197*
X44982Y43323J197*
G01Y65074*
X45546*
Y46584*
G03X45550Y46543I197*
G01Y25661*
G03X45747Y25464I197*
X45944Y25661J197*
X45935Y25718I197*
G02X45934Y25727I29J9*
X45943Y25747I30*
G01X46027Y25831*
G03X46039Y25846I63J63*
G02X46042Y25851I24J16*
G01X46055Y25863*
Y22608*
G03X46122Y22461I196*
G02X46132Y22438I20J23*
X46123Y22417I30*
G03X46062Y22275I136J142*
X46259Y22078I197*
X46456Y22275J197*
X46389Y22423I197*
G02X46379Y22445I19J22*
X46388Y22467I29*
G03X46448Y22608I137J141*
X46389Y22749I197*
G02X46380Y22770I21J21*
X46390Y22792I30*
G03X46454Y22938I133J146*
X46257Y23135I197*
X46060Y22938J197*
X46120Y22797I197*
G02X46129Y22776I21J21*
X46119Y22754I30*
G03X46055Y22608I132J146*
G01Y25863*
X46819Y26627*
Y22244*
G03X47036Y22027I217*
X47228Y22145J217*
G01Y14555*
G03X47445Y14338I217*
X47661Y14555J217*
X47445Y14771I216*
X47228Y14555J216*
G01Y22145*
G03X47252Y22244I192J99*
X47036Y22460I216*
X46819Y22244J216*
G01Y26627*
X46884Y26693*
G02X46905Y26701I21J21*
X46912Y26700J29*
G03X46958Y26695I46J192*
X47155Y26892J197*
X46958Y27089I197*
X46761Y26892J197*
X46767Y26846I197*
G02X46768Y26839I29J7*
X46759Y26818I30*
G01X45901Y25960*
G03X45889Y25946I63J62*
G02X45886Y25941I24J16*
G01X45808Y25863*
G02X45787Y25854I21J21*
X45782Y25855J30*
G03X45747Y25858I35J194*
X45550Y25661J197*
G01Y46543*
G03X45681Y46397I193J41*
G01Y40670*
G03X45877Y40473I196*
G01Y28421*
G03X46074Y28224I197*
X46271Y28421J197*
X46074Y28618I197*
X45877Y28421J197*
G01Y29515*
G03X46074Y29318I197*
X46271Y29515J197*
X46074Y29711I197*
X45877Y29515J196*
G01Y40473*
G03X46074Y40670J197*
X45877Y40867I197*
X45681Y40670J197*
G01Y46397*
G03X45743Y46387I62J187*
X45939Y46584J197*
X45743Y46781I196*
X45546Y46584J197*
G01Y65074*
X46862*
Y28421*
G03X47059Y28224I197*
X47255Y28421J197*
X47059Y28618I196*
X46862Y28421J197*
G01Y65074*
X47061*
Y40670*
G03X47258Y40473I197*
X47455Y40670J197*
X47258Y40867I197*
X47061Y40670J197*
G01Y65074*
X47846*
Y39564*
G03X48043Y39367I197*
X48055Y39368J197*
G01Y27156*
G03X48252Y26959I197*
X48449Y27156J197*
X48252Y27352I197*
X48055Y27156J196*
G01Y39368*
G03X48240Y39560I12J196*
G01Y29514*
G03Y29506I196*
G01Y28421*
G03X48437Y28224I197*
X48576Y28283J197*
G01Y24962*
G03X48773Y24765I197*
X48970Y24962J197*
X48773Y25159I197*
X48576Y24962J197*
G01Y28283*
G03X48633Y28421I139J138*
X48437Y28618I196*
X48240Y28421J197*
G01Y29506*
G03X48436Y29317I196J8*
X48633Y29514J197*
X48436Y29710I197*
X48240Y29514J196*
G01Y39560*
G03Y39564I197J4*
X48043Y39761I197*
X47846Y39564J197*
G01Y40670*
G03X48043Y40473I197*
X48240Y40670J197*
X48043Y40867I197*
X47846Y40670J197*
G01Y65074*
X48830*
Y28299*
G03X49027Y28102I197*
X49224Y28299J197*
X49027Y28495I197*
X48830Y28299J196*
G01Y65074*
X49224*
Y40670*
G03X49241Y40590I197*
G01Y39564*
G03X49421Y39368I197*
G01Y28421*
G03X49618Y28224I197*
X49774Y28301J197*
G01Y26222*
G03X49822Y26093I196*
G01Y15684*
G03X50019Y15487I197*
X50216Y15684J197*
X50019Y15881I197*
X49822Y15684J197*
G01Y26093*
G03X49970Y26025I148J129*
X50167Y26222J197*
X49970Y26419I197*
X49774Y26222J197*
G01Y28301*
G03X49815Y28421I156J120*
X49618Y28618I197*
X49421Y28421J197*
G01Y39368*
G03X49438Y39367I17J196*
X49635Y39564J197*
X49438Y39761I197*
X49241Y39564J197*
G01Y40590*
G03X49421Y40473I180J80*
X49618Y40670J197*
X49421Y40867I197*
X49224Y40670J197*
G01Y65074*
X49900*
Y28407*
G03X50097Y28210I197*
X50293Y28407J197*
X50097Y28604I196*
X49900Y28407J197*
G01Y65074*
X50016*
Y30519*
G03X50213Y30322I197*
X50407Y30484J197*
G01Y28421*
G03X50604Y28224I197*
X50764Y28307J197*
G02X50788Y28320I24J17*
X50815Y28302J30*
G03X50994Y28188I179J83*
X51190Y28385J197*
X50994Y28582I196*
X50833Y28499J197*
G02X50809Y28487I24J17*
X50782Y28504J29*
G03X50604Y28618I178J83*
X50407Y28421J197*
G01Y30484*
G03X50410Y30519I194J35*
X50213Y30716I197*
X50016Y30519J197*
G01Y65074*
X50017*
Y31880*
G03X50214Y31683I197*
X50411Y31880J197*
X50214Y32077I197*
X50017Y31880J197*
G01Y65074*
Y35623*
G03X50214Y35426I197*
X50411Y35623J197*
X50214Y35820I197*
X50017Y35623J197*
G01Y65074*
Y37194*
G03X50214Y36997I197*
X50411Y37194J197*
X50214Y37391I197*
X50017Y37194J197*
G01Y65074*
X50071*
Y40670*
G03X50268Y40473I197*
X50465Y40670J197*
X50268Y40867I197*
X50071Y40670J197*
G01Y65074*
X50544*
Y40670*
G03X50588Y40545I197*
G01Y32347*
G03X50785Y32150I197*
X50982Y32347J197*
X50785Y32544I197*
X50588Y32347J197*
G01Y40545*
G03X50741Y40473I153J125*
X50938Y40670J197*
X50741Y40867I197*
X50544Y40670J197*
G01Y65074*
X51119*
Y29304*
Y29303*
Y28831*
G03X51316Y28634I197*
X51513Y28831J197*
X51316Y29028I197*
X51119Y28831J197*
G01Y29303*
G03X51316Y29107I197J1*
X51513Y29304J197*
X51316Y29501I197*
X51119Y29304J197*
G01Y29776*
G03X51316Y29579I197*
X51513Y29776J197*
X51316Y29973I197*
X51119Y29776J197*
G01Y30696*
G03X51316Y30500I197*
X51513Y30696J196*
X51316Y30893I197*
X51119Y30696J197*
G01Y31289*
G03X51316Y31093I197*
X51513Y31289J196*
X51316Y31486I197*
X51119Y31289J197*
G01Y31880*
G03X51316Y31683I197*
X51513Y31880J197*
X51316Y32077I197*
X51119Y31880J197*
G01Y33457*
G03X51316Y33260I197*
X51513Y33457J197*
X51316Y33653I197*
X51119Y33457J196*
G01Y36583*
Y35622*
G03X51316Y35425I197*
X51513Y35622J197*
X51316Y35819I197*
X51119Y35622J197*
G01Y36583*
G03X51316Y36386I197*
X51513Y36583J197*
X51316Y36780I197*
X51119Y36583J197*
G01Y37194*
G03X51316Y36997I197*
X51513Y37194J197*
X51316Y37391I197*
X51119Y37194J197*
G01Y37983*
G03X51316Y37786I197*
X51513Y37983J197*
X51316Y38180I197*
X51119Y37983J197*
G01Y39361*
G03X51316Y39164I197*
X51513Y39361J197*
X51316Y39558I197*
X51119Y39361J197*
G01Y40150*
G03X51316Y39953I197*
X51513Y40150J197*
X51316Y40346I197*
X51119Y40150J196*
G01Y65074*
X51158*
Y41350*
G03X51355Y41153I197*
X51551Y41350J197*
X51355Y41547I196*
X51158Y41350J197*
G01Y65074*
X51185*
G02X51205Y65066J29*
G01X52026Y64282*
Y26620*
G03X52223Y26423I197*
X52420Y26620J197*
X52223Y26817I197*
X52026Y26620J197*
G01Y64282*
X52515Y63816*
Y29123*
G03X52712Y28926I197*
X52879Y29020J197*
G02X52905Y29034I26J15*
G01X53973*
Y19626*
G03X55748Y17851I1775*
X57523Y19626J1775*
X55748Y21401I1775*
X53973Y19626J1775*
G01Y29034*
X54741*
G03X54804Y29060J89*
G01X58501Y32758*
Y23169*
G03X60276Y21394I1775*
X62050Y23169J1775*
X60276Y24944I1774*
X58501Y23169J1775*
G01Y32758*
X58695Y32952*
G03X58721Y33015I63J63*
G01Y33290*
G02X58735Y33315I30*
G03X58829Y33483I103J168*
X58632Y33680I197*
X58436Y33483J197*
X58530Y33315I196*
G02X58544Y33290I16J25*
G01Y33063*
G02X58535Y33043I30*
G01X54713Y29220*
G02X54692Y29212I21J21*
G01X52905*
G02X52879Y29226J29*
G03X52712Y29320I167J103*
X52515Y29123J197*
G01Y63816*
X52566Y63767*
Y34488*
G03X52614Y34359I197*
G02X52622Y34339I22J20*
X52615Y34320I30*
G03X52568Y34193I150J127*
X52589Y34104I197*
G01Y33187*
G03X52786Y32990I197*
X52983Y33187J197*
X52786Y33383I197*
X52589Y33187J196*
G01Y34104*
G03X52765Y33996I176J89*
X52961Y34193J197*
X52913Y34322I196*
G02X52906Y34341I22J19*
X52913Y34360I29*
G03X52960Y34488I150J128*
X52763Y34685I197*
X52566Y34488J197*
G01Y63767*
X53039Y63315*
Y33141*
G03X53052Y33072I197*
G01Y31092*
G03X53249Y30896I197*
X53417Y30990J196*
G02X53442Y31004I25J16*
G01X55317*
G03X55379Y31030J88*
G01X57281Y32931*
G03X57307Y32994I63J63*
G01Y33293*
G02X57321Y33319I29*
G03X57370Y33361I103J168*
G01Y33138*
G03X57566Y32941I196*
X57763Y33138J197*
X57566Y33335I197*
X57370Y33138J197*
G01Y33361*
G03X57415Y33487I152J126*
X57218Y33683I197*
X57021Y33487J196*
X57115Y33319I197*
G02X57129Y33293I15J26*
G01Y33043*
G02X57121Y33022I29*
G01X55289Y31190*
G02X55268Y31181I21J21*
G01X53442*
G02X53417Y31195J30*
G03X53249Y31289I168J103*
X53052Y31092J197*
G01Y33072*
G03X53236Y32944I184J69*
X53433Y33141J197*
X53236Y33338I197*
X53039Y33141J197*
G01Y63315*
X53581Y62797*
Y34884*
G03X53645Y34738I197*
G02X53655Y34717I19J21*
X53645Y34695I29*
G03X53581Y34549I133J146*
X53778Y34352I197*
X53975Y34549J197*
X53911Y34695I197*
G02X53901Y34717I19J22*
X53911Y34738I29*
G03X53975Y34884I133J146*
X53778Y35081I197*
X53581Y34884J197*
G01Y62797*
X54289Y62122*
Y57005*
G03X54903Y55858I1378*
G01Y52126*
G03X54931Y52026I197*
G01Y33487*
G03X55128Y33290I197*
X55279Y33361J197*
G01Y33138*
G03X55476Y32941I197*
X55673Y33138J197*
X55476Y33335I197*
X55279Y33138J197*
G01Y33361*
G03X55324Y33487I151J126*
X55128Y33683I196*
X54931Y33487J196*
G01Y52026*
G03X55100Y51930I169J100*
X55297Y52126J196*
X55100Y52323I197*
X54903Y52126J197*
G01Y55858*
G03X54966Y55818I764J1147*
G01Y53068*
G03X55163Y52871I197*
X55360Y53068J197*
X55163Y53265I197*
X54966Y53068J197*
G01Y55818*
G03X55401Y55653I701J1187*
G01Y51910*
G03X55598Y51713I197*
X55628Y51715J197*
G01Y33487*
G03X55824Y33290I196*
X55976Y33361J197*
G01Y33138*
G03X56173Y32941I197*
X56370Y33138J197*
X56173Y33335I197*
X55976Y33138J197*
G01Y33361*
G03X56021Y33487I152J126*
X55824Y33683I197*
X55628Y33487J196*
G01Y51715*
G03X55794Y51910I30J195*
X55598Y52107I196*
X55401Y51910J197*
G01Y55653*
G03X55420Y55649I266J1352*
G01Y52672*
G03X55617Y52476I197*
X55814Y52672J196*
X55617Y52869I197*
X55420Y52672J197*
G01Y55649*
G03X55667Y55627I247J1356*
X55864Y55641J1378*
G01Y53049*
G03X55963Y52878I197*
G01Y52199*
G03X56160Y52003I197*
X56324Y52091J196*
G01Y33487*
G03X56521Y33290I197*
X56673Y33361J197*
G01Y33138*
G03X56870Y32941I197*
X57066Y33138J197*
X56870Y33335I196*
X56673Y33138J197*
G01Y33361*
G03X56718Y33487I152J126*
X56521Y33683I197*
X56324Y33487J196*
G01Y52091*
G03X56357Y52199I164J108*
X56160Y52396I197*
X55963Y52199J197*
G01Y52878*
G03X56061Y52852I98J171*
X56258Y53049J197*
X56061Y53246I197*
X55864Y53049J197*
G01Y55641*
G03X56628Y56018I197J1364*
G01Y52477*
G03X56671Y52293I417*
G01Y45624*
G03X56947Y45348I276*
X57171Y45464J276*
G01Y45124*
G03X57447Y44848I276*
X57718Y45075J276*
G01Y33487*
G03X57915Y33290I197*
X58066Y33361J197*
G01Y33138*
G03X58263Y32941I197*
X58460Y33138J197*
X58263Y33335I197*
X58066Y33138J197*
G01Y33361*
G03X58112Y33487I151J126*
X57915Y33683I197*
X57718Y33487J196*
G01Y45075*
G03X57722Y45124I271J49*
X57447Y45400I275*
X57171Y45124J276*
G01Y45464*
G03X57222Y45624I224J160*
X56947Y45900I275*
X56671Y45624J276*
G01Y52293*
G03X57045Y52061I374J184*
X57462Y52477J416*
X57045Y52894I417*
X56628Y52477J417*
G01Y56018*
G03X57045Y57005I961J987*
X55667Y58383I1378*
X54289Y57005J1378*
G01Y62122*
X57518Y59038*
Y47841*
G03X57671Y47570I315*
G01Y45624*
G03X57947Y45348I276*
X58171Y45464J276*
G01Y45124*
G03X58447Y44848I276*
X58722Y45124J276*
X58447Y45400I275*
X58171Y45124J276*
G01Y45464*
G03X58222Y45624I224J160*
X57947Y45900I275*
X57671Y45624J276*
G01Y47570*
G03X57833Y47526I162J271*
X58085Y47652J315*
G02X58108Y47663I23J18*
X58130Y47654J29*
G03X58333Y47565I203J187*
X58608Y47841J276*
X58333Y48116I275*
X58130Y48027J275*
G02X58108Y48018I22J20*
X58085Y48030J29*
G03X58022Y48093I252J189*
G02X58010Y48116I17J23*
X58019Y48138I29*
G03X58108Y48341I186J203*
X57833Y48616I275*
X57557Y48341J275*
X57646Y48138I276*
G02X57655Y48116I20J22*
X57644Y48093I29*
G03X57518Y47841I189J252*
G01Y59038*
X57533Y59024*
Y56381*
G03X57749Y56164I216*
X57966Y56381J217*
X57749Y56597I217*
X57533Y56381J216*
G01Y59024*
X58272Y58318*
Y54375*
G03X58488Y54158I216*
X58557Y54169J217*
G01Y48341*
G03X58671Y48117I276*
G01Y45624*
G03X58947Y45348I276*
X59171Y45464J276*
G01Y45124*
G03X59447Y44848I276*
X59722Y45124J276*
X59447Y45400I275*
X59171Y45124J276*
G01Y45464*
G03X59222Y45624I224J160*
X58947Y45900I275*
X58671Y45624J276*
G01Y48117*
G03X58833Y48065I162J224*
X59057Y48181J276*
G01Y47841*
G03X59333Y47565I276*
X59608Y47841J276*
X59333Y48116I275*
X59057Y47841J275*
G01Y48181*
G03X59108Y48341I224J160*
X58833Y48616I275*
X58557Y48341J275*
G01Y54169*
G03X58705Y54375I69J206*
X58488Y54591I217*
X58272Y54375J216*
G01Y58318*
X59557Y57091*
Y48341*
G03X59671Y48117I276*
G01Y45624*
G03X59947Y45348I276*
X60171Y45464J276*
G01Y45124*
G03X60447Y44848I276*
X60722Y45124J276*
X60447Y45400I275*
X60171Y45124J276*
G01Y45464*
G03X60222Y45624I224J160*
X59947Y45900I275*
X59671Y45624J276*
G01Y48117*
G03X59833Y48065I162J224*
X60057Y48181J276*
G01Y47841*
G03X60333Y47565I276*
X60608Y47841J276*
X60333Y48116I275*
X60057Y47841J275*
G01Y48181*
G03X60108Y48341I224J160*
X59833Y48616I275*
X59557Y48341J275*
G01Y57091*
X60557Y56136*
Y48341*
G03X60671Y48117I276*
G01Y45624*
G03X60947Y45348I276*
X61171Y45464J276*
G01Y45124*
G03X61319Y44880I276*
G01Y30252*
G03X61516Y30055I197*
X61713Y30252J197*
X61516Y30449I197*
X61319Y30252J197*
G01Y44880*
G03X61447Y44848I128J244*
X61722Y45124J276*
X61447Y45400I275*
X61171Y45124J276*
G01Y45464*
G03X61222Y45624I224J160*
X60947Y45900I275*
X60671Y45624J276*
G01Y48117*
G03X60833Y48065I162J224*
X61057Y48181J276*
G01Y47841*
G03X61333Y47565I276*
X61608Y47841J276*
X61333Y48116I275*
X61057Y47841J275*
G01Y48181*
G03X61108Y48341I224J160*
X60833Y48616I275*
X60557Y48341J275*
G01Y56136*
X61607Y55133*
G02X61616Y55112I20J21*
X61604Y55088I29*
G03X61564Y55050I115J159*
G02X61541Y55038I23J18*
X61522Y55045J30*
G03X61395Y55091I127J151*
X61275Y55050J197*
G02X61257Y55044I18J23*
X61233Y55057J29*
G03X61071Y55141I162J113*
X60874Y54944J197*
X60957Y54783I197*
G02X60970Y54759I17J24*
X60962Y54739I30*
G03X60912Y54608I147J131*
X61109Y54411I197*
X61179Y54424J197*
G02X61189Y54426I10J27*
X61219Y54397J29*
X61214Y54381I30*
G03X61180Y54264I183J117*
X61184Y54222I217*
G02X61185Y54217I29J5*
X61155Y54187I30*
X61143Y54190J30*
G03X61063Y54206I80J180*
X60867Y54010J196*
X61063Y53813I196*
X61159Y53837J197*
G02X61173Y53841I14J25*
X61202Y53820J29*
G03X61391Y53675I189J52*
X61557Y53766J197*
G01Y48341*
G03X61671Y48117I276*
G01Y45624*
G03X61829Y45375I276*
G01Y41376*
G03X62026Y41179I197*
X62197Y41278J197*
G01Y40857*
G03X62394Y40660I197*
X62591Y40857J197*
X62394Y41054I197*
X62197Y40857J197*
G01Y41278*
G03X62223Y41376I171J98*
X62026Y41573I197*
X61829Y41376J197*
G01Y45375*
G03X61947Y45348I118J249*
X62171Y45464J276*
G01Y45124*
G03X62249Y44932I276*
G01Y43629*
G03X62446Y43433I197*
X62643Y43629J196*
X62446Y43826I197*
X62249Y43629J197*
G01Y44932*
G03X62447Y44848I198J192*
X62722Y45124J276*
X62447Y45400I275*
X62171Y45124J276*
G01Y45464*
G03X62222Y45624I224J160*
X61947Y45900I275*
X61671Y45624J276*
G01Y48117*
G03X61833Y48065I162J224*
X62057Y48181J276*
G01Y47841*
G03X62333Y47565I276*
X62608Y47841J276*
X62333Y48116I275*
X62057Y47841J275*
G01Y48181*
G03X62108Y48341I224J160*
X61833Y48616I275*
X61557Y48341J275*
G01Y53766*
G03X61575Y53802I166J106*
G02X61603Y53821I28J10*
X61615Y53819J29*
G03X61697Y53801I82J179*
X61893Y53998J197*
X61697Y54195I196*
X61646Y54188J197*
G02X61638Y54187I8J29*
X61609Y54217J30*
Y54222I29*
G03X61613Y54264I212J42*
X61576Y54385I216*
G02X61571Y54402I24J17*
X61600Y54431I29*
X61603J29*
G03X61620I17J196*
X61817Y54627J196*
X61797Y54714I197*
G02X61794Y54727I26J13*
X61810Y54754I29*
G03X61884Y54821I91J175*
G02X61909Y54834I25J17*
X61929Y54826J30*
G01X62421Y54356*
G03X62469Y54328I82J85*
G01Y51892*
G03X62470Y51874I197*
G01Y51112*
G03X62557Y50949I197*
G01Y48341*
G03X62671Y48117I276*
G01Y45624*
G03X62855Y45364I276*
G01Y30251*
G03X63071Y30034I216*
X63288Y30251J217*
X63071Y30467I217*
X62855Y30251J216*
G01Y45364*
G03X62947Y45348I92J260*
X62963Y45349J276*
G01Y44243*
G03X63160Y44046I197*
X63191Y44049J197*
G01Y32340*
G03X63408Y32123I217*
X63625Y32340J217*
X63408Y32556I217*
X63191Y32340J216*
G01Y44049*
G03X63310Y44116I31J194*
G01Y43859*
G03X63347Y43745I197*
G01Y43407*
G03X63544Y43210I197*
X63741Y43407J197*
X63544Y43603I197*
X63347Y43407J196*
G01Y43745*
G03X63507Y43662I160J114*
X63704Y43859J197*
X63507Y44056I197*
X63310Y43859J197*
G01Y44116*
G03X63357Y44243I150J127*
X63160Y44440I197*
X62963Y44243J197*
G01Y45349*
G03X63150Y45437I16J275*
G02X63171Y45447I21J20*
X63195Y45435J30*
G03X63258Y45372I252J189*
G02X63270Y45348I18J24*
X63260Y45327I30*
G03X63171Y45124I187J203*
X63447Y44848I276*
X63722Y45124J276*
X63634Y45327I275*
G02X63624Y45348I20J21*
X63636Y45372I30*
G03X63762Y45624I189J252*
X63447Y45939I315*
X63195Y45813J315*
G02X63171Y45801I24J18*
X63150Y45811J30*
G03X62947Y45900I203J187*
X62671Y45624J276*
G01Y48117*
G03X62833Y48065I162J224*
X63057Y48181J276*
G01Y47841*
G03X63333Y47565I276*
X63608Y47841J276*
X63333Y48116I275*
X63057Y47841J275*
G01Y48181*
G03X63108Y48341I224J160*
X62833Y48616I275*
X62557Y48341J275*
G01Y50949*
G03X62667Y50915I110J163*
X62864Y51112J197*
X62667Y51309I197*
X62470Y51112J197*
G01Y51874*
G03X62666Y51695I196J18*
X62863Y51892J197*
X62666Y52089I197*
X62469Y51892J197*
G01Y52619*
G03X62666Y52422I197*
X62863Y52619J197*
X62666Y52816I197*
X62469Y52619J197*
G01Y54328*
X62470*
Y53372*
G03X62667Y53175I197*
X62864Y53372J197*
X62667Y53569I197*
X62470Y53372J197*
G01Y54328*
G03X62503Y54323I33J113*
G01X63557*
Y48341*
G03X63833Y48065I276*
X64108Y48341J276*
X63833Y48616I275*
X63557Y48341J275*
G01Y54323*
X64615*
G02X64645Y54293J30*
G01Y47956*
G02X64615Y47927I30*
X64588Y47945J29*
G03X64333Y48116I255J104*
X64057Y47841J275*
X64333Y47565I276*
X64588Y47736J276*
G02X64615Y47755I27J11*
X64645Y47725J30*
G01Y39025*
G03X64763Y38907I118*
G01X70892*
G03X71010Y39025J118*
G01Y54624*
G03X71009Y54636I118*
G02Y54638I30J2*
G01Y58045*
G03X70891Y58163I118*
G01X64619*
G02X64598Y58172J30*
G01X60663Y62107*
G03X60611Y62137I83J84*
G02X60598Y62145I8J29*
G01X53429Y69179*
G03X53346Y69213I83J85*
G01X21997Y69210*
G03X21918Y69179J118*
G01X8385Y56780*
G03X8346Y56693I80J87*
G01Y61387*
G02X10391Y65129I31024J14517*
G01Y63642*
G03X12165Y61867I1774*
X13940Y63642J1775*
X12165Y65417I1775*
X10391Y63642J1775*
G01Y65129*
G02X13501Y69319I28979J18259*
G01Y67146*
G03X15276Y65371I1775*
X17050Y67146J1775*
X15276Y68920I1774*
X13501Y67146J1774*
G01Y69319*
G02X18287Y73865I25869J22449*
G01Y70768*
G03X18504Y70551I217*
X18720Y70768J217*
X18504Y70984I216*
X18287Y70768J216*
G01Y71949*
G03X18504Y71732I217*
X18720Y71949J217*
X18504Y72165I216*
X18287Y71949J216*
G01Y73130*
G03X18504Y72913I217*
X18720Y73130J217*
X18504Y73346I216*
X18287Y73130J216*
G01Y73865*
G02X19469Y74747I21083J26995*
G01Y70768*
G03X19685Y70551I216*
X19902Y70768J217*
X19685Y70984I217*
X19469Y70768J216*
G01Y71949*
G03X19685Y71732I216*
X19902Y71949J217*
X19685Y72165I217*
X19469Y71949J216*
G01Y73130*
G03X19685Y72913I216*
X19902Y73130J217*
X19685Y73346I217*
X19469Y73130J216*
G01Y74747*
G02X20650Y75553I19901J27877*
G01Y70768*
G03X20866Y70551I216*
X21083Y70768J217*
X20866Y70984I217*
X20650Y70768J216*
G01Y71949*
G03X20866Y71732I216*
X21083Y71949J217*
X20866Y72165I217*
X20650Y71949J216*
G01Y73130*
G03X20866Y72913I216*
X21083Y73130J217*
X20866Y73346I217*
X20650Y73130J216*
G01Y75553*
G02X21831Y76290I18720J28683*
G01Y70768*
G03X22047Y70551I216*
X22264Y70768J217*
X22047Y70984I217*
X21831Y70768J216*
G01Y71949*
G03X22047Y71732I216*
X22264Y71949J217*
X22047Y72165I217*
X21831Y71949J216*
G01Y73130*
G03X22047Y72913I216*
X22264Y73130J217*
X22047Y73346I217*
X21831Y73130J216*
G01Y76290*
G02X23012Y76963I17539J29420*
G01Y70768*
G03X23228Y70551I216*
X23445Y70768J217*
X23228Y70984I217*
X23012Y70768J216*
G01Y71949*
G03X23228Y71732I216*
X23445Y71949J217*
X23228Y72165I217*
X23012Y71949J216*
G01Y73130*
G03X23228Y72913I216*
X23445Y73130J217*
X23228Y73346I217*
X23012Y73130J216*
G01Y76963*
G02X24761Y77850I16358J30093*
G01Y74722*
G03X26139Y73344I1378*
X27517Y74722J1378*
X26139Y76099I1378*
X24761Y74722J1377*
G01Y77850*
G02X26555Y78634I14609J30980*
G01Y76673*
G03X26772Y76457I217*
X26988Y76673J216*
X26772Y76890I216*
X26555Y76673J217*
G01Y78634*
G02X27736Y79086I12815J31764*
G01Y76673*
G03X27953Y76457I217*
X28169Y76673J216*
X27953Y76890I216*
X27736Y76673J217*
G01Y79086*
G02X28917Y79488I11634J32216*
G01Y76673*
G03X29134Y76457I217*
X29350Y76673J216*
X29134Y76890I216*
X28917Y76673J217*
G01Y79488*
G02X30098Y79843I10453J32618*
G01Y76673*
G03X30315Y76457I217*
X30531Y76673J216*
X30315Y76890I216*
X30098Y76673J217*
G01Y79843*
G02X31280Y80153I9272J32973*
G01Y76673*
G03X31496Y76457I216*
X31713Y76673J216*
X31496Y76890I217*
X31280Y76673J217*
G01Y80153*
G02X31471Y80198I8090J33283*
G03X31863Y80509I137J575*
G01X32461Y81705*
Y76673*
G03X32677Y76457I216*
X32894Y76673J216*
X32677Y76890I217*
X32461Y76673J217*
G01Y81705*
X33642Y84067*
Y76673*
G03X33858Y76457I216*
X34075Y76673J216*
X33858Y76890I217*
X33642Y76673J217*
G01Y84067*
X34823Y86430*
Y76673*
G03X35039Y76457I216*
X35256Y76673J216*
X35039Y76890I217*
X34823Y76673J217*
G01Y86430*
X35013Y86809*
Y79871*
G03X35072Y79812I59*
G01X35681*
G03X35740Y79871J59*
G01Y80759*
G03X35681Y80818I59*
G01X35072*
G03X35013Y80759J59*
G01Y86809*
X36004Y88792*
Y76673*
G03X36220Y76457I216*
X36437Y76673J216*
X36220Y76890I217*
X36004Y76673J217*
G01Y88792*
X37185Y91154*
Y76673*
G03X37402Y76457I217*
X37618Y76673J216*
X37402Y76890I216*
X37185Y76673J217*
G01Y91154*
X38028Y92841*
G03X38034Y92853I528J264*
G02X38366Y93307I1336J629*
G01Y76673*
G03X38583Y76457I217*
X38799Y76673J216*
X38583Y76890I216*
X38366Y76673J217*
G01Y93307*
G02X39370Y93701I1004J1083*
X40708Y92849J1477*
G03X40715Y92835I535J250*
G01X41122Y92020*
Y76673*
G03X41339Y76457I217*
X41555Y76673J216*
X41339Y76890I216*
X41122Y76673J217*
G01Y92020*
X42303Y89658*
Y76673*
G03X42520Y76457I217*
X42736Y76673J216*
X42520Y76890I216*
X42303Y76673J217*
G01Y89658*
X43484Y87296*
Y76673*
G03X43701Y76457I217*
X43917Y76673J216*
X43701Y76890I216*
X43484Y76673J217*
G01Y87296*
X44665Y84934*
Y76673*
G03X44882Y76457I217*
X45098Y76673J216*
X44882Y76890I216*
X44665Y76673J217*
G01Y84934*
X45846Y82572*
Y76673*
G03X46063Y76457I217*
X46280Y76673J216*
X46063Y76890I217*
X45846Y76673J217*
G01Y82572*
X46878Y80509*
G03X47028Y80320I528J264*
G01Y76673*
G03X47244Y76457I216*
X47461Y76673J216*
X47244Y76890I217*
X47028Y76673J217*
G01Y80320*
G03X47270Y80198I378J453*
G02X54289Y77702I7900J33328*
G01Y74722*
G03X55667Y73344I1378*
X57045Y74722J1378*
X55667Y76099I1378*
X54289Y74722J1377*
G01Y77702*
G02X58028Y75594I14919J30832*
G01Y70886*
G03X59803Y69111I1775*
X61578Y70886J1775*
X59803Y72661I1775*
X58028Y70886J1775*
G01Y75594*
G02X62107Y72487I18658J28724*
G01Y67845*
G03X62304Y67648I197*
X62501Y67845J197*
X62304Y68042I197*
X62107Y67845J197*
G01Y72487*
G02X63091Y71578I22737J25617*
G01Y60161*
G03X63288Y59964I197*
X63485Y60161J197*
X63288Y60357I197*
X63091Y60161J196*
G01Y71578*
G02X63405Y71274I23721J24708*
G01Y64208*
G03X63601Y64011I196*
X63742Y64070J197*
G02X63763Y64079I21J21*
X63767Y64078J30*
G01Y59374*
G03X63984Y59157I217*
X64200Y59374J217*
X63984Y59590I216*
X63767Y59374J216*
G01Y64078*
G02X63792Y64052I4J29*
G03X63988Y63874I196J18*
X64180Y64028J196*
G02X64209Y64051I29J7*
X64225Y64046J30*
G03X64334Y64013I109J164*
X64476Y64075J197*
G01Y58833*
G03X64673Y58636I197*
X64870Y58833J197*
X64673Y59030I197*
X64476Y58833J197*
G01Y64075*
G03X64530Y64210I142J135*
X64334Y64407I196*
X64141Y64253J197*
G02X64113Y64230I28J6*
X64096Y64235J29*
G03X63988Y64267I108J165*
X63848Y64209J197*
G02X63827Y64200I21J20*
X63797Y64227J29*
G03X63601Y64405I196J19*
X63405Y64208J197*
G01Y71274*
G02X63899Y70777I24035J24404*
G01Y67845*
G03X64096Y67648I197*
X64293Y67845J197*
X64096Y68042I197*
X63899Y67845J197*
G01Y70777*
G02X65702Y68776I24529J23907*
G01Y64838*
G03X65898Y64642I196*
X66095Y64838J196*
X65898Y65035I197*
X65702Y64838J197*
G01Y68776*
G02X67407Y66545I26332J21906*
G01Y58597*
G03X67604Y58400I197*
X67801Y58597J197*
X67604Y58794I197*
X67407Y58597J197*
G01Y59090*
G03X67604Y58893I197*
X67801Y59090J197*
X67604Y59287I197*
X67407Y59090J197*
G01Y66545*
G02X67478Y66445I28037J19675*
G01Y60484*
G03X67675Y60287I197*
X67871Y60484J197*
X67675Y60681I196*
X67478Y60484J197*
G01Y66445*
G02X72630Y55054I28108J19575*
G01Y44134*
G03X74264Y42500I1634*
X75898Y44134J1634*
X74264Y45768I1634*
X72630Y44134J1634*
G01Y49370*
G03X74264Y47736I1634*
X75898Y49370J1634*
X74264Y51004I1634*
X72630Y49370J1634*
G01Y55054*
G02X72890Y53914I33260J8184*
G03X73468Y53445I578J121*
G01X76772*
G02X78543Y51673J1772*
G01Y41850*
G03Y41845I591*
G02Y41831I1771J14*
X76772Y40059I1771*
G01X73418*
G03X72841Y39594J590*
G02X47182Y13521I33471J7276*
G03X46789Y13210I135J575*
G01X40712Y1057*
G03X40706Y1044I528J264*
G02X39370Y197I1336J629*
X38034Y1045J1476*
G03X38028Y1058I534J251*
G01X31952Y13210*
G03X31558Y13521I528J264*
G02X5900Y39594I7812J33349*
G03X5323Y40059I577J125*
G01X1968*
X1956*
G02X215Y41639J1749*
G01X197Y41826*
G02Y41829I29J3*
G01Y51656*
G03Y51661I591*
G02Y51673I1771J12*
G01X8465Y56680D02*
G02X8474Y56702I29D01*
G01X9991Y58091*
Y44134*
G03X11665Y42459I1674*
X13340Y44134J1675*
X11665Y45809I1675*
X9991Y44134J1675*
G01Y49370*
G03X11665Y47695I1674*
X13340Y49370J1675*
X11665Y51045I1675*
X9991Y49370J1675*
G01Y58091*
X13977Y61744*
Y39633*
G03X14174Y39436I197*
X14371Y39633J197*
X14174Y39830I197*
X13977Y39633J197*
G01Y61744*
X14614Y62327*
Y40222*
G03X14811Y40025I197*
X14952Y40084J197*
G01Y38262*
G03X15149Y38065I197*
X15346Y38262J197*
X15149Y38459I197*
X14952Y38262J197*
G01Y40084*
G03X14981Y40122I141J138*
G01Y39005*
G03X15178Y38808I197*
X15375Y39005J197*
X15178Y39202I197*
X14981Y39005J197*
G01Y40122*
G03X15008Y40222I170J100*
X14811Y40419I197*
X14614Y40222J197*
G01Y62327*
X14662Y62372*
Y40830*
G03X14859Y40633I197*
X15056Y40830J197*
X14859Y41027I197*
X14662Y40830J197*
G01Y62372*
X21989Y69084*
G02X22009Y69092I20J21*
G01X53334Y69094*
G02X53355Y69086J29*
G01X60566Y62010*
G02X60578Y62013I12J27*
X60599Y62004J30*
G01X64558Y58045*
X66290*
Y44134*
G03X67965Y42459I1675*
X69639Y44134J1675*
X67965Y45809I1674*
X66290Y44134J1675*
G01Y49370*
G03X67965Y47695I1675*
X69639Y49370J1675*
X67965Y51045I1674*
X66290Y49370J1675*
G01Y58045*
X70862*
G02X70891Y58016J29*
G01Y54624*
G02X70892Y54618I29J6*
G01Y39055*
G02X70862Y39025I30*
G01X64792*
G02X64763Y39055J30*
G01Y54441*
X62515*
G02X62494Y54449J30*
G01X61894Y55023*
G02X61889Y55029I20J21*
G03X61812Y55102I170J100*
G02X61805Y55107I14J27*
G01X51244Y65193*
X23986*
X14709Y55978*
Y42511*
X15126*
Y41853*
G03X15145Y41768I197*
G01Y41091*
G03X15329Y40894I197*
G01Y40415*
G03X15525Y40218I196*
X15551Y40220J197*
G01Y38774*
G03X15747Y38577I196*
X15944Y38774J197*
X15747Y38970I197*
X15551Y38774J196*
G01Y40220*
G03X15722Y40415I26J195*
X15525Y40612I197*
X15329Y40415J197*
G01Y40894*
G03X15342I13J197*
X15539Y41091J197*
X15342Y41287I197*
X15145Y41091J196*
G01Y41768*
G03X15323Y41656I178J85*
X15520Y41853J197*
X15323Y42050I197*
X15126Y41853J197*
G01Y42511*
X15129*
G02X15158Y42486J30*
G03X15352Y42322I194J33*
X15546Y42486J197*
G02X15575Y42510I29J5*
G01X15821*
Y40849*
G03X15995Y40654I197*
G01Y38339*
G03X16192Y38142I197*
X16388Y38339J197*
X16192Y38536I196*
X15995Y38339J197*
G01Y40654*
G03X16018Y40652I23J195*
X16033Y40653J197*
G01Y39604*
G03X16230Y39407I197*
X16427Y39604J197*
X16230Y39801I197*
X16033Y39604J197*
G01Y40653*
G03X16215Y40849I15J196*
X16018Y41046I197*
X15821Y40849J197*
G01Y42510*
X17721*
Y37016*
G03X18312Y36425I591*
X18902Y37016J591*
X18312Y37607I590*
X17721Y37016J591*
G01Y42510*
X19048*
Y37016*
G03X19560Y36504I512*
X20072Y37016J512*
X19560Y37528I512*
X19048Y37016J512*
G01Y42510*
X19219*
Y39128*
G03X19416Y38932I197*
X19613Y39128J196*
X19416Y39325I197*
X19219Y39128J197*
G01Y42510*
X19371*
Y41692*
G03X19458Y41528I197*
G01Y40345*
G03X19655Y40148I197*
X19852Y40345J197*
X19655Y40542I197*
X19458Y40345J197*
G01Y41528*
G03X19568Y41495I110J164*
X19765Y41692J197*
X19568Y41888I197*
X19371Y41692J196*
G01Y42510*
X19907Y42509*
G02X19934Y42492J29*
G03X20088Y42378I180J81*
G01Y39628*
G03X20240Y39436I197*
G01Y38455*
G03X20296Y38317I197*
G01Y37016*
G03X20808Y36504I512*
X21320Y37016J512*
X20808Y37528I512*
X20296Y37016J512*
G01Y38317*
G03X20437Y38258I141J138*
X20634Y38455J197*
X20437Y38652I197*
X20240Y38455J197*
G01Y39436*
G03X20285Y39431I45J192*
X20482Y39628J197*
X20285Y39825I197*
X20088Y39628J197*
G01Y40605*
G03X20285Y40409I197*
X20482Y40605J196*
X20285Y40802I197*
X20088Y40605J197*
G01Y42378*
G03X20114Y42376I26J195*
X20293Y42492J197*
G02X20320Y42509I27J12*
G01X20718*
Y41778*
G03X20915Y41582I197*
X21044Y41630J196*
G01Y37890*
G03X21241Y37693I197*
X21437Y37890J197*
X21241Y38087I196*
X21044Y37890J197*
G01Y41630*
G03X21112Y41778I129J148*
X20915Y41975I197*
X20718Y41778J197*
G01Y42509*
X21152*
Y40301*
G03X21217Y40155I197*
G01Y38933*
G03X21414Y38736I197*
X21587Y38838J197*
G01Y36934*
G03X21784Y36738I197*
X21980Y36934J196*
X21784Y37131I196*
X21587Y36934J197*
G01Y38838*
G03X21611Y38933I173J95*
X21414Y39130I197*
X21217Y38933J197*
G01Y40155*
G03X21349Y40104I132J146*
X21546Y40301J197*
X21349Y40498I197*
X21152Y40301J197*
G01Y42509*
X21435*
Y42104*
G03X21632Y41907I197*
X21828Y42104J197*
X21632Y42301I196*
X21435Y42104J197*
G01Y42509*
X21918*
Y41164*
G03X21956Y41048I197*
G01Y38650*
G03X22152Y38454I197*
G01Y37499*
G03X22348Y37302I196*
X22545Y37499J197*
X22348Y37696I197*
X22152Y37499J197*
G01Y38454*
X22153*
G03X22350Y38650J196*
X22153Y38847I197*
X21956Y38650J197*
G01Y41048*
G03X22108Y40967I159J116*
G01Y40627*
G03X22238Y40442I197*
G01Y39650*
G03X22435Y39453I197*
X22632Y39650J197*
X22435Y39847I197*
X22238Y39650J197*
G01Y40442*
G03X22305Y40430I67J185*
X22502Y40627J197*
X22305Y40824I197*
X22108Y40627J197*
G01Y40967*
G03X22115I7J197*
X22312Y41164J197*
X22115Y41361I197*
X21918Y41164J197*
G01Y42509*
X23969Y42508*
Y37016*
G03X24560Y36425I591*
X25150Y37016J591*
X24560Y37607I590*
X23969Y37016J591*
G01Y42508*
X25217*
Y37016*
G03X25808Y36425I591*
X26398Y37016J591*
X25808Y37607I590*
X25217Y37016J591*
G01Y42508*
X25608*
Y41103*
G03X25724Y40923I197*
G01Y39350*
G03X25920Y39154I196*
X26117Y39350J196*
X25920Y39547I197*
X25724Y39350J197*
G01Y40923*
G03X25805Y40906I81J180*
X26001Y41103J197*
X25805Y41299I196*
X25608Y41103J196*
G01Y42508*
X25747*
G02X25777Y42478J30*
X25773Y42465I30*
G03X25753Y42377I176J88*
X25949Y42180I196*
X26146Y42377J197*
X26125Y42465I197*
G02X26122Y42478I27J13*
X26152Y42508I30*
G01X26390*
Y38264*
G03X26548Y38071I197*
G01Y37016*
G03X27060Y36504I512*
X27572Y37016J512*
X27060Y37528I512*
X26548Y37016J512*
G01Y38071*
G03X26587Y38067I39J193*
X26783Y38264J197*
X26587Y38461I196*
X26390Y38264J197*
G01Y42508*
X26491*
Y41682*
G03X26534Y41559I197*
G01Y40523*
G03X26563Y40421I197*
G01Y39626*
G03X26760Y39429I197*
X26957Y39626J197*
X26760Y39822I197*
X26563Y39626J196*
G01Y40421*
G03X26731Y40327I168J102*
X26928Y40523J196*
X26731Y40720I197*
X26534Y40523J197*
G01Y41559*
G03X26688Y41485I154J123*
X26885Y41682J197*
X26688Y41879I197*
X26491Y41682J197*
G01Y42508*
X26609*
G02X26637Y42490J30*
G03X26818Y42368I181J75*
X27000Y42489J197*
G02X27027Y42508I27J11*
G01X27316*
Y41494*
G03X27513Y41297I197*
X27534Y41298J197*
G01Y40176*
G03X27563Y40073I197*
G01Y39003*
G03X27736Y38807I197*
G01Y38134*
G03X27925Y37937I197*
G01Y37164*
G03X28122Y36967I197*
X28318Y37164J197*
X28122Y37361I196*
X27925Y37164J197*
G01Y37937*
G03X27933I8J197*
X28130Y38134J197*
X27933Y38331I197*
X27736Y38134J197*
G01Y38807*
G03X27760Y38806I24J196*
X27956Y39003J197*
X27760Y39200I196*
X27563Y39003J197*
G01Y40073*
G03X27731Y39979I168J103*
X27927Y40176J197*
X27731Y40373I196*
X27534Y40176J197*
G01Y41298*
G03X27710Y41494I21J196*
X27513Y41690I197*
X27316Y41494J196*
G01Y42508*
X27760Y42507*
G02X27765J29*
G01Y42102*
G03X27962Y41905I197*
X28159Y42102J197*
X27962Y42299I197*
X27765Y42102J197*
G01Y42507*
G02X27779Y42501I5J29*
G03X27904Y42455I125J151*
X28030Y42501J197*
G02X28049Y42507I19J23*
G01X28272*
Y41276*
G03X28469Y41080I197*
X28518Y41086J196*
G01Y39698*
G03X28715Y39501I197*
X28912Y39698J197*
X28715Y39895I197*
X28518Y39698J197*
G01Y41086*
G03X28666Y41276I49J190*
X28469Y41473I197*
X28272Y41276J197*
G01Y42507*
X28458*
G02X28479Y42499J29*
G01X32563Y38414*
G02X32572Y38393I21J21*
X32542Y38364I30*
G01X31395Y38362*
X31393Y37292*
G02X31363Y37262I30*
X31337Y37279J30*
G03X30808Y37607I529J263*
X30217Y37016J591*
X30808Y36425I591*
X31336Y36751J591*
G02X31362Y36767I26J13*
X31392Y36738J29*
G01X31389Y35587*
G02X31381Y35566I29*
G01X30216Y34406*
G02X30195Y34398I21J21*
G01X17921*
G02X17900Y34407J29*
G01X16520Y35786*
G02X16511Y35807I21J21*
G01X16508Y37771*
X8494Y37795*
G02X8465Y37825J30*
G01Y56680*
X15725Y44939D02*
X15978Y45193D01*
X16103Y44856*
X16061Y44815*
X15725Y44939*
X16369Y48290D02*
X16128Y48531D01*
X16400Y48604*
X16442Y48562*
X16369Y48290*
X16478Y45555D02*
X16225Y45809D01*
X16561Y45933*
X16603Y45892*
X16478Y45555*
X16628Y47650D02*
X16869Y47891D01*
X16942Y47619*
X16900Y47577*
X16628Y47650*
X17369Y48290D02*
X17128Y48531D01*
X17400Y48604*
X17442Y48562*
X17369Y48290*
X17628Y47650D02*
X17869Y47891D01*
X17942Y47619*
X17900Y47577*
X17628Y47650*
X18369Y48290D02*
X18128Y48531D01*
X18400Y48604*
X18442Y48562*
X18369Y48290*
X18628Y47650D02*
X18869Y47891D01*
X18942Y47619*
X18900Y47577*
X18628Y47650*
X19369Y48290D02*
X19128Y48531D01*
X19400Y48604*
X19442Y48562*
X19369Y48290*
X19628Y47650D02*
X19869Y47891D01*
X19942Y47619*
X19900Y47577*
X19628Y47650*
X19742Y44934D02*
X19983Y45175D01*
X20056Y44903*
X20015Y44861*
X19742Y44934*
X20369Y48290D02*
X20128Y48531D01*
X20400Y48604*
X20442Y48562*
X20369Y48290*
X20628Y47650D02*
X20869Y47891D01*
X20942Y47619*
X20900Y47577*
X20628Y47650*
X20742Y44934D02*
X20983Y45175D01*
X21056Y44903*
X21015Y44861*
X20742Y44934*
X21369Y48290D02*
X21128Y48531D01*
X21400Y48604*
X21442Y48562*
X21369Y48290*
X21628Y47650D02*
X21869Y47892D01*
X21942Y47619*
X21900Y47577*
X21628Y47650*
X21742Y44934D02*
X21983Y45175D01*
X22056Y44903*
X22015Y44861*
X21742Y44934*
X22869Y47790D02*
X22628Y48031D01*
X22900Y48104*
X22942Y48062*
X22869Y47790*
G37*
G54D10*
X78740Y41832D02*
Y41831D01*
G02X76772Y39862I1968*
G01X73418*
G03X73033Y39552J393*
G02X47227Y13329I33663J7318*
G03X46965Y13122I90J383*
G01X40888Y969*
G03X40884Y961I352J176*
G02X39370Y0I1514J712*
X37856Y962J1673*
G03X37852Y970I356J168*
G01X31776Y13122*
G03X31513Y13329I352J176*
G02X5708Y39552I7857J33541*
G03X5323Y39862I385J83*
G01X1992*
G02X47Y41529J1969*
G01X0Y41831*
Y51656*
Y51658*
G02Y51665I1969J7*
Y51672I1969*
G01Y51673*
G02X1969Y53642I1969*
G01X5272*
G03X5658Y53954J393*
G02X31425Y80390I33712J7084*
G03X31687Y80597I90J383*
G01X37852Y92929*
G03X37856Y92937I352J176*
G02X39370Y93898I1514J713*
X40887Y92932J1674*
G03X40891Y92923I356J167*
G01X47054Y80597*
G03X47315Y80390I352J176*
G02X73083Y53954I7945J33520*
G03X73468Y53642I385J81*
G01X76772*
G02X78740Y51673J1969*
G01Y41850*
Y41848*
G02Y41840I1968J8*
Y41832I1968*
G54D11*
G01X5366Y44134D03*
Y49370D03*
X11665Y44134D03*
Y49370D03*
X12165Y63642D03*
X15276Y67146D03*
X22638Y20098D03*
X27559Y17736D03*
X55748Y19626D03*
X59803Y70886D03*
X60276Y23169D03*
X67965Y44134D03*
Y49370D03*
X74264Y44134D03*
Y49370D03*
G54D12*
X36870Y46752D03*
X39370Y44252D03*
Y49252D03*
X41870Y46752D03*
G54D13*
X39370D03*
G54D14*
X5366Y44134D02*
X7030D01*
X5366D02*
Y45797D01*
Y44134D02*
X3703D01*
X5366D02*
Y42470D01*
Y49370D02*
Y47707D01*
Y49370D02*
X7030D01*
X5366D02*
X3703D01*
X5366D02*
Y51033D01*
X74264Y44134D02*
Y45797D01*
Y44134D02*
X72600D01*
X74264D02*
X75927D01*
X74264D02*
Y42470D01*
Y49370D02*
X72600D01*
X74264D02*
X75927D01*
X74264D02*
Y51033D01*
Y49370D02*
Y47707D01*
G54D15*
X16179Y47841D02*
X15915Y48062D01*
X16179Y47841D02*
X15936Y47597D01*
X16179Y47841D02*
X16400Y47576D01*
X21793Y45624D02*
X22058Y45403D01*
X21793Y45624D02*
X21572Y45888D01*
X21793Y45624D02*
X22037Y45868D01*
X57833Y47841D02*
X57589Y47597D01*
X57833Y47841D02*
X57568Y48062D01*
X57833Y47841D02*
X58054Y47576D01*
X63447Y45624D02*
X63690Y45868D01*
X63447Y45624D02*
X63711Y45403D01*
X63447Y45624D02*
X63226Y45888D01*
G54D16*
X2898Y42209D03*
Y43209D03*
Y44209D03*
Y45209D03*
Y46209D03*
Y47209D03*
Y48209D03*
Y49209D03*
Y50209D03*
Y51209D03*
X4472Y42209D03*
Y46209D03*
Y47209D03*
Y51209D03*
X6047Y42209D03*
Y46209D03*
Y47209D03*
Y51209D03*
X7622Y42209D03*
Y43209D03*
Y44209D03*
Y45209D03*
Y46209D03*
Y47209D03*
Y48209D03*
Y49209D03*
Y50209D03*
Y51209D03*
X9053Y35248D03*
X9185Y42571D03*
Y43358D03*
Y44146D03*
Y44933D03*
Y45720D03*
Y48409D03*
Y49196D03*
Y49983D03*
Y50771D03*
Y51558D03*
Y52346D03*
Y53133D03*
Y53886D03*
X9354Y47005D03*
X9970Y45344D03*
X10134Y60375D03*
X10169Y53886D03*
X10244Y46657D03*
X10275Y51037D03*
X10331Y42269D03*
X10495Y52797D03*
X10722Y47265D03*
X10809Y45962D03*
X10966Y32333D03*
X11012Y36023D03*
X11153Y53886D03*
X11228Y51477D03*
X11591Y46614D03*
X11619Y52748D03*
X12137Y53886D03*
X12286Y46006D03*
X12330Y47222D03*
X12450Y51380D03*
X12916Y46636D03*
X13122Y53886D03*
X13133Y42291D03*
X13134Y52772D03*
X13208Y50769D03*
X13259Y28499D03*
Y31232D03*
X13459Y47309D03*
X13880Y25183D03*
X13940Y25972D03*
X14106Y42571D03*
Y43358D03*
Y44146D03*
Y44933D03*
Y45720D03*
Y48409D03*
Y49196D03*
Y49983D03*
Y50771D03*
Y51558D03*
Y52346D03*
Y53133D03*
Y53886D03*
X14174Y39633D03*
X14487Y24211D03*
X14564Y27768D02*
X15002Y27330D01*
X14564Y27768D02*
X14125Y28206D01*
X14564Y27768D02*
X15002Y28206D01*
X14564Y27768D02*
X14125Y27330D01*
X14564Y37016D02*
X15002Y36578D01*
X14564Y37016D02*
X14125Y36578D01*
X14564Y37016D02*
X15012Y37445D01*
X14564Y37016D02*
X14117Y37446D01*
X14811Y40222D03*
X14859Y40830D03*
X14954Y47590D03*
X15064Y25881D03*
X15130Y49331D03*
X15143Y48333D03*
X15149Y38262D03*
X15178Y39005D03*
X15246Y24181D03*
X15248Y44233D03*
X15323Y41853D03*
X15342Y41091D03*
X15352Y42519D03*
X15392Y43058D03*
X15525Y40415D03*
X15603Y43591D03*
X15615Y37391D03*
X15641Y25881D03*
X15747Y38774D03*
X15762Y24181D03*
X15854Y36391D03*
X15884Y23057D03*
X16018Y40849D03*
X16192Y38339D03*
X16230Y39604D03*
X16250Y49331D03*
X16301Y43397D03*
X16511Y55760D03*
X16533Y51501D03*
X17039Y37545D03*
X17090Y38729D03*
X17125Y40805D03*
X17176Y40307D03*
X17348Y36687D03*
X17433Y42349D03*
X17648Y72355D03*
X17663Y71110D03*
X17768Y33434D03*
X17794Y38797D03*
X17811Y41989D03*
X17828Y40342D03*
X17845Y38025D03*
X17862Y41148D03*
X18031Y42632D03*
X18034Y35606D03*
X18070Y22511D03*
X18133Y31248D03*
X18312Y37016D02*
X17873Y36578D01*
X18312Y37016D02*
X17873Y37454D01*
X18312Y37016D02*
X18750Y36578D01*
X18312Y37016D02*
X18750Y37454D01*
X18325Y43666D03*
Y52958D03*
X18630Y35019D03*
X18644Y38425D03*
Y39212D03*
Y40000D03*
Y40787D03*
Y41574D03*
Y42362D03*
X18760Y36105D03*
X19015Y73707D03*
X19091Y69152D03*
X19136Y67618D03*
X19274Y54788D03*
X19285Y20537D03*
X19416Y39128D03*
X19418Y50833D03*
X19510Y35366D03*
X19568Y41692D03*
X19655Y40345D03*
X19931Y43612D03*
X19983Y23938D03*
X20014Y25061D03*
Y26124D03*
X20114Y42573D03*
X20123Y68149D03*
X20215Y34758D03*
X20230Y69546D03*
X20285Y39628D03*
Y40605D03*
X20287Y22662D03*
X20290Y73737D03*
X20437Y38455D03*
X20745Y35417D03*
X20812Y27768D02*
X20373Y27330D01*
X20812Y27768D02*
X20373Y28206D01*
X20812Y27768D02*
X21250Y28206D01*
X20812Y27768D02*
X21250Y27330D01*
X20823Y60770D03*
X20866Y31248D03*
X20894Y23998D03*
X20915Y41778D03*
X21107Y26124D03*
X21139Y33297D03*
X21241Y37890D03*
X21323Y69516D03*
X21349Y40301D03*
X21414Y38933D03*
X21453Y50742D03*
Y52290D03*
Y34737D03*
X21475Y73676D03*
X21594Y42741D03*
X21632Y42104D03*
X21714Y22571D03*
X21784Y36934D03*
X21805Y26033D03*
X21836Y24059D03*
X21998Y35383D03*
X22115Y41164D03*
X22153Y38650D03*
X22305Y40627D03*
X22348Y37499D03*
X22435Y39650D03*
X22522Y73676D03*
X22657Y45461D03*
X22691Y34671D03*
X22799Y36061D03*
X22979Y60831D03*
X23127Y40557D03*
X23160Y69698D03*
X23166Y38588D03*
X23172Y22571D03*
X23250Y35366D03*
X23662Y36498D03*
Y37648D03*
X23786Y40212D03*
Y41707D03*
X23798Y34802D03*
X23809Y40906D03*
X23916Y47874D03*
X23924Y38557D03*
X24175Y56544D03*
X24205Y58781D03*
X24237Y42332D03*
X24333Y41725D03*
X24354Y40781D03*
X24365Y35383D03*
X24421Y38427D03*
X24520Y45219D03*
X24560Y37016D02*
X24998Y36578D01*
X24560Y37016D02*
X24998Y37454D01*
X24560Y37016D02*
X24121Y37454D01*
X24560Y37016D02*
X24121Y36578D01*
X24880Y38134D03*
Y38921D03*
Y39708D03*
Y40496D03*
Y41283D03*
Y42071D03*
X25040Y45270D03*
X25058Y35975D03*
X25080Y34910D03*
X25233Y46216D03*
X25605Y45286D03*
X25687Y35383D03*
X25712Y59039D03*
X25723Y21805D03*
X25805Y41103D03*
X25808Y37016D02*
X25369Y37454D01*
X25808Y37016D02*
X26246Y37454D01*
X25808Y37016D02*
X25369Y36578D01*
X25808Y37016D02*
X26246Y36578D01*
X25920Y39350D03*
X25949Y42377D03*
X25975Y45959D03*
X26178Y25843D03*
X26208Y24021D03*
X26428Y46169D03*
X26486Y50389D03*
X26577Y63256D03*
X26581Y51704D03*
X26587Y38264D03*
X26688Y41682D03*
X26723Y53358D03*
X26731Y40523D03*
X26760Y39626D03*
X26785Y26154D03*
X26818Y42565D03*
X26922Y35417D03*
X27060Y27768D02*
X26621Y28206D01*
X27060Y27768D02*
X26621Y27330D01*
X27060Y27768D02*
X27498Y28206D01*
X27060Y27768D02*
X27498Y27330D01*
X27274Y54711D03*
X27295Y35975D03*
X27302Y26124D03*
X27337Y76685D03*
X27370Y46433D03*
X27513Y41494D03*
X27561Y31384D03*
X27731Y40176D03*
X27760Y39003D03*
X27904Y42652D03*
X27909Y24090D03*
X27917Y35417D03*
X27933Y38134D03*
X27962Y42102D03*
X28000Y26124D03*
X28122Y37164D03*
X28201Y51714D03*
X28235Y50399D03*
X28287Y54617D03*
X28289Y46136D03*
X28291Y53343D03*
X28351Y75649D03*
X28469Y41276D03*
X28542Y76706D03*
X28663Y36105D03*
X28715Y39698D03*
X28718Y60523D03*
X28737Y46409D03*
X28763Y62846D03*
X29015Y35434D03*
X29184Y21964D03*
X29286Y54571D03*
X29289Y53358D03*
X29296Y41077D03*
X29353Y73144D03*
X29376Y36464D03*
X29401Y38472D03*
X29622Y40236D03*
X29767Y76726D03*
X29775Y45870D03*
X29828Y38057D03*
X29845Y38829D03*
X29879Y40648D03*
X29972Y51730D03*
X30011Y37270D03*
X30014Y74487D03*
X30053Y36257D03*
X30203Y31293D03*
X30239Y40236D03*
X30247Y53350D03*
X30285Y35623D03*
X30321Y54555D03*
X30394Y38469D03*
Y39069D03*
X30581Y22662D03*
X30682Y46799D03*
X30808Y37016D02*
X30370Y37455D01*
X30808Y37016D02*
X30369Y36578D01*
X30808Y37016D02*
X31203Y36538D01*
X30808Y37016D02*
X31204Y37493D01*
X30865Y17266D03*
X30880Y76685D03*
X30902Y72255D03*
X30920Y36018D03*
X30943Y38795D03*
X30960Y38057D03*
X31048Y46450D03*
X31168Y51730D03*
X31175Y18913D03*
X31225Y50436D03*
X31414Y46799D03*
X31431Y15215D03*
X31461Y54576D03*
X31466Y53350D03*
X31706Y30154D03*
X31780Y46450D03*
X32041Y73645D03*
X32125Y76696D03*
X32146Y46799D03*
X32160Y22905D03*
X32295Y18953D03*
X32349Y17496D03*
X32511Y46450D03*
X32743Y51714D03*
X32877Y46799D03*
X32916Y24265D03*
X33025Y53343D03*
X33028Y54571D03*
X33243Y46450D03*
X33271Y75057D03*
X33275Y49790D03*
X33320Y76696D03*
X33337Y51714D03*
X33339Y71230D03*
X33609Y46799D03*
X33936Y55839D03*
X33975Y46452D03*
X34030Y58875D03*
X34172Y63956D03*
X34233Y61588D03*
X34340Y46800D03*
X34348Y48981D03*
X34370Y16267D03*
X34432Y73235D03*
X34464Y76696D03*
X34532Y20445D03*
X34545Y29577D03*
X34577Y53350D03*
X34606Y54571D03*
X34691Y51722D03*
X34706Y46452D03*
X34768Y20208D03*
X34870Y18708D03*
X35005Y20445D03*
X35068Y47969D03*
X35072Y46800D03*
X35242Y20208D03*
X35326Y28364D03*
X35370Y16267D03*
X35385Y53343D03*
X35393Y54581D03*
X35548Y71982D03*
X35594Y74351D03*
X35633Y76655D03*
X35870Y18708D03*
X35968Y39090D03*
X36002Y49231D03*
X36034Y17509D03*
X36113Y62368D03*
X36178Y30125D03*
Y30855D03*
Y31584D03*
Y32314D03*
Y33043D03*
Y33773D03*
Y34506D03*
X36320Y62951D03*
X36388Y39257D03*
X36456Y51722D03*
X36465Y50486D03*
X36527Y30490D03*
Y31219D03*
Y31949D03*
Y32678D03*
Y33408D03*
Y34140D03*
X36585Y62361D03*
Y38550D03*
X36733Y72984D03*
X36810Y39837D03*
X36817Y39421D03*
X36824Y75490D03*
X36863Y76731D03*
X36874Y62919D03*
X36991Y36693D03*
X36998Y36102D03*
X37100Y17482D03*
X37134Y33163D03*
X37187Y30785D03*
X37224Y39766D03*
X37262Y13089D03*
X37318Y43361D03*
X37320Y29728D03*
X37357Y37986D03*
X37406Y36618D03*
X37512Y38399D03*
X37513Y35625D03*
X37527Y40245D03*
X37547Y33272D03*
X37593Y29236D03*
X37601Y30711D03*
X37611Y37405D03*
X37616Y34925D03*
X37636Y30020D03*
X37645Y32659D03*
X37651Y51706D03*
X37652Y50471D03*
X37681Y31704D03*
X37744Y53350D03*
X37748Y26295D03*
X37757Y54571D03*
X37768Y31211D03*
X37792Y32221D03*
X37917Y74442D03*
X37963Y70160D03*
X38001Y76731D03*
X38040Y50494D03*
X38253Y51691D03*
X38386Y17421D03*
X38811Y27293D03*
X38950Y40150D03*
X39020Y41349D03*
X39021Y27727D03*
X39031Y42650D03*
X39060Y29321D03*
Y30108D03*
Y31093D03*
Y31683D03*
Y32669D03*
Y34047D03*
Y35381D03*
Y35853D03*
Y36999D03*
Y38132D03*
Y38605D03*
X39122Y63835D03*
X39370Y92900D03*
X39396Y437D03*
X39420Y71709D03*
X39456Y59098D03*
X39581Y41926D03*
X39619Y28421D03*
X39764Y31683D03*
X39768Y35381D03*
Y38132D03*
Y34047D03*
X39775Y40670D03*
X40091Y28421D03*
X40377Y74601D03*
X40562Y40670D03*
X40564Y28421D03*
X40565Y50494D03*
X40581Y29516D03*
X40612Y51714D03*
X40644Y27135D03*
X40795Y41999D03*
X40903Y54565D03*
X40911Y53350D03*
X41087Y31126D03*
Y32701D03*
Y34276D03*
Y35850D03*
Y37425D03*
X41153Y28421D03*
X41236Y26986D03*
X41264Y26020D03*
X41349Y39560D03*
Y40670D03*
X41361Y13515D03*
X41537Y26712D03*
X41674Y25174D03*
Y25647D03*
X41752Y42124D03*
X41789Y72870D03*
X41812Y69682D03*
X41911Y24938D03*
Y25411D03*
X41915Y76718D03*
X41942Y40670D03*
X42141Y28421D03*
Y29517D03*
X42249Y56365D03*
X42344Y42158D03*
X42661Y31126D03*
Y32701D03*
Y34276D03*
Y35850D03*
Y37425D03*
X42728Y40670D03*
X42735Y61011D03*
X42761Y42128D03*
X42871Y49041D03*
Y53358D03*
Y54555D03*
X42926Y28421D03*
X42964Y50471D03*
Y51691D03*
X43019Y74943D03*
X43043Y26832D03*
X43069Y76688D03*
X43109Y42522D03*
X43156Y71185D03*
X43160Y64442D03*
X43220Y22260D03*
X43457Y53337D03*
X43463Y54555D03*
X43492Y24061D03*
X43525Y42423D03*
X43557Y50471D03*
X43702Y26902D03*
X43757Y51961D03*
X44015Y42094D03*
X44048Y54549D03*
X44059Y53358D03*
X44106Y28403D03*
X44143Y50502D03*
X44159Y51730D03*
X44236Y31126D03*
Y32701D03*
Y34276D03*
Y35850D03*
Y37425D03*
X44249Y73053D03*
X44286Y20654D03*
X44294Y69887D03*
X44314Y76718D03*
X44466Y26633D03*
X44500Y39561D03*
Y40670D03*
X44518Y42994D03*
X44550Y13484D03*
X44592Y49325D03*
X44612Y47908D03*
X44645Y54565D03*
X44650Y53343D03*
X44703Y26870D03*
X44786Y23529D03*
X44799Y43212D03*
X44939Y26633D03*
X45015Y18697D03*
X45137Y25162D03*
X45176Y26870D03*
X45179Y43323D03*
X45226Y42104D03*
X45231Y53358D03*
X45236Y54560D03*
X45323Y43994D03*
X45347Y61497D03*
Y64048D03*
X45365Y75057D03*
X45407Y57215D03*
X45411Y71276D03*
X45438Y76668D03*
X45492Y50177D03*
X45644Y42249D03*
X45708Y26773D03*
X45729Y49826D03*
X45743Y46584D03*
X45747Y25661D03*
X45766Y43240D03*
X45811Y31126D03*
Y32701D03*
Y34276D03*
Y35850D03*
Y37425D03*
X45877Y40670D03*
X45926Y20973D03*
X45967Y49478D03*
X46074Y28421D03*
Y29515D03*
X46251Y22608D03*
X46257Y22938D03*
X46259Y42215D03*
Y22275D03*
X46297Y51691D03*
X46326Y50485D03*
X46402Y53353D03*
X46408Y54560D03*
X46481Y72984D03*
X46612Y76708D03*
X46617Y50191D03*
X46640Y69796D03*
X46678Y42213D03*
X46687Y26029D03*
X46837Y16497D03*
X46854Y49781D03*
X46938Y51691D03*
X46958Y26892D03*
X46967Y26519D03*
Y53358D03*
X46999Y54560D03*
X47059Y28421D03*
X47091Y49432D03*
X47099Y20991D03*
X47258Y40670D03*
X47260Y55515D03*
X47347Y44552D03*
Y45046D03*
X47351Y64473D03*
X47374Y19037D03*
X47386Y31126D03*
Y32701D03*
Y34276D03*
Y35850D03*
Y37425D03*
X47398Y19955D03*
X47412Y58976D03*
X47415Y49043D03*
X47469Y18269D03*
X47484Y51714D03*
X47503Y62499D03*
X47595Y54560D03*
X47600Y53358D03*
X47688Y73964D03*
X47802Y69704D03*
X47832Y50326D03*
X47872Y20295D03*
X48043Y39564D03*
Y40670D03*
X48046Y41994D03*
X48086Y51706D03*
X48176Y26295D03*
X48181Y54560D03*
X48252Y27156D03*
X48284Y18237D03*
X48289Y42337D03*
X48308Y49880D03*
X48436Y29514D03*
X48437Y28421D03*
X48469Y25637D03*
X48521Y20295D03*
X48611Y26977D03*
X48626Y42636D03*
X48688Y51691D03*
X48689Y50083D03*
X48773Y24962D03*
X48777Y53353D03*
Y54549D03*
X48955Y50403D03*
X48961Y32701D03*
Y34276D03*
Y35850D03*
Y37425D03*
X48968Y26599D03*
X49018Y49335D03*
X49027Y28299D03*
X49036Y20612D03*
X49040Y42422D03*
X49043Y21475D03*
X49059Y18656D03*
X49067Y19749D03*
X49075Y22156D03*
X49234Y41921D03*
X49259Y48988D03*
X49310Y17100D03*
X49383Y26611D03*
X49421Y40670D03*
X49438Y39564D03*
X49456Y18293D03*
X49598Y56335D03*
X49604Y50169D03*
X49618Y28421D03*
X49732Y26946D03*
X49733Y42496D03*
X49780Y60616D03*
X49859Y50506D03*
X49867Y51698D03*
X49919Y16280D03*
X49970Y26222D03*
X50019Y15684D03*
X50023Y42192D03*
X50054Y63805D03*
X50078Y49720D03*
X50095Y17072D03*
X50097Y28407D03*
X50213Y30519D03*
X50214Y31880D03*
Y35623D03*
Y37194D03*
X50232Y27040D03*
X50268Y40670D03*
X50329Y53353D03*
X50334Y54560D03*
X50390Y16270D03*
X50445Y51698D03*
X50604Y28421D03*
X50741Y40670D03*
X50742Y50329D03*
X50785Y32347D03*
X50952Y53358D03*
X50982Y17040D03*
X50994Y28385D03*
X51003Y16266D03*
X51019Y15684D03*
X51046Y15186D03*
X51055Y51722D03*
X51316Y29304D03*
Y29776D03*
Y30696D03*
Y31289D03*
Y31880D03*
Y33457D03*
Y36583D03*
Y37194D03*
Y37983D03*
Y39361D03*
Y40150D03*
Y28831D03*
Y35622D03*
X51336Y50004D03*
X51355Y41350D03*
X51369Y15684D03*
X51523Y54562D03*
X51533Y53343D03*
X51538Y17044D03*
X51641Y51698D03*
X51919Y50341D03*
X52005Y17072D03*
X52223Y26620D03*
X52227Y51691D03*
X52338Y42200D03*
X52489Y49991D03*
X52514Y41441D03*
X52603Y39533D03*
X52604Y62469D03*
X52609Y38160D03*
X52704Y53343D03*
X52712Y29123D03*
X52718Y42406D03*
X52763Y34488D03*
X52765Y34193D03*
X52786Y33187D03*
X52797Y51706D03*
X52807Y43244D03*
X52809Y43660D03*
X52880Y42829D03*
X52903Y35838D03*
X52917Y38609D03*
X52928Y36529D03*
X53011Y47516D03*
X53092Y45168D03*
X53104Y50357D03*
X53234Y43570D03*
X53236Y33141D03*
X53249Y31092D03*
X53306Y53327D03*
X53398Y51706D03*
X53497Y49358D03*
X53513Y56084D03*
X53653Y36470D03*
X53778Y34549D03*
Y34884D03*
X53960Y51691D03*
X54006Y50423D03*
X54036Y32946D03*
X54080Y54588D03*
Y53322D03*
X54104Y57961D03*
X54274Y59827D03*
X54499Y51691D03*
X54547Y33825D03*
X54584Y50338D03*
X54683Y54682D03*
X55100Y52126D03*
X55128Y33487D03*
X55163Y53068D03*
X55476Y33138D03*
X55494Y47344D03*
X55598Y51910D03*
X55617Y52672D03*
X55649Y50366D03*
X55824Y33487D03*
X56061Y53049D03*
X56160Y52199D03*
X56173Y33138D03*
X56521Y33487D03*
X56864Y58083D03*
X56870Y33138D03*
X57087Y47965D03*
X57150Y37278D03*
X57172Y41512D03*
X57218Y33487D03*
X57244Y35213D03*
X57298Y43446D03*
X57487Y34435D03*
X57566Y33138D03*
X57915Y33487D03*
X57919Y36253D03*
X58235Y53502D03*
X58263Y33138D03*
X58498Y55962D03*
X58594Y39775D03*
X58621Y44319D03*
X58632Y33483D03*
X58828Y41377D03*
X59440Y43455D03*
X60095Y64101D03*
X60674Y64587D03*
X60833Y49998D03*
X60874Y51901D03*
X60914Y53156D03*
X61023Y43617D03*
X61043Y29344D03*
X61063Y54010D03*
X61071Y54944D03*
X61109Y54608D03*
X61381Y49105D03*
X61391Y53872D03*
X61395Y54894D03*
X61516Y30252D03*
X61620Y54627D03*
X61696Y64596D03*
X61697Y53998D03*
X61719Y54929D03*
X61851Y44355D03*
X62026Y41376D03*
X62304Y67845D03*
X62394Y40857D03*
X62446Y43629D03*
X62472Y65806D03*
Y66766D03*
X62473Y66299D03*
X62521Y32980D03*
Y34255D03*
Y36340D03*
X62666Y51892D03*
Y52619D03*
X62667Y51112D03*
Y53372D03*
X62865Y31806D03*
X62987Y32980D03*
X63142Y37683D03*
X63160Y44243D03*
X63172Y34546D03*
Y34940D03*
X63232Y66418D03*
X63237Y65711D03*
X63253Y66069D03*
X63288Y60161D03*
X63419Y29330D03*
X63507Y43859D03*
X63544Y43407D03*
X63601Y64208D03*
X63614Y31826D03*
X63638Y66418D03*
X63654Y66080D03*
X63707Y65732D03*
X63988Y64070D03*
X64096Y67845D03*
X64119Y65336D03*
X64132Y31047D03*
X64140Y66444D03*
Y30651D03*
X64161Y66096D03*
X64182Y65705D03*
X64202Y32292D03*
X64334Y64210D03*
X64414Y34744D03*
X64631Y66439D03*
X64641Y65726D03*
X64652Y66101D03*
X64673Y58833D03*
X64852Y67877D03*
X64885Y68937D03*
X64971Y29168D03*
X65385Y31158D03*
X65397Y66048D03*
Y66535D03*
X65403Y65572D03*
X65440Y67866D03*
X65452Y44428D03*
X65601Y47180D03*
X65615Y43647D03*
X65629Y46094D03*
Y48151D03*
X65658Y45008D03*
X65673Y49251D03*
Y51177D03*
X65716Y42648D03*
Y50221D03*
X65720Y36948D03*
X65898Y64838D03*
X65925Y64254D03*
Y61241D03*
Y61954D03*
Y63407D03*
X66206Y33000D03*
X66397Y50830D03*
X66461Y62274D03*
Y63386D03*
X66600Y42199D03*
X66609Y31142D03*
X66620Y29859D03*
X66672Y47745D03*
X66762Y61241D03*
Y61954D03*
X66808Y35645D03*
X66815Y34744D03*
X66822Y33841D03*
X66889Y45949D03*
X66904Y51351D03*
X66975Y36867D03*
X67072Y63403D03*
X67087Y61547D03*
X67402Y62821D03*
X67604Y58597D03*
Y59090D03*
X67675Y60484D03*
Y62031D03*
X67764Y33020D03*
X67784Y32172D03*
X67786Y30222D03*
X67832Y29249D03*
X67886Y36158D03*
X67947Y34640D03*
X67975Y51409D03*
X67987Y33729D03*
X68013Y46776D03*
X68410Y42098D03*
X68480Y30963D03*
X68661Y62013D03*
X69216Y61546D03*
X69228Y42489D03*
X69250Y47716D03*
X69308Y45718D03*
X69424Y51322D03*
X69930Y42257D03*
X70220Y43140D03*
X70278Y44516D03*
X70292Y48151D03*
X70307Y45906D03*
Y50902D03*
X70321Y46818D03*
Y49483D03*
X71870Y42161D03*
Y43161D03*
Y44161D03*
Y45161D03*
Y46161D03*
Y47161D03*
Y48161D03*
Y49161D03*
Y50161D03*
Y51161D03*
X73445Y42161D03*
Y46161D03*
Y47161D03*
Y51161D03*
X75020Y42161D03*
Y46161D03*
Y47161D03*
Y51161D03*
X76594Y42161D03*
Y43161D03*
Y44161D03*
Y45161D03*
Y46161D03*
Y47161D03*
Y48161D03*
Y49161D03*
Y50161D03*
Y51161D03*
G54D17*
X35558Y80709D02*
X35158D01*
X35376Y80406*
X35267*
X35194Y80370*
X35158Y80334*
X35122Y80225*
Y80140*
X35158Y80031*
X35231Y79958*
X35340Y79921*
X35449*
X35558Y79958*
X35594Y79994*
X35631Y80067*
G54D18*
X11665Y43189D02*
Y41764D01*
X11813Y41616*
X16179Y48341D02*
X17580Y49741D01*
X17179Y48341D02*
X18482Y49643D01*
X17580Y49741D02*
Y49743D01*
X17720Y49884*
X32337*
X35005Y47216*
Y47215*
X35072Y47148*
Y46800*
X17679Y47841D02*
X18943Y46577D01*
X17798Y43119D02*
X15793Y45124D01*
X18179Y48341D02*
X19098Y49259D01*
X18482Y49643D02*
X32185D01*
X34706Y47122*
Y46452*
X18943Y46577D02*
X24392D01*
X24959Y47144*
X30871*
X31048Y46967*
Y46450*
X19098Y49259D02*
Y49263D01*
X19238Y49403*
X32085*
X34340Y47148*
Y46800*
X19179Y48341D02*
X20002Y49163D01*
X19679Y47841D02*
X20462Y47057D01*
X19702Y46817D02*
X18679Y47841D01*
X20002Y49163D02*
X31972D01*
X32174Y48961*
Y48921*
X33975Y47121*
Y46452*
X20179Y48341D02*
X20762Y48923D01*
X31833*
X20462Y47057D02*
X24193D01*
X24760Y47624*
X31257*
X31780Y47101*
Y46450*
X20679Y47841D02*
X21205Y47315D01*
X21179Y48341D02*
X21521Y48683D01*
X31721*
X21205Y47315D02*
X24111D01*
X24661Y47864*
X31409*
X32146Y47128*
Y46799*
X21558Y43359D02*
X19793Y45124D01*
X21679Y47841D02*
X21965Y47555D01*
X23132*
X23779Y48203*
X22318Y43599D02*
X20793Y45124D01*
X22357Y43599D02*
X22318D01*
X22357D02*
X28183D01*
X33218Y38564*
Y33467*
X35830Y30855*
X36178*
X23078Y43839D02*
X21793Y45124D01*
X23117Y43839D02*
X23078D01*
X23117D02*
X28282D01*
X33458Y38663*
Y33617*
X35855Y31219*
X36527*
X23281Y48443D02*
X22679Y47841D01*
X23779Y48203D02*
X31430D01*
X32511Y47121*
Y46450*
X24492Y46337D02*
X18183D01*
X16679Y47841*
X24591Y46097D02*
X16766D01*
X16293Y45624*
X26599Y46597D02*
X25091D01*
X24591Y46097*
X28248Y42854D02*
X27984Y43119D01*
X18788*
X18784Y43123*
X18495*
X18491Y43119*
X17798*
X28289Y46136D02*
X28571Y45854D01*
X28985*
X35379Y39459*
Y34550*
X35789Y34140*
X36527*
X28348Y43094D02*
X28083Y43359D01*
X21558*
X28737Y46409D02*
X29012Y46134D01*
X29044*
X35619Y39559*
Y34649*
X35763Y34506*
X36178*
X30682Y46799D02*
X30334D01*
X30296Y46837*
X24992*
X24492Y46337*
X31414Y46799D02*
Y47128D01*
X31157Y47384*
X24860*
X24293Y46817*
X19702*
X31721Y48683D02*
X32025Y48379D01*
Y48339*
X33243Y47121*
Y46450*
X31833Y48923D02*
X33609Y47147D01*
Y46799*
X32877D02*
Y47147D01*
X31582Y48443*
X23281*
X35462Y44523D02*
X41537Y38447D01*
Y26712*
X36113Y62368D02*
Y62137D01*
X36450Y61800*
Y53098*
X35462Y52109*
Y44523*
X36178Y30125D02*
X35830D01*
X32737Y33218*
Y38365*
X28248Y42854*
X36178Y31584D02*
X35830D01*
X33698Y33716*
Y38763*
X28381Y44080*
X26225*
X25287Y45018*
Y45024*
X25040Y45270*
X36178Y32314D02*
X35830D01*
X34178Y33965*
Y38962*
X28580Y44560*
X26858*
X25480Y45938*
Y45969*
X25233Y46216*
X36178Y33043D02*
X35830D01*
X34659Y34215*
Y39161*
X28779Y45040*
X27557*
X26428Y46169*
X36178Y33773D02*
X35817D01*
X35139Y34451*
Y39360*
X28969Y45530*
X28273*
X27617Y46186*
X27370Y46433*
X36527Y30490D02*
X35855D01*
X32978Y33367*
Y38465*
X28348Y43094*
X36527Y31949D02*
X35855D01*
X33938Y33866*
Y38862*
X28481Y44320*
X26569*
X25861Y45028*
Y45030*
X25605Y45286*
X36527Y32678D02*
X35855D01*
X34419Y34115*
Y39061*
X28680Y44800*
X27134*
X25975Y45959*
X36527Y33408D02*
X35842D01*
X34899Y34351*
Y39260*
X28879Y45280*
X27916*
X26599Y46597*
X36585Y62361D02*
Y53065D01*
X35594Y52074*
Y44557*
X38576Y41575*
X40443*
X41349Y40670*
X43757Y51961D02*
Y51056D01*
X43840Y50972*
Y43671*
X44518Y42994*
X45747Y25661D02*
Y25677D01*
X45964Y25894*
Y25898*
X46958Y26892*
X53249Y31092D02*
X55317D01*
X57218Y32994*
Y33487*
X58632Y33483D02*
Y33015D01*
X54741Y29123*
X52712*
G54D19*
X17224Y62330D03*
X18504Y70768D03*
Y71949D03*
Y73130D03*
X19685Y70768D03*
Y71949D03*
Y73130D03*
X20866Y70768D03*
Y71949D03*
Y73130D03*
X21260Y54626D03*
X22047Y70768D03*
Y71949D03*
Y73130D03*
X22441Y54626D03*
X23228Y70768D03*
Y71949D03*
Y73130D03*
X26772Y76673D03*
X27953D03*
X29134D03*
X30315D03*
X31496Y19980D03*
Y21161D03*
Y76673D03*
X32022Y24445D03*
X32677Y19980D03*
Y21161D03*
Y76673D03*
X33858D03*
X35039D03*
X35928Y29259D03*
X35946Y28419D03*
X36147Y27434D03*
X36220Y76673D03*
X36762Y26420D03*
X37402Y76673D03*
X38583D03*
X40157Y23130D03*
Y24311D03*
X41339Y23130D03*
Y24311D03*
Y76673D03*
X42520D03*
X43701D03*
X44882D03*
X45489Y16581D03*
X46063Y76673D03*
X47036Y22244D03*
X47244Y76673D03*
X47445Y14555D03*
X57749Y56381D03*
X58488Y54375D03*
X61397Y54264D03*
X63071Y30251D03*
X63408Y32340D03*
X63984Y59374D03*
G54D70*
X15293Y45124D03*
Y45624D03*
X15793Y45124D03*
Y45624D03*
X16179Y47841D03*
Y48341D03*
X16293Y45124D03*
Y45624D03*
X16679Y47841D03*
Y48341D03*
X16793Y45124D03*
Y45624D03*
X17179Y47841D03*
Y48341D03*
X17293Y45124D03*
Y45624D03*
X17679Y47841D03*
Y48341D03*
X17793Y45124D03*
Y45624D03*
X18179Y47841D03*
Y48341D03*
X18293Y45124D03*
Y45624D03*
X18679Y47841D03*
Y48341D03*
X18793Y45124D03*
Y45624D03*
X19179Y47841D03*
Y48341D03*
X19293Y45124D03*
Y45624D03*
X19679Y47841D03*
Y48341D03*
X19793Y45124D03*
Y45624D03*
X20179Y47841D03*
Y48341D03*
X20293Y45124D03*
Y45624D03*
X20679Y47841D03*
Y48341D03*
X20793Y45124D03*
Y45624D03*
X21179Y47841D03*
Y48341D03*
X21293Y45124D03*
Y45624D03*
X21679Y47841D03*
Y48341D03*
X21793Y45124D03*
Y45624D03*
X22179Y47841D03*
Y48341D03*
X22679Y47841D03*
Y48341D03*
X56947Y45124D03*
Y45624D03*
X57447Y45124D03*
Y45624D03*
X57833Y47841D03*
Y48341D03*
X57947Y45124D03*
Y45624D03*
X58333Y47841D03*
Y48341D03*
X58447Y45124D03*
Y45624D03*
X58833Y47841D03*
Y48341D03*
X58947Y45124D03*
Y45624D03*
X59333Y47841D03*
Y48341D03*
X59447Y45124D03*
Y45624D03*
X59833Y47841D03*
Y48341D03*
X59947Y45124D03*
Y45624D03*
X60333Y47841D03*
Y48341D03*
X60447Y45124D03*
Y45624D03*
X60833Y47841D03*
Y48341D03*
X60947Y45124D03*
Y45624D03*
X61333Y47841D03*
Y48341D03*
X61447Y45124D03*
Y45624D03*
X61833Y47841D03*
Y48341D03*
X61947Y45124D03*
Y45624D03*
X62333Y47841D03*
Y48341D03*
X62447Y45124D03*
Y45624D03*
X62833Y47841D03*
Y48341D03*
X62947Y45124D03*
Y45624D03*
X63333Y47841D03*
Y48341D03*
X63447Y45124D03*
Y45624D03*
X63833Y47841D03*
Y48341D03*
X64333Y47841D03*
Y48341D03*
G54D71*
X13316Y32987D03*
Y34259D03*
Y35768D03*
Y37016D03*
X14564Y27768D03*
Y37016D03*
X18312Y27768D03*
Y37016D03*
X19560D03*
X20808D03*
X20812Y27768D03*
X24560D03*
Y37016D03*
X25808D03*
X27060Y27768D03*
Y37016D03*
X30808Y27768D03*
Y37016D03*
X32056Y27768D03*
Y37016D03*
M02*
