*
G04 Job   : H:\SPIROSE\PCB\ROTATIVE_BASE\PCB\PCB.pcb*
G04 User  : DESKTOP-D6MOGOB:alexis*
G04 Layer : EtchLayerBottom.gdo*
G04 Date  : Tue Jan 09 14:21:18 2018*
G04 Mentor Graphics Example Gerber Output Definition*
%ICAS*%
%MOIN*%
%FSLAX24Y24*%
%OFA0.0000B0.0000*%
G90*
G74*
%AMVB_RECTANGLE*
21,1,$1,$2,0,0,$3*
%
%ADD10C,0.00000*%
%ADD18C,0.00591*%
%ADD14C,0.00787*%
%ADD17C,0.01000*%
%ADD15C,0.01575*%
%ADD16C,0.02362*%
%ADD71C,0.02559*%
%ADD23C,0.03543*%
%ADD19C,0.03937*%
%ADD70C,0.07874*%
%ADD12C,0.19685*%
%ADD13C,0.23622*%
%ADD11C,0.31496*%
%ADD24VB_RECTANGLE,0.03543X0.03543X180.00000*%
%ADD21VB_RECTANGLE,0.02362X0.03937X90.00000*%
%ADD25VB_RECTANGLE,0.02756X0.00984X270.00000*%
%ADD20VB_RECTANGLE,0.02756X0.01575X180.00000*%
%ADD22VB_RECTANGLE,0.02756X0.01575X270.00000*%
%ADD26VB_RECTANGLE,0.04528X0.12598X270.00000*%
G01*
G36*
X197Y51673D02*
G02X1968Y53445I1771D01*
G01X1969*
X3732*
Y44134*
G03X5366Y42500I1634*
X7000Y44134J1634*
X5366Y45768I1634*
X3732Y44134J1634*
G01Y49370*
G03X5366Y47736I1634*
X7000Y49370J1634*
X5366Y51004I1634*
X3732Y49370J1634*
G01Y53445*
X5272*
G03X5850Y53914J590*
G02X8988Y62685I33520J7044*
G01Y42571*
G03X9185Y42374I197*
X9381Y42571J197*
X9185Y42768I196*
X8988Y42571J197*
G01Y43358*
G03X9185Y43161I197*
X9381Y43358J197*
X9185Y43555I196*
X8988Y43358J197*
G01Y44146*
G03X9185Y43949I197*
X9381Y44146J197*
X9185Y44342I196*
X8988Y44146J196*
G01Y44933*
G03X9185Y44736I197*
X9381Y44933J197*
X9185Y45130I196*
X8988Y44933J197*
G01Y45720*
G03X9185Y45524I197*
X9381Y45720J196*
X9185Y45917I196*
X8988Y45720J197*
G01Y48409*
G03X9157Y48214I197*
G01Y47005*
G03X9354Y46808I197*
X9551Y47005J197*
X9354Y47202I197*
X9157Y47005J197*
G01Y48214*
G03X9185Y48212I28J195*
X9381Y48409J197*
X9185Y48606I196*
X8988Y48409J197*
G01Y49196*
G03X9185Y48999I197*
X9381Y49196J197*
X9185Y49393I196*
X8988Y49196J197*
G01Y49983*
G03X9185Y49787I197*
X9381Y49983J196*
X9185Y50180I196*
X8988Y49983J197*
G01Y50771*
G03X9185Y50574I197*
X9381Y50771J197*
X9185Y50968I196*
X8988Y50771J197*
G01Y51558*
G03X9185Y51361I197*
X9381Y51558J197*
X9185Y51755I196*
X8988Y51558J197*
G01Y52346*
G03X9185Y52149I197*
X9381Y52346J197*
X9185Y52543I196*
X8988Y52346J197*
G01Y53133*
G03X9185Y52936I197*
X9381Y53133J197*
X9185Y53330I196*
X8988Y53133J197*
G01Y53886*
G03X9185Y53689I197*
X9381Y53886J197*
X9185Y54083I196*
X8988Y53886J197*
G01Y62685*
G02X9773Y64110I30382J15815*
G01Y45344*
G03X9970Y45147I197*
X9991Y45148J197*
G01Y44134*
G03X10134Y43455I1674*
G01Y42269*
G03X10331Y42073I197*
X10528Y42269J196*
X10331Y42466I197*
X10134Y42269J197*
G01Y43455*
G03X11665Y42459I1531J679*
X12843Y42943J1675*
G01Y32987*
G03X13316Y32515I473*
X13788Y32987J472*
X13316Y33460I472*
X12843Y32987J473*
G01Y34259*
G03X13316Y33787I473*
X13788Y34259J472*
X13316Y34732I472*
X12843Y34259J473*
G01Y35768*
G03X13316Y35296I473*
X13788Y35768J472*
X13316Y36240I472*
X12843Y35768J472*
G01Y37016*
G03X13316Y36544I473*
X13788Y37016J472*
X13316Y37488I472*
X12843Y37016J472*
G01Y42943*
G03X12937Y43043I1178J1191*
G01Y42291*
G03X13133Y42094I196*
X13330Y42291J197*
X13133Y42488I197*
X12937Y42291J197*
G01Y43043*
G03X13340Y44134I1272J1091*
X11665Y45809I1675*
X9991Y44134J1675*
G01Y45148*
G03X10167Y45344I21J196*
X9970Y45541I197*
X9773Y45344J197*
G01Y64110*
G02X9972Y64447I29597J17240*
G01Y53886*
G03X9991Y53802I197*
G01Y49370*
G03X10048Y48937I1674*
G01Y46657*
G03X10244Y46460I196*
X10441Y46657J197*
X10244Y46854I197*
X10048Y46657J197*
G01Y48937*
G03X10525Y48143I1617J433*
G01Y47265*
G03X10612Y47102I197*
G01Y45962*
G03X10809Y45765I197*
X11006Y45962J197*
X10809Y46159I197*
X10612Y45962J197*
G01Y47102*
G03X10722Y47069I110J163*
X10919Y47265J196*
X10722Y47462I197*
X10525Y47265J197*
G01Y48143*
G03X11394Y47717I1140J1227*
G01Y46614*
G03X11591Y46417I197*
X11788Y46614J197*
X11591Y46811I197*
X11394Y46614J197*
G01Y47717*
G03X11665Y47695I271J1653*
X12089Y47750J1675*
G01Y46006*
G03X12286Y45809I197*
X12483Y46006J197*
X12286Y46202I197*
X12089Y46006J196*
G01Y47750*
G03X12133Y47762I424J1620*
G01Y47222*
G03X12330Y47025I197*
X12527Y47222J197*
X12330Y47419I197*
X12133Y47222J197*
G01Y47762*
G03X12719Y48069I468J1608*
G01Y46636*
G03X12916Y46439I197*
X13113Y46636J197*
X12916Y46832I197*
X12719Y46636J196*
G01Y48069*
G03X13262Y48866I1054J1301*
G01Y47309*
G03X13459Y47112I197*
X13656Y47309J197*
X13459Y47506I197*
X13262Y47309J197*
G01Y48866*
G03X13340Y49370I1597J504*
X11665Y51045I1675*
X9991Y49370J1675*
G01Y53802*
G03X10079Y53711I178J84*
G01Y51037*
G03X10275Y50841I196*
X10472Y51037J196*
X10275Y51234I197*
X10079Y51037J197*
G01Y53711*
G03X10169Y53689I90J175*
X10298Y53738J197*
G01Y52797*
G03X10495Y52600I197*
X10692Y52797J197*
X10495Y52994I197*
X10298Y52797J197*
G01Y53738*
G03X10366Y53886I129J148*
X10169Y54083I197*
X9972Y53886J197*
G01Y64447*
G02X10391Y65129I29398J17577*
G01Y63642*
G03X10956Y62342I1774*
G01Y53886*
G03X11032Y53731I197*
G01Y51477*
G03X11228Y51280I196*
X11425Y51477J197*
X11228Y51674I197*
X11032Y51477J197*
G01Y53731*
G03X11153Y53689I121J155*
X11350Y53886J197*
X11153Y54083I197*
X10956Y53886J197*
G01Y62342*
G03X11423Y62030I1209J1300*
G01Y52748*
G03X11619Y52551I196*
X11816Y52748J197*
X11619Y52945I197*
X11423Y52748J197*
G01Y62030*
G03X11941Y61881I742J1612*
G01Y53886*
G03X12137Y53689I196*
X12253Y53727J197*
G01Y51380*
G03X12450Y51183I197*
X12647Y51380J197*
X12450Y51576I197*
X12253Y51380J196*
G01Y53727*
G03X12334Y53886I116J159*
X12137Y54083I197*
X11941Y53886J197*
G01Y61881*
G03X12165Y61867I224J1761*
X12925Y62038J1775*
G01Y53886*
G03X12938Y53816I197*
G01Y52772*
G03X13011Y52619I196*
G01Y50769*
G03X13208Y50572I197*
X13405Y50769J197*
X13208Y50966I197*
X13011Y50769J197*
G01Y52619*
G03X13134Y52576I123J153*
X13331Y52772J196*
X13134Y52969I197*
X12938Y52772J197*
G01Y53816*
G03X13122Y53689I184J70*
X13318Y53886J197*
X13122Y54083I196*
X12925Y53886J197*
G01Y62038*
G03X13909Y63311I760J1604*
G01Y42571*
G03X14013Y42397I197*
G01Y27768*
G03X14564Y27217I551*
X15115Y27768J551*
X14564Y28319I551*
X14013Y27768J551*
G01Y37016*
G03X14564Y36465I551*
X15115Y37016J551*
X14564Y37567I551*
X14013Y37016J551*
G01Y42397*
G03X14106Y42374I93J174*
X14303Y42571J197*
X14106Y42768I197*
X13909Y42571J197*
G01Y43358*
G03X14106Y43161I197*
X14303Y43358J197*
X14106Y43555I197*
X13909Y43358J197*
G01Y44146*
G03X14106Y43949I197*
X14303Y44146J197*
X14106Y44342I197*
X13909Y44146J196*
G01Y44933*
G03X14106Y44736I197*
X14303Y44933J197*
X14106Y45130I197*
X13909Y44933J197*
G01Y45720*
G03X14106Y45524I197*
X14303Y45720J196*
X14106Y45917I197*
X13909Y45720J197*
G01Y48409*
G03X14106Y48212I197*
X14303Y48409J197*
X14106Y48606I197*
X13909Y48409J197*
G01Y49196*
G03X14106Y48999I197*
X14303Y49196J197*
X14106Y49393I197*
X13909Y49196J197*
G01Y49983*
G03X14106Y49787I197*
X14303Y49983J196*
X14106Y50180I197*
X13909Y49983J197*
G01Y50771*
G03X14106Y50574I197*
X14303Y50771J197*
X14106Y50968I197*
X13909Y50771J197*
G01Y51558*
G03X14106Y51361I197*
X14303Y51558J197*
X14106Y51755I197*
X13909Y51558J197*
G01Y52346*
G03X14106Y52149I197*
X14303Y52346J197*
X14106Y52543I197*
X13909Y52346J197*
G01Y53133*
G03X14106Y52936I197*
X14303Y53133J197*
X14106Y53330I197*
X13909Y53133J197*
G01Y53886*
G03X14106Y53689I197*
X14303Y53886J197*
X14106Y54083I197*
X13909Y53886J197*
G01Y63311*
G03X13940Y63642I1744J331*
X12165Y65417I1775*
X10391Y63642J1775*
G01Y65129*
G02X13501Y69319I28979J18259*
G01Y67146*
G03X15037Y65387I1775*
G01Y45624*
G03X15293Y45368I256*
X15537Y45547J256*
G01Y45124*
G03X15793Y44868I256*
X16049Y45124J256*
X15793Y45380I256*
X15537Y45124J256*
G01Y45547*
G03X15549Y45624I244J77*
G01Y45939*
G02X15558Y45960I30*
G01X16037Y46439*
Y45624*
G03X16293Y45368I256*
X16537Y45547J256*
G01Y45124*
G03X16793Y44868I256*
X16842Y44873J256*
G01Y37545*
G03X17039Y37348I197*
X17151Y37383J197*
G01Y36687*
G03X17348Y36490I197*
X17544Y36687J197*
X17348Y36884I196*
X17151Y36687J197*
G01Y37383*
G03X17236Y37545I112J162*
X17039Y37742I197*
X16842Y37545J197*
G01Y44873*
G03X16893Y44888I49J251*
G01Y38729*
G03X17090Y38532I197*
X17287Y38729J197*
X17090Y38926I197*
X16893Y38729J197*
G01Y44888*
G03X16928Y44906I100J236*
G01Y40805*
G03X16979Y40672I197*
G01Y40307*
G03X17176Y40111I197*
X17373Y40307J196*
X17176Y40504I197*
X16979Y40307J197*
G01Y40672*
G03X17125Y40608I146J133*
X17321Y40805J197*
X17125Y41002I196*
X16928Y40805J197*
G01Y44906*
G03X17049Y45124I135J218*
X16793Y45380I256*
X16537Y45124J256*
G01Y45547*
G03X16549Y45624I244J77*
X16293Y45880I256*
X16037Y45624J256*
G01Y46439*
X16051Y46453*
G02X16072Y46461I21J21*
G01X17037*
Y45624*
G03X17237Y45374I256*
G01Y42349*
G03X17433Y42152I196*
X17597Y42240J197*
G01Y38797*
G03X17648Y38665I197*
G01Y38025*
G03X17837Y37829I197*
G01Y35606*
G03X18034Y35409I197*
X18231Y35606J197*
X18034Y35803I197*
X17837Y35606J197*
G01Y37829*
G03X17839I8J196*
G01Y37016*
G03X18312Y36544I473*
X18433Y36559J472*
G01Y35019*
G03X18630Y34822I197*
X18827Y35019J197*
X18630Y35216I197*
X18433Y35019J197*
G01Y36559*
G03X18563Y36616I121J457*
G01Y36105*
G03X18760Y35908I197*
X18957Y36105J197*
X18760Y36302I197*
X18563Y36105J197*
G01Y36616*
G03X18784Y37016I251J400*
X18312Y37488I472*
X17839Y37016J472*
G01Y37829*
G03X17845Y37828I6J196*
X18042Y38025J197*
X17845Y38222I197*
X17648Y38025J197*
G01Y38665*
G03X17794Y38601I146J132*
X17991Y38797J196*
X17794Y38994I197*
X17597Y38797J197*
G01Y42240*
G03X17614Y42271I164J109*
G01Y41989*
G03X17631Y41909I197*
G01Y40342*
G03X17828Y40145I197*
X18025Y40342J197*
X17828Y40539I197*
X17631Y40342J197*
G01Y41909*
G03X17665Y41856I180J80*
G01Y41148*
G03X17862Y40951I197*
X18059Y41148J197*
X17862Y41345I197*
X17665Y41148J197*
G01Y41856*
G03X17811Y41792I146J133*
X18008Y41989J197*
X17811Y42186I197*
X17614Y41989J197*
G01Y42271*
G03X17630Y42349I181J78*
X17433Y42546I197*
X17237Y42349J197*
G01Y45374*
G03X17293Y45368I56J250*
X17537Y45547J256*
G01Y45124*
G03X17793Y44868I256*
X17835Y44871J256*
G01Y42632*
G03X18031Y42435I196*
X18228Y42632J197*
X18031Y42829I197*
X17835Y42632J197*
G01Y44871*
G03X18049Y45124I42J253*
X17793Y45380I256*
X17537Y45124J256*
G01Y45547*
G03X17549Y45624I244J77*
X17293Y45880I256*
X17037Y45624J256*
G01Y46461*
X18037*
Y45624*
G03X18293Y45368I256*
X18447Y45419J256*
G01Y38425*
G03X18644Y38228I197*
X18841Y38425J197*
X18644Y38622I197*
X18447Y38425J197*
G01Y39212*
G03X18644Y39015I197*
X18841Y39212J197*
X18644Y39409I197*
X18447Y39212J197*
G01Y40000*
G03X18644Y39803I197*
X18841Y40000J197*
X18644Y40196I197*
X18447Y40000J196*
G01Y40787*
G03X18644Y40590I197*
X18841Y40787J197*
X18644Y40984I197*
X18447Y40787J197*
G01Y41574*
G03X18644Y41377I197*
X18841Y41574J197*
X18644Y41771I197*
X18447Y41574J197*
G01Y42362*
G03X18644Y42165I197*
X18841Y42362J197*
X18644Y42559I197*
X18447Y42362J197*
G01Y45419*
G03X18537Y45547I154J205*
G01Y45124*
G03X18793Y44868I256*
X19009Y44986J256*
G01Y37016*
G03X19313Y36523I551*
G01Y35366*
G03X19510Y35169I197*
X19706Y35366J197*
X19510Y35563I196*
X19313Y35366J197*
G01Y36523*
G03X19560Y36465I247J493*
X20018Y36710J551*
G01Y34758*
G03X20215Y34562I197*
X20412Y34758J196*
X20215Y34955I197*
X20018Y34758J197*
G01Y36710*
G03X20111Y37016I458J306*
X19560Y37567I551*
X19009Y37016J551*
G01Y44986*
G03X19049Y45124I216J138*
X18793Y45380I256*
X18537Y45124J256*
G01Y45547*
G03X18549Y45624I244J77*
X18293Y45880I256*
X18037Y45624J256*
G01Y46461*
X19037*
Y45624*
G03X19293Y45368I256*
X19537Y45547J256*
G01Y45124*
G03X19793Y44868I256*
X20049Y45124J256*
X19793Y45380I256*
X19537Y45124J256*
G01Y45547*
G03X19549Y45624I244J77*
X19293Y45880I256*
X19037Y45624J256*
G01Y46461*
X20037*
Y45624*
G03X20257Y45371I256*
G01Y37016*
G03X20548Y36530I551*
G01Y35417*
G03X20745Y35220I197*
X20942Y35417J197*
X20745Y35614I197*
X20548Y35417J197*
G01Y36530*
G03X20808Y36465I260J486*
X21256Y36695J551*
G01Y34737*
G03X21453Y34540I197*
X21650Y34737J197*
X21453Y34933I197*
X21256Y34737J196*
G01Y36695*
G03X21359Y37016I448J321*
X20808Y37567I551*
X20257Y37016J551*
G01Y45371*
G03X20293Y45368I36J253*
X20537Y45547J256*
G01Y45124*
G03X20793Y44868I256*
X21049Y45124J256*
X20793Y45380I256*
X20537Y45124J256*
G01Y45547*
G03X20549Y45624I244J77*
X20293Y45880I256*
X20037Y45624J256*
G01Y46461*
X21037*
Y45624*
G03X21293Y45368I256*
X21456Y45427J256*
G02X21475Y45433I19J23*
X21503Y45412J29*
G03X21582Y45334I113J35*
G02X21603Y45306I9J28*
X21596Y45287I30*
G03X21537Y45124I197J163*
X21793Y44868I256*
X21801J256*
G01Y35383*
G03X21998Y35186I197*
X22194Y35383J197*
X21998Y35580I196*
X21801Y35383J197*
G01Y44868*
G03X22049Y45124I8J256*
X21991Y45287I256*
G02X21984Y45306I23J19*
X22005Y45334I30*
G03X22089Y45447I35J113*
G01Y45801*
G03X21970Y45919I119*
G01X21616*
G03X21503Y45836J118*
G02X21475Y45815I28J8*
X21456Y45821J29*
G03X21293Y45880I163J197*
X21037Y45624J256*
G01Y46461*
X22494*
Y34671*
G03X22691Y34475I197*
X22888Y34671J196*
X22691Y34868I197*
X22494Y34671J197*
G01Y46461*
X22603*
Y36061*
G03X22799Y35865I196*
X22996Y36061J196*
X22799Y36258I197*
X22603Y36061J197*
G01Y46461*
X22930*
Y40557*
G03X22969Y40440I197*
G01Y38588*
G03X23053Y38427I197*
G01Y35366*
G03X23250Y35169I197*
X23447Y35366J197*
X23250Y35563I197*
X23053Y35366J197*
G01Y38427*
G03X23166Y38391I113J161*
X23363Y38588J197*
X23166Y38785I197*
X22969Y38588J197*
G01Y40440*
G03X23127Y40360I158J117*
X23324Y40557J197*
X23127Y40754I197*
X22930Y40557J197*
G01Y46461*
X23465*
Y36498*
G03X23602Y36311I197*
G01Y34802*
G03X23798Y34605I196*
X23995Y34802J197*
X23798Y34999I197*
X23602Y34802J197*
G01Y36311*
G03X23662Y36301I60J187*
X23859Y36498J197*
X23662Y36695I197*
X23465Y36498J197*
G01Y37648*
G03X23662Y37451I197*
X23859Y37648J197*
X23662Y37845I197*
X23465Y37648J197*
G01Y46461*
X23590*
Y40212*
G03X23727Y40024I196*
G01Y38557*
G03X23924Y38360I197*
X24087Y38448J197*
G01Y37016*
G03X24169Y36751I473*
G01Y35383*
G03X24365Y35186I196*
X24562Y35383J197*
X24365Y35580I197*
X24169Y35383J197*
G01Y36751*
G03X24560Y36544I391J265*
X24861Y36652J472*
G01Y35975*
G03X24883Y35885I197*
G01Y34910*
G03X25080Y34714I197*
X25277Y34910J196*
X25080Y35107I197*
X24883Y34910J197*
G01Y35885*
G03X25058Y35778I175J90*
X25255Y35975J197*
X25058Y36171I197*
X24861Y35975J196*
G01Y36652*
G03X25032Y37016I301J364*
X24560Y37488I472*
X24087Y37016J472*
G01Y38448*
G03X24121Y38557I163J109*
X23924Y38754I197*
X23727Y38557J197*
G01Y40024*
G03X23786Y40015I59J188*
X23983Y40212J197*
X23786Y40409I197*
X23590Y40212J197*
G01Y41707*
G03X23612Y41615I196*
G01Y40906*
G03X23809Y40709I197*
X24006Y40906J197*
X23809Y41103I197*
X23612Y40906J197*
G01Y41615*
G03X23786Y41510I174J92*
X23983Y41707J197*
X23786Y41904I197*
X23590Y41707J197*
G01Y46461*
X23719*
G03X23900Y46536J256*
G01X24040Y46677*
Y42332*
G03X24136Y42163I197*
G01Y41725*
G03X24158Y41636I197*
G01Y40781*
G03X24224Y40634I196*
G01Y38427*
G03X24421Y38230I197*
X24617Y38427J197*
X24421Y38624I196*
X24224Y38427J197*
G01Y40634*
G03X24354Y40584I130J147*
X24551Y40781J197*
X24354Y40978I197*
X24158Y40781J197*
G01Y41636*
G03X24333Y41528I175J89*
X24530Y41725J197*
X24333Y41922I197*
X24136Y41725J197*
G01Y42163*
G03X24237Y42135I101J169*
X24434Y42332J197*
X24237Y42529I197*
X24040Y42332J197*
G01Y46677*
X24472Y47108*
G03X24547Y47289I181J181*
G01Y48658*
G03X24472Y48839I256*
G01X24117Y49194*
G02X24108Y49215I21J21*
X24117Y49236I30*
G01X24472Y49591*
G03X24547Y49772I181J181*
G01Y50314*
G02X24555Y50335I29*
G01X24683Y50463*
Y38134*
G03X24880Y37937I197*
X25077Y38134J197*
X24880Y38330I197*
X24683Y38134J196*
G01Y38921*
G03X24880Y38724I197*
X25077Y38921J197*
X24880Y39118I197*
X24683Y38921J197*
G01Y39708*
G03X24880Y39512I197*
X25077Y39708J196*
X24880Y39905I197*
X24683Y39708J197*
G01Y40496*
G03X24880Y40299I197*
X25077Y40496J197*
X24880Y40693I197*
X24683Y40496J197*
G01Y41283*
G03X24880Y41086I197*
X25077Y41283J197*
X24880Y41480I197*
X24683Y41283J197*
G01Y42071*
G03X24880Y41874I197*
X25077Y42071J197*
X24880Y42267I197*
X24683Y42071J196*
G01Y50463*
X24844Y50624*
Y45270*
G03X25040Y45073I196*
X25237Y45270J197*
X25040Y45467I197*
X24844Y45270J197*
G01Y50624*
X25037Y50817*
Y46216*
G03X25233Y46019I196*
X25335Y46047J197*
G01Y37016*
G03X25490Y36667I473*
G01Y35383*
G03X25687Y35186I197*
X25884Y35383J197*
X25687Y35580I197*
X25490Y35383J197*
G01Y36667*
G03X25808Y36544I318J349*
X26280Y37016J472*
X25808Y37488I472*
X25335Y37016J472*
G01Y46047*
G03X25408Y46125I102J169*
G01Y45286*
G03X25605Y45089I197*
X25802Y45286J197*
X25605Y45483I197*
X25408Y45286J197*
G01Y46125*
G03X25430Y46216I175J91*
X25233Y46412I197*
X25037Y46216J196*
G01Y50817*
X25778Y51559*
Y45959*
G03X25975Y45762I197*
X26172Y45959J197*
X25975Y46156I197*
X25778Y45959J197*
G01Y51559*
X26232Y52012*
Y46169*
G03X26428Y45972I196*
X26509Y45989J197*
G01Y37016*
G03X26725Y36578I551*
G01Y35417*
G03X26922Y35220I197*
X27119Y35417J197*
X26922Y35614I197*
X26725Y35417J197*
G01Y36578*
G03X27060Y36465I335J438*
X27098Y36466J551*
G01Y35975*
G03X27295Y35778I197*
X27492Y35975J197*
X27295Y36171I197*
X27098Y35975J196*
G01Y36466*
G03X27611Y37016I38J550*
X27060Y37567I551*
X26509Y37016J551*
G01Y45989*
G03X26625Y46169I81J180*
X26428Y46366I197*
X26232Y46169J197*
G01Y52012*
X26410Y52190*
G02X26431Y52199I21J21*
G01X27173*
Y46433*
G03X27370Y46236I197*
X27567Y46433J197*
X27370Y46629I197*
X27173Y46433J196*
G01Y52199*
X27720*
Y35417*
G03X27917Y35220I197*
X28114Y35417J197*
X27917Y35614I197*
X27720Y35417J197*
G01Y52199*
X28092*
Y46136*
G03X28289Y45940I197*
X28466Y46051J196*
G01Y36105*
G03X28663Y35908I197*
X28819Y35984J197*
G01Y35434*
G03X29015Y35237I196*
X29212Y35434J197*
X29015Y35631I197*
X28819Y35434J197*
G01Y35984*
G03X28860Y36105I156J121*
X28663Y36302I197*
X28466Y36105J197*
G01Y46051*
G03X28486Y46136I177J85*
X28289Y46333I197*
X28092Y46136J197*
G01Y52199*
X28541*
Y46409*
G03X28737Y46212I196*
X28934Y46409J197*
X28737Y46606I197*
X28541Y46409J197*
G01Y52199*
X29099*
Y41077*
G03X29179Y40918I197*
G01Y36464*
G03X29376Y36267I197*
X29573Y36464J197*
X29376Y36661I197*
X29179Y36464J197*
G01Y40918*
G03X29205Y40902I117J159*
G01Y38472*
G03X29401Y38275I196*
X29598Y38472J197*
X29401Y38669I197*
X29205Y38472J197*
G01Y40902*
G03X29296Y40880I91J175*
X29425Y40928J197*
G01Y40236*
G03X29622Y40039I197*
X29631J197*
G01Y38057*
G03X29814Y37860I197*
G01Y37270*
G03X29856Y37148I197*
G01Y36257*
G03X30053Y36060I197*
X30088Y36063J197*
G01Y35623*
G03X30285Y35426I197*
X30482Y35623J197*
X30285Y35820I197*
X30088Y35623J197*
G01Y36063*
G03X30250Y36257I35J194*
X30053Y36454I197*
X29856Y36257J197*
G01Y37148*
G03X30011Y37073I155J122*
X30208Y37270J197*
X30011Y37467I197*
X29814Y37270J197*
G01Y37860*
G03X29828I14J197*
X30024Y38057J197*
X29828Y38254I196*
X29631Y38057J197*
G01Y40039*
G03X29648Y40041I9J197*
G01Y38829*
G03X29845Y38632I197*
X30042Y38829J197*
X29845Y39026I197*
X29648Y38829J197*
G01Y40041*
G03X29819Y40236I26J195*
X29622Y40433I197*
X29425Y40236J197*
G01Y40928*
G03X29493Y41077I129J149*
X29296Y41273I197*
X29099Y41077J196*
G01Y52199*
X29682*
Y40648*
G03X29879Y40451I197*
X30043Y40538J197*
G01Y40236*
G03X30197Y40044I196*
G01Y38469*
G03X30335Y38281I197*
G01Y37016*
G03X30723Y36551I473*
G01Y36018*
G03X30920Y35821I197*
X31117Y36018J197*
X30920Y36215I197*
X30723Y36018J197*
G01Y36551*
G03X30808Y36544I85J465*
X31280Y37016J472*
X30808Y37488I472*
X30335Y37016J472*
G01Y38281*
G03X30394Y38272I59J188*
X30591Y38469J197*
X30394Y38665I197*
X30197Y38469J196*
G01Y39069*
G03X30394Y38872I197*
X30591Y39069J197*
X30394Y39266I197*
X30197Y39069J197*
G01Y40044*
G03X30239Y40039I42J192*
X30436Y40236J197*
X30239Y40433I197*
X30043Y40236J197*
G01Y40538*
G03X30076Y40648I164J110*
X29879Y40845I197*
X29682Y40648J197*
G01Y52199*
X30486*
Y46799*
G03X30682Y46602I196*
X30746Y46613J197*
G01Y38795*
G03X30763Y38714I197*
G01Y38057*
G03X30960Y37860I197*
X31157Y38057J197*
X30960Y38254I197*
X30763Y38057J197*
G01Y38714*
G03X30943Y38598I180J81*
X31140Y38795J197*
X30943Y38991I197*
X30746Y38795J196*
G01Y46613*
G03X30851Y46698I64J186*
G01Y46450*
G03X31048Y46253I197*
X31245Y46450J197*
X31048Y46647I197*
X30851Y46450J197*
G01Y46698*
G03X30879Y46799I169J101*
X30682Y46996I197*
X30486Y46799J197*
G01Y52199*
X31217*
Y46799*
G03X31414Y46602I197*
X31583Y46698J197*
G01Y46450*
G03X31584Y46435I197*
G01Y37016*
G03X32056Y36544I472*
X32528Y37016J472*
X32056Y37488I472*
X31584Y37016J472*
G01Y46435*
G03X31780Y46253I196J15*
X31977Y46450J197*
X31780Y46647I197*
X31583Y46450J197*
G01Y46698*
G03X31611Y46799I169J101*
X31414Y46996I197*
X31217Y46799J197*
G01Y52199*
X31949*
Y46799*
G03X32146Y46602I197*
X32315Y46698J197*
G01Y46450*
G03X32511Y46253I196*
X32708Y46450J197*
X32511Y46647I197*
X32315Y46450J197*
G01Y46698*
G03X32342Y46799I169J101*
X32146Y46996I196*
X31949Y46799J197*
G01Y52199*
X32680*
Y46799*
G03X32877Y46602I197*
X33046Y46698J197*
G01Y46450*
G03X33243Y46253I197*
X33440Y46450J197*
X33243Y46647I197*
X33046Y46450J197*
G01Y46698*
G03X33074Y46799I169J101*
X32877Y46996I197*
X32680Y46799J197*
G01Y52199*
X33412*
Y46799*
G03X33609Y46602I197*
X33778Y46698J197*
G01Y46452*
G03X33975Y46255I197*
X34172Y46452J197*
X33975Y46649I197*
X33778Y46452J197*
G01Y46698*
G03X33806Y46799I169J101*
X33609Y46996I197*
X33412Y46799J197*
G01Y52199*
X34144*
Y46800*
G03X34340Y46603I196*
X34509Y46699J197*
G01Y46452*
G03X34706Y46255I197*
X34903Y46452J197*
X34706Y46649I197*
X34509Y46452J197*
G01Y46699*
G03X34537Y46800I169J101*
X34340Y46996I197*
X34144Y46800J196*
G01Y52199*
X34875*
Y46800*
G03X35072Y46603I197*
X35269Y46800J197*
X35072Y46996I197*
X34875Y46800J196*
G01Y52199*
X43668*
G02X43698Y52169J30*
X43680Y52142I30*
G03X43560Y51961I77J181*
X43757Y51764I197*
X43953Y51961J197*
X43834Y52142I196*
G02X43816Y52169I11J27*
X43845Y52199I29*
G01X53123*
G03X53304Y52274J256*
G01X53874Y52844*
G03X53949Y53025I181J181*
G01Y54668*
G02X53958Y54689I29*
G01X54414Y55145*
G02X54435Y55154I21J21*
G01X55137*
G02X55166Y55124J30*
X55152Y55099I29*
G01X54740Y54844*
G03X54684Y54744I62J100*
G01X54671Y51759*
Y51758*
G03X54740Y51651I118*
G01X54788Y51629*
G02X54805Y51602I12J27*
X54776Y51572I29*
G01X42806*
G03X42485Y51440J452*
G01X41484Y50438*
G03X41468Y50422I320J320*
G01X41467Y50420*
X41366Y50320*
G02X41345Y50311I21J20*
G01X40733*
G02X40722Y50313J29*
G03X39370Y50561I1352J3561*
X35561Y46752J3809*
Y46719I3809*
G01Y46718*
G02X35553Y46698I29*
G01X33902Y45047*
G02X33900Y45046I21J21*
G03X33836Y44986I813J937*
G01X33081Y44231*
G03X32718Y43354I877J877*
G01Y36145*
G02X32709Y36124I30*
G01X31462Y34877*
G02X31441Y34869I21J21*
G01X26029*
G03X25152Y34505J1241*
G01X23683Y33036*
G03X23320Y32159I877J877*
G01Y30263*
G02X23290Y30233I30*
X23285Y30234J30*
G03X23113Y30248I172J1029*
G01X19749*
G03X19011Y29943J1043*
G01X17574Y28506*
G03X17269Y27768I738J738*
X18312Y26725I1043*
X19050Y27030J1043*
G01X20172Y28153*
G02X20193Y28162I21J21*
G01X20360*
G02X20389Y28132J30*
X20383Y28114I29*
G03X20261Y27768I429J346*
X20812Y27217I551*
X20863Y27219J551*
G01Y20098*
G03X22638Y18324I1775*
X24413Y20098J1774*
X22638Y21873I1775*
X20863Y20098J1775*
G01Y27219*
G03X21363Y27768I51J549*
X21241Y28114I551*
G02X21235Y28132I23J18*
X21264Y28162I29*
G01X22668*
G02X22689Y28153J30*
G01X23345Y27497*
G02X23353Y27483I21J21*
G03X24560Y26528I1207J285*
X25770Y27496J1240*
G02X25778Y27510I29J6*
G01X25784Y27517*
Y17736*
G03X27559Y15961I1775*
X29334Y17736J1775*
X27559Y19511I1775*
X25784Y17736J1775*
G01Y27517*
X26420Y28153*
G02X26441Y28162I21J21*
G01X26608*
G02X26637Y28132J30*
X26631Y28114I29*
G03X26509Y27768I429J346*
X27060Y27217I551*
X27611Y27768J551*
X27489Y28114I551*
G02X27483Y28132I23J18*
X27512Y28162I29*
G01X28927*
G02X28947Y28153J30*
G01X29881Y27219*
G03X30619Y26914I738J738*
X31191Y27084J1043*
G01Y20197*
G03X31217Y20134I89*
G01X31289Y20062*
G02X31297Y20041I21J21*
X31296Y20034I29*
G03X31289Y19980I200J54*
X31496Y19774I207*
X31703Y19980J206*
X31496Y20187I207*
X31443Y20180J207*
G02X31435Y20179I8J28*
X31414Y20188J29*
G01X31377Y20225*
G02X31368Y20246I21J21*
G01Y20947*
G02X31398Y20976I30*
X31410Y20974J29*
G03X31496Y20955I86J187*
X31703Y21161J206*
X31696Y21215I207*
G02X31695Y21223I28J8*
X31703Y21243I29*
G01X31859Y21399*
G02X31880Y21407I21J21*
G01X32420*
G02X32450Y21378J29*
X32441Y21357I30*
G01X32398Y21314*
G03X32372Y21251I63J63*
G01Y20197*
G03X32398Y20134I89*
G01X32470Y20062*
G02X32479Y20041I21J21*
X32478Y20034I30*
G03X32470Y19980I199J54*
X32677Y19774I207*
X32884Y19980J206*
X32677Y20187I207*
X32624Y20180J207*
G02X32616Y20179I8J28*
X32595Y20188J29*
G01X32558Y20225*
G02X32549Y20246I21J21*
G01Y20947*
G02X32579Y20976I30*
X32591Y20974J29*
G03X32677Y20955I86J187*
X32731Y20962J206*
G02X32738Y20963I7J29*
X32759Y20954J30*
G01X33331Y20382*
G03X33394Y20356I63J63*
G01X34339*
G02X34364Y20342J29*
G03X34429Y20277I168J103*
G02X34443Y20252I15J25*
G01Y16489*
G02X34414Y16460I29*
X34408J29*
G03X34370Y16464I38J193*
X34173Y16267J197*
X34370Y16070I197*
X34567Y16267J197*
X34561Y16313I197*
G02Y16320I29J7*
X34569Y16341I29*
G01X34594Y16366*
G03X34620Y16429I62J63*
G01Y18649*
G02X34650Y18679I30*
G01X34651*
G02X34680Y18657J30*
G03X34870Y18511I190J51*
X35067Y18708J197*
X34973Y18876I197*
G02X34959Y18901I15J25*
G01Y18920*
G03X34933Y18983I89*
G01X34866Y19049*
G02X34857Y19070I21J21*
G01Y20015*
G02X34871Y20040I30*
G01X34872Y20041*
G02X34887Y20045I15J26*
X34917Y20015J30*
G01Y19127*
G03X34942Y19064I88*
G01X35273Y18734*
G02X35281Y18713I21J21*
G01Y16460*
G02X35267Y16435I29*
G03X35173Y16267I103J168*
X35370Y16070I197*
X35567Y16267J197*
X35473Y16435I197*
G02X35459Y16460I15J25*
G01Y18762*
G03X35433Y18825I89*
G01X35102Y19155*
G02X35094Y19176I21J21*
G01Y20015*
G02X35123Y20045I29*
X35139Y20041J30*
G01Y20040*
G02X35153Y20015I15J25*
G01Y19336*
G03X35179Y19274I89*
G01X35671Y18782*
G02X35679Y18761I21J21*
Y18754I29*
G03X35673Y18708I191J46*
X35870Y18511I197*
X36067Y18708J197*
X35870Y18905I197*
X35824Y18899J197*
G02X35817I7J29*
X35796Y18907J29*
G01X35339Y19364*
G02X35330Y19385I21J21*
G01Y20015*
G02X35344Y20040I30*
G03X35439Y20208I102J168*
X35344Y20376I197*
G02X35330Y20401I16J25*
G01Y20501*
G03X35304Y20563I88*
G01X34191Y21677*
G03X34128Y21703I63J63*
G01X31643*
G03X31580Y21677J89*
G01X31217Y21314*
G03X31191Y21251I63J63*
G01Y27084*
G03X31581Y27553I572J873*
G02X31608Y27571I27J12*
X31634Y27555J30*
G03X31945Y27309I422J213*
G02X31967Y27280I7J29*
G01Y26039*
G02X31959Y26018I29*
G03X31934Y25957I63J61*
G01Y24649*
G02X31919Y24624I30*
G03X31816Y24445I103J179*
X32022Y24238I206*
X32229Y24445J207*
X32126Y24624I207*
G02X32111Y24649I15J25*
G01Y25908*
G02X32119Y25928I30*
G03X32145Y25990I63J62*
G01Y27280*
G02X32167Y27309I29*
G03X32528Y27768I111J459*
X32056Y28240I472*
X31704Y28083J472*
G02X31682Y28073I22J20*
X31653Y28099J30*
G03X31357Y28695I1034J142*
G01X30109Y29943*
G03X29371Y30248I738J738*
G01X25997*
G03X25834Y30236J1043*
G02X25830Y30235I4J29*
X25800Y30265J30*
G01Y31633*
G02X25809Y31654I30*
G01X26534Y32380*
G02X26555Y32388I21J21*
G01X31967*
G03X32844Y32751J1240*
G01X34835Y34742*
G03X35198Y35619I877J877*
G01Y42828*
G02X35207Y42849I30*
G01X35590Y43232*
G03X35636Y43280I877J877*
G01X35637Y43281*
X35721Y43366*
Y29259*
G03X35739Y29176I207*
G01Y28419*
G03X35940Y28212I207*
G01Y27434*
G03X36147Y27227I207*
X36354Y27434J207*
X36147Y27641I207*
X35940Y27434J207*
G01Y28212*
G03X35946I6J207*
X36152Y28419J207*
X35946Y28625I206*
X35739Y28419J206*
G01Y29176*
G03X35928Y29052I189J83*
X36135Y29259J207*
X35928Y29466I207*
X35721Y29259J207*
G01Y43366*
X35873Y43518*
G02X35894Y43526I21J21*
G01X35982*
Y30125*
G03X36178Y29928I196*
X36375Y30125J197*
X36178Y30322I197*
X35982Y30125J197*
G01Y30855*
G03X36178Y30658I196*
X36330Y30729J197*
G01Y30490*
G03X36527Y30293I197*
X36724Y30490J197*
X36527Y30687I197*
X36330Y30490J197*
G01Y30729*
G03X36375Y30855I152J126*
X36178Y31051I197*
X35982Y30855J196*
G01Y31584*
G03X36178Y31387I196*
X36330Y31459J197*
G01Y31219*
G03X36527Y31023I197*
X36724Y31219J196*
X36527Y31416I197*
X36330Y31219J197*
G01Y31459*
G03X36375Y31584I152J125*
X36178Y31781I197*
X35982Y31584J197*
G01Y32314*
G03X36178Y32117I196*
X36330Y32188J197*
G01Y31949*
G03X36527Y31752I197*
X36724Y31949J197*
X36527Y32146I197*
X36330Y31949J197*
G01Y32188*
G03X36375Y32314I152J126*
X36178Y32511I197*
X35982Y32314J197*
G01Y33043*
G03X36178Y32846I196*
X36330Y32918J197*
G01Y32678*
G03X36527Y32482I197*
X36724Y32678J196*
X36527Y32875I197*
X36330Y32678J197*
G01Y32918*
G03X36375Y33043I152J125*
X36178Y33240I197*
X35982Y33043J197*
G01Y33773*
G03X36178Y33576I196*
X36330Y33647J197*
G01Y33408*
G03X36527Y33211I197*
X36724Y33408J197*
X36527Y33605I197*
X36330Y33408J197*
G01Y33647*
G03X36375Y33773I152J126*
X36178Y33970I197*
X35982Y33773J197*
G01Y34506*
G03X36178Y34309I196*
X36330Y34380J197*
G01Y34140*
G03X36527Y33943I197*
X36724Y34140J197*
X36527Y34337I197*
X36330Y34140J197*
G01Y34380*
G03X36375Y34506I152J126*
X36178Y34703I197*
X35982Y34506J197*
G01Y43526*
X36490*
Y40687*
G03X36499Y40655I59*
G02X36503Y40647I24J17*
G03X36554Y40596I75J24*
G02X36561Y40593I9J28*
G03X36594Y40582I33J48*
G01X36996*
Y40107*
G03X37055Y40048I59*
G01X37212*
G03X37272Y40107J59*
G01Y40383*
G03X37212Y40442I60*
G01X37055*
G03X36996Y40383J59*
G01Y40582*
X37299*
G02X37320Y40574J29*
G01X37352Y40542*
G02X37360Y40521I21J21*
G01Y40358*
G02X37357Y40343I29*
G03X37331Y40245I170J98*
X37357Y40147I196*
G02X37360Y40133I26J14*
G01Y40103*
G03X37378Y40061I60*
G01X37403Y40036*
G03X37445Y40019I42J42*
G01X37605*
G03X37646Y40036J59*
G01X37678Y40067*
G03X37695Y40109I42J42*
G01Y40134*
G02X37699Y40148I30*
G03X37724Y40245I172J97*
X37699Y40342I197*
G02X37695Y40356I26J14*
G01Y40534*
G02X37704Y40555I30*
G01X37723Y40574*
G02X37744Y40582I21J21*
G01X37845*
G03X37887Y40600J59*
G01X37970Y40683*
G02X37990Y40691I20J21*
G01X38468*
G02X38489Y40683J29*
G01X38760Y40411*
G02X38769Y40390I21J21*
X38765Y40375I30*
G03X38749Y40316I102J59*
G01Y38831*
G02X38719Y38801I30*
G01X38587*
G03X38528Y38742J59*
G01Y38467*
G03X38587Y38408I59*
G01X38719*
G02X38749Y38378J30*
G01Y38359*
G02X38719Y38329I30*
G01X38587*
G03X38528Y38270J59*
G01Y37994*
G03X38587Y37935I59*
G01X38719*
G02X38749Y37906J29*
G01Y37226*
G02X38719Y37196I30*
G01X38587*
G03X38528Y37137J59*
G01Y36861*
G03X38587Y36802I59*
G01X38719*
G02X38749Y36773J29*
G01Y36080*
G02X38719Y36050I30*
G01X38587*
G03X38528Y35991J59*
G01Y35715*
G03X38587Y35656I59*
G01X38719*
G02X38749Y35627J29*
G01Y35607*
G02X38719Y35578I30*
G01X38587*
G03X38528Y35518J60*
G01Y35243*
G03X38587Y35184I59*
G01X38719*
G02X38749Y35154J30*
G01Y34273*
G02X38719Y34243I30*
G01X38587*
G03X38528Y34184J59*
G01Y33909*
G03X38587Y33850I59*
G01X38719*
G02X38749Y33820J30*
G01Y32895*
G02X38719Y32866I30*
G01X38587*
G03X38528Y32807J59*
G01Y32531*
G03X38587Y32472I59*
G01X38719*
G02X38749Y32442J30*
G01Y31909*
G02X38719Y31880I30*
G01X38587*
G03X38528Y31821J59*
G01Y31545*
G03X38587Y31486I59*
G01X38719*
G02X38749Y31457J29*
G01Y31319*
G02X38719Y31289I30*
G01X38587*
G03X38528Y31230J59*
G01Y30955*
G03X38587Y30896I59*
G01X38719*
G02X38749Y30866J30*
G01Y30334*
G02X38719Y30305I30*
G01X38587*
G03X38528Y30246J59*
G01Y29970*
G03X38587Y29911I59*
G01X38719*
G02X38749Y29881J30*
G01Y29548*
G02X38719Y29518I30*
G01X38587*
G03X38528Y29459J59*
G01Y29183*
G03X38587Y29124I59*
G01X38719*
G02X38749Y29095J29*
G01Y28765*
G02X38740Y28744I30*
G01X38480Y28484*
G02X38459Y28476I21J21*
G01X38194*
G03X38124Y28433J79*
G02X38097Y28416I27J13*
G01X38056*
G03X37966Y28383J137*
G02X37947Y28376I19J22*
X37917Y28405J29*
G01Y28407*
G03X37838Y28485I79*
G01X36579*
G03X36500Y28407J78*
G01Y27954*
G03X36519Y27902I79*
G01Y26891*
G03X36556Y26836I60*
G01Y26420*
G03X36762Y26214I206*
X36969Y26420J206*
X36762Y26627I207*
X36556Y26420J207*
G01Y26836*
G03X36579Y26832I23J55*
G01X37838*
G03X37897Y26891J59*
G01Y27344*
G03X37838Y27403I59*
G01X36579*
G03X36519Y27344J59*
G01Y27902*
G03X36579Y27875I60J52*
G01X37838*
G03X37917Y27954J79*
G01Y28013*
G02X37947Y28042I30*
G01X37976*
G03X38074Y28083J138*
G01X38096Y28105*
G02X38115Y28114I21J21*
G01Y27609*
G03X38194Y27531I79*
G01X38587*
G03X38666Y27609J78*
G02X38696Y27639I30*
G01X38782*
G02X38809Y27620J30*
G03X38883Y27570I74J29*
G01X38893*
G02X38910Y27565J30*
G03X39021Y27531I111J162*
X39131Y27565J196*
G02X39148Y27570I17J25*
G01X39158*
G03X39237Y27649J79*
G01Y27806*
G03X39158Y27885I79*
G01X39148*
G02X39131Y27890J29*
G03X39021Y27924I110J163*
X38910Y27890J197*
G02X38893Y27885I17J24*
G01X38883*
G03X38809Y27835J79*
G02X38782Y27816I27J11*
G01X38696*
G02X38666Y27846J30*
G03X38587Y27924I79*
G01X38194*
G03X38115Y27846J78*
G01Y28114*
X38117*
G02X38138Y28105J30*
G03X38194Y28082I56J56*
G01X38587*
G03X38666Y28161J79*
G01Y28268*
G02X38675Y28289I30*
G01X38894Y28508*
G02X38914Y28517I20J21*
X38935Y28508J30*
G01X39134Y28309*
G02X39143Y28288I21J21*
X39113Y28259I30*
G01X38883*
G03X38824Y28200J59*
G01Y28042*
G03X38883Y27983I59*
G01X39158*
G03X39217Y28042J59*
G01Y28155*
G02X39247Y28184I30*
X39268Y28176J29*
G01X39328Y28115*
G03X39396Y28082I84J84*
G02X39422Y28052I3J30*
G01Y27949*
G03X39481Y27890I59*
G01X39757*
G03X39816Y27949J59*
G01Y28051*
G02X39845Y28081I29*
G01X39865*
G02X39895Y28051J30*
G01Y27949*
G03X39954Y27890I59*
G01X40229*
G03X40288Y27949J59*
G01Y28051*
G02X40318Y28081I30*
G01X40337*
G02X40367Y28051J30*
G01Y27949*
G03X40426Y27890I59*
G01X40702*
G03X40761Y27949J59*
G01Y28051*
G02X40790Y28081I29*
G01X40926*
G02X40956Y28051J30*
G01Y27949*
G03X41015Y27890I59*
G01X41290*
G03X41340Y27917J59*
G01Y26712*
G03X41537Y26515I197*
X41734Y26712J197*
X41537Y26908I197*
X41340Y26712J196*
G01Y27917*
G03X41349Y27949I50J32*
G01Y28051*
G02X41379Y28081I30*
G01X41915*
G02X41944Y28051J30*
G01Y27949*
G03X42003Y27890I59*
G01X42279*
G03X42338Y27949J59*
G01Y28051*
G02X42367Y28081I29*
G01X42699*
G02X42729Y28051J30*
G01Y27949*
G03X42788Y27890I59*
G01X43063*
G03X43122Y27949J59*
G01Y28051*
G02X43152Y28081I30*
G01X45265*
G02X45294Y28051J30*
G01Y27078*
G02X45265Y27049I29*
X45253Y27051J29*
G03X45176Y27067I77J181*
X44979Y26870J197*
Y26861I197*
G01Y26859*
G02X44950Y26830I29*
G01X44948*
G03X44939I9J197*
X44930J197*
G01X44929*
G02X44899Y26859J29*
G01Y26861*
G03X44900Y26870I196J9*
X44703Y27067I197*
X44506Y26870J197*
Y26861I197*
G01Y26859*
G02X44477Y26830I29*
G01X44475*
G03X44466I9J197*
X44269Y26633J197*
X44349Y26475I197*
G02X44361Y26451I17J24*
X44353Y26430I29*
G01X43667Y25745*
G02X43646Y25736I21J21*
G01X41867*
G02X41842Y25750J30*
G03X41674Y25844I168J103*
X41506Y25750J197*
G02X41481Y25736I25J16*
G01X41193*
G03X41131Y25710J89*
G01X40095Y24674*
G03X40069Y24612I62J62*
G01Y24516*
G02X40054Y24490I30*
G03X39951Y24311I103J179*
X40123Y24107I206*
G02X40148Y24078I4J29*
X40139Y24057I29*
G01X40095Y24013*
G03X40069Y23950I62J63*
G01Y23334*
G02X40054Y23309I30*
G03X39951Y23130I103J179*
X40157Y22923I206*
X40364Y23130J207*
X40261Y23309I207*
G02X40246Y23334I15J25*
G01Y23901*
G02X40255Y23922I30*
G01X41443Y25110*
G02X41464Y25119I21J21*
X41492Y25101J30*
G03X41571Y25006I182J73*
G02X41585Y24981I15J25*
G01Y24964*
G02X41577Y24943I29*
G01X41276Y24642*
G03X41250Y24580I63J62*
G01Y24516*
G02X41235Y24490I30*
G03X41132Y24311I104J179*
X41339Y24104I207*
X41545Y24311J207*
X41442Y24490I206*
G02X41427Y24516I15J26*
G01Y24531*
G02X41436Y24551I30*
G01X41708Y24824*
G02X41729Y24832I21J21*
X41753Y24820J29*
G03X41808Y24770I158J118*
G02X41822Y24744I15J26*
G01Y23751*
G02X41813Y23730I29*
G01X41421Y23337*
G02X41400Y23329I21J21*
X41392Y23330J29*
G03X41339Y23337I53J200*
X41132Y23130J207*
X41339Y22923I207*
X41545Y23130J207*
X41538Y23183I206*
G02X41537Y23191I29J8*
X41546Y23212I30*
G01X41973Y23639*
G03X41999Y23702I62J63*
G01Y24744*
G02X42013Y24770I30*
G03X42079Y24835I102J168*
G02X42104Y24849I25J16*
G01X43672*
G02X43701Y24819J30*
X43693Y24799I29*
G01X39136Y20242*
G03X39111Y20180I63J62*
G01Y1576*
G02X39100Y1553I30*
G03X39071Y1493I50J60*
G01Y666*
G03X39150Y587I79*
G01X39248*
G03X39298Y605J79*
G02X39317Y612I19J23*
X39327Y610J30*
G03X39347Y607I20J56*
G01X39445*
G03X39465Y610J59*
G02X39475Y612I10J28*
X39494Y605J30*
G03X39544Y587I50J61*
G01X39642*
G03X39721Y666J79*
G01Y942*
G03X39642Y1020I79*
G01X39544*
G03X39494Y1002J78*
G02X39475Y996I19J23*
X39465Y997J29*
G03X39445Y1001I20J55*
G01X39347*
G03X39327Y997J59*
G02X39317Y996I10J28*
X39298Y1002J29*
G03X39248Y1020I50J60*
G01X39150*
G03X39071Y942J78*
G01Y1217*
G03X39150Y1138I79*
G01X39248*
G03X39284Y1147J79*
G02X39298Y1150I14J26*
X39311Y1147J29*
G03X39347Y1138I36J70*
G01X39445*
G03X39481Y1147J79*
G02X39494Y1150I13J26*
X39508Y1147J29*
G03X39544Y1138I36J70*
G01X39642*
G03X39721Y1217J79*
G01Y1493*
G03X39642Y1571I79*
G01X39544*
G03X39522Y1568J78*
G02X39514Y1567I8J29*
X39485Y1597J30*
G01Y19925*
G02X39493Y19946I29*
G01X43274Y23727*
Y17507*
G03X43691Y17091I417*
X44107Y17507J416*
X43691Y17924I416*
X43274Y17507J417*
G01Y23727*
X43377Y23829*
G02X43385Y23835I21J20*
G03X43409Y23852I39J80*
G01X43418Y23862*
G02X43439Y23870I21J21*
X43446Y23869J29*
G03X43492Y23864I46J192*
X43689Y24061J197*
X43492Y24258I197*
X43475Y24257J197*
G02X43473I2J29*
X43443Y24286J29*
X43452Y24307I30*
G01X45283Y26138*
Y16581*
G03X45489Y16375I206*
X45696Y16581J206*
X45489Y16788I207*
X45283Y16581J207*
G01Y26138*
X45445Y26301*
G03X45471Y26363I62J62*
G01Y28051*
G02X45501Y28081I30*
G01X45550*
Y25661*
G03X45747Y25464I197*
X45944Y25661J197*
X45747Y25858I197*
X45550Y25661J197*
G01Y28081*
X45848*
G02X45877Y28051J30*
G01Y27949*
G03X45937Y27890I60*
G01X46212*
G03X46271Y27949J59*
G01Y28051*
G02X46301Y28081I30*
G01X46306*
G02X46336Y28051J30*
G01Y27577*
G02X46327Y27557I30*
G01X46078Y27307*
G03X46003Y27126I181J181*
G01Y22998*
G02X46002Y22991I29*
G03X45995Y22932I249J59*
G01Y22608*
G03X46002Y22550I256*
G02X46003Y22543I28J7*
G01Y22275*
G03X46153Y22042I256*
G02X46170Y22015I12J27*
G01Y18956*
G03X46196Y18893I89*
G01X47238Y17852*
Y14555*
G03X47445Y14348I207*
X47651Y14555J207*
X47445Y14762I206*
X47238Y14555J207*
G01Y17852*
X49468Y15621*
G03X49531Y15595I63J63*
G01X49826*
G02X49851Y15581J29*
G03X50019Y15487I168J103*
X50216Y15684J197*
X50019Y15881I197*
X49851Y15787J197*
G02X49826Y15772I25J15*
G01X49580*
G02X49559Y15781J30*
G01X46356Y18984*
G02X46348Y19005I21J21*
G01Y22015*
G02X46365Y22042I29*
G03X46515Y22275I106J233*
G01Y22601*
G03X46508Y22660I256*
G02X46507Y22667I29J7*
G01Y22874*
G02X46508Y22881I30*
G03X46515Y22940I249J59*
G01Y27008*
G02X46524Y27029I29*
G01X46761Y27267*
Y26892*
G03X46829Y26743I197*
G01Y22244*
G03X47036Y22037I207*
X47242Y22244J207*
X47036Y22450I206*
X46829Y22244J206*
G01Y26743*
G03X46958Y26695I129J149*
X47155Y26892J197*
X46958Y27089I197*
X46761Y26892J197*
G01Y27267*
X46773Y27278*
G03X46848Y27459I181J181*
G01Y27871*
G02X46877Y27901I29*
X46892Y27897J30*
G03X46921Y27890I29J52*
G01X47196*
G03X47255Y27949J59*
G01Y28051*
G02X47285Y28081I30*
G01X48055*
Y27156*
G03X48150Y26988I197*
G02X48164Y26962I16J26*
G01Y26766*
G03X48190Y26704I88*
G01X48878Y26016*
G02X48886Y25995I21J21*
G01Y25301*
G02X48881Y25284I29*
G03X48863Y25231I71J53*
G01Y25190*
G02X48855Y25169I29*
G01X48847Y25161*
G02X48826Y25153I21J21*
X48819Y25154J29*
G03X48773Y25159I46J192*
X48576Y24962J197*
X48773Y24765I197*
X48970Y24962J197*
X48965Y25008I197*
G02X48964Y25015I28J7*
X48972Y25036I29*
G01X49014Y25078*
G03X49040Y25141I62J63*
G01Y25184*
G02X49046Y25201I30*
G03X49064Y25254I71J53*
G01Y26044*
G03X49038Y26106I89*
G01X48350Y26794*
G02X48341Y26815I20J21*
G01Y26962*
G02X48355Y26988I29*
G03X48449Y27156I103J168*
X48252Y27352I197*
X48055Y27156J196*
G01Y28081*
X48210*
G02X48240Y28051J30*
G01Y27949*
G03X48299Y27890I59*
G01X48574*
G03X48633Y27949J59*
G01Y28051*
G02X48663Y28081I30*
G01X48909*
G02X48939Y28051J30*
G01Y27259*
G03X48964Y27196I88*
G01X49727Y26434*
G02X49736Y26413I21J21*
G01Y26368*
G03X49762Y26305I88*
G01X49771Y26296*
G02X49780Y26275I21J21*
X49779Y26268I30*
G03X49774Y26222I191J46*
X49970Y26025I196*
X50167Y26222J197*
X49970Y26419I197*
X49946Y26417J197*
G02X49942I4J30*
X49913Y26447J30*
G01Y26462*
G03X49887Y26525I89*
G01X49124Y27287*
G02X49116Y27308I21J21*
G01Y28051*
G02X49145Y28081I29*
G01X49391*
G02X49421Y28051J30*
G01Y27949*
G03X49480Y27890I59*
G01X49755*
G03X49815Y27949J59*
G01Y28051*
G02X49844Y28081I29*
G01X50211*
G02X50240Y28051J30*
G01Y27960*
G03X50266Y27898I89*
G01X51607Y26557*
G03X51669Y26531I62J63*
G01X52030*
G02X52055Y26517J29*
G03X52223Y26423I168J103*
X52420Y26620J197*
X52223Y26817I197*
X52055Y26723J197*
G02X52030Y26709I25J15*
G01X51718*
G02X51697Y26717J29*
G01X50575Y27839*
G02X50567Y27860I21J21*
X50596Y27890I29*
G01X50741*
G03X50800Y27949J59*
G01Y28051*
G02X50830Y28081I30*
G01X50876*
G02X50905Y28051J30*
G01Y27811*
G03X50931Y27748I89*
G01X51014Y27665*
G03X51077Y27639I63J63*
G01X51116*
G02X51144Y27620J29*
G03X51217Y27570I73J29*
G01X51493*
G03X51566Y27620J79*
G02X51594Y27639I28J10*
G01X51680*
G02X51709Y27610J29*
G03X51788Y27531I79*
G01X52182*
G03X52260Y27610J79*
G01Y27846*
G03X52182Y27925I78*
G01X51788*
G03X51709Y27846J79*
G02X51680Y27816I29*
G01X51594*
G02X51566Y27835J30*
G03X51493Y27885I73J29*
G01X51217*
G03X51146Y27840J79*
G02X51119Y27823I27J12*
X51098Y27832J29*
G01X51091Y27839*
G02X51082Y27860I21J21*
G01Y28086*
G02X51093Y28108I30*
G03X51100Y28115I77J91*
G01X51108Y28123*
G02X51128Y28132I20J21*
X51158Y28102J30*
G01Y28043*
G03X51217Y27984I59*
G01X51493*
G03X51552Y28043J59*
G01Y28127*
G02X51581Y28156I29*
X51593Y28153J29*
G03X51650Y28141I57J126*
G01X51691*
G02X51718Y28125J29*
G03X51788Y28082I70J36*
G01X52182*
G03X52237Y28105J79*
G02X52258Y28114I21J21*
X52279Y28105J30*
G01X52301Y28083*
G03X52399Y28043I98J98*
G01X52428*
G02X52458Y28013J30*
G01Y27954*
G03X52477Y27902I78*
G01Y26891*
G03X52536Y26832I59*
G01X53796*
G03X53855Y26891J59*
G01Y27344*
G03X53796Y27403I59*
G01X52536*
G03X52477Y27344J59*
G01Y27902*
G03X52536Y27875I59J52*
G01X53796*
G03X53875Y27954J79*
G01Y28407*
G03X53796Y28486I79*
G01X52536*
G03X52458Y28407J79*
G01Y28406*
G02X52428Y28377I30*
X52409Y28384J29*
G03X52319Y28417I90J105*
G01X52278*
G02X52252Y28433J29*
G03X52182Y28476I70J36*
G01X51788*
G03X51760Y28471J79*
G02X51749Y28469I11J27*
X51728Y28477J29*
G01X51621Y28584*
G02X51613Y28605I21J21*
X51642Y28634I29*
G01X51788*
G03X51847Y28693J59*
G01Y28969*
G03X51788Y29028I59*
G01X51684*
G02X51655Y29058J30*
G01Y29077*
G02X51684Y29107I29*
G01X51788*
G03X51847Y29166J59*
G01Y29442*
G03X51788Y29501I59*
G01X51684*
G02X51655Y29530J29*
G01Y29550*
G02X51684Y29579I29*
G01X51788*
G03X51847Y29638J59*
G01Y29914*
G03X51836Y29949I59*
G02X51830Y29967I24J18*
X51860Y29996I30*
G01X52515*
Y29123*
G03X52712Y28926I197*
X52908Y29123J197*
X52712Y29320I196*
X52515Y29123J197*
G01Y29996*
X53973*
Y19626*
G03X55748Y17851I1775*
X57523Y19626J1775*
X55748Y21401I1775*
X53973Y19626J1775*
G01Y29996*
X58501*
Y23169*
G03X60276Y21394I1775*
X62050Y23169J1775*
X60276Y24944I1774*
X58501Y23169J1775*
G01Y29996*
X61516*
G03X61772Y30252J256*
X61516Y30508I256*
G01X51874*
G02X51845Y30537J29*
X51846Y30544I29*
G03X51847Y30559I58J15*
G01Y30834*
G03X51788Y30893I59*
G01X51684*
G02X51655Y30923J30*
G01Y31063*
G02X51684Y31093I29*
G01X51788*
G03X51847Y31152J59*
G01Y31427*
G03X51788Y31486I59*
G01X51684*
G02X51655Y31516J30*
G01Y31653*
G02X51684Y31683I29*
G01X51788*
G03X51847Y31742J59*
G01Y32018*
G03X51840Y32046I59*
G02X51836Y32060I26J14*
X51866Y32090I30*
G01X53052*
Y31092*
G03X53249Y30896I197*
X53445Y31092J196*
X53249Y31289I196*
X53052Y31092J197*
G01Y32090*
X62865*
Y30251*
G03X63071Y30044I206*
X63278Y30251J207*
X63071Y30458I207*
X62865Y30251J207*
G01Y32090*
X63012*
G02X63017Y32089J30*
G03X63068Y32084I51J251*
G01X63408*
G03X63664Y32340J256*
X63408Y32596I256*
G01X63125*
G02X63119J29*
G03X63068Y32602I51J250*
G01X51684*
G02X51655Y32631J29*
G01Y33230*
G02X51684Y33260I29*
G01X51788*
G03X51847Y33319J59*
G01Y33594*
G03X51788Y33653I59*
G01X51684*
G02X51655Y33683J30*
G01Y35395*
G02X51684Y35425I29*
G01X51788*
G03X51847Y35484J59*
G01Y35760*
G03X51788Y35819I59*
G01X51684*
G02X51655Y35848J29*
G01Y36357*
G02X51684Y36386I29*
G01X51788*
G03X51847Y36445J59*
G01Y36721*
G03X51788Y36780I59*
G01X51684*
G02X51655Y36809J29*
G01Y36968*
G02X51684Y36997I29*
G01X51788*
G03X51847Y37056J59*
G01Y37332*
G03X51788Y37391I59*
G01X51684*
G02X51655Y37421J30*
G01Y37756*
G02X51684Y37786I29*
G01X51788*
G03X51847Y37845J59*
G01Y38121*
G03X51788Y38180I59*
G01X51684*
G02X51655Y38209J29*
G01Y39135*
G02X51684Y39164I29*
G01X51788*
G03X51847Y39223J59*
G01Y39499*
G03X51788Y39558I59*
G01X51684*
G02X51655Y39587J29*
G01Y39923*
G02X51684Y39953I29*
G01X51788*
G03X51847Y40012J59*
G01Y40287*
G03X51788Y40346I59*
G01X51716*
G02X51686Y40376J30*
X51695Y40397I30*
G01X51766Y40468*
G02X51770Y40471I21J21*
G03X51788Y40486I80J113*
G01X51895Y40594*
G02X51916Y40602I21J21*
G01X52181*
G03X52251Y40645J79*
G02X52278Y40661I27J13*
G01X52319*
G03X52409Y40695J138*
G02X52428Y40702I19J23*
X52458Y40672J30*
G01Y40671*
G03X52537Y40592I79*
G01X52566*
Y34488*
G03X52614Y34359I197*
G02X52622Y34339I22J20*
X52615Y34320I30*
G03X52568Y34193I150J127*
X52589Y34104I197*
G01Y33187*
G03X52786Y32990I197*
X52983Y33187J197*
X52977Y33233I197*
G02X52976Y33240I29J7*
X52985Y33261I30*
G01X53039Y33315*
Y33141*
G03X53236Y32944I197*
X53433Y33141J197*
X53428Y33187I197*
G02X53427Y33194I28J7*
X53435Y33215I29*
G01X54486Y34266*
G03X54512Y34329I62J63*
G01Y47416*
G02X54521Y47437I30*
G01X54575Y47491*
Y34355*
G03X54601Y34292I89*
G01X55030Y33863*
G02X55039Y33842I21J21*
G01Y33680*
G02X55025Y33655I30*
G03X54931Y33487I103J168*
X55128Y33290I197*
X55324Y33487J197*
X55230Y33655I196*
G02X55216Y33680I16J25*
G01Y33891*
G03X55190Y33954I88*
G01X54761Y34383*
G02X54752Y34404I21J21*
G01Y47316*
G02X54761Y47337I30*
G01X54815Y47391*
Y34454*
G03X54841Y34392I89*
G01X55379Y33854*
G02X55387Y33833I21J21*
G01Y33331*
G02X55373Y33306I29*
G03X55279Y33138I103J168*
X55476Y32941I197*
X55673Y33138J197*
X55579Y33306I197*
G02X55565Y33331I15J25*
G01Y33882*
G03X55539Y33945I89*
G01X55001Y34482*
G02X54993Y34503I21J21*
G01Y47217*
G02X55001Y47238I29*
G01X56007Y48243*
G02X56028Y48252I21J21*
G01X56806*
G02X56823Y48247J30*
G03X56856Y48233I45J64*
G01X57536Y48128*
G02X57561Y48098I4J30*
X57557Y48082I29*
G03X57537Y48018I99J64*
G01Y47663*
G03X57656Y47545I119*
G01X58010*
G03X58078Y47567J118*
G02X58095Y47573I17J24*
X58124Y47548J30*
G01X58162Y47336*
G02Y47331I29J5*
X58154Y47310I29*
G01X58147Y47304*
G02X58126Y47295I21J21*
G01X55846*
G03X55783Y47269J89*
G01X55082Y46567*
G03X55056Y46505I62J62*
G01Y34554*
G03X55082Y34491I88*
G01X55727Y33845*
G02X55736Y33825I21J20*
G01Y33680*
G02X55722Y33655I30*
G03X55628Y33487I102J168*
X55824Y33290I196*
X56021Y33487J197*
X55927Y33655I197*
G02X55913Y33680I15J25*
G01Y33874*
G03X55887Y33936I89*
G01X55241Y34582*
G02X55233Y34603I21J21*
G01Y46456*
G02X55241Y46477I29*
G01X55296Y46531*
Y34653*
G03X55322Y34591I88*
G01X56076Y33837*
G02X56084Y33816I21J21*
G01Y33331*
G02X56070Y33306I29*
G03X55976Y33138I103J168*
X56173Y32941I197*
X56370Y33138J197*
X56275Y33306I197*
G02X56261Y33331I16J25*
G01Y33865*
G03X56235Y33927I88*
G01X55482Y34681*
G02X55473Y34702I20J21*
G01Y46356*
G02X55482Y46377I29*
G01X55973Y46869*
G02X55994Y46878I21J21*
G01X58358*
G03X58421Y46904J88*
G01X58755Y47237*
G02X58775Y47246I20J20*
G01X59129*
G02X59159Y47217J29*
G01Y47213*
G02X59129Y47183I30*
G01X58826*
G03X58763Y47157J89*
G01X58430Y46823*
G02X58409Y46815I21J21*
G01X56045*
G03X55982Y46789J89*
G01X55562Y46368*
G03X55536Y46306I62J62*
G01Y34753*
G03X55562Y34690I88*
G01X56424Y33828*
G02X56433Y33807I21J21*
G01Y33680*
G02X56419Y33655I30*
G03X56324Y33487I102J168*
X56521Y33290I197*
X56718Y33487J197*
X56624Y33655I197*
G02X56610Y33680I15J25*
G01Y33856*
G03X56584Y33919I89*
G01X55722Y34781*
G02X55713Y34802I21J21*
G01Y46257*
G02X55722Y46278I30*
G01X56073Y46629*
G02X56094Y46638I21J21*
G01X58458*
G03X58520Y46663J88*
G01X58854Y46997*
G02X58875Y47006I21J21*
G01X59587*
G03X59649Y47032J88*
G01X59948Y47330*
G02X59963Y47338I21J21*
G03X59989Y47348I13J78*
G01X60006Y47357*
G02X60021Y47361I15J25*
X60050Y47332J29*
X60041Y47311I29*
G01X59682Y46952*
G02X59661Y46943I21J20*
G01X58925*
G03X58863Y46917J89*
G01X58529Y46583*
G02X58508Y46575I21J21*
G01X56243*
G03X56181Y46549J89*
G01X55802Y46170*
G03X55776Y46107I63J63*
G01Y34852*
G03X55802Y34790I89*
G01X56772Y33819*
G02X56781Y33798I20J21*
G01Y33331*
G02X56767Y33306I29*
G03X56673Y33138I103J168*
X56870Y32941I197*
X57066Y33138J197*
X56972Y33306I196*
G02X56958Y33331I16J25*
G01Y33847*
G03X56932Y33910I88*
G01X55962Y34880*
G02X55953Y34901I21J21*
G01Y46058*
G02X55962Y46079I30*
G01X56016Y46134*
Y34952*
G03X56042Y34889I89*
G01X57121Y33810*
G02X57129Y33789I21J21*
G01Y33680*
G02X57115Y33655I29*
G03X57021Y33487I103J168*
X57218Y33290I197*
X57415Y33487J197*
X57321Y33655I197*
G02X57307Y33680I15J25*
G01Y33838*
G03X57281Y33901I89*
G01X56202Y34980*
G02X56193Y35001I21J21*
G01Y45818*
G02X56202Y45839I30*
G01X56256Y45894*
Y35051*
G03X56282Y34988I89*
G01X57469Y33802*
G02X57478Y33781I21J21*
G01Y33331*
G02X57464Y33306I30*
G03X57370Y33138I102J168*
X57566Y32941I196*
X57763Y33138J197*
X57669Y33306I197*
G02X57655Y33331I16J25*
G01Y33830*
G03X57629Y33892I89*
G01X56442Y35079*
G02X56434Y35100I21J21*
G01Y45578*
G02X56442Y45599I29*
G01X56752Y45908*
G02X56772Y45917I20J20*
G01X56837*
G02X56867Y45888J29*
X56849Y45860I30*
G03X56691Y45624I98J236*
X56947Y45368I256*
X57191Y45547J256*
G01Y44686*
G03X57266Y44505I256*
G01X57718Y44053*
Y33487*
G03X57915Y33290I197*
X58112Y33487J197*
X58018Y33655I197*
G02X58004Y33680I15J25*
G01Y34731*
G02X58012Y34752I29*
G01X64906Y41646*
G03X64932Y41708I63J62*
G01Y48381*
G03X64906Y48444I89*
G01X64458Y48892*
G03X64396Y48918I62J63*
G01X64075*
G02X64045Y48947J29*
G01Y48955*
G02X64075Y48985I30*
G01X64659*
G02X64680Y48976J30*
G01X65026Y48630*
G02X65035Y48609I20J21*
G01Y41565*
G02X65026Y41544I29*
G01X58201Y34718*
G03X58175Y34655I62J63*
G01Y33331*
G02X58161Y33306I30*
G03X58066Y33138I102J168*
X58263Y32941I197*
X58460Y33138J197*
X58366Y33306I197*
G02X58352Y33331I15J25*
G01Y34606*
G02X58361Y34627I29*
G01X58436Y34702*
Y33483*
G03X58632Y33286I196*
X58829Y33483J197*
X58735Y33651I197*
G02X58721Y33676I16J25*
G01Y33830*
G02X58722Y33836I30*
G03X58724Y33855I87J19*
G01Y34414*
G02X58732Y34434I29*
G01X66108Y41810*
G03X66134Y41872I63J62*
G01Y48323*
G03X66108Y48386I89*
G01X65117Y49376*
G03X65055Y49402I62J62*
G01X62288*
G03X62225Y49376J88*
G01X61851Y49003*
G02X61836Y48994I20J20*
G03X61775Y48943I13J77*
G01X61767Y48921*
G02X61763Y48913I28J10*
G03X61744Y48861I70J54*
G02X61742Y48852I29*
G01X61592Y48427*
Y48426*
G03X61577Y48341I241J85*
X61833Y48085I256*
X62089Y48341J256*
X62082Y48398I256*
G01X61976Y48857*
G02X61975Y48864I29J7*
X61984Y48884I30*
G01X62316Y49216*
G02X62337Y49225I21J20*
G01X65006*
G02X65027Y49216J29*
G01X65404Y48839*
Y47180*
G03X65433Y47078I197*
G01Y46094*
G03X65462Y45992I196*
G01Y45008*
G03X65658Y44811I196*
X65855Y45008J197*
X65658Y45205I197*
X65462Y45008J197*
G01Y45992*
G03X65629Y45897I167J102*
X65826Y46094J197*
X65629Y46291I197*
X65433Y46094J197*
G01Y47078*
G03X65601Y46984I168J102*
X65797Y47180J196*
X65601Y47377I196*
X65404Y47180J197*
G01Y48839*
X65433Y48810*
Y48151*
G03X65629Y47954I196*
X65826Y48151J197*
X65629Y48347I197*
X65433Y48151J196*
G01Y48810*
X65948Y48295*
G02X65957Y48274I21J21*
G01Y42731*
G02X65927Y42701I30*
X65900Y42720J30*
G03X65716Y42845I184J72*
X65520Y42648J197*
X65716Y42451I196*
X65900Y42576J197*
G02X65927Y42594I27J11*
X65957Y42565J29*
G01Y41921*
G02X65948Y41900I30*
G01X58573Y34525*
G03X58547Y34462I62J63*
G01Y33877*
G02X58546Y33871I30*
G03X58544Y33852I86J19*
G01Y33676*
G02X58530Y33651I30*
G03X58436Y33483I102J168*
G01Y34702*
X65186Y41453*
G03X65212Y41516I62J63*
G01Y44345*
G02X65242Y44374I30*
X65269Y44356J29*
G03X65418Y44234I183J72*
G01Y43647*
G03X65615Y43450I197*
X65812Y43647J197*
X65615Y43844I197*
X65418Y43647J197*
G01Y44234*
G03X65452Y44231I34J194*
X65649Y44428J197*
X65452Y44625I197*
X65269Y44500J197*
G02X65242Y44481I27J11*
X65212Y44511J30*
G01Y48658*
G03X65186Y48721I88*
G01X64771Y49136*
G03X64708Y49162I63J62*
G01X63044*
G03X62981Y49136J88*
G01X62849Y49004*
G02X62833Y48996I21J21*
G03X62772Y48944I13J78*
G01X62764Y48921*
G02X62760Y48913I28J9*
G03X62744Y48868I73J50*
G02X62743Y48860I29J2*
G01X62591Y48425*
G03X62577Y48341I242J84*
X62833Y48085I256*
X63089Y48341J256*
X63082Y48400I256*
G01X62973Y48858*
G02X62972Y48865I29J7*
X62981Y48886I30*
G01X63072Y48976*
G02X63092Y48985I20J21*
G01X63957*
G02X63986Y48955J30*
G01Y48939*
G02X63973Y48914I29*
G03X63955Y48897I43J66*
G01X63839Y48755*
G02X63837Y48753I23J19*
G01X63770Y48686*
G03X63747Y48645I63J63*
G02X63741Y48634I29J8*
G01X63634Y48502*
G03X63577Y48341I199J161*
X63833Y48085I256*
X64077Y48264J256*
G01Y47841*
G03X64333Y47585I256*
X64589Y47841J256*
X64333Y48096I256*
X64077Y47841J255*
G01Y48264*
G03X64088Y48318I244J77*
G01X64122Y48714*
G02X64152Y48741I30J3*
G01X64347*
G02X64368Y48732J30*
G01X64746Y48353*
G02X64755Y48332I21J21*
G01Y41757*
G02X64746Y41737I30*
G01X57852Y34843*
G03X57826Y34780I63J63*
G01Y33680*
G02X57812Y33655I29*
G03X57718Y33487I103J168*
G01Y44053*
X61095Y40676*
G03X61276Y40601I181J181*
G01X62394*
G03X62650Y40857J256*
X62394Y41113I256*
G01X61394*
G02X61373Y41121J29*
G01X57711Y44783*
G02X57703Y44804I21J21*
G01Y45124*
G03X57447Y45380I256*
X57191Y45124J256*
G01Y45547*
G03X57203Y45624I244J77*
X57045Y45860I256*
G02X57027Y45888I12J28*
X57057Y45917I30*
G01X57837*
G02X57867Y45888J29*
X57849Y45860I30*
G03X57691Y45624I98J236*
X57947Y45368I256*
X58191Y45547J256*
G01Y45124*
G03X58320Y44902I256*
G01X58790Y44631*
G03X58816Y44622I40J68*
G02X58832Y44614I5J29*
G01X58838Y44608*
G02X58842Y44602I21J21*
G03X58856Y44585I76J45*
G01X60883Y42558*
G02X60891Y42537I21J21*
G01Y42422*
G03X60917Y42360I89*
G01X61827Y41450*
G02X61835Y41429I21J21*
Y41422I29*
G03X61829Y41376I191J46*
X62026Y41179I197*
X62223Y41376J197*
X62026Y41573I197*
X61980Y41567J197*
G02X61973I7J29*
X61952Y41575J29*
G01X61077Y42450*
G02X61068Y42471I21J21*
G01Y42586*
G03X61043Y42649I88*
G01X58999Y44692*
G02X58994Y44698I21J21*
G03X58981Y44715I76J45*
G01X58957Y44739*
G02X58949Y44755I21J21*
G03X58940Y44780I78J14*
G01X58669Y45251*
G03X58447Y45380I222J127*
X58191Y45124J256*
G01Y45547*
G03X58203Y45624I244J77*
X58045Y45860I256*
G02X58027Y45888I12J28*
X58057Y45917I30*
G01X58691*
Y45624*
G03X58947Y45368I256*
X59169Y45497J256*
G01X59191Y45535*
Y45124*
G03X59447Y44868I256*
X59703Y45124J256*
X59447Y45380I256*
X59191Y45124J256*
G01Y45535*
X59440Y45968*
G03X59449Y45993I69J39*
G02X59457Y46009I29J5*
G01X59485Y46037*
G02X59506Y46045I21J21*
G01X60035*
G02X60061Y46030J29*
G01X60066Y46022*
G02X60070Y46007I26J15*
X60055Y45981I30*
G01X59820Y45846*
G03X59691Y45624I127J222*
X59947Y45368I256*
X60169Y45497J256*
G01X60191Y45535*
Y45124*
G03X60447Y44868I256*
X60703Y45124J256*
X60447Y45380I256*
X60191Y45124J256*
G01Y45535*
X60440Y45968*
G03X60449Y45993I69J39*
G02X60457Y46009I29J5*
G01X60642Y46194*
G02X60663Y46202I21J21*
G01X60691*
Y45624*
G03X60947Y45368I256*
X61169Y45497J256*
G01X61191Y45535*
Y45124*
G03X61447Y44868I256*
X61703Y45124J256*
X61447Y45380I256*
X61191Y45124J256*
G01Y45535*
X61423Y45939*
G02X61449Y45954I26J14*
G01X61691*
Y45624*
G03X61947Y45368I256*
X62191Y45547J256*
G01Y45124*
G03X62194Y45084I256*
G01X62340Y44161*
G03X62352Y44129I77J12*
G02X62357Y44112I24J17*
G01Y43823*
G02X62343Y43797I29*
G03X62249Y43629I103J168*
X62446Y43433I197*
X62643Y43629J196*
X62549Y43797I197*
G02X62534Y43823I15J26*
G01Y44077*
G02X62540Y44094I30*
G03X62553Y44127I65J45*
G01X62700Y45085*
G03X62703Y45124I253J39*
X62447Y45380I256*
X62191Y45124J256*
G01Y45547*
G03X62203Y45624I244J77*
X61947Y45880I256*
X61691Y45624J256*
G01Y45954*
X63189*
G02X63218Y45925J29*
X63205Y45900I29*
G03X63157Y45836I65J99*
G02X63128Y45815I29J8*
X63110Y45821J29*
G03X62947Y45880I163J197*
X62691Y45624J256*
X62947Y45368I256*
X63110Y45427J256*
G02X63128Y45433I18J23*
X63157Y45412J29*
G03X63235Y45334I113J35*
G02X63256Y45306I8J28*
X63249Y45287I29*
G03X63191Y45124I198J163*
X63447Y44868I256*
X63639Y44955J256*
G02X63661Y44964I22J20*
X63690Y44935J29*
G01Y44792*
G02X63682Y44771I29*
G01X63483Y44573*
G02X63462Y44564I21J21*
G01X63393*
G03X63330Y44538J88*
G01X63234Y44442*
G02X63213Y44434I21J21*
X63206Y44435J29*
G03X63160Y44440I46J192*
X62963Y44243J197*
X63160Y44046I197*
X63357Y44243J197*
X63351Y44289I197*
G02Y44296I29J7*
X63359Y44317I29*
G01X63421Y44378*
G02X63441Y44387I20J20*
G01X63511*
G03X63574Y44413J89*
G01X63841Y44680*
G03X63867Y44743I62J63*
G01Y45920*
G03X63841Y45982I88*
G01X63718Y46105*
G03X63656Y46131I62J62*
G01X61365*
G03X61343Y46128J88*
G02X61335Y46127I8J29*
G01X61333*
G03X61330I3J78*
X61290Y46117J78*
G01X60820Y45846*
G03X60691Y45624I127J222*
G01Y46202*
X63753*
G02X63773Y46194J29*
G01X63922Y46045*
G02X63930Y46024I21J21*
G01Y44420*
G02X63922Y44399I29*
G01X63581Y44059*
G02X63560Y44050I21J20*
X63553Y44051J29*
G03X63507Y44056I46J192*
X63310Y43859J197*
X63507Y43662I197*
X63704Y43859J197*
X63699Y43905I197*
G02X63698Y43912I28J7*
X63706Y43933I29*
G01X64082Y44308*
G03X64108Y44371I63J63*
G01Y46073*
G03X64082Y46136I89*
G01X63864Y46353*
G03X63801Y46379I63J62*
G01X60614*
G03X60551Y46353J88*
G01X60332Y46134*
G02X60316Y46126I21J21*
G03X60290Y46117I14J77*
G01X60157Y46040*
G02X60143Y46036I14J26*
X60117Y46051J30*
G01X60114Y46057*
G02X60110Y46071I25J14*
X60119Y46092I29*
G01X60460Y46434*
G02X60481Y46442I21J21*
G01X63877*
G02X63898Y46434J29*
G01X64181Y46151*
G02X64190Y46130I21J21*
G01Y44190*
G02X64181Y44169I30*
G01X63618Y43606*
G02X63597Y43597I21J21*
X63590Y43598J30*
G03X63544Y43603I46J191*
X63347Y43407J196*
X63544Y43210I197*
X63741Y43407J197*
X63735Y43453I197*
G02Y43460I29J7*
X63743Y43481I29*
G01X64341Y44078*
G03X64367Y44141I63J63*
G01Y46179*
G03X64341Y46242I89*
G01X63989Y46594*
G03X63926Y46620I63J63*
G01X60432*
G03X60370Y46594J89*
G01X60007Y46231*
G02X59986Y46222I21J21*
G01X59457*
G03X59394Y46196J88*
G01X59332Y46134*
G02X59316Y46126I21J21*
G03X59290Y46117I14J77*
G01X58820Y45846*
G03X58691Y45624I127J222*
G01Y45917*
X58756*
G03X58819Y45943J89*
G01X59152Y46277*
G02X59173Y46285I21J21*
G01X59909*
G03X59972Y46311J89*
G01X60409Y46748*
G02X60430Y46757I21J20*
G01X63075*
G03X63138Y46783J89*
G01X63395Y47041*
G03X63421Y47103I62J62*
G01Y47207*
G02X63427Y47224I30*
G03X63438Y47249I65J46*
G01X63580Y47774*
G03X63589Y47841I247J67*
X63333Y48096I256*
X63077Y47841J255*
X63086Y47773I256*
G01X63227Y47249*
G03X63239Y47224I76J21*
G02X63244Y47207I24J17*
G01Y47152*
G02X63235Y47131I29*
G01X63047Y46943*
G02X63026Y46934I21J21*
G01X60381*
G03X60318Y46908J88*
G01X59881Y46471*
G02X59860Y46463I21J21*
G01X59124*
G03X59062Y46437J89*
G01X58728Y46103*
G02X58707Y46094I21J21*
G01X56724*
G03X56661Y46068J88*
G01X56282Y45690*
G03X56256Y45627I63J63*
G01Y45894*
X56511Y46149*
G02X56532Y46157I21J21*
G01X58657*
G03X58719Y46183J89*
G01X59053Y46517*
G02X59074Y46526I21J21*
G01X59810*
G03X59872Y46552J88*
G01X60309Y46989*
G02X60330Y46997I21J21*
G01X61578*
G03X61641Y47023J89*
G01X61948Y47330*
G02X61963Y47338I21J21*
G03X61989Y47348I13J78*
G01X62460Y47619*
G03X62589Y47841I127J222*
X62333Y48096I256*
X62111Y47968J255*
G01X61840Y47497*
G03X61831Y47471I68J39*
G02X61822Y47456I30J5*
G01X61550Y47183*
G02X61529Y47174I21J21*
G01X60281*
G03X60219Y47148J88*
G01X59782Y46711*
G02X59761Y46703I21J21*
G01X59025*
G03X58962Y46677J89*
G01X58629Y46343*
G02X58608Y46334I21J21*
G01X56483*
G03X56421Y46308J88*
G01X56042Y45930*
G03X56016Y45867I63J63*
G01Y46134*
X56271Y46389*
G02X56292Y46397I21J21*
G01X58557*
G03X58620Y46423J89*
G01X58954Y46757*
G02X58974Y46766I20J21*
G01X59710*
G03X59773Y46792J88*
G01X60210Y47229*
G02X60231Y47237I21J21*
G01X60818*
G03X60881Y47263J89*
G01X60948Y47330*
G02X60963Y47338I21J21*
G03X60989Y47348I13J78*
G01X61460Y47619*
G03X61589Y47841I127J222*
X61333Y48096I256*
X61111Y47968J255*
G01X60840Y47497*
G03X60831Y47471I68J39*
G02X60822Y47456I30J5*
G01X60790Y47423*
G02X60769Y47415I21J21*
G01X60216*
G02X60186Y47444J29*
X60201Y47470I30*
G01X60460Y47619*
G03X60589Y47841I127J222*
X60333Y48096I256*
X60111Y47968J255*
G01X59840Y47497*
G03X59831Y47471I68J39*
G02X59822Y47456I30J5*
G01X59559Y47192*
G02X59538Y47183I21J21*
G01X59247*
G02X59218Y47213J30*
G01Y47227*
G02X59231Y47251I29*
G03X59253Y47273I43J66*
G01X59309Y47353*
G02X59312Y47358I24J16*
G01X59395Y47441*
G03X59421Y47504I62J63*
G01Y47508*
G02X59426Y47525I30*
G01X59544Y47696*
G03X59589Y47841I211J145*
X59333Y48096I256*
X59077Y47842J255*
G01X59074Y47453*
G02X59044Y47423I30*
G01X58727*
G03X58664Y47397J88*
G01X58330Y47064*
G02X58309Y47055I21J20*
G01X55945*
G03X55883Y47029J89*
G01X55322Y46468*
G03X55296Y46405I62J63*
G01Y46531*
X55874Y47109*
G02X55895Y47118I21J21*
G01X58175*
G03X58238Y47144J88*
G01X58285Y47191*
G02X58300Y47199I21J21*
G03X58359Y47246I13J77*
G01X58372Y47274*
G02X58378Y47284I27J11*
G01X58395Y47301*
G03X58421Y47364I62J63*
G01Y47386*
G02X58424Y47398I30*
G01X58568Y47741*
G03X58589Y47841I235J100*
X58333Y48096I256*
X58170Y48038J255*
G02X58151Y48031I19J23*
X58123Y48052J30*
G03X58044Y48131I113J34*
G02X58023Y48159I9J28*
X58030Y48178I30*
G03X58089Y48341I197J163*
X57833Y48596I256*
X57793Y48593J255*
G01X56856Y48448*
G03X56823Y48435I12J78*
G02X56806Y48429I17J24*
G01X55979*
G03X55916Y48403J88*
G01X54841Y47328*
G03X54815Y47266I63J62*
G01Y47391*
X56104Y48680*
G02X56125Y48689I21J21*
G01X58640*
G02X58661Y48680J30*
G01X58686Y48655*
G02X58695Y48634I21J21*
G01Y48572*
G02X58683Y48548I30*
G03X58577Y48341I150J207*
X58833Y48085I256*
X59089Y48341J256*
X58983Y48548I256*
G02X58970Y48572I17J24*
G01Y48633*
G03X58833Y48771I137*
G01X58832*
G02X58812Y48780J30*
G01X58752Y48840*
G03X58689Y48866I63J63*
G01X56076*
G03X56013Y48840J89*
G01X54601Y47428*
G03X54575Y47365I63J63*
G01Y47491*
X56005Y48920*
G02X56025Y48929I20J21*
G01X59563*
G02X59584Y48920J30*
G01X59640Y48864*
G02X59649Y48843I21J21*
X59648Y48839I30*
G01X59580Y48378*
G03X59577Y48341I253J37*
X59833Y48085I256*
X60089Y48341J256*
X60065Y48447I256*
G01X59924Y48756*
G02X59921Y48769I27J13*
G01Y48797*
G03X59895Y48859I88*
G01X59865Y48889*
G02X59859Y48898I21J21*
G01X59844Y48931*
G03X59786Y48976I72J32*
G02X59770Y48984I5J29*
G01X59675Y49080*
G03X59612Y49106I63J63*
G01X55976*
G03X55914Y49080J89*
G01X54361Y47527*
G03X54335Y47465I63J62*
G01Y34378*
G02X54326Y34357I29*
G01X53310Y33340*
G02X53289Y33332I21J21*
X53282Y33333J29*
G03X53236Y33338I46J192*
X53039Y33141J197*
G01Y33315*
X53472Y33748*
G02X53493Y33757I21J21*
G01X53593*
G03X53655Y33783J88*
G01X54246Y34373*
G03X54272Y34436I62J63*
G01Y47515*
G02X54281Y47536I30*
G01X55905Y49160*
G02X55926Y49169I21J21*
G01X60506*
G02X60527Y49160J30*
G01X60721Y48966*
G02X60730Y48945I21J21*
X60728Y48936I30*
G03X60727Y48932I75J25*
G01X60586Y48408*
G03X60577Y48341I247J67*
X60833Y48085I256*
X61089Y48341J256*
X61080Y48407I256*
G01X60938Y48932*
G03X60927Y48957I76J21*
G02X60921Y48974I24J17*
G01Y48980*
G03X60895Y49042I88*
G01X60617Y49320*
G03X60555Y49346I62J62*
G01X55877*
G03X55814Y49320J88*
G01X54121Y47627*
G03X54095Y47564I63J63*
G01Y34485*
G02X54086Y34464I30*
G01X53565Y33942*
G02X53544Y33934I21J21*
G01X53444*
G03X53382Y33908J89*
G01X52860Y33386*
G02X52839Y33377I21J21*
X52832Y33378J30*
G03X52786Y33383I46J191*
X52589Y33187J196*
G01Y34104*
G03X52765Y33996I176J89*
X52933Y34090J197*
G02X52958Y34104I25J15*
G01X52971*
G03X53034Y34130J89*
G01X53080Y34176*
G02X53101Y34185I21J21*
G01X53152*
G03X53215Y34211J88*
G01X53391Y34387*
G03X53417Y34450I63J63*
G01Y34503*
G02X53426Y34524I30*
G01X53428Y34526*
G02X53448Y34535I20J21*
X53469Y34526J30*
G01X53509Y34487*
G03X53571Y34461I62J62*
G01X53585*
G02X53610Y34447J30*
G03X53778Y34352I168J102*
X53975Y34549J197*
X53911Y34695I197*
G02X53901Y34717I19J22*
X53911Y34738I29*
G03X53975Y34884I133J146*
X53778Y35081I197*
X53610Y34987J197*
G02X53585Y34973I25J15*
G01X53571*
G03X53509Y34947J89*
G01X53445Y34883*
G02X53424Y34874I21J21*
G01X53367*
G03X53304Y34848J88*
G01X53128Y34672*
G03X53102Y34609I63J63*
G01Y34556*
G02X53093Y34535I29*
G01X53092Y34533*
G02X53071Y34524I21J21*
X53050Y34533J30*
G01X53032Y34551*
G03X52970Y34576I62J63*
G01X52956*
G02X52931Y34591J30*
G03X52763Y34685I168J103*
X52566Y34488J197*
G01Y40592*
X53796*
G03X53875Y40671J79*
G01Y41124*
G03X53796Y41203I79*
G01X52537*
G03X52458Y41124J79*
G01Y41065*
G02X52428Y41035I30*
G01X52399*
G03X52301Y40995J138*
G01X52279Y40973*
G02X52258Y40964I21J21*
X52237Y40973J30*
G03X52181Y40996I56J56*
G01X51788*
G03X51709Y40917J79*
G01Y40809*
G02X51700Y40788I30*
G01X51611Y40699*
G02X51607Y40696I21J21*
G03X51589Y40681I80J112*
G01X51460Y40551*
G02X51439Y40543I21J21*
X51418Y40551J29*
G01X51202Y40768*
G02X51193Y40789I21J21*
X51223Y40818I30*
G01X51492*
G03X51551Y40877J59*
G01Y41035*
G03X51492Y41094I59*
G01X51217*
G03X51158Y41035J59*
G01Y40883*
G02X51128Y40854I30*
X51107Y40862J29*
G01X51007Y40962*
G03X50958Y40992I83J83*
G02X50938Y41020I9J28*
G01Y41142*
G03X50878Y41201I60*
G01X50603*
G03X50544Y41142J59*
G01Y41027*
G02X50514Y40997I30*
G01X50495*
G02X50465Y41027J30*
G01Y41142*
G03X50406Y41201I59*
G01X50130*
G03X50071Y41142J59*
G01Y41027*
G02X50042Y40997I29*
G01X49648*
G02X49618Y41027J30*
G01Y41142*
G03X49559Y41201I59*
G01X49283*
G03X49224Y41142J59*
G01Y41027*
G02X49195Y40998I29*
G01X48269*
G02X48240Y41028J30*
G01Y41142*
G03X48181Y41201I59*
G01X47905*
G03X47846Y41142J59*
G01Y41028*
G02X47816Y40998I30*
G01X47484*
G02X47455Y41028J30*
G01Y41142*
G03X47396Y41201I59*
G01X47120*
G03X47061Y41142J59*
G01Y41028*
G02X47031Y40999I30*
G01X46104*
G02X46074Y41029J30*
G01Y41142*
G03X46015Y41201I59*
G01X45740*
G03X45681Y41142J59*
G01Y41029*
G02X45651Y40999I30*
G01X44727Y41000*
G02X44697Y41029J29*
G01Y41142*
G03X44638Y41201I59*
G01X44362*
G03X44303Y41142J59*
G01Y41030*
G02X44274Y41000I29*
G01X44221*
X42955*
G02X42925Y41030J30*
G01Y41142*
G03X42866Y41201I59*
G01X42591*
G03X42532Y41142J59*
G01Y41030*
G02X42502Y41000I30*
G01X42168*
G02X42139Y41030J30*
G01Y41142*
G03X42079Y41201I60*
G01X41804*
G03X41745Y41142J59*
G01Y41030*
G02X41715Y41000I30*
G01X41575*
G02X41546Y41030J30*
G01Y41142*
G03X41487Y41201I59*
G01X41211*
G03X41152Y41142J59*
G01Y41030*
G02X41122Y41000I30*
G01X40788*
G02X40759Y41030J30*
G01Y41142*
G03X40700Y41201I59*
G01X40424*
G03X40365Y41142J59*
G01Y41030*
G02X40336Y41000I29*
G01X40002*
G02X39972Y41030J30*
G01Y41142*
G03X39913Y41201I59*
G01X39638*
G03X39579Y41142J59*
G01Y41030*
G02X39549Y41000I30*
G01X39433*
G03X39350Y40965J118*
G01X39267Y40883*
G02X39247Y40875I20J21*
X39217Y40904J29*
G01Y41034*
G03X39158Y41093I59*
G01X38882*
G03X38823Y41034J59*
G01Y40877*
G03X38882Y40818I59*
G01X39130*
G02X39160Y40788J30*
X39151Y40767I30*
G01X38993Y40609*
G02X38972Y40601I21J21*
X38952Y40609J29*
G01X38684Y40877*
G02X38675Y40898I21J21*
G01Y41019*
G03X38658Y41061I59*
G01X38631Y41088*
G03X38589Y41105I42J42*
G01X37994*
G02X37973Y41114J29*
G01X37892Y41195*
G03X37850Y41213I42J41*
G01X36583*
G03X36542Y41195J59*
G01X36540Y41194*
G02X36535Y41190I21J21*
G03X36512Y41166I43J66*
G02X36508Y41162I25J16*
G01X36507Y41161*
G03X36490Y41120I42J42*
G01Y41100*
Y41099*
Y40687*
Y43526*
X36519*
Y41734*
G03X36578Y41675I59*
G01X37838*
G03X37897Y41734J59*
G01Y42187*
G03X37838Y42246I59*
G01X36578*
G03X36519Y42187J59*
G01Y43526*
X37336*
G02X37351Y43522J29*
G03X38114Y43156I2019J3230*
G01Y41331*
G03X38193Y41252I79*
G01X38586*
G03X38665Y41331J79*
G01Y41333*
G02X38690Y41362I30*
G03X38738Y41386I15J87*
G01X38744Y41393*
G02X38765Y41402I21J21*
G01X38771*
G02X38792Y41393J30*
G01X38795Y41390*
G02X38804Y41369I21J21*
G01Y41270*
G03X38882Y41192I78*
G01X38893*
G02X38909Y41186J30*
G03X39020Y41152I111J163*
X39131Y41186J197*
G02X39148Y41192I17J24*
G01X39158*
G03X39237Y41270J78*
G01Y41428*
G03X39158Y41507I79*
G01X39148*
G02X39131Y41512J29*
G03X39020Y41546I111J163*
X38936Y41527J197*
G02X38924Y41524I12J27*
X38903Y41533J30*
G01X38882Y41553*
G03X38820Y41579I62J63*
G01X38716*
G03X38695Y41576J89*
G02X38688I7J29*
X38660Y41595J29*
G03X38586Y41646I74J28*
G01X38193*
G03X38114Y41567J79*
G01Y43156*
G03X39370Y42943I1256J3596*
X43179Y46752J3809*
X42148Y49359I3809*
G02X42140Y49379I21J20*
G01Y49801*
G02X42148Y49822I29*
G01X42984Y50658*
G02X43005Y50667I21J21*
G01X44321*
Y42994*
G03X44518Y42797I197*
X44715Y42994J197*
X44518Y43191I197*
X44321Y42994J197*
G01Y50667*
X44982*
Y43323*
G03X45179Y43126I197*
X45376Y43323J197*
X45370Y43369I197*
G02Y43376I29J7*
X45378Y43397I29*
G01X45805Y43824*
G03X45831Y43887I62J63*
G01Y46391*
G02X45845Y46416I30*
G03X45939Y46584I102J168*
X45743Y46781I196*
X45546Y46584J197*
X45640Y46416I197*
G02X45654Y46391I16J25*
G01Y43935*
G02X45645Y43915I30*
G01X45253Y43522*
G02X45232Y43514I21J21*
X45225J29*
G03X45179Y43520I46J191*
X44982Y43323J197*
G01Y50667*
X51138*
Y41271*
G03X51217Y41192I79*
G01X51227*
G02X51244Y41187J29*
G03X51355Y41153I111J163*
X51465Y41187J197*
G02X51482Y41192I17J24*
G01X51492*
G03X51566Y41242J79*
G02X51593Y41261I27J10*
G01X51679*
G02X51709Y41232J29*
G03X51788Y41153I79*
G01X52181*
G03X52260Y41232J79*
G01Y41468*
G03X52181Y41547I79*
G01X51788*
G03X51709Y41468J79*
G02X51679Y41438I30*
G01X51593*
G02X51566Y41457J30*
G03X51492Y41507I74J28*
G01X51482*
G02X51465Y41512J30*
G03X51355Y41547I110J162*
X51244Y41512J197*
G02X51227Y41507I17J25*
G01X51217*
G03X51138Y41429J78*
G01Y50667*
X52477*
Y41734*
G03X52537Y41675I60*
G01X53796*
G03X53855Y41734J59*
G01Y42187*
G03X53796Y42246I59*
G01X52537*
G03X52477Y42187J59*
G01Y50667*
X62010*
G02X62015Y50666J30*
G03X62096Y50659I81J446*
G01X62667*
G03X63120Y51112J453*
G01Y51958*
G03X63119Y51986I453*
G01Y51987*
Y52682*
Y52683*
G03X63120Y52711I452J28*
G01Y53372*
G03X62667Y53825I453*
X62214Y53372J453*
G01Y52739*
Y52737*
G03X62213Y52710I452J27*
G01Y51892*
G03X62214Y51865I453*
G01Y51863*
Y51594*
G02X62185Y51565I29*
G01X62183*
G02X62177J29*
G03X62096Y51572I81J445*
G01X56464*
G02X56434Y51602J30*
X56443Y51623I30*
G01X56574Y51754*
G03X56608Y51837I84J83*
G01Y52295*
G02X56638Y52325I30*
X56665Y52307J30*
G03X57045Y52061I380J170*
X57462Y52477J416*
X57045Y52894I417*
X56665Y52647J417*
G02X56638Y52630I27J12*
X56608Y52659J29*
G01Y53244*
G02X56617Y53265I30*
G01X56944Y53592*
G02X56964Y53600I20J21*
G01X56965*
X61387Y53595*
X61805*
X61842*
G03X61960Y53713J118*
G01X61954Y55017*
G03X61916Y55103I118J1*
G02X61907Y55124I21J21*
X61937Y55154I30*
G01X64417*
G03X64598Y55229J256*
G01X65476Y56107*
Y49251*
G03X65673Y49054I197*
X65870Y49251J197*
X65673Y49448I197*
X65476Y49251J197*
G01Y51177*
G03X65520Y51054I197*
G01Y50221*
G03X65716Y50025I196*
X65913Y50221J196*
X65716Y50418I197*
X65520Y50221J197*
G01Y51054*
G03X65673Y50980I153J123*
X65870Y51177J197*
X65673Y51374I197*
X65476Y51177J197*
G01Y56107*
X66200Y56831*
Y50830*
G03X66290Y50665I197*
G01Y44134*
G03X66403Y43529I1675*
G01Y42199*
G03X66600Y42002I197*
X66797Y42199J197*
X66600Y42396I197*
X66403Y42199J197*
G01Y43529*
G03X67965Y42459I1562J605*
X68213Y42478J1675*
G01Y42098*
G03X68410Y41901I197*
X68607Y42098J197*
X68410Y42294I197*
X68213Y42098J196*
G01Y42478*
G03X69031Y42843I248J1656*
G01Y42489*
G03X69228Y42292I197*
X69425Y42489J197*
X69228Y42685I197*
X69031Y42489J196*
G01Y42843*
G03X69639Y44134I1066J1291*
X67965Y45809I1674*
X66290Y44134J1675*
G01Y49370*
G03X66475Y48604I1675*
G01Y47745*
G03X66672Y47548I197*
X66693Y47549J197*
G01Y45949*
G03X66889Y45753I196*
X67086Y45949J196*
X66889Y46146I197*
X66693Y45949J197*
G01Y47549*
G03X66869Y47745I21J196*
X66672Y47942I197*
X66475Y47745J197*
G01Y48604*
G03X67816Y47702I1490J766*
G01Y46776*
G03X68013Y46580I197*
X68210Y46776J196*
X68013Y46973I197*
X67816Y46776J197*
G01Y47702*
G03X67965Y47695I149J1668*
X69053Y48097J1675*
G01Y47716*
G03X69111Y47577I197*
G01Y45718*
G03X69308Y45521I197*
X69505Y45718J197*
X69308Y45915I197*
X69111Y45718J197*
G01Y47577*
G03X69250Y47519I139J139*
X69447Y47716J197*
X69250Y47913I197*
X69053Y47716J197*
G01Y48097*
G03X69639Y49370I1088J1273*
X67965Y51045I1674*
X66290Y49370J1675*
G01Y50665*
G03X66397Y50633I107J165*
X66594Y50830J197*
X66397Y51026I197*
X66200Y50830J196*
G01Y56831*
X66707Y57338*
Y51351*
G03X66904Y51154I197*
X67101Y51351J197*
X66904Y51548I197*
X66707Y51351J197*
G01Y57338*
X67779Y58409*
Y51409*
G03X67975Y51212I196*
X68172Y51409J197*
X67975Y51606I197*
X67779Y51409J197*
G01Y58409*
X67785Y58416*
G03X67860Y58597I181J181*
G01Y59090*
G03X67604Y59346I256*
X67348Y59090J256*
G01Y58715*
G02X67339Y58694I29*
G01X64320Y55674*
G02X64299Y55666I21J21*
G01X56183*
G02X56153Y55695J29*
X56172Y55723I30*
G03X57045Y57005I505J1282*
X55667Y58383I1378*
X54289Y57005J1378*
X55162Y55723I1378*
G02X55181Y55695I11J28*
X55151Y55666I30*
G01X54317*
G03X54136Y55591J256*
G01X53512Y54967*
G03X53437Y54786I181J181*
G01Y53143*
G02X53429Y53122I29*
G01X53026Y52719*
G02X53005Y52711I21J21*
G01X26313*
G03X26132Y52636J256*
G01X24110Y50614*
G03X24035Y50433I181J181*
G01Y49890*
G02X24026Y49869I30*
G01X23711Y49554*
G02X23696Y49546I21J21*
G01X23337Y49472*
G02X23331Y49471I6J28*
G01X22620*
G03X22440Y49396J256*
G01X21998Y48955*
G03X21923Y48774I181J181*
G01Y48341*
G03X22179Y48085I256*
X22423Y48264J256*
G01Y47841*
G03X22679Y47585I256*
X22935Y47841J256*
X22679Y48096I256*
X22423Y47841J255*
G01Y48264*
G03X22435Y48341I244J77*
G01Y48655*
G02X22444Y48676I30*
G01X22718Y48950*
G02X22739Y48959I21J20*
G01X23331*
G02X23337Y48958J29*
G01X23696Y48884*
G02X23711Y48876I6J29*
G01X24026Y48561*
G02X24035Y48540I21J21*
G01Y47407*
G02X24026Y47386I30*
G01X23622Y46982*
G02X23601Y46973I21J21*
G01X15953*
G03X15772Y46898J256*
G01X15112Y46238*
G03X15037Y46057I181J181*
G01Y65387*
G03X15276Y65371I239J1759*
X15884Y65478J1775*
G01Y47663*
G03X16002Y47545I118*
G01X16356*
G03X16469Y47629J118*
G02X16498Y47650I29J9*
X16516Y47643J30*
G03X16679Y47585I163J198*
X16935Y47841J256*
X16679Y48096I256*
X16516Y48038J255*
G02X16498Y48031I18J23*
X16469Y48052J30*
G03X16391Y48131I113J34*
G02X16370Y48159I8J28*
X16377Y48178I29*
G03X16435Y48341I198J163*
X16179Y48596I256*
X15923Y48341J255*
X15982Y48178I256*
G02X15988Y48159I23J19*
X15968Y48131I29*
G03X15884Y48018I34J113*
G01Y65478*
G03X16923Y66486I608J1668*
G01Y48341*
G03X17179Y48085I256*
X17423Y48264J256*
G01Y47841*
G03X17679Y47585I256*
X17935Y47841J256*
X17679Y48096I256*
X17423Y47841J255*
G01Y48264*
G03X17435Y48341I244J77*
X17179Y48596I256*
X16923Y48341J255*
G01Y66486*
G03X17018Y66807I1647J660*
G01Y62330*
G03X17224Y62123I206*
X17431Y62330J207*
X17224Y62537I207*
X17018Y62330J207*
G01Y66807*
G03X17050Y67146I1742J339*
X15276Y68920I1774*
X13501Y67146J1774*
G01Y69319*
G02X17923Y73576I25869J22449*
G01Y48341*
G03X18179Y48085I256*
X18423Y48264J256*
G01Y47841*
G03X18679Y47585I256*
X18935Y47841J256*
X18679Y48096I256*
X18423Y47841J255*
G01Y48264*
G03X18435Y48341I244J77*
X18179Y48596I256*
X17923Y48341J255*
G01Y73576*
G02X18297Y73872I21447J26706*
G01Y70768*
G03X18504Y70561I207*
X18711Y70768J207*
X18504Y70974I207*
X18297Y70768J206*
G01Y71949*
G03X18504Y71742I207*
X18711Y71949J207*
X18504Y72156I207*
X18297Y71949J207*
G01Y73130*
G03X18504Y72923I207*
X18711Y73130J207*
X18504Y73337I207*
X18297Y73130J207*
G01Y73872*
G02X18923Y74349I21073J27002*
G01Y48341*
G03X19179Y48085I256*
X19423Y48264J256*
G01Y47841*
G03X19679Y47585I256*
X19935Y47841J256*
X19679Y48096I256*
X19423Y47841J255*
G01Y48264*
G03X19435Y48341I244J77*
X19179Y48596I256*
X18923Y48341J255*
G01Y74349*
G02X19478Y74754I20447J27479*
G01Y70768*
G03X19685Y70561I207*
X19892Y70768J207*
X19685Y70974I207*
X19478Y70768J206*
G01Y71949*
G03X19685Y71742I207*
X19892Y71949J207*
X19685Y72156I207*
X19478Y71949J207*
G01Y73130*
G03X19685Y72923I207*
X19892Y73130J207*
X19685Y73337I207*
X19478Y73130J207*
G01Y74754*
G02X19923Y75066I19892J27884*
G01Y48341*
G03X20179Y48085I256*
X20423Y48264J256*
G01Y47841*
G03X20679Y47585I256*
X20935Y47841J256*
X20679Y48096I256*
X20423Y47841J255*
G01Y48264*
G03X20435Y48341I244J77*
X20179Y48596I256*
X19923Y48341J255*
G01Y75066*
G02X20000Y75119I19447J28196*
G01Y57940*
G03X20495Y57444I495*
X20923Y57691J496*
G01Y48341*
G03X21179Y48085I256*
X21423Y48264J256*
G01Y47841*
G03X21679Y47585I256*
X21935Y47841J256*
X21679Y48096I256*
X21423Y47841J255*
G01Y48264*
G03X21435Y48341I244J77*
X21179Y48596I256*
X20923Y48341J255*
G01Y57691*
G03X20990Y57940I428J249*
X20495Y58435I495*
X20000Y57940J495*
G01Y75119*
G02X20659Y75560I19370J28249*
G01Y70768*
G03X20866Y70561I207*
X21053Y70680J207*
G01Y54626*
G03X21260Y54419I207*
X21467Y54626J207*
X21260Y54833I207*
X21053Y54626J207*
G01Y70680*
G03X21073Y70768I187J88*
X20866Y70974I207*
X20659Y70768J206*
G01Y71949*
G03X20866Y71742I207*
X21073Y71949J207*
X20866Y72156I207*
X20659Y71949J207*
G01Y73130*
G03X20866Y72923I207*
X21073Y73130J207*
X20866Y73337I207*
X20659Y73130J207*
G01Y75560*
G02X21841Y76296I18711J28690*
G01Y70768*
G03X22047Y70561I206*
X22234Y70680J207*
G01Y54626*
G03X22441Y54419I207*
X22648Y54626J207*
X22441Y54833I207*
X22234Y54626J207*
G01Y70680*
G03X22254Y70768I187J88*
X22047Y70974I207*
X21841Y70768J206*
G01Y71949*
G03X22047Y71742I206*
X22254Y71949J207*
X22047Y72156I207*
X21841Y71949J207*
G01Y73130*
G03X22047Y72923I206*
X22254Y73130J207*
X22047Y73337I207*
X21841Y73130J207*
G01Y76296*
G02X23022Y76969I17529J29426*
G01Y70768*
G03X23228Y70561I206*
X23435Y70768J207*
X23228Y70974I207*
X23022Y70768J206*
G01Y71949*
G03X23228Y71742I206*
X23435Y71949J207*
X23228Y72156I207*
X23022Y71949J207*
G01Y73130*
G03X23228Y72923I206*
X23435Y73130J207*
X23228Y73337I207*
X23022Y73130J207*
G01Y76969*
G02X24247Y77602I16348J30099*
G01Y52477*
G03X24762Y51962I515*
X25276Y52477J515*
X24762Y52992I514*
X24247Y52477J515*
G01Y77602*
G02X24761Y77850I15123J30732*
G01Y74722*
G03X24762Y74702I1378*
G01Y57005*
G03X26139Y55627I1377*
X27517Y57005J1378*
X26139Y58383I1378*
X24762Y57005J1378*
G01Y74702*
G03X26139Y73344I1377J20*
X27517Y74722J1378*
X26139Y76099I1378*
X24761Y74722J1377*
G01Y77850*
G02X26565Y78638I14609J30980*
G01Y76673*
G03X26772Y76467I207*
X26978Y76673J206*
X26772Y76880I206*
X26565Y76673J207*
G01Y78638*
G02X27746Y79089I12805J31768*
G01Y76673*
G03X27953Y76467I207*
X28159Y76673J206*
X27953Y76880I206*
X27746Y76673J207*
G01Y79089*
G02X28927Y79491I11624J32219*
G01Y76673*
G03X29134Y76467I207*
X29341Y76673J206*
X29134Y76880I207*
X28927Y76673J207*
G01Y79491*
G02X30108Y79846I10443J32621*
G01Y76673*
G03X30315Y76467I207*
X30522Y76673J206*
X30315Y76880I207*
X30108Y76673J207*
G01Y79846*
G02X31289Y80155I9262J32976*
G01Y76673*
G03X31496Y76467I207*
X31703Y76673J206*
X31496Y76880I207*
X31289Y76673J207*
G01Y80155*
G02X31471Y80198I8081J33285*
G03X31863Y80509I137J575*
G01X32470Y81725*
Y76673*
G03X32677Y76467I207*
X32884Y76673J206*
X32677Y76880I207*
X32470Y76673J207*
G01Y81725*
X32594Y81973*
Y78592*
G03X32653Y78533I59*
G01X33652*
Y76673*
G03X33858Y76467I206*
X34065Y76673J206*
X33858Y76880I207*
X33652Y76673J207*
G01Y78533*
X34833*
Y76673*
G03X35039Y76467I206*
X35246Y76673J206*
X35039Y76880I207*
X34833Y76673J207*
G01Y78533*
X35916*
Y62368*
G03X36113Y62171I197*
X36310Y62368J197*
X36216Y62536I197*
G02X36201Y62561I15J25*
G01Y69928*
G02X36210Y69949I30*
G01X36446Y70185*
G02X36467Y70193I21J21*
X36496Y70164J29*
G01Y62554*
G02X36482Y62529I29*
G03X36388Y62361I103J168*
X36585Y62164I197*
X36782Y62361J197*
X36687Y62529I197*
G02X36673Y62554I16J25*
G01Y70233*
G02X36682Y70254I30*
G01X39630Y73202*
G03X39656Y73264I63J62*
G01Y91755*
G02X39666Y91778I29*
G03X39695Y91839I50J61*
G01Y92114*
G03X39616Y92193I79*
G01X39518*
G03X39482Y92184J79*
G02X39469Y92181I13J27*
X39455Y92184J30*
G03X39419Y92193I36J70*
G01X39321*
G03X39285Y92184J79*
G02X39272Y92181I13J27*
X39258Y92184J30*
G03X39222Y92193I36J70*
G01X39124*
G03X39045Y92114J79*
G01Y91839*
G03X39124Y91760I79*
G01X39222*
G03X39244Y91763J79*
G02X39252Y91764I8J29*
X39281Y91734J30*
G01Y73283*
G02X39273Y73262I29*
G01X36050Y70040*
G03X36024Y69977I63J63*
G01Y62561*
G02X36010Y62536I29*
G03X35916Y62368I103J168*
G01Y78533*
X36014*
Y76673*
G03X36220Y76467I206*
X36427Y76673J206*
X36220Y76880I207*
X36014Y76673J207*
G01Y78533*
X37195*
Y76673*
G03X37402Y76467I207*
X37608Y76673J206*
X37402Y76880I206*
X37195Y76673J207*
G01Y78533*
X38099*
G03X38158Y78592J59*
G01Y79492*
G03X38099Y79551I59*
G01X32653*
G03X32594Y79492J59*
G01Y81973*
X38028Y92841*
G03X38034Y92853I528J264*
G02X38376Y93316I1336J629*
G01Y76673*
G03X38583Y76467I207*
X38789Y76673J206*
X38583Y76880I206*
X38376Y76673J207*
G01Y93316*
G02X39045Y93665I994J1092*
G01Y92390*
G03X39124Y92311I79*
G01X39222*
G03X39273Y92329J79*
G02X39291Y92336I18J23*
X39301Y92334J30*
G03X39321Y92331I20J56*
G01X39419*
G03X39439Y92334J59*
G02X39449Y92336I10J28*
X39468Y92329J30*
G03X39518Y92311I50J61*
G01X39616*
G03X39695Y92390J79*
G01Y92665*
G03X39616Y92744I79*
G01X39518*
G03X39468Y92726J79*
G02X39449Y92719I19J23*
X39439Y92721J30*
G03X39419Y92724I20J56*
G01X39321*
G03X39301Y92721J59*
G02X39291Y92719I10J28*
X39273Y92726J30*
G03X39222Y92744I51J61*
G01X39124*
G03X39045Y92665J79*
G01Y93665*
G02X39370Y93701I325J1441*
X40708Y92849J1477*
G03X40715Y92835I535J250*
G01X41132Y92001*
Y76673*
G03X41339Y76467I207*
X41545Y76673J206*
X41339Y76880I206*
X41132Y76673J207*
G01Y92001*
X42313Y89639*
Y76673*
G03X42520Y76467I207*
X42726Y76673J206*
X42520Y76880I206*
X42313Y76673J207*
G01Y89639*
X43494Y87277*
Y76673*
G03X43701Y76467I207*
X43907Y76673J206*
X43701Y76880I206*
X43494Y76673J207*
G01Y87277*
X44675Y84914*
Y76673*
G03X44882Y76467I207*
X45089Y76673J206*
X44882Y76880I207*
X44675Y76673J207*
G01Y84914*
X45856Y82552*
Y76673*
G03X46063Y76467I207*
X46270Y76673J206*
X46063Y76880I207*
X45856Y76673J207*
G01Y82552*
X46878Y80509*
G03X47037Y80312I528J264*
G01Y76673*
G03X47244Y76467I207*
X47451Y76673J206*
X47244Y76880I207*
X47037Y76673J207*
G01Y80312*
G03X47270Y80198I369J461*
G02X54289Y77702I7900J33328*
G01Y74722*
G03X55667Y73344I1378*
X57045Y74722J1378*
X55667Y76099I1378*
X54289Y74722J1377*
G01Y77702*
G02X57543Y75904I14919J30832*
G01Y56381*
G03X57749Y56174I206*
X57956Y56381J207*
X57749Y56587I207*
X57543Y56381J206*
G01Y75904*
G02X58028Y75594I18173J29034*
G01Y70886*
G03X59803Y69111I1775*
X61578Y70886J1775*
X59803Y72661I1775*
X58028Y70886J1775*
G01Y75594*
G02X62107Y72487I18658J28724*
G01Y67845*
G03X62304Y67648I197*
X62472Y67742J197*
G02X62497Y67757I25J15*
G01X62990*
G02X63011Y67748J30*
G01X63020Y67739*
G02X63028Y67724I21J21*
G01X63033Y67699*
G02X63034Y67693I28J6*
G01Y67171*
G02X63025Y67150I29*
G01X62847Y66972*
G03X62821Y66909I62J63*
G01Y65572*
G03X62847Y65510I88*
G01X63891Y64466*
G02X63899Y64445I21J21*
G01Y64264*
G02X63885Y64238I29*
G03X63848Y64209I103J168*
G02X63827Y64200I21J20*
X63797Y64227J29*
G03X63601Y64405I196J19*
X63405Y64208J197*
X63499Y64040I196*
G02X63513Y64015I16J25*
G01Y60309*
G02X63504Y60288I30*
G01X63491Y60275*
G02X63470Y60266I21J20*
X63446Y60278J29*
G03X63288Y60357I158J117*
X63091Y60161J196*
X63288Y59964I197*
X63456Y60058J197*
G02X63481Y60072I25J16*
G01X63502*
G03X63565Y60098J89*
G01X63664Y60197*
G03X63690Y60260I63J63*
G01Y64015*
G02X63704Y64040I30*
G03X63742Y64070I103J168*
G02X63763Y64079I21J21*
X63777Y64075J30*
G01Y59374*
G03X63984Y59167I207*
X64190Y59374J207*
X63984Y59580I206*
X63777Y59374J206*
G01Y64075*
G02X63792Y64052I14J26*
G03X63988Y63874I196J18*
X64180Y64028J196*
G02X64209Y64051I29J7*
X64225Y64046J30*
G03X64334Y64013I109J164*
X64380Y64019J197*
G02X64387Y64020I7J29*
X64408Y64011J30*
G01X64438Y63980*
G02X64447Y63960I21J20*
G01Y63939*
G03X64473Y63876I88*
G01X64576Y63773*
G02X64585Y63752I21J21*
G01Y59026*
G02X64571Y59001I30*
G03X64476Y58833I102J168*
X64673Y58636I197*
X64870Y58833J197*
X64776Y59001I197*
G02X64762Y59026I15J25*
G01Y63801*
G03X64736Y63864I89*
G01X64633Y63967*
G02X64624Y63988I21J21*
G01Y64008*
G03X64598Y64071I89*
G01X64533Y64136*
G02X64524Y64157I21J21*
X64525Y64164I30*
G03X64530Y64210I191J46*
X64334Y64407I196*
X64141Y64253J197*
G02X64113Y64230I28J6*
X64096Y64235J29*
G03X64091Y64238I108J165*
G02X64077Y64264I15J26*
G01Y64494*
G03X64051Y64556I89*
G01X63007Y65600*
G02X62998Y65621I20J21*
G01Y66860*
G02X63007Y66881I29*
G01X63185Y67060*
G03X63211Y67122I62J62*
G01Y67694*
G02X63212Y67700I30*
G01X63217Y67724*
G02X63225Y67739I29J6*
G01X63233Y67748*
G02X63254Y67757I21J21*
G01X63903*
G02X63928Y67742J30*
G03X64096Y67648I168J103*
X64293Y67845J197*
X64096Y68042I197*
X63928Y67948J197*
G02X63903Y67934I25J15*
G01X63205*
G03X63143Y67908J89*
G02X63122Y67900I21J21*
X63101Y67908J29*
G03X63039Y67934I62J63*
G01X62497*
G02X62472Y67948J29*
G03X62304Y68042I168J103*
X62107Y67845J197*
G01Y72487*
G02X65702Y68776I22737J25617*
G01Y64838*
G03X65898Y64642I196*
X65944Y64647J196*
G02X65951Y64648I7J29*
X65972Y64639J30*
G01X66103Y64508*
G02X66112Y64487I21J21*
G01Y61252*
G03X66138Y61190I88*
G01X66906Y60421*
G03X66969Y60395I63J63*
G01X67481*
G02X67507Y60381J29*
G03X67675Y60287I168J103*
X67871Y60484J197*
X67675Y60681I196*
X67507Y60587J197*
G02X67481Y60572I26J15*
G01X67018*
G02X66997Y60581J30*
G01X66298Y61280*
G02X66289Y61301I21J21*
G01Y64536*
G03X66263Y64599I89*
G01X66098Y64764*
G02X66089Y64785I20J21*
X66090Y64792I29*
G03X66095Y64838I192J46*
X65898Y65035I197*
X65702Y64838J197*
G01Y68776*
G02X69227Y63656I26332J21906*
G01Y51322*
G03X69424Y51125I197*
X69620Y51322J197*
X69424Y51519I196*
X69227Y51322J197*
G01Y63656*
G02X69734Y62721I29857J16786*
G01Y42257*
G03X69930Y42060I196*
X70127Y42257J197*
X69930Y42454I197*
X69734Y42257J197*
G01Y62721*
G02X70023Y62154I30364J15851*
G01Y43140*
G03X70220Y42943I197*
X70417Y43140J197*
X70220Y43337I197*
X70023Y43140J197*
G01Y62154*
G02X70081Y62037I30653J15284*
G01Y44516*
G03X70278Y44319I197*
X70475Y44516J197*
X70278Y44713I197*
X70081Y44516J197*
G01Y62037*
G02X70096Y62008I30711J15167*
G01Y48151*
G03X70110Y48077I196*
G01Y45906*
G03X70307Y45709I197*
X70504Y45906J197*
X70307Y46103I197*
X70110Y45906J197*
G01Y48077*
G03X70125Y48048I182J74*
G01Y46818*
G03X70321Y46622I196*
X70518Y46818J196*
X70321Y47015I197*
X70125Y46818J197*
G01Y48048*
G03X70292Y47954I167J103*
X70489Y48151J197*
X70292Y48347I197*
X70096Y48151J196*
G01Y62008*
G02X70110Y61978I30726J15138*
G01Y50902*
G03X70125Y50828I197*
G01Y49483*
G03X70321Y49286I196*
X70518Y49483J197*
X70321Y49680I197*
X70125Y49483J197*
G01Y50828*
G03X70307Y50705I182J74*
X70504Y50902J197*
X70307Y51099I197*
X70110Y50902J197*
G01Y61978*
G02X72630Y55054I30740J15108*
G01Y44134*
G03X74264Y42500I1634*
X75898Y44134J1634*
X74264Y45768I1634*
X72630Y44134J1634*
G01Y49370*
G03X74264Y47736I1634*
X75898Y49370J1634*
X74264Y51004I1634*
X72630Y49370J1634*
G01Y55054*
G02X72890Y53914I33260J8184*
G03X73468Y53445I578J121*
G01X76772*
G02X78543Y51673J1772*
G01Y41850*
G03Y41845I591*
G02Y41831I1771J14*
X76772Y40059I1771*
G01X73418*
G03X72841Y39594J590*
G02X47182Y13521I33471J7276*
G03X46789Y13210I135J575*
G01X40712Y1057*
G03X40706Y1044I528J264*
G02X39370Y197I1336J629*
X38034Y1045J1476*
G03X38028Y1058I534J251*
G01X31952Y13210*
G03X31558Y13521I528J264*
G02X5900Y39594I7812J33349*
G03X5323Y40059I577J125*
G01X1968*
X1956*
G02X215Y41639J1749*
G01X197Y41826*
G02Y41829I29J3*
G01Y51656*
G03Y51661I591*
G02Y51673I1771J12*
G01X23340Y49412D02*
X23734Y49493D01*
X24012Y49215*
X23734Y48937*
X23340Y49018*
Y49412*
D02*
X23734Y49493D01*
X24012Y49215*
X23734Y48937*
X23340Y49018*
Y49412*
D02*
X23734Y49493D01*
X24012Y49215*
X23734Y48937*
X23340Y49018*
Y49412*
X35654Y46716D02*
X33495Y44556D01*
X35162Y42890*
X35857Y43585*
X37512*
Y46459*
X37042*
X36977Y46395*
X35654Y46716*
X36549Y41099D02*
Y40687D01*
X36594Y40641*
X37336*
X37420Y40558*
Y40103*
X37445Y40078*
X37605*
X37636Y40109*
Y40570*
X37707Y40641*
X37845*
X37954Y40750*
X38592*
X38616Y40775*
Y41019*
X38589Y41046*
X37958*
X37850Y41154*
X36583*
X36549Y41119*
Y41099*
X38867Y39930D02*
G02X38896Y39960I29D01*
X38903Y39959J30*
G03X38950Y39953I47J191*
X39147Y40150J197*
X38966Y40346I197*
G02X38939Y40376I2J30*
X38948Y40397I29*
G01X39424Y40873*
G02X39445Y40882I21J21*
G01X39607*
G02X39637Y40852J30*
X39616Y40824I30*
G03X39559Y40748I22J76*
G01Y40591*
G03X39638Y40512I79*
G01X39648*
G02X39664Y40507J29*
G03X39775Y40473I111J163*
X39886Y40507J197*
G02X39903Y40512I17J24*
G01X39913*
G03X39992Y40591J79*
G01Y40748*
G03X39935Y40824I79*
G02X39914Y40852I9J28*
X39944Y40882I30*
G01X40365*
Y40591*
G03X40424Y40532I59*
G01X40700*
G03X40759Y40591J59*
G01Y40748*
G03X40700Y40808I59*
G01X40424*
G03X40365Y40748J60*
G01Y40882*
X40890*
Y31126*
G03X40956Y30979I197*
G01Y28342*
G03X41015Y28283I59*
G01X41290*
G03X41349Y28342J59*
G01Y28500*
G03X41290Y28559I59*
G01X41015*
G03X40956Y28500J59*
G01Y30979*
G03X41087Y30929I131J147*
X41283Y31126J197*
X41087Y31323I196*
X40890Y31126J197*
G01Y32701*
G03X41087Y32504I197*
X41283Y32701J197*
X41087Y32898I196*
X40890Y32701J197*
G01Y34276*
G03X41087Y34079I197*
X41283Y34276J197*
X41087Y34472I196*
X40890Y34276J196*
G01Y35850*
G03X41087Y35654I197*
X41283Y35850J196*
X41087Y36047I196*
X40890Y35850J197*
G01Y37425*
G03X41087Y37228I197*
X41283Y37425J197*
X41087Y37622I196*
X40890Y37425J197*
G01Y40882*
X41181*
G02X41210Y40852J30*
X41189Y40824I29*
G03X41132Y40748I22J76*
G01Y40591*
G03X41190Y40515I79*
G02X41211Y40487I9J28*
G01Y39856*
Y39855*
G03Y39852I138J3*
G01Y39712*
G02X41203Y39692I30*
G03X41152Y39560I146J132*
X41349Y39363I197*
X41546Y39560J197*
X41494Y39692I197*
G02X41487Y39712I22J20*
G01Y39848*
Y39849*
G03Y39852I138J3*
G01Y40487*
G02X41508Y40515I29*
G03X41565Y40591I21J76*
G01Y40748*
G03X41509Y40824I78*
G02X41487Y40852I8J28*
X41517Y40882I30*
G01X41745*
Y40591*
G03X41804Y40532I59*
G01X42079*
G03X42139Y40591J59*
G01Y40748*
G03X42079Y40808I60*
G01X41804*
G03X41745Y40748J60*
G01Y40882*
X42465*
Y31126*
G03X42661Y30929I196*
X42729Y30941J197*
G01Y28342*
G03X42788Y28283I59*
G01X43063*
G03X43122Y28342J59*
G01Y28500*
G03X43063Y28559I59*
G01X42788*
G03X42729Y28500J59*
G01Y30941*
G03X42858Y31126I68J185*
X42661Y31323I197*
X42465Y31126J197*
G01Y32701*
G03X42661Y32504I196*
X42858Y32701J197*
X42661Y32898I197*
X42465Y32701J197*
G01Y34276*
G03X42661Y34079I196*
X42858Y34276J197*
X42661Y34472I197*
X42465Y34276J196*
G01Y35850*
G03X42661Y35654I196*
X42858Y35850J196*
X42661Y36047I197*
X42465Y35850J197*
G01Y37425*
G03X42661Y37228I196*
X42858Y37425J197*
X42661Y37622I197*
X42465Y37425J197*
G01Y40882*
X42532*
Y40591*
G03X42591Y40532I59*
G01X42866*
G03X42925Y40591J59*
G01Y40748*
G03X42866Y40808I59*
G01X42591*
G03X42532Y40748J60*
G01Y40882*
X44039*
Y31126*
G03X44236Y30929I197*
X44433Y31126J197*
X44236Y31323I197*
X44039Y31126J197*
G01Y32701*
G03X44236Y32504I197*
X44433Y32701J197*
X44236Y32898I197*
X44039Y32701J197*
G01Y34276*
G03X44236Y34079I197*
X44433Y34276J197*
X44236Y34472I197*
X44039Y34276J196*
G01Y35850*
G03X44236Y35654I197*
X44433Y35850J196*
X44236Y36047I197*
X44039Y35850J197*
G01Y37425*
G03X44236Y37228I197*
X44433Y37425J197*
X44236Y37622I197*
X44039Y37425J197*
G01Y40882*
X44220*
X44332*
G02X44361Y40852J30*
X44340Y40824I29*
G03X44284Y40748I22J76*
G01Y40591*
G03X44341Y40515I78*
G02X44362Y40487I8J28*
G01Y39714*
G02X44355Y39694I29*
G03X44303Y39561I145J133*
X44500Y39364I197*
X44697Y39561J197*
X44646Y39694I197*
G02X44638Y39714I21J20*
G01Y40487*
G02X44659Y40515I29*
G03X44717Y40591I21J76*
G01Y40748*
G03X44661Y40824I79*
G02X44640Y40852I8J28*
X44669Y40882I29*
G01X45614Y40881*
Y31126*
G03X45811Y30929I197*
X46008Y31126J197*
X45811Y31323I197*
X45614Y31126J197*
G01Y32701*
G03X45811Y32504I197*
X46008Y32701J197*
X45811Y32898I197*
X45614Y32701J197*
G01Y34276*
G03X45811Y34079I197*
X46008Y34276J197*
X45811Y34472I197*
X45614Y34276J196*
G01Y35850*
G03X45811Y35654I197*
X46008Y35850J196*
X45811Y36047I197*
X45614Y35850J197*
G01Y37425*
G03X45811Y37228I197*
X46008Y37425J197*
X45811Y37622I197*
X45614Y37425J197*
G01Y40881*
X45681*
Y40591*
G03X45740Y40532I59*
G01X46015*
G03X46074Y40591J59*
G01Y40748*
G03X46015Y40808I59*
G01X45740*
G03X45681Y40748J60*
G01Y40881*
X46862*
Y28342*
G03X46921Y28283I59*
G01X47196*
G03X47255Y28342J59*
G01Y28500*
G03X47196Y28559I59*
G01X46921*
G03X46862Y28500J59*
G01Y40881*
X47061*
Y40591*
G03X47120Y40532I59*
G01X47189*
Y31126*
G03X47386Y30929I197*
X47583Y31126J197*
X47386Y31323I197*
X47189Y31126J197*
G01Y32701*
G03X47386Y32504I197*
X47583Y32701J197*
X47386Y32898I197*
X47189Y32701J197*
G01Y34276*
G03X47386Y34079I197*
X47583Y34276J197*
X47386Y34472I197*
X47189Y34276J196*
G01Y35850*
G03X47386Y35654I197*
X47583Y35850J196*
X47386Y36047I197*
X47189Y35850J197*
G01Y37425*
G03X47386Y37228I197*
X47583Y37425J197*
X47386Y37622I197*
X47189Y37425J197*
G01Y40532*
X47396*
G03X47455Y40591J59*
G01Y40748*
G03X47396Y40808I59*
G01X47120*
G03X47061Y40748J60*
G01Y40881*
X47869Y40880*
G02X47899Y40851J29*
X47879Y40823I30*
G03X47826Y40748I26J75*
G01Y40591*
G03X47883Y40515I79*
G02X47905Y40487I8J28*
G01Y39717*
G02X47897Y39697I30*
G03X47846Y39564I146J133*
X48043Y39367I197*
X48240Y39564J197*
X48188Y39697I197*
G02X48181Y39717I22J20*
G01Y40487*
G02X48202Y40515I29*
G03X48259Y40591I21J76*
G01Y40748*
G03X48207Y40823I78*
G02X48187Y40850I10J27*
X48217Y40880I30*
G01X48764*
Y32701*
G03X48961Y32504I197*
X49157Y32701J197*
X48961Y32898I196*
X48764Y32701J197*
G01Y34276*
G03X48961Y34079I197*
X49157Y34276J197*
X48961Y34472I196*
X48764Y34276J196*
G01Y35850*
G03X48961Y35654I197*
X49157Y35850J196*
X48961Y36047I196*
X48764Y35850J197*
G01Y37425*
G03X48961Y37228I197*
X49157Y37425J197*
X48961Y37622I196*
X48764Y37425J197*
G01Y40880*
X49224*
Y40591*
G03X49283Y40532I59*
G01X49559*
G03X49618Y40591J59*
G01Y40748*
G03X49559Y40808I59*
G01X49283*
G03X49224Y40748J60*
G01Y40880*
X50092Y40879*
G02X50121Y40850J29*
X50102Y40822I29*
G03X50052Y40748I28J74*
G01Y40719*
G02X50043Y40698I30*
G01X49503Y40158*
G03X49473Y40114I97J97*
G02X49467Y40104I27J11*
G01X49341Y39978*
G03X49300Y39881I97J97*
G01Y39717*
G02X49293Y39697I29*
G03X49241Y39564I145J133*
X49421Y39368I197*
G01Y28342*
G03X49480Y28283I59*
G01X49755*
G03X49815Y28342J59*
G01Y28500*
G03X49755Y28559I60*
G01X49480*
G03X49421Y28500J59*
G01Y39368*
G03X49438Y39367I17J196*
X49635Y39564J197*
X49584Y39697I197*
G02X49576Y39717I21J20*
G01Y39811*
G02X49585Y39832I29*
G01X49698Y39945*
G03X49728Y39990I98J98*
G02X49734Y40000I27J11*
G01X50203Y40469*
G02X50224Y40477I21J21*
X50230J29*
G03X50268Y40473I38J193*
X50379Y40507J197*
G02X50396Y40512I17J24*
G01X50406*
G03X50478Y40558J79*
G02X50504Y40575I26J12*
X50531Y40558J29*
G03X50603Y40512I72J33*
G01X50613*
G02X50630Y40507J29*
G03X50741Y40473I111J163*
X50852Y40507J197*
G02X50868Y40512I16J24*
G01X50878*
G03X50957Y40591J79*
G01Y40748*
G03X50954Y40770I79*
G02X50953Y40778I29J8*
X50983Y40808I30*
X51003Y40799J30*
G01X51406Y40397*
G02X51415Y40376I21J21*
X51385Y40346I30*
G01X51237*
G03X51178Y40287J59*
G01Y37845*
G03X51237Y37786I59*
G01X51395*
G03X51454Y37845J59*
G01Y38121*
G03X51395Y38180I59*
G01X51237*
G03X51178Y38121J59*
G01Y39223*
G03X51237Y39164I59*
G01X51395*
G03X51454Y39223J59*
G01Y39499*
G03X51395Y39558I59*
G01X51237*
G03X51178Y39499J59*
G01Y40012*
G03X51237Y39953I59*
G01X51395*
G03X51454Y40012J59*
G01Y40278*
G02X51483Y40307I29*
X51504Y40299J29*
G01X51528Y40275*
G02X51537Y40254I21J21*
G01Y37315*
G02X51507Y37286I30*
X51482Y37299J29*
G03X51478Y37305I166J105*
G02X51473Y37322I25J17*
G01Y37332*
G03X51395Y37411I78*
G01X51237*
G03X51161Y37354J79*
G02X51133Y37332I28J8*
G01X50507*
G03X50501J138*
G01X50500*
X50367*
G02X50347Y37340J29*
G03X50214Y37391I133J146*
X50017Y37194J197*
X50214Y36997I197*
X50347Y37049J197*
G02X50367Y37056I20J22*
G01X50507*
G03X50512J138*
G01X50513*
X51133*
G02X51161Y37035J29*
G03X51178Y37004I76J21*
G01Y36445*
G03X51237Y36386I59*
G01X51395*
G03X51454Y36445J59*
G01Y36721*
G03X51395Y36780I59*
G01X51237*
G03X51178Y36721J59*
G01Y37004*
G03X51237Y36978I59J52*
G01X51395*
G03X51473Y37056J78*
G01Y37067*
G02X51478Y37083I30*
G03X51482Y37089I162J111*
G02X51507Y37103I25J16*
X51537Y37073J30*
G01Y35743*
G02X51507Y35713I30*
X51482Y35727J30*
G03X51478Y35733I166J105*
G02X51473Y35749I25J16*
G01Y35760*
G03X51395Y35838I78*
G01X51237*
G03X51161Y35781J78*
G02X51133Y35760I28J8*
G01X50515*
G02X50512J29*
G03X50496Y35761I16J137*
G01X50367*
G02X50347Y35768J29*
G03X50214Y35820I133J145*
X50017Y35623J197*
X50214Y35426I197*
X50347Y35477J197*
G02X50367Y35485I20J22*
G01X50479*
G02X50482J30*
G03X50497Y35484I15J137*
G01X51133*
G02X51161Y35462J30*
G03X51178Y35432I76J22*
G01Y33319*
G03X51237Y33260I59*
G01X51395*
G03X51454Y33319J59*
G01Y33594*
G03X51395Y33653I59*
G01X51237*
G03X51178Y33594J59*
G01Y35432*
G03X51237Y35405I59J52*
G01X51395*
G03X51473Y35484J79*
G01Y35494*
G02X51478Y35511I30*
G03X51482Y35517I162J111*
G02X51507Y35530I25J16*
X51537Y35501J29*
G01Y32631*
G02X51507Y32602I30*
G01X51186*
G02X51183J29*
G03X51159Y32603I24J255*
G01X50785*
G03X50529Y32347J256*
X50785Y32091I256*
G01X51134*
G02X51137J30*
G03X51140I23J255*
G02X51168Y32061I2J30*
X51165Y32049I30*
G03X51161Y32039I72J31*
G02X51133Y32018I28J8*
G01X50366*
G02X50347Y32025J29*
G03X50214Y32077I133J145*
X50017Y31880J197*
X50214Y31683I197*
X50347Y31734J197*
G02X50366Y31742I19J22*
G01X51133*
G02X51161Y31720J30*
G03X51178Y31690I76J22*
G01Y31152*
G03X51237Y31093I59*
G01X51395*
G03X51454Y31152J59*
G01Y31427*
G03X51395Y31486I59*
G01X51237*
G03X51178Y31427J59*
G01Y31690*
G03X51237Y31663I59J52*
G01X51395*
G03X51473Y31742J79*
G01Y31752*
G02X51478Y31769I30*
G03X51482Y31775I162J111*
G02X51507Y31788I25J16*
X51537Y31759J29*
G01Y30537*
G02X51507Y30508I30*
G01X51481*
G02X51451Y30537J29*
X51452Y30544I30*
G03X51454Y30559I57J15*
G01Y30834*
G03X51395Y30893I59*
G01X51237*
G03X51178Y30834J59*
G01Y30559*
G03X51180Y30544I59*
G02X51181Y30537I29J7*
X51151Y30508I30*
G01X50577*
G02X50556Y30517J29*
G01X50469Y30604*
G02X50463Y30612I21J21*
G03X50415Y30679I229J114*
G01X50394Y30700*
G03X50213Y30775I181J181*
X49957Y30519J256*
Y30509I256*
G01Y30508*
Y30507*
G03Y30498I256J9*
X50032Y30317I256*
G01X50278Y30071*
G03X50402Y30002I181J181*
G02X50417Y29994I6J28*
G01X50732Y29679*
G03X50830Y29638I98J97*
G01X51133*
G02X51161Y29617J29*
G03X51178Y29586I76J21*
G01Y29166*
G03X51237Y29107I59*
G01X51395*
G03X51454Y29166J59*
G01Y29442*
G03X51395Y29501I59*
G01X51237*
G03X51178Y29442J59*
G01Y29586*
G03X51237Y29560I59J52*
G01X51395*
G03X51473Y29638J78*
G01Y29649*
G02X51478Y29665I30*
G03X51482Y29671I162J111*
G02X51507Y29685I25J16*
X51537Y29655J30*
G01Y28731*
G02X51528Y28710I30*
G01X51504Y28686*
G02X51483Y28678I21J21*
X51454Y28707J29*
G01Y28969*
G03X51395Y29028I59*
G01X51237*
G03X51178Y28969J59*
G01Y28693*
G03X51237Y28634I59*
G01X51381*
G02X51410Y28605J29*
X51402Y28584I29*
G01X51235Y28417*
G02X51214Y28408I21J21*
X51185Y28431J30*
G03X50994Y28582I191J46*
X50858Y28528J197*
G02X50838Y28520I20J21*
X50811Y28536J29*
G03X50741Y28579I70J36*
G01X50731*
G02X50715Y28584J29*
G03X50604Y28618I111J163*
X50493Y28584J197*
G02X50476Y28579I17J24*
G01X50466*
G03X50387Y28500J79*
G01Y28342*
G03X50388Y28328I79*
G02X50389Y28322I29J6*
X50380Y28301I30*
G01X50374Y28295*
G02X50354Y28287I20J22*
X50333Y28296J30*
G01X50296Y28333*
G02X50287Y28354I21J21*
X50288Y28361I30*
G03X50293Y28407I191J46*
X50097Y28604I196*
X49900Y28407J197*
X49976Y28251I197*
G02X49987Y28228I18J23*
X49958Y28199I29*
G01X49242*
G02X49213Y28228J29*
X49214Y28237I29*
G03X49224Y28299I187J62*
X49027Y28495I197*
X48830Y28299J196*
X48840Y28237I197*
G02X48841Y28228I28J9*
X48812Y28199I29*
G01X48555*
G02X48525Y28228J29*
X48540Y28253I30*
G03X48547Y28258I103J168*
G02X48564Y28264I17J24*
G01X48574*
G03X48653Y28342J78*
G01Y28500*
G03X48596Y28576I79*
G02X48574Y28604I8J28*
G01Y29221*
G03Y29227I137*
G01Y29228*
Y29361*
G02X48582Y29381I30*
G03X48633Y29514I146J133*
X48436Y29710I197*
X48240Y29514J196*
X48291Y29381I196*
G02X48299Y29361I22J20*
G01Y29221*
G03Y29216I137*
G01Y29215*
Y28604*
G02X48277Y28576I30*
G03X48220Y28500I22J76*
G01Y28342*
G03X48299Y28264I79*
G01X48309*
G02X48326Y28258J30*
G03X48334Y28253I111J163*
G02X48348Y28228I16J25*
X48318Y28199I30*
G01X46193*
G02X46163Y28228J29*
X46177Y28253I30*
G03X46185Y28258I103J168*
G02X46202Y28264I17J24*
G01X46212*
G03X46291Y28342J78*
G01Y28500*
G03X46234Y28576I79*
G02X46212Y28604I8J28*
G01Y29362*
G02X46220Y29382I30*
G03X46271Y29515I146J133*
X46074Y29711I197*
X45877Y29515J196*
X45929Y29382I197*
G02X45937Y29362I22J20*
G01Y28604*
G02X45915Y28576I30*
G03X45863Y28528I22J76*
G02X45839Y28509I28J11*
G03X45800Y28496I9J88*
G02X45785Y28491I15J25*
G01X45466*
G03X45404Y28465J88*
G02X45383Y28457I21J21*
X45362Y28465J29*
G03X45299Y28491I63J62*
G01X44687*
G02X44657Y28521J30*
G01Y28540*
G03X44579Y28619I78*
G01X44421*
G03X44342Y28540J79*
G01Y28495*
G02X44313Y28465I29*
X44286Y28483J30*
G03X44269Y28514I180J80*
G02X44264Y28530I24J16*
G01Y28540*
G03X44185Y28619I79*
G01X44027*
G03X43949Y28540J79*
G01Y28530*
G02X43944Y28514I30*
G03X43909Y28403I162J111*
X43944Y28292I197*
G02X43949Y28275I25J17*
G01Y28265*
G03X43953Y28238I78*
G02X43955Y28228I27J10*
X43926Y28199I29*
G01X42259*
G02X42230Y28228J29*
X42244Y28253I29*
G03X42252Y28258I103J168*
G02X42269Y28264I17J24*
G01X42279*
G03X42358Y28342J78*
G01Y28500*
G03X42300Y28576I79*
G02X42279Y28604I8J28*
G01Y29364*
G02X42287Y29384I29*
G03X42338Y29517I146J133*
X42141Y29713I197*
X41944Y29517J196*
X41996Y29384I197*
G02X42003Y29364I22J20*
G01Y28604*
G02X41982Y28576I29*
G03X41924Y28500I21J76*
G01Y28342*
G03X42003Y28264I79*
G01X42013*
G02X42030Y28258J30*
G03X42038Y28253I111J163*
G02X42052Y28228I15J25*
X42023Y28199I29*
G01X40682*
G02X40653Y28228J29*
X40667Y28253I29*
G03X40675Y28258I103J168*
G02X40691Y28264I16J24*
G01X40702*
G03X40780Y28342J78*
G01Y28500*
G03X40723Y28576I78*
G02X40702Y28604I8J28*
G01Y28888*
G02X40705Y28901I29*
G03X40719Y28962I124J61*
G01Y29364*
G02X40726Y29384I29*
G03X40778Y29516I145J132*
X40581Y29713I197*
X40384Y29516J197*
X40435Y29384I197*
G02X40443Y29364I21J20*
G01Y29018*
G02X40440Y29005I29*
G03X40426Y28945I124J60*
G01Y28604*
G02X40405Y28576I29*
G03X40347Y28500I21J76*
G01Y28342*
G03X40426Y28264I79*
G01X40436*
G02X40453Y28258J30*
G03X40461Y28253I111J163*
G02X40475Y28228I16J25*
X40445Y28199I30*
G01X39737*
G02X39708Y28228J29*
X39722Y28253I29*
G03X39730Y28258I103J168*
G02X39747Y28264I17J24*
G01X39757*
G03X39835Y28342J78*
G01Y28500*
G03X39757Y28579I78*
G01X39747*
G02X39730Y28584J29*
G03X39619Y28618I111J163*
X39508Y28584J197*
G02X39491Y28579I17J24*
G01X39481*
G03X39402Y28500J79*
G01Y28342*
G03X39481Y28264I79*
G01X39491*
G02X39508Y28258J30*
G03X39516Y28253I111J163*
G02X39530Y28228I15J25*
X39501Y28199I29*
G01X39424*
G02X39403Y28207J29*
G01X38875Y28735*
G02X38867Y28756I21J21*
G01Y29157*
G02X38896Y29187I29*
X38924Y29166J30*
G03X38981Y29124I57J17*
G01X39138*
G03X39197Y29183J59*
G01Y29459*
G03X39138Y29518I59*
G01X38981*
G03X38924Y29476J59*
G02X38896Y29456I28J9*
X38867Y29485J29*
G01Y29944*
G02X38896Y29973I29*
X38924Y29952J29*
G03X38981Y29911I57J18*
G01X39138*
G03X39197Y29970J59*
G01Y30246*
G03X39138Y30305I59*
G01X38981*
G03X38924Y30263J59*
G02X38896Y30242I28J9*
X38867Y30272J30*
G01Y30929*
G02X38896Y30958I29*
X38924Y30937J29*
G03X38981Y30896I57J18*
G01X39138*
G03X39197Y30955J59*
G01Y31230*
G03X39138Y31289I59*
G01X38981*
G03X38924Y31248J59*
G02X38896Y31227I28J9*
X38867Y31257J30*
G01Y31478*
G02X38896Y31507I29*
X38919Y31496J29*
G03X38981Y31466I62J49*
G01X39138*
G03X39214Y31524J79*
G02X39242Y31545I28J8*
G01X39612*
G02X39631Y31537J29*
G03X39764Y31486I133J146*
X39895Y31536J197*
G01Y28342*
G03X39954Y28283I59*
G01X40229*
G03X40288Y28342J59*
G01Y28500*
G03X40229Y28559I59*
G01X39954*
G03X39895Y28500J59*
G01Y31536*
G03X39961Y31683I131J147*
X39764Y31880I197*
X39631Y31828J197*
G02X39612Y31821I19J22*
G01X39242*
G02X39214Y31842J29*
G03X39138Y31900I76J21*
G01X38981*
G03X38919Y31870J79*
G02X38896Y31859I23J18*
X38867Y31888J29*
G01Y32505*
G02X38896Y32534I29*
X38924Y32513J29*
G03X38981Y32472I57J18*
G01X39138*
G03X39197Y32531J59*
G01Y32807*
G03X39138Y32866I59*
G01X38981*
G03X38924Y32824J59*
G02X38896Y32803I28J9*
X38867Y32833J30*
G01Y33841*
G02X38896Y33871I29*
X38919Y33860J30*
G03X38981Y33830I62J49*
G01X39138*
G03X39214Y33887J79*
G02X39242Y33909I28J8*
G01X39615*
G02X39635Y33901J30*
G03X39768Y33850I133J146*
X39965Y34047J197*
X39768Y34243I197*
X39635Y34192J196*
G02X39615Y34184I20J22*
G01X39242*
G02X39214Y34206J30*
G03X39138Y34263I76J22*
G01X38981*
G03X38919Y34233J79*
G02X38896Y34222I23J19*
X38867Y34252J30*
G01Y35175*
G02X38896Y35205I29*
X38919Y35194J30*
G03X38981Y35164I62J49*
G01X39138*
G03X39214Y35221J79*
G02X39242Y35243I28J8*
G01X39615*
G02X39635Y35235J30*
G03X39768Y35184I133J146*
X39965Y35381J197*
X39768Y35578I197*
X39635Y35526J197*
G02X39615Y35518I20J22*
G01X39242*
G02X39214Y35540J30*
G03X39138Y35597I76J22*
G01X38981*
G03X38919Y35568J79*
G02X38896Y35556I23J18*
X38867Y35586J30*
G01Y35689*
G02X38896Y35719I29*
X38924Y35698J30*
G03X38981Y35656I57J17*
G01X39138*
G03X39197Y35715J59*
G01Y35991*
G03X39138Y36050I59*
G01X38981*
G03X38924Y36008J59*
G02X38896Y35988I28J9*
X38867Y36017J29*
G01Y36835*
G02X38896Y36865I29*
X38924Y36844J30*
G03X38981Y36802I57J17*
G01X39138*
G03X39197Y36861J59*
G01Y37137*
G03X39138Y37196I59*
G01X38981*
G03X38924Y37154J59*
G02X38896Y37134I28J9*
X38867Y37163J29*
G01Y37927*
G02X38896Y37956I29*
X38919Y37945J29*
G03X38981Y37916I62J49*
G01X39138*
G03X39214Y37973J78*
G02X39242Y37994I28J8*
G01X39615*
G02X39635Y37987J29*
G03X39768Y37935I133J145*
X39965Y38132J197*
X39768Y38329I197*
X39635Y38278J197*
G02X39615Y38270I20J21*
G01X39242*
G02X39214Y38291J29*
G03X39138Y38349I76J21*
G01X38981*
G03X38919Y38319J79*
G02X38896Y38308I23J19*
X38867Y38338J30*
G01Y38441*
G02X38896Y38470I29*
X38924Y38449J29*
G03X38981Y38408I57J18*
G01X39138*
G03X39197Y38467J59*
G01Y38742*
G03X39138Y38801I59*
G01X38981*
G03X38924Y38760J59*
G02X38896Y38739I28J9*
X38867Y38769J30*
G01Y39930*
X41685Y50556D02*
X41382Y50252D01*
X40508*
X41931Y48829*
X42081Y48979*
Y49846*
X41685Y50556*
X43120Y46752D02*
G03X39370Y50502I3750D01*
X35620Y46752J3750*
X39370Y43002I3750*
X43120Y46752J3750*
G01X45353Y28260D02*
X45341Y28319D01*
X45383Y28361*
X45424Y28319*
X45412Y28260*
X45353*
D02*
X45341Y28319D01*
X45383Y28361*
X45424Y28319*
X45412Y28260*
X45353*
D02*
X45341Y28319D01*
X45383Y28361*
X45424Y28319*
X45412Y28260*
X45353*
X57805Y48516D02*
Y48165D01*
X56868Y48311*
Y48370*
X57805Y48516*
X58158Y47810D02*
X58496Y47772D01*
X58287Y47276*
X58245Y47318*
X58158Y47810*
X58359Y44970D02*
X58600Y45212D01*
X58871Y44741*
X58830Y44699*
X58359Y44970*
X59100Y45536D02*
X58859Y45778D01*
X59330Y46049*
X59371Y46007*
X59100Y45536*
X59156Y47842D02*
X59479Y47740D01*
X59188Y47317*
X59152Y47364*
X59156Y47842*
X59994Y48414D02*
X59657Y48367D01*
X59731Y48857*
X59772Y48899*
X59994Y48414*
X60100Y45536D02*
X59859Y45778D01*
X60330Y46049*
X60371Y46007*
X60100Y45536*
X60179Y47929D02*
X60421Y47687D01*
X59950Y47416*
X59908Y47458*
X60179Y47929*
X61004Y48387D02*
X60662D01*
X60803Y48911*
X60862*
X61004Y48387*
X61100Y45536D02*
X60859Y45778D01*
X61330Y46049*
X61371Y46007*
X61100Y45536*
X61179Y47929D02*
X61421Y47687D01*
X60950Y47416*
X60908Y47458*
X61179Y47929*
X61842Y53742D02*
X61836Y54987D01*
G03X61807Y55016I29*
G01X55259Y55021*
G03X55243Y55017J30*
G01X54878Y54790*
G03X54864Y54765I15J25*
X54866Y54754I29*
G02X54880Y54682I183J72*
X54811Y54533I197*
G03X54801Y54510I19J23*
G01X54789Y51777*
G03X54806Y51750I30*
G01X55130Y51603*
G03X55142Y51600I12J27*
G01X56241*
G03X56262Y51609J30*
G01X56481Y51829*
G03X56490Y51849I20J20*
G01Y53305*
X56903Y53718*
X61387Y53713*
X61804*
X61805*
X61812*
G03X61842Y53742J29*
G01X62005Y48380D02*
X61666Y48400D01*
X61849Y48917*
X61891Y48875*
X62005Y48380*
X62179Y47929D02*
X62421Y47687D01*
X61950Y47416*
X61908Y47458*
X62179Y47929*
X62272Y45096D02*
X62622Y45097D01*
X62475Y44139*
X62417Y44173*
X62272Y45096*
X63005Y48381D02*
X62665Y48399D01*
X62846Y48918*
X62888Y48876*
X63005Y48381*
X63093Y67703D02*
X63081Y67762D01*
X63123Y67803*
X63122Y67804*
X63164Y67762*
X63152Y67703*
X63093*
D02*
X63081Y67762D01*
X63123Y67803*
X63122Y67804*
X63164Y67762*
X63152Y67703*
X63093*
D02*
X63081Y67762D01*
X63123Y67803*
X63122Y67804*
X63164Y67762*
X63152Y67703*
X63093*
X63162Y47794D02*
X63504D01*
X63362Y47270*
X63303*
X63162Y47794*
X64009Y48325D02*
X63695Y48452D01*
X64016Y48848*
X64051Y48800*
X64009Y48325*
G37*
G54D10*
X78740Y41832D02*
Y41831D01*
G02X76772Y39862I1968*
G01X73418*
G03X73033Y39552J393*
G02X47227Y13329I33663J7318*
G03X46965Y13122I90J383*
G01X40888Y969*
G03X40884Y961I352J176*
G02X39370Y0I1514J712*
X37856Y962J1673*
G03X37852Y970I356J168*
G01X31776Y13122*
G03X31513Y13329I352J176*
G02X5708Y39552I7857J33541*
G03X5323Y39862I385J83*
G01X1992*
G02X47Y41529J1969*
G01X0Y41831*
Y51656*
Y51658*
G02Y51665I1969J7*
Y51672I1969*
G01Y51673*
G02X1969Y53642I1969*
G01X5272*
G03X5658Y53954J393*
G02X31425Y80390I33712J7084*
G03X31687Y80597I90J383*
G01X37852Y92929*
G03X37856Y92937I352J176*
G02X39370Y93898I1514J713*
X40887Y92932J1674*
G03X40891Y92923I356J167*
G01X47054Y80597*
G03X47315Y80390I352J176*
G02X73083Y53954I7945J33520*
G03X73468Y53642I385J81*
G01X76772*
G02X78740Y51673J1969*
G01Y41850*
Y41848*
G02Y41840I1968J8*
Y41832I1968*
G54D11*
G01X5366Y44134D03*
Y49370D03*
X11665Y44134D03*
Y49370D03*
X12165Y63642D03*
X15276Y67146D03*
X22638Y20098D03*
X27559Y17736D03*
X55748Y19626D03*
X59803Y70886D03*
X60276Y23169D03*
X67965Y44134D03*
Y49370D03*
X74264Y44134D03*
Y49370D03*
G54D12*
X18312Y27768D02*
X19749Y29205D01*
X23113*
X24555Y27763*
X24560Y27768*
X25997Y29205*
X29371*
X30619Y27957*
X36870Y46752D03*
X39370Y44252D03*
Y49252D03*
X41870Y46752D03*
G54D13*
X24560Y27768D02*
Y32159D01*
X26029Y33628*
X31967*
X33958Y35619*
Y43354*
X34713Y44109*
X39370Y46752D03*
G54D14*
X5366Y44134D02*
X7030D01*
X5366D02*
Y45797D01*
Y44134D02*
X3703D01*
X5366D02*
Y42470D01*
Y49370D02*
Y51033D01*
Y49370D02*
X3703D01*
X5366D02*
X7030D01*
X5366D02*
Y47707D01*
X36617Y41960D02*
X36489D01*
X36618Y27117D02*
X36490D01*
X37094Y40245D02*
X36966D01*
X37134Y40147D02*
Y40019D01*
Y40344D02*
Y40471D01*
X37173Y40158D02*
X37301D01*
X37208Y41773D02*
Y41646D01*
Y42147D02*
Y42275D01*
Y26930D02*
Y26802D01*
Y27304D02*
Y27432D01*
X37798Y41960D02*
X37926D01*
X37799Y27117D02*
X37927D01*
X38627Y29223D02*
X38525Y29121D01*
X38627Y29420D02*
X38525Y29522D01*
X38627Y30009D02*
X38525Y29907D01*
X38627Y30206D02*
X38525Y30308D01*
X38627Y30994D02*
X38525Y30892D01*
X38627Y31191D02*
X38525Y31293D01*
X38627Y31585D02*
X38525Y31483D01*
X38627Y31781D02*
X38525Y31883D01*
X38627Y32570D02*
X38525Y32468D01*
X38627Y32767D02*
X38525Y32869D01*
X38627Y33948D02*
X38525Y33846D01*
X38627Y34145D02*
X38525Y34247D01*
X38627Y35282D02*
X38525Y35180D01*
X38627Y35479D02*
X38525Y35581D01*
X38627Y35755D02*
X38525Y35653D01*
X38627Y35952D02*
X38525Y36054D01*
X38627Y36901D02*
X38525Y36799D01*
X38627Y37098D02*
X38525Y37200D01*
X38627Y38034D02*
X38525Y37932D01*
X38627Y38231D02*
X38525Y38333D01*
X38627Y38506D02*
X38525Y38404D01*
X38627Y38703D02*
X38525Y38805D01*
X38705Y29223D02*
X38707Y29095D01*
X38705Y29420D02*
X38707Y29548D01*
X38705Y30009D02*
X38707Y29881D01*
X38705Y30206D02*
X38707Y30334D01*
X38705Y30994D02*
X38707Y30866D01*
X38705Y31191D02*
X38707Y31319D01*
X38705Y31585D02*
X38707Y31457D01*
X38705Y31781D02*
X38707Y31909D01*
X38705Y32570D02*
X38707Y32442D01*
X38705Y32767D02*
X38707Y32895D01*
X38705Y33948D02*
X38707Y33820D01*
X38705Y34145D02*
X38707Y34273D01*
X38705Y35282D02*
X38707Y35154D01*
X38705Y35479D02*
X38707Y35607D01*
X38705Y35755D02*
X38707Y35627D01*
X38705Y35952D02*
X38707Y36080D01*
X38705Y36901D02*
X38707Y36773D01*
X38705Y37098D02*
X38707Y37226D01*
X38705Y38034D02*
X38707Y37906D01*
X38705Y38231D02*
X38707Y38359D01*
X38705Y38506D02*
X38707Y38378D01*
X38705Y38703D02*
X38707Y38831D01*
X38922Y40955D02*
X38794D01*
X38922Y28121D02*
X38794D01*
X38933Y28082D02*
Y27954D01*
X39020Y40916D02*
Y40788D01*
Y29223D02*
X38918Y29121D01*
X39020Y29420D02*
X38918Y29522D01*
X39020Y30009D02*
X38918Y29907D01*
X39020Y30206D02*
X38918Y30308D01*
X39020Y30994D02*
X38918Y30892D01*
X39020Y31191D02*
X38918Y31293D01*
X39020Y32570D02*
X38918Y32468D01*
X39020Y32767D02*
X38918Y32869D01*
X39020Y35755D02*
X38918Y35653D01*
X39020Y35952D02*
X38918Y36054D01*
X39020Y36901D02*
X38918Y36799D01*
X39020Y37098D02*
X38918Y37200D01*
X39020Y38506D02*
X38918Y38404D01*
X39020Y38703D02*
X38918Y38805D01*
X39021Y28160D02*
Y28288D01*
X39099Y29223D02*
X39201Y29121D01*
X39099Y29420D02*
X39201Y29522D01*
X39099Y30009D02*
X39201Y29907D01*
X39099Y30206D02*
X39201Y30308D01*
X39099Y30994D02*
X39201Y30892D01*
X39099Y31191D02*
X39201Y31293D01*
X39099Y32570D02*
X39201Y32468D01*
X39099Y32767D02*
X39201Y32869D01*
X39099Y35755D02*
X39201Y35653D01*
X39099Y35952D02*
X39201Y36054D01*
X39099Y36901D02*
X39201Y36799D01*
X39099Y37098D02*
X39201Y37200D01*
X39099Y38506D02*
X39201Y38404D01*
X39099Y38703D02*
X39201Y38805D01*
X39107Y40995D02*
Y41123D01*
X39119Y40955D02*
X39247D01*
X39119Y28121D02*
X39247D01*
X39360Y92429D02*
X39338Y92301D01*
X39360Y92626D02*
X39338Y92754D01*
X39380Y92429D02*
X39402Y92301D01*
X39380Y92626D02*
X39402Y92754D01*
X39386Y705D02*
X39364Y577D01*
X39386Y902D02*
X39364Y1030D01*
X39406Y705D02*
X39428Y577D01*
X39406Y902D02*
X39428Y1030D01*
X39521Y28027D02*
X39393D01*
X39619Y27988D02*
Y27860D01*
X39677Y41063D02*
X39549D01*
X39717Y28027D02*
X39845D01*
X39775Y41103D02*
Y41231D01*
X39874Y41063D02*
X40002D01*
X39993Y28027D02*
X39865D01*
X39993Y28382D02*
X39891Y28280D01*
X39993Y28460D02*
X39891Y28562D01*
X40091Y27988D02*
Y27860D01*
X40190Y28027D02*
X40318D01*
X40190Y28382D02*
X40292Y28280D01*
X40190Y28460D02*
X40292Y28562D01*
X40464Y40670D02*
X40336D01*
X40464Y41063D02*
X40336D01*
X40465Y28027D02*
X40337D01*
X40562Y40630D02*
Y40502D01*
Y40709D02*
Y40837D01*
Y41103D02*
Y41231D01*
X40564Y27988D02*
Y27860D01*
X40661Y40670D02*
X40788D01*
X40661Y41063D02*
X40788D01*
X40662Y28027D02*
X40790D01*
X41054D02*
X40926D01*
X41054Y28421D02*
X40926D01*
X41153Y27988D02*
Y27860D01*
Y28382D02*
Y28254D01*
Y28460D02*
Y28588D01*
X41250Y41063D02*
X41122D01*
X41251Y28027D02*
X41379D01*
X41251Y28421D02*
X41379D01*
X41349Y41103D02*
Y41231D01*
X41447Y41063D02*
X41575D01*
X41843Y40670D02*
X41715D01*
X41843Y41063D02*
X41715D01*
X41942Y40630D02*
Y40502D01*
Y40709D02*
Y40837D01*
Y41103D02*
Y41231D01*
X42040Y40670D02*
X42168D01*
X42040Y41063D02*
X42168D01*
X42043Y28027D02*
X41915D01*
X42141Y27988D02*
Y27860D01*
X42239Y28027D02*
X42367D01*
X42630Y40670D02*
X42502D01*
X42630Y41063D02*
X42502D01*
X42728Y40630D02*
Y40502D01*
Y40709D02*
Y40837D01*
Y41103D02*
Y41231D01*
X42827Y40670D02*
X42955D01*
X42827Y41063D02*
X42955D01*
X42827Y28027D02*
X42699D01*
X42827Y28421D02*
X42699D01*
X42926Y27988D02*
Y27860D01*
Y28382D02*
Y28254D01*
Y28460D02*
Y28588D01*
X43024Y28027D02*
X43152D01*
X43024Y28421D02*
X43152D01*
X44402Y41063D02*
X44274D01*
X44500Y41103D02*
Y41231D01*
X44599Y41063D02*
X44727D01*
X45779Y40670D02*
X45651D01*
X45779Y41063D02*
X45651D01*
X45877Y40630D02*
Y40502D01*
Y40709D02*
Y40837D01*
Y41103D02*
Y41231D01*
X45976Y40670D02*
X46104D01*
X45976Y41063D02*
X46104D01*
X45976Y28027D02*
X45848D01*
X46074Y27988D02*
Y27860D01*
X46960Y28421D02*
X46832D01*
X47059Y27988D02*
Y27860D01*
Y28382D02*
Y28254D01*
Y28460D02*
Y28588D01*
X47157Y28027D02*
X47285D01*
X47157Y28421D02*
X47285D01*
X47159Y40670D02*
X47031D01*
X47159Y41063D02*
X47031D01*
X47258Y40630D02*
Y40502D01*
Y40709D02*
Y40837D01*
Y41103D02*
Y41231D01*
X47356Y40670D02*
X47484D01*
X47356Y41063D02*
X47484D01*
X47944D02*
X47816D01*
X48043Y41103D02*
Y41231D01*
X48141Y41063D02*
X48269D01*
X48338Y28027D02*
X48210D01*
X48437Y27988D02*
Y27860D01*
X48535Y28027D02*
X48663D01*
X49323Y40670D02*
X49195D01*
X49323Y41063D02*
X49195D01*
X49421Y40630D02*
Y40502D01*
Y40709D02*
Y40837D01*
Y41103D02*
Y41231D01*
X49519Y28027D02*
X49391D01*
X49519Y28421D02*
X49391D01*
X49520Y40670D02*
X49648D01*
X49520Y41063D02*
X49648D01*
X49618Y27988D02*
Y27860D01*
Y28382D02*
Y28254D01*
Y28460D02*
Y28588D01*
X49716Y28027D02*
X49844D01*
X49716Y28421D02*
X49844D01*
X50170Y41063D02*
X50042D01*
X50268Y41103D02*
Y41231D01*
X50367Y41063D02*
X50495D01*
X50642D02*
X50514D01*
X50659Y27988D02*
Y27860D01*
X50702Y28027D02*
X50830D01*
X50741Y41103D02*
Y41231D01*
X50839Y41063D02*
X50967D01*
X51256Y40956D02*
X51128D01*
X51256Y28082D02*
X51128D01*
X51276Y29205D02*
X51174Y29103D01*
X51276Y29402D02*
X51174Y29504D01*
X51276Y30598D02*
X51149Y30572D01*
X51276Y30795D02*
X51174Y30897D01*
X51276Y31289D02*
X51149D01*
X51276Y33457D02*
X51149D01*
X51276Y36583D02*
X51149D01*
X51276Y37983D02*
X51149D01*
X51276Y39361D02*
X51149D01*
X51276Y40150D02*
X51149D01*
X51276Y28831D02*
X51149D01*
X51316Y31191D02*
Y31063D01*
Y31388D02*
Y31516D01*
Y33358D02*
Y33230D01*
Y33555D02*
Y33683D01*
Y36485D02*
Y36357D01*
Y36682D02*
Y36809D01*
Y37884D02*
Y37756D01*
Y38081D02*
Y38209D01*
Y39263D02*
Y39135D01*
Y39459D02*
Y39587D01*
Y40051D02*
Y39923D01*
Y40248D02*
Y40376D01*
Y28733D02*
Y28605D01*
Y28930D02*
Y29058D01*
X51355Y40917D02*
Y40789D01*
Y28082D02*
Y27954D01*
Y29205D02*
X51457Y29103D01*
X51355Y29402D02*
X51457Y29504D01*
X51355Y30598D02*
X51483Y30572D01*
X51355Y30795D02*
X51457Y30897D01*
X51355Y31289D02*
X51483D01*
X51355Y33457D02*
X51483D01*
X51355Y36583D02*
X51483D01*
X51355Y37983D02*
X51483D01*
X51355Y39361D02*
X51483D01*
X51355Y40150D02*
X51483D01*
X51355Y28831D02*
X51483D01*
X51442Y40995D02*
Y41123D01*
X51453Y40956D02*
X51581D01*
X51453Y28097D02*
X51581D01*
X51710Y29205D02*
Y29077D01*
Y29402D02*
Y29530D01*
Y29678D02*
Y29550D01*
Y30795D02*
Y30923D01*
Y31191D02*
Y31063D01*
Y31388D02*
Y31516D01*
Y31781D02*
Y31653D01*
Y33358D02*
Y33230D01*
Y33555D02*
Y33683D01*
Y36485D02*
Y36357D01*
Y36682D02*
Y36809D01*
Y37096D02*
Y36968D01*
Y37293D02*
Y37421D01*
Y37884D02*
Y37756D01*
Y38081D02*
Y38209D01*
Y39263D02*
Y39135D01*
Y39459D02*
Y39587D01*
Y40051D02*
Y39923D01*
Y28733D02*
Y28605D01*
Y28930D02*
Y29058D01*
Y35523D02*
Y35395D01*
Y35720D02*
Y35848D01*
X51742Y40248D02*
Y40376D01*
X51749Y29304D02*
X51877D01*
X51749Y29776D02*
X51877D01*
X51749Y30696D02*
X51877D01*
X51749Y31289D02*
X51877D01*
X51749Y31880D02*
X51877D01*
X51749Y33457D02*
X51877D01*
X51749Y36583D02*
X51877D01*
X51749Y37194D02*
X51877D01*
X51749Y37983D02*
X51877D01*
X51749Y39361D02*
X51877D01*
X51749Y40150D02*
X51877D01*
X51749Y28831D02*
X51877D01*
X51749Y35622D02*
X51877D01*
X52576Y27118D02*
X52448D01*
X52576Y41960D02*
X52448D01*
X53166Y26931D02*
Y26803D01*
Y27305D02*
Y27433D01*
Y41773D02*
Y41646D01*
Y42147D02*
Y42275D01*
X53757Y27118D02*
X53885D01*
X53757Y41960D02*
X53885D01*
X74264Y44134D02*
X72600D01*
X74264D02*
Y42470D01*
Y44134D02*
X75927D01*
X74264D02*
Y45797D01*
Y49370D02*
X72600D01*
X74264D02*
Y51033D01*
Y49370D02*
X75927D01*
X74264D02*
Y47707D01*
G54D15*
X16081Y47742D02*
X15898Y47559D01*
X16081Y47939D02*
X15898Y48122D01*
X16278Y47742D02*
X16461Y47559D01*
X16278Y47939D02*
X16461Y48122D01*
X21695Y45526D02*
X21512Y45342D01*
X21695Y45722D02*
X21512Y45906D01*
X21892Y45526D02*
X22075Y45342D01*
X21892Y45722D02*
X22075Y45906D01*
X38389Y40898D02*
X38468D01*
X38960Y40406*
X38391Y28279D02*
X38056D01*
Y28260*
X37976Y28180*
X37208*
X39060Y29321D02*
Y28869D01*
X38469Y28279*
X38391*
X39060Y31093D02*
X40152D01*
X39227Y35853D02*
X39060D01*
X39227D02*
X39401D01*
X39402Y35852*
X39235Y37007D02*
X39227Y36999D01*
X39060*
X39235Y32677D02*
X39227Y32669D01*
X39060*
X39402Y35852D02*
X40393D01*
X39597Y29917D02*
X39592D01*
X39236Y29561*
Y29556*
X39060Y29380*
Y29321*
X39597Y29917D02*
X39406Y30108D01*
X39060*
X39625Y29917D02*
X39597D01*
X39764Y31683D02*
X39060D01*
X39768Y35381D02*
X39060D01*
X39768Y38132D02*
X39060D01*
X39768Y34047D02*
X39060D01*
X40152Y31093D02*
X40373Y30871D01*
X40383Y30881*
X40393Y30660D02*
X40256Y30523D01*
X40232*
X39625Y29917*
X40393Y32677D02*
X39235D01*
X40393Y37007D02*
X39235D01*
X40562Y39904D02*
Y40670D01*
X40564Y28421D02*
Y28945D01*
X40581Y28962*
Y29516*
X41349Y40670D02*
Y39852D01*
Y39560*
X41957Y38987D02*
Y39532D01*
Y38987D02*
X41478D01*
X40562Y39904*
X41957Y39532D02*
X41942Y39548D01*
Y40670*
X42141Y29517D02*
Y28421D01*
X42664Y38987D02*
Y39713D01*
X42728Y39777*
Y40670*
X42924Y28751D02*
Y30104D01*
X42926Y28421D02*
Y28750D01*
X44500Y40670D02*
Y39561D01*
X45888Y38987D02*
Y39537D01*
X45877Y39548*
Y40670*
X46074Y28421D02*
Y29515D01*
X47253Y38987D02*
Y39742D01*
X47258Y39747*
Y40670*
X48043D02*
Y39564D01*
X48437Y28421D02*
Y29221D01*
X48436*
Y29514*
X48929Y38987D02*
Y39869D01*
X49421Y40361*
Y40670*
X48952Y30086D02*
Y29732D01*
X49210Y29474*
X49618*
X49292Y38624D02*
X50824Y40156D01*
X49577Y33457D02*
X50133D01*
X50134*
X51316*
X49577Y36571D02*
X50121D01*
X50134Y36583*
X51316*
X49577Y37940D02*
X49996D01*
X50039Y37983*
X51316*
X49577Y38340D02*
X50598Y39361D01*
X51316*
X49618Y29474D02*
Y28421D01*
X49697Y31179D02*
X49798Y31078D01*
X50427*
X50209Y40670D02*
X49600Y40061D01*
Y40043*
X49438Y39881*
Y39564*
X50214Y31880D02*
X51316D01*
X50427Y31078D02*
X50808Y30696D01*
X51316*
X50427Y31078D02*
X50638Y31289D01*
X51316*
X50824Y40156D02*
X51142D01*
X51149Y40150*
X51316*
Y29304D02*
X51298Y29286D01*
X51316Y29268*
Y28831*
Y29304D02*
X50403D01*
X50233Y29474*
X49618*
X51316Y29776D02*
X50830D01*
X50459Y30147*
X51316Y37194D02*
X50507D01*
X50214*
X51316Y28831D02*
Y28556D01*
X51455*
X51650Y28360*
Y28279*
X51985*
X51316Y35622D02*
X50497D01*
X50496Y35623*
X50214*
X51324Y29785D02*
X51316Y29776D01*
X51984Y40799D02*
X51906D01*
X51690Y40584*
X51687*
X51492Y40389*
Y40385*
X51316Y40209*
Y40150*
X51984Y40799D02*
X52319D01*
Y40818*
X52399Y40897*
X53166*
X51985Y28279D02*
X52319D01*
Y28260*
X52399Y28181*
X53166*
X57734Y47742D02*
X57551Y47559D01*
X57734Y47939D02*
X57508Y47997D01*
X57931Y47742D02*
X57993Y47516D01*
X57931Y47939D02*
X58114Y48122D01*
X58328Y47836D02*
X58315Y47823D01*
X58833Y48633D02*
Y48341D01*
X63348Y45526D02*
X63165Y45342D01*
G54D16*
X2898Y42209D03*
Y43209D03*
Y44209D03*
Y45209D03*
Y46209D03*
Y47209D03*
Y48209D03*
Y49209D03*
Y50209D03*
Y51209D03*
X4472Y42209D03*
Y46209D03*
Y47209D03*
Y51209D03*
X6047Y42209D03*
Y46209D03*
Y47209D03*
Y51209D03*
X7622Y42209D03*
Y43209D03*
Y44209D03*
Y45209D03*
Y46209D03*
Y47209D03*
Y48209D03*
Y49209D03*
Y50209D03*
Y51209D03*
X9053Y35248D03*
X9185Y42571D03*
Y43358D03*
Y44146D03*
Y44933D03*
Y45720D03*
Y48409D03*
Y49196D03*
Y49983D03*
Y50771D03*
Y51558D03*
Y52346D03*
Y53133D03*
Y53886D03*
X9354Y47005D03*
X9970Y45344D03*
X10134Y60375D03*
X10169Y53886D03*
X10244Y46657D03*
X10275Y51037D03*
X10331Y42269D03*
X10495Y52797D03*
X10722Y47265D03*
X10809Y45962D03*
X10966Y32333D03*
X11012Y36023D03*
X11153Y53886D03*
X11228Y51477D03*
X11591Y46614D03*
X11619Y52748D03*
X12137Y53886D03*
X12286Y46006D03*
X12330Y47222D03*
X12450Y51380D03*
X12916Y46636D03*
X13122Y53886D03*
X13133Y42291D03*
X13134Y52772D03*
X13208Y50769D03*
X13259Y28499D03*
Y31232D03*
X13459Y47309D03*
X13880Y25183D03*
X13940Y25972D03*
X14106Y42571D03*
Y43358D03*
Y44146D03*
Y44933D03*
Y45720D03*
Y48409D03*
Y49196D03*
Y49983D03*
Y50771D03*
Y51558D03*
Y52346D03*
Y53133D03*
Y53886D03*
X14174Y39633D03*
X14487Y24211D03*
X14564Y27768D02*
X14974Y28179D01*
X14564Y27768D02*
X14153Y28179D01*
X14564Y27768D02*
X14153Y27357D01*
X14564Y27768D02*
X14974Y27357D01*
X14564Y37016D02*
X14974Y37427D01*
X14564Y37016D02*
X14153Y36605D01*
X14564Y37016D02*
X14153Y37427D01*
X14564Y37016D02*
X14974Y36605D01*
X14811Y40222D03*
X14859Y40830D03*
X14954Y47590D03*
X15064Y25881D03*
X15130Y49331D03*
X15143Y48333D03*
X15149Y38262D03*
X15178Y39005D03*
X15246Y24181D03*
X15248Y44233D03*
X15323Y41853D03*
X15342Y41091D03*
X15352Y42519D03*
X15392Y43058D03*
X15525Y40415D03*
X15603Y43591D03*
X15615Y37391D03*
X15641Y25881D03*
X15747Y38774D03*
X15762Y24181D03*
X15854Y36391D03*
X15884Y23057D03*
X16018Y40849D03*
X16192Y38339D03*
X16230Y39604D03*
X16250Y49331D03*
X16301Y43397D03*
X16511Y55760D03*
X16533Y51501D03*
X17039Y37545D03*
X17090Y38729D03*
X17125Y40805D03*
X17176Y40307D03*
X17348Y36687D03*
X17433Y42349D03*
X17648Y72355D03*
X17663Y71110D03*
X17768Y33434D03*
X17794Y38797D03*
X17811Y41989D03*
X17828Y40342D03*
X17845Y38025D03*
X17862Y41148D03*
X18031Y42632D03*
X18034Y35606D03*
X18070Y22511D03*
X18133Y31248D03*
X18325Y43666D03*
Y52958D03*
X18630Y35019D03*
X18644Y38425D03*
Y39212D03*
Y40000D03*
Y40787D03*
Y41574D03*
Y42362D03*
X18760Y36105D03*
X19015Y73707D03*
X19091Y69152D03*
X19136Y67618D03*
X19274Y54788D03*
X19285Y20537D03*
X19416Y39128D03*
X19418Y50833D03*
X19510Y35366D03*
X19560Y37016D02*
X19971Y36605D01*
X19560Y37016D02*
X19971Y37427D01*
X19560Y37016D02*
X19149Y37427D01*
X19560Y37016D02*
X19149Y36605D01*
X19568Y41692D03*
X19655Y40345D03*
X19931Y43612D03*
X19983Y23938D03*
X20014Y25061D03*
Y26124D03*
X20114Y42573D03*
X20123Y68149D03*
X20215Y34758D03*
X20230Y69546D03*
X20285Y39628D03*
Y40605D03*
X20287Y22662D03*
X20290Y73737D03*
X20437Y38455D03*
X20745Y35417D03*
X20808Y37016D02*
X21219Y37427D01*
X20808Y37016D02*
X20397Y36605D01*
X20808Y37016D02*
X21219Y36605D01*
X20808Y37016D02*
X20397Y37427D01*
X20812Y27768D02*
X20231D01*
X20812D02*
Y27187D01*
Y27768D02*
X21393D01*
X20823Y60770D03*
X20866Y31248D03*
X20894Y23998D03*
X20915Y41778D03*
X21107Y26124D03*
X21139Y33297D03*
X21241Y37890D03*
X21323Y69516D03*
X21349Y40301D03*
X21414Y38933D03*
X21453Y50742D03*
Y52290D03*
Y34737D03*
X21475Y73676D03*
X21594Y42741D03*
X21632Y42104D03*
X21714Y22571D03*
X21784Y36934D03*
X21805Y26033D03*
X21836Y24059D03*
X21998Y35383D03*
X22115Y41164D03*
X22153Y38650D03*
X22305Y40627D03*
X22348Y37499D03*
X22435Y39650D03*
X22522Y73676D03*
X22657Y45461D03*
X22691Y34671D03*
X22799Y36061D03*
X22979Y60831D03*
X23127Y40557D03*
X23160Y69698D03*
X23166Y38588D03*
X23172Y22571D03*
X23250Y35366D03*
X23662Y36498D03*
Y37648D03*
X23786Y40212D03*
Y41707D03*
X23798Y34802D03*
X23809Y40906D03*
X23916Y47874D03*
X23924Y38557D03*
X24175Y56544D03*
X24205Y58781D03*
X24237Y42332D03*
X24333Y41725D03*
X24354Y40781D03*
X24365Y35383D03*
X24421Y38427D03*
X24520Y45219D03*
X24880Y38134D03*
Y38921D03*
Y39708D03*
Y40496D03*
Y41283D03*
Y42071D03*
X25040Y45270D03*
X25058Y35975D03*
X25080Y34910D03*
X25233Y46216D03*
X25605Y45286D03*
X25687Y35383D03*
X25712Y59039D03*
X25723Y21805D03*
X25805Y41103D03*
X25920Y39350D03*
X25949Y42377D03*
X25975Y45959D03*
X26178Y25843D03*
X26208Y24021D03*
X26428Y46169D03*
X26486Y50389D03*
X26577Y63256D03*
X26581Y51704D03*
X26587Y38264D03*
X26688Y41682D03*
X26723Y53358D03*
X26731Y40523D03*
X26760Y39626D03*
X26785Y26154D03*
X26818Y42565D03*
X26922Y35417D03*
X27060Y27768D02*
X26479D01*
X27060D02*
Y27187D01*
Y27768D02*
X27641D01*
X27060Y37016D02*
X26649Y37427D01*
X27060Y37016D02*
X27471Y37427D01*
X27060Y37016D02*
X27471Y36605D01*
X27060Y37016D02*
X26649Y36605D01*
X27274Y54711D03*
X27295Y35975D03*
X27302Y26124D03*
X27337Y76685D03*
X27370Y46433D03*
X27513Y41494D03*
X27561Y31384D03*
X27731Y40176D03*
X27760Y39003D03*
X27904Y42652D03*
X27909Y24090D03*
X27917Y35417D03*
X27933Y38134D03*
X27962Y42102D03*
X28000Y26124D03*
X28122Y37164D03*
X28201Y51714D03*
X28235Y50399D03*
X28287Y54617D03*
X28289Y46136D03*
X28291Y53343D03*
X28351Y75649D03*
X28469Y41276D03*
X28542Y76706D03*
X28663Y36105D03*
X28715Y39698D03*
X28718Y60523D03*
X28737Y46409D03*
X28763Y62846D03*
X29015Y35434D03*
X29184Y21964D03*
X29286Y54571D03*
X29289Y53358D03*
X29296Y41077D03*
X29353Y73144D03*
X29376Y36464D03*
X29401Y38472D03*
X29622Y40236D03*
X29767Y76726D03*
X29775Y45870D03*
X29828Y38057D03*
X29845Y38829D03*
X29879Y40648D03*
X29972Y51730D03*
X30011Y37270D03*
X30014Y74487D03*
X30053Y36257D03*
X30203Y31293D03*
X30239Y40236D03*
X30247Y53350D03*
X30285Y35623D03*
X30321Y54555D03*
X30394Y38469D03*
Y39069D03*
X30581Y22662D03*
X30682Y46799D03*
X30865Y17266D03*
X30880Y76685D03*
X30902Y72255D03*
X30920Y36018D03*
X30943Y38795D03*
X30960Y38057D03*
X31048Y46450D03*
X31168Y51730D03*
X31175Y18913D03*
X31225Y50436D03*
X31414Y46799D03*
X31431Y15215D03*
X31461Y54576D03*
X31466Y53350D03*
X31706Y30154D03*
X31780Y46450D03*
X32041Y73645D03*
X32125Y76696D03*
X32146Y46799D03*
X32160Y22905D03*
X32295Y18953D03*
X32349Y17496D03*
X32511Y46450D03*
X32743Y51714D03*
X32877Y46799D03*
X32916Y24265D03*
X33025Y53343D03*
X33028Y54571D03*
X33243Y46450D03*
X33271Y75057D03*
X33275Y49790D03*
X33320Y76696D03*
X33337Y51714D03*
X33339Y71230D03*
X33609Y46799D03*
X33936Y55839D03*
X33975Y46452D03*
X34030Y58875D03*
X34172Y63956D03*
X34233Y61588D03*
X34340Y46800D03*
X34348Y48981D03*
X34370Y16267D03*
X34432Y73235D03*
X34464Y76696D03*
X34532Y20445D03*
X34545Y29577D03*
X34577Y53350D03*
X34606Y54571D03*
X34691Y51722D03*
X34706Y46452D03*
X34768Y20208D03*
X34870Y18708D03*
X35005Y20445D03*
X35068Y47969D03*
X35072Y46800D03*
X35242Y20208D03*
X35326Y28364D03*
X35370Y16267D03*
X35385Y53343D03*
X35393Y54581D03*
X35548Y71982D03*
X35594Y74351D03*
X35633Y76655D03*
X35870Y18708D03*
X35968Y39090D03*
X36002Y49231D03*
X36034Y17509D03*
X36113Y62368D03*
X36178Y30125D03*
Y30855D03*
Y31584D03*
Y32314D03*
Y33043D03*
Y33773D03*
Y34506D03*
X36320Y62951D03*
X36388Y39257D03*
X36456Y51722D03*
X36465Y50486D03*
X36527Y30490D03*
Y31219D03*
Y31949D03*
Y32678D03*
Y33408D03*
Y34140D03*
X36585Y62361D03*
Y38550D03*
X36733Y72984D03*
X36810Y39837D03*
X36817Y39421D03*
X36824Y75490D03*
X36863Y76731D03*
X36874Y62919D03*
X36991Y36693D03*
X36998Y36102D03*
X37100Y17482D03*
X37134Y33163D03*
X37187Y30785D03*
X37224Y39766D03*
X37262Y13089D03*
X37318Y43361D03*
X37320Y29728D03*
X37357Y37986D03*
X37406Y36618D03*
X37512Y38399D03*
X37513Y35625D03*
X37527Y40245D03*
X37547Y33272D03*
X37593Y29236D03*
X37601Y30711D03*
X37611Y37405D03*
X37616Y34925D03*
X37636Y30020D03*
X37645Y32659D03*
X37651Y51706D03*
X37652Y50471D03*
X37681Y31704D03*
X37744Y53350D03*
X37748Y26295D03*
X37757Y54571D03*
X37768Y31211D03*
X37792Y32221D03*
X37917Y74442D03*
X37963Y70160D03*
X38001Y76731D03*
X38040Y50494D03*
X38253Y51691D03*
X38386Y17421D03*
X38811Y27293D03*
X38950Y40150D03*
X39020Y41349D03*
X39021Y27727D03*
X39031Y42650D03*
X39060Y29321D03*
Y30108D03*
Y31093D03*
Y31683D03*
Y32669D03*
Y34047D03*
Y35381D03*
Y35853D03*
Y36999D03*
Y38132D03*
Y38605D03*
X39122Y63835D03*
X39370Y92900D03*
X39396Y437D03*
X39420Y71709D03*
X39456Y59098D03*
X39581Y41926D03*
X39619Y28421D03*
X39764Y31683D03*
X39768Y35381D03*
Y38132D03*
Y34047D03*
X39775Y40670D03*
X40091Y28421D03*
X40377Y74601D03*
X40562Y40670D03*
X40564Y28421D03*
X40565Y50494D03*
X40581Y29516D03*
X40612Y51714D03*
X40644Y27135D03*
X40795Y41999D03*
X40903Y54565D03*
X40911Y53350D03*
X41087Y31126D03*
Y32701D03*
Y34276D03*
Y35850D03*
Y37425D03*
X41153Y28421D03*
X41236Y26986D03*
X41264Y26020D03*
X41349Y39560D03*
Y40670D03*
X41361Y13515D03*
X41537Y26712D03*
X41674Y25174D03*
Y25647D03*
X41752Y42124D03*
X41789Y72870D03*
X41812Y69682D03*
X41911Y24938D03*
Y25411D03*
X41915Y76718D03*
X41942Y40670D03*
X42141Y28421D03*
Y29517D03*
X42249Y56365D03*
X42344Y42158D03*
X42661Y31126D03*
Y32701D03*
Y34276D03*
Y35850D03*
Y37425D03*
X42728Y40670D03*
X42735Y61011D03*
X42761Y42128D03*
X42871Y49041D03*
Y53358D03*
Y54555D03*
X42926Y28421D03*
X42964Y50471D03*
Y51691D03*
X43019Y74943D03*
X43043Y26832D03*
X43069Y76688D03*
X43109Y42522D03*
X43156Y71185D03*
X43160Y64442D03*
X43220Y22260D03*
X43457Y53337D03*
X43463Y54555D03*
X43492Y24061D03*
X43525Y42423D03*
X43557Y50471D03*
X43702Y26902D03*
X43757Y51961D03*
X44015Y42094D03*
X44048Y54549D03*
X44059Y53358D03*
X44106Y28403D03*
X44143Y50502D03*
X44159Y51730D03*
X44236Y31126D03*
Y32701D03*
Y34276D03*
Y35850D03*
Y37425D03*
X44249Y73053D03*
X44286Y20654D03*
X44294Y69887D03*
X44314Y76718D03*
X44466Y26633D03*
X44500Y39561D03*
Y40670D03*
X44518Y42994D03*
X44550Y13484D03*
X44592Y49325D03*
X44612Y47908D03*
X44645Y54565D03*
X44650Y53343D03*
X44703Y26870D03*
X44786Y23529D03*
X44799Y43212D03*
X44939Y26633D03*
X45015Y18697D03*
X45137Y25162D03*
X45176Y26870D03*
X45179Y43323D03*
X45226Y42104D03*
X45231Y53358D03*
X45236Y54560D03*
X45323Y43994D03*
X45347Y61497D03*
Y64048D03*
X45365Y75057D03*
X45407Y57215D03*
X45411Y71276D03*
X45438Y76668D03*
X45492Y50177D03*
X45644Y42249D03*
X45708Y26773D03*
X45729Y49826D03*
X45743Y46584D03*
X45747Y25661D03*
X45766Y43240D03*
X45811Y31126D03*
Y32701D03*
Y34276D03*
Y35850D03*
Y37425D03*
X45877Y40670D03*
X45926Y20973D03*
X45967Y49478D03*
X46074Y28421D03*
Y29515D03*
X46251Y22608D03*
X46257Y22938D03*
X46259Y42215D03*
Y22275D03*
X46297Y51691D03*
X46326Y50485D03*
X46402Y53353D03*
X46408Y54560D03*
X46481Y72984D03*
X46612Y76708D03*
X46617Y50191D03*
X46640Y69796D03*
X46678Y42213D03*
X46687Y26029D03*
X46837Y16497D03*
X46854Y49781D03*
X46938Y51691D03*
X46958Y26892D03*
X46967Y26519D03*
Y53358D03*
X46999Y54560D03*
X47059Y28421D03*
X47091Y49432D03*
X47099Y20991D03*
X47258Y40670D03*
X47260Y55515D03*
X47347Y44552D03*
Y45046D03*
X47351Y64473D03*
X47374Y19037D03*
X47386Y31126D03*
Y32701D03*
Y34276D03*
Y35850D03*
Y37425D03*
X47398Y19955D03*
X47412Y58976D03*
X47415Y49043D03*
X47469Y18269D03*
X47484Y51714D03*
X47503Y62499D03*
X47595Y54560D03*
X47600Y53358D03*
X47688Y73964D03*
X47802Y69704D03*
X47832Y50326D03*
X47872Y20295D03*
X48043Y39564D03*
Y40670D03*
X48046Y41994D03*
X48086Y51706D03*
X48176Y26295D03*
X48181Y54560D03*
X48252Y27156D03*
X48284Y18237D03*
X48289Y42337D03*
X48308Y49880D03*
X48436Y29514D03*
X48437Y28421D03*
X48469Y25637D03*
X48521Y20295D03*
X48611Y26977D03*
X48626Y42636D03*
X48688Y51691D03*
X48689Y50083D03*
X48773Y24962D03*
X48777Y53353D03*
Y54549D03*
X48955Y50403D03*
X48961Y32701D03*
Y34276D03*
Y35850D03*
Y37425D03*
X48968Y26599D03*
X49018Y49335D03*
X49027Y28299D03*
X49036Y20612D03*
X49040Y42422D03*
X49043Y21475D03*
X49059Y18656D03*
X49067Y19749D03*
X49075Y22156D03*
X49234Y41921D03*
X49259Y48988D03*
X49310Y17100D03*
X49383Y26611D03*
X49421Y40670D03*
X49438Y39564D03*
X49456Y18293D03*
X49598Y56335D03*
X49604Y50169D03*
X49618Y28421D03*
X49732Y26946D03*
X49733Y42496D03*
X49780Y60616D03*
X49859Y50506D03*
X49867Y51698D03*
X49919Y16280D03*
X49970Y26222D03*
X50019Y15684D03*
X50023Y42192D03*
X50054Y63805D03*
X50078Y49720D03*
X50095Y17072D03*
X50097Y28407D03*
X50213Y30519D03*
X50214Y31880D03*
Y35623D03*
Y37194D03*
X50232Y27040D03*
X50268Y40670D03*
X50329Y53353D03*
X50334Y54560D03*
X50390Y16270D03*
X50445Y51698D03*
X50604Y28421D03*
X50741Y40670D03*
X50742Y50329D03*
X50785Y32347D03*
X50952Y53358D03*
X50982Y17040D03*
X50994Y28385D03*
X51003Y16266D03*
X51019Y15684D03*
X51046Y15186D03*
X51055Y51722D03*
X51316Y29304D03*
Y29776D03*
Y30696D03*
Y31289D03*
Y31880D03*
Y33457D03*
Y36583D03*
Y37194D03*
Y37983D03*
Y39361D03*
Y40150D03*
Y28831D03*
Y35622D03*
X51336Y50004D03*
X51355Y41350D03*
X51369Y15684D03*
X51523Y54562D03*
X51533Y53343D03*
X51538Y17044D03*
X51641Y51698D03*
X51919Y50341D03*
X52005Y17072D03*
X52223Y26620D03*
X52227Y51691D03*
X52338Y42200D03*
X52489Y49991D03*
X52514Y41441D03*
X52603Y39533D03*
X52604Y62469D03*
X52609Y38160D03*
X52704Y53343D03*
X52712Y29123D03*
X52718Y42406D03*
X52763Y34488D03*
X52765Y34193D03*
X52786Y33187D03*
X52797Y51706D03*
X52807Y43244D03*
X52809Y43660D03*
X52880Y42829D03*
X52903Y35838D03*
X52917Y38609D03*
X52928Y36529D03*
X53011Y47516D03*
X53092Y45168D03*
X53104Y50357D03*
X53234Y43570D03*
X53236Y33141D03*
X53249Y31092D03*
X53306Y53327D03*
X53398Y51706D03*
X53497Y49358D03*
X53513Y56084D03*
X53653Y36470D03*
X53778Y34549D03*
Y34884D03*
X53960Y51691D03*
X54006Y50423D03*
X54036Y32946D03*
X54080Y54588D03*
Y53322D03*
X54104Y57961D03*
X54274Y59827D03*
X54499Y51691D03*
X54547Y33825D03*
X54584Y50338D03*
X54683Y54682D03*
X55100Y52126D03*
X55128Y33487D03*
X55163Y53068D03*
X55476Y33138D03*
X55494Y47344D03*
X55598Y51910D03*
X55617Y52672D03*
X55649Y50366D03*
X55824Y33487D03*
X56061Y53049D03*
X56160Y52199D03*
X56173Y33138D03*
X56521Y33487D03*
X56864Y58083D03*
X56870Y33138D03*
X57087Y47965D03*
X57150Y37278D03*
X57172Y41512D03*
X57218Y33487D03*
X57244Y35213D03*
X57298Y43446D03*
X57487Y34435D03*
X57566Y33138D03*
X57915Y33487D03*
X57919Y36253D03*
X58235Y53502D03*
X58263Y33138D03*
X58498Y55962D03*
X58594Y39775D03*
X58621Y44319D03*
X58632Y33483D03*
X58828Y41377D03*
X59440Y43455D03*
X60095Y64101D03*
X60674Y64587D03*
X60833Y49998D03*
X60874Y51901D03*
X60914Y53156D03*
X61023Y43617D03*
X61043Y29344D03*
X61063Y54010D03*
X61071Y54944D03*
X61109Y54608D03*
X61381Y49105D03*
X61391Y53872D03*
X61395Y54894D03*
X61516Y30252D03*
X61620Y54627D03*
X61696Y64596D03*
X61697Y53998D03*
X61719Y54929D03*
X61851Y44355D03*
X62026Y41376D03*
X62304Y67845D03*
X62394Y40857D03*
X62446Y43629D03*
X62472Y65806D03*
Y66766D03*
X62473Y66299D03*
X62521Y32980D03*
Y34255D03*
Y36340D03*
X62666Y51892D03*
Y52619D03*
X62667Y51112D03*
Y53372D03*
X62865Y31806D03*
X62987Y32980D03*
X63142Y37683D03*
X63160Y44243D03*
X63172Y34546D03*
Y34940D03*
X63232Y66418D03*
X63237Y65711D03*
X63253Y66069D03*
X63288Y60161D03*
X63419Y29330D03*
X63507Y43859D03*
X63544Y43407D03*
X63601Y64208D03*
X63614Y31826D03*
X63638Y66418D03*
X63654Y66080D03*
X63707Y65732D03*
X63988Y64070D03*
X64096Y67845D03*
X64119Y65336D03*
X64132Y31047D03*
X64140Y66444D03*
Y30651D03*
X64161Y66096D03*
X64182Y65705D03*
X64202Y32292D03*
X64334Y64210D03*
X64414Y34744D03*
X64631Y66439D03*
X64641Y65726D03*
X64652Y66101D03*
X64673Y58833D03*
X64852Y67877D03*
X64885Y68937D03*
X64971Y29168D03*
X65385Y31158D03*
X65397Y66048D03*
Y66535D03*
X65403Y65572D03*
X65440Y67866D03*
X65452Y44428D03*
X65601Y47180D03*
X65615Y43647D03*
X65629Y46094D03*
Y48151D03*
X65658Y45008D03*
X65673Y49251D03*
Y51177D03*
X65716Y42648D03*
Y50221D03*
X65720Y36948D03*
X65898Y64838D03*
X65925Y64254D03*
Y61241D03*
Y61954D03*
Y63407D03*
X66206Y33000D03*
X66397Y50830D03*
X66461Y62274D03*
Y63386D03*
X66600Y42199D03*
X66609Y31142D03*
X66620Y29859D03*
X66672Y47745D03*
X66762Y61241D03*
Y61954D03*
X66808Y35645D03*
X66815Y34744D03*
X66822Y33841D03*
X66889Y45949D03*
X66904Y51351D03*
X66975Y36867D03*
X67072Y63403D03*
X67087Y61547D03*
X67402Y62821D03*
X67604Y58597D03*
Y59090D03*
X67675Y60484D03*
Y62031D03*
X67764Y33020D03*
X67784Y32172D03*
X67786Y30222D03*
X67832Y29249D03*
X67886Y36158D03*
X67947Y34640D03*
X67975Y51409D03*
X67987Y33729D03*
X68013Y46776D03*
X68410Y42098D03*
X68480Y30963D03*
X68661Y62013D03*
X69216Y61546D03*
X69228Y42489D03*
X69250Y47716D03*
X69308Y45718D03*
X69424Y51322D03*
X69930Y42257D03*
X70220Y43140D03*
X70278Y44516D03*
X70292Y48151D03*
X70307Y45906D03*
Y50902D03*
X70321Y46818D03*
Y49483D03*
X71870Y42161D03*
Y43161D03*
Y44161D03*
Y45161D03*
Y46161D03*
Y47161D03*
Y48161D03*
Y49161D03*
Y50161D03*
Y51161D03*
X73445Y42161D03*
Y46161D03*
Y47161D03*
Y51161D03*
X75020Y42161D03*
Y46161D03*
Y47161D03*
Y51161D03*
X76594Y42161D03*
Y43161D03*
Y44161D03*
Y45161D03*
Y46161D03*
Y47161D03*
Y48161D03*
Y49161D03*
Y50161D03*
Y51161D03*
G54D17*
X33213Y78642D02*
Y79442D01*
X32958Y78642*
X32704Y79442*
Y78642*
X33734Y79442D02*
X33794Y79394D01*
X33855Y79321*
X33891Y79248*
X33916Y79139*
Y78945*
X33891Y78836*
X33855Y78751*
X33794Y78679*
X33734Y78642*
X33601*
X33540Y78679*
X33467Y78751*
X33443Y78836*
X33407Y78945*
Y79139*
X33443Y79248*
X33467Y79321*
X33540Y79394*
X33601Y79442*
X33734*
X34364D02*
Y78642D01*
X34619Y79442D02*
X34110D01*
X35067D02*
Y78642D01*
X35322Y79442D02*
X34813D01*
X35843D02*
X35904Y79394D01*
X35964Y79321*
X36000Y79248*
X36025Y79139*
Y78945*
X36000Y78836*
X35964Y78751*
X35904Y78679*
X35843Y78642*
X35710*
X35649Y78679*
X35576Y78751*
X35552Y78836*
X35516Y78945*
Y79139*
X35552Y79248*
X35576Y79321*
X35649Y79394*
X35710Y79442*
X35843*
X36728Y79054D02*
X36400D01*
X36291Y79018*
X36255Y78982*
X36219Y78909*
Y78788*
X36255Y78715*
X36291Y78679*
X36400Y78642*
X36728*
Y79442*
X36400*
X36291Y79394*
X36255Y79357*
X36219Y79285*
Y79212*
X36255Y79139*
X36291Y79091*
X36400Y79054*
X37128Y78715D02*
X37152Y78679D01*
X37128Y78642*
X37116Y78679*
X37128Y78715*
Y79176D02*
X37152Y79139D01*
X37128Y79091*
X37116Y79139*
X37128Y79176*
X37710Y79430D02*
X38049Y78909D01*
X37540*
X37710Y79430D02*
Y78642D01*
G54D18*
X18559Y44858D02*
X19028D01*
X20028D02*
X19559D01*
X30619Y27957D02*
X30808Y27768D01*
X31496Y21161D02*
X31831Y21496D01*
X33954*
X35005Y20445*
X32056Y27768D02*
Y25990D01*
X32022Y25957*
Y24445*
X34532Y20445D02*
X33394D01*
X32677Y21161*
X34532Y20445D02*
Y16429D01*
X34370Y16267*
X34768Y20208D02*
Y20501D01*
X33891Y21378*
X33740*
X32587*
X32461Y21251*
Y20197*
X32677Y19980*
X34768Y20208D02*
Y19021D01*
X34870Y18920*
Y18708*
X35005Y20445D02*
Y19127D01*
X35370Y18762*
Y16267*
X35242Y20208D02*
Y20501D01*
X34128Y21614*
X31643*
X31280Y21251*
Y20197*
X31496Y19980*
X35242Y20208D02*
Y19336D01*
X35870Y18708*
X36585Y62361D02*
Y70282D01*
X39567Y73264*
Y91976*
X37563Y40280D02*
X37527Y40245D01*
X38391Y27727D02*
X38794D01*
X39021*
X39004Y40362D02*
X38960Y40406D01*
X39020Y41349D02*
X38961D01*
X38820Y41490*
X38716*
X38675Y41449*
X38389*
X39228Y35852D02*
X39227Y35853D01*
X39370Y46752D02*
X40503Y47885D01*
X39370Y91976D02*
Y73234D01*
X36113Y69977*
Y62368*
X39370Y92900D02*
Y92528D01*
X39396Y804D02*
Y437D01*
Y1355D02*
Y19974D01*
X43337Y23915*
X43346*
X43492Y24061*
X40157Y23130D02*
Y23950D01*
X41618Y25411*
X41911*
X40393Y30813D02*
Y30832D01*
X40373Y30852*
Y30871*
X41339Y23130D02*
X41911Y23702D01*
Y24938*
X41674Y25174D02*
Y24915D01*
X41339Y24580*
Y24311*
X41674Y25174D02*
X43699D01*
X44939Y26415*
Y26633*
X41674Y25647D02*
X41193D01*
X40157Y24612*
Y24311*
X41674Y25647D02*
X43695D01*
X44466Y26418*
Y26633*
X41911Y24938D02*
X43687D01*
X45176Y26426*
Y26870*
X42867Y28421D02*
X42926D01*
Y28750D02*
X42924Y28751D01*
X44500Y28403D02*
X45299D01*
X45383Y28319*
X44703Y26870D02*
Y26427D01*
X43687Y25411*
X41911*
X45179Y43323D02*
X45743Y43887D01*
Y46584*
X45383Y28319D02*
Y26363D01*
X39199Y20180*
Y1355*
X46074Y28421D02*
X45848D01*
X45829Y28403*
X45466*
X45383Y28319*
X47059Y28421D02*
X46818D01*
X46807Y28432*
X46773*
X48773Y24962D02*
X48952Y25141D01*
Y25231*
X48975Y25254*
Y26044*
X48252Y26766*
Y27156*
X49697Y31179D02*
X49661D01*
X49577Y31264*
X49970Y26222D02*
X49824Y26368D01*
Y26462*
X49027Y27259*
Y28299*
X50019Y15684D02*
X49531D01*
X46259Y18956*
Y22275*
X50209Y40670D02*
X50268D01*
X50213Y30519D02*
Y30498D01*
X50459Y30147D02*
Y30252D01*
X51355Y41350D02*
X51699D01*
X51984*
X51355Y27728D02*
X51699D01*
X51985*
X51355D02*
X51077D01*
X50994Y27811*
Y28385*
X52004Y27747D02*
X51985Y27728D01*
X52223Y26620D02*
X51669D01*
X50329Y27960*
Y28174*
X50097Y28407*
X52763Y34488D02*
X52970D01*
X53046Y34411*
X52786Y33187D02*
X53444Y33845D01*
X53593*
X54184Y34436*
Y47564*
X55877Y49258*
X53046Y34411D02*
X53095D01*
X53191Y34507*
Y34609*
X53367Y34786*
X53473*
X53052Y34273D02*
X52971Y34193D01*
X52765*
X53052Y34273D02*
X53152D01*
X53328Y34450*
Y34552*
X53424Y34648*
X53473*
X53236Y33141D02*
X54424Y34329D01*
Y47465*
X55976Y49017*
X53473Y34786D02*
X53571Y34884D01*
X53778*
Y34549D02*
X53571D01*
X53473Y34648*
X55128Y33487D02*
Y33815D01*
Y33891*
X54664Y34355*
Y47365*
X56076Y48777*
X55476Y33138D02*
Y33882D01*
X55824Y33487D02*
Y33874D01*
X55846Y47206D02*
X55144Y46505D01*
Y34554*
X55824Y33874*
X55877Y49258D02*
X60555D01*
X60833Y48980*
Y48341*
X55945Y46966D02*
X58358D01*
X58727Y47335*
X59164*
X59333Y47504*
Y47841*
X55976Y49017D02*
X59612D01*
X59833Y48797*
Y48341*
X55979D02*
X54904Y47266D01*
Y34454*
X55476Y33882*
X56045Y46726D02*
X55624Y46306D01*
Y34753*
X56521Y33856*
X56076Y48777D02*
X58689D01*
X58833Y48633*
X56173Y33138D02*
Y33865D01*
X55384Y34653*
Y46405*
X55945Y46966*
X56243Y46486D02*
X58557D01*
X58925Y46854*
X59710*
X60182Y47326*
X60818*
X61333Y47841*
X56345Y45627D02*
Y35051D01*
X57566Y33830*
X56483Y46246D02*
X58657D01*
X59025Y46614*
X59810*
X60281Y47086*
X61578*
X62333Y47841*
X56521Y33487D02*
Y33856D01*
X56870Y33138D02*
Y33847D01*
X55865Y34852*
Y46107*
X56243Y46486*
X57218Y33487D02*
Y33838D01*
X56105Y34952*
Y45867*
X56483Y46246*
X57566Y33138D02*
Y33830D01*
X57833Y48341D02*
X55979D01*
X57915Y33487D02*
Y34780D01*
X64843Y41708*
Y48381*
X64805Y48420*
X58328Y47836D02*
X58333Y47841D01*
Y47364*
X58175Y47206*
X55846*
X58632Y33483D02*
Y33852D01*
X58635Y33855*
Y34462*
X66045Y41872*
Y48323*
X65055Y49314*
X64594*
X58918Y44653D02*
X58447Y45124D01*
X60333Y47841D02*
X59587Y47094D01*
X58826*
X58458Y46726*
X56045*
X60947Y45624D02*
X61365Y46043D01*
X63656*
X63779Y45920*
Y44743*
X61833Y48341D02*
Y48859D01*
X62288Y49314*
X64594*
X62026Y41376D02*
X60980Y42422D01*
Y42586*
X58918Y44647*
Y44653*
X62304Y67845D02*
X63039D01*
X63123Y67762*
X62446Y43629D02*
Y44160D01*
X62447Y44161*
Y45124*
X62667Y51112D02*
X62786D01*
X62821Y51078*
X63123Y67762D02*
X63205Y67845D01*
X64096*
X63288Y60161D02*
X63502D01*
X63601Y60260*
X63333Y47841D02*
Y47103D01*
X63075Y46846*
X60381*
X59909Y46374*
X59124*
X58756Y46006*
X56724*
X56345Y45627*
X63507Y43859D02*
X64019Y44371D01*
X63544Y43407D02*
X64278Y44141D01*
X63601Y60260D02*
Y64208D01*
X63779Y44743D02*
X63511Y44476D01*
X63393*
X63160Y44243*
X63988Y64070D02*
Y64494D01*
X62909Y65572*
Y66909*
X63123Y67122*
Y67762*
X64019Y44371D02*
Y46073D01*
X63801Y46291*
X60614*
X59947Y45624*
X64278Y44141D02*
Y46179D01*
X63926Y46531*
X60432*
X60035Y46134*
X59457*
X58947Y45624*
X64334Y64210D02*
X64535Y64008D01*
Y63939*
X64673Y63801*
Y58833*
X64494Y49074D02*
X63044D01*
X62833Y48863*
Y48341*
X64494Y49074D02*
X64708D01*
X65124Y48658*
Y41516*
X58263Y34655*
Y33138*
X64805Y48420D02*
X64396Y48829D01*
X64039*
X63833Y48623*
Y48341*
X67675Y60484D02*
X66969D01*
X66200Y61252*
Y64536*
X65898Y64838*
G54D19*
X15293Y45624D02*
Y46057D01*
X15953Y46717*
X23719*
X24291Y47289*
Y48658*
X23734Y49215*
X22179Y48341D02*
Y48774D01*
X22620Y49215*
X23734*
X40383Y30881D02*
X40393Y30891D01*
Y32677*
Y30660D02*
Y30813D01*
Y32677D02*
Y35852D01*
Y37007*
Y37803*
X40950Y30104D02*
X40393Y30660D01*
X42664Y38987D02*
X41957D01*
X42924Y30104D02*
X40950D01*
X45888Y38987D02*
X42664D01*
X45983Y30104D02*
X42924D01*
X46018D02*
X46003D01*
X46251Y22608D02*
X46259Y22601D01*
X46251Y22608D02*
Y22932D01*
X46257Y22938*
X46259Y22601D02*
Y22275D01*
Y22940D02*
X46257Y22938D01*
X46592Y28379D02*
Y27459D01*
X46259Y27126*
Y22940*
X46595Y29568D02*
Y28379D01*
X46592*
X46595Y30025D02*
Y29568D01*
X46615Y30101D02*
Y30045D01*
X46595Y30025*
X46615Y30101D02*
X46020D01*
X47253Y38987D02*
X45888D01*
X48929D02*
X47253D01*
X48952Y30086D02*
Y30101D01*
X46615*
X48952Y30086D02*
X49292Y38624*
X48929Y38987D01*
X49577Y31264D02*
X49286Y30973D01*
Y30421*
X48952Y30086*
X49577Y33457D02*
Y36571D01*
Y33457D02*
Y31264D01*
Y36571D02*
Y37940D01*
Y38340*
X49292Y38624*
X50213Y30498D02*
X50459Y30252D01*
X50234Y30498D02*
X50213Y30519D01*
X50785Y32347D02*
X51159D01*
X51160Y32346*
X63068*
Y32340*
X63408*
X57447Y44686D02*
Y45124D01*
X61276Y40857D02*
X57447Y44686D01*
X61516Y30252D02*
X50459D01*
X62394Y40857D02*
X61276D01*
X67604Y58597D02*
Y59090D01*
Y58597D02*
X64417Y55410D01*
X54317*
X53693Y54786*
Y53025*
X53123Y52455*
X26313*
X24291Y50433*
Y49772*
X23734Y49215*
G54D20*
X39020Y40955D03*
Y41349D03*
X39021Y27727D03*
Y28121D03*
X39619Y28027D03*
Y28421D03*
X39775Y40670D03*
Y41063D03*
X40091Y28027D03*
Y28421D03*
X40562Y40670D03*
Y41063D03*
X40564Y28027D03*
Y28421D03*
X41153Y28027D03*
Y28421D03*
X41349Y40670D03*
Y41063D03*
X41942Y40670D03*
Y41063D03*
X42141Y28027D03*
Y28421D03*
X42728Y40670D03*
Y41063D03*
X42926Y28027D03*
Y28421D03*
X44500Y40670D03*
Y41063D03*
X45877Y40670D03*
Y41063D03*
X46074Y28027D03*
Y28421D03*
X47059Y28027D03*
Y28421D03*
X47258Y40670D03*
Y41063D03*
X48043Y40670D03*
Y41063D03*
X48437Y28027D03*
Y28421D03*
X49421Y40670D03*
Y41063D03*
X49618Y28027D03*
Y28421D03*
X50268Y40670D03*
Y41063D03*
X50604Y28027D03*
Y28421D03*
X50741Y40670D03*
Y41063D03*
X51355Y40956D03*
Y41350D03*
Y27728D03*
Y28121D03*
G54D21*
X38389Y40898D03*
Y41449D03*
X38391Y27727D03*
Y28279D03*
X51984Y40799D03*
Y41350D03*
X51985Y27728D03*
Y28279D03*
G54D22*
X37134Y40245D03*
X37527D03*
X38666Y29321D03*
Y30108D03*
Y31093D03*
Y31683D03*
Y32669D03*
Y34047D03*
Y35381D03*
Y35853D03*
Y36999D03*
Y38132D03*
Y38605D03*
X39060Y29321D03*
Y30108D03*
Y31093D03*
Y31683D03*
Y32669D03*
Y34047D03*
Y35381D03*
Y35853D03*
Y36999D03*
Y38132D03*
Y38605D03*
X44106Y28403D03*
X44500D03*
X51316Y29304D03*
Y29776D03*
Y30696D03*
Y31289D03*
Y31880D03*
Y33457D03*
Y36583D03*
Y37194D03*
Y37983D03*
Y39361D03*
Y40150D03*
Y28831D03*
Y35622D03*
X51710Y29304D03*
Y29776D03*
Y30696D03*
Y31289D03*
Y31880D03*
Y33457D03*
Y36583D03*
Y37194D03*
Y37983D03*
Y39361D03*
Y40150D03*
Y28831D03*
Y35622D03*
G54D23*
X15293Y45124D03*
Y45624D03*
X15793Y45124D03*
Y45624D03*
X16179Y48341D03*
X16293Y45124D03*
Y45624D03*
X16679Y47841D03*
Y48341D03*
X16793Y45124D03*
Y45624D03*
X17179Y47841D03*
Y48341D03*
X17293Y45124D03*
Y45624D03*
X17679Y47841D03*
Y48341D03*
X17793Y45124D03*
Y45624D03*
X18179Y47841D03*
Y48341D03*
X18293Y45124D03*
Y45624D03*
X18679Y47841D03*
Y48341D03*
X18793Y45124D03*
Y45624D03*
X19179Y47841D03*
Y48341D03*
X19293Y45124D03*
Y45624D03*
X19679Y47841D03*
Y48341D03*
X19793Y45124D03*
Y45624D03*
X20179Y47841D03*
Y48341D03*
X20293Y45124D03*
Y45624D03*
X20679Y47841D03*
Y48341D03*
X20793Y45124D03*
Y45624D03*
X21179Y47841D03*
Y48341D03*
X21293Y45124D03*
Y45624D03*
X21679Y47841D03*
Y48341D03*
X21793Y45124D03*
X22179Y47841D03*
Y48341D03*
X22679Y47841D03*
Y48341D03*
X56947Y45124D03*
Y45624D03*
X57447Y45124D03*
Y45624D03*
X57833Y48341D03*
X57947Y45124D03*
Y45624D03*
X58333Y47841D03*
Y48341D03*
X58447Y45124D03*
Y45624D03*
X58833Y47841D03*
Y48341D03*
X58947Y45124D03*
Y45624D03*
X59333Y47841D03*
Y48341D03*
X59447Y45124D03*
Y45624D03*
X59833Y47841D03*
Y48341D03*
X59947Y45124D03*
Y45624D03*
X60333Y47841D03*
Y48341D03*
X60447Y45124D03*
Y45624D03*
X60833Y47841D03*
Y48341D03*
X60947Y45124D03*
Y45624D03*
X61333Y47841D03*
Y48341D03*
X61447Y45124D03*
Y45624D03*
X61833Y47841D03*
Y48341D03*
X61947Y45124D03*
Y45624D03*
X62333Y47841D03*
Y48341D03*
X62447Y45124D03*
Y45624D03*
X62833Y47841D03*
Y48341D03*
X62947Y45124D03*
Y45624D03*
X63333Y47841D03*
Y48341D03*
X63447Y45124D03*
X63833Y47841D03*
Y48341D03*
X64333Y47841D03*
Y48341D03*
G54D24*
X16179Y47841D03*
X21793Y45624D03*
X57833Y47841D03*
X63447Y45624D03*
G54D25*
X39173Y91976D03*
Y92528D03*
X39199Y804D03*
Y1355D03*
X39370Y91976D03*
Y92528D03*
X39396Y804D03*
Y1355D03*
X39567Y91976D03*
Y92528D03*
X39593Y804D03*
Y1355D03*
G54D26*
X37208Y40897D03*
Y41960D03*
Y27117D03*
Y28180D03*
X53166Y27118D03*
Y28181D03*
Y40897D03*
Y41960D03*
G54D70*
X13316Y32987D03*
Y34259D03*
Y35768D03*
Y37016D03*
X14564Y27768D03*
Y37016D03*
X18312Y27768D03*
Y37016D03*
X19560D03*
X20808D03*
X20812Y27768D03*
X24560D03*
Y37016D03*
X25808D03*
X27060Y27768D03*
Y37016D03*
X30808Y27768D03*
Y37016D03*
X32056Y27768D03*
Y37016D03*
X62666Y51892D02*
Y51959D01*
Y52619*
Y52710*
X62667Y52711*
Y53372*
Y51112D02*
Y51958D01*
X62666Y51959*
X62667Y51112D02*
X62096D01*
Y51120*
X42806*
X41804Y50118*
G54D71*
X17224Y62330D03*
X18504Y70768D03*
Y71949D03*
Y73130D03*
X19685Y70768D03*
Y71949D03*
Y73130D03*
X20866Y70768D03*
Y71949D03*
Y73130D03*
X21260Y54626D03*
X22047Y70768D03*
Y71949D03*
Y73130D03*
X22441Y54626D03*
X23228Y70768D03*
Y71949D03*
Y73130D03*
X26772Y76673D03*
X27953D03*
X29134D03*
X30315D03*
X31496Y19980D03*
Y21161D03*
Y76673D03*
X32022Y24445D03*
X32677Y19980D03*
Y21161D03*
Y76673D03*
X33858D03*
X35039D03*
X35928Y29259D03*
X35946Y28419D03*
X36147Y27434D03*
X36220Y76673D03*
X36762Y26420D03*
X37402Y76673D03*
X38583D03*
X40157Y23130D03*
Y24311D03*
X41339Y23130D03*
Y24311D03*
Y76673D03*
X42520D03*
X43701D03*
X44882D03*
X45489Y16581D03*
X46063Y76673D03*
X47036Y22244D03*
X47244Y76673D03*
X47445Y14555D03*
X57749Y56381D03*
X58488Y54375D03*
X61397Y54264D03*
X63071Y30251D03*
X63408Y32340D03*
X63984Y59374D03*
M02*
