*
G04 Job   : H:\SPIROSE\PCB\ROTATIVE_BASE\PCB\PCB.pcb*
G04 User  : DESKTOP-D6MOGOB:alexis*
G04 Layer : SolderPasteTop.gdo*
G04 Date  : Tue Jan 09 14:21:17 2018*
G04 Mentor Graphics Example Gerber Output Definition*
%ICAS*%
%MOIN*%
%FSLAX24Y24*%
%OFA0.0000B0.0000*%
G90*
G74*
%AMVB_RECTANGLE*
21,1,$1,$2,0,0,$3*
%
%ADD16VB_RECTANGLE,0.00787X0.07874X180.00000*%
%ADD70VB_RECTANGLE,0.01181X0.07480X0.00000*%
%ADD19VB_RECTANGLE,0.01181X0.07480X90.00000*%
%ADD25VB_RECTANGLE,0.01378X0.05906X180.00000*%
%ADD21VB_RECTANGLE,0.02638X0.05906X180.00000*%
%ADD72VB_RECTANGLE,0.02638X0.09843X0.00000*%
%ADD10VB_RECTANGLE,0.02756X0.01575X180.00000*%
%ADD11VB_RECTANGLE,0.02756X0.01575X270.00000*%
%ADD18VB_RECTANGLE,0.03543X0.03150X90.00000*%
%ADD28VB_RECTANGLE,0.03937X0.02362X180.00000*%
%ADD12VB_RECTANGLE,0.03937X0.02362X90.00000*%
%ADD13VB_RECTANGLE,0.04528X0.07087X90.00000*%
%ADD29VB_RECTANGLE,0.04528X0.12598X180.00000*%
%ADD73VB_RECTANGLE,0.04528X0.12598X270.00000*%
%ADD22VB_RECTANGLE,0.04724X0.06299X270.00000*%
%ADD15VB_RECTANGLE,0.05118X0.07087X90.00000*%
%ADD20VB_RECTANGLE,0.05906X0.12205X0.00000*%
%ADD23VB_RECTANGLE,0.06299X0.13780X0.00000*%
%ADD71VB_RECTANGLE,0.08465X0.10827X180.00000*%
%ADD17VB_RECTANGLE,0.11811X0.20276X180.00000*%
%ADD14VB_RECTANGLE,0.14370X0.05906X0.00000*%
%ADD27VB_RECTANGLE,0.14961X0.08268X270.00000*%
%ADD24VB_RECTANGLE,0.15748X0.05906X90.00000*%
%ADD26VB_RECTANGLE,0.18701X0.10787X180.00000*%
G01*
G36*
X20753Y58392D02*
X21343D01*
Y59455*
X20753*
Y58392*
X42842Y15991D02*
X43433D01*
Y17054*
X42842*
Y15991*
G37*
G54D10*
X42423Y26344D03*
Y26738D03*
X51820Y16282D03*
Y16675D03*
X62578Y68238D03*
Y68632D03*
X63050Y68238D03*
Y68632D03*
X63288Y60161D03*
Y60554D03*
X63548Y34152D03*
Y34546D03*
Y34940D03*
Y35333D03*
X63737Y68238D03*
Y68632D03*
X64209Y68238D03*
Y68632D03*
X64479Y30254D03*
Y30647D03*
Y31041D03*
Y31435D03*
X64673Y58833D03*
Y59227D03*
X64885Y68238D03*
Y68632D03*
X65358Y68238D03*
Y68632D03*
G54D11*
X31859Y25273D03*
X32253D03*
X44357Y42514D03*
X44751D03*
X50515Y14837D03*
X50909D03*
G54D12*
X13655Y38207D03*
X14207D03*
X51003Y18657D03*
X51554D03*
G54D13*
X60674Y63038D03*
Y64101D03*
X61696Y63038D03*
Y64101D03*
X67675Y60484D03*
Y61547D03*
X68661Y60483D03*
Y61546D03*
G54D14*
X15190Y39605D03*
X15217Y25102D03*
X17690Y39605D03*
X17717Y25102D03*
X21393Y39605D03*
X21420Y25102D03*
X23893Y39605D03*
X23920Y25102D03*
X27698D03*
X27757Y39605D03*
X30198Y25102D03*
X30257Y39605D03*
X63961Y62821D03*
X66461D03*
G54D15*
X51278Y19446D03*
Y20627D03*
G54D16*
X25155Y53954D03*
X25254Y51099D03*
X25352Y53954D03*
X25450Y51099D03*
X25549Y53954D03*
X25647Y51099D03*
X25746Y53954D03*
X25844Y51099D03*
X25943Y53954D03*
X26041Y51099D03*
X26139Y53954D03*
X26238Y51099D03*
X26336Y53954D03*
X26435Y51099D03*
X26533Y53954D03*
X26632Y51099D03*
X26730Y53954D03*
X26828Y51099D03*
X26927Y53954D03*
X27025Y51099D03*
X27124Y53954D03*
X27222Y51099D03*
X27321Y53954D03*
X27419Y51099D03*
X27517Y53954D03*
X27616Y51099D03*
X27714Y53954D03*
X27813Y51099D03*
X27911Y53954D03*
X28010Y51099D03*
X28108Y53954D03*
X28206Y51099D03*
X28305Y53954D03*
X28403Y51099D03*
X28502Y53954D03*
X28600Y51099D03*
X28699Y53954D03*
X28797Y51099D03*
X28895Y53954D03*
X28994Y51099D03*
X29092Y53954D03*
X29191Y51099D03*
X29289Y53954D03*
X29388Y51099D03*
X29486Y53954D03*
X29584Y51099D03*
X29683Y53954D03*
X29781Y51099D03*
X29880Y53954D03*
X29978Y51099D03*
X30076Y53954D03*
X30175Y51099D03*
X30273Y53954D03*
X30372Y51099D03*
X30470Y53954D03*
X30569Y51099D03*
X30667Y53954D03*
X30765Y51099D03*
X30864Y53954D03*
X30962Y51099D03*
X31061Y53954D03*
X31159Y51099D03*
X31258Y53954D03*
X31356Y51099D03*
X31454Y53954D03*
X31553Y51099D03*
X31651Y53954D03*
X31750Y51099D03*
X31848Y53954D03*
X31947Y51099D03*
X32045Y53954D03*
X32143Y51099D03*
X32242Y53954D03*
X32340Y51099D03*
X32439Y53954D03*
X32537Y51099D03*
X32636Y53954D03*
X32734Y51099D03*
X32832Y53954D03*
X32931Y51099D03*
X33029Y53954D03*
X33128Y51099D03*
X33226Y53954D03*
X33325Y51099D03*
X33423Y53954D03*
X33521Y51099D03*
X33620Y53954D03*
X33718Y51099D03*
X33817Y53954D03*
X33915Y51099D03*
X34013Y53954D03*
X34112Y51099D03*
X34210Y53954D03*
X34309Y51099D03*
X34407Y53954D03*
X34506Y51099D03*
X34604Y53954D03*
X34702Y51099D03*
X34801Y53954D03*
X34899Y51099D03*
X34998Y53954D03*
X35096Y51099D03*
X35195Y53954D03*
X35293Y51099D03*
X35391Y53954D03*
X35490Y51099D03*
X35588Y53954D03*
X35687Y51099D03*
X35785Y53954D03*
X35884Y51099D03*
X35982Y53954D03*
X36080Y51099D03*
X36179Y53954D03*
X36277Y51099D03*
X36376Y53954D03*
X36474Y51099D03*
X36573Y53954D03*
X36671Y51099D03*
X36769Y53954D03*
X36868Y51099D03*
X36966Y53954D03*
X37065Y51099D03*
X37163Y53954D03*
X37262Y51099D03*
X37360Y53954D03*
X37458Y51099D03*
X37557Y53954D03*
X37655Y51099D03*
X37754Y53954D03*
X37852Y51099D03*
X37950Y53954D03*
X38049Y51099D03*
X38147Y53954D03*
X38246Y51099D03*
X38344Y53954D03*
X38443Y51099D03*
X38541Y53954D03*
X38639Y51099D03*
X38738Y53954D03*
X38836Y51099D03*
X38935Y53954D03*
X39033Y51099D03*
X39132Y53954D03*
X39230Y51099D03*
X39328Y53954D03*
X39427Y51099D03*
X39525Y53954D03*
X39624Y51099D03*
X39722Y53954D03*
X40510D03*
X40608Y51099D03*
X40706Y53954D03*
X40805Y51099D03*
X40903Y53954D03*
X41002Y51099D03*
X41100Y53954D03*
X41199Y51099D03*
X41297Y53954D03*
X41395Y51099D03*
X41494Y53954D03*
X41592Y51099D03*
X41691Y53954D03*
X41789Y51099D03*
X41888Y53954D03*
X41986Y51099D03*
X42084Y53954D03*
X42183Y51099D03*
X42281Y53954D03*
X42380Y51099D03*
X42478Y53954D03*
X42576Y51099D03*
X42675Y53954D03*
X42773Y51099D03*
X42872Y53954D03*
X42970Y51099D03*
X43069Y53954D03*
X43167Y51099D03*
X43265Y53954D03*
X43364Y51099D03*
X43462Y53954D03*
X43561Y51099D03*
X43659Y53954D03*
X43758Y51099D03*
X43856Y53954D03*
X43954Y51099D03*
X44053Y53954D03*
X44151Y51099D03*
X44250Y53954D03*
X44348Y51099D03*
X44447Y53954D03*
X44545Y51099D03*
X44643Y53954D03*
X44742Y51099D03*
X44840Y53954D03*
X44939Y51099D03*
X45037Y53954D03*
X45136Y51099D03*
X45234Y53954D03*
X45332Y51099D03*
X45431Y53954D03*
X45529Y51099D03*
X45628Y53954D03*
X45726Y51099D03*
X45825Y53954D03*
X45923Y51099D03*
X46021Y53954D03*
X46120Y51099D03*
X46218Y53954D03*
X46317Y51099D03*
X46415Y53954D03*
X46513Y51099D03*
X46612Y53954D03*
X46710Y51099D03*
X46809Y53954D03*
X46907Y51099D03*
X47006Y53954D03*
X47104Y51099D03*
X47202Y53954D03*
X47301Y51099D03*
X47399Y53954D03*
X47498Y51099D03*
X47596Y53954D03*
X47695Y51099D03*
X47793Y53954D03*
X47891Y51099D03*
X47990Y53954D03*
X48088Y51099D03*
X48187Y53954D03*
X48285Y51099D03*
X48384Y53954D03*
X48482Y51099D03*
X48580Y53954D03*
X48679Y51099D03*
X48777Y53954D03*
X48876Y51099D03*
X48974Y53954D03*
X49073Y51099D03*
X49171Y53954D03*
X49269Y51099D03*
X49368Y53954D03*
X49466Y51099D03*
X49565Y53954D03*
X49663Y51099D03*
X49762Y53954D03*
X49860Y51099D03*
X49958Y53954D03*
X50057Y51099D03*
X50155Y53954D03*
X50254Y51099D03*
X50352Y53954D03*
X50450Y51099D03*
X50549Y53954D03*
X50647Y51099D03*
X50746Y53954D03*
X50844Y51099D03*
X50943Y53954D03*
X51041Y51099D03*
X51139Y53954D03*
X51238Y51099D03*
X51336Y53954D03*
X51435Y51099D03*
X51533Y53954D03*
X51632Y51099D03*
X51730Y53954D03*
X51828Y51099D03*
X51927Y53954D03*
X52025Y51099D03*
X52124Y53954D03*
X52222Y51099D03*
X52321Y53954D03*
X52419Y51099D03*
X52517Y53954D03*
X52616Y51099D03*
X52714Y53954D03*
X52813Y51099D03*
X52911Y53954D03*
X53010Y51099D03*
X53108Y53954D03*
X53206Y51099D03*
X53305Y53954D03*
X53403Y51099D03*
X53502Y53954D03*
X53600Y51099D03*
X53699Y53954D03*
X53797Y51099D03*
X53895Y53954D03*
X53994Y51099D03*
X54092Y53954D03*
X54191Y51099D03*
X54289Y53954D03*
X54388Y51099D03*
X54486Y53954D03*
X54584Y51099D03*
X54683Y53954D03*
X54781Y51099D03*
X54880Y53954D03*
X54978Y51099D03*
X55076Y53954D03*
X55175Y51099D03*
X55273Y53954D03*
X55372Y51099D03*
X55470Y53954D03*
X55569Y51099D03*
X55667Y53954D03*
X55765Y51099D03*
X55864Y53954D03*
X55962Y51099D03*
X56061Y53954D03*
X56159Y51099D03*
X56258Y53954D03*
X56356Y51099D03*
X56454Y53954D03*
X56553Y51099D03*
X56651Y53954D03*
G54D17*
X23580Y52182D03*
X58226D03*
G54D18*
X31682Y25826D03*
X32056Y26614D03*
X32430Y25826D03*
G54D19*
X38377Y28732D03*
Y28929D03*
Y29125D03*
Y29322D03*
Y29519D03*
Y29716D03*
Y29913D03*
Y30110D03*
Y30306D03*
Y30503D03*
Y30700D03*
Y30897D03*
Y31094D03*
Y31291D03*
Y31488D03*
Y31684D03*
Y31881D03*
Y32078D03*
Y32275D03*
Y32472D03*
Y32669D03*
Y32866D03*
Y33062D03*
Y33259D03*
Y33456D03*
Y33653D03*
Y33850D03*
Y34047D03*
Y34243D03*
Y34440D03*
Y34637D03*
Y34834D03*
Y35031D03*
Y35228D03*
Y35425D03*
Y35621D03*
Y35818D03*
Y36015D03*
Y36212D03*
Y36409D03*
Y36606D03*
Y36803D03*
Y36999D03*
Y37196D03*
Y37393D03*
Y37590D03*
Y37787D03*
Y37984D03*
Y38181D03*
Y38377D03*
Y38574D03*
Y38771D03*
Y38968D03*
Y39165D03*
Y39362D03*
Y39558D03*
Y39755D03*
Y39952D03*
Y40149D03*
Y40346D03*
X52000Y28732D03*
Y28929D03*
Y29125D03*
Y29322D03*
Y29519D03*
Y29716D03*
Y29913D03*
Y30110D03*
Y30306D03*
Y30503D03*
Y30700D03*
Y30897D03*
Y31094D03*
Y31291D03*
Y31488D03*
Y31684D03*
Y31881D03*
Y32078D03*
Y32275D03*
Y32472D03*
Y32669D03*
Y32866D03*
Y33062D03*
Y33259D03*
Y33456D03*
Y33653D03*
Y33850D03*
Y34047D03*
Y34243D03*
Y34440D03*
Y34637D03*
Y34834D03*
Y35031D03*
Y35228D03*
Y35425D03*
Y35621D03*
Y35818D03*
Y36015D03*
Y36212D03*
Y36409D03*
Y36606D03*
Y36803D03*
Y36999D03*
Y37196D03*
Y37393D03*
Y37590D03*
Y37787D03*
Y37984D03*
Y38181D03*
Y38377D03*
Y38574D03*
Y38771D03*
Y38968D03*
Y39165D03*
Y39362D03*
Y39558D03*
Y39755D03*
Y39952D03*
Y40149D03*
Y40346D03*
G54D20*
X21548Y57034D03*
X22048Y58845D03*
X22548Y57034D03*
X38638Y18413D03*
X39138Y16602D03*
X39638Y18413D03*
X40138Y16602D03*
X40638Y18413D03*
X41138Y16602D03*
X41638Y18413D03*
X42138Y16602D03*
X42638Y18413D03*
G54D21*
X49519Y15684D03*
Y17692D03*
X50019Y15684D03*
Y17692D03*
X50519Y15684D03*
Y17692D03*
X51019Y15684D03*
Y17692D03*
G54D22*
X64414Y33838D03*
Y34744D03*
Y35649D03*
X65385Y30252D03*
Y31158D03*
Y32063D03*
G54D23*
X66815Y34744D03*
X67786Y31158D03*
G54D24*
X61280Y61256D03*
X62698D03*
X65250Y60126D03*
X66667D03*
G54D25*
X62306Y64838D03*
Y67319D03*
X62562Y64838D03*
Y67319D03*
X62818Y64838D03*
Y67319D03*
X63074Y64838D03*
Y67319D03*
X63329Y64838D03*
Y67319D03*
X63585Y64838D03*
Y67319D03*
X63841Y64838D03*
Y67319D03*
X64097Y64838D03*
Y67319D03*
X64353Y64838D03*
Y67319D03*
X64609Y64838D03*
Y67319D03*
X64865Y64838D03*
Y67319D03*
X65121Y64838D03*
Y67319D03*
X65377Y64838D03*
Y67319D03*
X65633Y64838D03*
Y67319D03*
G54D26*
X63969Y66079D03*
G54D27*
X48058Y21628D03*
X50239D03*
G54D28*
X29094Y49311D03*
Y49862D03*
X29803Y49311D03*
Y49862D03*
G54D29*
X15908Y42137D03*
X16971D03*
X22111D03*
X23174D03*
X28476D03*
X29539D03*
G54D70*
X39381Y27728D03*
Y41350D03*
X39578Y27728D03*
Y41350D03*
X39775Y27728D03*
Y41350D03*
X39972Y27728D03*
Y41350D03*
X40169Y27728D03*
Y41350D03*
X40366Y27728D03*
Y41350D03*
X40563Y27728D03*
Y41350D03*
X40759Y27728D03*
Y41350D03*
X40956Y27728D03*
Y41350D03*
X41153Y27728D03*
Y41350D03*
X41350Y27728D03*
Y41350D03*
X41547Y27728D03*
Y41350D03*
X41744Y27728D03*
Y41350D03*
X41940Y27728D03*
Y41350D03*
X42137Y27728D03*
Y41350D03*
X42334Y27728D03*
Y41350D03*
X42531Y27728D03*
Y41350D03*
X42728Y27728D03*
Y41350D03*
X42925Y27728D03*
Y41350D03*
X43122Y27728D03*
Y41350D03*
X43318Y27728D03*
Y41350D03*
X43515Y27728D03*
Y41350D03*
X43712Y27728D03*
Y41350D03*
X43909Y27728D03*
Y41350D03*
X44106Y27728D03*
Y41350D03*
X44303Y27728D03*
Y41350D03*
X44500Y27728D03*
Y41350D03*
X44696Y27728D03*
Y41350D03*
X44893Y27728D03*
Y41350D03*
X45090Y27728D03*
Y41350D03*
X45287Y27728D03*
Y41350D03*
X45484Y27728D03*
Y41350D03*
X45681Y27728D03*
Y41350D03*
X45877Y27728D03*
Y41350D03*
X46074Y27728D03*
Y41350D03*
X46271Y27728D03*
Y41350D03*
X46468Y27728D03*
Y41350D03*
X46665Y27728D03*
Y41350D03*
X46862Y27728D03*
Y41350D03*
X47059Y27728D03*
Y41350D03*
X47255Y27728D03*
Y41350D03*
X47452Y27728D03*
Y41350D03*
X47649Y27728D03*
Y41350D03*
X47846Y27728D03*
Y41350D03*
X48043Y27728D03*
Y41350D03*
X48240Y27728D03*
Y41350D03*
X48437Y27728D03*
Y41350D03*
X48633Y27728D03*
Y41350D03*
X48830Y27728D03*
Y41350D03*
X49027Y27728D03*
Y41350D03*
X49224Y27728D03*
Y41350D03*
X49421Y27728D03*
Y41350D03*
X49618Y27728D03*
Y41350D03*
X49814Y27728D03*
Y41350D03*
X50011Y27728D03*
Y41350D03*
X50208Y27728D03*
Y41350D03*
X50405Y27728D03*
Y41350D03*
X50602Y27728D03*
Y41350D03*
X50799Y27728D03*
Y41350D03*
X50996Y27728D03*
Y41350D03*
G54D71*
X48286Y19287D03*
X50018D03*
G54D72*
X33370Y16267D03*
Y18708D03*
X33870Y16267D03*
Y18708D03*
X34370Y16267D03*
Y18708D03*
X34870Y16267D03*
Y18708D03*
X35370Y16267D03*
Y18708D03*
X35870Y16267D03*
Y18708D03*
X36370Y16267D03*
Y18708D03*
X36870Y16267D03*
Y18708D03*
G54D73*
X46786Y20563D03*
Y21626D03*
M02*
