*
G04 Job   : H:\SPIROSE\PCB\ROTATIVE_BASE\PCB\PCB.pcb*
G04 User  : DESKTOP-D6MOGOB:alexis*
G04 Layer : SolderPasteBottom.gdo*
G04 Date  : Tue Jan 09 14:21:18 2018*
G04 Mentor Graphics Example Gerber Output Definition*
%ICAS*%
%MOIN*%
%FSLAX24Y24*%
%OFA0.0000B0.0000*%
G90*
G74*
%AMVB_RECTANGLE*
21,1,$1,$2,0,0,$3*
%
%ADD11VB_RECTANGLE,0.02362X0.03937X90.00000*%
%ADD13VB_RECTANGLE,0.02756X0.00984X270.00000*%
%ADD10VB_RECTANGLE,0.02756X0.01575X180.00000*%
%ADD12VB_RECTANGLE,0.02756X0.01575X270.00000*%
%ADD14VB_RECTANGLE,0.04528X0.12598X270.00000*%
G01*
G54D10*
X39020Y40955D03*
Y41349D03*
X39021Y27727D03*
Y28121D03*
X39619Y28027D03*
Y28421D03*
X39775Y40670D03*
Y41063D03*
X40091Y28027D03*
Y28421D03*
X40562Y40670D03*
Y41063D03*
X40564Y28027D03*
Y28421D03*
X41153Y28027D03*
Y28421D03*
X41349Y40670D03*
Y41063D03*
X41942Y40670D03*
Y41063D03*
X42141Y28027D03*
Y28421D03*
X42728Y40670D03*
Y41063D03*
X42926Y28027D03*
Y28421D03*
X44500Y40670D03*
Y41063D03*
X45877Y40670D03*
Y41063D03*
X46074Y28027D03*
Y28421D03*
X47059Y28027D03*
Y28421D03*
X47258Y40670D03*
Y41063D03*
X48043Y40670D03*
Y41063D03*
X48437Y28027D03*
Y28421D03*
X49421Y40670D03*
Y41063D03*
X49618Y28027D03*
Y28421D03*
X50268Y40670D03*
Y41063D03*
X50604Y28027D03*
Y28421D03*
X50741Y40670D03*
Y41063D03*
X51355Y40956D03*
Y41350D03*
Y27728D03*
Y28121D03*
G54D11*
X38389Y40898D03*
Y41449D03*
X38391Y27727D03*
Y28279D03*
X51984Y40799D03*
Y41350D03*
X51985Y27728D03*
Y28279D03*
G54D12*
X37134Y40245D03*
X37527D03*
X38666Y29321D03*
Y30108D03*
Y31093D03*
Y31683D03*
Y32669D03*
Y34047D03*
Y35381D03*
Y35853D03*
Y36999D03*
Y38132D03*
Y38605D03*
X39060Y29321D03*
Y30108D03*
Y31093D03*
Y31683D03*
Y32669D03*
Y34047D03*
Y35381D03*
Y35853D03*
Y36999D03*
Y38132D03*
Y38605D03*
X44106Y28403D03*
X44500D03*
X51316Y29304D03*
Y29776D03*
Y30696D03*
Y31289D03*
Y31880D03*
Y33457D03*
Y36583D03*
Y37194D03*
Y37983D03*
Y39361D03*
Y40150D03*
Y28831D03*
Y35622D03*
X51710Y29304D03*
Y29776D03*
Y30696D03*
Y31289D03*
Y31880D03*
Y33457D03*
Y36583D03*
Y37194D03*
Y37983D03*
Y39361D03*
Y40150D03*
Y28831D03*
Y35622D03*
G54D13*
X39173Y91976D03*
Y92528D03*
X39199Y804D03*
Y1355D03*
X39370Y91976D03*
Y92528D03*
X39396Y804D03*
Y1355D03*
X39567Y91976D03*
Y92528D03*
X39593Y804D03*
Y1355D03*
G54D14*
X37208Y40897D03*
Y41960D03*
Y27117D03*
Y28180D03*
X53166Y27118D03*
Y28181D03*
Y40897D03*
Y41960D03*
M02*
