*
G04 Job   : D:\SpiROSE\PCB\Rotative_base\PCB\PCB.pcb*
G04 User  : DESKTOP-6JAMO00:Adrien*
G04 Layer : SoldermaskBottom.gdo*
G04 Date  : Mon Jan 08 09:44:35 2018*
G04 Mentor Graphics Example Gerber Output Definition*
%ICAS*%
%MOIN*%
%FSLAX24Y24*%
%OFA0.0000B0.0000*%
G90*
G74*
%AMVB_RECTANGLE*
21,1,$1,$2,0,0,$3*
%
%ADD12C,0.02559*%
%ADD11C,0.02953*%
%ADD70C,0.04134*%
%ADD15C,0.06890*%
%ADD14C,0.07480*%
%ADD18C,0.07874*%
%ADD20C,0.08465*%
%ADD16C,0.12598*%
%ADD10C,0.32677*%
%ADD71VB_RECTANGLE,0.04134X0.04134X180.00000*%
%ADD17VB_RECTANGLE,0.02953X0.04528X90.00000*%
%ADD21VB_RECTANGLE,0.03051X0.01280X270.00000*%
%ADD13VB_RECTANGLE,0.03346X0.02165X180.00000*%
%ADD19VB_RECTANGLE,0.03346X0.02165X270.00000*%
%ADD22VB_RECTANGLE,0.05118X0.13189X270.00000*%
G01*
G54D10*
X5366Y35807D03*
Y42933D03*
X11614Y55551D03*
X11665Y35807D03*
Y42933D03*
X15118Y60315D03*
X22638Y12717D03*
X27638Y10315D03*
X39370Y39370D03*
X55748Y12244D03*
X59803Y63504D03*
X60276Y15787D03*
X67963Y35807D03*
Y42969D03*
X74264Y35839D03*
Y42965D03*
G54D11*
X36870Y39370D03*
X39370Y36870D03*
Y41870D03*
X41870Y39370D03*
G54D12*
X17224Y54948D03*
X18504Y63386D03*
Y64567D03*
Y65748D03*
X19685Y63386D03*
Y64567D03*
Y65748D03*
X20866Y63386D03*
Y64567D03*
Y65748D03*
X21260Y47244D03*
X22047Y63386D03*
Y64567D03*
Y65748D03*
X22441Y47244D03*
X23228Y63386D03*
Y64567D03*
Y65748D03*
X26772Y69291D03*
X27953D03*
X29134D03*
X30315D03*
X31496Y12598D03*
Y13780D03*
Y69291D03*
X32022Y17063D03*
X32677Y12598D03*
Y13780D03*
Y69291D03*
X33858D03*
X35039D03*
X35928Y21877D03*
X35946Y21037D03*
X36147Y20052D03*
X36220Y69291D03*
X36762Y19038D03*
X37402Y69291D03*
X38583D03*
X40157Y15748D03*
Y16929D03*
X41339Y15748D03*
Y16929D03*
Y69291D03*
X42520D03*
X43701D03*
X44882D03*
X45489Y9200D03*
X46063Y69291D03*
X47036Y14862D03*
X47244Y69291D03*
X47445Y7173D03*
X57749Y48999D03*
X58488Y46993D03*
X61397Y46882D03*
X63071Y22869D03*
X63408Y24958D03*
X63984Y51992D03*
G54D13*
X39020Y33574D03*
Y33967D03*
X39021Y20345D03*
Y20739D03*
X39619Y20645D03*
Y21039D03*
X39775Y33288D03*
Y33682D03*
X40091Y20645D03*
Y21039D03*
X40562Y33288D03*
Y33682D03*
X40564Y20645D03*
Y21039D03*
X41153Y20645D03*
Y21039D03*
X41349Y33288D03*
Y33682D03*
X41942Y33288D03*
Y33682D03*
X42141Y20645D03*
Y21039D03*
X42728Y33288D03*
Y33682D03*
X42926Y20645D03*
Y21039D03*
X44500Y33288D03*
Y33682D03*
X45877Y33288D03*
Y33682D03*
X46074Y20645D03*
Y21039D03*
X47059Y20645D03*
Y21039D03*
X47258Y33288D03*
Y33682D03*
X48043Y33288D03*
Y33682D03*
X48437Y20645D03*
Y21039D03*
X49421Y33288D03*
Y33682D03*
X49618Y20645D03*
Y21039D03*
X50268Y33288D03*
Y33682D03*
X50604Y20645D03*
Y21039D03*
X50741Y33288D03*
Y33682D03*
X51355Y33574D03*
Y33968D03*
Y20346D03*
Y20740D03*
G54D14*
X24762Y45095D03*
G54D15*
X43691Y10125D03*
X57045Y45095D03*
G54D16*
X26139Y49623D03*
Y67340D03*
X55667Y49623D03*
Y67340D03*
G54D17*
X38389Y33516D03*
Y34067D03*
X38391Y20346D03*
Y20897D03*
X51984Y33417D03*
Y33968D03*
X51985Y20346D03*
Y20897D03*
G54D18*
X20495Y50558D03*
G54D19*
X37134Y32863D03*
X37527D03*
X38666Y21939D03*
Y22726D03*
Y23711D03*
Y24301D03*
Y25287D03*
Y26665D03*
Y27999D03*
Y28471D03*
Y29617D03*
Y30750D03*
Y31223D03*
X39060Y21939D03*
Y22726D03*
Y23711D03*
Y24301D03*
Y25287D03*
Y26665D03*
Y27999D03*
Y28471D03*
Y29617D03*
Y30750D03*
Y31223D03*
X44106Y21021D03*
X44500D03*
X51316Y21922D03*
Y22394D03*
Y23315D03*
Y23907D03*
Y24498D03*
Y26075D03*
Y29201D03*
Y29812D03*
Y30601D03*
Y31979D03*
Y32768D03*
Y21449D03*
Y28240D03*
X51710Y21922D03*
Y22394D03*
Y23315D03*
Y23907D03*
Y24498D03*
Y26075D03*
Y29201D03*
Y29812D03*
Y30601D03*
Y31979D03*
Y32768D03*
Y21449D03*
Y28240D03*
G54D20*
X13316Y25605D03*
Y26877D03*
Y28386D03*
Y29634D03*
X14564Y20386D03*
Y29634D03*
X18312Y20386D03*
Y29634D03*
X19560D03*
X20808D03*
X20812Y20386D03*
X24560D03*
Y29634D03*
X25808D03*
X27060Y20386D03*
Y29634D03*
X30808Y20386D03*
Y29634D03*
X32056Y20386D03*
Y29634D03*
G54D21*
X39173Y84594D03*
Y85146D03*
X39199Y-6578D03*
Y-6027D03*
X39370Y84594D03*
Y85146D03*
X39396Y-6578D03*
Y-6027D03*
X39567Y84594D03*
Y85146D03*
X39593Y-6578D03*
Y-6027D03*
G54D22*
X37208Y33516D03*
Y34579D03*
Y19735D03*
Y20798D03*
X53166Y19736D03*
Y20799D03*
Y33516D03*
Y34579D03*
G54D70*
X15293Y37742D03*
Y38242D03*
X15793Y37742D03*
Y38242D03*
X16179Y40959D03*
X16293Y37742D03*
Y38242D03*
X16679Y40459D03*
Y40959D03*
X16793Y37742D03*
Y38242D03*
X17179Y40459D03*
Y40959D03*
X17293Y37742D03*
Y38242D03*
X17679Y40459D03*
Y40959D03*
X17793Y37742D03*
Y38242D03*
X18179Y40459D03*
Y40959D03*
X18293Y37742D03*
Y38242D03*
X18679Y40459D03*
Y40959D03*
X18793Y37742D03*
Y38242D03*
X19179Y40459D03*
Y40959D03*
X19293Y37742D03*
Y38242D03*
X19679Y40459D03*
Y40959D03*
X19793Y37742D03*
Y38242D03*
X20179Y40459D03*
Y40959D03*
X20293Y37742D03*
Y38242D03*
X20679Y40459D03*
Y40959D03*
X20793Y37742D03*
Y38242D03*
X21179Y40459D03*
Y40959D03*
X21293Y37742D03*
Y38242D03*
X21679Y40459D03*
Y40959D03*
X21793Y37742D03*
X22179Y40459D03*
Y40959D03*
X22679Y40459D03*
Y40959D03*
X56947Y37742D03*
Y38242D03*
X57447Y37742D03*
Y38242D03*
X57833Y40959D03*
X57947Y37742D03*
Y38242D03*
X58333Y40459D03*
Y40959D03*
X58447Y37742D03*
Y38242D03*
X58833Y40459D03*
Y40959D03*
X58947Y37742D03*
Y38242D03*
X59333Y40459D03*
Y40959D03*
X59447Y37742D03*
Y38242D03*
X59833Y40459D03*
Y40959D03*
X59947Y37742D03*
Y38242D03*
X60333Y40459D03*
Y40959D03*
X60447Y37742D03*
Y38242D03*
X60833Y40459D03*
Y40959D03*
X60947Y37742D03*
Y38242D03*
X61333Y40459D03*
Y40959D03*
X61447Y37742D03*
Y38242D03*
X61833Y40459D03*
Y40959D03*
X61947Y37742D03*
Y38242D03*
X62333Y40459D03*
Y40959D03*
X62447Y37742D03*
Y38242D03*
X62833Y40459D03*
Y40959D03*
X62947Y37742D03*
Y38242D03*
X63333Y40459D03*
Y40959D03*
X63447Y37742D03*
X63833Y40459D03*
Y40959D03*
X64333Y40459D03*
Y40959D03*
G54D71*
X16179Y40459D03*
X21793Y38242D03*
X57833Y40459D03*
X63447Y38242D03*
M02*
