*
G04 Job   : D:\SpiROSE\PCB\Rotative_base\PCB\PCB.pcb*
G04 User  : DESKTOP-6JAMO00:Adrien*
G04 Layer : SolderPasteBottom.gdo*
G04 Date  : Mon Jan 08 09:44:35 2018*
G04 Mentor Graphics Example Gerber Output Definition*
%ICAS*%
%MOIN*%
%FSLAX24Y24*%
%OFA0.0000B0.0000*%
G90*
G74*
%AMVB_RECTANGLE*
21,1,$1,$2,0,0,$3*
%
%ADD11VB_RECTANGLE,0.02362X0.03937X90.00000*%
%ADD13VB_RECTANGLE,0.02756X0.00984X270.00000*%
%ADD10VB_RECTANGLE,0.02756X0.01575X180.00000*%
%ADD12VB_RECTANGLE,0.02756X0.01575X270.00000*%
%ADD14VB_RECTANGLE,0.04528X0.12598X270.00000*%
G01*
G54D10*
X39020Y33574D03*
Y33967D03*
X39021Y20345D03*
Y20739D03*
X39619Y20645D03*
Y21039D03*
X39775Y33288D03*
Y33682D03*
X40091Y20645D03*
Y21039D03*
X40562Y33288D03*
Y33682D03*
X40564Y20645D03*
Y21039D03*
X41153Y20645D03*
Y21039D03*
X41349Y33288D03*
Y33682D03*
X41942Y33288D03*
Y33682D03*
X42141Y20645D03*
Y21039D03*
X42728Y33288D03*
Y33682D03*
X42926Y20645D03*
Y21039D03*
X44500Y33288D03*
Y33682D03*
X45877Y33288D03*
Y33682D03*
X46074Y20645D03*
Y21039D03*
X47059Y20645D03*
Y21039D03*
X47258Y33288D03*
Y33682D03*
X48043Y33288D03*
Y33682D03*
X48437Y20645D03*
Y21039D03*
X49421Y33288D03*
Y33682D03*
X49618Y20645D03*
Y21039D03*
X50268Y33288D03*
Y33682D03*
X50604Y20645D03*
Y21039D03*
X50741Y33288D03*
Y33682D03*
X51355Y33574D03*
Y33968D03*
Y20346D03*
Y20740D03*
G54D11*
X38389Y33516D03*
Y34067D03*
X38391Y20346D03*
Y20897D03*
X51984Y33417D03*
Y33968D03*
X51985Y20346D03*
Y20897D03*
G54D12*
X37134Y32863D03*
X37527D03*
X38666Y21939D03*
Y22726D03*
Y23711D03*
Y24301D03*
Y25287D03*
Y26665D03*
Y27999D03*
Y28471D03*
Y29617D03*
Y30750D03*
Y31223D03*
X39060Y21939D03*
Y22726D03*
Y23711D03*
Y24301D03*
Y25287D03*
Y26665D03*
Y27999D03*
Y28471D03*
Y29617D03*
Y30750D03*
Y31223D03*
X44106Y21021D03*
X44500D03*
X51316Y21922D03*
Y22394D03*
Y23315D03*
Y23907D03*
Y24498D03*
Y26075D03*
Y29201D03*
Y29812D03*
Y30601D03*
Y31979D03*
Y32768D03*
Y21449D03*
Y28240D03*
X51710Y21922D03*
Y22394D03*
Y23315D03*
Y23907D03*
Y24498D03*
Y26075D03*
Y29201D03*
Y29812D03*
Y30601D03*
Y31979D03*
Y32768D03*
Y21449D03*
Y28240D03*
G54D13*
X39173Y84594D03*
Y85146D03*
X39199Y-6578D03*
Y-6027D03*
X39370Y84594D03*
Y85146D03*
X39396Y-6578D03*
Y-6027D03*
X39567Y84594D03*
Y85146D03*
X39593Y-6578D03*
Y-6027D03*
G54D14*
X37208Y33516D03*
Y34579D03*
Y19735D03*
Y20798D03*
X53166Y19736D03*
Y20799D03*
Y33516D03*
Y34579D03*
M02*
