G75*
%MOIN*%
%OFA0B0*%
%FSLAX25Y25*%
%IPPOS*%
%LPD*%
%AMOC8*
5,1,8,0,0,1.08239X$1,22.5*
%
%ADD10C,0.00000*%
%ADD11C,0.07800*%
%ADD12R,0.02572X0.02572*%
%ADD13R,0.06312X0.04737*%
%ADD14R,0.07099X0.05918*%
%ADD15C,0.04737*%
D10*
X0001000Y0001000D02*
X0001000Y0315961D01*
X0394701Y0315961D01*
X0394701Y0001000D01*
X0001000Y0001000D01*
D11*
X0069898Y0041197D03*
X0082693Y0041197D03*
X0082693Y0051197D03*
X0082693Y0061197D03*
X0069898Y0061197D03*
X0069898Y0051197D03*
X0095488Y0051197D03*
X0095488Y0061197D03*
X0108283Y0061197D03*
X0108283Y0051197D03*
X0121079Y0051197D03*
X0121079Y0061197D03*
X0133874Y0061197D03*
X0133874Y0051197D03*
X0133874Y0041197D03*
X0121079Y0041197D03*
X0108283Y0041197D03*
X0095488Y0041197D03*
X0146669Y0041197D03*
X0159465Y0041197D03*
X0172260Y0041197D03*
X0185055Y0041197D03*
X0185055Y0051197D03*
X0185055Y0061197D03*
X0172260Y0061197D03*
X0172260Y0051197D03*
X0159465Y0051197D03*
X0159465Y0061197D03*
X0146669Y0061197D03*
X0146669Y0051197D03*
X0197850Y0051197D03*
X0197850Y0061197D03*
X0210646Y0061197D03*
X0210646Y0051197D03*
X0223441Y0051197D03*
X0223441Y0061197D03*
X0236236Y0061197D03*
X0236236Y0051197D03*
X0249031Y0051197D03*
X0249031Y0061197D03*
X0261827Y0061197D03*
X0261827Y0051197D03*
X0261827Y0041197D03*
X0249031Y0041197D03*
X0236236Y0041197D03*
X0223441Y0041197D03*
X0210646Y0041197D03*
X0197850Y0041197D03*
X0196787Y0258874D03*
X0186787Y0258874D03*
X0176787Y0258874D03*
X0166787Y0258874D03*
X0146787Y0258913D03*
X0136787Y0258913D03*
X0206787Y0258874D03*
X0216787Y0258874D03*
X0226787Y0258874D03*
X0236787Y0258874D03*
D12*
X0107988Y0216256D03*
X0104642Y0216256D03*
X0104642Y0212909D03*
X0107988Y0212909D03*
X0107988Y0198539D03*
X0107988Y0195193D03*
X0104642Y0195193D03*
X0104642Y0198539D03*
X0104642Y0180823D03*
X0107988Y0180823D03*
X0107988Y0177476D03*
X0104642Y0177476D03*
X0104642Y0163106D03*
X0104642Y0159760D03*
X0107988Y0159760D03*
X0107988Y0163106D03*
X0107988Y0145390D03*
X0104642Y0145390D03*
X0104642Y0142043D03*
X0107988Y0142043D03*
X0107988Y0127673D03*
X0107988Y0124327D03*
X0104642Y0124327D03*
X0104642Y0127673D03*
X0104642Y0109957D03*
X0107988Y0109957D03*
X0107988Y0106610D03*
X0104642Y0106610D03*
X0104642Y0092240D03*
X0107988Y0092240D03*
X0107988Y0088894D03*
X0104642Y0088894D03*
X0113500Y0088894D03*
X0113500Y0092240D03*
X0116846Y0092240D03*
X0116846Y0088894D03*
X0122358Y0088894D03*
X0122358Y0092240D03*
X0125705Y0092240D03*
X0125705Y0088894D03*
X0131217Y0088894D03*
X0134563Y0088894D03*
X0134563Y0092240D03*
X0131217Y0092240D03*
X0140075Y0092240D03*
X0143421Y0092240D03*
X0143421Y0088894D03*
X0140075Y0088894D03*
X0148933Y0088894D03*
X0148933Y0092240D03*
X0152280Y0092240D03*
X0152280Y0088894D03*
X0157791Y0088894D03*
X0157791Y0092240D03*
X0161138Y0092240D03*
X0161138Y0088894D03*
X0166650Y0088894D03*
X0169996Y0088894D03*
X0169996Y0092240D03*
X0166650Y0092240D03*
X0175508Y0092240D03*
X0175508Y0088894D03*
X0178854Y0088894D03*
X0178854Y0092240D03*
X0184366Y0092240D03*
X0184366Y0088894D03*
X0187713Y0088894D03*
X0187713Y0092240D03*
X0193224Y0092240D03*
X0193224Y0088894D03*
X0196571Y0088894D03*
X0196571Y0092240D03*
X0202083Y0092240D03*
X0205429Y0092240D03*
X0205429Y0088894D03*
X0202083Y0088894D03*
X0210941Y0088894D03*
X0210941Y0092240D03*
X0214287Y0092240D03*
X0214287Y0088894D03*
X0219799Y0088894D03*
X0219799Y0092240D03*
X0223146Y0092240D03*
X0223146Y0088894D03*
X0228657Y0088894D03*
X0228657Y0092240D03*
X0232004Y0092240D03*
X0232004Y0088894D03*
X0237516Y0088894D03*
X0237516Y0092240D03*
X0240862Y0092240D03*
X0240862Y0088894D03*
D13*
X0127378Y0108480D03*
X0127378Y0115961D03*
X0118717Y0112220D03*
X0127378Y0126197D03*
X0118717Y0129937D03*
X0127378Y0133677D03*
X0127378Y0143913D03*
X0127378Y0151394D03*
X0118717Y0147654D03*
X0127378Y0161630D03*
X0118717Y0165370D03*
X0127378Y0169110D03*
X0127378Y0179346D03*
X0127378Y0186827D03*
X0118717Y0183087D03*
X0127378Y0197063D03*
X0127378Y0204543D03*
X0118717Y0200803D03*
X0127378Y0214780D03*
X0118717Y0218520D03*
X0127378Y0222260D03*
X0127378Y0232496D03*
X0127378Y0239976D03*
X0118717Y0236236D03*
D14*
X0139780Y0232496D03*
X0139780Y0239976D03*
X0139780Y0222260D03*
X0139780Y0214780D03*
X0139780Y0204543D03*
X0139780Y0197063D03*
X0139780Y0186827D03*
X0139780Y0179346D03*
X0139780Y0169110D03*
X0139780Y0161630D03*
X0139780Y0151394D03*
X0139780Y0143913D03*
X0139780Y0133677D03*
X0139780Y0126197D03*
X0139780Y0115961D03*
X0139780Y0108480D03*
D15*
X0149622Y0115173D03*
X0148638Y0132890D03*
X0148638Y0150606D03*
X0148638Y0169307D03*
X0149622Y0185055D03*
X0149622Y0204740D03*
X0149622Y0222457D03*
X0149622Y0240173D03*
X0112220Y0211630D03*
X0100409Y0211630D03*
X0100409Y0193913D03*
X0112220Y0193913D03*
X0112220Y0176197D03*
X0100409Y0176197D03*
X0100409Y0158480D03*
X0112220Y0158480D03*
X0112220Y0140764D03*
X0100409Y0140764D03*
X0100409Y0123047D03*
X0112220Y0123047D03*
X0112220Y0105331D03*
X0100409Y0105331D03*
X0095488Y0088598D03*
X0091551Y0082693D03*
M02*
